<?xml version="1.0" encoding="UTF-8" standalone="no"?>
<!DOCTYPE svg PUBLIC "-//W3C//DTD SVG 1.1//EN"
 "http://www.w3.org/Graphics/SVG/1.1/DTD/svg11.dtd">
<!-- Generated by graphviz version 2.38.0 (20140413.2041)
 -->
<!-- Title: o2::quality_control::postprocessing::Reductor Pages: 1 -->
<svg width="1397pt" height="380pt"
 viewBox="0.00 0.00 1397.00 380.00" xmlns="http://www.w3.org/2000/svg" xmlns:xlink="http://www.w3.org/1999/xlink">
<g id="graph0" class="graph" transform="scale(1 1) rotate(0) translate(4 376)">
<title>o2::quality_control::postprocessing::Reductor</title>
<!-- Node1 -->
<g id="node1" class="node"><title>Node1</title>
<polygon fill="#bfbfbf" stroke="black" points="620,-259.5 620,-371.5 754,-371.5 754,-259.5 620,-259.5"/>
<text text-anchor="start" x="628" y="-359.5" font-family="Helvetica,sans-Serif" font-size="10.00">o2::quality_control</text>
<text text-anchor="middle" x="687" y="-348.5" font-family="Helvetica,sans-Serif" font-size="10.00">::postprocessing::Reductor</text>
<polyline fill="none" stroke="black" points="620,-341.5 754,-341.5 "/>
<text text-anchor="middle" x="687" y="-329.5" font-family="Helvetica,sans-Serif" font-size="10.00"> </text>
<polyline fill="none" stroke="black" points="620,-322.5 754,-322.5 "/>
<text text-anchor="start" x="628" y="-310.5" font-family="Helvetica,sans-Serif" font-size="10.00">+ Reductor()</text>
<text text-anchor="start" x="628" y="-299.5" font-family="Helvetica,sans-Serif" font-size="10.00">+ ~Reductor()</text>
<text text-anchor="start" x="628" y="-288.5" font-family="Helvetica,sans-Serif" font-size="10.00">+ getBranchAddress()</text>
<text text-anchor="start" x="628" y="-277.5" font-family="Helvetica,sans-Serif" font-size="10.00">+ getBranchLeafList()</text>
<text text-anchor="start" x="628" y="-266.5" font-family="Helvetica,sans-Serif" font-size="10.00">+ update()</text>
</g>
<!-- Node2 -->
<g id="node2" class="node"><title>Node2</title>
<g id="a_node2"><a xlink:href="classMyReductor.html" target="_top" xlink:title="{MyReductor\n|+ integral\l|+ MyReductor()\l+ ~MyReductor()\l+ getBranchAddress()\l+ getBranchLeafList()\l+ update()\l}">
<polygon fill="none" stroke="black" points="0,-61 0,-162 112,-162 112,-61 0,-61"/>
<text text-anchor="middle" x="56" y="-150" font-family="Helvetica,sans-Serif" font-size="10.00">MyReductor</text>
<polyline fill="none" stroke="black" points="0,-143 112,-143 "/>
<text text-anchor="start" x="8" y="-131" font-family="Helvetica,sans-Serif" font-size="10.00">+ integral</text>
<polyline fill="none" stroke="black" points="0,-124 112,-124 "/>
<text text-anchor="start" x="8" y="-112" font-family="Helvetica,sans-Serif" font-size="10.00">+ MyReductor()</text>
<text text-anchor="start" x="8" y="-101" font-family="Helvetica,sans-Serif" font-size="10.00">+ ~MyReductor()</text>
<text text-anchor="start" x="8" y="-90" font-family="Helvetica,sans-Serif" font-size="10.00">+ getBranchAddress()</text>
<text text-anchor="start" x="8" y="-79" font-family="Helvetica,sans-Serif" font-size="10.00">+ getBranchLeafList()</text>
<text text-anchor="start" x="8" y="-68" font-family="Helvetica,sans-Serif" font-size="10.00">+ update()</text>
</a>
</g>
</g>
<!-- Node1&#45;&gt;Node2 -->
<g id="edge1" class="edge"><title>Node1&#45;&gt;Node2</title>
<path fill="none" stroke="midnightblue" d="M609.469,-310.057C473.52,-300.964 199.133,-276.417 121,-223 99.5948,-208.366 84.2104,-184.167 73.7999,-162.14"/>
<polygon fill="none" stroke="midnightblue" points="609.598,-313.573 619.806,-310.736 610.057,-306.588 609.598,-313.573"/>
</g>
<!-- Node3 -->
<g id="node3" class="node"><title>Node3</title>
<g id="a_node3"><a xlink:href="classo2_1_1quality__control__modules_1_1common_1_1QualityReductor.html" target="_top" xlink:title="A Reductor of QualityObjects, stores a name and level of a Quality. ">
<polygon fill="none" stroke="black" points="130.5,-44.5 130.5,-178.5 309.5,-178.5 309.5,-44.5 130.5,-44.5"/>
<text text-anchor="start" x="138.5" y="-166.5" font-family="Helvetica,sans-Serif" font-size="10.00">o2::quality_control</text>
<text text-anchor="middle" x="220" y="-155.5" font-family="Helvetica,sans-Serif" font-size="10.00">_modules::common::QualityReductor</text>
<polyline fill="none" stroke="black" points="130.5,-148.5 309.5,-148.5 "/>
<text text-anchor="start" x="138.5" y="-136.5" font-family="Helvetica,sans-Serif" font-size="10.00">+ level</text>
<text text-anchor="start" x="138.5" y="-125.5" font-family="Helvetica,sans-Serif" font-size="10.00">+ name</text>
<text text-anchor="start" x="138.5" y="-114.5" font-family="Helvetica,sans-Serif" font-size="10.00">+ NAME_SIZE</text>
<polyline fill="none" stroke="black" points="130.5,-107.5 309.5,-107.5 "/>
<text text-anchor="start" x="138.5" y="-95.5" font-family="Helvetica,sans-Serif" font-size="10.00">+ QualityReductor()</text>
<text text-anchor="start" x="138.5" y="-84.5" font-family="Helvetica,sans-Serif" font-size="10.00">+ ~QualityReductor()</text>
<text text-anchor="start" x="138.5" y="-73.5" font-family="Helvetica,sans-Serif" font-size="10.00">+ getBranchAddress()</text>
<text text-anchor="start" x="138.5" y="-62.5" font-family="Helvetica,sans-Serif" font-size="10.00">+ getBranchLeafList()</text>
<text text-anchor="start" x="138.5" y="-51.5" font-family="Helvetica,sans-Serif" font-size="10.00">+ update()</text>
</a>
</g>
</g>
<!-- Node1&#45;&gt;Node3 -->
<g id="edge2" class="edge"><title>Node1&#45;&gt;Node3</title>
<path fill="none" stroke="midnightblue" d="M609.509,-308.743C531.091,-299.961 408.792,-277.939 318,-223 299.024,-211.517 281.683,-195.178 267.038,-178.576"/>
<polygon fill="none" stroke="midnightblue" points="609.483,-312.26 619.799,-309.847 610.23,-305.3 609.483,-312.26"/>
</g>
<!-- Node4 -->
<g id="node4" class="node"><title>Node4</title>
<g id="a_node4"><a xlink:href="classo2_1_1quality__control__modules_1_1common_1_1TH1Reductor.html" target="_top" xlink:title="A Reductor which obtains the most popular characteristics of TH1. ">
<polygon fill="none" stroke="black" points="327.5,-44.5 327.5,-178.5 494.5,-178.5 494.5,-44.5 327.5,-44.5"/>
<text text-anchor="start" x="335.5" y="-166.5" font-family="Helvetica,sans-Serif" font-size="10.00">o2::quality_control</text>
<text text-anchor="middle" x="411" y="-155.5" font-family="Helvetica,sans-Serif" font-size="10.00">_modules::common::TH1Reductor</text>
<polyline fill="none" stroke="black" points="327.5,-148.5 494.5,-148.5 "/>
<text text-anchor="start" x="335.5" y="-136.5" font-family="Helvetica,sans-Serif" font-size="10.00">+ mean</text>
<text text-anchor="start" x="335.5" y="-125.5" font-family="Helvetica,sans-Serif" font-size="10.00">+ stddev</text>
<text text-anchor="start" x="335.5" y="-114.5" font-family="Helvetica,sans-Serif" font-size="10.00">+ entries</text>
<polyline fill="none" stroke="black" points="327.5,-107.5 494.5,-107.5 "/>
<text text-anchor="start" x="335.5" y="-95.5" font-family="Helvetica,sans-Serif" font-size="10.00">+ TH1Reductor()</text>
<text text-anchor="start" x="335.5" y="-84.5" font-family="Helvetica,sans-Serif" font-size="10.00">+ ~TH1Reductor()</text>
<text text-anchor="start" x="335.5" y="-73.5" font-family="Helvetica,sans-Serif" font-size="10.00">+ getBranchAddress()</text>
<text text-anchor="start" x="335.5" y="-62.5" font-family="Helvetica,sans-Serif" font-size="10.00">+ getBranchLeafList()</text>
<text text-anchor="start" x="335.5" y="-51.5" font-family="Helvetica,sans-Serif" font-size="10.00">+ update()</text>
</a>
</g>
</g>
<!-- Node1&#45;&gt;Node4 -->
<g id="edge3" class="edge"><title>Node1&#45;&gt;Node4</title>
<path fill="none" stroke="midnightblue" d="M610.509,-285.044C575.728,-269.569 535.242,-248.49 503,-223 486.943,-210.305 471.733,-194.405 458.475,-178.657"/>
<polygon fill="none" stroke="midnightblue" points="609.122,-288.257 619.686,-289.058 611.926,-281.844 609.122,-288.257"/>
</g>
<!-- Node5 -->
<g id="node5" class="node"><title>Node5</title>
<g id="a_node5"><a xlink:href="classo2_1_1quality__control__modules_1_1common_1_1TH2Reductor.html" target="_top" xlink:title="A Reductor which obtains the most popular characteristics of TH2. ">
<polygon fill="none" stroke="black" points="512.5,-0.5 512.5,-222.5 679.5,-222.5 679.5,-0.5 512.5,-0.5"/>
<text text-anchor="start" x="520.5" y="-210.5" font-family="Helvetica,sans-Serif" font-size="10.00">o2::quality_control</text>
<text text-anchor="middle" x="596" y="-199.5" font-family="Helvetica,sans-Serif" font-size="10.00">_modules::common::TH2Reductor</text>
<polyline fill="none" stroke="black" points="512.5,-192.5 679.5,-192.5 "/>
<text text-anchor="start" x="520.5" y="-180.5" font-family="Helvetica,sans-Serif" font-size="10.00">+ sumw</text>
<text text-anchor="start" x="520.5" y="-169.5" font-family="Helvetica,sans-Serif" font-size="10.00">+ sumw2</text>
<text text-anchor="start" x="520.5" y="-158.5" font-family="Helvetica,sans-Serif" font-size="10.00">+ sumwx</text>
<text text-anchor="start" x="520.5" y="-147.5" font-family="Helvetica,sans-Serif" font-size="10.00">+ sumwx2</text>
<text text-anchor="start" x="520.5" y="-136.5" font-family="Helvetica,sans-Serif" font-size="10.00">+ sumwy</text>
<text text-anchor="start" x="520.5" y="-125.5" font-family="Helvetica,sans-Serif" font-size="10.00">+ sumwy2</text>
<text text-anchor="start" x="520.5" y="-114.5" font-family="Helvetica,sans-Serif" font-size="10.00">+ sumwxy</text>
<text text-anchor="start" x="520.5" y="-103.5" font-family="Helvetica,sans-Serif" font-size="10.00">+ named</text>
<text text-anchor="start" x="520.5" y="-92.5" font-family="Helvetica,sans-Serif" font-size="10.00">+ array</text>
<text text-anchor="start" x="520.5" y="-81.5" font-family="Helvetica,sans-Serif" font-size="10.00">+ sums</text>
<text text-anchor="start" x="520.5" y="-70.5" font-family="Helvetica,sans-Serif" font-size="10.00">+ entries</text>
<polyline fill="none" stroke="black" points="512.5,-63.5 679.5,-63.5 "/>
<text text-anchor="start" x="520.5" y="-51.5" font-family="Helvetica,sans-Serif" font-size="10.00">+ TH2Reductor()</text>
<text text-anchor="start" x="520.5" y="-40.5" font-family="Helvetica,sans-Serif" font-size="10.00">+ ~TH2Reductor()</text>
<text text-anchor="start" x="520.5" y="-29.5" font-family="Helvetica,sans-Serif" font-size="10.00">+ getBranchAddress()</text>
<text text-anchor="start" x="520.5" y="-18.5" font-family="Helvetica,sans-Serif" font-size="10.00">+ getBranchLeafList()</text>
<text text-anchor="start" x="520.5" y="-7.5" font-family="Helvetica,sans-Serif" font-size="10.00">+ update()</text>
</a>
</g>
</g>
<!-- Node1&#45;&gt;Node5 -->
<g id="edge4" class="edge"><title>Node1&#45;&gt;Node5</title>
<path fill="none" stroke="midnightblue" d="M657.936,-249.984C653.992,-241.23 649.858,-232.054 645.677,-222.772"/>
<polygon fill="none" stroke="midnightblue" points="654.835,-251.623 662.134,-259.303 661.218,-248.747 654.835,-251.623"/>
</g>
<!-- Node6 -->
<g id="node6" class="node"><title>Node6</title>
<g id="a_node6"><a xlink:href="classo2_1_1quality__control__modules_1_1common_1_1THnSparse5Reductor.html" target="_top" xlink:title="A Reductor which obtains the most popular characteristics of THnSparse up to 5 dimensions. ">
<polygon fill="none" stroke="black" points="697.5,-39 697.5,-184 860.5,-184 860.5,-39 697.5,-39"/>
<text text-anchor="start" x="705.5" y="-172" font-family="Helvetica,sans-Serif" font-size="10.00">o2::quality_control</text>
<text text-anchor="start" x="705.5" y="-161" font-family="Helvetica,sans-Serif" font-size="10.00">_modules::common::THnSparse5</text>
<text text-anchor="middle" x="779" y="-150" font-family="Helvetica,sans-Serif" font-size="10.00">Reductor</text>
<polyline fill="none" stroke="black" points="697.5,-143 860.5,-143 "/>
<text text-anchor="start" x="705.5" y="-131" font-family="Helvetica,sans-Serif" font-size="10.00">+ mean</text>
<text text-anchor="start" x="705.5" y="-120" font-family="Helvetica,sans-Serif" font-size="10.00">+ stddev</text>
<text text-anchor="start" x="705.5" y="-109" font-family="Helvetica,sans-Serif" font-size="10.00">+ entries</text>
<polyline fill="none" stroke="black" points="697.5,-102 860.5,-102 "/>
<text text-anchor="start" x="705.5" y="-90" font-family="Helvetica,sans-Serif" font-size="10.00">+ THnSparse5Reductor()</text>
<text text-anchor="start" x="705.5" y="-79" font-family="Helvetica,sans-Serif" font-size="10.00">+ ~THnSparse5Reductor()</text>
<text text-anchor="start" x="705.5" y="-68" font-family="Helvetica,sans-Serif" font-size="10.00">+ getBranchAddress()</text>
<text text-anchor="start" x="705.5" y="-57" font-family="Helvetica,sans-Serif" font-size="10.00">+ getBranchLeafList()</text>
<text text-anchor="start" x="705.5" y="-46" font-family="Helvetica,sans-Serif" font-size="10.00">+ update()</text>
</a>
</g>
</g>
<!-- Node1&#45;&gt;Node6 -->
<g id="edge5" class="edge"><title>Node1&#45;&gt;Node6</title>
<path fill="none" stroke="midnightblue" d="M716.299,-250.17C725.847,-229.205 736.507,-205.8 746.289,-184.322"/>
<polygon fill="none" stroke="midnightblue" points="713.099,-248.751 712.139,-259.303 719.469,-251.653 713.099,-248.751"/>
</g>
<!-- Node7 -->
<g id="node7" class="node"><title>Node7</title>
<g id="a_node7"><a xlink:href="classo2_1_1quality__control__modules_1_1emcal_1_1DigitOccupancyReductor.html" target="_top" xlink:title="A Reductor which obtains the most popular characteristics of TH2. ">
<polygon fill="none" stroke="black" points="878.5,-44.5 878.5,-178.5 1045.5,-178.5 1045.5,-44.5 878.5,-44.5"/>
<text text-anchor="start" x="886.5" y="-166.5" font-family="Helvetica,sans-Serif" font-size="10.00">o2::quality_control</text>
<text text-anchor="start" x="886.5" y="-155.5" font-family="Helvetica,sans-Serif" font-size="10.00">_modules::emcal::DigitOccupancy</text>
<text text-anchor="middle" x="962" y="-144.5" font-family="Helvetica,sans-Serif" font-size="10.00">Reductor</text>
<polyline fill="none" stroke="black" points="878.5,-137.5 1045.5,-137.5 "/>
<text text-anchor="start" x="886.5" y="-125.5" font-family="Helvetica,sans-Serif" font-size="10.00">+ mCountTotal</text>
<text text-anchor="start" x="886.5" y="-114.5" font-family="Helvetica,sans-Serif" font-size="10.00">+ mCountSM</text>
<polyline fill="none" stroke="black" points="878.5,-107.5 1045.5,-107.5 "/>
<text text-anchor="start" x="886.5" y="-95.5" font-family="Helvetica,sans-Serif" font-size="10.00">+ DigitOccupancyReductor()</text>
<text text-anchor="start" x="886.5" y="-84.5" font-family="Helvetica,sans-Serif" font-size="10.00">+ ~DigitOccupancyReductor()</text>
<text text-anchor="start" x="886.5" y="-73.5" font-family="Helvetica,sans-Serif" font-size="10.00">+ getBranchAddress()</text>
<text text-anchor="start" x="886.5" y="-62.5" font-family="Helvetica,sans-Serif" font-size="10.00">+ getBranchLeafList()</text>
<text text-anchor="start" x="886.5" y="-51.5" font-family="Helvetica,sans-Serif" font-size="10.00">+ update()</text>
</a>
</g>
</g>
<!-- Node1&#45;&gt;Node7 -->
<g id="edge6" class="edge"><title>Node1&#45;&gt;Node7</title>
<path fill="none" stroke="midnightblue" d="M763.924,-284.592C798.321,-269.138 838.19,-248.205 870,-223 886.043,-210.288 901.248,-194.382 914.506,-178.633"/>
<polygon fill="none" stroke="midnightblue" points="762.114,-281.565 754.378,-288.804 764.94,-287.969 762.114,-281.565"/>
</g>
<!-- Node8 -->
<g id="node8" class="node"><title>Node8</title>
<g id="a_node8"><a xlink:href="classo2_1_1quality__control__modules_1_1its_1_1TH2XlineReductor.html" target="_top" xlink:title="A Reductor which obtains specific characteristics of TH2: mean and stddev of bin contents for each y ...">
<polygon fill="none" stroke="black" points="1063.5,-55.5 1063.5,-167.5 1224.5,-167.5 1224.5,-55.5 1063.5,-55.5"/>
<text text-anchor="start" x="1071.5" y="-155.5" font-family="Helvetica,sans-Serif" font-size="10.00">o2::quality_control</text>
<text text-anchor="middle" x="1144" y="-144.5" font-family="Helvetica,sans-Serif" font-size="10.00">_modules::its::TH2XlineReductor</text>
<polyline fill="none" stroke="black" points="1063.5,-137.5 1224.5,-137.5 "/>
<text text-anchor="middle" x="1144" y="-125.5" font-family="Helvetica,sans-Serif" font-size="10.00"> </text>
<polyline fill="none" stroke="black" points="1063.5,-118.5 1224.5,-118.5 "/>
<text text-anchor="start" x="1071.5" y="-106.5" font-family="Helvetica,sans-Serif" font-size="10.00">+ TH2XlineReductor()</text>
<text text-anchor="start" x="1071.5" y="-95.5" font-family="Helvetica,sans-Serif" font-size="10.00">+ ~TH2XlineReductor()</text>
<text text-anchor="start" x="1071.5" y="-84.5" font-family="Helvetica,sans-Serif" font-size="10.00">+ getBranchAddress()</text>
<text text-anchor="start" x="1071.5" y="-73.5" font-family="Helvetica,sans-Serif" font-size="10.00">+ getBranchLeafList()</text>
<text text-anchor="start" x="1071.5" y="-62.5" font-family="Helvetica,sans-Serif" font-size="10.00">+ update()</text>
</a>
</g>
</g>
<!-- Node1&#45;&gt;Node8 -->
<g id="edge7" class="edge"><title>Node1&#45;&gt;Node8</title>
<path fill="none" stroke="midnightblue" d="M764.482,-309.618C843.112,-301.529 965.652,-280.046 1055,-223 1076.9,-209.015 1095.87,-187.79 1110.6,-167.668"/>
<polygon fill="none" stroke="midnightblue" points="763.775,-306.17 754.164,-310.629 764.458,-313.137 763.775,-306.17"/>
</g>
<!-- Node9 -->
<g id="node9" class="node"><title>Node9</title>
<g id="a_node9"><a xlink:href="classo2_1_1quality__control__modules_1_1tpc_1_1ROCReductor.html" target="_top" xlink:title="A Reductor of ROC, stores mean, standard deviation and median for each ROC. ">
<polygon fill="none" stroke="black" points="1243,-44.5 1243,-178.5 1389,-178.5 1389,-44.5 1243,-44.5"/>
<text text-anchor="start" x="1251" y="-166.5" font-family="Helvetica,sans-Serif" font-size="10.00">o2::quality_control</text>
<text text-anchor="middle" x="1316" y="-155.5" font-family="Helvetica,sans-Serif" font-size="10.00">_modules::tpc::ROCReductor</text>
<polyline fill="none" stroke="black" points="1243,-148.5 1389,-148.5 "/>
<text text-anchor="start" x="1251" y="-136.5" font-family="Helvetica,sans-Serif" font-size="10.00">+ mean</text>
<text text-anchor="start" x="1251" y="-125.5" font-family="Helvetica,sans-Serif" font-size="10.00">+ stddev</text>
<text text-anchor="start" x="1251" y="-114.5" font-family="Helvetica,sans-Serif" font-size="10.00">+ median</text>
<polyline fill="none" stroke="black" points="1243,-107.5 1389,-107.5 "/>
<text text-anchor="start" x="1251" y="-95.5" font-family="Helvetica,sans-Serif" font-size="10.00">+ ROCReductor()</text>
<text text-anchor="start" x="1251" y="-84.5" font-family="Helvetica,sans-Serif" font-size="10.00">+ ~ROCReductor()</text>
<text text-anchor="start" x="1251" y="-73.5" font-family="Helvetica,sans-Serif" font-size="10.00">+ getBranchAddress()</text>
<text text-anchor="start" x="1251" y="-62.5" font-family="Helvetica,sans-Serif" font-size="10.00">+ getBranchLeafList()</text>
<text text-anchor="start" x="1251" y="-51.5" font-family="Helvetica,sans-Serif" font-size="10.00">+ update()</text>
</a>
</g>
</g>
<!-- Node1&#45;&gt;Node9 -->
<g id="edge8" class="edge"><title>Node1&#45;&gt;Node9</title>
<path fill="none" stroke="midnightblue" d="M764.196,-308.707C895.694,-297.68 1156.45,-270.443 1234,-223 1251.93,-212.029 1267.23,-195.543 1279.58,-178.63"/>
<polygon fill="none" stroke="midnightblue" points="763.864,-305.222 754.187,-309.535 764.442,-312.198 763.864,-305.222"/>
</g>
</g>
</svg>
