<?xml version="1.0" encoding="UTF-8" standalone="no"?>
<!DOCTYPE svg PUBLIC "-//W3C//DTD SVG 1.1//EN"
 "http://www.w3.org/Graphics/SVG/1.1/DTD/svg11.dtd">
<!-- Generated by graphviz version 2.38.0 (20140413.2041)
 -->
<!-- Title: Modules/TOF/include/Base/Counter.h Pages: 1 -->
<svg width="334pt" height="151pt"
 viewBox="0.00 0.00 333.50 151.00" xmlns="http://www.w3.org/2000/svg" xmlns:xlink="http://www.w3.org/1999/xlink">
<g id="graph0" class="graph" transform="scale(1 1) rotate(0) translate(4 147)">
<title>Modules/TOF/include/Base/Counter.h</title>
<!-- Node1 -->
<g id="node1" class="node"><title>Node1</title>
<polygon fill="#bfbfbf" stroke="black" points="81,-112.5 81,-142.5 191,-142.5 191,-112.5 81,-112.5"/>
<text text-anchor="start" x="89" y="-130.5" font-family="Helvetica,sans-Serif" font-size="10.00">Modules/TOF/include</text>
<text text-anchor="middle" x="136" y="-119.5" font-family="Helvetica,sans-Serif" font-size="10.00">/Base/Counter.h</text>
</g>
<!-- Node2 -->
<g id="node2" class="node"><title>Node2</title>
<polygon fill="none" stroke="#bfbfbf" points="-3.55271e-15,-56.5 -3.55271e-15,-75.5 44,-75.5 44,-56.5 -3.55271e-15,-56.5"/>
<text text-anchor="middle" x="22" y="-63.5" font-family="Helvetica,sans-Serif" font-size="10.00">TH1.h</text>
</g>
<!-- Node1&#45;&gt;Node2 -->
<g id="edge1" class="edge"><title>Node1&#45;&gt;Node2</title>
<path fill="none" stroke="midnightblue" d="M108.984,-112.399C90.3687,-102.684 65.7895,-89.8551 47.5087,-80.3137"/>
<polygon fill="midnightblue" stroke="midnightblue" points="49.0726,-77.182 38.588,-75.6578 45.8337,-83.3876 49.0726,-77.182"/>
</g>
<!-- Node3 -->
<g id="node3" class="node"><title>Node3</title>
<g id="a_node3"><a xlink:href="QcInfoLogger_8h.html" target="_top" xlink:title="QualityControl/QcInfoLogger.h">
<polygon fill="none" stroke="black" points="61.5,-56.5 61.5,-75.5 210.5,-75.5 210.5,-56.5 61.5,-56.5"/>
<text text-anchor="middle" x="136" y="-63.5" font-family="Helvetica,sans-Serif" font-size="10.00">QualityControl/QcInfoLogger.h</text>
</a>
</g>
</g>
<!-- Node1&#45;&gt;Node3 -->
<g id="edge2" class="edge"><title>Node1&#45;&gt;Node3</title>
<path fill="none" stroke="midnightblue" d="M136,-112.399C136,-104.466 136,-94.458 136,-85.8583"/>
<polygon fill="midnightblue" stroke="midnightblue" points="139.5,-85.6577 136,-75.6578 132.5,-85.6578 139.5,-85.6577"/>
</g>
<!-- Node5 -->
<g id="node5" class="node"><title>Node5</title>
<polygon fill="none" stroke="#bfbfbf" points="228.5,-56.5 228.5,-75.5 325.5,-75.5 325.5,-56.5 228.5,-56.5"/>
<text text-anchor="middle" x="277" y="-63.5" font-family="Helvetica,sans-Serif" font-size="10.00">fairlogger/Logger.h</text>
</g>
<!-- Node1&#45;&gt;Node5 -->
<g id="edge4" class="edge"><title>Node1&#45;&gt;Node5</title>
<path fill="none" stroke="midnightblue" d="M169.415,-112.399C192.967,-102.461 224.238,-89.2649 246.993,-79.6625"/>
<polygon fill="midnightblue" stroke="midnightblue" points="248.631,-82.7704 256.483,-75.6578 245.909,-76.3211 248.631,-82.7704"/>
</g>
<!-- Node4 -->
<g id="node4" class="node"><title>Node4</title>
<polygon fill="none" stroke="#bfbfbf" points="71,-0.5 71,-19.5 201,-19.5 201,-0.5 71,-0.5"/>
<text text-anchor="middle" x="136" y="-7.5" font-family="Helvetica,sans-Serif" font-size="10.00">InfoLogger/InfoLogger.hxx</text>
</g>
<!-- Node3&#45;&gt;Node4 -->
<g id="edge3" class="edge"><title>Node3&#45;&gt;Node4</title>
<path fill="none" stroke="midnightblue" d="M136,-56.083C136,-49.0059 136,-38.8611 136,-29.9865"/>
<polygon fill="midnightblue" stroke="midnightblue" points="139.5,-29.751 136,-19.7511 132.5,-29.7511 139.5,-29.751"/>
</g>
</g>
</svg>
