<?xml version="1.0" encoding="UTF-8" standalone="no"?>
<!DOCTYPE svg PUBLIC "-//W3C//DTD SVG 1.1//EN"
 "http://www.w3.org/Graphics/SVG/1.1/DTD/svg11.dtd">
<!-- Generated by graphviz version 2.38.0 (20140413.2041)
 -->
<!-- Title: Graphical Class Hierarchy Pages: 1 -->
<svg width="357pt" height="393pt"
 viewBox="0.00 0.00 357.00 392.50" xmlns="http://www.w3.org/2000/svg" xmlns:xlink="http://www.w3.org/1999/xlink">
<g id="graph0" class="graph" transform="scale(1 1) rotate(0) translate(4 388.5)">
<title>Graphical Class Hierarchy</title>
<!-- Node1 -->
<g id="node1" class="node"><title>Node1</title>
<g id="a_node1"><a xlink:href="classo2_1_1quality__control_1_1postprocessing_1_1Reductor.html" target="_top" xlink:title="An interface for storing data derived from QC objects into a TTree. ">
<polygon fill="none" stroke="black" points="0,-190.5 0,-220.5 134,-220.5 134,-190.5 0,-190.5"/>
<text text-anchor="start" x="8" y="-208.5" font-family="Helvetica,sans-Serif" font-size="10.00">o2::quality_control</text>
<text text-anchor="middle" x="67" y="-197.5" font-family="Helvetica,sans-Serif" font-size="10.00">::postprocessing::Reductor</text>
</a>
</g>
</g>
<!-- Node2 -->
<g id="node2" class="node"><title>Node2</title>
<g id="a_node2"><a xlink:href="classMyReductor.html" target="_top" xlink:title="MyReductor">
<polygon fill="none" stroke="black" points="224.5,-365 224.5,-384 294.5,-384 294.5,-365 224.5,-365"/>
<text text-anchor="middle" x="259.5" y="-372" font-family="Helvetica,sans-Serif" font-size="10.00">MyReductor</text>
</a>
</g>
</g>
<!-- Node1&#45;&gt;Node2 -->
<g id="edge1" class="edge"><title>Node1&#45;&gt;Node2</title>
<path fill="none" stroke="midnightblue" d="M77.7797,-230.285C92.4828,-264.158 123.598,-324.26 170,-355.5 185.903,-366.207 206.748,-371.024 224.213,-373.133"/>
<polygon fill="midnightblue" stroke="midnightblue" points="80.8435,-228.541 73.7449,-220.676 74.3894,-231.251 80.8435,-228.541"/>
</g>
<!-- Node3 -->
<g id="node3" class="node"><title>Node3</title>
<g id="a_node3"><a xlink:href="classo2_1_1quality__control__modules_1_1common_1_1QualityReductor.html" target="_top" xlink:title="A Reductor of QualityObjects, stores a name and level of a Quality. ">
<polygon fill="none" stroke="black" points="170,-315.5 170,-345.5 349,-345.5 349,-315.5 170,-315.5"/>
<text text-anchor="start" x="178" y="-333.5" font-family="Helvetica,sans-Serif" font-size="10.00">o2::quality_control</text>
<text text-anchor="middle" x="259.5" y="-322.5" font-family="Helvetica,sans-Serif" font-size="10.00">_modules::common::QualityReductor</text>
</a>
</g>
</g>
<!-- Node1&#45;&gt;Node3 -->
<g id="edge2" class="edge"><title>Node1&#45;&gt;Node3</title>
<path fill="none" stroke="midnightblue" d="M85.2813,-228.542C103.774,-251.6 135.19,-286.447 170,-306.5 175.932,-309.917 182.367,-312.863 188.971,-315.401"/>
<polygon fill="midnightblue" stroke="midnightblue" points="87.9981,-226.335 79.0703,-220.63 82.4918,-230.657 87.9981,-226.335"/>
</g>
<!-- Node4 -->
<g id="node4" class="node"><title>Node4</title>
<g id="a_node4"><a xlink:href="classo2_1_1quality__control__modules_1_1common_1_1TH1Reductor.html" target="_top" xlink:title="A Reductor which obtains the most popular characteristics of TH1. ">
<polygon fill="none" stroke="black" points="176,-266.5 176,-296.5 343,-296.5 343,-266.5 176,-266.5"/>
<text text-anchor="start" x="184" y="-284.5" font-family="Helvetica,sans-Serif" font-size="10.00">o2::quality_control</text>
<text text-anchor="middle" x="259.5" y="-273.5" font-family="Helvetica,sans-Serif" font-size="10.00">_modules::common::TH1Reductor</text>
</a>
</g>
</g>
<!-- Node1&#45;&gt;Node4 -->
<g id="edge3" class="edge"><title>Node1&#45;&gt;Node4</title>
<path fill="none" stroke="midnightblue" d="M102.5,-225.345C121.887,-235.916 146.786,-248.546 170,-257.5 178.466,-260.766 187.55,-263.767 196.556,-266.459"/>
<polygon fill="midnightblue" stroke="midnightblue" points="104.179,-222.274 93.7332,-220.501 100.793,-228.401 104.179,-222.274"/>
</g>
<!-- Node5 -->
<g id="node5" class="node"><title>Node5</title>
<g id="a_node5"><a xlink:href="classo2_1_1quality__control__modules_1_1common_1_1TH2Reductor.html" target="_top" xlink:title="A Reductor which obtains the most popular characteristics of TH2. ">
<polygon fill="none" stroke="black" points="176,-217.5 176,-247.5 343,-247.5 343,-217.5 176,-217.5"/>
<text text-anchor="start" x="184" y="-235.5" font-family="Helvetica,sans-Serif" font-size="10.00">o2::quality_control</text>
<text text-anchor="middle" x="259.5" y="-224.5" font-family="Helvetica,sans-Serif" font-size="10.00">_modules::common::TH2Reductor</text>
</a>
</g>
</g>
<!-- Node1&#45;&gt;Node5 -->
<g id="edge4" class="edge"><title>Node1&#45;&gt;Node5</title>
<path fill="none" stroke="midnightblue" d="M144.309,-216.315C154.648,-217.781 165.297,-219.29 175.742,-220.77"/>
<polygon fill="midnightblue" stroke="midnightblue" points="144.485,-212.806 134.093,-214.868 143.503,-219.736 144.485,-212.806"/>
</g>
<!-- Node6 -->
<g id="node6" class="node"><title>Node6</title>
<g id="a_node6"><a xlink:href="classo2_1_1quality__control__modules_1_1common_1_1THnSparse5Reductor.html" target="_top" xlink:title="A Reductor which obtains the most popular characteristics of THnSparse up to 5 dimensions. ">
<polygon fill="none" stroke="black" points="178,-158 178,-199 341,-199 341,-158 178,-158"/>
<text text-anchor="start" x="186" y="-187" font-family="Helvetica,sans-Serif" font-size="10.00">o2::quality_control</text>
<text text-anchor="start" x="186" y="-176" font-family="Helvetica,sans-Serif" font-size="10.00">_modules::common::THnSparse5</text>
<text text-anchor="middle" x="259.5" y="-165" font-family="Helvetica,sans-Serif" font-size="10.00">Reductor</text>
</a>
</g>
</g>
<!-- Node1&#45;&gt;Node6 -->
<g id="edge5" class="edge"><title>Node1&#45;&gt;Node6</title>
<path fill="none" stroke="midnightblue" d="M144.128,-194.71C155.185,-193.143 166.6,-191.525 177.744,-189.946"/>
<polygon fill="midnightblue" stroke="midnightblue" points="143.503,-191.264 134.093,-196.132 144.485,-198.194 143.503,-191.264"/>
</g>
<!-- Node7 -->
<g id="node7" class="node"><title>Node7</title>
<g id="a_node7"><a xlink:href="classo2_1_1quality__control__modules_1_1emcal_1_1DigitOccupancyReductor.html" target="_top" xlink:title="A Reductor which obtains the most popular characteristics of TH2. ">
<polygon fill="none" stroke="black" points="176,-98 176,-139 343,-139 343,-98 176,-98"/>
<text text-anchor="start" x="184" y="-127" font-family="Helvetica,sans-Serif" font-size="10.00">o2::quality_control</text>
<text text-anchor="start" x="184" y="-116" font-family="Helvetica,sans-Serif" font-size="10.00">_modules::emcal::DigitOccupancy</text>
<text text-anchor="middle" x="259.5" y="-105" font-family="Helvetica,sans-Serif" font-size="10.00">Reductor</text>
</a>
</g>
</g>
<!-- Node1&#45;&gt;Node7 -->
<g id="edge6" class="edge"><title>Node1&#45;&gt;Node7</title>
<path fill="none" stroke="midnightblue" d="M100.916,-185.08C120.521,-173.435 146.155,-159.097 170,-148.5 177.413,-145.206 185.306,-142.054 193.209,-139.114"/>
<polygon fill="midnightblue" stroke="midnightblue" points="98.8559,-182.235 92.0859,-190.384 102.46,-188.235 98.8559,-182.235"/>
</g>
<!-- Node8 -->
<g id="node8" class="node"><title>Node8</title>
<g id="a_node8"><a xlink:href="classo2_1_1quality__control__modules_1_1its_1_1TH2XlineReductor.html" target="_top" xlink:title="A Reductor which obtains specific characteristics of TH2: mean and stddev of bin contents for each y ...">
<polygon fill="none" stroke="black" points="179,-49.5 179,-79.5 340,-79.5 340,-49.5 179,-49.5"/>
<text text-anchor="start" x="187" y="-67.5" font-family="Helvetica,sans-Serif" font-size="10.00">o2::quality_control</text>
<text text-anchor="middle" x="259.5" y="-56.5" font-family="Helvetica,sans-Serif" font-size="10.00">_modules::its::TH2XlineReductor</text>
</a>
</g>
</g>
<!-- Node1&#45;&gt;Node8 -->
<g id="edge7" class="edge"><title>Node1&#45;&gt;Node8</title>
<path fill="none" stroke="midnightblue" d="M82.4943,-181.7C99.965,-155.034 131.791,-112.418 170,-88.5 175.532,-85.0368 181.563,-82.0673 187.79,-79.5222"/>
<polygon fill="midnightblue" stroke="midnightblue" points="79.3635,-180.099 76.9264,-190.41 85.2614,-183.869 79.3635,-180.099"/>
</g>
<!-- Node9 -->
<g id="node9" class="node"><title>Node9</title>
<g id="a_node9"><a xlink:href="classo2_1_1quality__control__modules_1_1tpc_1_1ROCReductor.html" target="_top" xlink:title="A Reductor of ROC, stores mean, standard deviation and median for each ROC. ">
<polygon fill="none" stroke="black" points="186.5,-0.5 186.5,-30.5 332.5,-30.5 332.5,-0.5 186.5,-0.5"/>
<text text-anchor="start" x="194.5" y="-18.5" font-family="Helvetica,sans-Serif" font-size="10.00">o2::quality_control</text>
<text text-anchor="middle" x="259.5" y="-7.5" font-family="Helvetica,sans-Serif" font-size="10.00">_modules::tpc::ROCReductor</text>
</a>
</g>
</g>
<!-- Node1&#45;&gt;Node9 -->
<g id="edge8" class="edge"><title>Node1&#45;&gt;Node9</title>
<path fill="none" stroke="midnightblue" d="M76.7861,-180.287C90.7652,-143.904 121.547,-77.0458 170,-40.5 175.099,-36.6544 180.765,-33.4001 186.696,-30.6464"/>
<polygon fill="midnightblue" stroke="midnightblue" points="73.3377,-179.519 73.1368,-190.112 79.8997,-181.957 73.3377,-179.519"/>
</g>
</g>
</svg>
