<?xml version="1.0" encoding="UTF-8" standalone="no"?>
<!DOCTYPE svg PUBLIC "-//W3C//DTD SVG 1.1//EN"
 "http://www.w3.org/Graphics/SVG/1.1/DTD/svg11.dtd">
<!-- Generated by graphviz version 2.38.0 (20140413.2041)
 -->
<!-- Title: Graphical Class Hierarchy Pages: 1 -->
<svg width="362pt" height="267pt"
 viewBox="0.00 0.00 362.00 267.00" xmlns="http://www.w3.org/2000/svg" xmlns:xlink="http://www.w3.org/1999/xlink">
<g id="graph0" class="graph" transform="scale(1 1) rotate(0) translate(4 263)">
<title>Graphical Class Hierarchy</title>
<!-- Node1 -->
<g id="node1" class="node"><title>Node1</title>
<g id="a_node1"><a xlink:href="classo2_1_1quality__control_1_1postprocessing_1_1PostProcessingInterface.html" target="_top" xlink:title="Skeleton of a post&#45;processing task. ">
<polygon fill="none" stroke="black" points="0,-109 0,-150 164,-150 164,-109 0,-109"/>
<text text-anchor="start" x="8" y="-138" font-family="Helvetica,sans-Serif" font-size="10.00">o2::quality_control</text>
<text text-anchor="start" x="8" y="-127" font-family="Helvetica,sans-Serif" font-size="10.00">::postprocessing::PostProcessing</text>
<text text-anchor="middle" x="82" y="-116" font-family="Helvetica,sans-Serif" font-size="10.00">Interface</text>
</a>
</g>
</g>
<!-- Node2 -->
<g id="node2" class="node"><title>Node2</title>
<g id="a_node2"><a xlink:href="classo2_1_1quality__control_1_1postprocessing_1_1TrendingTask.html" target="_top" xlink:title="A post&#45;processing task which trends values, stores them in a TTree and produces plots. ">
<polygon fill="none" stroke="black" points="200,-228.5 200,-258.5 354,-258.5 354,-228.5 200,-228.5"/>
<text text-anchor="start" x="208" y="-246.5" font-family="Helvetica,sans-Serif" font-size="10.00">o2::quality_control</text>
<text text-anchor="middle" x="277" y="-235.5" font-family="Helvetica,sans-Serif" font-size="10.00">::postprocessing::TrendingTask</text>
</a>
</g>
</g>
<!-- Node1&#45;&gt;Node2 -->
<g id="edge1" class="edge"><title>Node1&#45;&gt;Node2</title>
<path fill="none" stroke="midnightblue" d="M112.636,-157.039C135.161,-176.736 167.683,-202.643 200,-219.5 206.379,-222.828 213.303,-225.794 220.286,-228.408"/>
<polygon fill="midnightblue" stroke="midnightblue" points="114.906,-154.374 105.103,-150.355 110.261,-159.61 114.906,-154.374"/>
</g>
<!-- Node3 -->
<g id="node3" class="node"><title>Node3</title>
<g id="a_node3"><a xlink:href="classo2_1_1quality__control_1_1postprocessing_1_1TrendingTaskITSFhr.html" target="_top" xlink:title="A post&#45;processing task which trends values, stores them in a TTree and produces plots. ">
<polygon fill="none" stroke="black" points="211,-169 211,-210 343,-210 343,-169 211,-169"/>
<text text-anchor="start" x="219" y="-198" font-family="Helvetica,sans-Serif" font-size="10.00">o2::quality_control</text>
<text text-anchor="start" x="219" y="-187" font-family="Helvetica,sans-Serif" font-size="10.00">::postprocessing::Trending</text>
<text text-anchor="middle" x="277" y="-176" font-family="Helvetica,sans-Serif" font-size="10.00">TaskITSFhr</text>
</a>
</g>
</g>
<!-- Node1&#45;&gt;Node3 -->
<g id="edge2" class="edge"><title>Node1&#45;&gt;Node3</title>
<path fill="none" stroke="midnightblue" d="M159.117,-153.163C176.251,-158.49 194.283,-164.096 210.917,-169.267"/>
<polygon fill="midnightblue" stroke="midnightblue" points="159.738,-149.691 149.15,-150.065 157.66,-156.376 159.738,-149.691"/>
</g>
<!-- Node4 -->
<g id="node4" class="node"><title>Node4</title>
<g id="a_node4"><a xlink:href="classo2_1_1quality__control_1_1postprocessing_1_1TrendingTaskITSThr.html" target="_top" xlink:title="A post&#45;processing task which trends values, stores them in a TTree and produces plots. ">
<polygon fill="none" stroke="black" points="211,-109 211,-150 343,-150 343,-109 211,-109"/>
<text text-anchor="start" x="219" y="-138" font-family="Helvetica,sans-Serif" font-size="10.00">o2::quality_control</text>
<text text-anchor="start" x="219" y="-127" font-family="Helvetica,sans-Serif" font-size="10.00">::postprocessing::Trending</text>
<text text-anchor="middle" x="277" y="-116" font-family="Helvetica,sans-Serif" font-size="10.00">TaskITSThr</text>
</a>
</g>
</g>
<!-- Node1&#45;&gt;Node4 -->
<g id="edge3" class="edge"><title>Node1&#45;&gt;Node4</title>
<path fill="none" stroke="midnightblue" d="M174.295,-129.5C186.59,-129.5 198.998,-129.5 210.718,-129.5"/>
<polygon fill="midnightblue" stroke="midnightblue" points="174.011,-126 164.01,-129.5 174.01,-133 174.011,-126"/>
</g>
<!-- Node5 -->
<g id="node5" class="node"><title>Node5</title>
<g id="a_node5"><a xlink:href="classo2_1_1quality__control__modules_1_1skeleton_1_1SkeletonPostProcessing.html" target="_top" xlink:title="Example Quality Control Postprocessing Task. ">
<polygon fill="none" stroke="black" points="215,-49 215,-90 339,-90 339,-49 215,-49"/>
<text text-anchor="start" x="223" y="-78" font-family="Helvetica,sans-Serif" font-size="10.00">o2::quality_control</text>
<text text-anchor="start" x="223" y="-67" font-family="Helvetica,sans-Serif" font-size="10.00">_modules::skeleton::</text>
<text text-anchor="middle" x="277" y="-56" font-family="Helvetica,sans-Serif" font-size="10.00">SkeletonPostProcessing</text>
</a>
</g>
</g>
<!-- Node1&#45;&gt;Node5 -->
<g id="edge4" class="edge"><title>Node1&#45;&gt;Node5</title>
<path fill="none" stroke="midnightblue" d="M158.755,-105.949C177.339,-100.172 197.002,-94.059 214.805,-88.5245"/>
<polygon fill="midnightblue" stroke="midnightblue" points="157.66,-102.624 149.15,-108.935 159.738,-109.309 157.66,-102.624"/>
</g>
<!-- Node6 -->
<g id="node6" class="node"><title>Node6</title>
<g id="a_node6"><a xlink:href="classo2_1_1quality__control__modules_1_1test_1_1TestTask.html" target="_top" xlink:title="o2::quality_control\l_modules::test::TestTask">
<polygon fill="none" stroke="black" points="213,-0.5 213,-30.5 341,-30.5 341,-0.5 213,-0.5"/>
<text text-anchor="start" x="221" y="-18.5" font-family="Helvetica,sans-Serif" font-size="10.00">o2::quality_control</text>
<text text-anchor="middle" x="277" y="-7.5" font-family="Helvetica,sans-Serif" font-size="10.00">_modules::test::TestTask</text>
</a>
</g>
</g>
<!-- Node1&#45;&gt;Node6 -->
<g id="edge5" class="edge"><title>Node1&#45;&gt;Node6</title>
<path fill="none" stroke="midnightblue" d="M112.636,-101.961C135.161,-82.2639 167.683,-56.357 200,-39.5 206.379,-36.1724 213.303,-33.2065 220.286,-30.5925"/>
<polygon fill="midnightblue" stroke="midnightblue" points="110.261,-99.3899 105.103,-108.645 114.906,-104.626 110.261,-99.3899"/>
</g>
</g>
</svg>
