<?xml version="1.0" encoding="UTF-8" standalone="no"?>
<!DOCTYPE svg PUBLIC "-//W3C//DTD SVG 1.1//EN"
 "http://www.w3.org/Graphics/SVG/1.1/DTD/svg11.dtd">
<!-- Generated by graphviz version 2.38.0 (20140413.2041)
 -->
<!-- Title: Framework/include/QualityControl/PostProcessingConfig.h Pages: 1 -->
<!--zoomable 240 -->
<svg id="main" version="1.1" xmlns="http://www.w3.org/2000/svg" xmlns:xlink="http://www.w3.org/1999/xlink" xml:space="preserve" onload="init(evt)">
<style type="text/css"><![CDATA[
.edge:hover path { stroke: red; }
.edge:hover polygon { stroke: red; fill: red; }
]]></style>
<script type="text/javascript"><![CDATA[
var edges = document.getElementsByTagName('g');
if (edges && edges.length) {
  for (var i=0;i<edges.length;i++) {
    if (edges[i].id.substr(0,4)=='edge') {
      edges[i].setAttribute('class','edge');
    }
  }
}
]]></script>
        <defs>
                <circle id="rim" cx="0" cy="0" r="7"/>
                <circle id="rim2" cx="0" cy="0" r="3.5"/>
                <g id="zoomPlus">
                        <use xlink:href="#rim" fill="#404040">
                                <set attributeName="fill" to="#808080" begin="zoomplus.mouseover" end="zoomplus.mouseout"/>
                        </use>
                        <path d="M-4,0h8M0,-4v8" fill="none" stroke="white" stroke-width="1.5" pointer-events="none"/>
                </g>
                <g id="zoomMin">
                        <use xlink:href="#rim" fill="#404040">
                                <set attributeName="fill" to="#808080" begin="zoomminus.mouseover" end="zoomminus.mouseout"/>
                        </use>
                        <path d="M-4,0h8" fill="none" stroke="white" stroke-width="1.5" pointer-events="none"/>
                </g>
                <g id="dirArrow">
                        <path fill="none" stroke="white" stroke-width="1.5" d="M0,-3.0v7 M-2.5,-0.5L0,-3.0L2.5,-0.5"/>
                </g>
               <g id="resetDef">
                       <use xlink:href="#rim2" fill="#404040">
                               <set attributeName="fill" to="#808080" begin="reset.mouseover" end="reset.mouseout"/>
                       </use>
               </g>
        </defs>

<script type="text/javascript">
var viewWidth = 1906;
var viewHeight = 240;
var sectionId = 'dynsection-1';
</script>
<script xlink:href="svgpan.js"/>
<svg id="graph" class="graph">
<g id="viewport">
<title>Framework/include/QualityControl/PostProcessingConfig.h</title>
<!-- Node1 -->
<g id="node1" class="node"><title>Node1</title>
<polygon fill="#bfbfbf" stroke="black" points="1156.5,-201.5 1156.5,-231.5 1313.5,-231.5 1313.5,-201.5 1156.5,-201.5"/>
<text text-anchor="start" x="1164.5" y="-219.5" font-family="Helvetica,sans-Serif" font-size="10.00">Framework/include/Quality</text>
<text text-anchor="middle" x="1235" y="-208.5" font-family="Helvetica,sans-Serif" font-size="10.00">Control/PostProcessingConfig.h</text>
</g>
<!-- Node2 -->
<g id="node2" class="node"><title>Node2</title>
<g id="a_node2"><a xlink:href="PostProcessingFactory_8h.html" target="_top" xlink:title="Framework/include/Quality\lControl/PostProcessingFactory.h">
<polygon fill="none" stroke="black" points="269.5,-134.5 269.5,-164.5 430.5,-164.5 430.5,-134.5 269.5,-134.5"/>
<text text-anchor="start" x="277.5" y="-152.5" font-family="Helvetica,sans-Serif" font-size="10.00">Framework/include/Quality</text>
<text text-anchor="middle" x="350" y="-141.5" font-family="Helvetica,sans-Serif" font-size="10.00">Control/PostProcessingFactory.h</text>
</a>
</g>
</g>
<!-- Node1&#45;&gt;Node2 -->
<g id="edge1" class="edge"><title>Node1&#45;&gt;Node2</title>
<path fill="none" stroke="midnightblue" d="M1146.41,-208.994C974.122,-196.339 596.303,-168.59 430.594,-156.419"/>
<polygon fill="midnightblue" stroke="midnightblue" points="1146.23,-212.49 1156.46,-209.732 1146.75,-205.509 1146.23,-212.49"/>
</g>
<!-- Node6 -->
<g id="node6" class="node"><title>Node6</title>
<g id="a_node6"><a xlink:href="PostProcessingRunner_8h.html" target="_top" xlink:title="Framework/include/Quality\lControl/PostProcessingRunner.h">
<polygon fill="none" stroke="black" points="743,-134.5 743,-164.5 903,-164.5 903,-134.5 743,-134.5"/>
<text text-anchor="start" x="751" y="-152.5" font-family="Helvetica,sans-Serif" font-size="10.00">Framework/include/Quality</text>
<text text-anchor="middle" x="823" y="-141.5" font-family="Helvetica,sans-Serif" font-size="10.00">Control/PostProcessingRunner.h</text>
</a>
</g>
</g>
<!-- Node1&#45;&gt;Node6 -->
<g id="edge5" class="edge"><title>Node1&#45;&gt;Node6</title>
<path fill="none" stroke="midnightblue" d="M1146.05,-201.467C1073.81,-190.07 972.832,-174.139 903.088,-163.135"/>
<polygon fill="midnightblue" stroke="midnightblue" points="1145.63,-204.943 1156.05,-203.044 1146.72,-198.029 1145.63,-204.943"/>
</g>
<!-- Node10 -->
<g id="node10" class="node"><title>Node10</title>
<g id="a_node10"><a xlink:href="TrendingTaskConfig_8h.html" target="_top" xlink:title="Framework/include/Quality\lControl/TrendingTaskConfig.h">
<polygon fill="none" stroke="black" points="1077.5,-134.5 1077.5,-164.5 1224.5,-164.5 1224.5,-134.5 1077.5,-134.5"/>
<text text-anchor="start" x="1085.5" y="-152.5" font-family="Helvetica,sans-Serif" font-size="10.00">Framework/include/Quality</text>
<text text-anchor="middle" x="1151" y="-141.5" font-family="Helvetica,sans-Serif" font-size="10.00">Control/TrendingTaskConfig.h</text>
</a>
</g>
</g>
<!-- Node1&#45;&gt;Node10 -->
<g id="edge10" class="edge"><title>Node1&#45;&gt;Node10</title>
<path fill="none" stroke="midnightblue" d="M1208.72,-195.168C1195.88,-185.228 1180.74,-173.514 1169.19,-164.577"/>
<polygon fill="midnightblue" stroke="midnightblue" points="1206.72,-198.044 1216.77,-201.396 1211.01,-192.508 1206.72,-198.044"/>
</g>
<!-- Node15 -->
<g id="node15" class="node"><title>Node15</title>
<g id="a_node15"><a xlink:href="PostProcessingConfig_8cxx.html" target="_top" xlink:title="Framework/src/PostProcessing\lConfig.cxx">
<polygon fill="none" stroke="black" points="1243,-134.5 1243,-164.5 1397,-164.5 1397,-134.5 1243,-134.5"/>
<text text-anchor="start" x="1251" y="-152.5" font-family="Helvetica,sans-Serif" font-size="10.00">Framework/src/PostProcessing</text>
<text text-anchor="middle" x="1320" y="-141.5" font-family="Helvetica,sans-Serif" font-size="10.00">Config.cxx</text>
</a>
</g>
</g>
<!-- Node1&#45;&gt;Node15 -->
<g id="edge15" class="edge"><title>Node1&#45;&gt;Node15</title>
<path fill="none" stroke="midnightblue" d="M1261.59,-195.168C1274.59,-185.228 1289.9,-173.514 1301.59,-164.577"/>
<polygon fill="midnightblue" stroke="midnightblue" points="1259.26,-192.541 1253.44,-201.396 1263.51,-198.102 1259.26,-192.541"/>
</g>
<!-- Node16 -->
<g id="node16" class="node"><title>Node16</title>
<g id="a_node16"><a xlink:href="testPostProcessingConfig_8cxx.html" target="_top" xlink:title="Framework/test/testPostProcessing\lConfig.cxx">
<polygon fill="none" stroke="black" points="1415.5,-134.5 1415.5,-164.5 1588.5,-164.5 1588.5,-134.5 1415.5,-134.5"/>
<text text-anchor="start" x="1423.5" y="-152.5" font-family="Helvetica,sans-Serif" font-size="10.00">Framework/test/testPostProcessing</text>
<text text-anchor="middle" x="1502" y="-141.5" font-family="Helvetica,sans-Serif" font-size="10.00">Config.cxx</text>
</a>
</g>
</g>
<!-- Node1&#45;&gt;Node16 -->
<g id="edge16" class="edge"><title>Node1&#45;&gt;Node16</title>
<path fill="none" stroke="midnightblue" d="M1302.57,-199.052C1346.22,-188.425 1402.42,-174.741 1444.04,-164.611"/>
<polygon fill="midnightblue" stroke="midnightblue" points="1301.49,-195.71 1292.61,-201.476 1303.15,-202.511 1301.49,-195.71"/>
</g>
<!-- Node17 -->
<g id="node17" class="node"><title>Node17</title>
<g id="a_node17"><a xlink:href="TrendingTaskConfigITS_8h_source.html" target="_top" xlink:title="Modules/ITS/include\l/ITS/TrendingTaskConfigITS.h">
<polygon fill="none" stroke="black" points="1607,-134.5 1607,-164.5 1757,-164.5 1757,-134.5 1607,-134.5"/>
<text text-anchor="start" x="1615" y="-152.5" font-family="Helvetica,sans-Serif" font-size="10.00">Modules/ITS/include</text>
<text text-anchor="middle" x="1682" y="-141.5" font-family="Helvetica,sans-Serif" font-size="10.00">/ITS/TrendingTaskConfigITS.h</text>
</a>
</g>
</g>
<!-- Node1&#45;&gt;Node17 -->
<g id="edge17" class="edge"><title>Node1&#45;&gt;Node17</title>
<path fill="none" stroke="midnightblue" d="M1323.86,-203.963C1397.42,-194.214 1504.63,-179.549 1598,-165 1600.92,-164.544 1603.9,-164.071 1606.91,-163.586"/>
<polygon fill="midnightblue" stroke="midnightblue" points="1323.16,-200.525 1313.71,-205.305 1324.08,-207.464 1323.16,-200.525"/>
</g>
<!-- Node3 -->
<g id="node3" class="node"><title>Node3</title>
<g id="a_node3"><a xlink:href="PostProcessingFactory_8cxx.html" target="_top" xlink:title="Framework/src/PostProcessing\lFactory.cxx">
<polygon fill="none" stroke="black" points="0,-67.5 0,-97.5 154,-97.5 154,-67.5 0,-67.5"/>
<text text-anchor="start" x="8" y="-85.5" font-family="Helvetica,sans-Serif" font-size="10.00">Framework/src/PostProcessing</text>
<text text-anchor="middle" x="77" y="-74.5" font-family="Helvetica,sans-Serif" font-size="10.00">Factory.cxx</text>
</a>
</g>
</g>
<!-- Node2&#45;&gt;Node3 -->
<g id="edge2" class="edge"><title>Node2&#45;&gt;Node3</title>
<path fill="none" stroke="midnightblue" d="M281.198,-132.119C236.527,-121.483 178.904,-107.763 136.266,-97.6109"/>
<polygon fill="midnightblue" stroke="midnightblue" points="280.56,-135.565 291.099,-134.476 282.182,-128.755 280.56,-135.565"/>
</g>
<!-- Node4 -->
<g id="node4" class="node"><title>Node4</title>
<polygon fill="none" stroke="#bfbfbf" points="364,-67.5 364,-97.5 518,-97.5 518,-67.5 364,-67.5"/>
<text text-anchor="start" x="372" y="-85.5" font-family="Helvetica,sans-Serif" font-size="10.00">Framework/src/PostProcessing</text>
<text text-anchor="middle" x="441" y="-74.5" font-family="Helvetica,sans-Serif" font-size="10.00">Runner.cxx</text>
</g>
<!-- Node2&#45;&gt;Node4 -->
<g id="edge3" class="edge"><title>Node2&#45;&gt;Node4</title>
<path fill="none" stroke="midnightblue" d="M378.068,-128.451C392.068,-118.452 408.661,-106.6 421.293,-97.5765"/>
<polygon fill="midnightblue" stroke="midnightblue" points="375.849,-125.735 369.746,-134.396 379.917,-131.432 375.849,-125.735"/>
</g>
<!-- Node5 -->
<g id="node5" class="node"><title>Node5</title>
<g id="a_node5"><a xlink:href="testPostProcessingInterface_8cxx.html" target="_top" xlink:title="Framework/test/testPostProcessing\lInterface.cxx">
<polygon fill="none" stroke="black" points="172.5,-67.5 172.5,-97.5 345.5,-97.5 345.5,-67.5 172.5,-67.5"/>
<text text-anchor="start" x="180.5" y="-85.5" font-family="Helvetica,sans-Serif" font-size="10.00">Framework/test/testPostProcessing</text>
<text text-anchor="middle" x="259" y="-74.5" font-family="Helvetica,sans-Serif" font-size="10.00">Interface.cxx</text>
</a>
</g>
</g>
<!-- Node2&#45;&gt;Node5 -->
<g id="edge4" class="edge"><title>Node2&#45;&gt;Node5</title>
<path fill="none" stroke="midnightblue" d="M321.932,-128.451C307.932,-118.452 291.339,-106.6 278.707,-97.5765"/>
<polygon fill="midnightblue" stroke="midnightblue" points="320.083,-131.432 330.254,-134.396 324.151,-125.735 320.083,-131.432"/>
</g>
<!-- Node6&#45;&gt;Node4 -->
<g id="edge6" class="edge"><title>Node6&#45;&gt;Node4</title>
<path fill="none" stroke="midnightblue" d="M733.038,-133.192C667.688,-122.073 580.18,-107.182 518.04,-96.609"/>
<polygon fill="midnightblue" stroke="midnightblue" points="732.475,-136.647 742.92,-134.874 733.649,-129.746 732.475,-136.647"/>
</g>
<!-- Node7 -->
<g id="node7" class="node"><title>Node7</title>
<g id="a_node7"><a xlink:href="runPostProcessing_8cxx.html" target="_top" xlink:title="This is a standalone executable to run postprocessing. ">
<polygon fill="none" stroke="black" points="536,-73 536,-92 722,-92 722,-73 536,-73"/>
<text text-anchor="middle" x="629" y="-80" font-family="Helvetica,sans-Serif" font-size="10.00">Framework/src/runPostProcessing.cxx</text>
</a>
</g>
</g>
<!-- Node6&#45;&gt;Node7 -->
<g id="edge7" class="edge"><title>Node6&#45;&gt;Node7</title>
<path fill="none" stroke="midnightblue" d="M771.09,-131.108C733.349,-118.462 683.894,-101.892 654.39,-92.007"/>
<polygon fill="midnightblue" stroke="midnightblue" points="770.311,-134.538 780.905,-134.396 772.535,-127.9 770.311,-134.538"/>
</g>
<!-- Node8 -->
<g id="node8" class="node"><title>Node8</title>
<g id="a_node8"><a xlink:href="runPostProcessingOCC_8cxx.html" target="_top" xlink:title="This is an OCC executable to run postprocessing. ">
<polygon fill="none" stroke="black" points="739.5,-67.5 739.5,-97.5 906.5,-97.5 906.5,-67.5 739.5,-67.5"/>
<text text-anchor="start" x="747.5" y="-85.5" font-family="Helvetica,sans-Serif" font-size="10.00">Framework/src/runPostProcessing</text>
<text text-anchor="middle" x="823" y="-74.5" font-family="Helvetica,sans-Serif" font-size="10.00">OCC.cxx</text>
</a>
</g>
</g>
<!-- Node6&#45;&gt;Node8 -->
<g id="edge8" class="edge"><title>Node6&#45;&gt;Node8</title>
<path fill="none" stroke="midnightblue" d="M823,-124.108C823,-115.154 823,-105.323 823,-97.5765"/>
<polygon fill="midnightblue" stroke="midnightblue" points="819.5,-124.396 823,-134.396 826.5,-124.396 819.5,-124.396"/>
</g>
<!-- Node9 -->
<g id="node9" class="node"><title>Node9</title>
<g id="a_node9"><a xlink:href="testPostProcessingRunner_8cxx.html" target="_top" xlink:title="Framework/test/testPostProcessing\lRunner.cxx">
<polygon fill="none" stroke="black" points="924.5,-67.5 924.5,-97.5 1097.5,-97.5 1097.5,-67.5 924.5,-67.5"/>
<text text-anchor="start" x="932.5" y="-85.5" font-family="Helvetica,sans-Serif" font-size="10.00">Framework/test/testPostProcessing</text>
<text text-anchor="middle" x="1011" y="-74.5" font-family="Helvetica,sans-Serif" font-size="10.00">Runner.cxx</text>
</a>
</g>
</g>
<!-- Node6&#45;&gt;Node9 -->
<g id="edge9" class="edge"><title>Node6&#45;&gt;Node9</title>
<path fill="none" stroke="midnightblue" d="M873.35,-131.092C903.699,-120.599 941.85,-107.408 970.286,-97.5765"/>
<polygon fill="midnightblue" stroke="midnightblue" points="872.101,-127.82 863.793,-134.396 874.388,-134.436 872.101,-127.82"/>
</g>
<!-- Node11 -->
<g id="node11" class="node"><title>Node11</title>
<g id="a_node11"><a xlink:href="TrendingTask_8h.html" target="_top" xlink:title="Framework/include/Quality\lControl/TrendingTask.h">
<polygon fill="none" stroke="black" points="1115.5,-67.5 1115.5,-97.5 1248.5,-97.5 1248.5,-67.5 1115.5,-67.5"/>
<text text-anchor="start" x="1123.5" y="-85.5" font-family="Helvetica,sans-Serif" font-size="10.00">Framework/include/Quality</text>
<text text-anchor="middle" x="1182" y="-74.5" font-family="Helvetica,sans-Serif" font-size="10.00">Control/TrendingTask.h</text>
</a>
</g>
</g>
<!-- Node10&#45;&gt;Node11 -->
<g id="edge11" class="edge"><title>Node10&#45;&gt;Node11</title>
<path fill="none" stroke="midnightblue" d="M1162.07,-125.283C1166.49,-116.022 1171.43,-105.663 1175.29,-97.5765"/>
<polygon fill="midnightblue" stroke="midnightblue" points="1158.87,-123.863 1157.73,-134.396 1165.19,-126.877 1158.87,-123.863"/>
</g>
<!-- Node14 -->
<g id="node14" class="node"><title>Node14</title>
<g id="a_node14"><a xlink:href="TrendingTaskConfig_8cxx.html" target="_top" xlink:title="Framework/src/TrendingTask\lConfig.cxx">
<polygon fill="none" stroke="black" points="1267,-67.5 1267,-97.5 1411,-97.5 1411,-67.5 1267,-67.5"/>
<text text-anchor="start" x="1275" y="-85.5" font-family="Helvetica,sans-Serif" font-size="10.00">Framework/src/TrendingTask</text>
<text text-anchor="middle" x="1339" y="-74.5" font-family="Helvetica,sans-Serif" font-size="10.00">Config.cxx</text>
</a>
</g>
</g>
<!-- Node10&#45;&gt;Node14 -->
<g id="edge14" class="edge"><title>Node10&#45;&gt;Node14</title>
<path fill="none" stroke="midnightblue" d="M1201.35,-131.092C1231.7,-120.599 1269.85,-107.408 1298.29,-97.5765"/>
<polygon fill="midnightblue" stroke="midnightblue" points="1200.1,-127.82 1191.79,-134.396 1202.39,-134.436 1200.1,-127.82"/>
</g>
<!-- Node12 -->
<g id="node12" class="node"><title>Node12</title>
<g id="a_node12"><a xlink:href="TrendingTask_8cxx.html" target="_top" xlink:title="Framework/src/TrendingTask.cxx">
<polygon fill="none" stroke="black" points="1009.5,-6 1009.5,-25 1172.5,-25 1172.5,-6 1009.5,-6"/>
<text text-anchor="middle" x="1091" y="-13" font-family="Helvetica,sans-Serif" font-size="10.00">Framework/src/TrendingTask.cxx</text>
</a>
</g>
</g>
<!-- Node11&#45;&gt;Node12 -->
<g id="edge12" class="edge"><title>Node11&#45;&gt;Node12</title>
<path fill="none" stroke="midnightblue" d="M1153.73,-61.3056C1136.64,-49.0999 1115.75,-34.1772 1102.91,-25.007"/>
<polygon fill="midnightblue" stroke="midnightblue" points="1152.08,-64.4316 1162.25,-67.396 1156.15,-58.7355 1152.08,-64.4316"/>
</g>
<!-- Node13 -->
<g id="node13" class="node"><title>Node13</title>
<g id="a_node13"><a xlink:href="testTrendingTask_8cxx.html" target="_top" xlink:title="Framework/test/testTrending\lTask.cxx">
<polygon fill="none" stroke="black" points="1191,-0.5 1191,-30.5 1333,-30.5 1333,-0.5 1191,-0.5"/>
<text text-anchor="start" x="1199" y="-18.5" font-family="Helvetica,sans-Serif" font-size="10.00">Framework/test/testTrending</text>
<text text-anchor="middle" x="1262" y="-7.5" font-family="Helvetica,sans-Serif" font-size="10.00">Task.cxx</text>
</a>
</g>
</g>
<!-- Node11&#45;&gt;Node13 -->
<g id="edge13" class="edge"><title>Node11&#45;&gt;Node13</title>
<path fill="none" stroke="midnightblue" d="M1207.37,-60.8832C1219.53,-51.0054 1233.78,-39.4293 1244.68,-30.5765"/>
<polygon fill="midnightblue" stroke="midnightblue" points="1204.91,-58.3736 1199.36,-67.396 1209.33,-63.8064 1204.91,-58.3736"/>
</g>
<!-- Node18 -->
<g id="node18" class="node"><title>Node18</title>
<g id="a_node18"><a xlink:href="TrendingTaskITSFhr_8h.html" target="_top" xlink:title="Modules/ITS/include\l/ITS/TrendingTaskITSFhr.h">
<polygon fill="none" stroke="black" points="1460,-67.5 1460,-97.5 1596,-97.5 1596,-67.5 1460,-67.5"/>
<text text-anchor="start" x="1468" y="-85.5" font-family="Helvetica,sans-Serif" font-size="10.00">Modules/ITS/include</text>
<text text-anchor="middle" x="1528" y="-74.5" font-family="Helvetica,sans-Serif" font-size="10.00">/ITS/TrendingTaskITSFhr.h</text>
</a>
</g>
</g>
<!-- Node17&#45;&gt;Node18 -->
<g id="edge18" class="edge"><title>Node17&#45;&gt;Node18</title>
<path fill="none" stroke="midnightblue" d="M1639.13,-130.407C1614.55,-120.029 1584.14,-107.195 1561.35,-97.5765"/>
<polygon fill="midnightblue" stroke="midnightblue" points="1638.01,-133.732 1648.58,-134.396 1640.73,-127.283 1638.01,-133.732"/>
</g>
<!-- Node20 -->
<g id="node20" class="node"><title>Node20</title>
<g id="a_node20"><a xlink:href="TrendingTaskITSThr_8h.html" target="_top" xlink:title="Modules/ITS/include\l/ITS/TrendingTaskITSThr.h">
<polygon fill="none" stroke="black" points="1614,-67.5 1614,-97.5 1750,-97.5 1750,-67.5 1614,-67.5"/>
<text text-anchor="start" x="1622" y="-85.5" font-family="Helvetica,sans-Serif" font-size="10.00">Modules/ITS/include</text>
<text text-anchor="middle" x="1682" y="-74.5" font-family="Helvetica,sans-Serif" font-size="10.00">/ITS/TrendingTaskITSThr.h</text>
</a>
</g>
</g>
<!-- Node17&#45;&gt;Node20 -->
<g id="edge20" class="edge"><title>Node17&#45;&gt;Node20</title>
<path fill="none" stroke="midnightblue" d="M1682,-124.108C1682,-115.154 1682,-105.323 1682,-97.5765"/>
<polygon fill="midnightblue" stroke="midnightblue" points="1678.5,-124.396 1682,-134.396 1685.5,-124.396 1678.5,-124.396"/>
</g>
<!-- Node22 -->
<g id="node22" class="node"><title>Node22</title>
<polygon fill="none" stroke="#bfbfbf" points="1768.5,-67.5 1768.5,-97.5 1897.5,-97.5 1897.5,-67.5 1768.5,-67.5"/>
<text text-anchor="start" x="1776.5" y="-85.5" font-family="Helvetica,sans-Serif" font-size="10.00">Modules/ITS/src/Trending</text>
<text text-anchor="middle" x="1833" y="-74.5" font-family="Helvetica,sans-Serif" font-size="10.00">TaskConfigITS.cxx</text>
</g>
<!-- Node17&#45;&gt;Node22 -->
<g id="edge22" class="edge"><title>Node17&#45;&gt;Node22</title>
<path fill="none" stroke="midnightblue" d="M1724.03,-130.407C1748.14,-120.029 1777.95,-107.195 1800.3,-97.5765"/>
<polygon fill="midnightblue" stroke="midnightblue" points="1722.57,-127.227 1714.76,-134.396 1725.33,-133.657 1722.57,-127.227"/>
</g>
<!-- Node19 -->
<g id="node19" class="node"><title>Node19</title>
<g id="a_node19"><a xlink:href="TrendingTaskITSFhr_8cxx.html" target="_top" xlink:title="Modules/ITS/src/Trending\lTaskITSFhr.cxx">
<polygon fill="none" stroke="black" points="1463.5,-0.5 1463.5,-30.5 1592.5,-30.5 1592.5,-0.5 1463.5,-0.5"/>
<text text-anchor="start" x="1471.5" y="-18.5" font-family="Helvetica,sans-Serif" font-size="10.00">Modules/ITS/src/Trending</text>
<text text-anchor="middle" x="1528" y="-7.5" font-family="Helvetica,sans-Serif" font-size="10.00">TaskITSFhr.cxx</text>
</a>
</g>
</g>
<!-- Node18&#45;&gt;Node19 -->
<g id="edge19" class="edge"><title>Node18&#45;&gt;Node19</title>
<path fill="none" stroke="midnightblue" d="M1528,-57.1081C1528,-48.1539 1528,-38.3227 1528,-30.5765"/>
<polygon fill="midnightblue" stroke="midnightblue" points="1524.5,-57.3959 1528,-67.396 1531.5,-57.396 1524.5,-57.3959"/>
</g>
<!-- Node21 -->
<g id="node21" class="node"><title>Node21</title>
<g id="a_node21"><a xlink:href="TrendingTaskITSThr_8cxx.html" target="_top" xlink:title="Modules/ITS/src/Trending\lTaskITSThr.cxx">
<polygon fill="none" stroke="black" points="1617.5,-0.5 1617.5,-30.5 1746.5,-30.5 1746.5,-0.5 1617.5,-0.5"/>
<text text-anchor="start" x="1625.5" y="-18.5" font-family="Helvetica,sans-Serif" font-size="10.00">Modules/ITS/src/Trending</text>
<text text-anchor="middle" x="1682" y="-7.5" font-family="Helvetica,sans-Serif" font-size="10.00">TaskITSThr.cxx</text>
</a>
</g>
</g>
<!-- Node20&#45;&gt;Node21 -->
<g id="edge21" class="edge"><title>Node20&#45;&gt;Node21</title>
<path fill="none" stroke="midnightblue" d="M1682,-57.1081C1682,-48.1539 1682,-38.3227 1682,-30.5765"/>
<polygon fill="midnightblue" stroke="midnightblue" points="1678.5,-57.3959 1682,-67.396 1685.5,-57.396 1678.5,-57.3959"/>
</g>
</g>
</svg>
        <g id="navigator" transform="translate(0 0)" fill="#404254">
                <rect fill="#f2f5e9" fill-opacity="0.5" stroke="#606060" stroke-width=".5" x="0" y="0" width="60" height="60"/>
                <use id="zoomplus" xlink:href="#zoomPlus" x="17" y="9" onmousedown="handleZoom(evt,'in')"/>
                <use id="zoomminus" xlink:href="#zoomMin" x="42" y="9" onmousedown="handleZoom(evt,'out')"/>
                <use id="reset" xlink:href="#resetDef" x="30" y="36" onmousedown="handleReset()"/>
                <g id="arrowUp" xlink:href="#dirArrow" transform="translate(30 24)" onmousedown="handlePan(0,-1)">
                  <use xlink:href="#rim" fill="#404040">
                        <set attributeName="fill" to="#808080" begin="arrowUp.mouseover" end="arrowUp.mouseout"/>
                  </use>
                  <path fill="none" stroke="white" stroke-width="1.5" d="M0,-3.0v7 M-2.5,-0.5L0,-3.0L2.5,-0.5"/>
                </g>
                <g id="arrowRight" xlink:href="#dirArrow" transform="rotate(90) translate(36 -43)" onmousedown="handlePan(1,0)">
                  <use xlink:href="#rim" fill="#404040">
                        <set attributeName="fill" to="#808080" begin="arrowRight.mouseover" end="arrowRight.mouseout"/>
                  </use>
                  <path fill="none" stroke="white" stroke-width="1.5" d="M0,-3.0v7 M-2.5,-0.5L0,-3.0L2.5,-0.5"/>
                </g>
                <g id="arrowDown" xlink:href="#dirArrow" transform="rotate(180) translate(-30 -48)" onmousedown="handlePan(0,1)">
                  <use xlink:href="#rim" fill="#404040">
                        <set attributeName="fill" to="#808080" begin="arrowDown.mouseover" end="arrowDown.mouseout"/>
                  </use>
                  <path fill="none" stroke="white" stroke-width="1.5" d="M0,-3.0v7 M-2.5,-0.5L0,-3.0L2.5,-0.5"/>
                </g>
                <g id="arrowLeft" xlink:href="#dirArrow" transform="rotate(270) translate(-36 17)" onmousedown="handlePan(-1,0)">
                  <use xlink:href="#rim" fill="#404040">
                        <set attributeName="fill" to="#808080" begin="arrowLeft.mouseover" end="arrowLeft.mouseout"/>
                  </use>
                  <path fill="none" stroke="white" stroke-width="1.5" d="M0,-3.0v7 M-2.5,-0.5L0,-3.0L2.5,-0.5"/>
                </g>
        </g>
        <svg viewBox="0 0 15 15" width="100%" height="30px" preserveAspectRatio="xMaxYMin meet">
         <g id="arrow_out" transform="scale(0.3 0.3)">
          <a xlink:href="PostProcessingConfig_8h__dep__incl_org.svg" target="_base">
           <rect id="button" ry="5" rx="5" y="6" x="6" height="38" width="38"
                fill="#f2f5e9" fill-opacity="0.5" stroke="#606060" stroke-width="1.0"/>
           <path id="arrow"
             d="M 11.500037,31.436501 C 11.940474,20.09759 22.043105,11.32322 32.158766,21.979434 L 37.068811,17.246167 C 37.068811,17.246167 37.088388,32 37.088388,32 L 22.160133,31.978069 C 22.160133,31.978069 26.997745,27.140456 26.997745,27.140456 C 18.528582,18.264221 13.291696,25.230495 11.500037,31.436501 z"
             style="fill:#404040;"/>
          </a>
         </g>
        </svg>
</svg>
