<?xml version="1.0" encoding="UTF-8" standalone="no"?>
<!DOCTYPE svg PUBLIC "-//W3C//DTD SVG 1.1//EN"
 "http://www.w3.org/Graphics/SVG/1.1/DTD/svg11.dtd">
<!-- Generated by graphviz version 2.38.0 (20140413.2041)
 -->
<!-- Title: Framework/include/QualityControl/Reductor.h Pages: 1 -->
<!--zoomable 173 -->
<svg id="main" version="1.1" xmlns="http://www.w3.org/2000/svg" xmlns:xlink="http://www.w3.org/1999/xlink" xml:space="preserve" onload="init(evt)">
<style type="text/css"><![CDATA[
.edge:hover path { stroke: red; }
.edge:hover polygon { stroke: red; fill: red; }
]]></style>
<script type="text/javascript"><![CDATA[
var edges = document.getElementsByTagName('g');
if (edges && edges.length) {
  for (var i=0;i<edges.length;i++) {
    if (edges[i].id.substr(0,4)=='edge') {
      edges[i].setAttribute('class','edge');
    }
  }
}
]]></script>
        <defs>
                <circle id="rim" cx="0" cy="0" r="7"/>
                <circle id="rim2" cx="0" cy="0" r="3.5"/>
                <g id="zoomPlus">
                        <use xlink:href="#rim" fill="#404040">
                                <set attributeName="fill" to="#808080" begin="zoomplus.mouseover" end="zoomplus.mouseout"/>
                        </use>
                        <path d="M-4,0h8M0,-4v8" fill="none" stroke="white" stroke-width="1.5" pointer-events="none"/>
                </g>
                <g id="zoomMin">
                        <use xlink:href="#rim" fill="#404040">
                                <set attributeName="fill" to="#808080" begin="zoomminus.mouseover" end="zoomminus.mouseout"/>
                        </use>
                        <path d="M-4,0h8" fill="none" stroke="white" stroke-width="1.5" pointer-events="none"/>
                </g>
                <g id="dirArrow">
                        <path fill="none" stroke="white" stroke-width="1.5" d="M0,-3.0v7 M-2.5,-0.5L0,-3.0L2.5,-0.5"/>
                </g>
               <g id="resetDef">
                       <use xlink:href="#rim2" fill="#404040">
                               <set attributeName="fill" to="#808080" begin="reset.mouseover" end="reset.mouseout"/>
                       </use>
               </g>
        </defs>

<script type="text/javascript">
var viewWidth = 1995;
var viewHeight = 173;
var sectionId = 'dynsection-1';
</script>
<script xlink:href="svgpan.js"/>
<svg id="graph" class="graph">
<g id="viewport">
<title>Framework/include/QualityControl/Reductor.h</title>
<!-- Node1 -->
<g id="node1" class="node"><title>Node1</title>
<polygon fill="#bfbfbf" stroke="black" points="952,-134.5 952,-164.5 1085,-164.5 1085,-134.5 952,-134.5"/>
<text text-anchor="start" x="960" y="-152.5" font-family="Helvetica,sans-Serif" font-size="10.00">Framework/include/Quality</text>
<text text-anchor="middle" x="1018.5" y="-141.5" font-family="Helvetica,sans-Serif" font-size="10.00">Control/Reductor.h</text>
</g>
<!-- Node2 -->
<g id="node2" class="node"><title>Node2</title>
<g id="a_node2"><a xlink:href="TrendingTask_8h.html" target="_top" xlink:title="Framework/include/Quality\lControl/TrendingTask.h">
<polygon fill="none" stroke="black" points="110,-67.5 110,-97.5 243,-97.5 243,-67.5 110,-67.5"/>
<text text-anchor="start" x="118" y="-85.5" font-family="Helvetica,sans-Serif" font-size="10.00">Framework/include/Quality</text>
<text text-anchor="middle" x="176.5" y="-74.5" font-family="Helvetica,sans-Serif" font-size="10.00">Control/TrendingTask.h</text>
</a>
</g>
</g>
<!-- Node1&#45;&gt;Node2 -->
<g id="edge1" class="edge"><title>Node1&#45;&gt;Node2</title>
<path fill="none" stroke="midnightblue" d="M941.711,-146.625C803.257,-142.537 502.798,-130.435 251.5,-98 248.738,-97.6435 245.924,-97.2479 243.086,-96.822"/>
<polygon fill="midnightblue" stroke="midnightblue" points="941.701,-150.126 951.798,-146.917 941.904,-143.129 941.701,-150.126"/>
</g>
<!-- Node3 -->
<g id="node3" class="node"><title>Node3</title>
<g id="a_node3"><a xlink:href="TrendingTask_8cxx.html" target="_top" xlink:title="Framework/src/TrendingTask.cxx">
<polygon fill="none" stroke="black" points="0,-6 0,-25 163,-25 163,-6 0,-6"/>
<text text-anchor="middle" x="81.5" y="-13" font-family="Helvetica,sans-Serif" font-size="10.00">Framework/src/TrendingTask.cxx</text>
</a>
</g>
</g>
<!-- Node1&#45;&gt;Node3 -->
<g id="edge4" class="edge"><title>Node1&#45;&gt;Node3</title>
<path fill="none" stroke="midnightblue" d="M941.639,-146.763C726.613,-141.575 132.506,-124.868 100.5,-98 78.8013,-79.7843 79.1351,-42.0315 80.5262,-25.0742"/>
<polygon fill="midnightblue" stroke="midnightblue" points="941.813,-150.268 951.894,-147.008 941.981,-143.27 941.813,-150.268"/>
</g>
<!-- Node5 -->
<g id="node5" class="node"><title>Node5</title>
<polygon fill="none" stroke="#bfbfbf" points="261,-73 261,-92 424,-92 424,-73 261,-73"/>
<text text-anchor="middle" x="342.5" y="-80" font-family="Helvetica,sans-Serif" font-size="10.00">Framework/test/testReductor.cxx</text>
</g>
<!-- Node1&#45;&gt;Node5 -->
<g id="edge5" class="edge"><title>Node1&#45;&gt;Node5</title>
<path fill="none" stroke="midnightblue" d="M941.787,-143.701C829.663,-136.277 614.555,-120.479 432.5,-98 419.149,-96.3515 404.742,-94.1991 391.452,-92.0593"/>
<polygon fill="midnightblue" stroke="midnightblue" points="941.775,-147.208 951.983,-144.372 942.235,-140.223 941.775,-147.208"/>
</g>
<!-- Node6 -->
<g id="node6" class="node"><title>Node6</title>
<g id="a_node6"><a xlink:href="QualityReductor_8h.html" target="_top" xlink:title="Modules/Common/include\l/Common/QualityReductor.h">
<polygon fill="none" stroke="black" points="442,-67.5 442,-97.5 583,-97.5 583,-67.5 442,-67.5"/>
<text text-anchor="start" x="450" y="-85.5" font-family="Helvetica,sans-Serif" font-size="10.00">Modules/Common/include</text>
<text text-anchor="middle" x="512.5" y="-74.5" font-family="Helvetica,sans-Serif" font-size="10.00">/Common/QualityReductor.h</text>
</a>
</g>
</g>
<!-- Node1&#45;&gt;Node6 -->
<g id="edge6" class="edge"><title>Node1&#45;&gt;Node6</title>
<path fill="none" stroke="midnightblue" d="M941.619,-140.435C857.103,-131.3 717.383,-115.405 597.5,-98 592.907,-97.3333 588.181,-96.6154 583.42,-95.8685"/>
<polygon fill="midnightblue" stroke="midnightblue" points="941.33,-143.925 951.648,-141.516 942.08,-136.965 941.33,-143.925"/>
</g>
<!-- Node8 -->
<g id="node8" class="node"><title>Node8</title>
<g id="a_node8"><a xlink:href="testCommonReductors_8cxx.html" target="_top" xlink:title="Modules/Common/test\l/testCommonReductors.cxx">
<polygon fill="none" stroke="black" points="535.5,-0.5 535.5,-30.5 675.5,-30.5 675.5,-0.5 535.5,-0.5"/>
<text text-anchor="start" x="543.5" y="-18.5" font-family="Helvetica,sans-Serif" font-size="10.00">Modules/Common/test</text>
<text text-anchor="middle" x="605.5" y="-7.5" font-family="Helvetica,sans-Serif" font-size="10.00">/testCommonReductors.cxx</text>
</a>
</g>
</g>
<!-- Node1&#45;&gt;Node8 -->
<g id="edge17" class="edge"><title>Node1&#45;&gt;Node8</title>
<path fill="none" stroke="midnightblue" d="M941.817,-148.085C842.354,-145.97 676.16,-136.56 630.5,-98 610.712,-81.2891 606.295,-49.3402 605.482,-30.7954"/>
<polygon fill="midnightblue" stroke="midnightblue" points="941.755,-151.585 951.821,-148.278 941.89,-144.586 941.755,-151.585"/>
</g>
<!-- Node9 -->
<g id="node9" class="node"><title>Node9</title>
<g id="a_node9"><a xlink:href="TH1Reductor_8h.html" target="_top" xlink:title="Modules/Common/include\l/Common/TH1Reductor.h">
<polygon fill="none" stroke="black" points="639.5,-67.5 639.5,-97.5 769.5,-97.5 769.5,-67.5 639.5,-67.5"/>
<text text-anchor="start" x="647.5" y="-85.5" font-family="Helvetica,sans-Serif" font-size="10.00">Modules/Common/include</text>
<text text-anchor="middle" x="704.5" y="-74.5" font-family="Helvetica,sans-Serif" font-size="10.00">/Common/TH1Reductor.h</text>
</a>
</g>
</g>
<!-- Node1&#45;&gt;Node9 -->
<g id="edge9" class="edge"><title>Node1&#45;&gt;Node9</title>
<path fill="none" stroke="midnightblue" d="M941.922,-132.648C889.149,-121.723 819.769,-107.361 769.65,-96.9865"/>
<polygon fill="midnightblue" stroke="midnightblue" points="941.407,-136.115 951.909,-134.715 942.826,-129.261 941.407,-136.115"/>
</g>
<!-- Node11 -->
<g id="node11" class="node"><title>Node11</title>
<g id="a_node11"><a xlink:href="TH2Reductor_8h.html" target="_top" xlink:title="Modules/Common/include\l/Common/TH2Reductor.h">
<polygon fill="none" stroke="black" points="787.5,-67.5 787.5,-97.5 917.5,-97.5 917.5,-67.5 787.5,-67.5"/>
<text text-anchor="start" x="795.5" y="-85.5" font-family="Helvetica,sans-Serif" font-size="10.00">Modules/Common/include</text>
<text text-anchor="middle" x="852.5" y="-74.5" font-family="Helvetica,sans-Serif" font-size="10.00">/Common/TH2Reductor.h</text>
</a>
</g>
</g>
<!-- Node1&#45;&gt;Node11 -->
<g id="edge12" class="edge"><title>Node1&#45;&gt;Node11</title>
<path fill="none" stroke="midnightblue" d="M972.994,-130.682C946.371,-120.257 913.232,-107.281 888.449,-97.5765"/>
<polygon fill="midnightblue" stroke="midnightblue" points="971.893,-134.009 982.48,-134.396 974.445,-127.491 971.893,-134.009"/>
</g>
<!-- Node13 -->
<g id="node13" class="node"><title>Node13</title>
<g id="a_node13"><a xlink:href="THnSparse5Reductor_8h.html" target="_top" xlink:title="Modules/Common/include\l/Common/THnSparse5Reductor.h">
<polygon fill="none" stroke="black" points="936,-67.5 936,-97.5 1101,-97.5 1101,-67.5 936,-67.5"/>
<text text-anchor="start" x="944" y="-85.5" font-family="Helvetica,sans-Serif" font-size="10.00">Modules/Common/include</text>
<text text-anchor="middle" x="1018.5" y="-74.5" font-family="Helvetica,sans-Serif" font-size="10.00">/Common/THnSparse5Reductor.h</text>
</a>
</g>
</g>
<!-- Node1&#45;&gt;Node13 -->
<g id="edge15" class="edge"><title>Node1&#45;&gt;Node13</title>
<path fill="none" stroke="midnightblue" d="M1018.5,-124.108C1018.5,-115.154 1018.5,-105.323 1018.5,-97.5765"/>
<polygon fill="midnightblue" stroke="midnightblue" points="1015,-124.396 1018.5,-134.396 1022,-124.396 1015,-124.396"/>
</g>
<!-- Node15 -->
<g id="node15" class="node"><title>Node15</title>
<g id="a_node15"><a xlink:href="DigitOccupancyReductor_8h_source.html" target="_top" xlink:title="Modules/EMCAL/include\l/EMCAL/DigitOccupancyReductor.h">
<polygon fill="none" stroke="black" points="1119,-67.5 1119,-97.5 1294,-97.5 1294,-67.5 1119,-67.5"/>
<text text-anchor="start" x="1127" y="-85.5" font-family="Helvetica,sans-Serif" font-size="10.00">Modules/EMCAL/include</text>
<text text-anchor="middle" x="1206.5" y="-74.5" font-family="Helvetica,sans-Serif" font-size="10.00">/EMCAL/DigitOccupancyReductor.h</text>
</a>
</g>
</g>
<!-- Node1&#45;&gt;Node15 -->
<g id="edge18" class="edge"><title>Node1&#45;&gt;Node15</title>
<path fill="none" stroke="midnightblue" d="M1068.85,-131.092C1099.2,-120.599 1137.35,-107.408 1165.79,-97.5765"/>
<polygon fill="midnightblue" stroke="midnightblue" points="1067.6,-127.82 1059.29,-134.396 1069.89,-134.436 1067.6,-127.82"/>
</g>
<!-- Node17 -->
<g id="node17" class="node"><title>Node17</title>
<g id="a_node17"><a xlink:href="TH2XlineReductor_8h.html" target="_top" xlink:title="Modules/ITS/include\l/ITS/TH2XlineReductor.h">
<polygon fill="none" stroke="black" points="1312,-67.5 1312,-97.5 1439,-97.5 1439,-67.5 1312,-67.5"/>
<text text-anchor="start" x="1320" y="-85.5" font-family="Helvetica,sans-Serif" font-size="10.00">Modules/ITS/include</text>
<text text-anchor="middle" x="1375.5" y="-74.5" font-family="Helvetica,sans-Serif" font-size="10.00">/ITS/TH2XlineReductor.h</text>
</a>
</g>
</g>
<!-- Node1&#45;&gt;Node17 -->
<g id="edge20" class="edge"><title>Node1&#45;&gt;Node17</title>
<path fill="none" stroke="midnightblue" d="M1095.18,-135.295C1152.38,-125.341 1232.39,-111.194 1302.5,-98 1305.55,-97.4264 1308.67,-96.833 1311.81,-96.2284"/>
<polygon fill="midnightblue" stroke="midnightblue" points="1094.39,-131.88 1085.13,-137.041 1095.58,-138.777 1094.39,-131.88"/>
</g>
<!-- Node19 -->
<g id="node19" class="node"><title>Node19</title>
<g id="a_node19"><a xlink:href="TrendingTaskITSFhr_8cxx.html" target="_top" xlink:title="Modules/ITS/src/Trending\lTaskITSFhr.cxx">
<polygon fill="none" stroke="black" points="1461,-0.5 1461,-30.5 1590,-30.5 1590,-0.5 1461,-0.5"/>
<text text-anchor="start" x="1469" y="-18.5" font-family="Helvetica,sans-Serif" font-size="10.00">Modules/ITS/src/Trending</text>
<text text-anchor="middle" x="1525.5" y="-7.5" font-family="Helvetica,sans-Serif" font-size="10.00">TaskITSFhr.cxx</text>
</a>
</g>
</g>
<!-- Node1&#45;&gt;Node19 -->
<g id="edge27" class="edge"><title>Node1&#45;&gt;Node19</title>
<path fill="none" stroke="midnightblue" d="M1095.28,-147.514C1246,-144.777 1568.88,-134.656 1602.5,-98 1624.47,-74.0441 1585.01,-46.6606 1554.92,-30.516"/>
<polygon fill="midnightblue" stroke="midnightblue" points="1095.11,-144.016 1085.17,-147.691 1095.23,-151.015 1095.11,-144.016"/>
</g>
<!-- Node20 -->
<g id="node20" class="node"><title>Node20</title>
<g id="a_node20"><a xlink:href="TrendingTaskITSFhr_8h.html" target="_top" xlink:title="Modules/ITS/include\l/ITS/TrendingTaskITSFhr.h">
<polygon fill="none" stroke="black" points="1457.5,-67.5 1457.5,-97.5 1593.5,-97.5 1593.5,-67.5 1457.5,-67.5"/>
<text text-anchor="start" x="1465.5" y="-85.5" font-family="Helvetica,sans-Serif" font-size="10.00">Modules/ITS/include</text>
<text text-anchor="middle" x="1525.5" y="-74.5" font-family="Helvetica,sans-Serif" font-size="10.00">/ITS/TrendingTaskITSFhr.h</text>
</a>
</g>
</g>
<!-- Node1&#45;&gt;Node20 -->
<g id="edge23" class="edge"><title>Node1&#45;&gt;Node20</title>
<path fill="none" stroke="midnightblue" d="M1095.39,-141.008C1181.4,-132.266 1324.77,-116.61 1447.5,-98 1450.77,-97.5044 1454.11,-96.9743 1457.48,-96.4205"/>
<polygon fill="midnightblue" stroke="midnightblue" points="1094.79,-137.551 1085.19,-142.04 1095.5,-144.516 1094.79,-137.551"/>
</g>
<!-- Node21 -->
<g id="node21" class="node"><title>Node21</title>
<g id="a_node21"><a xlink:href="TrendingTaskITSThr_8h.html" target="_top" xlink:title="Modules/ITS/include\l/ITS/TrendingTaskITSThr.h">
<polygon fill="none" stroke="black" points="1649.5,-67.5 1649.5,-97.5 1785.5,-97.5 1785.5,-67.5 1649.5,-67.5"/>
<text text-anchor="start" x="1657.5" y="-85.5" font-family="Helvetica,sans-Serif" font-size="10.00">Modules/ITS/include</text>
<text text-anchor="middle" x="1717.5" y="-74.5" font-family="Helvetica,sans-Serif" font-size="10.00">/ITS/TrendingTaskITSThr.h</text>
</a>
</g>
</g>
<!-- Node1&#45;&gt;Node21 -->
<g id="edge25" class="edge"><title>Node1&#45;&gt;Node21</title>
<path fill="none" stroke="midnightblue" d="M1095.65,-144.504C1212.7,-137.919 1442.01,-122.97 1635.5,-98 1639.94,-97.4264 1644.52,-96.7791 1649.12,-96.0843"/>
<polygon fill="midnightblue" stroke="midnightblue" points="1095.16,-141.027 1085.37,-145.078 1095.54,-148.016 1095.16,-141.027"/>
</g>
<!-- Node22 -->
<g id="node22" class="node"><title>Node22</title>
<g id="a_node22"><a xlink:href="TrendingTaskITSThr_8cxx.html" target="_top" xlink:title="Modules/ITS/src/Trending\lTaskITSThr.cxx">
<polygon fill="none" stroke="black" points="1658,-0.5 1658,-30.5 1787,-30.5 1787,-0.5 1658,-0.5"/>
<text text-anchor="start" x="1666" y="-18.5" font-family="Helvetica,sans-Serif" font-size="10.00">Modules/ITS/src/Trending</text>
<text text-anchor="middle" x="1722.5" y="-7.5" font-family="Helvetica,sans-Serif" font-size="10.00">TaskITSThr.cxx</text>
</a>
</g>
</g>
<!-- Node1&#45;&gt;Node22 -->
<g id="edge28" class="edge"><title>Node1&#45;&gt;Node22</title>
<path fill="none" stroke="midnightblue" d="M1095.52,-146.3C1286.99,-140.459 1770.83,-123.257 1794.5,-98 1816.19,-74.855 1778.4,-46.9887 1749.86,-30.5655"/>
<polygon fill="midnightblue" stroke="midnightblue" points="1095.15,-142.81 1085.26,-146.611 1095.36,-149.807 1095.15,-142.81"/>
</g>
<!-- Node23 -->
<g id="node23" class="node"><title>Node23</title>
<g id="a_node23"><a xlink:href="ROCReductor_8h_source.html" target="_top" xlink:title="Modules/TPC/include\l/TPC/ROCReductor.h">
<polygon fill="none" stroke="black" points="1842,-67.5 1842,-97.5 1955,-97.5 1955,-67.5 1842,-67.5"/>
<text text-anchor="start" x="1850" y="-85.5" font-family="Helvetica,sans-Serif" font-size="10.00">Modules/TPC/include</text>
<text text-anchor="middle" x="1898.5" y="-74.5" font-family="Helvetica,sans-Serif" font-size="10.00">/TPC/ROCReductor.h</text>
</a>
</g>
</g>
<!-- Node1&#45;&gt;Node23 -->
<g id="edge29" class="edge"><title>Node1&#45;&gt;Node23</title>
<path fill="none" stroke="midnightblue" d="M1095.2,-147.261C1239.28,-144.148 1559.97,-133.492 1827.5,-98 1832.11,-97.3878 1836.88,-96.6497 1841.65,-95.8348"/>
<polygon fill="midnightblue" stroke="midnightblue" points="1095.06,-143.763 1085.13,-147.472 1095.2,-150.762 1095.06,-143.763"/>
</g>
<!-- Node2&#45;&gt;Node3 -->
<g id="edge2" class="edge"><title>Node2&#45;&gt;Node3</title>
<path fill="none" stroke="midnightblue" d="M147.475,-61.6409C129.547,-49.3742 107.459,-34.2613 93.9333,-25.007"/>
<polygon fill="midnightblue" stroke="midnightblue" points="145.657,-64.6377 155.886,-67.396 149.61,-58.8605 145.657,-64.6377"/>
</g>
<!-- Node4 -->
<g id="node4" class="node"><title>Node4</title>
<g id="a_node4"><a xlink:href="testTrendingTask_8cxx.html" target="_top" xlink:title="Framework/test/testTrending\lTask.cxx">
<polygon fill="none" stroke="black" points="181.5,-0.5 181.5,-30.5 323.5,-30.5 323.5,-0.5 181.5,-0.5"/>
<text text-anchor="start" x="189.5" y="-18.5" font-family="Helvetica,sans-Serif" font-size="10.00">Framework/test/testTrending</text>
<text text-anchor="middle" x="252.5" y="-7.5" font-family="Helvetica,sans-Serif" font-size="10.00">Task.cxx</text>
</a>
</g>
</g>
<!-- Node2&#45;&gt;Node4 -->
<g id="edge3" class="edge"><title>Node2&#45;&gt;Node4</title>
<path fill="none" stroke="midnightblue" d="M200.606,-60.8832C212.155,-51.0054 225.69,-39.4293 236.041,-30.5765"/>
<polygon fill="midnightblue" stroke="midnightblue" points="198.316,-58.2364 192.991,-67.396 202.865,-63.5561 198.316,-58.2364"/>
</g>
<!-- Node7 -->
<g id="node7" class="node"><title>Node7</title>
<g id="a_node7"><a xlink:href="QualityReductor_8cxx.html" target="_top" xlink:title="Modules/Common/src\l/QualityReductor.cxx">
<polygon fill="none" stroke="black" points="404,-0.5 404,-30.5 517,-30.5 517,-0.5 404,-0.5"/>
<text text-anchor="start" x="412" y="-18.5" font-family="Helvetica,sans-Serif" font-size="10.00">Modules/Common/src</text>
<text text-anchor="middle" x="460.5" y="-7.5" font-family="Helvetica,sans-Serif" font-size="10.00">/QualityReductor.cxx</text>
</a>
</g>
</g>
<!-- Node6&#45;&gt;Node7 -->
<g id="edge7" class="edge"><title>Node6&#45;&gt;Node7</title>
<path fill="none" stroke="midnightblue" d="M494.858,-59.4472C487.219,-49.8986 478.503,-39.0037 471.761,-30.5765"/>
<polygon fill="midnightblue" stroke="midnightblue" points="492.237,-61.7737 501.217,-67.396 497.703,-57.4008 492.237,-61.7737"/>
</g>
<!-- Node6&#45;&gt;Node8 -->
<g id="edge8" class="edge"><title>Node6&#45;&gt;Node8</title>
<path fill="none" stroke="midnightblue" d="M541.185,-61.4511C555.492,-51.4517 572.45,-39.5995 585.36,-30.5765"/>
<polygon fill="midnightblue" stroke="midnightblue" points="538.871,-58.7985 532.68,-67.396 542.881,-64.536 538.871,-58.7985"/>
</g>
<!-- Node9&#45;&gt;Node8 -->
<g id="edge11" class="edge"><title>Node9&#45;&gt;Node8</title>
<path fill="none" stroke="midnightblue" d="M674.394,-61.7337C659.075,-51.6755 640.812,-39.6847 626.94,-30.5765"/>
<polygon fill="midnightblue" stroke="midnightblue" points="672.738,-64.8333 683.018,-67.396 676.58,-58.9818 672.738,-64.8333"/>
</g>
<!-- Node10 -->
<g id="node10" class="node"><title>Node10</title>
<g id="a_node10"><a xlink:href="TH1Reductor_8cxx.html" target="_top" xlink:title="Modules/Common/src\l/TH1Reductor.cxx">
<polygon fill="none" stroke="black" points="694,-0.5 694,-30.5 807,-30.5 807,-0.5 694,-0.5"/>
<text text-anchor="start" x="702" y="-18.5" font-family="Helvetica,sans-Serif" font-size="10.00">Modules/Common/src</text>
<text text-anchor="middle" x="750.5" y="-7.5" font-family="Helvetica,sans-Serif" font-size="10.00">/TH1Reductor.cxx</text>
</a>
</g>
</g>
<!-- Node9&#45;&gt;Node10 -->
<g id="edge10" class="edge"><title>Node9&#45;&gt;Node10</title>
<path fill="none" stroke="midnightblue" d="M720.312,-59.1575C727.02,-49.6788 734.635,-38.9186 740.538,-30.5765"/>
<polygon fill="midnightblue" stroke="midnightblue" points="717.401,-57.2114 714.481,-67.396 723.115,-61.2551 717.401,-57.2114"/>
</g>
<!-- Node11&#45;&gt;Node8 -->
<g id="edge14" class="edge"><title>Node11&#45;&gt;Node8</title>
<path fill="none" stroke="midnightblue" d="M789.485,-64.9171C749.177,-54.3099 697.455,-40.6988 659.121,-30.6109"/>
<polygon fill="midnightblue" stroke="midnightblue" points="788.647,-68.3157 799.209,-67.476 790.429,-61.5462 788.647,-68.3157"/>
</g>
<!-- Node12 -->
<g id="node12" class="node"><title>Node12</title>
<g id="a_node12"><a xlink:href="TH2Reductor_8cxx.html" target="_top" xlink:title="Modules/Common/src\l/TH2Reductor.cxx">
<polygon fill="none" stroke="black" points="825,-0.5 825,-30.5 938,-30.5 938,-0.5 825,-0.5"/>
<text text-anchor="start" x="833" y="-18.5" font-family="Helvetica,sans-Serif" font-size="10.00">Modules/Common/src</text>
<text text-anchor="middle" x="881.5" y="-7.5" font-family="Helvetica,sans-Serif" font-size="10.00">/TH2Reductor.cxx</text>
</a>
</g>
</g>
<!-- Node11&#45;&gt;Node12 -->
<g id="edge13" class="edge"><title>Node11&#45;&gt;Node12</title>
<path fill="none" stroke="midnightblue" d="M862.989,-57.9907C867.087,-48.8044 871.65,-38.5781 875.22,-30.5765"/>
<polygon fill="midnightblue" stroke="midnightblue" points="859.671,-56.8376 858.793,-67.396 866.063,-59.6897 859.671,-56.8376"/>
</g>
<!-- Node14 -->
<g id="node14" class="node"><title>Node14</title>
<g id="a_node14"><a xlink:href="THnSparse5Reductor_8cxx.html" target="_top" xlink:title="Modules/Common/src\l/THnSparse5Reductor.cxx">
<polygon fill="none" stroke="black" points="956,-0.5 956,-30.5 1089,-30.5 1089,-0.5 956,-0.5"/>
<text text-anchor="start" x="964" y="-18.5" font-family="Helvetica,sans-Serif" font-size="10.00">Modules/Common/src</text>
<text text-anchor="middle" x="1022.5" y="-7.5" font-family="Helvetica,sans-Serif" font-size="10.00">/THnSparse5Reductor.cxx</text>
</a>
</g>
</g>
<!-- Node13&#45;&gt;Node14 -->
<g id="edge16" class="edge"><title>Node13&#45;&gt;Node14</title>
<path fill="none" stroke="midnightblue" d="M1019.98,-57.4029C1020.54,-48.3703 1021.15,-38.4078 1021.63,-30.5765"/>
<polygon fill="midnightblue" stroke="midnightblue" points="1016.49,-57.1998 1019.37,-67.396 1023.48,-57.6299 1016.49,-57.1998"/>
</g>
<!-- Node16 -->
<g id="node16" class="node"><title>Node16</title>
<polygon fill="none" stroke="#bfbfbf" points="1111.5,-0.5 1111.5,-30.5 1291.5,-30.5 1291.5,-0.5 1111.5,-0.5"/>
<text text-anchor="start" x="1119.5" y="-18.5" font-family="Helvetica,sans-Serif" font-size="10.00">Modules/EMCAL/src/DigitOccupancy</text>
<text text-anchor="middle" x="1201.5" y="-7.5" font-family="Helvetica,sans-Serif" font-size="10.00">Reductor.cxx</text>
</g>
<!-- Node15&#45;&gt;Node16 -->
<g id="edge19" class="edge"><title>Node15&#45;&gt;Node16</title>
<path fill="none" stroke="midnightblue" d="M1204.65,-57.4029C1203.95,-48.3703 1203.19,-38.4078 1202.58,-30.5765"/>
<polygon fill="midnightblue" stroke="midnightblue" points="1201.16,-57.6939 1205.42,-67.396 1208.14,-57.157 1201.16,-57.6939"/>
</g>
<!-- Node18 -->
<g id="node18" class="node"><title>Node18</title>
<g id="a_node18"><a xlink:href="TH2XlineReductor_8cxx.html" target="_top" xlink:title="Modules/ITS/src/TH2Xline\lReductor.cxx">
<polygon fill="none" stroke="black" points="1309.5,-0.5 1309.5,-30.5 1441.5,-30.5 1441.5,-0.5 1309.5,-0.5"/>
<text text-anchor="start" x="1317.5" y="-18.5" font-family="Helvetica,sans-Serif" font-size="10.00">Modules/ITS/src/TH2Xline</text>
<text text-anchor="middle" x="1375.5" y="-7.5" font-family="Helvetica,sans-Serif" font-size="10.00">Reductor.cxx</text>
</a>
</g>
</g>
<!-- Node17&#45;&gt;Node18 -->
<g id="edge21" class="edge"><title>Node17&#45;&gt;Node18</title>
<path fill="none" stroke="midnightblue" d="M1375.5,-57.1081C1375.5,-48.1539 1375.5,-38.3227 1375.5,-30.5765"/>
<polygon fill="midnightblue" stroke="midnightblue" points="1372,-57.3959 1375.5,-67.396 1379,-57.396 1372,-57.3959"/>
</g>
<!-- Node17&#45;&gt;Node19 -->
<g id="edge22" class="edge"><title>Node17&#45;&gt;Node19</title>
<path fill="none" stroke="midnightblue" d="M1417.25,-63.4066C1441.2,-53.0294 1470.82,-40.1954 1493.02,-30.5765"/>
<polygon fill="midnightblue" stroke="midnightblue" points="1415.83,-60.2084 1408.05,-67.396 1418.61,-66.6313 1415.83,-60.2084"/>
</g>
<!-- Node20&#45;&gt;Node19 -->
<g id="edge24" class="edge"><title>Node20&#45;&gt;Node19</title>
<path fill="none" stroke="midnightblue" d="M1525.5,-57.1081C1525.5,-48.1539 1525.5,-38.3227 1525.5,-30.5765"/>
<polygon fill="midnightblue" stroke="midnightblue" points="1522,-57.3959 1525.5,-67.396 1529,-57.396 1522,-57.3959"/>
</g>
<!-- Node21&#45;&gt;Node22 -->
<g id="edge26" class="edge"><title>Node21&#45;&gt;Node22</title>
<path fill="none" stroke="midnightblue" d="M1719.35,-57.4029C1720.05,-48.3703 1720.81,-38.4078 1721.42,-30.5765"/>
<polygon fill="midnightblue" stroke="midnightblue" points="1715.86,-57.157 1718.58,-67.396 1722.84,-57.6939 1715.86,-57.157"/>
</g>
<!-- Node24 -->
<g id="node24" class="node"><title>Node24</title>
<polygon fill="none" stroke="#bfbfbf" points="1810,-6 1810,-25 1987,-25 1987,-6 1810,-6"/>
<text text-anchor="middle" x="1898.5" y="-13" font-family="Helvetica,sans-Serif" font-size="10.00">Modules/TPC/src/ROCReductor.cxx</text>
</g>
<!-- Node23&#45;&gt;Node24 -->
<g id="edge30" class="edge"><title>Node23&#45;&gt;Node24</title>
<path fill="none" stroke="midnightblue" d="M1898.5,-57.2495C1898.5,-46.017 1898.5,-33.3767 1898.5,-25.1945"/>
<polygon fill="midnightblue" stroke="midnightblue" points="1895,-57.3959 1898.5,-67.396 1902,-57.396 1895,-57.3959"/>
</g>
</g>
</svg>
        <g id="navigator" transform="translate(0 0)" fill="#404254">
                <rect fill="#f2f5e9" fill-opacity="0.5" stroke="#606060" stroke-width=".5" x="0" y="0" width="60" height="60"/>
                <use id="zoomplus" xlink:href="#zoomPlus" x="17" y="9" onmousedown="handleZoom(evt,'in')"/>
                <use id="zoomminus" xlink:href="#zoomMin" x="42" y="9" onmousedown="handleZoom(evt,'out')"/>
                <use id="reset" xlink:href="#resetDef" x="30" y="36" onmousedown="handleReset()"/>
                <g id="arrowUp" xlink:href="#dirArrow" transform="translate(30 24)" onmousedown="handlePan(0,-1)">
                  <use xlink:href="#rim" fill="#404040">
                        <set attributeName="fill" to="#808080" begin="arrowUp.mouseover" end="arrowUp.mouseout"/>
                  </use>
                  <path fill="none" stroke="white" stroke-width="1.5" d="M0,-3.0v7 M-2.5,-0.5L0,-3.0L2.5,-0.5"/>
                </g>
                <g id="arrowRight" xlink:href="#dirArrow" transform="rotate(90) translate(36 -43)" onmousedown="handlePan(1,0)">
                  <use xlink:href="#rim" fill="#404040">
                        <set attributeName="fill" to="#808080" begin="arrowRight.mouseover" end="arrowRight.mouseout"/>
                  </use>
                  <path fill="none" stroke="white" stroke-width="1.5" d="M0,-3.0v7 M-2.5,-0.5L0,-3.0L2.5,-0.5"/>
                </g>
                <g id="arrowDown" xlink:href="#dirArrow" transform="rotate(180) translate(-30 -48)" onmousedown="handlePan(0,1)">
                  <use xlink:href="#rim" fill="#404040">
                        <set attributeName="fill" to="#808080" begin="arrowDown.mouseover" end="arrowDown.mouseout"/>
                  </use>
                  <path fill="none" stroke="white" stroke-width="1.5" d="M0,-3.0v7 M-2.5,-0.5L0,-3.0L2.5,-0.5"/>
                </g>
                <g id="arrowLeft" xlink:href="#dirArrow" transform="rotate(270) translate(-36 17)" onmousedown="handlePan(-1,0)">
                  <use xlink:href="#rim" fill="#404040">
                        <set attributeName="fill" to="#808080" begin="arrowLeft.mouseover" end="arrowLeft.mouseout"/>
                  </use>
                  <path fill="none" stroke="white" stroke-width="1.5" d="M0,-3.0v7 M-2.5,-0.5L0,-3.0L2.5,-0.5"/>
                </g>
        </g>
        <svg viewBox="0 0 15 15" width="100%" height="30px" preserveAspectRatio="xMaxYMin meet">
         <g id="arrow_out" transform="scale(0.3 0.3)">
          <a xlink:href="Reductor_8h__dep__incl_org.svg" target="_base">
           <rect id="button" ry="5" rx="5" y="6" x="6" height="38" width="38"
                fill="#f2f5e9" fill-opacity="0.5" stroke="#606060" stroke-width="1.0"/>
           <path id="arrow"
             d="M 11.500037,31.436501 C 11.940474,20.09759 22.043105,11.32322 32.158766,21.979434 L 37.068811,17.246167 C 37.068811,17.246167 37.088388,32 37.088388,32 L 22.160133,31.978069 C 22.160133,31.978069 26.997745,27.140456 26.997745,27.140456 C 18.528582,18.264221 13.291696,25.230495 11.500037,31.436501 z"
             style="fill:#404040;"/>
          </a>
         </g>
        </svg>
</svg>
