<?xml version="1.0" encoding="UTF-8" standalone="no"?>
<!DOCTYPE svg PUBLIC "-//W3C//DTD SVG 1.1//EN"
 "http://www.w3.org/Graphics/SVG/1.1/DTD/svg11.dtd">
<!-- Generated by graphviz version 2.38.0 (20140413.2041)
 -->
<!-- Title: Framework/include/QualityControl/RepoPathUtils.h Pages: 1 -->
<svg width="914pt" height="106pt"
 viewBox="0.00 0.00 914.00 106.00" xmlns="http://www.w3.org/2000/svg" xmlns:xlink="http://www.w3.org/1999/xlink">
<g id="graph0" class="graph" transform="scale(1 1) rotate(0) translate(4 102)">
<title>Framework/include/QualityControl/RepoPathUtils.h</title>
<!-- Node1 -->
<g id="node1" class="node"><title>Node1</title>
<polygon fill="#bfbfbf" stroke="black" points="391.5,-67.5 391.5,-97.5 524.5,-97.5 524.5,-67.5 391.5,-67.5"/>
<text text-anchor="start" x="399.5" y="-85.5" font-family="Helvetica,sans-Serif" font-size="10.00">Framework/include/Quality</text>
<text text-anchor="middle" x="458" y="-74.5" font-family="Helvetica,sans-Serif" font-size="10.00">Control/RepoPathUtils.h</text>
</g>
<!-- Node2 -->
<g id="node2" class="node"><title>Node2</title>
<g id="a_node2"><a xlink:href="MonitorObject_8cxx.html" target="_top" xlink:title="Framework/src/MonitorObject.cxx">
<polygon fill="none" stroke="black" points="0,-6 0,-25 164,-25 164,-6 0,-6"/>
<text text-anchor="middle" x="82" y="-13" font-family="Helvetica,sans-Serif" font-size="10.00">Framework/src/MonitorObject.cxx</text>
</a>
</g>
</g>
<!-- Node1&#45;&gt;Node2 -->
<g id="edge1" class="edge"><title>Node1&#45;&gt;Node2</title>
<path fill="none" stroke="midnightblue" d="M380.914,-68.1739C306.154,-55.2501 194.971,-36.0296 131.387,-25.0377"/>
<polygon fill="midnightblue" stroke="midnightblue" points="380.762,-71.6995 391.212,-69.9542 381.954,-64.8018 380.762,-71.6995"/>
</g>
<!-- Node3 -->
<g id="node3" class="node"><title>Node3</title>
<polygon fill="none" stroke="#bfbfbf" points="182.5,-6 182.5,-25 345.5,-25 345.5,-6 182.5,-6"/>
<text text-anchor="middle" x="264" y="-13" font-family="Helvetica,sans-Serif" font-size="10.00">Framework/src/QualityObject.cxx</text>
</g>
<!-- Node1&#45;&gt;Node3 -->
<g id="edge2" class="edge"><title>Node1&#45;&gt;Node3</title>
<path fill="none" stroke="midnightblue" d="M406.09,-64.1075C368.349,-51.4622 318.894,-34.8923 289.39,-25.007"/>
<polygon fill="midnightblue" stroke="midnightblue" points="405.311,-67.5376 415.905,-67.396 407.535,-60.9003 405.311,-67.5376"/>
</g>
<!-- Node4 -->
<g id="node4" class="node"><title>Node4</title>
<g id="a_node4"><a xlink:href="testCcdbDatabase_8cxx.html" target="_top" xlink:title="Framework/test/testCcdbDatabase.cxx">
<polygon fill="none" stroke="black" points="364,-6 364,-25 552,-25 552,-6 364,-6"/>
<text text-anchor="middle" x="458" y="-13" font-family="Helvetica,sans-Serif" font-size="10.00">Framework/test/testCcdbDatabase.cxx</text>
</a>
</g>
</g>
<!-- Node1&#45;&gt;Node4 -->
<g id="edge3" class="edge"><title>Node1&#45;&gt;Node4</title>
<path fill="none" stroke="midnightblue" d="M458,-57.2495C458,-46.017 458,-33.3767 458,-25.1945"/>
<polygon fill="midnightblue" stroke="midnightblue" points="454.5,-57.3959 458,-67.396 461.5,-57.396 454.5,-57.3959"/>
</g>
<!-- Node5 -->
<g id="node5" class="node"><title>Node5</title>
<g id="a_node5"><a xlink:href="testDbFactory_8cxx.html" target="_top" xlink:title="Framework/test/testDbFactory.cxx">
<polygon fill="none" stroke="black" points="570.5,-6 570.5,-25 739.5,-25 739.5,-6 570.5,-6"/>
<text text-anchor="middle" x="655" y="-13" font-family="Helvetica,sans-Serif" font-size="10.00">Framework/test/testDbFactory.cxx</text>
</a>
</g>
</g>
<!-- Node1&#45;&gt;Node5 -->
<g id="edge4" class="edge"><title>Node1&#45;&gt;Node5</title>
<path fill="none" stroke="midnightblue" d="M510.713,-64.1075C549.038,-51.4622 599.257,-34.8923 629.217,-25.007"/>
<polygon fill="midnightblue" stroke="midnightblue" points="509.146,-60.9388 500.746,-67.396 511.339,-67.5863 509.146,-60.9388"/>
</g>
<!-- Node6 -->
<g id="node6" class="node"><title>Node6</title>
<g id="a_node6"><a xlink:href="testRepoPathUtils_8cxx.html" target="_top" xlink:title="Framework/test/testRepoPath\lUtils.cxx">
<polygon fill="none" stroke="black" points="758,-0.5 758,-30.5 906,-30.5 906,-0.5 758,-0.5"/>
<text text-anchor="start" x="766" y="-18.5" font-family="Helvetica,sans-Serif" font-size="10.00">Framework/test/testRepoPath</text>
<text text-anchor="middle" x="832" y="-7.5" font-family="Helvetica,sans-Serif" font-size="10.00">Utils.cxx</text>
</a>
</g>
</g>
<!-- Node1&#45;&gt;Node6 -->
<g id="edge5" class="edge"><title>Node1&#45;&gt;Node6</title>
<path fill="none" stroke="midnightblue" d="M534.684,-68.2166C593.364,-58.046 676.296,-43.6592 749,-31 751.882,-30.4981 754.821,-29.9862 757.789,-29.4688"/>
<polygon fill="midnightblue" stroke="midnightblue" points="534.005,-64.7819 524.75,-69.9382 535.201,-71.6791 534.005,-64.7819"/>
</g>
</g>
</svg>
