<?xml version="1.0" encoding="UTF-8" standalone="no"?>
<!DOCTYPE svg PUBLIC "-//W3C//DTD SVG 1.1//EN"
 "http://www.w3.org/Graphics/SVG/1.1/DTD/svg11.dtd">
<!-- Generated by graphviz version 2.38.0 (20140413.2041)
 -->
<!-- Title: Framework/src/runAdvanced.cxx Pages: 1 -->
<svg width="884pt" height="151pt"
 viewBox="0.00 0.00 884.00 151.00" xmlns="http://www.w3.org/2000/svg" xmlns:xlink="http://www.w3.org/1999/xlink">
<g id="graph0" class="graph" transform="scale(1 1) rotate(0) translate(4 147)">
<title>Framework/src/runAdvanced.cxx</title>
<!-- Node1 -->
<g id="node1" class="node"><title>Node1</title>
<polygon fill="#bfbfbf" stroke="black" points="401,-123.5 401,-142.5 562,-142.5 562,-123.5 401,-123.5"/>
<text text-anchor="middle" x="481.5" y="-130.5" font-family="Helvetica,sans-Serif" font-size="10.00">Framework/src/runAdvanced.cxx</text>
</g>
<!-- Node2 -->
<g id="node2" class="node"><title>Node2</title>
<polygon fill="none" stroke="#bfbfbf" points="0,-56.5 0,-86.5 145,-86.5 145,-56.5 0,-56.5"/>
<text text-anchor="start" x="8" y="-74.5" font-family="Helvetica,sans-Serif" font-size="10.00">Framework/CompletionPolicy</text>
<text text-anchor="middle" x="72.5" y="-63.5" font-family="Helvetica,sans-Serif" font-size="10.00">Helpers.h</text>
</g>
<!-- Node1&#45;&gt;Node2 -->
<g id="edge1" class="edge"><title>Node1&#45;&gt;Node2</title>
<path fill="none" stroke="midnightblue" d="M414.065,-123.486C350.133,-115.24 251.138,-102.022 155.493,-87.12"/>
<polygon fill="midnightblue" stroke="midnightblue" points="155.774,-83.6214 145.353,-85.5317 154.691,-90.5371 155.774,-83.6214"/>
</g>
<!-- Node3 -->
<g id="node3" class="node"><title>Node3</title>
<polygon fill="none" stroke="#bfbfbf" points="163,-62 163,-81 314,-81 314,-62 163,-62"/>
<text text-anchor="middle" x="238.5" y="-69" font-family="Helvetica,sans-Serif" font-size="10.00">DataSampling/DataSampling.h</text>
</g>
<!-- Node1&#45;&gt;Node3 -->
<g id="edge2" class="edge"><title>Node1&#45;&gt;Node3</title>
<path fill="none" stroke="midnightblue" d="M446.684,-123.475C403.648,-112.937 330.335,-94.9863 283.185,-83.4415"/>
<polygon fill="midnightblue" stroke="midnightblue" points="283.797,-79.9879 273.251,-81.0091 282.132,-86.787 283.797,-79.9879"/>
</g>
<!-- Node4 -->
<g id="node4" class="node"><title>Node4</title>
<polygon fill="none" stroke="#bfbfbf" points="332.5,-62 332.5,-81 472.5,-81 472.5,-62 332.5,-62"/>
<text text-anchor="middle" x="402.5" y="-69" font-family="Helvetica,sans-Serif" font-size="10.00">Framework/DataSpecUtils.h</text>
</g>
<!-- Node1&#45;&gt;Node4 -->
<g id="edge3" class="edge"><title>Node1&#45;&gt;Node4</title>
<path fill="none" stroke="midnightblue" d="M470.181,-123.475C457.627,-114.02 437.149,-98.5961 422.001,-87.1871"/>
<polygon fill="midnightblue" stroke="midnightblue" points="423.891,-84.2295 413.798,-81.0091 419.68,-89.821 423.891,-84.2295"/>
</g>
<!-- Node5 -->
<g id="node5" class="node"><title>Node5</title>
<g id="a_node5"><a xlink:href="InfrastructureGenerator_8h.html" target="_top" xlink:title="QualityControl/Infrastructure\lGenerator.h">
<polygon fill="none" stroke="black" points="490.5,-56.5 490.5,-86.5 630.5,-86.5 630.5,-56.5 490.5,-56.5"/>
<text text-anchor="start" x="498.5" y="-74.5" font-family="Helvetica,sans-Serif" font-size="10.00">QualityControl/Infrastructure</text>
<text text-anchor="middle" x="560.5" y="-63.5" font-family="Helvetica,sans-Serif" font-size="10.00">Generator.h</text>
</a>
</g>
</g>
<!-- Node1&#45;&gt;Node5 -->
<g id="edge4" class="edge"><title>Node1&#45;&gt;Node5</title>
<path fill="none" stroke="midnightblue" d="M492.819,-123.475C503.418,-115.492 519.667,-103.254 533.586,-92.7703"/>
<polygon fill="midnightblue" stroke="midnightblue" points="535.999,-95.3349 541.881,-86.523 531.788,-89.7434 535.999,-95.3349"/>
</g>
<!-- Node10 -->
<g id="node10" class="node"><title>Node10</title>
<polygon fill="none" stroke="#bfbfbf" points="648.5,-62 648.5,-81 808.5,-81 808.5,-62 648.5,-62"/>
<text text-anchor="middle" x="728.5" y="-69" font-family="Helvetica,sans-Serif" font-size="10.00">Framework/runDataProcessing.h</text>
</g>
<!-- Node1&#45;&gt;Node10 -->
<g id="edge9" class="edge"><title>Node1&#45;&gt;Node10</title>
<path fill="none" stroke="midnightblue" d="M516.889,-123.475C560.726,-112.915 635.466,-94.911 683.38,-83.3689"/>
<polygon fill="midnightblue" stroke="midnightblue" points="684.274,-86.7537 693.177,-81.0091 682.635,-79.9484 684.274,-86.7537"/>
</g>
<!-- Node11 -->
<g id="node11" class="node"><title>Node11</title>
<polygon fill="none" stroke="#bfbfbf" points="827,-62 827,-81 876,-81 876,-62 827,-62"/>
<text text-anchor="middle" x="851.5" y="-69" font-family="Helvetica,sans-Serif" font-size="10.00">random</text>
</g>
<!-- Node1&#45;&gt;Node11 -->
<g id="edge10" class="edge"><title>Node1&#45;&gt;Node11</title>
<path fill="none" stroke="midnightblue" d="M562.142,-127.327C630.976,-121.894 732.089,-110.466 817.5,-87 819.797,-86.3689 822.143,-85.6158 824.476,-84.7895"/>
<polygon fill="midnightblue" stroke="midnightblue" points="825.805,-88.0275 833.826,-81.1049 823.239,-81.5149 825.805,-88.0275"/>
</g>
<!-- Node6 -->
<g id="node6" class="node"><title>Node6</title>
<polygon fill="none" stroke="#bfbfbf" points="422.5,-0.5 422.5,-19.5 466.5,-19.5 466.5,-0.5 422.5,-0.5"/>
<text text-anchor="middle" x="444.5" y="-7.5" font-family="Helvetica,sans-Serif" font-size="10.00">vector</text>
</g>
<!-- Node5&#45;&gt;Node6 -->
<g id="edge5" class="edge"><title>Node5&#45;&gt;Node6</title>
<path fill="none" stroke="midnightblue" d="M533.01,-56.3993C514.068,-46.6837 489.058,-33.8551 470.456,-24.3137"/>
<polygon fill="midnightblue" stroke="midnightblue" points="471.874,-21.1076 461.379,-19.6578 468.679,-27.336 471.874,-21.1076"/>
</g>
<!-- Node7 -->
<g id="node7" class="node"><title>Node7</title>
<polygon fill="none" stroke="#bfbfbf" points="485,-0.5 485,-19.5 526,-19.5 526,-0.5 485,-0.5"/>
<text text-anchor="middle" x="505.5" y="-7.5" font-family="Helvetica,sans-Serif" font-size="10.00">string</text>
</g>
<!-- Node5&#45;&gt;Node7 -->
<g id="edge6" class="edge"><title>Node5&#45;&gt;Node7</title>
<path fill="none" stroke="midnightblue" d="M547.466,-56.3993C539.309,-47.575 528.778,-36.1827 520.306,-27.0178"/>
<polygon fill="midnightblue" stroke="midnightblue" points="522.861,-24.6253 513.503,-19.6578 517.721,-29.3769 522.861,-24.6253"/>
</g>
<!-- Node8 -->
<g id="node8" class="node"><title>Node8</title>
<polygon fill="none" stroke="#bfbfbf" points="544.5,-0.5 544.5,-19.5 684.5,-19.5 684.5,-0.5 544.5,-0.5"/>
<text text-anchor="middle" x="614.5" y="-7.5" font-family="Helvetica,sans-Serif" font-size="10.00">Framework/WorkflowSpec.h</text>
</g>
<!-- Node5&#45;&gt;Node8 -->
<g id="edge7" class="edge"><title>Node5&#45;&gt;Node8</title>
<path fill="none" stroke="midnightblue" d="M573.297,-56.3993C581.225,-47.6641 591.436,-36.4126 599.71,-27.2962"/>
<polygon fill="midnightblue" stroke="midnightblue" points="602.514,-29.415 606.643,-19.6578 597.33,-24.7106 602.514,-29.415"/>
</g>
<!-- Node9 -->
<g id="node9" class="node"><title>Node9</title>
<polygon fill="none" stroke="#bfbfbf" points="702.5,-0.5 702.5,-19.5 866.5,-19.5 866.5,-0.5 702.5,-0.5"/>
<text text-anchor="middle" x="784.5" y="-7.5" font-family="Helvetica,sans-Serif" font-size="10.00">Framework/DataProcessorSpec.h</text>
</g>
<!-- Node5&#45;&gt;Node9 -->
<g id="edge8" class="edge"><title>Node5&#45;&gt;Node9</title>
<path fill="none" stroke="midnightblue" d="M613.301,-56.4747C652.79,-45.9856 706.056,-31.8367 742.629,-22.1221"/>
<polygon fill="midnightblue" stroke="midnightblue" points="743.71,-25.4564 752.476,-19.5064 741.913,-18.691 743.71,-25.4564"/>
</g>
</g>
</svg>
