<?xml version="1.0" encoding="UTF-8" standalone="no"?>
<!DOCTYPE svg PUBLIC "-//W3C//DTD SVG 1.1//EN"
 "http://www.w3.org/Graphics/SVG/1.1/DTD/svg11.dtd">
<!-- Generated by graphviz version 2.38.0 (20140413.2041)
 -->
<!-- Title: Framework/src/runPostProcessing.cxx Pages: 1 -->
<svg width="1275pt" height="341pt"
 viewBox="0.00 0.00 1274.50 341.00" xmlns="http://www.w3.org/2000/svg" xmlns:xlink="http://www.w3.org/1999/xlink">
<g id="graph0" class="graph" transform="scale(1 1) rotate(0) translate(4 337)">
<title>Framework/src/runPostProcessing.cxx</title>
<!-- Node1 -->
<g id="node1" class="node"><title>Node1</title>
<polygon fill="#bfbfbf" stroke="black" points="822,-313.5 822,-332.5 1008,-332.5 1008,-313.5 822,-313.5"/>
<text text-anchor="middle" x="915" y="-320.5" font-family="Helvetica,sans-Serif" font-size="10.00">Framework/src/runPostProcessing.cxx</text>
</g>
<!-- Node2 -->
<g id="node2" class="node"><title>Node2</title>
<g id="a_node2"><a xlink:href="PostProcessingRunner_8h.html" target="_top" xlink:title="QualityControl/PostProcessing\lRunner.h">
<polygon fill="none" stroke="black" points="372.5,-246.5 372.5,-276.5 523.5,-276.5 523.5,-246.5 372.5,-246.5"/>
<text text-anchor="start" x="380.5" y="-264.5" font-family="Helvetica,sans-Serif" font-size="10.00">QualityControl/PostProcessing</text>
<text text-anchor="middle" x="448" y="-253.5" font-family="Helvetica,sans-Serif" font-size="10.00">Runner.h</text>
</a>
</g>
</g>
<!-- Node1&#45;&gt;Node2 -->
<g id="edge1" class="edge"><title>Node1&#45;&gt;Node2</title>
<path fill="none" stroke="midnightblue" d="M848.09,-313.475C765.317,-302.929 624.266,-284.958 533.662,-273.414"/>
<polygon fill="midnightblue" stroke="midnightblue" points="534.053,-269.936 523.691,-272.144 533.168,-276.88 534.053,-269.936"/>
</g>
<!-- Node22 -->
<g id="node22" class="node"><title>Node22</title>
<g id="a_node22"><a xlink:href="QcInfoLogger_8h.html" target="_top" xlink:title="QualityControl/QcInfoLogger.h">
<polygon fill="none" stroke="black" points="701.5,-252 701.5,-271 850.5,-271 850.5,-252 701.5,-252"/>
<text text-anchor="middle" x="776" y="-259" font-family="Helvetica,sans-Serif" font-size="10.00">QualityControl/QcInfoLogger.h</text>
</a>
</g>
</g>
<!-- Node1&#45;&gt;Node22 -->
<g id="edge37" class="edge"><title>Node1&#45;&gt;Node22</title>
<path fill="none" stroke="midnightblue" d="M895.085,-313.475C871.551,-303.401 832.19,-286.553 805.207,-275.002"/>
<polygon fill="midnightblue" stroke="midnightblue" points="806.449,-271.727 795.878,-271.009 803.694,-278.162 806.449,-271.727"/>
</g>
<!-- Node24 -->
<g id="node24" class="node"><title>Node24</title>
<polygon fill="none" stroke="#bfbfbf" points="869,-252 869,-271 961,-271 961,-252 869,-252"/>
<text text-anchor="middle" x="915" y="-259" font-family="Helvetica,sans-Serif" font-size="10.00">Common/Timer.h</text>
</g>
<!-- Node1&#45;&gt;Node24 -->
<g id="edge39" class="edge"><title>Node1&#45;&gt;Node24</title>
<path fill="none" stroke="midnightblue" d="M915,-313.475C915,-305.08 915,-291.981 915,-281.163"/>
<polygon fill="midnightblue" stroke="midnightblue" points="918.5,-281.009 915,-271.009 911.5,-281.009 918.5,-281.009"/>
</g>
<!-- Node25 -->
<g id="node25" class="node"><title>Node25</title>
<polygon fill="none" stroke="#bfbfbf" points="979,-252 979,-271 1113,-271 1113,-252 979,-252"/>
<text text-anchor="middle" x="1046" y="-259" font-family="Helvetica,sans-Serif" font-size="10.00">boost/program_options.hpp</text>
</g>
<!-- Node1&#45;&gt;Node25 -->
<g id="edge40" class="edge"><title>Node1&#45;&gt;Node25</title>
<path fill="none" stroke="midnightblue" d="M933.769,-313.475C955.851,-303.445 992.719,-286.7 1018.14,-275.155"/>
<polygon fill="midnightblue" stroke="midnightblue" points="1019.61,-278.331 1027.27,-271.009 1016.71,-271.958 1019.61,-278.331"/>
</g>
<!-- Node26 -->
<g id="node26" class="node"><title>Node26</title>
<polygon fill="none" stroke="#bfbfbf" points="1131.5,-246.5 1131.5,-276.5 1266.5,-276.5 1266.5,-246.5 1131.5,-246.5"/>
<text text-anchor="start" x="1139.5" y="-264.5" font-family="Helvetica,sans-Serif" font-size="10.00">Configuration/Configuration</text>
<text text-anchor="middle" x="1199" y="-253.5" font-family="Helvetica,sans-Serif" font-size="10.00">Factory.h</text>
</g>
<!-- Node1&#45;&gt;Node26 -->
<g id="edge41" class="edge"><title>Node1&#45;&gt;Node26</title>
<path fill="none" stroke="midnightblue" d="M955.69,-313.475C999.007,-304.4 1068.57,-289.826 1122.24,-278.582"/>
<polygon fill="midnightblue" stroke="midnightblue" points="1123,-281.999 1132.07,-276.523 1121.56,-275.148 1123,-281.999"/>
</g>
<!-- Node3 -->
<g id="node3" class="node"><title>Node3</title>
<polygon fill="none" stroke="#bfbfbf" points="1041,-118 1041,-137 1093,-137 1093,-118 1041,-118"/>
<text text-anchor="middle" x="1067" y="-125" font-family="Helvetica,sans-Serif" font-size="10.00">memory</text>
</g>
<!-- Node2&#45;&gt;Node3 -->
<g id="edge2" class="edge"><title>Node2&#45;&gt;Node3</title>
<path fill="none" stroke="midnightblue" d="M523.747,-259.87C591.713,-256.762 692.81,-245.736 773,-210 792.909,-201.128 791.127,-187.952 811,-179 901.336,-138.306 935.579,-169.671 1031,-143 1033.44,-142.318 1035.94,-141.523 1038.43,-140.663"/>
<polygon fill="midnightblue" stroke="midnightblue" points="1039.71,-143.921 1047.84,-137.127 1037.25,-137.369 1039.71,-143.921"/>
</g>
<!-- Node4 -->
<g id="node4" class="node"><title>Node4</title>
<polygon fill="none" stroke="#bfbfbf" points="0,-118 0,-137 146,-137 146,-118 0,-118"/>
<text text-anchor="middle" x="73" y="-125" font-family="Helvetica,sans-Serif" font-size="10.00">Framework/ServiceRegistry.h</text>
</g>
<!-- Node2&#45;&gt;Node4 -->
<g id="edge3" class="edge"><title>Node2&#45;&gt;Node4</title>
<path fill="none" stroke="midnightblue" d="M372.224,-257.426C314.19,-252.606 233.421,-240.444 169,-210 135.424,-194.132 104.139,-163.44 86.8877,-144.582"/>
<polygon fill="midnightblue" stroke="midnightblue" points="89.4581,-142.206 80.189,-137.074 84.2349,-146.866 89.4581,-142.206"/>
</g>
<!-- Node5 -->
<g id="node5" class="node"><title>Node5</title>
<polygon fill="none" stroke="#bfbfbf" points="345.5,-112.5 345.5,-142.5 446.5,-142.5 446.5,-112.5 345.5,-112.5"/>
<text text-anchor="start" x="353.5" y="-130.5" font-family="Helvetica,sans-Serif" font-size="10.00">boost/property_tree</text>
<text text-anchor="middle" x="396" y="-119.5" font-family="Helvetica,sans-Serif" font-size="10.00">/ptree_fwd.hpp</text>
</g>
<!-- Node2&#45;&gt;Node5 -->
<g id="edge4" class="edge"><title>Node2&#45;&gt;Node5</title>
<path fill="none" stroke="midnightblue" d="M436.735,-246.248C429.562,-236.531 420.598,-223.097 415,-210 407.084,-191.479 402.169,-169.117 399.327,-152.505"/>
<polygon fill="midnightblue" stroke="midnightblue" points="402.767,-151.848 397.748,-142.518 395.853,-152.942 402.767,-151.848"/>
</g>
<!-- Node6 -->
<g id="node6" class="node"><title>Node6</title>
<g id="a_node6"><a xlink:href="PostProcessingInterface_8h.html" target="_top" xlink:title="QualityControl/PostProcessing\lInterface.h">
<polygon fill="none" stroke="black" points="178.5,-179.5 178.5,-209.5 329.5,-209.5 329.5,-179.5 178.5,-179.5"/>
<text text-anchor="start" x="186.5" y="-197.5" font-family="Helvetica,sans-Serif" font-size="10.00">QualityControl/PostProcessing</text>
<text text-anchor="middle" x="254" y="-186.5" font-family="Helvetica,sans-Serif" font-size="10.00">Interface.h</text>
</a>
</g>
</g>
<!-- Node2&#45;&gt;Node6 -->
<g id="edge5" class="edge"><title>Node2&#45;&gt;Node6</title>
<path fill="none" stroke="midnightblue" d="M405.905,-246.396C376.542,-236.558 337.172,-223.367 305.87,-212.879"/>
<polygon fill="midnightblue" stroke="midnightblue" points="306.607,-209.435 296.013,-209.577 304.383,-216.072 306.607,-209.435"/>
</g>
<!-- Node8 -->
<g id="node8" class="node"><title>Node8</title>
<g id="a_node8"><a xlink:href="Triggers_8h.html" target="_top" xlink:title="QualityControl/Triggers.h">
<polygon fill="none" stroke="black" points="202.5,-118 202.5,-137 327.5,-137 327.5,-118 202.5,-118"/>
<text text-anchor="middle" x="265" y="-125" font-family="Helvetica,sans-Serif" font-size="10.00">QualityControl/Triggers.h</text>
</a>
</g>
</g>
<!-- Node2&#45;&gt;Node8 -->
<g id="edge17" class="edge"><title>Node2&#45;&gt;Node8</title>
<path fill="none" stroke="midnightblue" d="M429.451,-246.471C407.693,-230.081 370.465,-202.247 338,-179 320.672,-166.592 300.762,-152.852 286.116,-142.841"/>
<polygon fill="midnightblue" stroke="midnightblue" points="287.981,-139.877 277.747,-137.134 284.038,-145.66 287.981,-139.877"/>
</g>
<!-- Node11 -->
<g id="node11" class="node"><title>Node11</title>
<g id="a_node11"><a xlink:href="PostProcessingConfig_8h.html" target="_top" xlink:title="QualityControl/PostProcessing\lConfig.h">
<polygon fill="none" stroke="black" points="424.5,-179.5 424.5,-209.5 575.5,-209.5 575.5,-179.5 424.5,-179.5"/>
<text text-anchor="start" x="432.5" y="-197.5" font-family="Helvetica,sans-Serif" font-size="10.00">QualityControl/PostProcessing</text>
<text text-anchor="middle" x="500" y="-186.5" font-family="Helvetica,sans-Serif" font-size="10.00">Config.h</text>
</a>
</g>
</g>
<!-- Node2&#45;&gt;Node11 -->
<g id="edge13" class="edge"><title>Node2&#45;&gt;Node11</title>
<path fill="none" stroke="midnightblue" d="M459.283,-246.396C466.029,-237.963 474.746,-227.067 482.383,-217.522"/>
<polygon fill="midnightblue" stroke="midnightblue" points="485.225,-219.572 488.739,-209.577 479.759,-215.199 485.225,-219.572"/>
</g>
<!-- Node13 -->
<g id="node13" class="node"><title>Node13</title>
<g id="a_node13"><a xlink:href="DatabaseInterface_8h.html" target="_top" xlink:title="QualityControl/DatabaseInterface.h">
<polygon fill="none" stroke="black" points="594,-185 594,-204 764,-204 764,-185 594,-185"/>
<text text-anchor="middle" x="679" y="-192" font-family="Helvetica,sans-Serif" font-size="10.00">QualityControl/DatabaseInterface.h</text>
</a>
</g>
</g>
<!-- Node2&#45;&gt;Node13 -->
<g id="edge18" class="edge"><title>Node2&#45;&gt;Node13</title>
<path fill="none" stroke="midnightblue" d="M497.839,-246.476C540.055,-234.597 599.796,-217.787 638.957,-206.768"/>
<polygon fill="midnightblue" stroke="midnightblue" points="640.012,-210.107 648.69,-204.029 638.116,-203.368 640.012,-210.107"/>
</g>
<!-- Node6&#45;&gt;Node4 -->
<g id="edge7" class="edge"><title>Node6&#45;&gt;Node4</title>
<path fill="none" stroke="midnightblue" d="M214.726,-179.396C182.405,-167.789 137.087,-151.515 106.469,-140.519"/>
<polygon fill="midnightblue" stroke="midnightblue" points="107.283,-137.093 96.6887,-137.007 104.917,-143.681 107.283,-137.093"/>
</g>
<!-- Node6&#45;&gt;Node5 -->
<g id="edge8" class="edge"><title>Node6&#45;&gt;Node5</title>
<path fill="none" stroke="midnightblue" d="M284.812,-179.396C305.653,-169.856 333.382,-157.163 355.935,-146.84"/>
<polygon fill="midnightblue" stroke="midnightblue" points="357.612,-149.921 365.248,-142.577 354.699,-143.556 357.612,-149.921"/>
</g>
<!-- Node7 -->
<g id="node7" class="node"><title>Node7</title>
<polygon fill="none" stroke="#bfbfbf" points="500.5,-0.5 500.5,-19.5 541.5,-19.5 541.5,-0.5 500.5,-0.5"/>
<text text-anchor="middle" x="521" y="-7.5" font-family="Helvetica,sans-Serif" font-size="10.00">string</text>
</g>
<!-- Node6&#45;&gt;Node7 -->
<g id="edge6" class="edge"><title>Node6&#45;&gt;Node7</title>
<path fill="none" stroke="midnightblue" d="M227.858,-179.371C214.795,-170.757 200.256,-158.427 193,-143 176.267,-107.424 179.388,-81.8608 209,-56 250.475,-19.7793 419.533,-12.6968 489.967,-11.3242"/>
<polygon fill="midnightblue" stroke="midnightblue" points="490.45,-14.8167 500.39,-11.1494 490.333,-7.81769 490.45,-14.8167"/>
</g>
<!-- Node6&#45;&gt;Node8 -->
<g id="edge9" class="edge"><title>Node6&#45;&gt;Node8</title>
<path fill="none" stroke="midnightblue" d="M256.387,-179.396C257.983,-169.963 260.101,-157.448 261.837,-147.189"/>
<polygon fill="midnightblue" stroke="midnightblue" points="265.311,-147.638 263.529,-137.195 258.409,-146.47 265.311,-147.638"/>
</g>
<!-- Node8&#45;&gt;Node7 -->
<g id="edge10" class="edge"><title>Node8&#45;&gt;Node7</title>
<path fill="none" stroke="midnightblue" d="M284.242,-117.819C328.921,-97.6607 439.881,-47.5988 492.476,-23.8693"/>
<polygon fill="midnightblue" stroke="midnightblue" points="494.209,-26.9274 501.884,-19.6245 491.33,-20.5467 494.209,-26.9274"/>
</g>
<!-- Node9 -->
<g id="node9" class="node"><title>Node9</title>
<polygon fill="none" stroke="#bfbfbf" points="218.5,-56.5 218.5,-75.5 277.5,-75.5 277.5,-56.5 218.5,-56.5"/>
<text text-anchor="middle" x="248" y="-63.5" font-family="Helvetica,sans-Serif" font-size="10.00">functional</text>
</g>
<!-- Node8&#45;&gt;Node9 -->
<g id="edge11" class="edge"><title>Node8&#45;&gt;Node9</title>
<path fill="none" stroke="midnightblue" d="M262.564,-117.975C260.141,-109.492 256.344,-96.2043 253.235,-85.3222"/>
<polygon fill="midnightblue" stroke="midnightblue" points="256.544,-84.1628 250.431,-75.5091 249.813,-86.0859 256.544,-84.1628"/>
</g>
<!-- Node10 -->
<g id="node10" class="node"><title>Node10</title>
<polygon fill="none" stroke="#bfbfbf" points="295.5,-56.5 295.5,-75.5 340.5,-75.5 340.5,-56.5 295.5,-56.5"/>
<text text-anchor="middle" x="318" y="-63.5" font-family="Helvetica,sans-Serif" font-size="10.00">iosfwd</text>
</g>
<!-- Node8&#45;&gt;Node10 -->
<g id="edge12" class="edge"><title>Node8&#45;&gt;Node10</title>
<path fill="none" stroke="midnightblue" d="M272.594,-117.975C280.701,-108.873 293.735,-94.241 303.763,-82.983"/>
<polygon fill="midnightblue" stroke="midnightblue" points="306.383,-85.3043 310.42,-75.5091 301.156,-80.6483 306.383,-85.3043"/>
</g>
<!-- Node11&#45;&gt;Node5 -->
<g id="edge16" class="edge"><title>Node11&#45;&gt;Node5</title>
<path fill="none" stroke="midnightblue" d="M477.434,-179.396C462.715,-170.197 443.305,-158.066 427.127,-147.955"/>
<polygon fill="midnightblue" stroke="midnightblue" points="428.857,-144.909 418.522,-142.577 425.147,-150.845 428.857,-144.909"/>
</g>
<!-- Node11&#45;&gt;Node7 -->
<g id="edge15" class="edge"><title>Node11&#45;&gt;Node7</title>
<path fill="none" stroke="midnightblue" d="M497.871,-179.391C496.456,-169.285 494.73,-155.339 494,-143 493.186,-129.246 492.206,-125.66 494,-112 497.869,-82.543 507.829,-49.4633 514.509,-29.4367"/>
<polygon fill="midnightblue" stroke="midnightblue" points="517.894,-30.3542 517.823,-19.7596 511.272,-28.0862 517.894,-30.3542"/>
</g>
<!-- Node12 -->
<g id="node12" class="node"><title>Node12</title>
<polygon fill="none" stroke="#bfbfbf" points="503,-118 503,-137 547,-137 547,-118 503,-118"/>
<text text-anchor="middle" x="525" y="-125" font-family="Helvetica,sans-Serif" font-size="10.00">vector</text>
</g>
<!-- Node11&#45;&gt;Node12 -->
<g id="edge14" class="edge"><title>Node11&#45;&gt;Node12</title>
<path fill="none" stroke="midnightblue" d="M505.425,-179.396C509.13,-169.763 514.071,-156.914 518.063,-146.537"/>
<polygon fill="midnightblue" stroke="midnightblue" points="521.333,-147.784 521.656,-137.195 514.799,-145.272 521.333,-147.784"/>
</g>
<!-- Node13&#45;&gt;Node3 -->
<g id="edge20" class="edge"><title>Node13&#45;&gt;Node3</title>
<path fill="none" stroke="midnightblue" d="M736.84,-184.988C750.346,-183.012 764.676,-180.924 778,-179 890.412,-162.77 921.302,-172.431 1031,-143 1033.51,-142.328 1036.07,-141.53 1038.62,-140.659"/>
<polygon fill="midnightblue" stroke="midnightblue" points="1040.1,-143.842 1048.24,-137.053 1037.64,-137.288 1040.1,-143.842"/>
</g>
<!-- Node13&#45;&gt;Node7 -->
<g id="edge19" class="edge"><title>Node13&#45;&gt;Node7</title>
<path fill="none" stroke="midnightblue" d="M658.034,-184.876C639.422,-176.398 612.4,-161.978 594,-143 560.849,-108.808 537.958,-56.581 527.48,-29.198"/>
<polygon fill="midnightblue" stroke="midnightblue" points="530.721,-27.871 523.969,-19.7068 524.156,-30.3 530.721,-27.871"/>
</g>
<!-- Node13&#45;&gt;Node12 -->
<g id="edge21" class="edge"><title>Node13&#45;&gt;Node12</title>
<path fill="none" stroke="midnightblue" d="M658.55,-184.869C631.972,-173.65 585.36,-153.977 554.834,-141.092"/>
<polygon fill="midnightblue" stroke="midnightblue" points="556.109,-137.831 545.535,-137.167 553.387,-144.28 556.109,-137.831"/>
</g>
<!-- Node14 -->
<g id="node14" class="node"><title>Node14</title>
<polygon fill="none" stroke="#bfbfbf" points="939.5,-118 939.5,-137 1022.5,-137 1022.5,-118 939.5,-118"/>
<text text-anchor="middle" x="981" y="-125" font-family="Helvetica,sans-Serif" font-size="10.00">unordered_map</text>
</g>
<!-- Node13&#45;&gt;Node14 -->
<g id="edge22" class="edge"><title>Node13&#45;&gt;Node14</title>
<path fill="none" stroke="midnightblue" d="M727.366,-184.934C778.093,-175.678 860.018,-159.961 930,-143 934.126,-142 938.421,-140.89 942.69,-139.741"/>
<polygon fill="midnightblue" stroke="midnightblue" points="943.807,-143.064 952.513,-137.026 941.941,-136.317 943.807,-143.064"/>
</g>
<!-- Node15 -->
<g id="node15" class="node"><title>Node15</title>
<g id="a_node15"><a xlink:href="QualityObject_8h_source.html" target="_top" xlink:title="QualityControl/QualityObject.h">
<polygon fill="none" stroke="black" points="772.5,-118 772.5,-137 921.5,-137 921.5,-118 772.5,-118"/>
<text text-anchor="middle" x="847" y="-125" font-family="Helvetica,sans-Serif" font-size="10.00">QualityControl/QualityObject.h</text>
</a>
</g>
</g>
<!-- Node13&#45;&gt;Node15 -->
<g id="edge23" class="edge"><title>Node13&#45;&gt;Node15</title>
<path fill="none" stroke="midnightblue" d="M701.309,-184.869C730.51,-173.571 781.878,-153.696 815.162,-140.818"/>
<polygon fill="midnightblue" stroke="midnightblue" points="816.803,-143.936 824.866,-137.064 814.277,-137.408 816.803,-143.936"/>
</g>
<!-- Node21 -->
<g id="node21" class="node"><title>Node21</title>
<g id="a_node21"><a xlink:href="MonitorObject_8h.html" target="_top" xlink:title="QualityControl/MonitorObject.h">
<polygon fill="none" stroke="black" points="603.5,-118 603.5,-137 754.5,-137 754.5,-118 603.5,-118"/>
<text text-anchor="middle" x="679" y="-125" font-family="Helvetica,sans-Serif" font-size="10.00">QualityControl/MonitorObject.h</text>
</a>
</g>
</g>
<!-- Node13&#45;&gt;Node21 -->
<g id="edge31" class="edge"><title>Node13&#45;&gt;Node21</title>
<path fill="none" stroke="midnightblue" d="M679,-184.734C679,-175.183 679,-159.618 679,-147.283"/>
<polygon fill="midnightblue" stroke="midnightblue" points="682.5,-147.127 679,-137.127 675.5,-147.127 682.5,-147.127"/>
</g>
<!-- Node16 -->
<g id="node16" class="node"><title>Node16</title>
<polygon fill="none" stroke="#bfbfbf" points="964.5,-0.5 964.5,-19.5 999.5,-19.5 999.5,-0.5 964.5,-0.5"/>
<text text-anchor="middle" x="982" y="-7.5" font-family="Helvetica,sans-Serif" font-size="10.00">map</text>
</g>
<!-- Node15&#45;&gt;Node16 -->
<g id="edge24" class="edge"><title>Node15&#45;&gt;Node16</title>
<path fill="none" stroke="midnightblue" d="M894.36,-117.936C951.531,-107.12 1041.27,-88.4267 1051,-76 1067.55,-54.8548 1034.98,-34.2602 1009.17,-22.1034"/>
<polygon fill="midnightblue" stroke="midnightblue" points="1010.29,-18.7682 999.733,-17.8737 1007.43,-25.1564 1010.29,-18.7682"/>
</g>
<!-- Node17 -->
<g id="node17" class="node"><title>Node17</title>
<polygon fill="none" stroke="#bfbfbf" points="709.5,-56.5 709.5,-75.5 768.5,-75.5 768.5,-56.5 709.5,-56.5"/>
<text text-anchor="middle" x="739" y="-63.5" font-family="Helvetica,sans-Serif" font-size="10.00">TObject.h</text>
</g>
<!-- Node15&#45;&gt;Node17 -->
<g id="edge25" class="edge"><title>Node15&#45;&gt;Node17</title>
<path fill="none" stroke="midnightblue" d="M831.526,-117.975C813.722,-108.166 784.259,-91.9346 763.368,-80.425"/>
<polygon fill="midnightblue" stroke="midnightblue" points="764.893,-77.269 754.445,-75.5091 761.515,-83.4001 764.893,-77.269"/>
</g>
<!-- Node18 -->
<g id="node18" class="node"><title>Node18</title>
<polygon fill="none" stroke="#bfbfbf" points="787,-56.5 787,-75.5 903,-75.5 903,-56.5 787,-56.5"/>
<text text-anchor="middle" x="845" y="-63.5" font-family="Helvetica,sans-Serif" font-size="10.00">Common/Exceptions.h</text>
</g>
<!-- Node15&#45;&gt;Node18 -->
<g id="edge26" class="edge"><title>Node15&#45;&gt;Node18</title>
<path fill="none" stroke="midnightblue" d="M846.713,-117.975C846.431,-109.58 845.991,-96.4806 845.627,-85.6631"/>
<polygon fill="midnightblue" stroke="midnightblue" points="849.12,-85.3858 845.286,-75.5091 842.124,-85.6211 849.12,-85.3858"/>
</g>
<!-- Node19 -->
<g id="node19" class="node"><title>Node19</title>
<g id="a_node19"><a xlink:href="Quality_8h.html" target="_top" xlink:title="QualityControl/Quality.h">
<polygon fill="none" stroke="black" points="921.5,-56.5 921.5,-75.5 1042.5,-75.5 1042.5,-56.5 921.5,-56.5"/>
<text text-anchor="middle" x="982" y="-63.5" font-family="Helvetica,sans-Serif" font-size="10.00">QualityControl/Quality.h</text>
</a>
</g>
</g>
<!-- Node15&#45;&gt;Node19 -->
<g id="edge27" class="edge"><title>Node15&#45;&gt;Node19</title>
<path fill="none" stroke="midnightblue" d="M866.342,-117.975C889.099,-107.945 927.092,-91.2002 953.288,-79.6546"/>
<polygon fill="midnightblue" stroke="midnightblue" points="954.955,-82.7449 962.694,-75.5091 952.131,-76.3395 954.955,-82.7449"/>
</g>
<!-- Node19&#45;&gt;Node7 -->
<g id="edge29" class="edge"><title>Node19&#45;&gt;Node7</title>
<path fill="none" stroke="midnightblue" d="M921.3,-57.1456C918.155,-56.7544 915.041,-56.3704 912,-56 778.035,-39.6797 618.049,-21.757 551.931,-14.4185"/>
<polygon fill="midnightblue" stroke="midnightblue" points="552.107,-10.9166 541.782,-13.2934 551.335,-17.874 552.107,-10.9166"/>
</g>
<!-- Node19&#45;&gt;Node16 -->
<g id="edge30" class="edge"><title>Node19&#45;&gt;Node16</title>
<path fill="none" stroke="midnightblue" d="M982,-56.083C982,-49.0059 982,-38.8611 982,-29.9865"/>
<polygon fill="midnightblue" stroke="midnightblue" points="985.5,-29.751 982,-19.7511 978.5,-29.7511 985.5,-29.751"/>
</g>
<!-- Node20 -->
<g id="node20" class="node"><title>Node20</title>
<polygon fill="none" stroke="#bfbfbf" points="752,-0.5 752,-19.5 808,-19.5 808,-0.5 752,-0.5"/>
<text text-anchor="middle" x="780" y="-7.5" font-family="Helvetica,sans-Serif" font-size="10.00">Rtypes.h</text>
</g>
<!-- Node19&#45;&gt;Node20 -->
<g id="edge28" class="edge"><title>Node19&#45;&gt;Node20</title>
<path fill="none" stroke="midnightblue" d="M949.992,-56.4435C914.148,-46.8613 856.096,-31.3424 817.982,-21.1537"/>
<polygon fill="midnightblue" stroke="midnightblue" points="818.837,-17.7594 808.272,-18.558 817.029,-24.5219 818.837,-17.7594"/>
</g>
<!-- Node21&#45;&gt;Node7 -->
<g id="edge32" class="edge"><title>Node21&#45;&gt;Node7</title>
<path fill="none" stroke="midnightblue" d="M667.124,-117.819C640.245,-98.1698 574.499,-50.1087 541.132,-25.7169"/>
<polygon fill="midnightblue" stroke="midnightblue" points="543.152,-22.858 533.013,-19.782 539.021,-28.509 543.152,-22.858"/>
</g>
<!-- Node21&#45;&gt;Node16 -->
<g id="edge33" class="edge"><title>Node21&#45;&gt;Node16</title>
<path fill="none" stroke="midnightblue" d="M678.836,-117.57C679.083,-102.429 681.946,-71.8273 700,-56 737.532,-23.097 890.477,-14.1141 954.066,-11.7783"/>
<polygon fill="midnightblue" stroke="midnightblue" points="954.289,-15.2728 964.165,-11.4363 954.052,-8.27682 954.289,-15.2728"/>
</g>
<!-- Node21&#45;&gt;Node17 -->
<g id="edge35" class="edge"><title>Node21&#45;&gt;Node17</title>
<path fill="none" stroke="midnightblue" d="M687.597,-117.975C696.864,-108.785 711.817,-93.9563 723.212,-82.656"/>
<polygon fill="midnightblue" stroke="midnightblue" points="725.783,-85.0358 730.419,-75.5091 720.854,-80.0653 725.783,-85.0358"/>
</g>
<!-- Node21&#45;&gt;Node18 -->
<g id="edge36" class="edge"><title>Node21&#45;&gt;Node18</title>
<path fill="none" stroke="midnightblue" d="M702.784,-117.975C731.382,-107.725 779.551,-90.4593 811.802,-78.8994"/>
<polygon fill="midnightblue" stroke="midnightblue" points="813.028,-82.178 821.26,-75.5091 810.666,-75.5885 813.028,-82.178"/>
</g>
<!-- Node21&#45;&gt;Node20 -->
<g id="edge34" class="edge"><title>Node21&#45;&gt;Node20</title>
<path fill="none" stroke="midnightblue" d="M673.892,-117.856C666.247,-103.669 654.039,-75.1127 667,-56 683.688,-31.3912 716.205,-20.2396 742.089,-15.1864"/>
<polygon fill="midnightblue" stroke="midnightblue" points="742.734,-18.627 751.994,-13.4792 741.544,-11.7287 742.734,-18.627"/>
</g>
<!-- Node23 -->
<g id="node23" class="node"><title>Node23</title>
<polygon fill="none" stroke="#bfbfbf" points="820,-185 820,-204 950,-204 950,-185 820,-185"/>
<text text-anchor="middle" x="885" y="-192" font-family="Helvetica,sans-Serif" font-size="10.00">InfoLogger/InfoLogger.hxx</text>
</g>
<!-- Node22&#45;&gt;Node23 -->
<g id="edge38" class="edge"><title>Node22&#45;&gt;Node23</title>
<path fill="none" stroke="midnightblue" d="M790.7,-251.734C808.923,-240.867 840.199,-222.216 861.702,-209.393"/>
<polygon fill="midnightblue" stroke="midnightblue" points="863.736,-212.255 870.533,-204.127 860.151,-206.243 863.736,-212.255"/>
</g>
</g>
</svg>
