<?xml version="1.0" encoding="UTF-8" standalone="no"?>
<!DOCTYPE svg PUBLIC "-//W3C//DTD SVG 1.1//EN"
 "http://www.w3.org/Graphics/SVG/1.1/DTD/svg11.dtd">
<!-- Generated by graphviz version 2.38.0 (20140413.2041)
 -->
<!-- Title: Framework/src/runQC.cxx Pages: 1 -->
<svg width="776pt" height="151pt"
 viewBox="0.00 0.00 776.00 151.00" xmlns="http://www.w3.org/2000/svg" xmlns:xlink="http://www.w3.org/1999/xlink">
<g id="graph0" class="graph" transform="scale(1 1) rotate(0) translate(4 147)">
<title>Framework/src/runQC.cxx</title>
<!-- Node1 -->
<g id="node1" class="node"><title>Node1</title>
<polygon fill="#bfbfbf" stroke="black" points="286,-123.5 286,-142.5 418,-142.5 418,-123.5 286,-123.5"/>
<text text-anchor="middle" x="352" y="-130.5" font-family="Helvetica,sans-Serif" font-size="10.00">Framework/src/runQC.cxx</text>
</g>
<!-- Node2 -->
<g id="node2" class="node"><title>Node2</title>
<polygon fill="none" stroke="#bfbfbf" points="0,-56.5 0,-86.5 94,-86.5 94,-56.5 0,-56.5"/>
<text text-anchor="start" x="8" y="-74.5" font-family="Helvetica,sans-Serif" font-size="10.00">boost/asio/ip/host</text>
<text text-anchor="middle" x="47" y="-63.5" font-family="Helvetica,sans-Serif" font-size="10.00">_name.hpp</text>
</g>
<!-- Node1&#45;&gt;Node2 -->
<g id="edge1" class="edge"><title>Node1&#45;&gt;Node2</title>
<path fill="none" stroke="midnightblue" d="M299.056,-123.491C248.7,-115.138 170.916,-101.564 104,-87 103.9,-86.9783 103.8,-86.9565 103.7,-86.9347"/>
<polygon fill="midnightblue" stroke="midnightblue" points="104.744,-83.5827 94.2174,-84.7809 103.194,-90.4089 104.744,-83.5827"/>
</g>
<!-- Node3 -->
<g id="node3" class="node"><title>Node3</title>
<polygon fill="none" stroke="#bfbfbf" points="112.5,-62 112.5,-81 263.5,-81 263.5,-62 112.5,-62"/>
<text text-anchor="middle" x="188" y="-69" font-family="Helvetica,sans-Serif" font-size="10.00">DataSampling/DataSampling.h</text>
</g>
<!-- Node1&#45;&gt;Node3 -->
<g id="edge2" class="edge"><title>Node1&#45;&gt;Node3</title>
<path fill="none" stroke="midnightblue" d="M328.503,-123.475C300.371,-113.269 253.071,-96.108 221.211,-84.5492"/>
<polygon fill="midnightblue" stroke="midnightblue" points="222.048,-81.1295 211.454,-81.0091 219.66,-87.7098 222.048,-81.1295"/>
</g>
<!-- Node4 -->
<g id="node4" class="node"><title>Node4</title>
<g id="a_node4"><a xlink:href="InfrastructureGenerator_8h.html" target="_top" xlink:title="QualityControl/Infrastructure\lGenerator.h">
<polygon fill="none" stroke="black" points="282,-56.5 282,-86.5 422,-86.5 422,-56.5 282,-56.5"/>
<text text-anchor="start" x="290" y="-74.5" font-family="Helvetica,sans-Serif" font-size="10.00">QualityControl/Infrastructure</text>
<text text-anchor="middle" x="352" y="-63.5" font-family="Helvetica,sans-Serif" font-size="10.00">Generator.h</text>
</a>
</g>
</g>
<!-- Node1&#45;&gt;Node4 -->
<g id="edge3" class="edge"><title>Node1&#45;&gt;Node4</title>
<path fill="none" stroke="midnightblue" d="M352,-123.475C352,-116.471 352,-106.192 352,-96.6956"/>
<polygon fill="midnightblue" stroke="midnightblue" points="355.5,-96.5229 352,-86.523 348.5,-96.523 355.5,-96.5229"/>
</g>
<!-- Node9 -->
<g id="node9" class="node"><title>Node9</title>
<g id="a_node9"><a xlink:href="QcInfoLogger_8h.html" target="_top" xlink:title="QualityControl/QcInfoLogger.h">
<polygon fill="none" stroke="black" points="440.5,-62 440.5,-81 589.5,-81 589.5,-62 440.5,-62"/>
<text text-anchor="middle" x="515" y="-69" font-family="Helvetica,sans-Serif" font-size="10.00">QualityControl/QcInfoLogger.h</text>
</a>
</g>
</g>
<!-- Node1&#45;&gt;Node9 -->
<g id="edge8" class="edge"><title>Node1&#45;&gt;Node9</title>
<path fill="none" stroke="midnightblue" d="M375.354,-123.475C403.314,-113.269 450.326,-96.108 481.991,-84.5492"/>
<polygon fill="midnightblue" stroke="midnightblue" points="483.496,-87.7259 491.689,-81.0091 481.095,-81.1503 483.496,-87.7259"/>
</g>
<!-- Node11 -->
<g id="node11" class="node"><title>Node11</title>
<polygon fill="none" stroke="#bfbfbf" points="608,-62 608,-81 768,-81 768,-62 608,-62"/>
<text text-anchor="middle" x="688" y="-69" font-family="Helvetica,sans-Serif" font-size="10.00">Framework/runDataProcessing.h</text>
</g>
<!-- Node1&#45;&gt;Node11 -->
<g id="edge10" class="edge"><title>Node1&#45;&gt;Node11</title>
<path fill="none" stroke="midnightblue" d="M400.141,-123.475C460.771,-112.739 564.859,-94.3063 629.864,-82.7949"/>
<polygon fill="midnightblue" stroke="midnightblue" points="630.712,-86.1993 639.949,-81.0091 629.492,-79.3065 630.712,-86.1993"/>
</g>
<!-- Node5 -->
<g id="node5" class="node"><title>Node5</title>
<polygon fill="none" stroke="#bfbfbf" points="160,-0.5 160,-19.5 204,-19.5 204,-0.5 160,-0.5"/>
<text text-anchor="middle" x="182" y="-7.5" font-family="Helvetica,sans-Serif" font-size="10.00">vector</text>
</g>
<!-- Node4&#45;&gt;Node5 -->
<g id="edge4" class="edge"><title>Node4&#45;&gt;Node5</title>
<path fill="none" stroke="midnightblue" d="M311.712,-56.3993C281.805,-45.9319 241.575,-31.8512 213.889,-22.161"/>
<polygon fill="midnightblue" stroke="midnightblue" points="214.893,-18.8044 204.298,-18.8044 212.581,-25.4115 214.893,-18.8044"/>
</g>
<!-- Node6 -->
<g id="node6" class="node"><title>Node6</title>
<polygon fill="none" stroke="#bfbfbf" points="222.5,-0.5 222.5,-19.5 263.5,-19.5 263.5,-0.5 222.5,-0.5"/>
<text text-anchor="middle" x="243" y="-7.5" font-family="Helvetica,sans-Serif" font-size="10.00">string</text>
</g>
<!-- Node4&#45;&gt;Node6 -->
<g id="edge5" class="edge"><title>Node4&#45;&gt;Node6</title>
<path fill="none" stroke="midnightblue" d="M326.169,-56.3993C308.533,-46.7728 285.3,-34.0902 267.872,-24.5772"/>
<polygon fill="midnightblue" stroke="midnightblue" points="269.315,-21.3771 258.86,-19.6578 265.961,-27.5213 269.315,-21.3771"/>
</g>
<!-- Node7 -->
<g id="node7" class="node"><title>Node7</title>
<polygon fill="none" stroke="#bfbfbf" points="282,-0.5 282,-19.5 422,-19.5 422,-0.5 282,-0.5"/>
<text text-anchor="middle" x="352" y="-7.5" font-family="Helvetica,sans-Serif" font-size="10.00">Framework/WorkflowSpec.h</text>
</g>
<!-- Node4&#45;&gt;Node7 -->
<g id="edge6" class="edge"><title>Node4&#45;&gt;Node7</title>
<path fill="none" stroke="midnightblue" d="M352,-56.3993C352,-48.4664 352,-38.458 352,-29.8583"/>
<polygon fill="midnightblue" stroke="midnightblue" points="355.5,-29.6577 352,-19.6578 348.5,-29.6578 355.5,-29.6577"/>
</g>
<!-- Node8 -->
<g id="node8" class="node"><title>Node8</title>
<polygon fill="none" stroke="#bfbfbf" points="440,-0.5 440,-19.5 604,-19.5 604,-0.5 440,-0.5"/>
<text text-anchor="middle" x="522" y="-7.5" font-family="Helvetica,sans-Serif" font-size="10.00">Framework/DataProcessorSpec.h</text>
</g>
<!-- Node4&#45;&gt;Node8 -->
<g id="edge7" class="edge"><title>Node4&#45;&gt;Node8</title>
<path fill="none" stroke="midnightblue" d="M392.288,-56.3993C421.32,-46.238 460.081,-32.6716 487.651,-23.0221"/>
<polygon fill="midnightblue" stroke="midnightblue" points="488.981,-26.2649 497.263,-19.6578 486.669,-19.6578 488.981,-26.2649"/>
</g>
<!-- Node10 -->
<g id="node10" class="node"><title>Node10</title>
<polygon fill="none" stroke="#bfbfbf" points="622,-0.5 622,-19.5 752,-19.5 752,-0.5 622,-0.5"/>
<text text-anchor="middle" x="687" y="-7.5" font-family="Helvetica,sans-Serif" font-size="10.00">InfoLogger/InfoLogger.hxx</text>
</g>
<!-- Node9&#45;&gt;Node10 -->
<g id="edge9" class="edge"><title>Node9&#45;&gt;Node10</title>
<path fill="none" stroke="midnightblue" d="M539.643,-61.9751C569.275,-51.7246 619.185,-34.4593 652.602,-22.8994"/>
<polygon fill="midnightblue" stroke="midnightblue" points="654.096,-26.0861 662.402,-19.5091 651.808,-19.4707 654.096,-26.0861"/>
</g>
</g>
</svg>
