<?xml version="1.0" encoding="UTF-8" standalone="no"?>
<!DOCTYPE svg PUBLIC "-//W3C//DTD SVG 1.1//EN"
 "http://www.w3.org/Graphics/SVG/1.1/DTD/svg11.dtd">
<!-- Generated by graphviz version 2.38.0 (20140413.2041)
 -->
<!-- Title: Framework/src/runReadoutForDataDump.cxx Pages: 1 -->
<svg width="725pt" height="162pt"
 viewBox="0.00 0.00 725.00 162.00" xmlns="http://www.w3.org/2000/svg" xmlns:xlink="http://www.w3.org/1999/xlink">
<g id="graph0" class="graph" transform="scale(1 1) rotate(0) translate(4 158)">
<title>Framework/src/runReadoutForDataDump.cxx</title>
<!-- Node1 -->
<g id="node1" class="node"><title>Node1</title>
<polygon fill="#bfbfbf" stroke="black" points="343,-123.5 343,-153.5 478,-153.5 478,-123.5 343,-123.5"/>
<text text-anchor="start" x="351" y="-141.5" font-family="Helvetica,sans-Serif" font-size="10.00">Framework/src/runReadout</text>
<text text-anchor="middle" x="410.5" y="-130.5" font-family="Helvetica,sans-Serif" font-size="10.00">ForDataDump.cxx</text>
</g>
<!-- Node2 -->
<g id="node2" class="node"><title>Node2</title>
<polygon fill="none" stroke="#bfbfbf" points="0,-62 0,-81 151,-81 151,-62 0,-62"/>
<text text-anchor="middle" x="75.5" y="-69" font-family="Helvetica,sans-Serif" font-size="10.00">DataSampling/DataSampling.h</text>
</g>
<!-- Node1&#45;&gt;Node2 -->
<g id="edge1" class="edge"><title>Node1&#45;&gt;Node2</title>
<path fill="none" stroke="midnightblue" d="M342.708,-124.346C279.943,-112.168 187.811,-94.2917 129.776,-83.0311"/>
<polygon fill="midnightblue" stroke="midnightblue" points="130.188,-79.5459 119.705,-81.077 128.855,-86.4178 130.188,-79.5459"/>
</g>
<!-- Node3 -->
<g id="node3" class="node"><title>Node3</title>
<polygon fill="none" stroke="#bfbfbf" points="169,-56.5 169,-86.5 312,-86.5 312,-56.5 169,-56.5"/>
<text text-anchor="start" x="177" y="-74.5" font-family="Helvetica,sans-Serif" font-size="10.00">DataSampling/DataSampling</text>
<text text-anchor="middle" x="240.5" y="-63.5" font-family="Helvetica,sans-Serif" font-size="10.00">ReadoutAdapter.h</text>
</g>
<!-- Node1&#45;&gt;Node3 -->
<g id="edge2" class="edge"><title>Node1&#45;&gt;Node3</title>
<path fill="none" stroke="midnightblue" d="M373.613,-123.396C348.105,-113.643 313.979,-100.595 286.667,-90.152"/>
<polygon fill="midnightblue" stroke="midnightblue" points="287.906,-86.8788 277.315,-86.5765 285.406,-93.4171 287.906,-86.8788"/>
</g>
<!-- Node4 -->
<g id="node4" class="node"><title>Node4</title>
<polygon fill="none" stroke="#bfbfbf" points="330.5,-62 330.5,-81 490.5,-81 490.5,-62 330.5,-62"/>
<text text-anchor="middle" x="410.5" y="-69" font-family="Helvetica,sans-Serif" font-size="10.00">Framework/runDataProcessing.h</text>
</g>
<!-- Node1&#45;&gt;Node4 -->
<g id="edge3" class="edge"><title>Node1&#45;&gt;Node4</title>
<path fill="none" stroke="midnightblue" d="M410.5,-123.396C410.5,-114.064 410.5,-101.714 410.5,-91.5173"/>
<polygon fill="midnightblue" stroke="midnightblue" points="414,-91.1945 410.5,-81.1945 407,-91.1946 414,-91.1945"/>
</g>
<!-- Node5 -->
<g id="node5" class="node"><title>Node5</title>
<g id="a_node5"><a xlink:href="QcInfoLogger_8h.html" target="_top" xlink:title="QualityControl/QcInfoLogger.h">
<polygon fill="none" stroke="black" points="509,-62 509,-81 658,-81 658,-62 509,-62"/>
<text text-anchor="middle" x="583.5" y="-69" font-family="Helvetica,sans-Serif" font-size="10.00">QualityControl/QcInfoLogger.h</text>
</a>
</g>
</g>
<!-- Node1&#45;&gt;Node5 -->
<g id="edge4" class="edge"><title>Node1&#45;&gt;Node5</title>
<path fill="none" stroke="midnightblue" d="M448.038,-123.396C478.796,-111.84 521.869,-95.6562 551.128,-84.6629"/>
<polygon fill="midnightblue" stroke="midnightblue" points="552.728,-87.8006 560.858,-81.007 550.266,-81.2479 552.728,-87.8006"/>
</g>
<!-- Node7 -->
<g id="node7" class="node"><title>Node7</title>
<polygon fill="none" stroke="#bfbfbf" points="676,-62 676,-81 717,-81 717,-62 676,-62"/>
<text text-anchor="middle" x="696.5" y="-69" font-family="Helvetica,sans-Serif" font-size="10.00">string</text>
</g>
<!-- Node1&#45;&gt;Node7 -->
<g id="edge6" class="edge"><title>Node1&#45;&gt;Node7</title>
<path fill="none" stroke="midnightblue" d="M478.085,-129.299C530.682,-121.712 604.992,-108.329 667.5,-87 668.932,-86.5115 670.382,-85.9657 671.832,-85.3801"/>
<polygon fill="midnightblue" stroke="midnightblue" points="673.531,-88.4525 681.181,-81.1221 670.629,-82.0822 673.531,-88.4525"/>
</g>
<!-- Node6 -->
<g id="node6" class="node"><title>Node6</title>
<polygon fill="none" stroke="#bfbfbf" points="518.5,-0.5 518.5,-19.5 648.5,-19.5 648.5,-0.5 518.5,-0.5"/>
<text text-anchor="middle" x="583.5" y="-7.5" font-family="Helvetica,sans-Serif" font-size="10.00">InfoLogger/InfoLogger.hxx</text>
</g>
<!-- Node5&#45;&gt;Node6 -->
<g id="edge5" class="edge"><title>Node5&#45;&gt;Node6</title>
<path fill="none" stroke="midnightblue" d="M583.5,-61.9751C583.5,-53.5803 583.5,-40.4806 583.5,-29.6631"/>
<polygon fill="midnightblue" stroke="midnightblue" points="587,-29.5091 583.5,-19.5091 580,-29.5091 587,-29.5091"/>
</g>
</g>
</svg>
