<?xml version="1.0" encoding="UTF-8" standalone="no"?>
<!DOCTYPE svg PUBLIC "-//W3C//DTD SVG 1.1//EN"
 "http://www.w3.org/Graphics/SVG/1.1/DTD/svg11.dtd">
<!-- Generated by graphviz version 2.38.0 (20140413.2041)
 -->
<!-- Title: Modules/Skeleton/include/Skeleton/SkeletonPostProcessing.h Pages: 1 -->
<svg width="431pt" height="229pt"
 viewBox="0.00 0.00 431.48 229.00" xmlns="http://www.w3.org/2000/svg" xmlns:xlink="http://www.w3.org/1999/xlink">
<g id="graph0" class="graph" transform="scale(1 1) rotate(0) translate(4 225)">
<title>Modules/Skeleton/include/Skeleton/SkeletonPostProcessing.h</title>
<!-- Node1 -->
<g id="node1" class="node"><title>Node1</title>
<polygon fill="#bfbfbf" stroke="black" points="70.9822,-190.5 70.9822,-220.5 246.982,-220.5 246.982,-190.5 70.9822,-190.5"/>
<text text-anchor="start" x="78.9822" y="-208.5" font-family="Helvetica,sans-Serif" font-size="10.00">Modules/Skeleton/include</text>
<text text-anchor="middle" x="158.982" y="-197.5" font-family="Helvetica,sans-Serif" font-size="10.00">/Skeleton/SkeletonPostProcessing.h</text>
</g>
<!-- Node2 -->
<g id="node2" class="node"><title>Node2</title>
<g id="a_node2"><a xlink:href="PostProcessingInterface_8h.html" target="_top" xlink:title="QualityControl/PostProcessing\lInterface.h">
<polygon fill="none" stroke="black" points="83.4822,-123.5 83.4822,-153.5 234.482,-153.5 234.482,-123.5 83.4822,-123.5"/>
<text text-anchor="start" x="91.4822" y="-141.5" font-family="Helvetica,sans-Serif" font-size="10.00">QualityControl/PostProcessing</text>
<text text-anchor="middle" x="158.982" y="-130.5" font-family="Helvetica,sans-Serif" font-size="10.00">Interface.h</text>
</a>
</g>
</g>
<!-- Node1&#45;&gt;Node2 -->
<g id="edge1" class="edge"><title>Node1&#45;&gt;Node2</title>
<path fill="none" stroke="midnightblue" d="M158.982,-190.396C158.982,-182.645 158.982,-172.812 158.982,-163.86"/>
<polygon fill="midnightblue" stroke="midnightblue" points="162.482,-163.576 158.982,-153.577 155.482,-163.577 162.482,-163.576"/>
</g>
<!-- Node3 -->
<g id="node3" class="node"><title>Node3</title>
<polygon fill="none" stroke="#bfbfbf" points="101.482,-0.5 101.482,-19.5 142.482,-19.5 142.482,-0.5 101.482,-0.5"/>
<text text-anchor="middle" x="121.982" y="-7.5" font-family="Helvetica,sans-Serif" font-size="10.00">string</text>
</g>
<!-- Node2&#45;&gt;Node3 -->
<g id="edge2" class="edge"><title>Node2&#45;&gt;Node3</title>
<path fill="none" stroke="midnightblue" d="M83.2447,-131.11C54.2351,-124.531 23.8461,-111.708 5.98215,-87 -2.0903,-75.8348 -1.80156,-67.3684 5.98215,-56 24.9433,-28.3064 63.6189,-17.6526 91.0935,-13.556"/>
<polygon fill="midnightblue" stroke="midnightblue" points="91.8928,-16.9825 101.37,-12.2467 91.0081,-10.0386 91.8928,-16.9825"/>
</g>
<!-- Node4 -->
<g id="node4" class="node"><title>Node4</title>
<polygon fill="none" stroke="#bfbfbf" points="14.9822,-62 14.9822,-81 160.982,-81 160.982,-62 14.9822,-62"/>
<text text-anchor="middle" x="87.9822" y="-69" font-family="Helvetica,sans-Serif" font-size="10.00">Framework/ServiceRegistry.h</text>
</g>
<!-- Node2&#45;&gt;Node4 -->
<g id="edge3" class="edge"><title>Node2&#45;&gt;Node4</title>
<path fill="none" stroke="midnightblue" d="M143.576,-123.396C132.177,-112.96 116.656,-98.7507 104.911,-87.9978"/>
<polygon fill="midnightblue" stroke="midnightblue" points="107.219,-85.3655 97.4793,-81.1945 102.492,-90.5287 107.219,-85.3655"/>
</g>
<!-- Node5 -->
<g id="node5" class="node"><title>Node5</title>
<polygon fill="none" stroke="#bfbfbf" points="179.482,-56.5 179.482,-86.5 280.482,-86.5 280.482,-56.5 179.482,-56.5"/>
<text text-anchor="start" x="187.482" y="-74.5" font-family="Helvetica,sans-Serif" font-size="10.00">boost/property_tree</text>
<text text-anchor="middle" x="229.982" y="-63.5" font-family="Helvetica,sans-Serif" font-size="10.00">/ptree_fwd.hpp</text>
</g>
<!-- Node2&#45;&gt;Node5 -->
<g id="edge4" class="edge"><title>Node2&#45;&gt;Node5</title>
<path fill="none" stroke="midnightblue" d="M174.388,-123.396C183.971,-114.623 196.467,-103.183 207.184,-93.3714"/>
<polygon fill="midnightblue" stroke="midnightblue" points="209.594,-95.9106 214.606,-86.5765 204.867,-90.7475 209.594,-95.9106"/>
</g>
<!-- Node6 -->
<g id="node6" class="node"><title>Node6</title>
<g id="a_node6"><a xlink:href="Triggers_8h.html" target="_top" xlink:title="QualityControl/Triggers.h">
<polygon fill="none" stroke="black" points="298.482,-62 298.482,-81 423.482,-81 423.482,-62 298.482,-62"/>
<text text-anchor="middle" x="360.982" y="-69" font-family="Helvetica,sans-Serif" font-size="10.00">QualityControl/Triggers.h</text>
</a>
</g>
</g>
<!-- Node2&#45;&gt;Node6 -->
<g id="edge5" class="edge"><title>Node2&#45;&gt;Node6</title>
<path fill="none" stroke="midnightblue" d="M202.813,-123.396C239.354,-111.638 290.781,-95.0894 324.959,-84.0916"/>
<polygon fill="midnightblue" stroke="midnightblue" points="326.098,-87.402 334.545,-81.007 323.954,-80.7385 326.098,-87.402"/>
</g>
<!-- Node6&#45;&gt;Node3 -->
<g id="edge6" class="edge"><title>Node6&#45;&gt;Node3</title>
<path fill="none" stroke="midnightblue" d="M326.739,-61.9751C280.137,-50.3732 197.438,-29.7851 152.727,-18.6541"/>
<polygon fill="midnightblue" stroke="midnightblue" points="153.294,-15.1884 142.744,-16.1689 151.603,-21.9811 153.294,-15.1884"/>
</g>
<!-- Node7 -->
<g id="node7" class="node"><title>Node7</title>
<polygon fill="none" stroke="#bfbfbf" points="296.482,-0.5 296.482,-19.5 355.482,-19.5 355.482,-0.5 296.482,-0.5"/>
<text text-anchor="middle" x="325.982" y="-7.5" font-family="Helvetica,sans-Serif" font-size="10.00">functional</text>
</g>
<!-- Node6&#45;&gt;Node7 -->
<g id="edge7" class="edge"><title>Node6&#45;&gt;Node7</title>
<path fill="none" stroke="midnightblue" d="M355.968,-61.9751C350.821,-53.2268 342.67,-39.3691 336.164,-28.3093"/>
<polygon fill="midnightblue" stroke="midnightblue" points="339.075,-26.3539 330.987,-19.5091 333.041,-29.903 339.075,-26.3539"/>
</g>
<!-- Node8 -->
<g id="node8" class="node"><title>Node8</title>
<polygon fill="none" stroke="#bfbfbf" points="373.482,-0.5 373.482,-19.5 418.482,-19.5 418.482,-0.5 373.482,-0.5"/>
<text text-anchor="middle" x="395.982" y="-7.5" font-family="Helvetica,sans-Serif" font-size="10.00">iosfwd</text>
</g>
<!-- Node6&#45;&gt;Node8 -->
<g id="edge8" class="edge"><title>Node6&#45;&gt;Node8</title>
<path fill="none" stroke="midnightblue" d="M365.997,-61.9751C371.143,-53.2268 379.294,-39.3691 385.8,-28.3093"/>
<polygon fill="midnightblue" stroke="midnightblue" points="388.923,-29.903 390.977,-19.5091 382.89,-26.3539 388.923,-29.903"/>
</g>
</g>
</svg>
