<?xml version="1.0" encoding="UTF-8" standalone="no"?>
<!DOCTYPE svg PUBLIC "-//W3C//DTD SVG 1.1//EN"
 "http://www.w3.org/Graphics/SVG/1.1/DTD/svg11.dtd">
<!-- Generated by graphviz version 2.38.0 (20140413.2041)
 -->
<!-- Title: Modules/TOF/src/TaskDigits.cxx Pages: 1 -->
<!--zoomable 319 -->
<svg id="main" version="1.1" xmlns="http://www.w3.org/2000/svg" xmlns:xlink="http://www.w3.org/1999/xlink" xml:space="preserve" onload="init(evt)">
<style type="text/css"><![CDATA[
.edge:hover path { stroke: red; }
.edge:hover polygon { stroke: red; fill: red; }
]]></style>
<script type="text/javascript"><![CDATA[
var edges = document.getElementsByTagName('g');
if (edges && edges.length) {
  for (var i=0;i<edges.length;i++) {
    if (edges[i].id.substr(0,4)=='edge') {
      edges[i].setAttribute('class','edge');
    }
  }
}
]]></script>
        <defs>
                <circle id="rim" cx="0" cy="0" r="7"/>
                <circle id="rim2" cx="0" cy="0" r="3.5"/>
                <g id="zoomPlus">
                        <use xlink:href="#rim" fill="#404040">
                                <set attributeName="fill" to="#808080" begin="zoomplus.mouseover" end="zoomplus.mouseout"/>
                        </use>
                        <path d="M-4,0h8M0,-4v8" fill="none" stroke="white" stroke-width="1.5" pointer-events="none"/>
                </g>
                <g id="zoomMin">
                        <use xlink:href="#rim" fill="#404040">
                                <set attributeName="fill" to="#808080" begin="zoomminus.mouseover" end="zoomminus.mouseout"/>
                        </use>
                        <path d="M-4,0h8" fill="none" stroke="white" stroke-width="1.5" pointer-events="none"/>
                </g>
                <g id="dirArrow">
                        <path fill="none" stroke="white" stroke-width="1.5" d="M0,-3.0v7 M-2.5,-0.5L0,-3.0L2.5,-0.5"/>
                </g>
               <g id="resetDef">
                       <use xlink:href="#rim2" fill="#404040">
                               <set attributeName="fill" to="#808080" begin="reset.mouseover" end="reset.mouseout"/>
                       </use>
               </g>
        </defs>

<script type="text/javascript">
var viewWidth = 1681;
var viewHeight = 319;
var sectionId = 'dynsection-0';
</script>
<script xlink:href="svgpan.js"/>
<svg id="graph" class="graph">
<g id="viewport">
<title>Modules/TOF/src/TaskDigits.cxx</title>
<!-- Node1 -->
<g id="node1" class="node"><title>Node1</title>
<polygon fill="#bfbfbf" stroke="black" points="290,-291.5 290,-310.5 451,-310.5 451,-291.5 290,-291.5"/>
<text text-anchor="middle" x="370.5" y="-298.5" font-family="Helvetica,sans-Serif" font-size="10.00">Modules/TOF/src/TaskDigits.cxx</text>
</g>
<!-- Node2 -->
<g id="node2" class="node"><title>Node2</title>
<polygon fill="none" stroke="#bfbfbf" points="0,-235.5 0,-254.5 65,-254.5 65,-235.5 0,-235.5"/>
<text text-anchor="middle" x="32.5" y="-242.5" font-family="Helvetica,sans-Serif" font-size="10.00">TCanvas.h</text>
</g>
<!-- Node1&#45;&gt;Node2 -->
<g id="edge1" class="edge"><title>Node1&#45;&gt;Node2</title>
<path fill="none" stroke="midnightblue" d="M307.089,-291.486C249.256,-283.465 161.222,-270.616 74.9819,-254.99"/>
<polygon fill="midnightblue" stroke="midnightblue" points="75.4869,-251.524 65.0208,-253.171 74.2294,-258.41 75.4869,-251.524"/>
</g>
<!-- Node3 -->
<g id="node3" class="node"><title>Node3</title>
<polygon fill="none" stroke="#bfbfbf" points="83.5,-235.5 83.5,-254.5 127.5,-254.5 127.5,-235.5 83.5,-235.5"/>
<text text-anchor="middle" x="105.5" y="-242.5" font-family="Helvetica,sans-Serif" font-size="10.00">TH1.h</text>
</g>
<!-- Node1&#45;&gt;Node3 -->
<g id="edge2" class="edge"><title>Node1&#45;&gt;Node3</title>
<path fill="none" stroke="midnightblue" d="M318.62,-291.443C273.237,-283.638 205.37,-271.196 137.756,-255.133"/>
<polygon fill="midnightblue" stroke="midnightblue" points="138.326,-251.671 127.785,-252.737 136.691,-258.477 138.326,-251.671"/>
</g>
<!-- Node4 -->
<g id="node4" class="node"><title>Node4</title>
<polygon fill="none" stroke="#bfbfbf" points="145.5,-235.5 145.5,-254.5 195.5,-254.5 195.5,-235.5 145.5,-235.5"/>
<text text-anchor="middle" x="170.5" y="-242.5" font-family="Helvetica,sans-Serif" font-size="10.00">TH1F.h</text>
</g>
<!-- Node1&#45;&gt;Node4 -->
<g id="edge3" class="edge"><title>Node1&#45;&gt;Node4</title>
<path fill="none" stroke="midnightblue" d="M338.809,-291.444C302.565,-281.657 243.386,-265.679 205.725,-255.511"/>
<polygon fill="midnightblue" stroke="midnightblue" points="206.276,-252.034 195.71,-252.807 204.452,-258.792 206.276,-252.034"/>
</g>
<!-- Node5 -->
<g id="node5" class="node"><title>Node5</title>
<polygon fill="none" stroke="#bfbfbf" points="213.5,-235.5 213.5,-254.5 263.5,-254.5 263.5,-235.5 213.5,-235.5"/>
<text text-anchor="middle" x="238.5" y="-242.5" font-family="Helvetica,sans-Serif" font-size="10.00">TH2F.h</text>
</g>
<!-- Node1&#45;&gt;Node5 -->
<g id="edge4" class="edge"><title>Node1&#45;&gt;Node5</title>
<path fill="none" stroke="midnightblue" d="M349.584,-291.444C327.764,-282.517 293.35,-268.439 268.608,-258.317"/>
<polygon fill="midnightblue" stroke="midnightblue" points="269.899,-255.063 259.318,-254.516 267.248,-261.542 269.899,-255.063"/>
</g>
<!-- Node6 -->
<g id="node6" class="node"><title>Node6</title>
<polygon fill="none" stroke="#bfbfbf" points="282,-235.5 282,-254.5 329,-254.5 329,-235.5 282,-235.5"/>
<text text-anchor="middle" x="305.5" y="-242.5" font-family="Helvetica,sans-Serif" font-size="10.00">TH1I.h</text>
</g>
<!-- Node1&#45;&gt;Node6 -->
<g id="edge5" class="edge"><title>Node1&#45;&gt;Node6</title>
<path fill="none" stroke="midnightblue" d="M360.057,-291.324C350.354,-283.263 335.685,-271.077 324,-261.369"/>
<polygon fill="midnightblue" stroke="midnightblue" points="326.062,-258.532 316.133,-254.834 321.589,-263.916 326.062,-258.532"/>
</g>
<!-- Node7 -->
<g id="node7" class="node"><title>Node7</title>
<polygon fill="none" stroke="#bfbfbf" points="347,-235.5 347,-254.5 394,-254.5 394,-235.5 347,-235.5"/>
<text text-anchor="middle" x="370.5" y="-242.5" font-family="Helvetica,sans-Serif" font-size="10.00">TH2I.h</text>
</g>
<!-- Node1&#45;&gt;Node7 -->
<g id="edge6" class="edge"><title>Node1&#45;&gt;Node7</title>
<path fill="none" stroke="midnightblue" d="M370.5,-291.083C370.5,-284.006 370.5,-273.861 370.5,-264.986"/>
<polygon fill="midnightblue" stroke="midnightblue" points="374,-264.751 370.5,-254.751 367,-264.751 374,-264.751"/>
</g>
<!-- Node8 -->
<g id="node8" class="node"><title>Node8</title>
<polygon fill="none" stroke="#bfbfbf" points="412.5,-235.5 412.5,-254.5 502.5,-254.5 502.5,-235.5 412.5,-235.5"/>
<text text-anchor="middle" x="457.5" y="-242.5" font-family="Helvetica,sans-Serif" font-size="10.00">TOFBase/Digit.h</text>
</g>
<!-- Node1&#45;&gt;Node8 -->
<g id="edge7" class="edge"><title>Node1&#45;&gt;Node8</title>
<path fill="none" stroke="midnightblue" d="M384.478,-291.324C398.05,-282.9 418.88,-269.971 434.825,-260.074"/>
<polygon fill="midnightblue" stroke="midnightblue" points="436.906,-262.902 443.557,-254.655 433.214,-256.954 436.906,-262.902"/>
</g>
<!-- Node9 -->
<g id="node9" class="node"><title>Node9</title>
<polygon fill="none" stroke="#bfbfbf" points="520.5,-235.5 520.5,-254.5 608.5,-254.5 608.5,-235.5 520.5,-235.5"/>
<text text-anchor="middle" x="564.5" y="-242.5" font-family="Helvetica,sans-Serif" font-size="10.00">TOFBase/Geo.h</text>
</g>
<!-- Node1&#45;&gt;Node9 -->
<g id="edge8" class="edge"><title>Node1&#45;&gt;Node9</title>
<path fill="none" stroke="midnightblue" d="M401.24,-291.444C434.444,-282.201 487.491,-267.436 524.057,-257.257"/>
<polygon fill="midnightblue" stroke="midnightblue" points="525.209,-260.57 533.904,-254.516 523.332,-253.826 525.209,-260.57"/>
</g>
<!-- Node10 -->
<g id="node10" class="node"><title>Node10</title>
<polygon fill="none" stroke="#bfbfbf" points="626,-235.5 626,-254.5 723,-254.5 723,-235.5 626,-235.5"/>
<text text-anchor="middle" x="674.5" y="-242.5" font-family="Helvetica,sans-Serif" font-size="10.00">fairlogger/Logger.h</text>
</g>
<!-- Node1&#45;&gt;Node10 -->
<g id="edge9" class="edge"><title>Node1&#45;&gt;Node10</title>
<path fill="none" stroke="midnightblue" d="M418.67,-291.444C472.369,-281.905 559.186,-266.483 616.554,-256.293"/>
<polygon fill="midnightblue" stroke="midnightblue" points="617.322,-259.712 626.556,-254.516 616.098,-252.819 617.322,-259.712"/>
</g>
<!-- Node11 -->
<g id="node11" class="node"><title>Node11</title>
<g id="a_node11"><a xlink:href="QcInfoLogger_8h.html" target="_top" xlink:title="QualityControl/QcInfoLogger.h">
<polygon fill="none" stroke="black" points="741,-235.5 741,-254.5 890,-254.5 890,-235.5 741,-235.5"/>
<text text-anchor="middle" x="815.5" y="-242.5" font-family="Helvetica,sans-Serif" font-size="10.00">QualityControl/QcInfoLogger.h</text>
</a>
</g>
</g>
<!-- Node1&#45;&gt;Node11 -->
<g id="edge10" class="edge"><title>Node1&#45;&gt;Node11</title>
<path fill="none" stroke="midnightblue" d="M441.012,-291.444C521.082,-281.727 651.455,-265.907 735.327,-255.729"/>
<polygon fill="midnightblue" stroke="midnightblue" points="735.813,-259.196 745.318,-254.516 734.969,-252.247 735.813,-259.196"/>
</g>
<!-- Node13 -->
<g id="node13" class="node"><title>Node13</title>
<g id="a_node13"><a xlink:href="TaskDigits_8h.html" target="_top" xlink:title="Task to monitor quantities in TOF digits in both data and MC. ">
<polygon fill="none" stroke="black" points="912,-235.5 912,-254.5 1007,-254.5 1007,-235.5 912,-235.5"/>
<text text-anchor="middle" x="959.5" y="-242.5" font-family="Helvetica,sans-Serif" font-size="10.00">TOF/TaskDigits.h</text>
</a>
</g>
</g>
<!-- Node1&#45;&gt;Node13 -->
<g id="edge12" class="edge"><title>Node1&#45;&gt;Node13</title>
<path fill="none" stroke="midnightblue" d="M451.322,-294.74C555.223,-287.608 741.13,-273.594 899.5,-255 900.245,-254.912 900.996,-254.823 901.75,-254.731"/>
<polygon fill="midnightblue" stroke="midnightblue" points="902.25,-258.196 911.722,-253.449 901.357,-251.253 902.25,-258.196"/>
</g>
<!-- Node12 -->
<g id="node12" class="node"><title>Node12</title>
<polygon fill="none" stroke="#bfbfbf" points="745.5,-179.5 745.5,-198.5 875.5,-198.5 875.5,-179.5 745.5,-179.5"/>
<text text-anchor="middle" x="810.5" y="-186.5" font-family="Helvetica,sans-Serif" font-size="10.00">InfoLogger/InfoLogger.hxx</text>
</g>
<!-- Node11&#45;&gt;Node12 -->
<g id="edge11" class="edge"><title>Node11&#45;&gt;Node12</title>
<path fill="none" stroke="midnightblue" d="M814.674,-235.083C814.019,-228.006 813.08,-217.861 812.258,-208.986"/>
<polygon fill="midnightblue" stroke="midnightblue" points="815.717,-208.386 811.31,-198.751 808.747,-209.031 815.717,-208.386"/>
</g>
<!-- Node14 -->
<g id="node14" class="node"><title>Node14</title>
<g id="a_node14"><a xlink:href="TaskInterface_8h.html" target="_top" xlink:title="QualityControl/TaskInterface.h">
<polygon fill="none" stroke="black" points="893.5,-179.5 893.5,-198.5 1043.5,-198.5 1043.5,-179.5 893.5,-179.5"/>
<text text-anchor="middle" x="968.5" y="-186.5" font-family="Helvetica,sans-Serif" font-size="10.00">QualityControl/TaskInterface.h</text>
</a>
</g>
</g>
<!-- Node13&#45;&gt;Node14 -->
<g id="edge13" class="edge"><title>Node13&#45;&gt;Node14</title>
<path fill="none" stroke="midnightblue" d="M960.986,-235.083C962.179,-227.927 963.894,-217.635 965.385,-208.691"/>
<polygon fill="midnightblue" stroke="midnightblue" points="968.85,-209.19 967.041,-198.751 961.945,-208.04 968.85,-209.19"/>
</g>
<!-- Node15 -->
<g id="node15" class="node"><title>Node15</title>
<polygon fill="none" stroke="#bfbfbf" points="993,-0.5 993,-19.5 1028,-19.5 1028,-0.5 993,-0.5"/>
<text text-anchor="middle" x="1010.5" y="-7.5" font-family="Helvetica,sans-Serif" font-size="10.00">map</text>
</g>
<!-- Node14&#45;&gt;Node15 -->
<g id="edge14" class="edge"><title>Node14&#45;&gt;Node15</title>
<path fill="none" stroke="midnightblue" d="M925.433,-179.486C905.104,-173.074 882.677,-161.991 870.5,-143 849.629,-110.45 847.723,-87.246 870.5,-56 896.037,-20.9681 949.292,-12.611 982.259,-10.9548"/>
<polygon fill="midnightblue" stroke="midnightblue" points="982.71,-14.4422 992.592,-10.6212 982.484,-7.4458 982.71,-14.4422"/>
</g>
<!-- Node16 -->
<g id="node16" class="node"><title>Node16</title>
<polygon fill="none" stroke="#bfbfbf" points="923.5,-62 923.5,-81 975.5,-81 975.5,-62 923.5,-62"/>
<text text-anchor="middle" x="949.5" y="-69" font-family="Helvetica,sans-Serif" font-size="10.00">memory</text>
</g>
<!-- Node14&#45;&gt;Node16 -->
<g id="edge15" class="edge"><title>Node14&#45;&gt;Node16</title>
<path fill="none" stroke="midnightblue" d="M961.61,-179.319C955.231,-170.684 946.192,-156.77 942.5,-143 937.88,-125.77 940.742,-105.435 944.09,-91.0438"/>
<polygon fill="midnightblue" stroke="midnightblue" points="947.482,-91.9073 946.63,-81.3467 940.711,-90.1336 947.482,-91.9073"/>
</g>
<!-- Node17 -->
<g id="node17" class="node"><title>Node17</title>
<polygon fill="none" stroke="#bfbfbf" points="1078,-0.5 1078,-19.5 1119,-19.5 1119,-0.5 1078,-0.5"/>
<text text-anchor="middle" x="1098.5" y="-7.5" font-family="Helvetica,sans-Serif" font-size="10.00">string</text>
</g>
<!-- Node14&#45;&gt;Node17 -->
<g id="edge16" class="edge"><title>Node14&#45;&gt;Node17</title>
<path fill="none" stroke="midnightblue" d="M959.521,-179.452C937.164,-157.146 883.008,-96.1226 914.5,-56 924.002,-43.8943 1017.98,-25.4328 1067.82,-16.3824"/>
<polygon fill="midnightblue" stroke="midnightblue" points="1068.52,-19.8136 1077.74,-14.5997 1067.28,-12.924 1068.52,-19.8136"/>
</g>
<!-- Node18 -->
<g id="node18" class="node"><title>Node18</title>
<polygon fill="none" stroke="#bfbfbf" points="828,-0.5 828,-19.5 911,-19.5 911,-0.5 828,-0.5"/>
<text text-anchor="middle" x="869.5" y="-7.5" font-family="Helvetica,sans-Serif" font-size="10.00">unordered_map</text>
</g>
<!-- Node14&#45;&gt;Node18 -->
<g id="edge17" class="edge"><title>Node14&#45;&gt;Node18</title>
<path fill="none" stroke="midnightblue" d="M914.716,-179.422C892.838,-173.088 869.463,-162.088 855.5,-143 830.647,-109.025 848.388,-56.3295 860.593,-28.9266"/>
<polygon fill="midnightblue" stroke="midnightblue" points="863.817,-30.2939 864.899,-19.7543 857.481,-27.3191 863.817,-30.2939"/>
</g>
<!-- Node19 -->
<g id="node19" class="node"><title>Node19</title>
<polygon fill="none" stroke="#bfbfbf" points="951,-123.5 951,-142.5 1076,-142.5 1076,-123.5 951,-123.5"/>
<text text-anchor="middle" x="1013.5" y="-130.5" font-family="Helvetica,sans-Serif" font-size="10.00">Framework/InitContext.h</text>
</g>
<!-- Node14&#45;&gt;Node19 -->
<g id="edge18" class="edge"><title>Node14&#45;&gt;Node19</title>
<path fill="none" stroke="midnightblue" d="M975.931,-179.083C982.353,-171.377 991.806,-160.033 999.622,-150.653"/>
<polygon fill="midnightblue" stroke="midnightblue" points="1002.49,-152.674 1006.21,-142.751 997.117,-148.193 1002.49,-152.674"/>
</g>
<!-- Node20 -->
<g id="node20" class="node"><title>Node20</title>
<polygon fill="none" stroke="#bfbfbf" points="1094.5,-123.5 1094.5,-142.5 1254.5,-142.5 1254.5,-123.5 1094.5,-123.5"/>
<text text-anchor="middle" x="1174.5" y="-130.5" font-family="Helvetica,sans-Serif" font-size="10.00">Framework/ProcessingContext.h</text>
</g>
<!-- Node14&#45;&gt;Node20 -->
<g id="edge19" class="edge"><title>Node14&#45;&gt;Node20</title>
<path fill="none" stroke="midnightblue" d="M1001.14,-179.444C1036.55,-170.162 1093.21,-155.309 1132.05,-145.127"/>
<polygon fill="midnightblue" stroke="midnightblue" points="1133.23,-148.438 1142.01,-142.516 1131.45,-141.667 1133.23,-148.438"/>
</g>
<!-- Node21 -->
<g id="node21" class="node"><title>Node21</title>
<g id="a_node21"><a xlink:href="Activity_8h.html" target="_top" xlink:title="QualityControl/Activity.h">
<polygon fill="none" stroke="black" points="1273,-123.5 1273,-142.5 1396,-142.5 1396,-123.5 1273,-123.5"/>
<text text-anchor="middle" x="1334.5" y="-130.5" font-family="Helvetica,sans-Serif" font-size="10.00">QualityControl/Activity.h</text>
</a>
</g>
</g>
<!-- Node14&#45;&gt;Node21 -->
<g id="edge20" class="edge"><title>Node14&#45;&gt;Node21</title>
<path fill="none" stroke="midnightblue" d="M1026.49,-179.444C1091.81,-169.806 1197.84,-154.163 1266.87,-143.978"/>
<polygon fill="midnightblue" stroke="midnightblue" points="1267.4,-147.439 1276.78,-142.516 1266.37,-140.514 1267.4,-147.439"/>
</g>
<!-- Node22 -->
<g id="node22" class="node"><title>Node22</title>
<g id="a_node22"><a xlink:href="ObjectsManager_8h.html" target="_top" xlink:title="QualityControl/ObjectsManager.h">
<polygon fill="none" stroke="black" points="1414,-123.5 1414,-142.5 1575,-142.5 1575,-123.5 1414,-123.5"/>
<text text-anchor="middle" x="1494.5" y="-130.5" font-family="Helvetica,sans-Serif" font-size="10.00">QualityControl/ObjectsManager.h</text>
</a>
</g>
</g>
<!-- Node14&#45;&gt;Node22 -->
<g id="edge21" class="edge"><title>Node14&#45;&gt;Node22</title>
<path fill="none" stroke="midnightblue" d="M1043.58,-180.292C1138.49,-170.548 1301.75,-153.788 1403.61,-143.331"/>
<polygon fill="midnightblue" stroke="midnightblue" points="1403.98,-146.811 1413.57,-142.308 1403.27,-139.848 1403.98,-146.811"/>
</g>
<!-- Node22&#45;&gt;Node16 -->
<g id="edge35" class="edge"><title>Node22&#45;&gt;Node16</title>
<path fill="none" stroke="midnightblue" d="M1413.97,-123.805C1411.11,-123.531 1408.28,-123.261 1405.5,-123 1221.17,-105.686 1171.44,-126.178 990.5,-87 987.076,-86.2586 983.545,-85.3094 980.06,-84.2523"/>
<polygon fill="midnightblue" stroke="midnightblue" points="981.077,-80.902 970.483,-81.0698 978.869,-87.5448 981.077,-80.902"/>
</g>
<!-- Node22&#45;&gt;Node17 -->
<g id="edge34" class="edge"><title>Node22&#45;&gt;Node17</title>
<path fill="none" stroke="midnightblue" d="M1421.64,-123.471C1337.64,-113.301 1208.41,-96.4916 1187.5,-87 1179.23,-83.2434 1139.05,-47.6194 1115.6,-26.5039"/>
<polygon fill="midnightblue" stroke="midnightblue" points="1117.85,-23.8209 1108.09,-19.7162 1113.16,-29.016 1117.85,-23.8209"/>
</g>
<!-- Node23 -->
<g id="node23" class="node"><title>Node23</title>
<g id="a_node23"><a xlink:href="MonitorObject_8h.html" target="_top" xlink:title="QualityControl/MonitorObject.h">
<polygon fill="none" stroke="black" points="1196,-62 1196,-81 1347,-81 1347,-62 1196,-62"/>
<text text-anchor="middle" x="1271.5" y="-69" font-family="Helvetica,sans-Serif" font-size="10.00">QualityControl/MonitorObject.h</text>
</a>
</g>
</g>
<!-- Node22&#45;&gt;Node23 -->
<g id="edge22" class="edge"><title>Node22&#45;&gt;Node23</title>
<path fill="none" stroke="midnightblue" d="M1462.55,-123.475C1423.3,-113.004 1356.62,-95.2118 1313.33,-83.6601"/>
<polygon fill="midnightblue" stroke="midnightblue" points="1313.96,-80.2054 1303.39,-81.0091 1312.15,-86.9688 1313.96,-80.2054"/>
</g>
<!-- Node27 -->
<g id="node27" class="node"><title>Node27</title>
<g id="a_node27"><a xlink:href="MonitorObjectCollection_8h.html" target="_top" xlink:title="QualityControl/MonitorObject\lCollection.h">
<polygon fill="none" stroke="black" points="1423,-56.5 1423,-86.5 1566,-86.5 1566,-56.5 1423,-56.5"/>
<text text-anchor="start" x="1431" y="-74.5" font-family="Helvetica,sans-Serif" font-size="10.00">QualityControl/MonitorObject</text>
<text text-anchor="middle" x="1494.5" y="-63.5" font-family="Helvetica,sans-Serif" font-size="10.00">Collection.h</text>
</a>
</g>
</g>
<!-- Node22&#45;&gt;Node27 -->
<g id="edge28" class="edge"><title>Node22&#45;&gt;Node27</title>
<path fill="none" stroke="midnightblue" d="M1494.5,-123.475C1494.5,-116.471 1494.5,-106.192 1494.5,-96.6956"/>
<polygon fill="midnightblue" stroke="midnightblue" points="1498,-96.5229 1494.5,-86.523 1491,-96.523 1498,-96.5229"/>
</g>
<!-- Node30 -->
<g id="node30" class="node"><title>Node30</title>
<g id="a_node30"><a xlink:href="TaskConfig_8h.html" target="_top" xlink:title="QualityControl/TaskConfig.h">
<polygon fill="none" stroke="black" points="999.5,-62 999.5,-81 1139.5,-81 1139.5,-62 999.5,-62"/>
<text text-anchor="middle" x="1069.5" y="-69" font-family="Helvetica,sans-Serif" font-size="10.00">QualityControl/TaskConfig.h</text>
</a>
</g>
</g>
<!-- Node22&#45;&gt;Node30 -->
<g id="edge31" class="edge"><title>Node22&#45;&gt;Node30</title>
<path fill="none" stroke="midnightblue" d="M1423.52,-123.467C1354.47,-114.969 1246.63,-101.177 1153.5,-87 1144.89,-85.6893 1135.8,-84.2149 1126.9,-82.7213"/>
<polygon fill="midnightblue" stroke="midnightblue" points="1127.42,-79.2598 1116.98,-81.0346 1126.25,-86.1608 1127.42,-79.2598"/>
</g>
<!-- Node23&#45;&gt;Node15 -->
<g id="edge24" class="edge"><title>Node23&#45;&gt;Node15</title>
<path fill="none" stroke="midnightblue" d="M1234.11,-61.9751C1181.03,-49.8761 1085.09,-28.0045 1038.03,-17.277"/>
<polygon fill="midnightblue" stroke="midnightblue" points="1038.76,-13.8536 1028.24,-15.0433 1037.21,-20.6785 1038.76,-13.8536"/>
</g>
<!-- Node23&#45;&gt;Node17 -->
<g id="edge23" class="edge"><title>Node23&#45;&gt;Node17</title>
<path fill="none" stroke="midnightblue" d="M1246.71,-61.9751C1215.64,-51.2877 1162.39,-32.975 1128.89,-21.4536"/>
<polygon fill="midnightblue" stroke="midnightblue" points="1129.77,-18.0547 1119.18,-18.112 1127.5,-24.6741 1129.77,-18.0547"/>
</g>
<!-- Node24 -->
<g id="node24" class="node"><title>Node24</title>
<polygon fill="none" stroke="#bfbfbf" points="1167.5,-0.5 1167.5,-19.5 1223.5,-19.5 1223.5,-0.5 1167.5,-0.5"/>
<text text-anchor="middle" x="1195.5" y="-7.5" font-family="Helvetica,sans-Serif" font-size="10.00">Rtypes.h</text>
</g>
<!-- Node23&#45;&gt;Node24 -->
<g id="edge25" class="edge"><title>Node23&#45;&gt;Node24</title>
<path fill="none" stroke="midnightblue" d="M1260.61,-61.9751C1248.53,-52.5199 1228.83,-37.0961 1214.26,-25.6871"/>
<polygon fill="midnightblue" stroke="midnightblue" points="1216.4,-22.9177 1206.37,-19.5091 1212.09,-28.4295 1216.4,-22.9177"/>
</g>
<!-- Node25 -->
<g id="node25" class="node"><title>Node25</title>
<polygon fill="none" stroke="#bfbfbf" points="1242,-0.5 1242,-19.5 1301,-19.5 1301,-0.5 1242,-0.5"/>
<text text-anchor="middle" x="1271.5" y="-7.5" font-family="Helvetica,sans-Serif" font-size="10.00">TObject.h</text>
</g>
<!-- Node23&#45;&gt;Node25 -->
<g id="edge26" class="edge"><title>Node23&#45;&gt;Node25</title>
<path fill="none" stroke="midnightblue" d="M1271.5,-61.9751C1271.5,-53.5803 1271.5,-40.4806 1271.5,-29.6631"/>
<polygon fill="midnightblue" stroke="midnightblue" points="1275,-29.5091 1271.5,-19.5091 1268,-29.5091 1275,-29.5091"/>
</g>
<!-- Node26 -->
<g id="node26" class="node"><title>Node26</title>
<polygon fill="none" stroke="#bfbfbf" points="1319.5,-0.5 1319.5,-19.5 1435.5,-19.5 1435.5,-0.5 1319.5,-0.5"/>
<text text-anchor="middle" x="1377.5" y="-7.5" font-family="Helvetica,sans-Serif" font-size="10.00">Common/Exceptions.h</text>
</g>
<!-- Node23&#45;&gt;Node26 -->
<g id="edge27" class="edge"><title>Node23&#45;&gt;Node26</title>
<path fill="none" stroke="midnightblue" d="M1286.69,-61.9751C1304.16,-52.1664 1333.08,-35.9346 1353.58,-24.425"/>
<polygon fill="midnightblue" stroke="midnightblue" points="1355.33,-27.456 1362.34,-19.5091 1351.91,-21.3519 1355.33,-27.456"/>
</g>
<!-- Node28 -->
<g id="node28" class="node"><title>Node28</title>
<polygon fill="none" stroke="#bfbfbf" points="1457,-0.5 1457,-19.5 1526,-19.5 1526,-0.5 1457,-0.5"/>
<text text-anchor="middle" x="1491.5" y="-7.5" font-family="Helvetica,sans-Serif" font-size="10.00">TObjArray.h</text>
</g>
<!-- Node27&#45;&gt;Node28 -->
<g id="edge29" class="edge"><title>Node27&#45;&gt;Node28</title>
<path fill="none" stroke="midnightblue" d="M1493.79,-56.3993C1493.39,-48.4664 1492.88,-38.458 1492.45,-29.8583"/>
<polygon fill="midnightblue" stroke="midnightblue" points="1495.94,-29.4688 1491.94,-19.6578 1488.94,-29.8214 1495.94,-29.4688"/>
</g>
<!-- Node29 -->
<g id="node29" class="node"><title>Node29</title>
<polygon fill="none" stroke="#bfbfbf" points="1544.5,-0.5 1544.5,-19.5 1672.5,-19.5 1672.5,-0.5 1544.5,-0.5"/>
<text text-anchor="middle" x="1608.5" y="-7.5" font-family="Helvetica,sans-Serif" font-size="10.00">Mergers/MergeInterface.h</text>
</g>
<!-- Node27&#45;&gt;Node29 -->
<g id="edge30" class="edge"><title>Node27&#45;&gt;Node29</title>
<path fill="none" stroke="midnightblue" d="M1521.52,-56.3993C1540.13,-46.6837 1564.71,-33.8551 1582.99,-24.3137"/>
<polygon fill="midnightblue" stroke="midnightblue" points="1584.67,-27.3876 1591.91,-19.6578 1581.43,-21.182 1584.67,-27.3876"/>
</g>
<!-- Node30&#45;&gt;Node17 -->
<g id="edge32" class="edge"><title>Node30&#45;&gt;Node17</title>
<path fill="none" stroke="midnightblue" d="M1073.65,-61.9751C1077.88,-53.3152 1084.54,-39.6486 1089.9,-28.6453"/>
<polygon fill="midnightblue" stroke="midnightblue" points="1093.12,-30.0317 1094.35,-19.5091 1086.83,-26.9648 1093.12,-30.0317"/>
</g>
<!-- Node30&#45;&gt;Node18 -->
<g id="edge33" class="edge"><title>Node30&#45;&gt;Node18</title>
<path fill="none" stroke="midnightblue" d="M1040.84,-61.9751C1005.94,-51.592 946.85,-34.0116 908,-22.4538"/>
<polygon fill="midnightblue" stroke="midnightblue" points="908.685,-19.0059 898.102,-19.5091 906.689,-25.7153 908.685,-19.0059"/>
</g>
</g>
</svg>
        <g id="navigator" transform="translate(0 0)" fill="#404254">
                <rect fill="#f2f5e9" fill-opacity="0.5" stroke="#606060" stroke-width=".5" x="0" y="0" width="60" height="60"/>
                <use id="zoomplus" xlink:href="#zoomPlus" x="17" y="9" onmousedown="handleZoom(evt,'in')"/>
                <use id="zoomminus" xlink:href="#zoomMin" x="42" y="9" onmousedown="handleZoom(evt,'out')"/>
                <use id="reset" xlink:href="#resetDef" x="30" y="36" onmousedown="handleReset()"/>
                <g id="arrowUp" xlink:href="#dirArrow" transform="translate(30 24)" onmousedown="handlePan(0,-1)">
                  <use xlink:href="#rim" fill="#404040">
                        <set attributeName="fill" to="#808080" begin="arrowUp.mouseover" end="arrowUp.mouseout"/>
                  </use>
                  <path fill="none" stroke="white" stroke-width="1.5" d="M0,-3.0v7 M-2.5,-0.5L0,-3.0L2.5,-0.5"/>
                </g>
                <g id="arrowRight" xlink:href="#dirArrow" transform="rotate(90) translate(36 -43)" onmousedown="handlePan(1,0)">
                  <use xlink:href="#rim" fill="#404040">
                        <set attributeName="fill" to="#808080" begin="arrowRight.mouseover" end="arrowRight.mouseout"/>
                  </use>
                  <path fill="none" stroke="white" stroke-width="1.5" d="M0,-3.0v7 M-2.5,-0.5L0,-3.0L2.5,-0.5"/>
                </g>
                <g id="arrowDown" xlink:href="#dirArrow" transform="rotate(180) translate(-30 -48)" onmousedown="handlePan(0,1)">
                  <use xlink:href="#rim" fill="#404040">
                        <set attributeName="fill" to="#808080" begin="arrowDown.mouseover" end="arrowDown.mouseout"/>
                  </use>
                  <path fill="none" stroke="white" stroke-width="1.5" d="M0,-3.0v7 M-2.5,-0.5L0,-3.0L2.5,-0.5"/>
                </g>
                <g id="arrowLeft" xlink:href="#dirArrow" transform="rotate(270) translate(-36 17)" onmousedown="handlePan(-1,0)">
                  <use xlink:href="#rim" fill="#404040">
                        <set attributeName="fill" to="#808080" begin="arrowLeft.mouseover" end="arrowLeft.mouseout"/>
                  </use>
                  <path fill="none" stroke="white" stroke-width="1.5" d="M0,-3.0v7 M-2.5,-0.5L0,-3.0L2.5,-0.5"/>
                </g>
        </g>
        <svg viewBox="0 0 15 15" width="100%" height="30px" preserveAspectRatio="xMaxYMin meet">
         <g id="arrow_out" transform="scale(0.3 0.3)">
          <a xlink:href="TaskDigits_8cxx__incl_org.svg" target="_base">
           <rect id="button" ry="5" rx="5" y="6" x="6" height="38" width="38"
                fill="#f2f5e9" fill-opacity="0.5" stroke="#606060" stroke-width="1.0"/>
           <path id="arrow"
             d="M 11.500037,31.436501 C 11.940474,20.09759 22.043105,11.32322 32.158766,21.979434 L 37.068811,17.246167 C 37.068811,17.246167 37.088388,32 37.088388,32 L 22.160133,31.978069 C 22.160133,31.978069 26.997745,27.140456 26.997745,27.140456 C 18.528582,18.264221 13.291696,25.230495 11.500037,31.436501 z"
             style="fill:#404040;"/>
          </a>
         </g>
        </svg>
</svg>
