<?xml version="1.0" encoding="UTF-8" standalone="no"?>
<!DOCTYPE svg PUBLIC "-//W3C//DTD SVG 1.1//EN"
 "http://www.w3.org/Graphics/SVG/1.1/DTD/svg11.dtd">
<!-- Generated by graphviz version 2.38.0 (20140413.2041)
 -->
<!-- Title: Framework/include/QualityControl/TaskRunner.h Pages: 1 -->
<svg width="1446pt" height="285pt"
 viewBox="0.00 0.00 1446.00 285.00" xmlns="http://www.w3.org/2000/svg" xmlns:xlink="http://www.w3.org/1999/xlink">
<g id="graph0" class="graph" transform="scale(1 1) rotate(0) translate(4 281)">
<title>Framework/include/QualityControl/TaskRunner.h</title>
<!-- Node1 -->
<g id="node1" class="node"><title>Node1</title>
<polygon fill="#bfbfbf" stroke="black" points="628,-246.5 628,-276.5 761,-276.5 761,-246.5 628,-246.5"/>
<text text-anchor="start" x="636" y="-264.5" font-family="Helvetica,sans-Serif" font-size="10.00">Framework/include/Quality</text>
<text text-anchor="middle" x="694.5" y="-253.5" font-family="Helvetica,sans-Serif" font-size="10.00">Control/TaskRunner.h</text>
</g>
<!-- Node2 -->
<g id="node2" class="node"><title>Node2</title>
<polygon fill="none" stroke="#bfbfbf" points="0,-179.5 0,-209.5 101,-209.5 101,-179.5 0,-179.5"/>
<text text-anchor="start" x="8" y="-197.5" font-family="Helvetica,sans-Serif" font-size="10.00">boost/property_tree</text>
<text text-anchor="middle" x="50.5" y="-186.5" font-family="Helvetica,sans-Serif" font-size="10.00">/ptree.hpp</text>
</g>
<!-- Node1&#45;&gt;Node2 -->
<g id="edge1" class="edge"><title>Node1&#45;&gt;Node2</title>
<path fill="none" stroke="midnightblue" d="M627.973,-258.015C521.013,-253.301 304.14,-240.787 111.172,-209.93"/>
<polygon fill="midnightblue" stroke="midnightblue" points="111.56,-206.447 101.129,-208.304 110.441,-213.357 111.56,-206.447"/>
</g>
<!-- Node3 -->
<g id="node3" class="node"><title>Node3</title>
<polygon fill="none" stroke="#bfbfbf" points="119.5,-185 119.5,-204 211.5,-204 211.5,-185 119.5,-185"/>
<text text-anchor="middle" x="165.5" y="-192" font-family="Helvetica,sans-Serif" font-size="10.00">Common/Timer.h</text>
</g>
<!-- Node1&#45;&gt;Node3 -->
<g id="edge2" class="edge"><title>Node1&#45;&gt;Node3</title>
<path fill="none" stroke="midnightblue" d="M627.709,-256.587C535.521,-250.461 364.359,-236.469 220.5,-210 215.292,-209.042 209.853,-207.849 204.507,-206.561"/>
<polygon fill="midnightblue" stroke="midnightblue" points="204.983,-203.071 194.429,-204.006 203.262,-209.857 204.983,-203.071"/>
</g>
<!-- Node4 -->
<g id="node4" class="node"><title>Node4</title>
<polygon fill="none" stroke="#bfbfbf" points="229.5,-185 229.5,-204 327.5,-204 327.5,-185 229.5,-185"/>
<text text-anchor="middle" x="278.5" y="-192" font-family="Helvetica,sans-Serif" font-size="10.00">Framework/Task.h</text>
</g>
<!-- Node1&#45;&gt;Node4 -->
<g id="edge3" class="edge"><title>Node1&#45;&gt;Node4</title>
<path fill="none" stroke="midnightblue" d="M627.841,-253.216C555.683,-244.838 437.383,-229.67 336.5,-210 331.088,-208.945 325.424,-207.703 319.847,-206.398"/>
<polygon fill="midnightblue" stroke="midnightblue" points="320.516,-202.959 309.973,-204.006 318.867,-209.762 320.516,-202.959"/>
</g>
<!-- Node5 -->
<g id="node5" class="node"><title>Node5</title>
<polygon fill="none" stroke="#bfbfbf" points="345.5,-185 345.5,-204 509.5,-204 509.5,-185 345.5,-185"/>
<text text-anchor="middle" x="427.5" y="-192" font-family="Helvetica,sans-Serif" font-size="10.00">Framework/DataProcessorSpec.h</text>
</g>
<!-- Node1&#45;&gt;Node5 -->
<g id="edge4" class="edge"><title>Node1&#45;&gt;Node5</title>
<path fill="none" stroke="midnightblue" d="M636.894,-246.476C587.581,-234.471 517.58,-217.43 472.35,-206.419"/>
<polygon fill="midnightblue" stroke="midnightblue" points="473.077,-202.993 462.533,-204.029 471.421,-209.795 473.077,-202.993"/>
</g>
<!-- Node6 -->
<g id="node6" class="node"><title>Node6</title>
<polygon fill="none" stroke="#bfbfbf" points="528,-185 528,-204 681,-204 681,-185 528,-185"/>
<text text-anchor="middle" x="604.5" y="-192" font-family="Helvetica,sans-Serif" font-size="10.00">Framework/CompletionPolicy.h</text>
</g>
<!-- Node1&#45;&gt;Node6 -->
<g id="edge5" class="edge"><title>Node1&#45;&gt;Node6</title>
<path fill="none" stroke="midnightblue" d="M674.971,-246.396C660.018,-235.597 639.47,-220.756 624.421,-209.887"/>
<polygon fill="midnightblue" stroke="midnightblue" points="626.435,-207.025 616.279,-204.007 622.337,-212.699 626.435,-207.025"/>
</g>
<!-- Node7 -->
<g id="node7" class="node"><title>Node7</title>
<polygon fill="none" stroke="#bfbfbf" points="699.5,-185 699.5,-204 869.5,-204 869.5,-185 699.5,-185"/>
<text text-anchor="middle" x="784.5" y="-192" font-family="Helvetica,sans-Serif" font-size="10.00">Framework/EndOfStreamContext.h</text>
</g>
<!-- Node1&#45;&gt;Node7 -->
<g id="edge6" class="edge"><title>Node1&#45;&gt;Node7</title>
<path fill="none" stroke="midnightblue" d="M714.029,-246.396C728.982,-235.597 749.53,-220.756 764.579,-209.887"/>
<polygon fill="midnightblue" stroke="midnightblue" points="766.663,-212.699 772.721,-204.007 762.565,-207.025 766.663,-212.699"/>
</g>
<!-- Node8 -->
<g id="node8" class="node"><title>Node8</title>
<polygon fill="none" stroke="#bfbfbf" points="888,-185 888,-204 1005,-204 1005,-185 888,-185"/>
<text text-anchor="middle" x="946.5" y="-192" font-family="Helvetica,sans-Serif" font-size="10.00">Headers/DataHeader.h</text>
</g>
<!-- Node1&#45;&gt;Node8 -->
<g id="edge7" class="edge"><title>Node1&#45;&gt;Node8</title>
<path fill="none" stroke="midnightblue" d="M748.87,-246.476C795.217,-234.521 860.926,-217.573 903.63,-206.558"/>
<polygon fill="midnightblue" stroke="midnightblue" points="904.626,-209.915 913.435,-204.029 902.878,-203.137 904.626,-209.915"/>
</g>
<!-- Node9 -->
<g id="node9" class="node"><title>Node9</title>
<polygon fill="none" stroke="#bfbfbf" points="656,-123.5 656,-142.5 781,-142.5 781,-123.5 656,-123.5"/>
<text text-anchor="middle" x="718.5" y="-130.5" font-family="Helvetica,sans-Serif" font-size="10.00">Framework/InitContext.h</text>
</g>
<!-- Node1&#45;&gt;Node9 -->
<g id="edge8" class="edge"><title>Node1&#45;&gt;Node9</title>
<path fill="none" stroke="midnightblue" d="M761.094,-259.758C845.125,-257.246 982.574,-247.359 1014.5,-210 1023.45,-199.526 1023.48,-189.449 1014.5,-179 1010.85,-174.752 877.839,-155.812 791.38,-143.899"/>
<polygon fill="midnightblue" stroke="midnightblue" points="791.723,-140.413 781.34,-142.518 790.77,-147.348 791.723,-140.413"/>
</g>
<!-- Node10 -->
<g id="node10" class="node"><title>Node10</title>
<g id="a_node10"><a xlink:href="TaskConfig_8h.html" target="_top" xlink:title="QualityControl/TaskConfig.h">
<polygon fill="none" stroke="black" points="1274.5,-62 1274.5,-81 1414.5,-81 1414.5,-62 1274.5,-62"/>
<text text-anchor="middle" x="1344.5" y="-69" font-family="Helvetica,sans-Serif" font-size="10.00">QualityControl/TaskConfig.h</text>
</a>
</g>
</g>
<!-- Node1&#45;&gt;Node10 -->
<g id="edge9" class="edge"><title>Node1&#45;&gt;Node10</title>
<path fill="none" stroke="midnightblue" d="M761.069,-261.067C926.441,-260.829 1348.2,-249.592 1425.5,-143 1442.88,-119.032 1407.53,-97.6699 1378.17,-84.9045"/>
<polygon fill="midnightblue" stroke="midnightblue" points="1379.51,-81.6687 1368.93,-81.0695 1376.83,-88.1343 1379.51,-81.6687"/>
</g>
<!-- Node13 -->
<g id="node13" class="node"><title>Node13</title>
<g id="a_node13"><a xlink:href="TaskInterface_8h.html" target="_top" xlink:title="QualityControl/TaskInterface.h">
<polygon fill="none" stroke="black" points="1061.5,-185 1061.5,-204 1211.5,-204 1211.5,-185 1061.5,-185"/>
<text text-anchor="middle" x="1136.5" y="-192" font-family="Helvetica,sans-Serif" font-size="10.00">QualityControl/TaskInterface.h</text>
</a>
</g>
</g>
<!-- Node1&#45;&gt;Node13 -->
<g id="edge12" class="edge"><title>Node1&#45;&gt;Node13</title>
<path fill="none" stroke="midnightblue" d="M761.245,-251.345C832.27,-241.51 947.902,-225.236 1047.5,-210 1056.48,-208.627 1065.96,-207.131 1075.25,-205.639"/>
<polygon fill="midnightblue" stroke="midnightblue" points="1075.91,-209.077 1085.23,-204.028 1074.8,-202.167 1075.91,-209.077"/>
</g>
<!-- Node11 -->
<g id="node11" class="node"><title>Node11</title>
<polygon fill="none" stroke="#bfbfbf" points="1248,-0.5 1248,-19.5 1289,-19.5 1289,-0.5 1248,-0.5"/>
<text text-anchor="middle" x="1268.5" y="-7.5" font-family="Helvetica,sans-Serif" font-size="10.00">string</text>
</g>
<!-- Node10&#45;&gt;Node11 -->
<g id="edge10" class="edge"><title>Node10&#45;&gt;Node11</title>
<path fill="none" stroke="midnightblue" d="M1333.61,-61.9751C1321.53,-52.5199 1301.83,-37.0961 1287.26,-25.6871"/>
<polygon fill="midnightblue" stroke="midnightblue" points="1289.4,-22.9177 1279.37,-19.5091 1285.09,-28.4295 1289.4,-22.9177"/>
</g>
<!-- Node12 -->
<g id="node12" class="node"><title>Node12</title>
<polygon fill="none" stroke="#bfbfbf" points="1355,-0.5 1355,-19.5 1438,-19.5 1438,-0.5 1355,-0.5"/>
<text text-anchor="middle" x="1396.5" y="-7.5" font-family="Helvetica,sans-Serif" font-size="10.00">unordered_map</text>
</g>
<!-- Node10&#45;&gt;Node12 -->
<g id="edge11" class="edge"><title>Node10&#45;&gt;Node12</title>
<path fill="none" stroke="midnightblue" d="M1351.95,-61.9751C1359.83,-52.9617 1372.44,-38.5246 1382.24,-27.3118"/>
<polygon fill="midnightblue" stroke="midnightblue" points="1385.12,-29.342 1389.06,-19.5091 1379.85,-24.7356 1385.12,-29.342"/>
</g>
<!-- Node13&#45;&gt;Node9 -->
<g id="edge17" class="edge"><title>Node13&#45;&gt;Node9</title>
<path fill="none" stroke="midnightblue" d="M1085.7,-184.994C1073.22,-182.968 1059.89,-180.856 1047.5,-179 959.377,-165.797 857.733,-152.133 791.019,-143.377"/>
<polygon fill="midnightblue" stroke="midnightblue" points="791.397,-139.897 781.027,-142.069 790.488,-146.838 791.397,-139.897"/>
</g>
<!-- Node13&#45;&gt;Node11 -->
<g id="edge15" class="edge"><title>Node13&#45;&gt;Node11</title>
<path fill="none" stroke="midnightblue" d="M1146.68,-184.747C1157.62,-175.089 1175.23,-158.81 1188.5,-143 1219.67,-105.849 1246.75,-55.2564 1259.95,-28.7935"/>
<polygon fill="midnightblue" stroke="midnightblue" points="1263.19,-30.1384 1264.44,-19.6187 1256.9,-27.0572 1263.19,-30.1384"/>
</g>
<!-- Node13&#45;&gt;Node12 -->
<g id="edge16" class="edge"><title>Node13&#45;&gt;Node12</title>
<path fill="none" stroke="midnightblue" d="M1211.58,-190.99C1287.92,-186.671 1398.67,-174.925 1425.5,-143 1453.45,-109.74 1425.8,-55.5347 1408.35,-28.0853"/>
<polygon fill="midnightblue" stroke="midnightblue" points="1411.15,-25.9769 1402.72,-19.5701 1405.32,-29.8407 1411.15,-25.9769"/>
</g>
<!-- Node14 -->
<g id="node14" class="node"><title>Node14</title>
<polygon fill="none" stroke="#bfbfbf" points="909,-0.5 909,-19.5 944,-19.5 944,-0.5 909,-0.5"/>
<text text-anchor="middle" x="926.5" y="-7.5" font-family="Helvetica,sans-Serif" font-size="10.00">map</text>
</g>
<!-- Node13&#45;&gt;Node14 -->
<g id="edge13" class="edge"><title>Node13&#45;&gt;Node14</title>
<path fill="none" stroke="midnightblue" d="M1092.12,-184.949C1061.93,-177.533 1022.22,-164.517 992.5,-143 954.208,-115.278 936.828,-58.9479 930.108,-29.6479"/>
<polygon fill="midnightblue" stroke="midnightblue" points="933.463,-28.5987 927.971,-19.5387 926.615,-30.0464 933.463,-28.5987"/>
</g>
<!-- Node15 -->
<g id="node15" class="node"><title>Node15</title>
<polygon fill="none" stroke="#bfbfbf" points="1165.5,-62 1165.5,-81 1217.5,-81 1217.5,-62 1165.5,-62"/>
<text text-anchor="middle" x="1191.5" y="-69" font-family="Helvetica,sans-Serif" font-size="10.00">memory</text>
</g>
<!-- Node13&#45;&gt;Node15 -->
<g id="edge14" class="edge"><title>Node13&#45;&gt;Node15</title>
<path fill="none" stroke="midnightblue" d="M1143.92,-184.75C1151.77,-175.095 1164.03,-158.819 1171.5,-143 1179.47,-126.132 1184.87,-105.459 1188.03,-90.8735"/>
<polygon fill="midnightblue" stroke="midnightblue" points="1191.46,-91.5659 1190.02,-81.07 1184.6,-90.1758 1191.46,-91.5659"/>
</g>
<!-- Node16 -->
<g id="node16" class="node"><title>Node16</title>
<polygon fill="none" stroke="#bfbfbf" points="1256.5,-123.5 1256.5,-142.5 1416.5,-142.5 1416.5,-123.5 1256.5,-123.5"/>
<text text-anchor="middle" x="1336.5" y="-130.5" font-family="Helvetica,sans-Serif" font-size="10.00">Framework/ProcessingContext.h</text>
</g>
<!-- Node13&#45;&gt;Node16 -->
<g id="edge18" class="edge"><title>Node13&#45;&gt;Node16</title>
<path fill="none" stroke="midnightblue" d="M1165.16,-184.975C1200.06,-174.592 1259.15,-157.012 1298,-145.454"/>
<polygon fill="midnightblue" stroke="midnightblue" points="1299.31,-148.715 1307.9,-142.509 1297.32,-142.006 1299.31,-148.715"/>
</g>
<!-- Node17 -->
<g id="node17" class="node"><title>Node17</title>
<g id="a_node17"><a xlink:href="Activity_8h.html" target="_top" xlink:title="QualityControl/Activity.h">
<polygon fill="none" stroke="black" points="799,-123.5 799,-142.5 922,-142.5 922,-123.5 799,-123.5"/>
<text text-anchor="middle" x="860.5" y="-130.5" font-family="Helvetica,sans-Serif" font-size="10.00">QualityControl/Activity.h</text>
</a>
</g>
</g>
<!-- Node13&#45;&gt;Node17 -->
<g id="edge19" class="edge"><title>Node13&#45;&gt;Node17</title>
<path fill="none" stroke="midnightblue" d="M1096.96,-184.975C1047.67,-174.349 963.407,-156.185 909.913,-144.652"/>
<polygon fill="midnightblue" stroke="midnightblue" points="910.484,-141.195 899.971,-142.509 909.009,-148.038 910.484,-141.195"/>
</g>
<!-- Node18 -->
<g id="node18" class="node"><title>Node18</title>
<g id="a_node18"><a xlink:href="ObjectsManager_8h.html" target="_top" xlink:title="QualityControl/ObjectsManager.h">
<polygon fill="none" stroke="black" points="1001,-123.5 1001,-142.5 1162,-142.5 1162,-123.5 1001,-123.5"/>
<text text-anchor="middle" x="1081.5" y="-130.5" font-family="Helvetica,sans-Serif" font-size="10.00">QualityControl/ObjectsManager.h</text>
</a>
</g>
</g>
<!-- Node13&#45;&gt;Node18 -->
<g id="edge20" class="edge"><title>Node13&#45;&gt;Node18</title>
<path fill="none" stroke="midnightblue" d="M1128.62,-184.975C1120.21,-175.873 1106.68,-161.241 1096.27,-149.983"/>
<polygon fill="midnightblue" stroke="midnightblue" points="1098.72,-147.477 1089.37,-142.509 1093.58,-152.228 1098.72,-147.477"/>
</g>
<!-- Node18&#45;&gt;Node10 -->
<g id="edge30" class="edge"><title>Node18&#45;&gt;Node10</title>
<path fill="none" stroke="midnightblue" d="M1119.18,-123.475C1166.05,-112.871 1246.11,-94.7602 1297.1,-83.2244"/>
<polygon fill="midnightblue" stroke="midnightblue" points="1297.91,-86.6295 1306.89,-81.0091 1296.36,-79.802 1297.91,-86.6295"/>
</g>
<!-- Node18&#45;&gt;Node11 -->
<g id="edge31" class="edge"><title>Node18&#45;&gt;Node11</title>
<path fill="none" stroke="midnightblue" d="M1088.04,-123.34C1100.07,-107.923 1127.18,-75.5087 1156.5,-56 1170.39,-46.7593 1210.33,-31.6051 1238.54,-21.4683"/>
<polygon fill="midnightblue" stroke="midnightblue" points="1239.72,-24.7628 1247.97,-18.11 1237.37,-18.1687 1239.72,-24.7628"/>
</g>
<!-- Node18&#45;&gt;Node15 -->
<g id="edge32" class="edge"><title>Node18&#45;&gt;Node15</title>
<path fill="none" stroke="midnightblue" d="M1097.26,-123.475C1115.48,-113.622 1145.67,-97.2883 1166.97,-85.7697"/>
<polygon fill="midnightblue" stroke="midnightblue" points="1168.64,-88.8453 1175.77,-81.0091 1165.31,-82.6883 1168.64,-88.8453"/>
</g>
<!-- Node19 -->
<g id="node19" class="node"><title>Node19</title>
<g id="a_node19"><a xlink:href="MonitorObject_8h.html" target="_top" xlink:title="QualityControl/MonitorObject.h">
<polygon fill="none" stroke="black" points="958,-62 958,-81 1109,-81 1109,-62 958,-62"/>
<text text-anchor="middle" x="1033.5" y="-69" font-family="Helvetica,sans-Serif" font-size="10.00">QualityControl/MonitorObject.h</text>
</a>
</g>
</g>
<!-- Node18&#45;&gt;Node19 -->
<g id="edge21" class="edge"><title>Node18&#45;&gt;Node19</title>
<path fill="none" stroke="midnightblue" d="M1074.62,-123.475C1067.35,-114.462 1055.7,-100.025 1046.66,-88.8118"/>
<polygon fill="midnightblue" stroke="midnightblue" points="1049.37,-86.5946 1040.36,-81.0091 1043.92,-90.9898 1049.37,-86.5946"/>
</g>
<!-- Node23 -->
<g id="node23" class="node"><title>Node23</title>
<g id="a_node23"><a xlink:href="MonitorObjectCollection_8h.html" target="_top" xlink:title="QualityControl/MonitorObject\lCollection.h">
<polygon fill="none" stroke="black" points="755,-56.5 755,-86.5 898,-86.5 898,-56.5 755,-56.5"/>
<text text-anchor="start" x="763" y="-74.5" font-family="Helvetica,sans-Serif" font-size="10.00">QualityControl/MonitorObject</text>
<text text-anchor="middle" x="826.5" y="-63.5" font-family="Helvetica,sans-Serif" font-size="10.00">Collection.h</text>
</a>
</g>
</g>
<!-- Node18&#45;&gt;Node23 -->
<g id="edge27" class="edge"><title>Node18&#45;&gt;Node23</title>
<path fill="none" stroke="midnightblue" d="M1044.96,-123.475C1006.39,-114.475 944.649,-100.068 896.625,-88.8624"/>
<polygon fill="midnightblue" stroke="midnightblue" points="897.132,-85.3869 886.598,-86.523 895.542,-92.2038 897.132,-85.3869"/>
</g>
<!-- Node19&#45;&gt;Node11 -->
<g id="edge22" class="edge"><title>Node19&#45;&gt;Node11</title>
<path fill="none" stroke="midnightblue" d="M1071.27,-61.9645C1110.69,-52.8947 1174.51,-37.7649 1238.15,-20.26"/>
<polygon fill="midnightblue" stroke="midnightblue" points="1239.25,-23.589 1247.95,-17.5459 1237.38,-16.8431 1239.25,-23.589"/>
</g>
<!-- Node19&#45;&gt;Node14 -->
<g id="edge23" class="edge"><title>Node19&#45;&gt;Node14</title>
<path fill="none" stroke="midnightblue" d="M1018.17,-61.9751C1000.53,-52.1664 971.34,-35.9346 950.642,-24.425"/>
<polygon fill="midnightblue" stroke="midnightblue" points="952.243,-21.3102 941.802,-19.5091 948.841,-27.4279 952.243,-21.3102"/>
</g>
<!-- Node20 -->
<g id="node20" class="node"><title>Node20</title>
<polygon fill="none" stroke="#bfbfbf" points="1096.5,-0.5 1096.5,-19.5 1152.5,-19.5 1152.5,-0.5 1096.5,-0.5"/>
<text text-anchor="middle" x="1124.5" y="-7.5" font-family="Helvetica,sans-Serif" font-size="10.00">Rtypes.h</text>
</g>
<!-- Node19&#45;&gt;Node20 -->
<g id="edge24" class="edge"><title>Node19&#45;&gt;Node20</title>
<path fill="none" stroke="midnightblue" d="M1046.54,-61.9751C1061.27,-52.3431 1085.47,-36.5175 1103.01,-25.0517"/>
<polygon fill="midnightblue" stroke="midnightblue" points="1105.03,-27.911 1111.49,-19.5091 1101.2,-22.0522 1105.03,-27.911"/>
</g>
<!-- Node21 -->
<g id="node21" class="node"><title>Node21</title>
<polygon fill="none" stroke="#bfbfbf" points="1171,-0.5 1171,-19.5 1230,-19.5 1230,-0.5 1171,-0.5"/>
<text text-anchor="middle" x="1200.5" y="-7.5" font-family="Helvetica,sans-Serif" font-size="10.00">TObject.h</text>
</g>
<!-- Node19&#45;&gt;Node21 -->
<g id="edge25" class="edge"><title>Node19&#45;&gt;Node21</title>
<path fill="none" stroke="midnightblue" d="M1057.43,-61.9751C1086.2,-51.7246 1134.66,-34.4593 1167.1,-22.8994"/>
<polygon fill="midnightblue" stroke="midnightblue" points="1168.37,-26.1624 1176.62,-19.5091 1166.02,-19.5684 1168.37,-26.1624"/>
</g>
<!-- Node22 -->
<g id="node22" class="node"><title>Node22</title>
<polygon fill="none" stroke="#bfbfbf" points="962.5,-0.5 962.5,-19.5 1078.5,-19.5 1078.5,-0.5 962.5,-0.5"/>
<text text-anchor="middle" x="1020.5" y="-7.5" font-family="Helvetica,sans-Serif" font-size="10.00">Common/Exceptions.h</text>
</g>
<!-- Node19&#45;&gt;Node22 -->
<g id="edge26" class="edge"><title>Node19&#45;&gt;Node22</title>
<path fill="none" stroke="midnightblue" d="M1031.64,-61.9751C1029.78,-53.4919 1026.88,-40.2043 1024.5,-29.3222"/>
<polygon fill="midnightblue" stroke="midnightblue" points="1027.91,-28.5315 1022.36,-19.5091 1021.07,-30.0257 1027.91,-28.5315"/>
</g>
<!-- Node24 -->
<g id="node24" class="node"><title>Node24</title>
<polygon fill="none" stroke="#bfbfbf" points="675,-0.5 675,-19.5 744,-19.5 744,-0.5 675,-0.5"/>
<text text-anchor="middle" x="709.5" y="-7.5" font-family="Helvetica,sans-Serif" font-size="10.00">TObjArray.h</text>
</g>
<!-- Node23&#45;&gt;Node24 -->
<g id="edge28" class="edge"><title>Node23&#45;&gt;Node24</title>
<path fill="none" stroke="midnightblue" d="M798.773,-56.3993C779.668,-46.6837 754.442,-33.8551 735.68,-24.3137"/>
<polygon fill="midnightblue" stroke="midnightblue" points="737.025,-21.071 726.525,-19.6578 733.852,-27.3106 737.025,-21.071"/>
</g>
<!-- Node25 -->
<g id="node25" class="node"><title>Node25</title>
<polygon fill="none" stroke="#bfbfbf" points="762.5,-0.5 762.5,-19.5 890.5,-19.5 890.5,-0.5 762.5,-0.5"/>
<text text-anchor="middle" x="826.5" y="-7.5" font-family="Helvetica,sans-Serif" font-size="10.00">Mergers/MergeInterface.h</text>
</g>
<!-- Node23&#45;&gt;Node25 -->
<g id="edge29" class="edge"><title>Node23&#45;&gt;Node25</title>
<path fill="none" stroke="midnightblue" d="M826.5,-56.3993C826.5,-48.4664 826.5,-38.458 826.5,-29.8583"/>
<polygon fill="midnightblue" stroke="midnightblue" points="830,-29.6577 826.5,-19.6578 823,-29.6578 830,-29.6577"/>
</g>
</g>
</svg>
