<?xml version="1.0" encoding="UTF-8" standalone="no"?>
<!DOCTYPE svg PUBLIC "-//W3C//DTD SVG 1.1//EN"
 "http://www.w3.org/Graphics/SVG/1.1/DTD/svg11.dtd">
<!-- Generated by graphviz version 2.38.0 (20140413.2041)
 -->
<!-- Title: Framework/src/TaskRunner.cxx Pages: 1 -->
<!--zoomable 341 -->
<svg id="main" version="1.1" xmlns="http://www.w3.org/2000/svg" xmlns:xlink="http://www.w3.org/1999/xlink" xml:space="preserve" onload="init(evt)">
<style type="text/css"><![CDATA[
.edge:hover path { stroke: red; }
.edge:hover polygon { stroke: red; fill: red; }
]]></style>
<script type="text/javascript"><![CDATA[
var edges = document.getElementsByTagName('g');
if (edges && edges.length) {
  for (var i=0;i<edges.length;i++) {
    if (edges[i].id.substr(0,4)=='edge') {
      edges[i].setAttribute('class','edge');
    }
  }
}
]]></script>
        <defs>
                <circle id="rim" cx="0" cy="0" r="7"/>
                <circle id="rim2" cx="0" cy="0" r="3.5"/>
                <g id="zoomPlus">
                        <use xlink:href="#rim" fill="#404040">
                                <set attributeName="fill" to="#808080" begin="zoomplus.mouseover" end="zoomplus.mouseout"/>
                        </use>
                        <path d="M-4,0h8M0,-4v8" fill="none" stroke="white" stroke-width="1.5" pointer-events="none"/>
                </g>
                <g id="zoomMin">
                        <use xlink:href="#rim" fill="#404040">
                                <set attributeName="fill" to="#808080" begin="zoomminus.mouseover" end="zoomminus.mouseout"/>
                        </use>
                        <path d="M-4,0h8" fill="none" stroke="white" stroke-width="1.5" pointer-events="none"/>
                </g>
                <g id="dirArrow">
                        <path fill="none" stroke="white" stroke-width="1.5" d="M0,-3.0v7 M-2.5,-0.5L0,-3.0L2.5,-0.5"/>
                </g>
               <g id="resetDef">
                       <use xlink:href="#rim2" fill="#404040">
                               <set attributeName="fill" to="#808080" begin="reset.mouseover" end="reset.mouseout"/>
                       </use>
               </g>
        </defs>

<script type="text/javascript">
var viewWidth = 3937;
var viewHeight = 341;
var sectionId = 'dynsection-0';
</script>
<script xlink:href="svgpan.js"/>
<svg id="graph" class="graph">
<g id="viewport">
<title>Framework/src/TaskRunner.cxx</title>
<!-- Node1 -->
<g id="node1" class="node"><title>Node1</title>
<polygon fill="#bfbfbf" stroke="black" points="2551.59,-313.5 2551.59,-332.5 2708.59,-332.5 2708.59,-313.5 2551.59,-313.5"/>
<text text-anchor="middle" x="2630.09" y="-320.5" font-family="Helvetica,sans-Serif" font-size="10.00">Framework/src/TaskRunner.cxx</text>
</g>
<!-- Node2 -->
<g id="node2" class="node"><title>Node2</title>
<g id="a_node2"><a xlink:href="TaskRunner_8h.html" target="_top" xlink:title="QualityControl/TaskRunner.h">
<polygon fill="none" stroke="black" points="549.594,-252 549.594,-271 692.594,-271 692.594,-252 549.594,-252"/>
<text text-anchor="middle" x="621.094" y="-259" font-family="Helvetica,sans-Serif" font-size="10.00">QualityControl/TaskRunner.h</text>
</a>
</g>
</g>
<!-- Node1&#45;&gt;Node2 -->
<g id="edge1" class="edge"><title>Node1&#45;&gt;Node2</title>
<path fill="none" stroke="midnightblue" d="M2551.34,-319.668C2231.17,-310.185 1028.77,-274.574 702.96,-264.925"/>
<polygon fill="midnightblue" stroke="midnightblue" points="702.758,-261.417 692.658,-264.62 702.55,-268.414 702.758,-261.417"/>
</g>
<!-- Node12 -->
<g id="node12" class="node"><title>Node12</title>
<polygon fill="none" stroke="#bfbfbf" points="1787.59,-0.5 1787.59,-19.5 1828.59,-19.5 1828.59,-0.5 1787.59,-0.5"/>
<text text-anchor="middle" x="1808.09" y="-7.5" font-family="Helvetica,sans-Serif" font-size="10.00">string</text>
</g>
<!-- Node1&#45;&gt;Node12 -->
<g id="edge52" class="edge"><title>Node1&#45;&gt;Node12</title>
<path fill="none" stroke="midnightblue" d="M2551.42,-320.613C2398.67,-317.269 2073.24,-306.711 2032.09,-277 2000.27,-254.025 1998.09,-234.748 1998.09,-195.5 1998.09,-195.5 1998.09,-195.5 1998.09,-132 1998.09,-57.3907 1892.57,-26.7838 1838.81,-16.0313"/>
<polygon fill="midnightblue" stroke="midnightblue" points="1839.27,-12.5563 1828.79,-14.1384 1837.97,-19.4345 1839.27,-12.5563"/>
</g>
<!-- Node16 -->
<g id="node16" class="node"><title>Node16</title>
<polygon fill="none" stroke="#bfbfbf" points="1885.09,-62 1885.09,-81 1937.09,-81 1937.09,-62 1885.09,-62"/>
<text text-anchor="middle" x="1911.09" y="-69" font-family="Helvetica,sans-Serif" font-size="10.00">memory</text>
</g>
<!-- Node1&#45;&gt;Node16 -->
<g id="edge34" class="edge"><title>Node1&#45;&gt;Node16</title>
<path fill="none" stroke="midnightblue" d="M2551.55,-321.282C2389.26,-319.122 2028.35,-310.559 1984.09,-277 1924.24,-231.615 1913.33,-132.982 1911.44,-91.4928"/>
<polygon fill="midnightblue" stroke="midnightblue" points="1914.94,-91.2789 1911.11,-81.3979 1907.94,-91.5064 1914.94,-91.2789"/>
</g>
<!-- Node23 -->
<g id="node23" class="node"><title>Node23</title>
<polygon fill="none" stroke="#bfbfbf" points="1912.09,-0.5 1912.09,-19.5 2028.09,-19.5 2028.09,-0.5 1912.09,-0.5"/>
<text text-anchor="middle" x="1970.09" y="-7.5" font-family="Helvetica,sans-Serif" font-size="10.00">Common/Exceptions.h</text>
</g>
<!-- Node1&#45;&gt;Node23 -->
<g id="edge35" class="edge"><title>Node1&#45;&gt;Node23</title>
<path fill="none" stroke="midnightblue" d="M2551.44,-320.925C2402.74,-318.162 2091.9,-308.633 2055.09,-277 2026.89,-252.758 2036.09,-232.694 2036.09,-195.5 2036.09,-195.5 2036.09,-195.5 2036.09,-132 2036.09,-96.578 2029.95,-86.5909 2012.09,-56 2005.72,-45.0895 1996.28,-34.6594 1987.96,-26.5927"/>
<polygon fill="midnightblue" stroke="midnightblue" points="1990.18,-23.8759 1980.47,-19.6443 1985.42,-29.0095 1990.18,-23.8759"/>
</g>
<!-- Node27 -->
<g id="node27" class="node"><title>Node27</title>
<polygon fill="none" stroke="#bfbfbf" points="2064.59,-246.5 2064.59,-276.5 2199.59,-276.5 2199.59,-246.5 2064.59,-246.5"/>
<text text-anchor="start" x="2072.59" y="-264.5" font-family="Helvetica,sans-Serif" font-size="10.00">Configuration/Configuration</text>
<text text-anchor="middle" x="2132.09" y="-253.5" font-family="Helvetica,sans-Serif" font-size="10.00">Factory.h</text>
</g>
<!-- Node1&#45;&gt;Node27 -->
<g id="edge36" class="edge"><title>Node1&#45;&gt;Node27</title>
<path fill="none" stroke="midnightblue" d="M2551.29,-315.549C2468.58,-308.335 2334.55,-295.395 2210.09,-277.23"/>
<polygon fill="midnightblue" stroke="midnightblue" points="2210.4,-273.738 2200,-275.743 2209.38,-280.664 2210.4,-273.738"/>
</g>
<!-- Node28 -->
<g id="node28" class="node"><title>Node28</title>
<polygon fill="none" stroke="#bfbfbf" points="2217.59,-252 2217.59,-271 2368.59,-271 2368.59,-252 2217.59,-252"/>
<text text-anchor="middle" x="2293.09" y="-259" font-family="Helvetica,sans-Serif" font-size="10.00">Monitoring/MonitoringFactory.h</text>
</g>
<!-- Node1&#45;&gt;Node28 -->
<g id="edge37" class="edge"><title>Node1&#45;&gt;Node28</title>
<path fill="none" stroke="midnightblue" d="M2581.81,-313.475C2521,-302.739 2416.6,-284.306 2351.4,-272.795"/>
<polygon fill="midnightblue" stroke="midnightblue" points="2351.74,-269.301 2341.29,-271.009 2350.53,-276.195 2351.74,-269.301"/>
</g>
<!-- Node29 -->
<g id="node29" class="node"><title>Node29</title>
<polygon fill="none" stroke="#bfbfbf" points="2386.59,-252 2386.59,-271 2537.59,-271 2537.59,-252 2386.59,-252"/>
<text text-anchor="middle" x="2462.09" y="-259" font-family="Helvetica,sans-Serif" font-size="10.00">DataSampling/DataSampling.h</text>
</g>
<!-- Node1&#45;&gt;Node29 -->
<g id="edge38" class="edge"><title>Node1&#45;&gt;Node29</title>
<path fill="none" stroke="midnightblue" d="M2606.02,-313.475C2577.08,-303.225 2528.33,-285.959 2495.69,-274.399"/>
<polygon fill="midnightblue" stroke="midnightblue" points="2496.71,-271.048 2486.12,-271.009 2494.38,-277.647 2496.71,-271.048"/>
</g>
<!-- Node30 -->
<g id="node30" class="node"><title>Node30</title>
<polygon fill="none" stroke="#bfbfbf" points="2556.09,-252 2556.09,-271 2704.09,-271 2704.09,-252 2556.09,-252"/>
<text text-anchor="middle" x="2630.09" y="-259" font-family="Helvetica,sans-Serif" font-size="10.00">Framework/CallbackService.h</text>
</g>
<!-- Node1&#45;&gt;Node30 -->
<g id="edge39" class="edge"><title>Node1&#45;&gt;Node30</title>
<path fill="none" stroke="midnightblue" d="M2630.09,-313.475C2630.09,-305.08 2630.09,-291.981 2630.09,-281.163"/>
<polygon fill="midnightblue" stroke="midnightblue" points="2633.59,-281.009 2630.09,-271.009 2626.59,-281.009 2633.59,-281.009"/>
</g>
<!-- Node31 -->
<g id="node31" class="node"><title>Node31</title>
<polygon fill="none" stroke="#bfbfbf" points="2722.59,-246.5 2722.59,-276.5 2867.59,-276.5 2867.59,-246.5 2722.59,-246.5"/>
<text text-anchor="start" x="2730.59" y="-264.5" font-family="Helvetica,sans-Serif" font-size="10.00">Framework/CompletionPolicy</text>
<text text-anchor="middle" x="2795.09" y="-253.5" font-family="Helvetica,sans-Serif" font-size="10.00">Helpers.h</text>
</g>
<!-- Node1&#45;&gt;Node31 -->
<g id="edge40" class="edge"><title>Node1&#45;&gt;Node31</title>
<path fill="none" stroke="midnightblue" d="M2653.73,-313.475C2677.86,-304.776 2715.99,-291.026 2746.57,-279.998"/>
<polygon fill="midnightblue" stroke="midnightblue" points="2747.99,-283.208 2756.21,-276.523 2745.61,-276.623 2747.99,-283.208"/>
</g>
<!-- Node32 -->
<g id="node32" class="node"><title>Node32</title>
<polygon fill="none" stroke="#bfbfbf" points="2885.59,-252 2885.59,-271 3028.59,-271 3028.59,-252 2885.59,-252"/>
<text text-anchor="middle" x="2957.09" y="-259" font-family="Helvetica,sans-Serif" font-size="10.00">Framework/TimesliceIndex.h</text>
</g>
<!-- Node1&#45;&gt;Node32 -->
<g id="edge41" class="edge"><title>Node1&#45;&gt;Node32</title>
<path fill="none" stroke="midnightblue" d="M2676.95,-313.475C2735.83,-302.761 2836.83,-284.382 2900.12,-272.866"/>
<polygon fill="midnightblue" stroke="midnightblue" points="2901.12,-276.243 2910.33,-271.009 2899.86,-269.356 2901.12,-276.243"/>
</g>
<!-- Node33 -->
<g id="node33" class="node"><title>Node33</title>
<polygon fill="none" stroke="#bfbfbf" points="3047.09,-252 3047.09,-271 3187.09,-271 3187.09,-252 3047.09,-252"/>
<text text-anchor="middle" x="3117.09" y="-259" font-family="Helvetica,sans-Serif" font-size="10.00">Framework/DataSpecUtils.h</text>
</g>
<!-- Node1&#45;&gt;Node33 -->
<g id="edge42" class="edge"><title>Node1&#45;&gt;Node33</title>
<path fill="none" stroke="midnightblue" d="M2708.7,-314.936C2790.83,-307.175 2923.31,-293.582 3037.09,-277 3045.53,-275.771 3054.43,-274.315 3063.12,-272.808"/>
<polygon fill="midnightblue" stroke="midnightblue" points="3063.94,-276.218 3073.17,-271.026 3062.71,-269.325 3063.94,-276.218"/>
</g>
<!-- Node34 -->
<g id="node34" class="node"><title>Node34</title>
<polygon fill="none" stroke="#bfbfbf" points="3205.09,-246.5 3205.09,-276.5 3339.09,-276.5 3339.09,-246.5 3205.09,-246.5"/>
<text text-anchor="start" x="3213.09" y="-264.5" font-family="Helvetica,sans-Serif" font-size="10.00">Framework/DataDescriptor</text>
<text text-anchor="middle" x="3272.09" y="-253.5" font-family="Helvetica,sans-Serif" font-size="10.00">QueryBuilder.h</text>
</g>
<!-- Node1&#45;&gt;Node34 -->
<g id="edge43" class="edge"><title>Node1&#45;&gt;Node34</title>
<path fill="none" stroke="midnightblue" d="M2708.66,-318.468C2816.19,-313.029 3015.37,-300.796 3194.86,-277.066"/>
<polygon fill="midnightblue" stroke="midnightblue" points="3195.57,-280.503 3205.02,-275.708 3194.65,-273.564 3195.57,-280.503"/>
</g>
<!-- Node35 -->
<g id="node35" class="node"><title>Node35</title>
<polygon fill="none" stroke="#bfbfbf" points="3357.09,-252 3357.09,-271 3527.09,-271 3527.09,-252 3357.09,-252"/>
<text text-anchor="middle" x="3442.09" y="-259" font-family="Helvetica,sans-Serif" font-size="10.00">Framework/ConfigParamRegistry.h</text>
</g>
<!-- Node1&#45;&gt;Node35 -->
<g id="edge44" class="edge"><title>Node1&#45;&gt;Node35</title>
<path fill="none" stroke="midnightblue" d="M2708.65,-319.403C2840.92,-314.51 3116.36,-302.083 3348.09,-277 3359.15,-275.803 3370.9,-274.231 3382.21,-272.566"/>
<polygon fill="midnightblue" stroke="midnightblue" points="3383.08,-275.974 3392.44,-271.018 3382.03,-269.053 3383.08,-275.974"/>
</g>
<!-- Node36 -->
<g id="node36" class="node"><title>Node36</title>
<polygon fill="none" stroke="#bfbfbf" points="3545.59,-252 3545.59,-271 3642.59,-271 3642.59,-252 3545.59,-252"/>
<text text-anchor="middle" x="3594.09" y="-259" font-family="Helvetica,sans-Serif" font-size="10.00">fairlogger/Logger.h</text>
</g>
<!-- Node1&#45;&gt;Node36 -->
<g id="edge45" class="edge"><title>Node1&#45;&gt;Node36</title>
<path fill="none" stroke="midnightblue" d="M2708.78,-320.066C2898.58,-315.082 3377.59,-300.519 3536.09,-277 3542.15,-276.102 3548.48,-274.849 3554.66,-273.452"/>
<polygon fill="midnightblue" stroke="midnightblue" points="3555.91,-276.75 3564.81,-271.002 3554.27,-269.945 3555.91,-276.75"/>
</g>
<!-- Node37 -->
<g id="node37" class="node"><title>Node37</title>
<g id="a_node37"><a xlink:href="QcInfoLogger_8h.html" target="_top" xlink:title="QualityControl/QcInfoLogger.h">
<polygon fill="none" stroke="black" points="3660.59,-252 3660.59,-271 3809.59,-271 3809.59,-252 3660.59,-252"/>
<text text-anchor="middle" x="3735.09" y="-259" font-family="Helvetica,sans-Serif" font-size="10.00">QualityControl/QcInfoLogger.h</text>
</a>
</g>
</g>
<!-- Node1&#45;&gt;Node37 -->
<g id="edge46" class="edge"><title>Node1&#45;&gt;Node37</title>
<path fill="none" stroke="midnightblue" d="M2708.81,-321.926C2880.47,-321.021 3301.15,-314.761 3651.09,-277 3661.14,-275.916 3671.79,-274.38 3682.03,-272.709"/>
<polygon fill="midnightblue" stroke="midnightblue" points="3682.8,-276.128 3692.08,-271.005 3681.63,-269.226 3682.8,-276.128"/>
</g>
<!-- Node39 -->
<g id="node39" class="node"><title>Node39</title>
<g id="a_node39"><a xlink:href="TaskFactory_8h.html" target="_top" xlink:title="QualityControl/TaskFactory.h">
<polygon fill="none" stroke="black" points="1670.59,-252 1670.59,-271 1815.59,-271 1815.59,-252 1670.59,-252"/>
<text text-anchor="middle" x="1743.09" y="-259" font-family="Helvetica,sans-Serif" font-size="10.00">QualityControl/TaskFactory.h</text>
</a>
</g>
</g>
<!-- Node1&#45;&gt;Node39 -->
<g id="edge48" class="edge"><title>Node1&#45;&gt;Node39</title>
<path fill="none" stroke="midnightblue" d="M2551.35,-316.964C2424.08,-308.791 2165.29,-292.039 1946.09,-277 1906.62,-274.292 1862.84,-271.179 1826.08,-268.533"/>
<polygon fill="midnightblue" stroke="midnightblue" points="1826.13,-265.028 1815.9,-267.8 1825.63,-272.01 1826.13,-265.028"/>
</g>
<!-- Node40 -->
<g id="node40" class="node"><title>Node40</title>
<polygon fill="none" stroke="#bfbfbf" points="3827.59,-246.5 3827.59,-276.5 3928.59,-276.5 3928.59,-246.5 3827.59,-246.5"/>
<text text-anchor="start" x="3835.59" y="-264.5" font-family="Helvetica,sans-Serif" font-size="10.00">boost/property_tree</text>
<text text-anchor="middle" x="3878.09" y="-253.5" font-family="Helvetica,sans-Serif" font-size="10.00">/ini_parser.hpp</text>
</g>
<!-- Node1&#45;&gt;Node40 -->
<g id="edge53" class="edge"><title>Node1&#45;&gt;Node40</title>
<path fill="none" stroke="midnightblue" d="M2708.95,-321.062C2935.01,-318.054 3583.53,-307.101 3817.34,-276.842"/>
<polygon fill="midnightblue" stroke="midnightblue" points="3818.05,-280.279 3827.49,-275.479 3817.11,-273.341 3818.05,-280.279"/>
</g>
<!-- Node3 -->
<g id="node3" class="node"><title>Node3</title>
<polygon fill="none" stroke="#bfbfbf" points="16.594,-179.5 16.594,-209.5 117.594,-209.5 117.594,-179.5 16.594,-179.5"/>
<text text-anchor="start" x="24.594" y="-197.5" font-family="Helvetica,sans-Serif" font-size="10.00">boost/property_tree</text>
<text text-anchor="middle" x="67.094" y="-186.5" font-family="Helvetica,sans-Serif" font-size="10.00">/ptree.hpp</text>
</g>
<!-- Node2&#45;&gt;Node3 -->
<g id="edge2" class="edge"><title>Node2&#45;&gt;Node3</title>
<path fill="none" stroke="midnightblue" d="M549.512,-256.231C455.124,-249.923 283.787,-236.131 127.973,-209.987"/>
<polygon fill="midnightblue" stroke="midnightblue" points="128.178,-206.472 117.733,-208.247 127.005,-213.373 128.178,-206.472"/>
</g>
<!-- Node4 -->
<g id="node4" class="node"><title>Node4</title>
<polygon fill="none" stroke="#bfbfbf" points="136.094,-185 136.094,-204 228.094,-204 228.094,-185 136.094,-185"/>
<text text-anchor="middle" x="182.094" y="-192" font-family="Helvetica,sans-Serif" font-size="10.00">Common/Timer.h</text>
</g>
<!-- Node2&#45;&gt;Node4 -->
<g id="edge3" class="edge"><title>Node2&#45;&gt;Node4</title>
<path fill="none" stroke="midnightblue" d="M549.526,-253.834C472.069,-245.981 345.129,-231.256 237.094,-210 232.016,-209.001 226.713,-207.803 221.488,-206.53"/>
<polygon fill="midnightblue" stroke="midnightblue" points="222.174,-203.093 211.62,-204.021 220.449,-209.877 222.174,-203.093"/>
</g>
<!-- Node5 -->
<g id="node5" class="node"><title>Node5</title>
<polygon fill="none" stroke="#bfbfbf" points="246.094,-185 246.094,-204 344.094,-204 344.094,-185 246.094,-185"/>
<text text-anchor="middle" x="295.094" y="-192" font-family="Helvetica,sans-Serif" font-size="10.00">Framework/Task.h</text>
</g>
<!-- Node2&#45;&gt;Node5 -->
<g id="edge4" class="edge"><title>Node2&#45;&gt;Node5</title>
<path fill="none" stroke="midnightblue" d="M571.029,-251.972C517.058,-242.568 428.713,-226.562 353.094,-210 348.089,-208.904 342.859,-207.691 337.675,-206.448"/>
<polygon fill="midnightblue" stroke="midnightblue" points="338.381,-203.018 327.836,-204.042 336.718,-209.817 338.381,-203.018"/>
</g>
<!-- Node6 -->
<g id="node6" class="node"><title>Node6</title>
<polygon fill="none" stroke="#bfbfbf" points="362.094,-185 362.094,-204 526.094,-204 526.094,-185 362.094,-185"/>
<text text-anchor="middle" x="444.094" y="-192" font-family="Helvetica,sans-Serif" font-size="10.00">Framework/DataProcessorSpec.h</text>
</g>
<!-- Node2&#45;&gt;Node6 -->
<g id="edge5" class="edge"><title>Node2&#45;&gt;Node6</title>
<path fill="none" stroke="midnightblue" d="M597.59,-251.869C566.692,-240.522 512.238,-220.525 477.185,-207.652"/>
<polygon fill="midnightblue" stroke="midnightblue" points="478.007,-204.225 467.413,-204.064 475.594,-210.796 478.007,-204.225"/>
</g>
<!-- Node7 -->
<g id="node7" class="node"><title>Node7</title>
<polygon fill="none" stroke="#bfbfbf" points="544.594,-185 544.594,-204 697.594,-204 697.594,-185 544.594,-185"/>
<text text-anchor="middle" x="621.094" y="-192" font-family="Helvetica,sans-Serif" font-size="10.00">Framework/CompletionPolicy.h</text>
</g>
<!-- Node2&#45;&gt;Node7 -->
<g id="edge6" class="edge"><title>Node2&#45;&gt;Node7</title>
<path fill="none" stroke="midnightblue" d="M621.094,-251.734C621.094,-242.183 621.094,-226.618 621.094,-214.283"/>
<polygon fill="midnightblue" stroke="midnightblue" points="624.594,-214.127 621.094,-204.127 617.594,-214.127 624.594,-214.127"/>
</g>
<!-- Node8 -->
<g id="node8" class="node"><title>Node8</title>
<polygon fill="none" stroke="#bfbfbf" points="716.094,-185 716.094,-204 886.094,-204 886.094,-185 716.094,-185"/>
<text text-anchor="middle" x="801.094" y="-192" font-family="Helvetica,sans-Serif" font-size="10.00">Framework/EndOfStreamContext.h</text>
</g>
<!-- Node2&#45;&gt;Node8 -->
<g id="edge7" class="edge"><title>Node2&#45;&gt;Node8</title>
<path fill="none" stroke="midnightblue" d="M644.997,-251.869C676.553,-240.473 732.271,-220.353 767.9,-207.487"/>
<polygon fill="midnightblue" stroke="midnightblue" points="769.162,-210.752 777.379,-204.064 766.785,-204.168 769.162,-210.752"/>
</g>
<!-- Node9 -->
<g id="node9" class="node"><title>Node9</title>
<polygon fill="none" stroke="#bfbfbf" points="904.594,-185 904.594,-204 1021.59,-204 1021.59,-185 904.594,-185"/>
<text text-anchor="middle" x="963.094" y="-192" font-family="Helvetica,sans-Serif" font-size="10.00">Headers/DataHeader.h</text>
</g>
<!-- Node2&#45;&gt;Node9 -->
<g id="edge8" class="edge"><title>Node2&#45;&gt;Node9</title>
<path fill="none" stroke="midnightblue" d="M669.677,-251.967C724.51,-242.238 816.339,-225.651 895.094,-210 901.232,-208.78 907.673,-207.46 914.042,-206.129"/>
<polygon fill="midnightblue" stroke="midnightblue" points="914.875,-209.531 923.938,-204.044 913.431,-202.681 914.875,-209.531"/>
</g>
<!-- Node10 -->
<g id="node10" class="node"><title>Node10</title>
<polygon fill="none" stroke="#bfbfbf" points="1078.59,-123.5 1078.59,-142.5 1203.59,-142.5 1203.59,-123.5 1078.59,-123.5"/>
<text text-anchor="middle" x="1141.09" y="-130.5" font-family="Helvetica,sans-Serif" font-size="10.00">Framework/InitContext.h</text>
</g>
<!-- Node2&#45;&gt;Node10 -->
<g id="edge9" class="edge"><title>Node2&#45;&gt;Node10</title>
<path fill="none" stroke="midnightblue" d="M549.564,-259.936C395.49,-257.977 43.2128,-249.211 7.09397,-210 -2.24056,-199.866 -2.45329,-188.934 7.09397,-179 43.8981,-140.706 823.41,-134.996 1068.21,-134.147"/>
<polygon fill="midnightblue" stroke="midnightblue" points="1068.44,-137.647 1078.42,-134.114 1068.41,-130.647 1068.44,-137.647"/>
</g>
<!-- Node11 -->
<g id="node11" class="node"><title>Node11</title>
<g id="a_node11"><a xlink:href="TaskConfig_8h.html" target="_top" xlink:title="QualityControl/TaskConfig.h">
<polygon fill="none" stroke="black" points="1470.09,-62 1470.09,-81 1610.09,-81 1610.09,-62 1470.09,-62"/>
<text text-anchor="middle" x="1540.09" y="-69" font-family="Helvetica,sans-Serif" font-size="10.00">QualityControl/TaskConfig.h</text>
</a>
</g>
</g>
<!-- Node2&#45;&gt;Node11 -->
<g id="edge10" class="edge"><title>Node2&#45;&gt;Node11</title>
<path fill="none" stroke="midnightblue" d="M692.854,-259.932C795.624,-257.757 978.081,-248.413 1030.09,-210 1064.18,-184.827 1034.81,-147.899 1069.09,-123 1099.99,-100.563 1333.95,-84.1022 1460.08,-76.7553"/>
<polygon fill="midnightblue" stroke="midnightblue" points="1460.3,-80.2484 1470.08,-76.1785 1459.9,-73.26 1460.3,-80.2484"/>
</g>
<!-- Node14 -->
<g id="node14" class="node"><title>Node14</title>
<g id="a_node14"><a xlink:href="TaskInterface_8h.html" target="_top" xlink:title="QualityControl/TaskInterface.h">
<polygon fill="none" stroke="black" points="1376.09,-185 1376.09,-204 1526.09,-204 1526.09,-185 1376.09,-185"/>
<text text-anchor="middle" x="1451.09" y="-192" font-family="Helvetica,sans-Serif" font-size="10.00">QualityControl/TaskInterface.h</text>
</a>
</g>
</g>
<!-- Node2&#45;&gt;Node14 -->
<g id="edge13" class="edge"><title>Node2&#45;&gt;Node14</title>
<path fill="none" stroke="midnightblue" d="M692.938,-254.874C845.689,-242.911 1202.12,-214.998 1365.96,-202.167"/>
<polygon fill="midnightblue" stroke="midnightblue" points="1366.3,-205.652 1375.99,-201.381 1365.75,-198.673 1366.3,-205.652"/>
</g>
<!-- Node11&#45;&gt;Node12 -->
<g id="edge11" class="edge"><title>Node11&#45;&gt;Node12</title>
<path fill="none" stroke="midnightblue" d="M1578.49,-61.9751C1632.16,-50.0603 1728.51,-28.6679 1777.58,-17.7744"/>
<polygon fill="midnightblue" stroke="midnightblue" points="1778.58,-21.1382 1787.58,-15.5539 1777.06,-14.3046 1778.58,-21.1382"/>
</g>
<!-- Node13 -->
<g id="node13" class="node"><title>Node13</title>
<polygon fill="none" stroke="#bfbfbf" points="1307.59,-0.5 1307.59,-19.5 1390.59,-19.5 1390.59,-0.5 1307.59,-0.5"/>
<text text-anchor="middle" x="1349.09" y="-7.5" font-family="Helvetica,sans-Serif" font-size="10.00">unordered_map</text>
</g>
<!-- Node11&#45;&gt;Node13 -->
<g id="edge12" class="edge"><title>Node11&#45;&gt;Node13</title>
<path fill="none" stroke="midnightblue" d="M1512.73,-61.9751C1479.54,-51.6362 1423.44,-34.1611 1386.34,-22.6017"/>
<polygon fill="midnightblue" stroke="midnightblue" points="1387,-19.1417 1376.41,-19.5091 1384.92,-25.825 1387,-19.1417"/>
</g>
<!-- Node14&#45;&gt;Node10 -->
<g id="edge18" class="edge"><title>Node14&#45;&gt;Node10</title>
<path fill="none" stroke="midnightblue" d="M1406.68,-184.975C1350.97,-174.283 1255.5,-155.958 1195.47,-144.437"/>
<polygon fill="midnightblue" stroke="midnightblue" points="1195.91,-140.957 1185.43,-142.509 1194.59,-147.831 1195.91,-140.957"/>
</g>
<!-- Node14&#45;&gt;Node12 -->
<g id="edge16" class="edge"><title>Node14&#45;&gt;Node12</title>
<path fill="none" stroke="midnightblue" d="M1526.34,-188.612C1630.13,-181.091 1806.69,-165.192 1826.09,-143 1854.16,-110.9 1832.47,-56.5758 1818.13,-28.6849"/>
<polygon fill="midnightblue" stroke="midnightblue" points="1821.11,-26.838 1813.28,-19.6954 1814.95,-30.1589 1821.11,-26.838"/>
</g>
<!-- Node14&#45;&gt;Node13 -->
<g id="edge17" class="edge"><title>Node14&#45;&gt;Node13</title>
<path fill="none" stroke="midnightblue" d="M1398.08,-184.93C1353.35,-176.489 1294.36,-162.092 1280.09,-143 1251.21,-104.353 1301.08,-51.9221 1330.25,-26.3289"/>
<polygon fill="midnightblue" stroke="midnightblue" points="1332.84,-28.72 1338.19,-19.5735 1328.31,-23.3892 1332.84,-28.72"/>
</g>
<!-- Node15 -->
<g id="node15" class="node"><title>Node15</title>
<polygon fill="none" stroke="#bfbfbf" points="1512.59,-0.5 1512.59,-19.5 1547.59,-19.5 1547.59,-0.5 1512.59,-0.5"/>
<text text-anchor="middle" x="1530.09" y="-7.5" font-family="Helvetica,sans-Serif" font-size="10.00">map</text>
</g>
<!-- Node14&#45;&gt;Node15 -->
<g id="edge14" class="edge"><title>Node14&#45;&gt;Node15</title>
<path fill="none" stroke="midnightblue" d="M1375.89,-186.879C1322.64,-178.854 1264.68,-161.271 1289.09,-123 1337.03,-47.8564 1449.87,-22.3434 1502.35,-14.3476"/>
<polygon fill="midnightblue" stroke="midnightblue" points="1502.89,-17.8063 1512.29,-12.9339 1501.9,-10.8759 1502.89,-17.8063"/>
</g>
<!-- Node14&#45;&gt;Node16 -->
<g id="edge15" class="edge"><title>Node14&#45;&gt;Node16</title>
<path fill="none" stroke="midnightblue" d="M1526.17,-191.331C1628.46,-187.187 1805.2,-175.439 1860.09,-143 1880.56,-130.908 1895.13,-107.048 1903.33,-90.4535"/>
<polygon fill="midnightblue" stroke="midnightblue" points="1906.57,-91.775 1907.6,-81.2301 1900.22,-88.8323 1906.57,-91.775"/>
</g>
<!-- Node17 -->
<g id="node17" class="node"><title>Node17</title>
<polygon fill="none" stroke="#bfbfbf" points="1298.09,-123.5 1298.09,-142.5 1458.09,-142.5 1458.09,-123.5 1298.09,-123.5"/>
<text text-anchor="middle" x="1378.09" y="-130.5" font-family="Helvetica,sans-Serif" font-size="10.00">Framework/ProcessingContext.h</text>
</g>
<!-- Node14&#45;&gt;Node17 -->
<g id="edge19" class="edge"><title>Node14&#45;&gt;Node17</title>
<path fill="none" stroke="midnightblue" d="M1440.63,-184.975C1429.14,-175.608 1410.46,-160.384 1396.51,-149.008"/>
<polygon fill="midnightblue" stroke="midnightblue" points="1398.5,-146.114 1388.53,-142.509 1394.07,-151.54 1398.5,-146.114"/>
</g>
<!-- Node18 -->
<g id="node18" class="node"><title>Node18</title>
<g id="a_node18"><a xlink:href="Activity_8h.html" target="_top" xlink:title="QualityControl/Activity.h">
<polygon fill="none" stroke="black" points="1476.59,-123.5 1476.59,-142.5 1599.59,-142.5 1599.59,-123.5 1476.59,-123.5"/>
<text text-anchor="middle" x="1538.09" y="-130.5" font-family="Helvetica,sans-Serif" font-size="10.00">QualityControl/Activity.h</text>
</a>
</g>
</g>
<!-- Node14&#45;&gt;Node18 -->
<g id="edge20" class="edge"><title>Node14&#45;&gt;Node18</title>
<path fill="none" stroke="midnightblue" d="M1463.56,-184.975C1477.51,-175.431 1500.36,-159.807 1517.08,-148.368"/>
<polygon fill="midnightblue" stroke="midnightblue" points="1519.37,-151.043 1525.65,-142.509 1515.42,-145.265 1519.37,-151.043"/>
</g>
<!-- Node19 -->
<g id="node19" class="node"><title>Node19</title>
<g id="a_node19"><a xlink:href="ObjectsManager_8h.html" target="_top" xlink:title="QualityControl/ObjectsManager.h">
<polygon fill="none" stroke="black" points="1656.59,-123.5 1656.59,-142.5 1817.59,-142.5 1817.59,-123.5 1656.59,-123.5"/>
<text text-anchor="middle" x="1737.09" y="-130.5" font-family="Helvetica,sans-Serif" font-size="10.00">QualityControl/ObjectsManager.h</text>
</a>
</g>
</g>
<!-- Node14&#45;&gt;Node19 -->
<g id="edge21" class="edge"><title>Node14&#45;&gt;Node19</title>
<path fill="none" stroke="midnightblue" d="M1492.07,-184.975C1543.25,-174.327 1630.82,-156.109 1686.24,-144.581"/>
<polygon fill="midnightblue" stroke="midnightblue" points="1687.12,-147.973 1696.19,-142.509 1685.69,-141.119 1687.12,-147.973"/>
</g>
<!-- Node19&#45;&gt;Node11 -->
<g id="edge31" class="edge"><title>Node19&#45;&gt;Node11</title>
<path fill="none" stroke="midnightblue" d="M1708.87,-123.475C1674.49,-113.092 1616.28,-95.5116 1578.02,-83.9538"/>
<polygon fill="midnightblue" stroke="midnightblue" points="1578.85,-80.5499 1568.27,-81.0091 1576.83,-87.251 1578.85,-80.5499"/>
</g>
<!-- Node19&#45;&gt;Node12 -->
<g id="edge32" class="edge"><title>Node19&#45;&gt;Node12</title>
<path fill="none" stroke="midnightblue" d="M1750.84,-123.318C1762.46,-115.277 1778.67,-102.277 1788.09,-87 1798.93,-69.4314 1803.94,-46.0867 1806.23,-29.9277"/>
<polygon fill="midnightblue" stroke="midnightblue" points="1809.75,-29.9609 1807.46,-19.6168 1802.8,-29.132 1809.75,-29.9609"/>
</g>
<!-- Node19&#45;&gt;Node16 -->
<g id="edge33" class="edge"><title>Node19&#45;&gt;Node16</title>
<path fill="none" stroke="midnightblue" d="M1762.02,-123.475C1792.13,-113.18 1842.93,-95.8103 1876.73,-84.2502"/>
<polygon fill="midnightblue" stroke="midnightblue" points="1877.88,-87.5565 1886.21,-81.0091 1875.62,-80.933 1877.88,-87.5565"/>
</g>
<!-- Node20 -->
<g id="node20" class="node"><title>Node20</title>
<g id="a_node20"><a xlink:href="MonitorObject_8h.html" target="_top" xlink:title="QualityControl/MonitorObject.h">
<polygon fill="none" stroke="black" points="1628.59,-62 1628.59,-81 1779.59,-81 1779.59,-62 1628.59,-62"/>
<text text-anchor="middle" x="1704.09" y="-69" font-family="Helvetica,sans-Serif" font-size="10.00">QualityControl/MonitorObject.h</text>
</a>
</g>
</g>
<!-- Node19&#45;&gt;Node20 -->
<g id="edge22" class="edge"><title>Node19&#45;&gt;Node20</title>
<path fill="none" stroke="midnightblue" d="M1732.37,-123.475C1727.51,-114.727 1719.83,-100.869 1713.69,-89.8093"/>
<polygon fill="midnightblue" stroke="midnightblue" points="1716.72,-88.0566 1708.81,-81.0091 1710.6,-91.4517 1716.72,-88.0566"/>
</g>
<!-- Node24 -->
<g id="node24" class="node"><title>Node24</title>
<g id="a_node24"><a xlink:href="MonitorObjectCollection_8h.html" target="_top" xlink:title="QualityControl/MonitorObject\lCollection.h">
<polygon fill="none" stroke="black" points="1060.59,-56.5 1060.59,-86.5 1203.59,-86.5 1203.59,-56.5 1060.59,-56.5"/>
<text text-anchor="start" x="1068.59" y="-74.5" font-family="Helvetica,sans-Serif" font-size="10.00">QualityControl/MonitorObject</text>
<text text-anchor="middle" x="1132.09" y="-63.5" font-family="Helvetica,sans-Serif" font-size="10.00">Collection.h</text>
</a>
</g>
</g>
<!-- Node19&#45;&gt;Node24 -->
<g id="edge28" class="edge"><title>Node19&#45;&gt;Node24</title>
<path fill="none" stroke="midnightblue" d="M1656.44,-124.068C1541.05,-112.72 1330.01,-91.9643 1213.96,-80.5508"/>
<polygon fill="midnightblue" stroke="midnightblue" points="1214.01,-77.0391 1203.71,-79.5434 1213.32,-84.0055 1214.01,-77.0391"/>
</g>
<!-- Node20&#45;&gt;Node12 -->
<g id="edge23" class="edge"><title>Node20&#45;&gt;Node12</title>
<path fill="none" stroke="midnightblue" d="M1718.99,-61.9751C1736.06,-52.2106 1764.26,-36.0807 1784.36,-24.5808"/>
<polygon fill="midnightblue" stroke="midnightblue" points="1786.28,-27.513 1793.22,-19.5091 1782.8,-21.4371 1786.28,-27.513"/>
</g>
<!-- Node20&#45;&gt;Node15 -->
<g id="edge24" class="edge"><title>Node20&#45;&gt;Node15</title>
<path fill="none" stroke="midnightblue" d="M1679.16,-61.9751C1646.97,-50.9674 1591.13,-31.8704 1557.69,-20.4363"/>
<polygon fill="midnightblue" stroke="midnightblue" points="1558.68,-17.0752 1548.08,-17.1513 1556.41,-23.6987 1558.68,-17.0752"/>
</g>
<!-- Node21 -->
<g id="node21" class="node"><title>Node21</title>
<polygon fill="none" stroke="#bfbfbf" points="1695.09,-0.5 1695.09,-19.5 1751.09,-19.5 1751.09,-0.5 1695.09,-0.5"/>
<text text-anchor="middle" x="1723.09" y="-7.5" font-family="Helvetica,sans-Serif" font-size="10.00">Rtypes.h</text>
</g>
<!-- Node20&#45;&gt;Node21 -->
<g id="edge25" class="edge"><title>Node20&#45;&gt;Node21</title>
<path fill="none" stroke="midnightblue" d="M1706.82,-61.9751C1709.53,-53.4919 1713.77,-40.2043 1717.24,-29.3222"/>
<polygon fill="midnightblue" stroke="midnightblue" points="1720.67,-30.0999 1720.38,-19.5091 1714,-27.9705 1720.67,-30.0999"/>
</g>
<!-- Node22 -->
<g id="node22" class="node"><title>Node22</title>
<polygon fill="none" stroke="#bfbfbf" points="1617.59,-0.5 1617.59,-19.5 1676.59,-19.5 1676.59,-0.5 1617.59,-0.5"/>
<text text-anchor="middle" x="1647.09" y="-7.5" font-family="Helvetica,sans-Serif" font-size="10.00">TObject.h</text>
</g>
<!-- Node20&#45;&gt;Node22 -->
<g id="edge26" class="edge"><title>Node20&#45;&gt;Node22</title>
<path fill="none" stroke="midnightblue" d="M1695.93,-61.9751C1687.21,-52.8733 1673.19,-38.241 1662.41,-26.983"/>
<polygon fill="midnightblue" stroke="midnightblue" points="1664.69,-24.309 1655.25,-19.5091 1659.64,-29.1515 1664.69,-24.309"/>
</g>
<!-- Node20&#45;&gt;Node23 -->
<g id="edge27" class="edge"><title>Node20&#45;&gt;Node23</title>
<path fill="none" stroke="midnightblue" d="M1742.21,-61.9751C1789.61,-51.3711 1870.58,-33.2602 1922.15,-21.7244"/>
<polygon fill="midnightblue" stroke="midnightblue" points="1923.06,-25.1077 1932.05,-19.5091 1921.53,-18.2765 1923.06,-25.1077"/>
</g>
<!-- Node25 -->
<g id="node25" class="node"><title>Node25</title>
<polygon fill="none" stroke="#bfbfbf" points="1039.59,-0.5 1039.59,-19.5 1108.59,-19.5 1108.59,-0.5 1039.59,-0.5"/>
<text text-anchor="middle" x="1074.09" y="-7.5" font-family="Helvetica,sans-Serif" font-size="10.00">TObjArray.h</text>
</g>
<!-- Node24&#45;&gt;Node25 -->
<g id="edge29" class="edge"><title>Node24&#45;&gt;Node25</title>
<path fill="none" stroke="midnightblue" d="M1118.35,-56.3993C1109.75,-47.575 1098.64,-36.1827 1089.71,-27.0178"/>
<polygon fill="midnightblue" stroke="midnightblue" points="1092.02,-24.3755 1082.53,-19.6578 1087.01,-29.2616 1092.02,-24.3755"/>
</g>
<!-- Node26 -->
<g id="node26" class="node"><title>Node26</title>
<polygon fill="none" stroke="#bfbfbf" points="1127.09,-0.5 1127.09,-19.5 1255.09,-19.5 1255.09,-0.5 1127.09,-0.5"/>
<text text-anchor="middle" x="1191.09" y="-7.5" font-family="Helvetica,sans-Serif" font-size="10.00">Mergers/MergeInterface.h</text>
</g>
<!-- Node24&#45;&gt;Node26 -->
<g id="edge30" class="edge"><title>Node24&#45;&gt;Node26</title>
<path fill="none" stroke="midnightblue" d="M1146.08,-56.3993C1154.83,-47.575 1166.12,-36.1827 1175.21,-27.0178"/>
<polygon fill="midnightblue" stroke="midnightblue" points="1177.95,-29.2231 1182.51,-19.6578 1172.98,-24.2942 1177.95,-29.2231"/>
</g>
<!-- Node38 -->
<g id="node38" class="node"><title>Node38</title>
<polygon fill="none" stroke="#bfbfbf" points="3670.09,-185 3670.09,-204 3800.09,-204 3800.09,-185 3670.09,-185"/>
<text text-anchor="middle" x="3735.09" y="-192" font-family="Helvetica,sans-Serif" font-size="10.00">InfoLogger/InfoLogger.hxx</text>
</g>
<!-- Node37&#45;&gt;Node38 -->
<g id="edge47" class="edge"><title>Node37&#45;&gt;Node38</title>
<path fill="none" stroke="midnightblue" d="M3735.09,-251.734C3735.09,-242.183 3735.09,-226.618 3735.09,-214.283"/>
<polygon fill="midnightblue" stroke="midnightblue" points="3738.59,-214.127 3735.09,-204.127 3731.59,-214.127 3738.59,-214.127"/>
</g>
<!-- Node39&#45;&gt;Node11 -->
<g id="edge50" class="edge"><title>Node39&#45;&gt;Node11</title>
<path fill="none" stroke="midnightblue" d="M1735.6,-251.994C1715.81,-229.718 1660.06,-168.269 1608.09,-123 1593.09,-109.926 1574.94,-96.5598 1561.17,-86.8654"/>
<polygon fill="midnightblue" stroke="midnightblue" points="1563.04,-83.9008 1552.83,-81.065 1559.04,-89.6478 1563.04,-83.9008"/>
</g>
<!-- Node39&#45;&gt;Node14 -->
<g id="edge51" class="edge"><title>Node39&#45;&gt;Node14</title>
<path fill="none" stroke="midnightblue" d="M1704.62,-251.936C1651.88,-240.196 1557.14,-219.105 1499.6,-206.297"/>
<polygon fill="midnightblue" stroke="midnightblue" points="1500.17,-202.84 1489.65,-204.083 1498.65,-209.673 1500.17,-202.84"/>
</g>
<!-- Node39&#45;&gt;Node16 -->
<g id="edge49" class="edge"><title>Node39&#45;&gt;Node16</title>
<path fill="none" stroke="midnightblue" d="M1758.17,-251.81C1786.81,-234.586 1849.39,-193.39 1885.09,-143 1896.15,-127.393 1903.07,-106.536 1906.97,-91.5637"/>
<polygon fill="midnightblue" stroke="midnightblue" points="1910.46,-91.9839 1909.37,-81.4453 1903.65,-90.3639 1910.46,-91.9839"/>
</g>
</g>
</svg>
        <g id="navigator" transform="translate(0 0)" fill="#404254">
                <rect fill="#f2f5e9" fill-opacity="0.5" stroke="#606060" stroke-width=".5" x="0" y="0" width="60" height="60"/>
                <use id="zoomplus" xlink:href="#zoomPlus" x="17" y="9" onmousedown="handleZoom(evt,'in')"/>
                <use id="zoomminus" xlink:href="#zoomMin" x="42" y="9" onmousedown="handleZoom(evt,'out')"/>
                <use id="reset" xlink:href="#resetDef" x="30" y="36" onmousedown="handleReset()"/>
                <g id="arrowUp" xlink:href="#dirArrow" transform="translate(30 24)" onmousedown="handlePan(0,-1)">
                  <use xlink:href="#rim" fill="#404040">
                        <set attributeName="fill" to="#808080" begin="arrowUp.mouseover" end="arrowUp.mouseout"/>
                  </use>
                  <path fill="none" stroke="white" stroke-width="1.5" d="M0,-3.0v7 M-2.5,-0.5L0,-3.0L2.5,-0.5"/>
                </g>
                <g id="arrowRight" xlink:href="#dirArrow" transform="rotate(90) translate(36 -43)" onmousedown="handlePan(1,0)">
                  <use xlink:href="#rim" fill="#404040">
                        <set attributeName="fill" to="#808080" begin="arrowRight.mouseover" end="arrowRight.mouseout"/>
                  </use>
                  <path fill="none" stroke="white" stroke-width="1.5" d="M0,-3.0v7 M-2.5,-0.5L0,-3.0L2.5,-0.5"/>
                </g>
                <g id="arrowDown" xlink:href="#dirArrow" transform="rotate(180) translate(-30 -48)" onmousedown="handlePan(0,1)">
                  <use xlink:href="#rim" fill="#404040">
                        <set attributeName="fill" to="#808080" begin="arrowDown.mouseover" end="arrowDown.mouseout"/>
                  </use>
                  <path fill="none" stroke="white" stroke-width="1.5" d="M0,-3.0v7 M-2.5,-0.5L0,-3.0L2.5,-0.5"/>
                </g>
                <g id="arrowLeft" xlink:href="#dirArrow" transform="rotate(270) translate(-36 17)" onmousedown="handlePan(-1,0)">
                  <use xlink:href="#rim" fill="#404040">
                        <set attributeName="fill" to="#808080" begin="arrowLeft.mouseover" end="arrowLeft.mouseout"/>
                  </use>
                  <path fill="none" stroke="white" stroke-width="1.5" d="M0,-3.0v7 M-2.5,-0.5L0,-3.0L2.5,-0.5"/>
                </g>
        </g>
        <svg viewBox="0 0 15 15" width="100%" height="30px" preserveAspectRatio="xMaxYMin meet">
         <g id="arrow_out" transform="scale(0.3 0.3)">
          <a xlink:href="TaskRunner_8cxx__incl_org.svg" target="_base">
           <rect id="button" ry="5" rx="5" y="6" x="6" height="38" width="38"
                fill="#f2f5e9" fill-opacity="0.5" stroke="#606060" stroke-width="1.0"/>
           <path id="arrow"
             d="M 11.500037,31.436501 C 11.940474,20.09759 22.043105,11.32322 32.158766,21.979434 L 37.068811,17.246167 C 37.068811,17.246167 37.088388,32 37.088388,32 L 22.160133,31.978069 C 22.160133,31.978069 26.997745,27.140456 26.997745,27.140456 C 18.528582,18.264221 13.291696,25.230495 11.500037,31.436501 z"
             style="fill:#404040;"/>
          </a>
         </g>
        </svg>
</svg>
