<?xml version="1.0" encoding="UTF-8" standalone="no"?>
<!DOCTYPE svg PUBLIC "-//W3C//DTD SVG 1.1//EN"
 "http://www.w3.org/Graphics/SVG/1.1/DTD/svg11.dtd">
<!-- Generated by graphviz version 2.38.0 (20140413.2041)
 -->
<!-- Title: Modules/TOF/include/TOF/TaskDiagnostics.h Pages: 1 -->
<!--zoomable 285 -->
<svg id="main" version="1.1" xmlns="http://www.w3.org/2000/svg" xmlns:xlink="http://www.w3.org/1999/xlink" xml:space="preserve" onload="init(evt)">
<style type="text/css"><![CDATA[
.edge:hover path { stroke: red; }
.edge:hover polygon { stroke: red; fill: red; }
]]></style>
<script type="text/javascript"><![CDATA[
var edges = document.getElementsByTagName('g');
if (edges && edges.length) {
  for (var i=0;i<edges.length;i++) {
    if (edges[i].id.substr(0,4)=='edge') {
      edges[i].setAttribute('class','edge');
    }
  }
}
]]></script>
        <defs>
                <circle id="rim" cx="0" cy="0" r="7"/>
                <circle id="rim2" cx="0" cy="0" r="3.5"/>
                <g id="zoomPlus">
                        <use xlink:href="#rim" fill="#404040">
                                <set attributeName="fill" to="#808080" begin="zoomplus.mouseover" end="zoomplus.mouseout"/>
                        </use>
                        <path d="M-4,0h8M0,-4v8" fill="none" stroke="white" stroke-width="1.5" pointer-events="none"/>
                </g>
                <g id="zoomMin">
                        <use xlink:href="#rim" fill="#404040">
                                <set attributeName="fill" to="#808080" begin="zoomminus.mouseover" end="zoomminus.mouseout"/>
                        </use>
                        <path d="M-4,0h8" fill="none" stroke="white" stroke-width="1.5" pointer-events="none"/>
                </g>
                <g id="dirArrow">
                        <path fill="none" stroke="white" stroke-width="1.5" d="M0,-3.0v7 M-2.5,-0.5L0,-3.0L2.5,-0.5"/>
                </g>
               <g id="resetDef">
                       <use xlink:href="#rim2" fill="#404040">
                               <set attributeName="fill" to="#808080" begin="reset.mouseover" end="reset.mouseout"/>
                       </use>
               </g>
        </defs>

<script type="text/javascript">
var viewWidth = 1220;
var viewHeight = 285;
var sectionId = 'dynsection-0';
</script>
<script xlink:href="svgpan.js"/>
<svg id="graph" class="graph">
<g id="viewport">
<title>Modules/TOF/include/TOF/TaskDiagnostics.h</title>
<!-- Node1 -->
<g id="node1" class="node"><title>Node1</title>
<polygon fill="#bfbfbf" stroke="black" points="491.5,-246.5 491.5,-276.5 615.5,-276.5 615.5,-246.5 491.5,-246.5"/>
<text text-anchor="start" x="499.5" y="-264.5" font-family="Helvetica,sans-Serif" font-size="10.00">Modules/TOF/include</text>
<text text-anchor="middle" x="553.5" y="-253.5" font-family="Helvetica,sans-Serif" font-size="10.00">/TOF/TaskDiagnostics.h</text>
</g>
<!-- Node2 -->
<g id="node2" class="node"><title>Node2</title>
<polygon fill="none" stroke="#bfbfbf" points="233.5,-179.5 233.5,-209.5 375.5,-209.5 375.5,-179.5 233.5,-179.5"/>
<text text-anchor="start" x="241.5" y="-197.5" font-family="Helvetica,sans-Serif" font-size="10.00">TOFReconstruction/Decoder</text>
<text text-anchor="middle" x="304.5" y="-186.5" font-family="Helvetica,sans-Serif" font-size="10.00">Base.h</text>
</g>
<!-- Node1&#45;&gt;Node2 -->
<g id="edge1" class="edge"><title>Node1&#45;&gt;Node2</title>
<path fill="none" stroke="midnightblue" d="M499.777,-246.476C461.211,-236.408 409.076,-222.799 368.376,-212.174"/>
<polygon fill="midnightblue" stroke="midnightblue" points="369.115,-208.75 358.556,-209.611 367.347,-215.523 369.115,-208.75"/>
</g>
<!-- Node3 -->
<g id="node3" class="node"><title>Node3</title>
<polygon fill="none" stroke="#bfbfbf" points="393.5,-179.5 393.5,-209.5 545.5,-209.5 545.5,-179.5 393.5,-179.5"/>
<text text-anchor="start" x="401.5" y="-197.5" font-family="Helvetica,sans-Serif" font-size="10.00">DataFormatsTOF/Compressed</text>
<text text-anchor="middle" x="469.5" y="-186.5" font-family="Helvetica,sans-Serif" font-size="10.00">DataFormat.h</text>
</g>
<!-- Node1&#45;&gt;Node3 -->
<g id="edge2" class="edge"><title>Node1&#45;&gt;Node3</title>
<path fill="none" stroke="midnightblue" d="M535.273,-246.396C523.715,-237.452 508.576,-225.737 495.736,-215.802"/>
<polygon fill="midnightblue" stroke="midnightblue" points="497.742,-212.928 487.691,-209.577 493.458,-218.464 497.742,-212.928"/>
</g>
<!-- Node4 -->
<g id="node4" class="node"><title>Node4</title>
<g id="a_node4"><a xlink:href="TaskInterface_8h.html" target="_top" xlink:title="QualityControl/TaskInterface.h">
<polygon fill="none" stroke="black" points="563.5,-185 563.5,-204 713.5,-204 713.5,-185 563.5,-185"/>
<text text-anchor="middle" x="638.5" y="-192" font-family="Helvetica,sans-Serif" font-size="10.00">QualityControl/TaskInterface.h</text>
</a>
</g>
</g>
<!-- Node1&#45;&gt;Node4 -->
<g id="edge3" class="edge"><title>Node1&#45;&gt;Node4</title>
<path fill="none" stroke="midnightblue" d="M571.944,-246.396C585.853,-235.759 604.889,-221.203 619.04,-210.381"/>
<polygon fill="midnightblue" stroke="midnightblue" points="621.313,-213.049 627.13,-204.195 617.061,-207.489 621.313,-213.049"/>
</g>
<!-- Node21 -->
<g id="node21" class="node"><title>Node21</title>
<g id="a_node21"><a xlink:href="Counter_8h.html" target="_top" xlink:title="Utilities to count events and fill histograms at the end of the main processing loops. ">
<polygon fill="none" stroke="black" points="989,-185 989,-204 1074,-204 1074,-185 989,-185"/>
<text text-anchor="middle" x="1031.5" y="-192" font-family="Helvetica,sans-Serif" font-size="10.00">Base/Counter.h</text>
</a>
</g>
</g>
<!-- Node1&#45;&gt;Node21 -->
<g id="edge26" class="edge"><title>Node1&#45;&gt;Node21</title>
<path fill="none" stroke="midnightblue" d="M615.5,-252.069C710.265,-239.183 889.494,-214.81 978.537,-202.702"/>
<polygon fill="midnightblue" stroke="midnightblue" points="979.241,-206.139 988.678,-201.323 978.298,-199.202 979.241,-206.139"/>
</g>
<!-- Node5 -->
<g id="node5" class="node"><title>Node5</title>
<polygon fill="none" stroke="#bfbfbf" points="590,-0.5 590,-19.5 625,-19.5 625,-0.5 590,-0.5"/>
<text text-anchor="middle" x="607.5" y="-7.5" font-family="Helvetica,sans-Serif" font-size="10.00">map</text>
</g>
<!-- Node4&#45;&gt;Node5 -->
<g id="edge4" class="edge"><title>Node4&#45;&gt;Node5</title>
<path fill="none" stroke="midnightblue" d="M642.187,-184.714C651.023,-162.279 671.324,-101.445 652.5,-56 647.58,-44.121 637.833,-33.7428 628.666,-25.9557"/>
<polygon fill="midnightblue" stroke="midnightblue" points="630.583,-23.0101 620.564,-19.5641 626.247,-28.5058 630.583,-23.0101"/>
</g>
<!-- Node6 -->
<g id="node6" class="node"><title>Node6</title>
<polygon fill="none" stroke="#bfbfbf" points="31.5,-62 31.5,-81 83.5,-81 83.5,-62 31.5,-62"/>
<text text-anchor="middle" x="57.5" y="-69" font-family="Helvetica,sans-Serif" font-size="10.00">memory</text>
</g>
<!-- Node4&#45;&gt;Node6 -->
<g id="edge5" class="edge"><title>Node4&#45;&gt;Node6</title>
<path fill="none" stroke="midnightblue" d="M589.978,-184.966C529.997,-174.14 431.553,-155.391 396.5,-143 378.134,-136.508 376.084,-128.839 357.5,-123 244.106,-87.3711 207.245,-118.003 92.5,-87 90.0554,-86.3395 87.5545,-85.5497 85.0696,-84.6845"/>
<polygon fill="midnightblue" stroke="midnightblue" points="86.3069,-81.4105 75.717,-81.0873 83.794,-87.9439 86.3069,-81.4105"/>
</g>
<!-- Node7 -->
<g id="node7" class="node"><title>Node7</title>
<polygon fill="none" stroke="#bfbfbf" points="520,-0.5 520,-19.5 561,-19.5 561,-0.5 520,-0.5"/>
<text text-anchor="middle" x="540.5" y="-7.5" font-family="Helvetica,sans-Serif" font-size="10.00">string</text>
</g>
<!-- Node4&#45;&gt;Node7 -->
<g id="edge6" class="edge"><title>Node4&#45;&gt;Node7</title>
<path fill="none" stroke="midnightblue" d="M639.752,-184.856C642.629,-161.713 647.467,-97.3065 619.5,-56 608.034,-39.0648 587.937,-27.7448 570.883,-20.6943"/>
<polygon fill="midnightblue" stroke="midnightblue" points="571.873,-17.3257 561.282,-17.0262 569.375,-23.8647 571.873,-17.3257"/>
</g>
<!-- Node8 -->
<g id="node8" class="node"><title>Node8</title>
<polygon fill="none" stroke="#bfbfbf" points="663,-0.5 663,-19.5 746,-19.5 746,-0.5 663,-0.5"/>
<text text-anchor="middle" x="704.5" y="-7.5" font-family="Helvetica,sans-Serif" font-size="10.00">unordered_map</text>
</g>
<!-- Node4&#45;&gt;Node8 -->
<g id="edge7" class="edge"><title>Node4&#45;&gt;Node8</title>
<path fill="none" stroke="midnightblue" d="M645.558,-184.72C653.014,-175.038 664.624,-158.74 671.5,-143 688.305,-104.534 697.681,-55.8665 701.844,-29.6952"/>
<polygon fill="midnightblue" stroke="midnightblue" points="705.326,-30.0705 703.356,-19.6604 698.405,-29.0269 705.326,-30.0705"/>
</g>
<!-- Node9 -->
<g id="node9" class="node"><title>Node9</title>
<polygon fill="none" stroke="#bfbfbf" points="743,-123.5 743,-142.5 868,-142.5 868,-123.5 743,-123.5"/>
<text text-anchor="middle" x="805.5" y="-130.5" font-family="Helvetica,sans-Serif" font-size="10.00">Framework/InitContext.h</text>
</g>
<!-- Node4&#45;&gt;Node9 -->
<g id="edge8" class="edge"><title>Node4&#45;&gt;Node9</title>
<path fill="none" stroke="midnightblue" d="M662.427,-184.975C691.197,-174.725 739.656,-157.459 772.102,-145.899"/>
<polygon fill="midnightblue" stroke="midnightblue" points="773.372,-149.162 781.617,-142.509 771.023,-142.568 773.372,-149.162"/>
</g>
<!-- Node10 -->
<g id="node10" class="node"><title>Node10</title>
<polygon fill="none" stroke="#bfbfbf" points="47.5,-123.5 47.5,-142.5 207.5,-142.5 207.5,-123.5 47.5,-123.5"/>
<text text-anchor="middle" x="127.5" y="-130.5" font-family="Helvetica,sans-Serif" font-size="10.00">Framework/ProcessingContext.h</text>
</g>
<!-- Node4&#45;&gt;Node10 -->
<g id="edge9" class="edge"><title>Node4&#45;&gt;Node10</title>
<path fill="none" stroke="midnightblue" d="M592.372,-184.974C580.09,-182.859 566.813,-180.71 554.5,-179 522.114,-174.503 333.545,-155.032 218.093,-143.225"/>
<polygon fill="midnightblue" stroke="midnightblue" points="218.149,-139.713 207.845,-142.178 217.437,-146.677 218.149,-139.713"/>
</g>
<!-- Node11 -->
<g id="node11" class="node"><title>Node11</title>
<g id="a_node11"><a xlink:href="Activity_8h.html" target="_top" xlink:title="QualityControl/Activity.h">
<polygon fill="none" stroke="black" points="226,-123.5 226,-142.5 349,-142.5 349,-123.5 226,-123.5"/>
<text text-anchor="middle" x="287.5" y="-130.5" font-family="Helvetica,sans-Serif" font-size="10.00">QualityControl/Activity.h</text>
</a>
</g>
</g>
<!-- Node4&#45;&gt;Node11 -->
<g id="edge10" class="edge"><title>Node4&#45;&gt;Node11</title>
<path fill="none" stroke="midnightblue" d="M589.202,-184.957C577.808,-182.991 565.733,-180.916 554.5,-179 483.977,-166.97 402.94,-153.34 348.815,-144.263"/>
<polygon fill="midnightblue" stroke="midnightblue" points="349.137,-140.768 338.696,-142.567 347.98,-147.672 349.137,-140.768"/>
</g>
<!-- Node12 -->
<g id="node12" class="node"><title>Node12</title>
<g id="a_node12"><a xlink:href="ObjectsManager_8h.html" target="_top" xlink:title="QualityControl/ObjectsManager.h">
<polygon fill="none" stroke="black" points="406,-123.5 406,-142.5 567,-142.5 567,-123.5 406,-123.5"/>
<text text-anchor="middle" x="486.5" y="-130.5" font-family="Helvetica,sans-Serif" font-size="10.00">QualityControl/ObjectsManager.h</text>
</a>
</g>
</g>
<!-- Node4&#45;&gt;Node12 -->
<g id="edge11" class="edge"><title>Node4&#45;&gt;Node12</title>
<path fill="none" stroke="midnightblue" d="M616.722,-184.975C590.762,-174.813 547.189,-157.756 517.665,-146.2"/>
<polygon fill="midnightblue" stroke="midnightblue" points="518.825,-142.895 508.237,-142.509 516.274,-149.413 518.825,-142.895"/>
</g>
<!-- Node12&#45;&gt;Node6 -->
<g id="edge25" class="edge"><title>Node12&#45;&gt;Node6</title>
<path fill="none" stroke="midnightblue" d="M405.972,-124.015C299.552,-113.275 122.035,-94.6436 92.5,-87 89.9928,-86.3512 87.4289,-85.5589 84.885,-84.6826"/>
<polygon fill="midnightblue" stroke="midnightblue" points="85.9253,-81.3329 75.3353,-81.0129 83.4143,-87.8671 85.9253,-81.3329"/>
</g>
<!-- Node12&#45;&gt;Node7 -->
<g id="edge24" class="edge"><title>Node12&#45;&gt;Node7</title>
<path fill="none" stroke="midnightblue" d="M479.003,-123.071C467.597,-108.335 448.517,-78.3364 461.5,-56 467.183,-46.2219 491.259,-33.2899 511.355,-23.7991"/>
<polygon fill="midnightblue" stroke="midnightblue" points="512.899,-26.9413 520.514,-19.575 509.968,-20.5847 512.899,-26.9413"/>
</g>
<!-- Node13 -->
<g id="node13" class="node"><title>Node13</title>
<g id="a_node13"><a xlink:href="MonitorObject_8h.html" target="_top" xlink:title="QualityControl/MonitorObject.h">
<polygon fill="none" stroke="black" points="263,-62 263,-81 414,-81 414,-62 263,-62"/>
<text text-anchor="middle" x="338.5" y="-69" font-family="Helvetica,sans-Serif" font-size="10.00">QualityControl/MonitorObject.h</text>
</a>
</g>
</g>
<!-- Node12&#45;&gt;Node13 -->
<g id="edge12" class="edge"><title>Node12&#45;&gt;Node13</title>
<path fill="none" stroke="midnightblue" d="M465.295,-123.475C440.128,-113.357 397.96,-96.4046 369.221,-84.8507"/>
<polygon fill="midnightblue" stroke="midnightblue" points="370.249,-81.4919 359.665,-81.0091 367.638,-87.9867 370.249,-81.4919"/>
</g>
<!-- Node17 -->
<g id="node17" class="node"><title>Node17</title>
<g id="a_node17"><a xlink:href="MonitorObjectCollection_8h.html" target="_top" xlink:title="QualityControl/MonitorObject\lCollection.h">
<polygon fill="none" stroke="black" points="102,-56.5 102,-86.5 245,-86.5 245,-56.5 102,-56.5"/>
<text text-anchor="start" x="110" y="-74.5" font-family="Helvetica,sans-Serif" font-size="10.00">QualityControl/MonitorObject</text>
<text text-anchor="middle" x="173.5" y="-63.5" font-family="Helvetica,sans-Serif" font-size="10.00">Collection.h</text>
</a>
</g>
</g>
<!-- Node12&#45;&gt;Node17 -->
<g id="edge18" class="edge"><title>Node12&#45;&gt;Node17</title>
<path fill="none" stroke="midnightblue" d="M441.655,-123.475C393.157,-114.256 314.811,-99.3627 255.296,-88.0492"/>
<polygon fill="midnightblue" stroke="midnightblue" points="255.644,-84.5526 245.166,-86.1234 254.336,-91.4294 255.644,-84.5526"/>
</g>
<!-- Node20 -->
<g id="node20" class="node"><title>Node20</title>
<g id="a_node20"><a xlink:href="TaskConfig_8h.html" target="_top" xlink:title="QualityControl/TaskConfig.h">
<polygon fill="none" stroke="black" points="470.5,-62 470.5,-81 610.5,-81 610.5,-62 470.5,-62"/>
<text text-anchor="middle" x="540.5" y="-69" font-family="Helvetica,sans-Serif" font-size="10.00">QualityControl/TaskConfig.h</text>
</a>
</g>
</g>
<!-- Node12&#45;&gt;Node20 -->
<g id="edge21" class="edge"><title>Node12&#45;&gt;Node20</title>
<path fill="none" stroke="midnightblue" d="M494.237,-123.475C502.497,-114.373 515.777,-99.741 525.994,-88.483"/>
<polygon fill="midnightblue" stroke="midnightblue" points="528.649,-90.7663 532.777,-81.0091 523.465,-86.0619 528.649,-90.7663"/>
</g>
<!-- Node13&#45;&gt;Node5 -->
<g id="edge14" class="edge"><title>Node13&#45;&gt;Node5</title>
<path fill="none" stroke="midnightblue" d="M378.609,-61.9521C424.72,-52.0739 502.655,-35.2212 569.5,-20 572.805,-19.2474 576.269,-18.4454 579.703,-17.6421"/>
<polygon fill="midnightblue" stroke="midnightblue" points="580.8,-20.9794 589.729,-15.2761 579.193,-14.1665 580.8,-20.9794"/>
</g>
<!-- Node13&#45;&gt;Node7 -->
<g id="edge13" class="edge"><title>Node13&#45;&gt;Node7</title>
<path fill="none" stroke="midnightblue" d="M367.731,-61.9743C400.094,-52.5229 454.06,-36.7256 510.104,-20.1048"/>
<polygon fill="midnightblue" stroke="midnightblue" points="511.257,-23.4136 519.848,-17.213 509.265,-16.7029 511.257,-23.4136"/>
</g>
<!-- Node14 -->
<g id="node14" class="node"><title>Node14</title>
<polygon fill="none" stroke="#bfbfbf" points="445.5,-0.5 445.5,-19.5 501.5,-19.5 501.5,-0.5 445.5,-0.5"/>
<text text-anchor="middle" x="473.5" y="-7.5" font-family="Helvetica,sans-Serif" font-size="10.00">Rtypes.h</text>
</g>
<!-- Node13&#45;&gt;Node14 -->
<g id="edge15" class="edge"><title>Node13&#45;&gt;Node14</title>
<path fill="none" stroke="midnightblue" d="M357.842,-61.9751C380.599,-51.9455 418.592,-35.2002 444.788,-23.6546"/>
<polygon fill="midnightblue" stroke="midnightblue" points="446.455,-26.7449 454.194,-19.5091 443.631,-20.3395 446.455,-26.7449"/>
</g>
<!-- Node15 -->
<g id="node15" class="node"><title>Node15</title>
<polygon fill="none" stroke="#bfbfbf" points="234,-0.5 234,-19.5 293,-19.5 293,-0.5 234,-0.5"/>
<text text-anchor="middle" x="263.5" y="-7.5" font-family="Helvetica,sans-Serif" font-size="10.00">TObject.h</text>
</g>
<!-- Node13&#45;&gt;Node15 -->
<g id="edge16" class="edge"><title>Node13&#45;&gt;Node15</title>
<path fill="none" stroke="midnightblue" d="M327.754,-61.9751C315.947,-52.6082 296.757,-37.3839 282.418,-26.0081"/>
<polygon fill="midnightblue" stroke="midnightblue" points="284.235,-22.9822 274.226,-19.5091 279.885,-28.4661 284.235,-22.9822"/>
</g>
<!-- Node16 -->
<g id="node16" class="node"><title>Node16</title>
<polygon fill="none" stroke="#bfbfbf" points="311.5,-0.5 311.5,-19.5 427.5,-19.5 427.5,-0.5 311.5,-0.5"/>
<text text-anchor="middle" x="369.5" y="-7.5" font-family="Helvetica,sans-Serif" font-size="10.00">Common/Exceptions.h</text>
</g>
<!-- Node13&#45;&gt;Node16 -->
<g id="edge17" class="edge"><title>Node13&#45;&gt;Node16</title>
<path fill="none" stroke="midnightblue" d="M342.942,-61.9751C347.453,-53.3152 354.574,-39.6486 360.307,-28.6453"/>
<polygon fill="midnightblue" stroke="midnightblue" points="363.55,-29.9948 365.067,-19.5091 357.342,-26.7604 363.55,-29.9948"/>
</g>
<!-- Node18 -->
<g id="node18" class="node"><title>Node18</title>
<polygon fill="none" stroke="#bfbfbf" points="0,-0.5 0,-19.5 69,-19.5 69,-0.5 0,-0.5"/>
<text text-anchor="middle" x="34.5" y="-7.5" font-family="Helvetica,sans-Serif" font-size="10.00">TObjArray.h</text>
</g>
<!-- Node17&#45;&gt;Node18 -->
<g id="edge19" class="edge"><title>Node17&#45;&gt;Node18</title>
<path fill="none" stroke="midnightblue" d="M140.559,-56.3993C117.341,-46.4608 86.5139,-33.2649 64.0813,-23.6625"/>
<polygon fill="midnightblue" stroke="midnightblue" points="65.2962,-20.3754 54.7257,-19.6578 62.5416,-26.8106 65.2962,-20.3754"/>
</g>
<!-- Node19 -->
<g id="node19" class="node"><title>Node19</title>
<polygon fill="none" stroke="#bfbfbf" points="87.5,-0.5 87.5,-19.5 215.5,-19.5 215.5,-0.5 87.5,-0.5"/>
<text text-anchor="middle" x="151.5" y="-7.5" font-family="Helvetica,sans-Serif" font-size="10.00">Mergers/MergeInterface.h</text>
</g>
<!-- Node17&#45;&gt;Node19 -->
<g id="edge20" class="edge"><title>Node17&#45;&gt;Node19</title>
<path fill="none" stroke="midnightblue" d="M168.286,-56.3993C165.287,-48.2881 161.486,-38.0071 158.259,-29.2807"/>
<polygon fill="midnightblue" stroke="midnightblue" points="161.452,-27.8233 154.701,-19.6578 154.886,-30.251 161.452,-27.8233"/>
</g>
<!-- Node20&#45;&gt;Node7 -->
<g id="edge22" class="edge"><title>Node20&#45;&gt;Node7</title>
<path fill="none" stroke="midnightblue" d="M540.5,-61.9751C540.5,-53.5803 540.5,-40.4806 540.5,-29.6631"/>
<polygon fill="midnightblue" stroke="midnightblue" points="544,-29.5091 540.5,-19.5091 537,-29.5091 544,-29.5091"/>
</g>
<!-- Node20&#45;&gt;Node8 -->
<g id="edge23" class="edge"><title>Node20&#45;&gt;Node8</title>
<path fill="none" stroke="midnightblue" d="M563.997,-61.9751C592.129,-51.7687 639.429,-34.608 671.289,-23.0492"/>
<polygon fill="midnightblue" stroke="midnightblue" points="672.84,-26.2098 681.046,-19.5091 670.452,-19.6295 672.84,-26.2098"/>
</g>
<!-- Node22 -->
<g id="node22" class="node"><title>Node22</title>
<polygon fill="none" stroke="#bfbfbf" points="1167.5,-123.5 1167.5,-142.5 1211.5,-142.5 1211.5,-123.5 1167.5,-123.5"/>
<text text-anchor="middle" x="1189.5" y="-130.5" font-family="Helvetica,sans-Serif" font-size="10.00">TH1.h</text>
</g>
<!-- Node21&#45;&gt;Node22 -->
<g id="edge27" class="edge"><title>Node21&#45;&gt;Node22</title>
<path fill="none" stroke="midnightblue" d="M1054.14,-184.975C1081.39,-174.711 1127.33,-157.413 1158.03,-145.853"/>
<polygon fill="midnightblue" stroke="midnightblue" points="1159.29,-149.117 1167.41,-142.317 1156.82,-142.566 1159.29,-149.117"/>
</g>
<!-- Node23 -->
<g id="node23" class="node"><title>Node23</title>
<g id="a_node23"><a xlink:href="QcInfoLogger_8h.html" target="_top" xlink:title="QualityControl/QcInfoLogger.h">
<polygon fill="none" stroke="black" points="886,-123.5 886,-142.5 1035,-142.5 1035,-123.5 886,-123.5"/>
<text text-anchor="middle" x="960.5" y="-130.5" font-family="Helvetica,sans-Serif" font-size="10.00">QualityControl/QcInfoLogger.h</text>
</a>
</g>
</g>
<!-- Node21&#45;&gt;Node23 -->
<g id="edge28" class="edge"><title>Node21&#45;&gt;Node23</title>
<path fill="none" stroke="midnightblue" d="M1021.33,-184.975C1010.15,-175.608 991.983,-160.384 978.409,-149.008"/>
<polygon fill="midnightblue" stroke="midnightblue" points="980.566,-146.25 970.654,-142.509 976.07,-151.615 980.566,-146.25"/>
</g>
<!-- Node25 -->
<g id="node25" class="node"><title>Node25</title>
<polygon fill="none" stroke="#bfbfbf" points="1053,-123.5 1053,-142.5 1150,-142.5 1150,-123.5 1053,-123.5"/>
<text text-anchor="middle" x="1101.5" y="-130.5" font-family="Helvetica,sans-Serif" font-size="10.00">fairlogger/Logger.h</text>
</g>
<!-- Node21&#45;&gt;Node25 -->
<g id="edge30" class="edge"><title>Node21&#45;&gt;Node25</title>
<path fill="none" stroke="midnightblue" d="M1041.53,-184.975C1052.55,-175.608 1070.46,-160.384 1083.84,-149.008"/>
<polygon fill="midnightblue" stroke="midnightblue" points="1086.14,-151.652 1091.49,-142.509 1081.6,-146.319 1086.14,-151.652"/>
</g>
<!-- Node24 -->
<g id="node24" class="node"><title>Node24</title>
<polygon fill="none" stroke="#bfbfbf" points="895.5,-62 895.5,-81 1025.5,-81 1025.5,-62 895.5,-62"/>
<text text-anchor="middle" x="960.5" y="-69" font-family="Helvetica,sans-Serif" font-size="10.00">InfoLogger/InfoLogger.hxx</text>
</g>
<!-- Node23&#45;&gt;Node24 -->
<g id="edge29" class="edge"><title>Node23&#45;&gt;Node24</title>
<path fill="none" stroke="midnightblue" d="M960.5,-123.475C960.5,-115.08 960.5,-101.981 960.5,-91.1631"/>
<polygon fill="midnightblue" stroke="midnightblue" points="964,-91.0091 960.5,-81.0091 957,-91.0091 964,-91.0091"/>
</g>
</g>
</svg>
        <g id="navigator" transform="translate(0 0)" fill="#404254">
                <rect fill="#f2f5e9" fill-opacity="0.5" stroke="#606060" stroke-width=".5" x="0" y="0" width="60" height="60"/>
                <use id="zoomplus" xlink:href="#zoomPlus" x="17" y="9" onmousedown="handleZoom(evt,'in')"/>
                <use id="zoomminus" xlink:href="#zoomMin" x="42" y="9" onmousedown="handleZoom(evt,'out')"/>
                <use id="reset" xlink:href="#resetDef" x="30" y="36" onmousedown="handleReset()"/>
                <g id="arrowUp" xlink:href="#dirArrow" transform="translate(30 24)" onmousedown="handlePan(0,-1)">
                  <use xlink:href="#rim" fill="#404040">
                        <set attributeName="fill" to="#808080" begin="arrowUp.mouseover" end="arrowUp.mouseout"/>
                  </use>
                  <path fill="none" stroke="white" stroke-width="1.5" d="M0,-3.0v7 M-2.5,-0.5L0,-3.0L2.5,-0.5"/>
                </g>
                <g id="arrowRight" xlink:href="#dirArrow" transform="rotate(90) translate(36 -43)" onmousedown="handlePan(1,0)">
                  <use xlink:href="#rim" fill="#404040">
                        <set attributeName="fill" to="#808080" begin="arrowRight.mouseover" end="arrowRight.mouseout"/>
                  </use>
                  <path fill="none" stroke="white" stroke-width="1.5" d="M0,-3.0v7 M-2.5,-0.5L0,-3.0L2.5,-0.5"/>
                </g>
                <g id="arrowDown" xlink:href="#dirArrow" transform="rotate(180) translate(-30 -48)" onmousedown="handlePan(0,1)">
                  <use xlink:href="#rim" fill="#404040">
                        <set attributeName="fill" to="#808080" begin="arrowDown.mouseover" end="arrowDown.mouseout"/>
                  </use>
                  <path fill="none" stroke="white" stroke-width="1.5" d="M0,-3.0v7 M-2.5,-0.5L0,-3.0L2.5,-0.5"/>
                </g>
                <g id="arrowLeft" xlink:href="#dirArrow" transform="rotate(270) translate(-36 17)" onmousedown="handlePan(-1,0)">
                  <use xlink:href="#rim" fill="#404040">
                        <set attributeName="fill" to="#808080" begin="arrowLeft.mouseover" end="arrowLeft.mouseout"/>
                  </use>
                  <path fill="none" stroke="white" stroke-width="1.5" d="M0,-3.0v7 M-2.5,-0.5L0,-3.0L2.5,-0.5"/>
                </g>
        </g>
        <svg viewBox="0 0 15 15" width="100%" height="30px" preserveAspectRatio="xMaxYMin meet">
         <g id="arrow_out" transform="scale(0.3 0.3)">
          <a xlink:href="TaskDiagnostics_8h__incl_org.svg" target="_base">
           <rect id="button" ry="5" rx="5" y="6" x="6" height="38" width="38"
                fill="#f2f5e9" fill-opacity="0.5" stroke="#606060" stroke-width="1.0"/>
           <path id="arrow"
             d="M 11.500037,31.436501 C 11.940474,20.09759 22.043105,11.32322 32.158766,21.979434 L 37.068811,17.246167 C 37.068811,17.246167 37.088388,32 37.088388,32 L 22.160133,31.978069 C 22.160133,31.978069 26.997745,27.140456 26.997745,27.140456 C 18.528582,18.264221 13.291696,25.230495 11.500037,31.436501 z"
             style="fill:#404040;"/>
          </a>
         </g>
        </svg>
</svg>
