<?xml version="1.0" encoding="UTF-8" standalone="no"?>
<!DOCTYPE svg PUBLIC "-//W3C//DTD SVG 1.1//EN"
 "http://www.w3.org/Graphics/SVG/1.1/DTD/svg11.dtd">
<!-- Generated by graphviz version 2.38.0 (20140413.2041)
 -->
<!-- Title: Modules/TOF/src/TaskCompressedData.cxx Pages: 1 -->
<!--zoomable 341 -->
<svg id="main" version="1.1" xmlns="http://www.w3.org/2000/svg" xmlns:xlink="http://www.w3.org/1999/xlink" xml:space="preserve" onload="init(evt)">
<style type="text/css"><![CDATA[
.edge:hover path { stroke: red; }
.edge:hover polygon { stroke: red; fill: red; }
]]></style>
<script type="text/javascript"><![CDATA[
var edges = document.getElementsByTagName('g');
if (edges && edges.length) {
  for (var i=0;i<edges.length;i++) {
    if (edges[i].id.substr(0,4)=='edge') {
      edges[i].setAttribute('class','edge');
    }
  }
}
]]></script>
        <defs>
                <circle id="rim" cx="0" cy="0" r="7"/>
                <circle id="rim2" cx="0" cy="0" r="3.5"/>
                <g id="zoomPlus">
                        <use xlink:href="#rim" fill="#404040">
                                <set attributeName="fill" to="#808080" begin="zoomplus.mouseover" end="zoomplus.mouseout"/>
                        </use>
                        <path d="M-4,0h8M0,-4v8" fill="none" stroke="white" stroke-width="1.5" pointer-events="none"/>
                </g>
                <g id="zoomMin">
                        <use xlink:href="#rim" fill="#404040">
                                <set attributeName="fill" to="#808080" begin="zoomminus.mouseover" end="zoomminus.mouseout"/>
                        </use>
                        <path d="M-4,0h8" fill="none" stroke="white" stroke-width="1.5" pointer-events="none"/>
                </g>
                <g id="dirArrow">
                        <path fill="none" stroke="white" stroke-width="1.5" d="M0,-3.0v7 M-2.5,-0.5L0,-3.0L2.5,-0.5"/>
                </g>
               <g id="resetDef">
                       <use xlink:href="#rim2" fill="#404040">
                               <set attributeName="fill" to="#808080" begin="reset.mouseover" end="reset.mouseout"/>
                       </use>
               </g>
        </defs>

<script type="text/javascript">
var viewWidth = 1967;
var viewHeight = 341;
var sectionId = 'dynsection-0';
</script>
<script xlink:href="svgpan.js"/>
<svg id="graph" class="graph">
<g id="viewport">
<title>Modules/TOF/src/TaskCompressedData.cxx</title>
<!-- Node1 -->
<g id="node1" class="node"><title>Node1</title>
<polygon fill="#bfbfbf" stroke="black" points="423.5,-302.5 423.5,-332.5 596.5,-332.5 596.5,-302.5 423.5,-302.5"/>
<text text-anchor="start" x="431.5" y="-320.5" font-family="Helvetica,sans-Serif" font-size="10.00">Modules/TOF/src/TaskCompressed</text>
<text text-anchor="middle" x="510" y="-309.5" font-family="Helvetica,sans-Serif" font-size="10.00">Data.cxx</text>
</g>
<!-- Node2 -->
<g id="node2" class="node"><title>Node2</title>
<polygon fill="none" stroke="#bfbfbf" points="-3.55271e-15,-246.5 -3.55271e-15,-265.5 44,-265.5 44,-246.5 -3.55271e-15,-246.5"/>
<text text-anchor="middle" x="22" y="-253.5" font-family="Helvetica,sans-Serif" font-size="10.00">TH1.h</text>
</g>
<!-- Node1&#45;&gt;Node2 -->
<g id="edge1" class="edge"><title>Node1&#45;&gt;Node2</title>
<path fill="none" stroke="midnightblue" d="M423.409,-311.396C333.248,-305.07 187.921,-292.035 54.2499,-265.938"/>
<polygon fill="midnightblue" stroke="midnightblue" points="54.7271,-262.464 44.2375,-263.954 53.3665,-269.331 54.7271,-262.464"/>
</g>
<!-- Node3 -->
<g id="node3" class="node"><title>Node3</title>
<polygon fill="none" stroke="#bfbfbf" points="62,-246.5 62,-265.5 112,-265.5 112,-246.5 62,-246.5"/>
<text text-anchor="middle" x="87" y="-253.5" font-family="Helvetica,sans-Serif" font-size="10.00">TH1F.h</text>
</g>
<!-- Node1&#45;&gt;Node3 -->
<g id="edge2" class="edge"><title>Node1&#45;&gt;Node3</title>
<path fill="none" stroke="midnightblue" d="M423.344,-308.503C346.486,-300.664 231.079,-287.07 122.022,-265.981"/>
<polygon fill="midnightblue" stroke="midnightblue" points="122.653,-262.538 112.167,-264.051 121.307,-269.407 122.653,-262.538"/>
</g>
<!-- Node4 -->
<g id="node4" class="node"><title>Node4</title>
<polygon fill="none" stroke="#bfbfbf" points="130,-246.5 130,-265.5 180,-265.5 180,-246.5 130,-246.5"/>
<text text-anchor="middle" x="155" y="-253.5" font-family="Helvetica,sans-Serif" font-size="10.00">TH2F.h</text>
</g>
<!-- Node1&#45;&gt;Node4 -->
<g id="edge3" class="edge"><title>Node1&#45;&gt;Node4</title>
<path fill="none" stroke="midnightblue" d="M423.387,-305.331C361.005,-296.716 274.679,-283.627 190.206,-266.079"/>
<polygon fill="midnightblue" stroke="midnightblue" points="190.688,-262.604 180.182,-263.974 189.249,-269.455 190.688,-262.604"/>
</g>
<!-- Node5 -->
<g id="node5" class="node"><title>Node5</title>
<polygon fill="none" stroke="#bfbfbf" points="859,-179.5 859,-209.5 1011,-209.5 1011,-179.5 859,-179.5"/>
<text text-anchor="start" x="867" y="-197.5" font-family="Helvetica,sans-Serif" font-size="10.00">DataFormatsTOF/Compressed</text>
<text text-anchor="middle" x="935" y="-186.5" font-family="Helvetica,sans-Serif" font-size="10.00">DataFormat.h</text>
</g>
<!-- Node1&#45;&gt;Node5 -->
<g id="edge4" class="edge"><title>Node1&#45;&gt;Node5</title>
<path fill="none" stroke="midnightblue" d="M596.949,-312.031C713.835,-305.136 909.657,-290.123 932,-266 943.187,-253.922 943.456,-235.098 941.186,-219.938"/>
<polygon fill="midnightblue" stroke="midnightblue" points="944.541,-218.849 939.205,-209.696 937.668,-220.179 944.541,-218.849"/>
</g>
<!-- Node6 -->
<g id="node6" class="node"><title>Node6</title>
<polygon fill="none" stroke="#bfbfbf" points="365,-246.5 365,-265.5 499,-265.5 499,-246.5 365,-246.5"/>
<text text-anchor="middle" x="432" y="-253.5" font-family="Helvetica,sans-Serif" font-size="10.00">Framework/DataRefUtils.h</text>
</g>
<!-- Node1&#45;&gt;Node6 -->
<g id="edge5" class="edge"><title>Node1&#45;&gt;Node6</title>
<path fill="none" stroke="midnightblue" d="M491.515,-302.399C479.48,-293.218 463.8,-281.258 451.557,-271.918"/>
<polygon fill="midnightblue" stroke="midnightblue" points="453.423,-268.94 443.35,-265.658 449.178,-274.506 453.423,-268.94"/>
</g>
<!-- Node7 -->
<g id="node7" class="node"><title>Node7</title>
<polygon fill="none" stroke="#bfbfbf" points="517.5,-246.5 517.5,-265.5 658.5,-265.5 658.5,-246.5 517.5,-246.5"/>
<text text-anchor="middle" x="588" y="-253.5" font-family="Helvetica,sans-Serif" font-size="10.00">Headers/RAWDataHeader.h</text>
</g>
<!-- Node1&#45;&gt;Node7 -->
<g id="edge6" class="edge"><title>Node1&#45;&gt;Node7</title>
<path fill="none" stroke="midnightblue" d="M528.485,-302.399C540.52,-293.218 556.2,-281.258 568.443,-271.918"/>
<polygon fill="midnightblue" stroke="midnightblue" points="570.822,-274.506 576.65,-265.658 566.577,-268.94 570.822,-274.506"/>
</g>
<!-- Node8 -->
<g id="node8" class="node"><title>Node8</title>
<polygon fill="none" stroke="#bfbfbf" points="676.5,-246.5 676.5,-265.5 807.5,-265.5 807.5,-246.5 676.5,-246.5"/>
<text text-anchor="middle" x="742" y="-253.5" font-family="Helvetica,sans-Serif" font-size="10.00">DetectorsRaw/HBFUtils.h</text>
</g>
<!-- Node1&#45;&gt;Node8 -->
<g id="edge7" class="edge"><title>Node1&#45;&gt;Node8</title>
<path fill="none" stroke="midnightblue" d="M564.687,-302.475C605.76,-291.941 661.226,-277.716 699.118,-267.998"/>
<polygon fill="midnightblue" stroke="midnightblue" points="700.015,-271.381 708.832,-265.506 698.276,-264.6 700.015,-271.381"/>
</g>
<!-- Node9 -->
<g id="node9" class="node"><title>Node9</title>
<polygon fill="none" stroke="#bfbfbf" points="825.5,-246.5 825.5,-265.5 922.5,-265.5 922.5,-246.5 825.5,-246.5"/>
<text text-anchor="middle" x="874" y="-253.5" font-family="Helvetica,sans-Serif" font-size="10.00">fairlogger/Logger.h</text>
</g>
<!-- Node1&#45;&gt;Node9 -->
<g id="edge8" class="edge"><title>Node1&#45;&gt;Node9</title>
<path fill="none" stroke="midnightblue" d="M595.802,-302.475C663.456,-291.416 755.997,-276.289 815.395,-266.58"/>
<polygon fill="midnightblue" stroke="midnightblue" points="816.055,-270.018 825.36,-264.951 814.926,-263.11 816.055,-270.018"/>
</g>
<!-- Node10 -->
<g id="node10" class="node"><title>Node10</title>
<g id="a_node10"><a xlink:href="QcInfoLogger_8h.html" target="_top" xlink:title="QualityControl/QcInfoLogger.h">
<polygon fill="none" stroke="black" points="197.5,-246.5 197.5,-265.5 346.5,-265.5 346.5,-246.5 197.5,-246.5"/>
<text text-anchor="middle" x="272" y="-253.5" font-family="Helvetica,sans-Serif" font-size="10.00">QualityControl/QcInfoLogger.h</text>
</a>
</g>
</g>
<!-- Node1&#45;&gt;Node10 -->
<g id="edge9" class="edge"><title>Node1&#45;&gt;Node10</title>
<path fill="none" stroke="midnightblue" d="M453.899,-302.475C411.763,-291.941 354.863,-277.716 315.991,-267.998"/>
<polygon fill="midnightblue" stroke="midnightblue" points="316.576,-264.536 306.025,-265.506 314.878,-271.327 316.576,-264.536"/>
</g>
<!-- Node12 -->
<g id="node12" class="node"><title>Node12</title>
<g id="a_node12"><a xlink:href="TaskCompressedData_8h.html" target="_top" xlink:title="Task To monitor data converted from TOF compressor, it implements a dedicated decoder from DecoderBas...">
<polygon fill="none" stroke="black" points="1011,-246.5 1011,-265.5 1157,-265.5 1157,-246.5 1011,-246.5"/>
<text text-anchor="middle" x="1084" y="-253.5" font-family="Helvetica,sans-Serif" font-size="10.00">TOF/TaskCompressedData.h</text>
</a>
</g>
</g>
<!-- Node1&#45;&gt;Node12 -->
<g id="edge11" class="edge"><title>Node1&#45;&gt;Node12</title>
<path fill="none" stroke="midnightblue" d="M596.555,-307.528C705.931,-296.19 892.884,-276.811 1000.7,-265.635"/>
<polygon fill="midnightblue" stroke="midnightblue" points="1001.29,-269.092 1010.88,-264.58 1000.57,-262.13 1001.29,-269.092"/>
</g>
<!-- Node11 -->
<g id="node11" class="node"><title>Node11</title>
<polygon fill="none" stroke="#bfbfbf" points="207,-185 207,-204 337,-204 337,-185 207,-185"/>
<text text-anchor="middle" x="272" y="-192" font-family="Helvetica,sans-Serif" font-size="10.00">InfoLogger/InfoLogger.hxx</text>
</g>
<!-- Node10&#45;&gt;Node11 -->
<g id="edge10" class="edge"><title>Node10&#45;&gt;Node11</title>
<path fill="none" stroke="midnightblue" d="M272,-246.475C272,-238.08 272,-224.981 272,-214.163"/>
<polygon fill="midnightblue" stroke="midnightblue" points="275.5,-214.009 272,-204.009 268.5,-214.009 275.5,-214.009"/>
</g>
<!-- Node12&#45;&gt;Node5 -->
<g id="edge13" class="edge"><title>Node12&#45;&gt;Node5</title>
<path fill="none" stroke="midnightblue" d="M1062.65,-246.475C1041.06,-237.852 1007.03,-224.264 979.538,-213.285"/>
<polygon fill="midnightblue" stroke="midnightblue" points="980.701,-209.981 970.116,-209.523 978.105,-216.482 980.701,-209.981"/>
</g>
<!-- Node13 -->
<g id="node13" class="node"><title>Node13</title>
<polygon fill="none" stroke="#bfbfbf" points="1029,-179.5 1029,-209.5 1171,-209.5 1171,-179.5 1029,-179.5"/>
<text text-anchor="start" x="1037" y="-197.5" font-family="Helvetica,sans-Serif" font-size="10.00">TOFReconstruction/Decoder</text>
<text text-anchor="middle" x="1100" y="-186.5" font-family="Helvetica,sans-Serif" font-size="10.00">Base.h</text>
</g>
<!-- Node12&#45;&gt;Node13 -->
<g id="edge12" class="edge"><title>Node12&#45;&gt;Node13</title>
<path fill="none" stroke="midnightblue" d="M1086.29,-246.475C1088.2,-239.396 1091,-228.97 1093.58,-219.39"/>
<polygon fill="midnightblue" stroke="midnightblue" points="1097.01,-220.089 1096.23,-209.523 1090.25,-218.271 1097.01,-220.089"/>
</g>
<!-- Node14 -->
<g id="node14" class="node"><title>Node14</title>
<g id="a_node14"><a xlink:href="TaskInterface_8h.html" target="_top" xlink:title="QualityControl/TaskInterface.h">
<polygon fill="none" stroke="black" points="1189,-185 1189,-204 1339,-204 1339,-185 1189,-185"/>
<text text-anchor="middle" x="1264" y="-192" font-family="Helvetica,sans-Serif" font-size="10.00">QualityControl/TaskInterface.h</text>
</a>
</g>
</g>
<!-- Node12&#45;&gt;Node14 -->
<g id="edge14" class="edge"><title>Node12&#45;&gt;Node14</title>
<path fill="none" stroke="midnightblue" d="M1109.79,-246.475C1140.93,-236.18 1193.48,-218.81 1228.45,-207.25"/>
<polygon fill="midnightblue" stroke="midnightblue" points="1229.86,-210.471 1238.26,-204.009 1227.66,-203.825 1229.86,-210.471"/>
</g>
<!-- Node15 -->
<g id="node15" class="node"><title>Node15</title>
<polygon fill="none" stroke="#bfbfbf" points="1289.5,-0.5 1289.5,-19.5 1324.5,-19.5 1324.5,-0.5 1289.5,-0.5"/>
<text text-anchor="middle" x="1307" y="-7.5" font-family="Helvetica,sans-Serif" font-size="10.00">map</text>
</g>
<!-- Node14&#45;&gt;Node15 -->
<g id="edge15" class="edge"><title>Node14&#45;&gt;Node15</title>
<path fill="none" stroke="midnightblue" d="M1227.9,-184.843C1206.16,-177.567 1180.2,-164.75 1167,-143 1146.94,-109.943 1144.22,-87.246 1167,-56 1192.54,-20.9681 1245.79,-12.611 1278.76,-10.9548"/>
<polygon fill="midnightblue" stroke="midnightblue" points="1279.21,-14.4422 1289.09,-10.6212 1278.98,-7.4458 1279.21,-14.4422"/>
</g>
<!-- Node16 -->
<g id="node16" class="node"><title>Node16</title>
<polygon fill="none" stroke="#bfbfbf" points="1246,-62 1246,-81 1298,-81 1298,-62 1246,-62"/>
<text text-anchor="middle" x="1272" y="-69" font-family="Helvetica,sans-Serif" font-size="10.00">memory</text>
</g>
<!-- Node14&#45;&gt;Node16 -->
<g id="edge16" class="edge"><title>Node14&#45;&gt;Node16</title>
<path fill="none" stroke="midnightblue" d="M1257.25,-184.912C1247.74,-171.729 1232.25,-145.652 1239,-123 1242.71,-110.525 1250.6,-98.2604 1257.73,-88.9422"/>
<polygon fill="midnightblue" stroke="midnightblue" points="1260.59,-90.9706 1264.18,-81.0003 1255.16,-86.5596 1260.59,-90.9706"/>
</g>
<!-- Node17 -->
<g id="node17" class="node"><title>Node17</title>
<polygon fill="none" stroke="#bfbfbf" points="1384.5,-0.5 1384.5,-19.5 1425.5,-19.5 1425.5,-0.5 1384.5,-0.5"/>
<text text-anchor="middle" x="1405" y="-7.5" font-family="Helvetica,sans-Serif" font-size="10.00">string</text>
</g>
<!-- Node14&#45;&gt;Node17 -->
<g id="edge17" class="edge"><title>Node14&#45;&gt;Node17</title>
<path fill="none" stroke="midnightblue" d="M1256.64,-184.912C1249.02,-175.395 1237.59,-159.236 1233,-143 1226.84,-121.179 1222.18,-74.1653 1237,-56 1254.24,-34.8726 1330.77,-21.1581 1374.36,-14.9126"/>
<polygon fill="midnightblue" stroke="midnightblue" points="1374.99,-18.3587 1384.41,-13.5201 1374.03,-11.4248 1374.99,-18.3587"/>
</g>
<!-- Node18 -->
<g id="node18" class="node"><title>Node18</title>
<polygon fill="none" stroke="#bfbfbf" points="1105.5,-0.5 1105.5,-19.5 1188.5,-19.5 1188.5,-0.5 1105.5,-0.5"/>
<text text-anchor="middle" x="1147" y="-7.5" font-family="Helvetica,sans-Serif" font-size="10.00">unordered_map</text>
</g>
<!-- Node14&#45;&gt;Node18 -->
<g id="edge18" class="edge"><title>Node14&#45;&gt;Node18</title>
<path fill="none" stroke="midnightblue" d="M1220.81,-184.999C1196.85,-177.933 1168.79,-165.284 1153,-143 1128.99,-109.11 1135.94,-57.1314 1142.07,-29.6018"/>
<polygon fill="midnightblue" stroke="midnightblue" points="1145.51,-30.2705 1144.47,-19.7265 1138.71,-28.6154 1145.51,-30.2705"/>
</g>
<!-- Node19 -->
<g id="node19" class="node"><title>Node19</title>
<polygon fill="none" stroke="#bfbfbf" points="1247.5,-123.5 1247.5,-142.5 1372.5,-142.5 1372.5,-123.5 1247.5,-123.5"/>
<text text-anchor="middle" x="1310" y="-130.5" font-family="Helvetica,sans-Serif" font-size="10.00">Framework/InitContext.h</text>
</g>
<!-- Node14&#45;&gt;Node19 -->
<g id="edge19" class="edge"><title>Node14&#45;&gt;Node19</title>
<path fill="none" stroke="midnightblue" d="M1270.59,-184.975C1277.49,-176.05 1288.5,-161.807 1297.13,-150.643"/>
<polygon fill="midnightblue" stroke="midnightblue" points="1300.07,-152.561 1303.42,-142.509 1294.54,-148.28 1300.07,-152.561"/>
</g>
<!-- Node20 -->
<g id="node20" class="node"><title>Node20</title>
<polygon fill="none" stroke="#bfbfbf" points="1391,-123.5 1391,-142.5 1551,-142.5 1551,-123.5 1391,-123.5"/>
<text text-anchor="middle" x="1471" y="-130.5" font-family="Helvetica,sans-Serif" font-size="10.00">Framework/ProcessingContext.h</text>
</g>
<!-- Node14&#45;&gt;Node20 -->
<g id="edge20" class="edge"><title>Node14&#45;&gt;Node20</title>
<path fill="none" stroke="midnightblue" d="M1293.66,-184.975C1329.93,-174.548 1391.46,-156.862 1431.66,-145.307"/>
<polygon fill="midnightblue" stroke="midnightblue" points="1432.75,-148.635 1441.4,-142.509 1430.82,-141.908 1432.75,-148.635"/>
</g>
<!-- Node21 -->
<g id="node21" class="node"><title>Node21</title>
<g id="a_node21"><a xlink:href="Activity_8h.html" target="_top" xlink:title="QualityControl/Activity.h">
<polygon fill="none" stroke="black" points="1569.5,-123.5 1569.5,-142.5 1692.5,-142.5 1692.5,-123.5 1569.5,-123.5"/>
<text text-anchor="middle" x="1631" y="-130.5" font-family="Helvetica,sans-Serif" font-size="10.00">QualityControl/Activity.h</text>
</a>
</g>
</g>
<!-- Node14&#45;&gt;Node21 -->
<g id="edge21" class="edge"><title>Node14&#45;&gt;Node21</title>
<path fill="none" stroke="midnightblue" d="M1316.58,-184.975C1383.08,-174.194 1497.43,-155.654 1568.37,-144.153"/>
<polygon fill="midnightblue" stroke="midnightblue" points="1569.2,-147.564 1578.52,-142.509 1568.08,-140.655 1569.2,-147.564"/>
</g>
<!-- Node22 -->
<g id="node22" class="node"><title>Node22</title>
<g id="a_node22"><a xlink:href="ObjectsManager_8h.html" target="_top" xlink:title="QualityControl/ObjectsManager.h">
<polygon fill="none" stroke="black" points="1710.5,-123.5 1710.5,-142.5 1871.5,-142.5 1871.5,-123.5 1710.5,-123.5"/>
<text text-anchor="middle" x="1791" y="-130.5" font-family="Helvetica,sans-Serif" font-size="10.00">QualityControl/ObjectsManager.h</text>
</a>
</g>
</g>
<!-- Node14&#45;&gt;Node22 -->
<g id="edge22" class="edge"><title>Node14&#45;&gt;Node22</title>
<path fill="none" stroke="midnightblue" d="M1339.23,-185.007C1436.01,-174.08 1603.72,-155.144 1705.32,-143.674"/>
<polygon fill="midnightblue" stroke="midnightblue" points="1706,-147.119 1715.55,-142.519 1705.22,-140.163 1706,-147.119"/>
</g>
<!-- Node22&#45;&gt;Node16 -->
<g id="edge36" class="edge"><title>Node22&#45;&gt;Node16</title>
<path fill="none" stroke="midnightblue" d="M1710.47,-123.837C1707.61,-123.554 1704.78,-123.274 1702,-123 1534.93,-106.555 1491.2,-116.872 1326,-87 1320.13,-85.9377 1313.96,-84.549 1307.97,-83.052"/>
<polygon fill="midnightblue" stroke="midnightblue" points="1308.73,-79.6315 1298.17,-80.4689 1306.95,-86.4006 1308.73,-79.6315"/>
</g>
<!-- Node22&#45;&gt;Node17 -->
<g id="edge35" class="edge"><title>Node22&#45;&gt;Node17</title>
<path fill="none" stroke="midnightblue" d="M1714.69,-123.5C1647.9,-115.277 1556.46,-101.899 1523,-87 1502.77,-77.9919 1502.34,-68.4052 1484,-56 1466.89,-44.4292 1446.64,-32.9308 1430.92,-24.4535"/>
<polygon fill="midnightblue" stroke="midnightblue" points="1432.26,-21.2019 1421.79,-19.5919 1428.97,-27.3808 1432.26,-21.2019"/>
</g>
<!-- Node23 -->
<g id="node23" class="node"><title>Node23</title>
<g id="a_node23"><a xlink:href="MonitorObject_8h.html" target="_top" xlink:title="QualityControl/MonitorObject.h">
<polygon fill="none" stroke="black" points="1531.5,-62 1531.5,-81 1682.5,-81 1682.5,-62 1531.5,-62"/>
<text text-anchor="middle" x="1607" y="-69" font-family="Helvetica,sans-Serif" font-size="10.00">QualityControl/MonitorObject.h</text>
</a>
</g>
</g>
<!-- Node22&#45;&gt;Node23 -->
<g id="edge23" class="edge"><title>Node22&#45;&gt;Node23</title>
<path fill="none" stroke="midnightblue" d="M1764.64,-123.475C1732.66,-113.136 1678.62,-95.6611 1642.88,-84.1017"/>
<polygon fill="midnightblue" stroke="midnightblue" points="1643.91,-80.7558 1633.31,-81.0091 1641.75,-87.4162 1643.91,-80.7558"/>
</g>
<!-- Node27 -->
<g id="node27" class="node"><title>Node27</title>
<g id="a_node27"><a xlink:href="MonitorObjectCollection_8h.html" target="_top" xlink:title="QualityControl/MonitorObject\lCollection.h">
<polygon fill="none" stroke="black" points="1719.5,-56.5 1719.5,-86.5 1862.5,-86.5 1862.5,-56.5 1719.5,-56.5"/>
<text text-anchor="start" x="1727.5" y="-74.5" font-family="Helvetica,sans-Serif" font-size="10.00">QualityControl/MonitorObject</text>
<text text-anchor="middle" x="1791" y="-63.5" font-family="Helvetica,sans-Serif" font-size="10.00">Collection.h</text>
</a>
</g>
</g>
<!-- Node22&#45;&gt;Node27 -->
<g id="edge29" class="edge"><title>Node22&#45;&gt;Node27</title>
<path fill="none" stroke="midnightblue" d="M1791,-123.475C1791,-116.471 1791,-106.192 1791,-96.6956"/>
<polygon fill="midnightblue" stroke="midnightblue" points="1794.5,-96.5229 1791,-86.523 1787.5,-96.523 1794.5,-96.5229"/>
</g>
<!-- Node30 -->
<g id="node30" class="node"><title>Node30</title>
<g id="a_node30"><a xlink:href="TaskConfig_8h.html" target="_top" xlink:title="QualityControl/TaskConfig.h">
<polygon fill="none" stroke="black" points="1335,-62 1335,-81 1475,-81 1475,-62 1335,-62"/>
<text text-anchor="middle" x="1405" y="-69" font-family="Helvetica,sans-Serif" font-size="10.00">QualityControl/TaskConfig.h</text>
</a>
</g>
</g>
<!-- Node22&#45;&gt;Node30 -->
<g id="edge32" class="edge"><title>Node22&#45;&gt;Node30</title>
<path fill="none" stroke="midnightblue" d="M1731.06,-123.483C1670.08,-114.721 1572.87,-100.486 1489,-87 1480.7,-85.666 1471.95,-84.2104 1463.36,-82.7528"/>
<polygon fill="midnightblue" stroke="midnightblue" points="1463.83,-79.2823 1453.39,-81.048 1462.65,-86.1823 1463.83,-79.2823"/>
</g>
<!-- Node23&#45;&gt;Node15 -->
<g id="edge25" class="edge"><title>Node23&#45;&gt;Node15</title>
<path fill="none" stroke="midnightblue" d="M1564.02,-61.9751C1501.42,-49.5594 1386.93,-26.8526 1334.52,-16.4577"/>
<polygon fill="midnightblue" stroke="midnightblue" points="1335.1,-13.0044 1324.61,-14.492 1333.73,-19.8706 1335.1,-13.0044"/>
</g>
<!-- Node23&#45;&gt;Node17 -->
<g id="edge24" class="edge"><title>Node23&#45;&gt;Node17</title>
<path fill="none" stroke="midnightblue" d="M1578.06,-61.9751C1540.1,-50.7956 1473.82,-31.2722 1435.24,-19.9065"/>
<polygon fill="midnightblue" stroke="midnightblue" points="1436.18,-16.5349 1425.6,-17.0667 1434.2,-23.2497 1436.18,-16.5349"/>
</g>
<!-- Node24 -->
<g id="node24" class="node"><title>Node24</title>
<polygon fill="none" stroke="#bfbfbf" points="1579,-0.5 1579,-19.5 1635,-19.5 1635,-0.5 1579,-0.5"/>
<text text-anchor="middle" x="1607" y="-7.5" font-family="Helvetica,sans-Serif" font-size="10.00">Rtypes.h</text>
</g>
<!-- Node23&#45;&gt;Node24 -->
<g id="edge26" class="edge"><title>Node23&#45;&gt;Node24</title>
<path fill="none" stroke="midnightblue" d="M1607,-61.9751C1607,-53.5803 1607,-40.4806 1607,-29.6631"/>
<polygon fill="midnightblue" stroke="midnightblue" points="1610.5,-29.5091 1607,-19.5091 1603.5,-29.5091 1610.5,-29.5091"/>
</g>
<!-- Node25 -->
<g id="node25" class="node"><title>Node25</title>
<polygon fill="none" stroke="#bfbfbf" points="1653.5,-0.5 1653.5,-19.5 1712.5,-19.5 1712.5,-0.5 1653.5,-0.5"/>
<text text-anchor="middle" x="1683" y="-7.5" font-family="Helvetica,sans-Serif" font-size="10.00">TObject.h</text>
</g>
<!-- Node23&#45;&gt;Node25 -->
<g id="edge27" class="edge"><title>Node23&#45;&gt;Node25</title>
<path fill="none" stroke="midnightblue" d="M1617.89,-61.9751C1629.97,-52.5199 1649.67,-37.0961 1664.24,-25.6871"/>
<polygon fill="midnightblue" stroke="midnightblue" points="1666.41,-28.4295 1672.13,-19.5091 1662.1,-22.9177 1666.41,-28.4295"/>
</g>
<!-- Node26 -->
<g id="node26" class="node"><title>Node26</title>
<polygon fill="none" stroke="#bfbfbf" points="1445,-0.5 1445,-19.5 1561,-19.5 1561,-0.5 1445,-0.5"/>
<text text-anchor="middle" x="1503" y="-7.5" font-family="Helvetica,sans-Serif" font-size="10.00">Common/Exceptions.h</text>
</g>
<!-- Node23&#45;&gt;Node26 -->
<g id="edge28" class="edge"><title>Node23&#45;&gt;Node26</title>
<path fill="none" stroke="midnightblue" d="M1592.1,-61.9751C1575.03,-52.2106 1546.84,-36.0807 1526.74,-24.5808"/>
<polygon fill="midnightblue" stroke="midnightblue" points="1528.29,-21.4371 1517.87,-19.5091 1524.81,-27.513 1528.29,-21.4371"/>
</g>
<!-- Node28 -->
<g id="node28" class="node"><title>Node28</title>
<polygon fill="none" stroke="#bfbfbf" points="1743.5,-0.5 1743.5,-19.5 1812.5,-19.5 1812.5,-0.5 1743.5,-0.5"/>
<text text-anchor="middle" x="1778" y="-7.5" font-family="Helvetica,sans-Serif" font-size="10.00">TObjArray.h</text>
</g>
<!-- Node27&#45;&gt;Node28 -->
<g id="edge30" class="edge"><title>Node27&#45;&gt;Node28</title>
<path fill="none" stroke="midnightblue" d="M1787.92,-56.3993C1786.17,-48.3772 1783.95,-38.2328 1782.06,-29.569"/>
<polygon fill="midnightblue" stroke="midnightblue" points="1785.45,-28.6802 1779.89,-19.6578 1778.61,-30.1744 1785.45,-28.6802"/>
</g>
<!-- Node29 -->
<g id="node29" class="node"><title>Node29</title>
<polygon fill="none" stroke="#bfbfbf" points="1831,-0.5 1831,-19.5 1959,-19.5 1959,-0.5 1831,-0.5"/>
<text text-anchor="middle" x="1895" y="-7.5" font-family="Helvetica,sans-Serif" font-size="10.00">Mergers/MergeInterface.h</text>
</g>
<!-- Node27&#45;&gt;Node29 -->
<g id="edge31" class="edge"><title>Node27&#45;&gt;Node29</title>
<path fill="none" stroke="midnightblue" d="M1815.65,-56.3993C1832.32,-46.8619 1854.23,-34.3248 1870.81,-24.8422"/>
<polygon fill="midnightblue" stroke="midnightblue" points="1872.93,-27.6617 1879.87,-19.6578 1869.45,-21.5858 1872.93,-27.6617"/>
</g>
<!-- Node30&#45;&gt;Node17 -->
<g id="edge33" class="edge"><title>Node30&#45;&gt;Node17</title>
<path fill="none" stroke="midnightblue" d="M1405,-61.9751C1405,-53.5803 1405,-40.4806 1405,-29.6631"/>
<polygon fill="midnightblue" stroke="midnightblue" points="1408.5,-29.5091 1405,-19.5091 1401.5,-29.5091 1408.5,-29.5091"/>
</g>
<!-- Node30&#45;&gt;Node18 -->
<g id="edge34" class="edge"><title>Node30&#45;&gt;Node18</title>
<path fill="none" stroke="midnightblue" d="M1368.03,-61.9751C1322.15,-51.3932 1243.85,-33.3356 1193.82,-21.7966"/>
<polygon fill="midnightblue" stroke="midnightblue" points="1194.43,-18.3459 1183.9,-19.5091 1192.85,-25.1669 1194.43,-18.3459"/>
</g>
</g>
</svg>
        <g id="navigator" transform="translate(0 0)" fill="#404254">
                <rect fill="#f2f5e9" fill-opacity="0.5" stroke="#606060" stroke-width=".5" x="0" y="0" width="60" height="60"/>
                <use id="zoomplus" xlink:href="#zoomPlus" x="17" y="9" onmousedown="handleZoom(evt,'in')"/>
                <use id="zoomminus" xlink:href="#zoomMin" x="42" y="9" onmousedown="handleZoom(evt,'out')"/>
                <use id="reset" xlink:href="#resetDef" x="30" y="36" onmousedown="handleReset()"/>
                <g id="arrowUp" xlink:href="#dirArrow" transform="translate(30 24)" onmousedown="handlePan(0,-1)">
                  <use xlink:href="#rim" fill="#404040">
                        <set attributeName="fill" to="#808080" begin="arrowUp.mouseover" end="arrowUp.mouseout"/>
                  </use>
                  <path fill="none" stroke="white" stroke-width="1.5" d="M0,-3.0v7 M-2.5,-0.5L0,-3.0L2.5,-0.5"/>
                </g>
                <g id="arrowRight" xlink:href="#dirArrow" transform="rotate(90) translate(36 -43)" onmousedown="handlePan(1,0)">
                  <use xlink:href="#rim" fill="#404040">
                        <set attributeName="fill" to="#808080" begin="arrowRight.mouseover" end="arrowRight.mouseout"/>
                  </use>
                  <path fill="none" stroke="white" stroke-width="1.5" d="M0,-3.0v7 M-2.5,-0.5L0,-3.0L2.5,-0.5"/>
                </g>
                <g id="arrowDown" xlink:href="#dirArrow" transform="rotate(180) translate(-30 -48)" onmousedown="handlePan(0,1)">
                  <use xlink:href="#rim" fill="#404040">
                        <set attributeName="fill" to="#808080" begin="arrowDown.mouseover" end="arrowDown.mouseout"/>
                  </use>
                  <path fill="none" stroke="white" stroke-width="1.5" d="M0,-3.0v7 M-2.5,-0.5L0,-3.0L2.5,-0.5"/>
                </g>
                <g id="arrowLeft" xlink:href="#dirArrow" transform="rotate(270) translate(-36 17)" onmousedown="handlePan(-1,0)">
                  <use xlink:href="#rim" fill="#404040">
                        <set attributeName="fill" to="#808080" begin="arrowLeft.mouseover" end="arrowLeft.mouseout"/>
                  </use>
                  <path fill="none" stroke="white" stroke-width="1.5" d="M0,-3.0v7 M-2.5,-0.5L0,-3.0L2.5,-0.5"/>
                </g>
        </g>
        <svg viewBox="0 0 15 15" width="100%" height="30px" preserveAspectRatio="xMaxYMin meet">
         <g id="arrow_out" transform="scale(0.3 0.3)">
          <a xlink:href="TaskCompressedData_8cxx__incl_org.svg" target="_base">
           <rect id="button" ry="5" rx="5" y="6" x="6" height="38" width="38"
                fill="#f2f5e9" fill-opacity="0.5" stroke="#606060" stroke-width="1.0"/>
           <path id="arrow"
             d="M 11.500037,31.436501 C 11.940474,20.09759 22.043105,11.32322 32.158766,21.979434 L 37.068811,17.246167 C 37.068811,17.246167 37.088388,32 37.088388,32 L 22.160133,31.978069 C 22.160133,31.978069 26.997745,27.140456 26.997745,27.140456 C 18.528582,18.264221 13.291696,25.230495 11.500037,31.436501 z"
             style="fill:#404040;"/>
          </a>
         </g>
        </svg>
</svg>
