<?xml version="1.0" encoding="UTF-8" standalone="no"?>
<!DOCTYPE svg PUBLIC "-//W3C//DTD SVG 1.1//EN"
 "http://www.w3.org/Graphics/SVG/1.1/DTD/svg11.dtd">
<!-- Generated by graphviz version 2.38.0 (20140413.2041)
 -->
<!-- Title: Modules/TOF/src/TaskDiagnostics.cxx Pages: 1 -->
<!--zoomable 330 -->
<svg id="main" version="1.1" xmlns="http://www.w3.org/2000/svg" xmlns:xlink="http://www.w3.org/1999/xlink" xml:space="preserve" onload="init(evt)">
<style type="text/css"><![CDATA[
.edge:hover path { stroke: red; }
.edge:hover polygon { stroke: red; fill: red; }
]]></style>
<script type="text/javascript"><![CDATA[
var edges = document.getElementsByTagName('g');
if (edges && edges.length) {
  for (var i=0;i<edges.length;i++) {
    if (edges[i].id.substr(0,4)=='edge') {
      edges[i].setAttribute('class','edge');
    }
  }
}
]]></script>
        <defs>
                <circle id="rim" cx="0" cy="0" r="7"/>
                <circle id="rim2" cx="0" cy="0" r="3.5"/>
                <g id="zoomPlus">
                        <use xlink:href="#rim" fill="#404040">
                                <set attributeName="fill" to="#808080" begin="zoomplus.mouseover" end="zoomplus.mouseout"/>
                        </use>
                        <path d="M-4,0h8M0,-4v8" fill="none" stroke="white" stroke-width="1.5" pointer-events="none"/>
                </g>
                <g id="zoomMin">
                        <use xlink:href="#rim" fill="#404040">
                                <set attributeName="fill" to="#808080" begin="zoomminus.mouseover" end="zoomminus.mouseout"/>
                        </use>
                        <path d="M-4,0h8" fill="none" stroke="white" stroke-width="1.5" pointer-events="none"/>
                </g>
                <g id="dirArrow">
                        <path fill="none" stroke="white" stroke-width="1.5" d="M0,-3.0v7 M-2.5,-0.5L0,-3.0L2.5,-0.5"/>
                </g>
               <g id="resetDef">
                       <use xlink:href="#rim2" fill="#404040">
                               <set attributeName="fill" to="#808080" begin="reset.mouseover" end="reset.mouseout"/>
                       </use>
               </g>
        </defs>

<script type="text/javascript">
var viewWidth = 1564;
var viewHeight = 330;
var sectionId = 'dynsection-0';
</script>
<script xlink:href="svgpan.js"/>
<svg id="graph" class="graph">
<g id="viewport">
<title>Modules/TOF/src/TaskDiagnostics.cxx</title>
<!-- Node1 -->
<g id="node1" class="node"><title>Node1</title>
<polygon fill="#bfbfbf" stroke="black" points="225,-302.5 225,-321.5 413,-321.5 413,-302.5 225,-302.5"/>
<text text-anchor="middle" x="319" y="-309.5" font-family="Helvetica,sans-Serif" font-size="10.00">Modules/TOF/src/TaskDiagnostics.cxx</text>
</g>
<!-- Node2 -->
<g id="node2" class="node"><title>Node2</title>
<polygon fill="none" stroke="#bfbfbf" points="0,-246.5 0,-265.5 50,-265.5 50,-246.5 0,-246.5"/>
<text text-anchor="middle" x="25" y="-253.5" font-family="Helvetica,sans-Serif" font-size="10.00">TH1F.h</text>
</g>
<!-- Node1&#45;&gt;Node2 -->
<g id="edge1" class="edge"><title>Node1&#45;&gt;Node2</title>
<path fill="none" stroke="midnightblue" d="M261.147,-302.471C210.542,-294.675 134.879,-282.21 60.2367,-266.12"/>
<polygon fill="midnightblue" stroke="midnightblue" points="60.7074,-262.64 50.1914,-263.931 59.2169,-269.48 60.7074,-262.64"/>
</g>
<!-- Node3 -->
<g id="node3" class="node"><title>Node3</title>
<polygon fill="none" stroke="#bfbfbf" points="68,-246.5 68,-265.5 118,-265.5 118,-246.5 68,-246.5"/>
<text text-anchor="middle" x="93" y="-253.5" font-family="Helvetica,sans-Serif" font-size="10.00">TH2F.h</text>
</g>
<!-- Node1&#45;&gt;Node3 -->
<g id="edge2" class="edge"><title>Node1&#45;&gt;Node3</title>
<path fill="none" stroke="midnightblue" d="M283.19,-302.444C240.646,-292.278 170.139,-275.431 127.968,-265.355"/>
<polygon fill="midnightblue" stroke="midnightblue" points="128.686,-261.928 118.146,-263.008 127.059,-268.737 128.686,-261.928"/>
</g>
<!-- Node4 -->
<g id="node4" class="node"><title>Node4</title>
<polygon fill="none" stroke="#bfbfbf" points="501,-179.5 501,-209.5 653,-209.5 653,-179.5 501,-179.5"/>
<text text-anchor="start" x="509" y="-197.5" font-family="Helvetica,sans-Serif" font-size="10.00">DataFormatsTOF/Compressed</text>
<text text-anchor="middle" x="577" y="-186.5" font-family="Helvetica,sans-Serif" font-size="10.00">DataFormat.h</text>
</g>
<!-- Node1&#45;&gt;Node4 -->
<g id="edge3" class="edge"><title>Node1&#45;&gt;Node4</title>
<path fill="none" stroke="midnightblue" d="M413.069,-310.222C492.95,-307.326 598.836,-297.436 626,-266 639.691,-250.156 623.6,-230.47 606.29,-215.931"/>
<polygon fill="midnightblue" stroke="midnightblue" points="608.366,-213.11 598.354,-209.645 604.02,-218.598 608.366,-213.11"/>
</g>
<!-- Node5 -->
<g id="node5" class="node"><title>Node5</title>
<polygon fill="none" stroke="#bfbfbf" points="174,-246.5 174,-265.5 308,-265.5 308,-246.5 174,-246.5"/>
<text text-anchor="middle" x="241" y="-253.5" font-family="Helvetica,sans-Serif" font-size="10.00">Framework/DataRefUtils.h</text>
</g>
<!-- Node1&#45;&gt;Node5 -->
<g id="edge4" class="edge"><title>Node1&#45;&gt;Node5</title>
<path fill="none" stroke="midnightblue" d="M306.468,-302.324C294.414,-293.979 275.973,-281.212 261.731,-271.352"/>
<polygon fill="midnightblue" stroke="midnightblue" points="263.715,-268.469 253.501,-265.655 259.731,-274.224 263.715,-268.469"/>
</g>
<!-- Node6 -->
<g id="node6" class="node"><title>Node6</title>
<polygon fill="none" stroke="#bfbfbf" points="326.5,-246.5 326.5,-265.5 467.5,-265.5 467.5,-246.5 326.5,-246.5"/>
<text text-anchor="middle" x="397" y="-253.5" font-family="Helvetica,sans-Serif" font-size="10.00">Headers/RAWDataHeader.h</text>
</g>
<!-- Node1&#45;&gt;Node6 -->
<g id="edge5" class="edge"><title>Node1&#45;&gt;Node6</title>
<path fill="none" stroke="midnightblue" d="M331.532,-302.324C343.586,-293.979 362.027,-281.212 376.269,-271.352"/>
<polygon fill="midnightblue" stroke="midnightblue" points="378.269,-274.224 384.499,-265.655 374.285,-268.469 378.269,-274.224"/>
</g>
<!-- Node7 -->
<g id="node7" class="node"><title>Node7</title>
<polygon fill="none" stroke="#bfbfbf" points="485.5,-246.5 485.5,-265.5 616.5,-265.5 616.5,-246.5 485.5,-246.5"/>
<text text-anchor="middle" x="551" y="-253.5" font-family="Helvetica,sans-Serif" font-size="10.00">DetectorsRaw/HBFUtils.h</text>
</g>
<!-- Node1&#45;&gt;Node7 -->
<g id="edge6" class="edge"><title>Node1&#45;&gt;Node7</title>
<path fill="none" stroke="midnightblue" d="M355.761,-302.444C396.063,-293.063 460.809,-277.993 504.585,-267.804"/>
<polygon fill="midnightblue" stroke="midnightblue" points="505.465,-271.192 514.411,-265.516 503.878,-264.375 505.465,-271.192"/>
</g>
<!-- Node8 -->
<g id="node8" class="node"><title>Node8</title>
<g id="a_node8"><a xlink:href="QcInfoLogger_8h.html" target="_top" xlink:title="QualityControl/QcInfoLogger.h">
<polygon fill="none" stroke="black" points="71.5,-123.5 71.5,-142.5 220.5,-142.5 220.5,-123.5 71.5,-123.5"/>
<text text-anchor="middle" x="146" y="-130.5" font-family="Helvetica,sans-Serif" font-size="10.00">QualityControl/QcInfoLogger.h</text>
</a>
</g>
</g>
<!-- Node1&#45;&gt;Node8 -->
<g id="edge7" class="edge"><title>Node1&#45;&gt;Node8</title>
<path fill="none" stroke="midnightblue" d="M228.641,-302.438C204.812,-295.867 181.248,-284.723 165,-266 137.392,-234.186 139.429,-180.923 142.918,-152.765"/>
<polygon fill="midnightblue" stroke="midnightblue" points="146.409,-153.075 144.369,-142.678 139.481,-152.078 146.409,-153.075"/>
</g>
<!-- Node10 -->
<g id="node10" class="node"><title>Node10</title>
<g id="a_node10"><a xlink:href="TaskDiagnostics_8h.html" target="_top" xlink:title="Task to check the diagnostic words of TOF crates received trough the TOF compressor. Here are defined the counters to check the diagnostics words of the TOF crates obtained from the compressor. This is why the DiagnosticCounter class derives from DecoderBase: it reads data from the decoder. ">
<polygon fill="none" stroke="black" points="681.5,-246.5 681.5,-265.5 802.5,-265.5 802.5,-246.5 681.5,-246.5"/>
<text text-anchor="middle" x="742" y="-253.5" font-family="Helvetica,sans-Serif" font-size="10.00">TOF/TaskDiagnostics.h</text>
</a>
</g>
</g>
<!-- Node1&#45;&gt;Node10 -->
<g id="edge9" class="edge"><title>Node1&#45;&gt;Node10</title>
<path fill="none" stroke="midnightblue" d="M386.026,-302.444C463.835,-292.51 591.615,-276.198 671.057,-266.057"/>
<polygon fill="midnightblue" stroke="midnightblue" points="671.98,-269.467 681.456,-264.729 671.093,-262.524 671.98,-269.467"/>
</g>
<!-- Node9 -->
<g id="node9" class="node"><title>Node9</title>
<polygon fill="none" stroke="#bfbfbf" points="74,-62 74,-81 204,-81 204,-62 74,-62"/>
<text text-anchor="middle" x="139" y="-69" font-family="Helvetica,sans-Serif" font-size="10.00">InfoLogger/InfoLogger.hxx</text>
</g>
<!-- Node8&#45;&gt;Node9 -->
<g id="edge8" class="edge"><title>Node8&#45;&gt;Node9</title>
<path fill="none" stroke="midnightblue" d="M144.997,-123.475C144.009,-115.08 142.468,-101.981 141.196,-91.1631"/>
<polygon fill="midnightblue" stroke="midnightblue" points="144.646,-90.5316 140.001,-81.0091 137.694,-91.3496 144.646,-90.5316"/>
</g>
<!-- Node10&#45;&gt;Node4 -->
<g id="edge11" class="edge"><title>Node10&#45;&gt;Node4</title>
<path fill="none" stroke="midnightblue" d="M718.36,-246.475C694.237,-237.776 656.107,-224.026 625.524,-212.998"/>
<polygon fill="midnightblue" stroke="midnightblue" points="626.482,-209.623 615.887,-209.523 624.107,-216.208 626.482,-209.623"/>
</g>
<!-- Node11 -->
<g id="node11" class="node"><title>Node11</title>
<polygon fill="none" stroke="#bfbfbf" points="671,-179.5 671,-209.5 813,-209.5 813,-179.5 671,-179.5"/>
<text text-anchor="start" x="679" y="-197.5" font-family="Helvetica,sans-Serif" font-size="10.00">TOFReconstruction/Decoder</text>
<text text-anchor="middle" x="742" y="-186.5" font-family="Helvetica,sans-Serif" font-size="10.00">Base.h</text>
</g>
<!-- Node10&#45;&gt;Node11 -->
<g id="edge10" class="edge"><title>Node10&#45;&gt;Node11</title>
<path fill="none" stroke="midnightblue" d="M742,-246.475C742,-239.471 742,-229.192 742,-219.696"/>
<polygon fill="midnightblue" stroke="midnightblue" points="745.5,-219.523 742,-209.523 738.5,-219.523 745.5,-219.523"/>
</g>
<!-- Node12 -->
<g id="node12" class="node"><title>Node12</title>
<g id="a_node12"><a xlink:href="TaskInterface_8h.html" target="_top" xlink:title="QualityControl/TaskInterface.h">
<polygon fill="none" stroke="black" points="831,-185 831,-204 981,-204 981,-185 831,-185"/>
<text text-anchor="middle" x="906" y="-192" font-family="Helvetica,sans-Serif" font-size="10.00">QualityControl/TaskInterface.h</text>
</a>
</g>
</g>
<!-- Node10&#45;&gt;Node12 -->
<g id="edge12" class="edge"><title>Node10&#45;&gt;Node12</title>
<path fill="none" stroke="midnightblue" d="M765.497,-246.475C793.629,-236.269 840.929,-219.108 872.789,-207.549"/>
<polygon fill="midnightblue" stroke="midnightblue" points="874.34,-210.71 882.546,-204.009 871.952,-204.13 874.34,-210.71"/>
</g>
<!-- Node29 -->
<g id="node29" class="node"><title>Node29</title>
<g id="a_node29"><a xlink:href="Counter_8h.html" target="_top" xlink:title="Utilities to count events and fill histograms at the end of the main processing loops. ">
<polygon fill="none" stroke="black" points="1201.5,-185 1201.5,-204 1286.5,-204 1286.5,-185 1201.5,-185"/>
<text text-anchor="middle" x="1244" y="-192" font-family="Helvetica,sans-Serif" font-size="10.00">Base/Counter.h</text>
</a>
</g>
</g>
<!-- Node10&#45;&gt;Node29 -->
<g id="edge35" class="edge"><title>Node10&#45;&gt;Node29</title>
<path fill="none" stroke="midnightblue" d="M802.553,-247.823C901.711,-236.07 1097.07,-212.915 1191.05,-201.776"/>
<polygon fill="midnightblue" stroke="midnightblue" points="1191.66,-205.228 1201.18,-200.576 1190.83,-198.277 1191.66,-205.228"/>
</g>
<!-- Node13 -->
<g id="node13" class="node"><title>Node13</title>
<polygon fill="none" stroke="#bfbfbf" points="346.5,-0.5 346.5,-19.5 381.5,-19.5 381.5,-0.5 346.5,-0.5"/>
<text text-anchor="middle" x="364" y="-7.5" font-family="Helvetica,sans-Serif" font-size="10.00">map</text>
</g>
<!-- Node12&#45;&gt;Node13 -->
<g id="edge13" class="edge"><title>Node12&#45;&gt;Node13</title>
<path fill="none" stroke="midnightblue" d="M858.071,-184.942C846.289,-182.917 833.699,-180.819 822,-179 638.321,-150.439 559.087,-203.205 414,-87 394.604,-71.4649 380.162,-46.3163 371.912,-29.2402"/>
<polygon fill="midnightblue" stroke="midnightblue" points="374.937,-27.4394 367.586,-19.8092 368.574,-30.3579 374.937,-27.4394"/>
</g>
<!-- Node14 -->
<g id="node14" class="node"><title>Node14</title>
<polygon fill="none" stroke="#bfbfbf" points="788,-62 788,-81 840,-81 840,-62 788,-62"/>
<text text-anchor="middle" x="814" y="-69" font-family="Helvetica,sans-Serif" font-size="10.00">memory</text>
</g>
<!-- Node12&#45;&gt;Node14 -->
<g id="edge14" class="edge"><title>Node12&#45;&gt;Node14</title>
<path fill="none" stroke="midnightblue" d="M895.57,-184.948C884.413,-175.462 866.622,-159.329 854,-143 841.133,-126.355 829.653,-105.108 822.328,-90.3099"/>
<polygon fill="midnightblue" stroke="midnightblue" points="825.448,-88.7217 817.954,-81.2316 819.141,-91.7598 825.448,-88.7217"/>
</g>
<!-- Node15 -->
<g id="node15" class="node"><title>Node15</title>
<polygon fill="none" stroke="#bfbfbf" points="685.5,-0.5 685.5,-19.5 726.5,-19.5 726.5,-0.5 685.5,-0.5"/>
<text text-anchor="middle" x="706" y="-7.5" font-family="Helvetica,sans-Serif" font-size="10.00">string</text>
</g>
<!-- Node12&#45;&gt;Node15 -->
<g id="edge15" class="edge"><title>Node12&#45;&gt;Node15</title>
<path fill="none" stroke="midnightblue" d="M903.434,-184.738C895.279,-157.431 869.298,-74.5844 849,-56 817.784,-27.4196 768.524,-16.9912 736.741,-13.1861"/>
<polygon fill="midnightblue" stroke="midnightblue" points="736.993,-9.69347 726.683,-12.1329 736.264,-16.6554 736.993,-9.69347"/>
</g>
<!-- Node16 -->
<g id="node16" class="node"><title>Node16</title>
<polygon fill="none" stroke="#bfbfbf" points="804.5,-0.5 804.5,-19.5 887.5,-19.5 887.5,-0.5 804.5,-0.5"/>
<text text-anchor="middle" x="846" y="-7.5" font-family="Helvetica,sans-Serif" font-size="10.00">unordered_map</text>
</g>
<!-- Node12&#45;&gt;Node16 -->
<g id="edge16" class="edge"><title>Node12&#45;&gt;Node16</title>
<path fill="none" stroke="midnightblue" d="M905.954,-184.694C905.529,-162.214 902.427,-101.282 882,-56 877.237,-45.4409 869.418,-35.2282 862.283,-27.2085"/>
<polygon fill="midnightblue" stroke="midnightblue" points="864.648,-24.6145 855.25,-19.7223 859.546,-29.4072 864.648,-24.6145"/>
</g>
<!-- Node17 -->
<g id="node17" class="node"><title>Node17</title>
<polygon fill="none" stroke="#bfbfbf" points="934.5,-123.5 934.5,-142.5 1059.5,-142.5 1059.5,-123.5 934.5,-123.5"/>
<text text-anchor="middle" x="997" y="-130.5" font-family="Helvetica,sans-Serif" font-size="10.00">Framework/InitContext.h</text>
</g>
<!-- Node12&#45;&gt;Node17 -->
<g id="edge17" class="edge"><title>Node12&#45;&gt;Node17</title>
<path fill="none" stroke="midnightblue" d="M919.038,-184.975C933.769,-175.343 957.973,-159.517 975.509,-148.052"/>
<polygon fill="midnightblue" stroke="midnightblue" points="977.532,-150.911 983.986,-142.509 973.701,-145.052 977.532,-150.911"/>
</g>
<!-- Node18 -->
<g id="node18" class="node"><title>Node18</title>
<polygon fill="none" stroke="#bfbfbf" points="1078,-123.5 1078,-142.5 1238,-142.5 1238,-123.5 1078,-123.5"/>
<text text-anchor="middle" x="1158" y="-130.5" font-family="Helvetica,sans-Serif" font-size="10.00">Framework/ProcessingContext.h</text>
</g>
<!-- Node12&#45;&gt;Node18 -->
<g id="edge18" class="edge"><title>Node12&#45;&gt;Node18</title>
<path fill="none" stroke="midnightblue" d="M942.105,-184.975C986.829,-174.415 1063.08,-156.411 1111.97,-144.869"/>
<polygon fill="midnightblue" stroke="midnightblue" points="1113.03,-148.213 1121.96,-142.509 1111.42,-141.401 1113.03,-148.213"/>
</g>
<!-- Node19 -->
<g id="node19" class="node"><title>Node19</title>
<g id="a_node19"><a xlink:href="Activity_8h.html" target="_top" xlink:title="QualityControl/Activity.h">
<polygon fill="none" stroke="black" points="1256.5,-123.5 1256.5,-142.5 1379.5,-142.5 1379.5,-123.5 1256.5,-123.5"/>
<text text-anchor="middle" x="1318" y="-130.5" font-family="Helvetica,sans-Serif" font-size="10.00">QualityControl/Activity.h</text>
</a>
</g>
</g>
<!-- Node12&#45;&gt;Node19 -->
<g id="edge19" class="edge"><title>Node12&#45;&gt;Node19</title>
<path fill="none" stroke="midnightblue" d="M965.03,-184.975C1040.14,-174.128 1169.64,-155.426 1249.16,-143.942"/>
<polygon fill="midnightblue" stroke="midnightblue" points="1249.68,-147.403 1259.08,-142.509 1248.68,-140.474 1249.68,-147.403"/>
</g>
<!-- Node20 -->
<g id="node20" class="node"><title>Node20</title>
<g id="a_node20"><a xlink:href="ObjectsManager_8h.html" target="_top" xlink:title="QualityControl/ObjectsManager.h">
<polygon fill="none" stroke="black" points="570.5,-123.5 570.5,-142.5 731.5,-142.5 731.5,-123.5 570.5,-123.5"/>
<text text-anchor="middle" x="651" y="-130.5" font-family="Helvetica,sans-Serif" font-size="10.00">QualityControl/ObjectsManager.h</text>
</a>
</g>
</g>
<!-- Node12&#45;&gt;Node20 -->
<g id="edge20" class="edge"><title>Node12&#45;&gt;Node20</title>
<path fill="none" stroke="midnightblue" d="M869.465,-184.975C824.114,-174.393 746.724,-156.336 697.271,-144.797"/>
<polygon fill="midnightblue" stroke="midnightblue" points="698.001,-141.373 687.468,-142.509 696.411,-148.19 698.001,-141.373"/>
</g>
<!-- Node20&#45;&gt;Node14 -->
<g id="edge34" class="edge"><title>Node20&#45;&gt;Node14</title>
<path fill="none" stroke="midnightblue" d="M676.65,-123.443C702.6,-114.679 743.8,-100.468 779,-87 780.647,-86.3698 782.333,-85.7126 784.032,-85.0409"/>
<polygon fill="midnightblue" stroke="midnightblue" points="785.759,-88.1177 793.717,-81.1231 783.134,-81.6285 785.759,-88.1177"/>
</g>
<!-- Node20&#45;&gt;Node15 -->
<g id="edge33" class="edge"><title>Node20&#45;&gt;Node15</title>
<path fill="none" stroke="midnightblue" d="M642.445,-123.131C629.394,-108.481 607.391,-78.6037 621,-56 627.302,-45.533 654.176,-32.3275 676.042,-22.9349"/>
<polygon fill="midnightblue" stroke="midnightblue" points="677.47,-26.1318 685.338,-19.0369 674.762,-19.6764 677.47,-26.1318"/>
</g>
<!-- Node21 -->
<g id="node21" class="node"><title>Node21</title>
<g id="a_node21"><a xlink:href="MonitorObject_8h.html" target="_top" xlink:title="QualityControl/MonitorObject.h">
<polygon fill="none" stroke="black" points="422.5,-62 422.5,-81 573.5,-81 573.5,-62 422.5,-62"/>
<text text-anchor="middle" x="498" y="-69" font-family="Helvetica,sans-Serif" font-size="10.00">QualityControl/MonitorObject.h</text>
</a>
</g>
</g>
<!-- Node20&#45;&gt;Node21 -->
<g id="edge21" class="edge"><title>Node20&#45;&gt;Node21</title>
<path fill="none" stroke="midnightblue" d="M629.079,-123.475C602.948,-113.313 559.088,-96.2564 529.37,-84.6996"/>
<polygon fill="midnightblue" stroke="midnightblue" points="530.469,-81.3716 519.881,-81.0091 527.932,-87.8956 530.469,-81.3716"/>
</g>
<!-- Node25 -->
<g id="node25" class="node"><title>Node25</title>
<g id="a_node25"><a xlink:href="MonitorObjectCollection_8h.html" target="_top" xlink:title="QualityControl/MonitorObject\lCollection.h">
<polygon fill="none" stroke="black" points="222.5,-56.5 222.5,-86.5 365.5,-86.5 365.5,-56.5 222.5,-56.5"/>
<text text-anchor="start" x="230.5" y="-74.5" font-family="Helvetica,sans-Serif" font-size="10.00">QualityControl/MonitorObject</text>
<text text-anchor="middle" x="294" y="-63.5" font-family="Helvetica,sans-Serif" font-size="10.00">Collection.h</text>
</a>
</g>
</g>
<!-- Node20&#45;&gt;Node25 -->
<g id="edge27" class="edge"><title>Node20&#45;&gt;Node25</title>
<path fill="none" stroke="midnightblue" d="M599.851,-123.475C541.322,-113.72 444.678,-97.6131 375.692,-86.1154"/>
<polygon fill="midnightblue" stroke="midnightblue" points="376.162,-82.6455 365.723,-84.4538 375.011,-89.5502 376.162,-82.6455"/>
</g>
<!-- Node28 -->
<g id="node28" class="node"><title>Node28</title>
<g id="a_node28"><a xlink:href="TaskConfig_8h.html" target="_top" xlink:title="QualityControl/TaskConfig.h">
<polygon fill="none" stroke="black" points="630,-62 630,-81 770,-81 770,-62 630,-62"/>
<text text-anchor="middle" x="700" y="-69" font-family="Helvetica,sans-Serif" font-size="10.00">QualityControl/TaskConfig.h</text>
</a>
</g>
</g>
<!-- Node20&#45;&gt;Node28 -->
<g id="edge30" class="edge"><title>Node20&#45;&gt;Node28</title>
<path fill="none" stroke="midnightblue" d="M658.021,-123.475C665.443,-114.462 677.333,-100.025 686.567,-88.8118"/>
<polygon fill="midnightblue" stroke="midnightblue" points="689.337,-90.9534 692.993,-81.0091 683.934,-86.5034 689.337,-90.9534"/>
</g>
<!-- Node21&#45;&gt;Node13 -->
<g id="edge23" class="edge"><title>Node21&#45;&gt;Node13</title>
<path fill="none" stroke="midnightblue" d="M478.801,-61.9751C455.828,-51.7745 417.211,-34.6274 391.18,-23.0688"/>
<polygon fill="midnightblue" stroke="midnightblue" points="392.439,-19.7981 381.879,-18.9386 389.598,-26.1957 392.439,-19.7981"/>
</g>
<!-- Node21&#45;&gt;Node15 -->
<g id="edge22" class="edge"><title>Node21&#45;&gt;Node15</title>
<path fill="none" stroke="midnightblue" d="M529.114,-61.9855C562.92,-52.6766 618.762,-37.1328 675.562,-20.3768"/>
<polygon fill="midnightblue" stroke="midnightblue" points="676.829,-23.6518 685.425,-17.4576 674.843,-16.9396 676.829,-23.6518"/>
</g>
<!-- Node22 -->
<g id="node22" class="node"><title>Node22</title>
<polygon fill="none" stroke="#bfbfbf" points="534,-0.5 534,-19.5 590,-19.5 590,-0.5 534,-0.5"/>
<text text-anchor="middle" x="562" y="-7.5" font-family="Helvetica,sans-Serif" font-size="10.00">Rtypes.h</text>
</g>
<!-- Node21&#45;&gt;Node22 -->
<g id="edge24" class="edge"><title>Node21&#45;&gt;Node22</title>
<path fill="none" stroke="midnightblue" d="M507.17,-61.9751C517.15,-52.6966 533.312,-37.6706 545.509,-26.331"/>
<polygon fill="midnightblue" stroke="midnightblue" points="547.907,-28.8814 552.847,-19.5091 543.14,-23.7547 547.907,-28.8814"/>
</g>
<!-- Node23 -->
<g id="node23" class="node"><title>Node23</title>
<polygon fill="none" stroke="#bfbfbf" points="608.5,-0.5 608.5,-19.5 667.5,-19.5 667.5,-0.5 608.5,-0.5"/>
<text text-anchor="middle" x="638" y="-7.5" font-family="Helvetica,sans-Serif" font-size="10.00">TObject.h</text>
</g>
<!-- Node21&#45;&gt;Node23 -->
<g id="edge25" class="edge"><title>Node21&#45;&gt;Node23</title>
<path fill="none" stroke="midnightblue" d="M518.059,-61.9751C541.762,-51.9013 581.406,-35.0525 608.583,-23.5023"/>
<polygon fill="midnightblue" stroke="midnightblue" points="610.144,-26.6417 617.979,-19.5091 607.406,-20.1994 610.144,-26.6417"/>
</g>
<!-- Node24 -->
<g id="node24" class="node"><title>Node24</title>
<polygon fill="none" stroke="#bfbfbf" points="400,-0.5 400,-19.5 516,-19.5 516,-0.5 400,-0.5"/>
<text text-anchor="middle" x="458" y="-7.5" font-family="Helvetica,sans-Serif" font-size="10.00">Common/Exceptions.h</text>
</g>
<!-- Node21&#45;&gt;Node24 -->
<g id="edge26" class="edge"><title>Node21&#45;&gt;Node24</title>
<path fill="none" stroke="midnightblue" d="M492.269,-61.9751C486.328,-53.1384 476.883,-39.0886 469.412,-27.975"/>
<polygon fill="midnightblue" stroke="midnightblue" points="472.204,-25.8554 463.72,-19.5091 466.395,-29.7608 472.204,-25.8554"/>
</g>
<!-- Node26 -->
<g id="node26" class="node"><title>Node26</title>
<polygon fill="none" stroke="#bfbfbf" points="259.5,-0.5 259.5,-19.5 328.5,-19.5 328.5,-0.5 259.5,-0.5"/>
<text text-anchor="middle" x="294" y="-7.5" font-family="Helvetica,sans-Serif" font-size="10.00">TObjArray.h</text>
</g>
<!-- Node25&#45;&gt;Node26 -->
<g id="edge28" class="edge"><title>Node25&#45;&gt;Node26</title>
<path fill="none" stroke="midnightblue" d="M294,-56.3993C294,-48.4664 294,-38.458 294,-29.8583"/>
<polygon fill="midnightblue" stroke="midnightblue" points="297.5,-29.6577 294,-19.6578 290.5,-29.6578 297.5,-29.6577"/>
</g>
<!-- Node27 -->
<g id="node27" class="node"><title>Node27</title>
<polygon fill="none" stroke="#bfbfbf" points="113,-0.5 113,-19.5 241,-19.5 241,-0.5 113,-0.5"/>
<text text-anchor="middle" x="177" y="-7.5" font-family="Helvetica,sans-Serif" font-size="10.00">Mergers/MergeInterface.h</text>
</g>
<!-- Node25&#45;&gt;Node27 -->
<g id="edge29" class="edge"><title>Node25&#45;&gt;Node27</title>
<path fill="none" stroke="midnightblue" d="M266.273,-56.3993C247.168,-46.6837 221.942,-33.8551 203.18,-24.3137"/>
<polygon fill="midnightblue" stroke="midnightblue" points="204.525,-21.071 194.025,-19.6578 201.352,-27.3106 204.525,-21.071"/>
</g>
<!-- Node28&#45;&gt;Node15 -->
<g id="edge31" class="edge"><title>Node28&#45;&gt;Node15</title>
<path fill="none" stroke="midnightblue" d="M700.86,-61.9751C701.706,-53.5803 703.027,-40.4806 704.118,-29.6631"/>
<polygon fill="midnightblue" stroke="midnightblue" points="707.621,-29.8098 705.142,-19.5091 700.656,-29.1074 707.621,-29.8098"/>
</g>
<!-- Node28&#45;&gt;Node16 -->
<g id="edge32" class="edge"><title>Node28&#45;&gt;Node16</title>
<path fill="none" stroke="midnightblue" d="M720.918,-61.9751C745.746,-51.8571 787.343,-34.9046 815.694,-23.3507"/>
<polygon fill="midnightblue" stroke="midnightblue" points="817.181,-26.5243 825.121,-19.5091 814.539,-20.0419 817.181,-26.5243"/>
</g>
<!-- Node29&#45;&gt;Node8 -->
<g id="edge37" class="edge"><title>Node29&#45;&gt;Node8</title>
<path fill="none" stroke="midnightblue" d="M1201.31,-191.014C1150.84,-188.086 1064.31,-183.102 990,-179 712.149,-163.662 382.794,-146.354 230.719,-138.411"/>
<polygon fill="midnightblue" stroke="midnightblue" points="230.689,-134.905 220.52,-137.879 230.324,-141.896 230.689,-134.905"/>
</g>
<!-- Node30 -->
<g id="node30" class="node"><title>Node30</title>
<polygon fill="none" stroke="#bfbfbf" points="1512,-123.5 1512,-142.5 1556,-142.5 1556,-123.5 1512,-123.5"/>
<text text-anchor="middle" x="1534" y="-130.5" font-family="Helvetica,sans-Serif" font-size="10.00">TH1.h</text>
</g>
<!-- Node29&#45;&gt;Node30 -->
<g id="edge36" class="edge"><title>Node29&#45;&gt;Node30</title>
<path fill="none" stroke="midnightblue" d="M1286.62,-186.565C1336.33,-178.179 1421.15,-162.955 1501.96,-143.345"/>
<polygon fill="midnightblue" stroke="midnightblue" points="1502.91,-146.715 1511.79,-140.932 1501.24,-139.917 1502.91,-146.715"/>
</g>
<!-- Node31 -->
<g id="node31" class="node"><title>Node31</title>
<polygon fill="none" stroke="#bfbfbf" points="1397.5,-123.5 1397.5,-142.5 1494.5,-142.5 1494.5,-123.5 1397.5,-123.5"/>
<text text-anchor="middle" x="1446" y="-130.5" font-family="Helvetica,sans-Serif" font-size="10.00">fairlogger/Logger.h</text>
</g>
<!-- Node29&#45;&gt;Node31 -->
<g id="edge38" class="edge"><title>Node29&#45;&gt;Node31</title>
<path fill="none" stroke="midnightblue" d="M1272.94,-184.975C1308.27,-174.57 1368.13,-156.937 1407.36,-145.38"/>
<polygon fill="midnightblue" stroke="midnightblue" points="1408.51,-148.692 1417.11,-142.509 1406.53,-141.977 1408.51,-148.692"/>
</g>
</g>
</svg>
        <g id="navigator" transform="translate(0 0)" fill="#404254">
                <rect fill="#f2f5e9" fill-opacity="0.5" stroke="#606060" stroke-width=".5" x="0" y="0" width="60" height="60"/>
                <use id="zoomplus" xlink:href="#zoomPlus" x="17" y="9" onmousedown="handleZoom(evt,'in')"/>
                <use id="zoomminus" xlink:href="#zoomMin" x="42" y="9" onmousedown="handleZoom(evt,'out')"/>
                <use id="reset" xlink:href="#resetDef" x="30" y="36" onmousedown="handleReset()"/>
                <g id="arrowUp" xlink:href="#dirArrow" transform="translate(30 24)" onmousedown="handlePan(0,-1)">
                  <use xlink:href="#rim" fill="#404040">
                        <set attributeName="fill" to="#808080" begin="arrowUp.mouseover" end="arrowUp.mouseout"/>
                  </use>
                  <path fill="none" stroke="white" stroke-width="1.5" d="M0,-3.0v7 M-2.5,-0.5L0,-3.0L2.5,-0.5"/>
                </g>
                <g id="arrowRight" xlink:href="#dirArrow" transform="rotate(90) translate(36 -43)" onmousedown="handlePan(1,0)">
                  <use xlink:href="#rim" fill="#404040">
                        <set attributeName="fill" to="#808080" begin="arrowRight.mouseover" end="arrowRight.mouseout"/>
                  </use>
                  <path fill="none" stroke="white" stroke-width="1.5" d="M0,-3.0v7 M-2.5,-0.5L0,-3.0L2.5,-0.5"/>
                </g>
                <g id="arrowDown" xlink:href="#dirArrow" transform="rotate(180) translate(-30 -48)" onmousedown="handlePan(0,1)">
                  <use xlink:href="#rim" fill="#404040">
                        <set attributeName="fill" to="#808080" begin="arrowDown.mouseover" end="arrowDown.mouseout"/>
                  </use>
                  <path fill="none" stroke="white" stroke-width="1.5" d="M0,-3.0v7 M-2.5,-0.5L0,-3.0L2.5,-0.5"/>
                </g>
                <g id="arrowLeft" xlink:href="#dirArrow" transform="rotate(270) translate(-36 17)" onmousedown="handlePan(-1,0)">
                  <use xlink:href="#rim" fill="#404040">
                        <set attributeName="fill" to="#808080" begin="arrowLeft.mouseover" end="arrowLeft.mouseout"/>
                  </use>
                  <path fill="none" stroke="white" stroke-width="1.5" d="M0,-3.0v7 M-2.5,-0.5L0,-3.0L2.5,-0.5"/>
                </g>
        </g>
        <svg viewBox="0 0 15 15" width="100%" height="30px" preserveAspectRatio="xMaxYMin meet">
         <g id="arrow_out" transform="scale(0.3 0.3)">
          <a xlink:href="TaskDiagnostics_8cxx__incl_org.svg" target="_base">
           <rect id="button" ry="5" rx="5" y="6" x="6" height="38" width="38"
                fill="#f2f5e9" fill-opacity="0.5" stroke="#606060" stroke-width="1.0"/>
           <path id="arrow"
             d="M 11.500037,31.436501 C 11.940474,20.09759 22.043105,11.32322 32.158766,21.979434 L 37.068811,17.246167 C 37.068811,17.246167 37.088388,32 37.088388,32 L 22.160133,31.978069 C 22.160133,31.978069 26.997745,27.140456 26.997745,27.140456 C 18.528582,18.264221 13.291696,25.230495 11.500037,31.436501 z"
             style="fill:#404040;"/>
          </a>
         </g>
        </svg>
</svg>
