<?xml version="1.0" encoding="UTF-8" standalone="no"?>
<!DOCTYPE svg PUBLIC "-//W3C//DTD SVG 1.1//EN"
 "http://www.w3.org/Graphics/SVG/1.1/DTD/svg11.dtd">
<!-- Generated by graphviz version 2.38.0 (20140413.2041)
 -->
<!-- Title: Framework/src/TaskRunnerFactory.cxx Pages: 1 -->
<svg width="1455pt" height="352pt"
 viewBox="0.00 0.00 1454.50 352.00" xmlns="http://www.w3.org/2000/svg" xmlns:xlink="http://www.w3.org/1999/xlink">
<g id="graph0" class="graph" transform="scale(1 1) rotate(0) translate(4 348)">
<title>Framework/src/TaskRunnerFactory.cxx</title>
<!-- Node1 -->
<g id="node1" class="node"><title>Node1</title>
<polygon fill="#bfbfbf" stroke="black" points="713,-313.5 713,-343.5 851,-343.5 851,-313.5 713,-313.5"/>
<text text-anchor="start" x="721" y="-331.5" font-family="Helvetica,sans-Serif" font-size="10.00">Framework/src/TaskRunner</text>
<text text-anchor="middle" x="782" y="-320.5" font-family="Helvetica,sans-Serif" font-size="10.00">Factory.cxx</text>
</g>
<!-- Node2 -->
<g id="node2" class="node"><title>Node2</title>
<g id="a_node2"><a xlink:href="TaskRunnerFactory_8h.html" target="_top" xlink:title="QualityControl/TaskRunner\lFactory.h">
<polygon fill="none" stroke="black" points="59.5,-246.5 59.5,-276.5 194.5,-276.5 194.5,-246.5 59.5,-246.5"/>
<text text-anchor="start" x="67.5" y="-264.5" font-family="Helvetica,sans-Serif" font-size="10.00">QualityControl/TaskRunner</text>
<text text-anchor="middle" x="127" y="-253.5" font-family="Helvetica,sans-Serif" font-size="10.00">Factory.h</text>
</a>
</g>
</g>
<!-- Node1&#45;&gt;Node2 -->
<g id="edge1" class="edge"><title>Node1&#45;&gt;Node2</title>
<path fill="none" stroke="midnightblue" d="M712.833,-320.636C589.884,-308.435 334.113,-283.053 205.06,-270.246"/>
<polygon fill="midnightblue" stroke="midnightblue" points="205.156,-266.739 194.859,-269.234 204.465,-273.705 205.156,-266.739"/>
</g>
<!-- Node6 -->
<g id="node6" class="node"><title>Node6</title>
<g id="a_node6"><a xlink:href="TaskRunner_8h.html" target="_top" xlink:title="QualityControl/TaskRunner.h">
<polygon fill="none" stroke="black" points="660.5,-252 660.5,-271 803.5,-271 803.5,-252 660.5,-252"/>
<text text-anchor="middle" x="732" y="-259" font-family="Helvetica,sans-Serif" font-size="10.00">QualityControl/TaskRunner.h</text>
</a>
</g>
</g>
<!-- Node1&#45;&gt;Node6 -->
<g id="edge5" class="edge"><title>Node1&#45;&gt;Node6</title>
<path fill="none" stroke="midnightblue" d="M771.151,-313.396C763.432,-303.361 753.029,-289.838 744.887,-279.253"/>
<polygon fill="midnightblue" stroke="midnightblue" points="747.559,-276.987 738.688,-271.195 742.011,-281.255 747.559,-276.987"/>
</g>
<!-- Node10 -->
<g id="node10" class="node"><title>Node10</title>
<polygon fill="none" stroke="#bfbfbf" points="1293.5,-185 1293.5,-204 1446.5,-204 1446.5,-185 1293.5,-185"/>
<text text-anchor="middle" x="1370" y="-192" font-family="Helvetica,sans-Serif" font-size="10.00">Framework/CompletionPolicy.h</text>
</g>
<!-- Node1&#45;&gt;Node10 -->
<g id="edge39" class="edge"><title>Node1&#45;&gt;Node10</title>
<path fill="none" stroke="midnightblue" d="M789.322,-313.298C800.009,-294.232 821.826,-261.022 851,-246 937.039,-201.697 1188.99,-222.148 1285,-210 1294.48,-208.801 1304.52,-207.298 1314.24,-205.718"/>
<polygon fill="midnightblue" stroke="midnightblue" points="1314.94,-209.149 1324.23,-204.052 1313.79,-202.245 1314.94,-209.149"/>
</g>
<!-- Node29 -->
<g id="node29" class="node"><title>Node29</title>
<polygon fill="none" stroke="#bfbfbf" points="860,-252 860,-271 990,-271 990,-252 860,-252"/>
<text text-anchor="middle" x="925" y="-259" font-family="Helvetica,sans-Serif" font-size="10.00">Framework/DeviceSpec.h</text>
</g>
<!-- Node1&#45;&gt;Node29 -->
<g id="edge38" class="edge"><title>Node1&#45;&gt;Node29</title>
<path fill="none" stroke="midnightblue" d="M813.029,-313.396C838.009,-302.041 872.816,-286.22 896.964,-275.244"/>
<polygon fill="midnightblue" stroke="midnightblue" points="898.629,-278.331 906.285,-271.007 895.733,-271.959 898.629,-278.331"/>
</g>
<!-- Node3 -->
<g id="node3" class="node"><title>Node3</title>
<polygon fill="none" stroke="#bfbfbf" points="535.5,-0.5 535.5,-19.5 576.5,-19.5 576.5,-0.5 535.5,-0.5"/>
<text text-anchor="middle" x="556" y="-7.5" font-family="Helvetica,sans-Serif" font-size="10.00">string</text>
</g>
<!-- Node2&#45;&gt;Node3 -->
<g id="edge2" class="edge"><title>Node2&#45;&gt;Node3</title>
<path fill="none" stroke="midnightblue" d="M112.426,-246.374C96.7244,-229.4 75.8918,-200.523 91,-179 117.465,-141.299 426.475,-48.7067 525.6,-19.7811"/>
<polygon fill="midnightblue" stroke="midnightblue" points="526.69,-23.1092 535.314,-16.9546 524.734,-16.388 526.69,-23.1092"/>
</g>
<!-- Node4 -->
<g id="node4" class="node"><title>Node4</title>
<polygon fill="none" stroke="#bfbfbf" points="0,-185 0,-204 44,-204 44,-185 0,-185"/>
<text text-anchor="middle" x="22" y="-192" font-family="Helvetica,sans-Serif" font-size="10.00">vector</text>
</g>
<!-- Node2&#45;&gt;Node4 -->
<g id="edge3" class="edge"><title>Node2&#45;&gt;Node4</title>
<path fill="none" stroke="midnightblue" d="M104.217,-246.396C86.4453,-235.395 61.9004,-220.2 44.2631,-209.282"/>
<polygon fill="midnightblue" stroke="midnightblue" points="46.087,-206.295 35.7421,-204.007 42.4025,-212.247 46.087,-206.295"/>
</g>
<!-- Node5 -->
<g id="node5" class="node"><title>Node5</title>
<polygon fill="none" stroke="#bfbfbf" points="100,-185 100,-204 264,-204 264,-185 100,-185"/>
<text text-anchor="middle" x="182" y="-192" font-family="Helvetica,sans-Serif" font-size="10.00">Framework/DataProcessorSpec.h</text>
</g>
<!-- Node2&#45;&gt;Node5 -->
<g id="edge4" class="edge"><title>Node2&#45;&gt;Node5</title>
<path fill="none" stroke="midnightblue" d="M138.934,-246.396C147.51,-236.261 159.097,-222.567 168.092,-211.937"/>
<polygon fill="midnightblue" stroke="midnightblue" points="170.855,-214.089 174.643,-204.195 165.512,-209.568 170.855,-214.089"/>
</g>
<!-- Node6&#45;&gt;Node5 -->
<g id="edge9" class="edge"><title>Node6&#45;&gt;Node5</title>
<path fill="none" stroke="midnightblue" d="M660.34,-253.404C570.779,-244.334 412.855,-227.678 278,-210 267.615,-208.639 256.615,-207.084 245.91,-205.51"/>
<polygon fill="midnightblue" stroke="midnightblue" points="246.174,-202.01 235.768,-204 245.144,-208.934 246.174,-202.01"/>
</g>
<!-- Node7 -->
<g id="node7" class="node"><title>Node7</title>
<polygon fill="none" stroke="#bfbfbf" points="624.5,-179.5 624.5,-209.5 725.5,-209.5 725.5,-179.5 624.5,-179.5"/>
<text text-anchor="start" x="632.5" y="-197.5" font-family="Helvetica,sans-Serif" font-size="10.00">boost/property_tree</text>
<text text-anchor="middle" x="675" y="-186.5" font-family="Helvetica,sans-Serif" font-size="10.00">/ptree.hpp</text>
</g>
<!-- Node6&#45;&gt;Node7 -->
<g id="edge6" class="edge"><title>Node6&#45;&gt;Node7</title>
<path fill="none" stroke="midnightblue" d="M724.313,-251.734C716.609,-242.949 704.446,-229.078 694.127,-217.311"/>
<polygon fill="midnightblue" stroke="midnightblue" points="696.58,-214.8 687.355,-209.589 691.317,-219.415 696.58,-214.8"/>
</g>
<!-- Node8 -->
<g id="node8" class="node"><title>Node8</title>
<polygon fill="none" stroke="#bfbfbf" points="744,-185 744,-204 836,-204 836,-185 744,-185"/>
<text text-anchor="middle" x="790" y="-192" font-family="Helvetica,sans-Serif" font-size="10.00">Common/Timer.h</text>
</g>
<!-- Node6&#45;&gt;Node8 -->
<g id="edge7" class="edge"><title>Node6&#45;&gt;Node8</title>
<path fill="none" stroke="midnightblue" d="M739.822,-251.734C748.953,-241.5 764.244,-224.364 775.551,-211.692"/>
<polygon fill="midnightblue" stroke="midnightblue" points="778.255,-213.919 782.302,-204.127 773.032,-209.258 778.255,-213.919"/>
</g>
<!-- Node9 -->
<g id="node9" class="node"><title>Node9</title>
<polygon fill="none" stroke="#bfbfbf" points="854,-185 854,-204 952,-204 952,-185 854,-185"/>
<text text-anchor="middle" x="903" y="-192" font-family="Helvetica,sans-Serif" font-size="10.00">Framework/Task.h</text>
</g>
<!-- Node6&#45;&gt;Node9 -->
<g id="edge8" class="edge"><title>Node6&#45;&gt;Node9</title>
<path fill="none" stroke="midnightblue" d="M754.707,-251.869C784.558,-240.522 837.166,-220.525 871.03,-207.652"/>
<polygon fill="midnightblue" stroke="midnightblue" points="872.367,-210.888 880.471,-204.064 869.88,-204.345 872.367,-210.888"/>
</g>
<!-- Node6&#45;&gt;Node10 -->
<g id="edge10" class="edge"><title>Node6&#45;&gt;Node10</title>
<path fill="none" stroke="midnightblue" d="M777.859,-251.981C790.804,-249.791 804.925,-247.603 818,-246 1024.62,-220.669 1078.4,-235.53 1285,-210 1294.59,-208.815 1304.75,-207.305 1314.59,-205.709"/>
<polygon fill="midnightblue" stroke="midnightblue" points="1315.39,-209.124 1324.68,-204.026 1314.24,-202.219 1315.39,-209.124"/>
</g>
<!-- Node11 -->
<g id="node11" class="node"><title>Node11</title>
<polygon fill="none" stroke="#bfbfbf" points="970,-185 970,-204 1140,-204 1140,-185 970,-185"/>
<text text-anchor="middle" x="1055" y="-192" font-family="Helvetica,sans-Serif" font-size="10.00">Framework/EndOfStreamContext.h</text>
</g>
<!-- Node6&#45;&gt;Node11 -->
<g id="edge11" class="edge"><title>Node6&#45;&gt;Node11</title>
<path fill="none" stroke="midnightblue" d="M774.559,-251.936C833.341,-240.106 939.297,-218.784 1002.79,-206.006"/>
<polygon fill="midnightblue" stroke="midnightblue" points="1003.49,-209.436 1012.6,-204.032 1002.11,-202.573 1003.49,-209.436"/>
</g>
<!-- Node12 -->
<g id="node12" class="node"><title>Node12</title>
<polygon fill="none" stroke="#bfbfbf" points="1158.5,-185 1158.5,-204 1275.5,-204 1275.5,-185 1158.5,-185"/>
<text text-anchor="middle" x="1217" y="-192" font-family="Helvetica,sans-Serif" font-size="10.00">Headers/DataHeader.h</text>
</g>
<!-- Node6&#45;&gt;Node12 -->
<g id="edge12" class="edge"><title>Node6&#45;&gt;Node12</title>
<path fill="none" stroke="midnightblue" d="M779.687,-251.947C792.135,-249.855 805.552,-247.725 818,-246 964.578,-225.69 1002.89,-233.461 1149,-210 1155.89,-208.894 1163.13,-207.549 1170.21,-206.129"/>
<polygon fill="midnightblue" stroke="midnightblue" points="1171.34,-209.469 1180.43,-204.013 1169.92,-202.615 1171.34,-209.469"/>
</g>
<!-- Node13 -->
<g id="node13" class="node"><title>Node13</title>
<polygon fill="none" stroke="#bfbfbf" points="293.5,-123.5 293.5,-142.5 418.5,-142.5 418.5,-123.5 293.5,-123.5"/>
<text text-anchor="middle" x="356" y="-130.5" font-family="Helvetica,sans-Serif" font-size="10.00">Framework/InitContext.h</text>
</g>
<!-- Node6&#45;&gt;Node13 -->
<g id="edge13" class="edge"><title>Node6&#45;&gt;Node13</title>
<path fill="none" stroke="midnightblue" d="M660.428,-258.01C600.864,-253.596 515.109,-241.698 447,-210 416.208,-195.669 387.306,-168.24 370.649,-150.55"/>
<polygon fill="midnightblue" stroke="midnightblue" points="372.837,-147.757 363.501,-142.748 367.675,-152.486 372.837,-147.757"/>
</g>
<!-- Node14 -->
<g id="node14" class="node"><title>Node14</title>
<g id="a_node14"><a xlink:href="TaskConfig_8h.html" target="_top" xlink:title="QualityControl/TaskConfig.h">
<polygon fill="none" stroke="black" points="481,-62 481,-81 621,-81 621,-62 481,-62"/>
<text text-anchor="middle" x="551" y="-69" font-family="Helvetica,sans-Serif" font-size="10.00">QualityControl/TaskConfig.h</text>
</a>
</g>
</g>
<!-- Node6&#45;&gt;Node14 -->
<g id="edge14" class="edge"><title>Node6&#45;&gt;Node14</title>
<path fill="none" stroke="midnightblue" d="M660.375,-257.532C591.417,-252.866 485.057,-240.864 398,-210 342.609,-190.362 313.187,-194.009 284,-143 279.585,-135.285 278.329,-129.845 284,-123 307.417,-94.7386 401.005,-82.176 470.812,-76.6691"/>
<polygon fill="midnightblue" stroke="midnightblue" points="471.219,-80.1484 480.928,-75.9068 470.693,-73.1682 471.219,-80.1484"/>
</g>
<!-- Node16 -->
<g id="node16" class="node"><title>Node16</title>
<g id="a_node16"><a xlink:href="TaskInterface_8h.html" target="_top" xlink:title="QualityControl/TaskInterface.h">
<polygon fill="none" stroke="black" points="456,-185 456,-204 606,-204 606,-185 456,-185"/>
<text text-anchor="middle" x="531" y="-192" font-family="Helvetica,sans-Serif" font-size="10.00">QualityControl/TaskInterface.h</text>
</a>
</g>
</g>
<!-- Node6&#45;&gt;Node16 -->
<g id="edge17" class="edge"><title>Node6&#45;&gt;Node16</title>
<path fill="none" stroke="midnightblue" d="M705.309,-251.869C669.77,-240.376 606.787,-220.008 567.052,-207.159"/>
<polygon fill="midnightblue" stroke="midnightblue" points="568.073,-203.81 557.482,-204.064 565.919,-210.471 568.073,-203.81"/>
</g>
<!-- Node14&#45;&gt;Node3 -->
<g id="edge15" class="edge"><title>Node14&#45;&gt;Node3</title>
<path fill="none" stroke="midnightblue" d="M551.716,-61.9751C552.422,-53.5803 553.523,-40.4806 554.432,-29.6631"/>
<polygon fill="midnightblue" stroke="midnightblue" points="557.935,-29.7671 555.285,-19.5091 550.96,-29.1808 557.935,-29.7671"/>
</g>
<!-- Node15 -->
<g id="node15" class="node"><title>Node15</title>
<polygon fill="none" stroke="#bfbfbf" points="422.5,-0.5 422.5,-19.5 505.5,-19.5 505.5,-0.5 422.5,-0.5"/>
<text text-anchor="middle" x="464" y="-7.5" font-family="Helvetica,sans-Serif" font-size="10.00">unordered_map</text>
</g>
<!-- Node14&#45;&gt;Node15 -->
<g id="edge16" class="edge"><title>Node14&#45;&gt;Node15</title>
<path fill="none" stroke="midnightblue" d="M538.535,-61.9751C524.581,-52.4315 501.735,-36.8073 485.009,-25.3683"/>
<polygon fill="midnightblue" stroke="midnightblue" points="486.672,-22.2653 476.442,-19.5091 482.72,-28.0433 486.672,-22.2653"/>
</g>
<!-- Node16&#45;&gt;Node3 -->
<g id="edge20" class="edge"><title>Node16&#45;&gt;Node3</title>
<path fill="none" stroke="midnightblue" d="M578.296,-184.983C602.321,-178.005 629.445,-165.447 644,-143 656.482,-123.75 652.233,-87.4596 630,-56 619.149,-40.6451 601.242,-29.554 585.762,-22.2249"/>
<polygon fill="midnightblue" stroke="midnightblue" points="587.083,-18.9823 576.522,-18.1431 584.255,-25.3854 587.083,-18.9823"/>
</g>
<!-- Node16&#45;&gt;Node13 -->
<g id="edge22" class="edge"><title>Node16&#45;&gt;Node13</title>
<path fill="none" stroke="midnightblue" d="M505.927,-184.975C475.648,-174.68 424.56,-157.31 390.559,-145.75"/>
<polygon fill="midnightblue" stroke="midnightblue" points="391.621,-142.414 381.027,-142.509 389.368,-149.042 391.621,-142.414"/>
</g>
<!-- Node16&#45;&gt;Node15 -->
<g id="edge21" class="edge"><title>Node16&#45;&gt;Node15</title>
<path fill="none" stroke="midnightblue" d="M512.334,-184.892C496.793,-176.596 475.696,-162.437 466,-143 447.649,-106.212 454.032,-56.1709 459.498,-29.5108"/>
<polygon fill="midnightblue" stroke="midnightblue" points="462.942,-30.1461 461.709,-19.6232 456.111,-28.6182 462.942,-30.1461"/>
</g>
<!-- Node17 -->
<g id="node17" class="node"><title>Node17</title>
<polygon fill="none" stroke="#bfbfbf" points="881.5,-0.5 881.5,-19.5 916.5,-19.5 916.5,-0.5 881.5,-0.5"/>
<text text-anchor="middle" x="899" y="-7.5" font-family="Helvetica,sans-Serif" font-size="10.00">map</text>
</g>
<!-- Node16&#45;&gt;Node17 -->
<g id="edge18" class="edge"><title>Node16&#45;&gt;Node17</title>
<path fill="none" stroke="midnightblue" d="M576.232,-184.968C588.756,-182.803 602.378,-180.631 615,-179 799.488,-155.157 856.445,-204.52 1032,-143 1074.34,-128.161 1094.83,-126.56 1116,-87 1122.5,-74.8525 1124.79,-66.6063 1116,-56 1062.86,8.0963 1012.27,-38.5365 926.33,-19.8412"/>
<polygon fill="midnightblue" stroke="midnightblue" points="927.058,-16.4162 916.514,-17.454 925.404,-23.2179 927.058,-16.4162"/>
</g>
<!-- Node18 -->
<g id="node18" class="node"><title>Node18</title>
<polygon fill="none" stroke="#bfbfbf" points="1055,-62 1055,-81 1107,-81 1107,-62 1055,-62"/>
<text text-anchor="middle" x="1081" y="-69" font-family="Helvetica,sans-Serif" font-size="10.00">memory</text>
</g>
<!-- Node16&#45;&gt;Node18 -->
<g id="edge19" class="edge"><title>Node16&#45;&gt;Node18</title>
<path fill="none" stroke="midnightblue" d="M576.676,-184.948C589.08,-182.808 602.53,-180.654 615,-179 786.243,-156.291 843.621,-211.964 1002,-143 1029.27,-131.126 1053.63,-106.1 1067.86,-89.2898"/>
<polygon fill="midnightblue" stroke="midnightblue" points="1070.72,-91.3186 1074.34,-81.3612 1065.3,-86.888 1070.72,-91.3186"/>
</g>
<!-- Node19 -->
<g id="node19" class="node"><title>Node19</title>
<polygon fill="none" stroke="#bfbfbf" points="475,-123.5 475,-142.5 635,-142.5 635,-123.5 475,-123.5"/>
<text text-anchor="middle" x="555" y="-130.5" font-family="Helvetica,sans-Serif" font-size="10.00">Framework/ProcessingContext.h</text>
</g>
<!-- Node16&#45;&gt;Node19 -->
<g id="edge23" class="edge"><title>Node16&#45;&gt;Node19</title>
<path fill="none" stroke="midnightblue" d="M534.439,-184.975C537.896,-176.404 543.332,-162.927 547.746,-151.983"/>
<polygon fill="midnightblue" stroke="midnightblue" points="551.073,-153.092 551.568,-142.509 544.581,-150.474 551.073,-153.092"/>
</g>
<!-- Node20 -->
<g id="node20" class="node"><title>Node20</title>
<g id="a_node20"><a xlink:href="Activity_8h.html" target="_top" xlink:title="QualityControl/Activity.h">
<polygon fill="none" stroke="black" points="691.5,-123.5 691.5,-142.5 814.5,-142.5 814.5,-123.5 691.5,-123.5"/>
<text text-anchor="middle" x="753" y="-130.5" font-family="Helvetica,sans-Serif" font-size="10.00">QualityControl/Activity.h</text>
</a>
</g>
</g>
<!-- Node16&#45;&gt;Node20 -->
<g id="edge24" class="edge"><title>Node16&#45;&gt;Node20</title>
<path fill="none" stroke="midnightblue" d="M562.807,-184.975C601.877,-174.504 668.26,-156.712 711.361,-145.16"/>
<polygon fill="midnightblue" stroke="midnightblue" points="712.499,-148.479 721.252,-142.509 710.687,-141.717 712.499,-148.479"/>
</g>
<!-- Node21 -->
<g id="node21" class="node"><title>Node21</title>
<g id="a_node21"><a xlink:href="ObjectsManager_8h.html" target="_top" xlink:title="QualityControl/ObjectsManager.h">
<polygon fill="none" stroke="black" points="832.5,-123.5 832.5,-142.5 993.5,-142.5 993.5,-123.5 832.5,-123.5"/>
<text text-anchor="middle" x="913" y="-130.5" font-family="Helvetica,sans-Serif" font-size="10.00">QualityControl/ObjectsManager.h</text>
</a>
</g>
</g>
<!-- Node16&#45;&gt;Node21 -->
<g id="edge25" class="edge"><title>Node16&#45;&gt;Node21</title>
<path fill="none" stroke="midnightblue" d="M579.388,-184.968C591.041,-182.963 603.459,-180.867 615,-179 693.366,-166.321 783.516,-152.864 843.955,-144.005"/>
<polygon fill="midnightblue" stroke="midnightblue" points="844.751,-147.426 854.139,-142.515 843.737,-140.5 844.751,-147.426"/>
</g>
<!-- Node21&#45;&gt;Node3 -->
<g id="edge36" class="edge"><title>Node21&#45;&gt;Node3</title>
<path fill="none" stroke="midnightblue" d="M844.844,-123.424C805.625,-116.816 756.125,-105.566 715,-87 693.527,-77.3061 692.706,-67.2403 672,-56 644.259,-40.9406 610.393,-28.4114 586.433,-20.4305"/>
<polygon fill="midnightblue" stroke="midnightblue" points="587.409,-17.0677 576.817,-17.2945 585.239,-23.7227 587.409,-17.0677"/>
</g>
<!-- Node21&#45;&gt;Node14 -->
<g id="edge35" class="edge"><title>Node21&#45;&gt;Node14</title>
<path fill="none" stroke="midnightblue" d="M861.134,-123.475C795.544,-112.694 682.746,-94.1544 612.772,-82.6532"/>
<polygon fill="midnightblue" stroke="midnightblue" points="613.205,-79.1774 602.77,-81.0091 612.069,-86.0847 613.205,-79.1774"/>
</g>
<!-- Node21&#45;&gt;Node18 -->
<g id="edge37" class="edge"><title>Node21&#45;&gt;Node18</title>
<path fill="none" stroke="midnightblue" d="M939.446,-123.453C966.202,-114.697 1008.69,-100.492 1045,-87 1046.85,-86.3136 1048.74,-85.5948 1050.65,-84.8599"/>
<polygon fill="midnightblue" stroke="midnightblue" points="1052.11,-88.0464 1060.13,-81.1273 1049.55,-81.5327 1052.11,-88.0464"/>
</g>
<!-- Node22 -->
<g id="node22" class="node"><title>Node22</title>
<g id="a_node22"><a xlink:href="MonitorObject_8h.html" target="_top" xlink:title="QualityControl/MonitorObject.h">
<polygon fill="none" stroke="black" points="724.5,-62 724.5,-81 875.5,-81 875.5,-62 724.5,-62"/>
<text text-anchor="middle" x="800" y="-69" font-family="Helvetica,sans-Serif" font-size="10.00">QualityControl/MonitorObject.h</text>
</a>
</g>
</g>
<!-- Node21&#45;&gt;Node22 -->
<g id="edge26" class="edge"><title>Node21&#45;&gt;Node22</title>
<path fill="none" stroke="midnightblue" d="M896.81,-123.475C878.098,-113.622 847.077,-97.2883 825.201,-85.7697"/>
<polygon fill="midnightblue" stroke="midnightblue" points="826.639,-82.5713 816.16,-81.0091 823.378,-88.7651 826.639,-82.5713"/>
</g>
<!-- Node26 -->
<g id="node26" class="node"><title>Node26</title>
<g id="a_node26"><a xlink:href="MonitorObjectCollection_8h.html" target="_top" xlink:title="QualityControl/MonitorObject\lCollection.h">
<polygon fill="none" stroke="black" points="893.5,-56.5 893.5,-86.5 1036.5,-86.5 1036.5,-56.5 893.5,-56.5"/>
<text text-anchor="start" x="901.5" y="-74.5" font-family="Helvetica,sans-Serif" font-size="10.00">QualityControl/MonitorObject</text>
<text text-anchor="middle" x="965" y="-63.5" font-family="Helvetica,sans-Serif" font-size="10.00">Collection.h</text>
</a>
</g>
</g>
<!-- Node21&#45;&gt;Node26 -->
<g id="edge32" class="edge"><title>Node21&#45;&gt;Node26</title>
<path fill="none" stroke="midnightblue" d="M920.45,-123.475C927.098,-115.869 937.122,-104.399 945.979,-94.2649"/>
<polygon fill="midnightblue" stroke="midnightblue" points="948.799,-96.3559 952.745,-86.523 943.529,-91.7495 948.799,-96.3559"/>
</g>
<!-- Node22&#45;&gt;Node3 -->
<g id="edge27" class="edge"><title>Node22&#45;&gt;Node3</title>
<path fill="none" stroke="midnightblue" d="M760.775,-61.9817C719.741,-52.9074 653.259,-37.7464 586.465,-19.9968"/>
<polygon fill="midnightblue" stroke="midnightblue" points="587.176,-16.5639 576.611,-17.3596 585.366,-23.3259 587.176,-16.5639"/>
</g>
<!-- Node22&#45;&gt;Node17 -->
<g id="edge28" class="edge"><title>Node22&#45;&gt;Node17</title>
<path fill="none" stroke="midnightblue" d="M814.184,-61.9751C830.358,-52.2548 857.026,-36.2266 876.143,-24.7372"/>
<polygon fill="midnightblue" stroke="midnightblue" points="878.074,-27.6603 884.842,-19.5091 874.468,-21.6606 878.074,-27.6603"/>
</g>
<!-- Node23 -->
<g id="node23" class="node"><title>Node23</title>
<polygon fill="none" stroke="#bfbfbf" points="595,-0.5 595,-19.5 651,-19.5 651,-0.5 595,-0.5"/>
<text text-anchor="middle" x="623" y="-7.5" font-family="Helvetica,sans-Serif" font-size="10.00">Rtypes.h</text>
</g>
<!-- Node22&#45;&gt;Node23 -->
<g id="edge29" class="edge"><title>Node22&#45;&gt;Node23</title>
<path fill="none" stroke="midnightblue" d="M774.64,-61.9751C744.016,-51.6804 692.343,-34.3103 657.954,-22.7502"/>
<polygon fill="midnightblue" stroke="midnightblue" points="658.907,-19.3779 648.313,-19.5091 656.676,-26.0131 658.907,-19.3779"/>
</g>
<!-- Node24 -->
<g id="node24" class="node"><title>Node24</title>
<polygon fill="none" stroke="#bfbfbf" points="669.5,-0.5 669.5,-19.5 728.5,-19.5 728.5,-0.5 669.5,-0.5"/>
<text text-anchor="middle" x="699" y="-7.5" font-family="Helvetica,sans-Serif" font-size="10.00">TObject.h</text>
</g>
<!-- Node22&#45;&gt;Node24 -->
<g id="edge30" class="edge"><title>Node22&#45;&gt;Node24</title>
<path fill="none" stroke="midnightblue" d="M785.529,-61.9751C769.029,-52.2548 741.822,-36.2266 722.319,-24.7372"/>
<polygon fill="midnightblue" stroke="midnightblue" points="723.837,-21.5693 713.444,-19.5091 720.284,-27.6005 723.837,-21.5693"/>
</g>
<!-- Node25 -->
<g id="node25" class="node"><title>Node25</title>
<polygon fill="none" stroke="#bfbfbf" points="747,-0.5 747,-19.5 863,-19.5 863,-0.5 747,-0.5"/>
<text text-anchor="middle" x="805" y="-7.5" font-family="Helvetica,sans-Serif" font-size="10.00">Common/Exceptions.h</text>
</g>
<!-- Node22&#45;&gt;Node25 -->
<g id="edge31" class="edge"><title>Node22&#45;&gt;Node25</title>
<path fill="none" stroke="midnightblue" d="M800.716,-61.9751C801.422,-53.5803 802.523,-40.4806 803.432,-29.6631"/>
<polygon fill="midnightblue" stroke="midnightblue" points="806.935,-29.7671 804.285,-19.5091 799.96,-29.1808 806.935,-29.7671"/>
</g>
<!-- Node27 -->
<g id="node27" class="node"><title>Node27</title>
<polygon fill="none" stroke="#bfbfbf" points="934.5,-0.5 934.5,-19.5 1003.5,-19.5 1003.5,-0.5 934.5,-0.5"/>
<text text-anchor="middle" x="969" y="-7.5" font-family="Helvetica,sans-Serif" font-size="10.00">TObjArray.h</text>
</g>
<!-- Node26&#45;&gt;Node27 -->
<g id="edge33" class="edge"><title>Node26&#45;&gt;Node27</title>
<path fill="none" stroke="midnightblue" d="M965.948,-56.3993C966.481,-48.4664 967.154,-38.458 967.732,-29.8583"/>
<polygon fill="midnightblue" stroke="midnightblue" points="971.239,-29.8701 968.418,-19.6578 964.255,-29.4005 971.239,-29.8701"/>
</g>
<!-- Node28 -->
<g id="node28" class="node"><title>Node28</title>
<polygon fill="none" stroke="#bfbfbf" points="1022,-0.5 1022,-19.5 1150,-19.5 1150,-0.5 1022,-0.5"/>
<text text-anchor="middle" x="1086" y="-7.5" font-family="Helvetica,sans-Serif" font-size="10.00">Mergers/MergeInterface.h</text>
</g>
<!-- Node26&#45;&gt;Node28 -->
<g id="edge34" class="edge"><title>Node26&#45;&gt;Node28</title>
<path fill="none" stroke="midnightblue" d="M993.675,-56.3993C1013.52,-46.6391 1039.76,-33.7373 1059.19,-24.1826"/>
<polygon fill="midnightblue" stroke="midnightblue" points="1060.96,-27.2114 1068.39,-19.6578 1057.88,-20.9297 1060.96,-27.2114"/>
</g>
</g>
</svg>
