<?xml version="1.0" encoding="UTF-8" standalone="no"?>
<!DOCTYPE svg PUBLIC "-//W3C//DTD SVG 1.1//EN"
 "http://www.w3.org/Graphics/SVG/1.1/DTD/svg11.dtd">
<!-- Generated by graphviz version 2.38.0 (20140413.2041)
 -->
<!-- Title: Framework/test/testCheckWorkflow.cxx Pages: 1 -->
<svg width="2300pt" height="352pt"
 viewBox="0.00 0.00 2300.00 352.00" xmlns="http://www.w3.org/2000/svg" xmlns:xlink="http://www.w3.org/1999/xlink">
<g id="graph0" class="graph" transform="scale(1 1) rotate(0) translate(4 348)">
<title>Framework/test/testCheckWorkflow.cxx</title>
<!-- Node1 -->
<g id="node1" class="node"><title>Node1</title>
<polygon fill="#bfbfbf" stroke="black" points="936,-313.5 936,-343.5 1069,-343.5 1069,-313.5 936,-313.5"/>
<text text-anchor="start" x="944" y="-331.5" font-family="Helvetica,sans-Serif" font-size="10.00">Framework/test/testCheck</text>
<text text-anchor="middle" x="1002.5" y="-320.5" font-family="Helvetica,sans-Serif" font-size="10.00">Workflow.cxx</text>
</g>
<!-- Node2 -->
<g id="node2" class="node"><title>Node2</title>
<polygon fill="none" stroke="#bfbfbf" points="0,-252 0,-271 151,-271 151,-252 0,-252"/>
<text text-anchor="middle" x="75.5" y="-259" font-family="Helvetica,sans-Serif" font-size="10.00">DataSampling/DataSampling.h</text>
</g>
<!-- Node1&#45;&gt;Node2 -->
<g id="edge1" class="edge"><title>Node1&#45;&gt;Node2</title>
<path fill="none" stroke="midnightblue" d="M935.889,-326.024C793.143,-322.308 447.324,-310.359 159.5,-277 149.79,-275.875 139.498,-274.365 129.571,-272.743"/>
<polygon fill="midnightblue" stroke="midnightblue" points="129.841,-269.24 119.398,-271.025 128.676,-276.142 129.841,-269.24"/>
</g>
<!-- Node3 -->
<g id="node3" class="node"><title>Node3</title>
<polygon fill="none" stroke="#bfbfbf" points="169,-246.5 169,-276.5 314,-276.5 314,-246.5 169,-246.5"/>
<text text-anchor="start" x="177" y="-264.5" font-family="Helvetica,sans-Serif" font-size="10.00">Framework/CompletionPolicy</text>
<text text-anchor="middle" x="241.5" y="-253.5" font-family="Helvetica,sans-Serif" font-size="10.00">Helpers.h</text>
</g>
<!-- Node1&#45;&gt;Node3 -->
<g id="edge2" class="edge"><title>Node1&#45;&gt;Node3</title>
<path fill="none" stroke="midnightblue" d="M935.777,-324.771C815.617,-319.368 554.727,-305.409 324.564,-277.044"/>
<polygon fill="midnightblue" stroke="midnightblue" points="324.675,-273.531 314.32,-275.769 323.811,-280.477 324.675,-273.531"/>
</g>
<!-- Node4 -->
<g id="node4" class="node"><title>Node4</title>
<polygon fill="none" stroke="#bfbfbf" points="332.5,-252 332.5,-271 462.5,-271 462.5,-252 332.5,-252"/>
<text text-anchor="middle" x="397.5" y="-259" font-family="Helvetica,sans-Serif" font-size="10.00">Framework/DeviceSpec.h</text>
</g>
<!-- Node1&#45;&gt;Node4 -->
<g id="edge3" class="edge"><title>Node1&#45;&gt;Node4</title>
<path fill="none" stroke="midnightblue" d="M935.858,-322.944C835.804,-315.688 640.955,-299.944 476.5,-277 468.063,-275.823 459.153,-274.382 450.477,-272.87"/>
<polygon fill="midnightblue" stroke="midnightblue" points="450.903,-269.39 440.442,-271.074 449.669,-276.281 450.903,-269.39"/>
</g>
<!-- Node5 -->
<g id="node5" class="node"><title>Node5</title>
<g id="a_node5"><a xlink:href="InfrastructureGenerator_8h.html" target="_top" xlink:title="QualityControl/Infrastructure\lGenerator.h">
<polygon fill="none" stroke="black" points="473.5,-179.5 473.5,-209.5 613.5,-209.5 613.5,-179.5 473.5,-179.5"/>
<text text-anchor="start" x="481.5" y="-197.5" font-family="Helvetica,sans-Serif" font-size="10.00">QualityControl/Infrastructure</text>
<text text-anchor="middle" x="543.5" y="-186.5" font-family="Helvetica,sans-Serif" font-size="10.00">Generator.h</text>
</a>
</g>
</g>
<!-- Node1&#45;&gt;Node5 -->
<g id="edge4" class="edge"><title>Node1&#45;&gt;Node5</title>
<path fill="none" stroke="midnightblue" d="M935.873,-323.54C843.109,-317.18 680.462,-302.719 627.5,-277 599.445,-263.376 574.834,-236.79 559.624,-217.684"/>
<polygon fill="midnightblue" stroke="midnightblue" points="562.196,-215.288 553.318,-209.505 556.652,-219.562 562.196,-215.288"/>
</g>
<!-- Node6 -->
<g id="node6" class="node"><title>Node6</title>
<polygon fill="none" stroke="#bfbfbf" points="729.5,-123.5 729.5,-142.5 773.5,-142.5 773.5,-123.5 729.5,-123.5"/>
<text text-anchor="middle" x="751.5" y="-130.5" font-family="Helvetica,sans-Serif" font-size="10.00">vector</text>
</g>
<!-- Node1&#45;&gt;Node6 -->
<g id="edge75" class="edge"><title>Node1&#45;&gt;Node6</title>
<path fill="none" stroke="midnightblue" d="M935.992,-323.735C861.775,-315.559 744.863,-289.919 689.5,-210 681.654,-198.674 683.242,-191.275 689.5,-179 696.5,-165.27 709.866,-154.75 722.4,-147.346"/>
<polygon fill="midnightblue" stroke="midnightblue" points="724.174,-150.366 731.277,-142.505 720.822,-144.22 724.174,-150.366"/>
</g>
<!-- Node10 -->
<g id="node10" class="node"><title>Node10</title>
<polygon fill="none" stroke="#bfbfbf" points="1496,-252 1496,-271 1615,-271 1615,-252 1496,-252"/>
<text text-anchor="middle" x="1555.5" y="-259" font-family="Helvetica,sans-Serif" font-size="10.00">getTestDataDirectory.h</text>
</g>
<!-- Node1&#45;&gt;Node10 -->
<g id="edge9" class="edge"><title>Node1&#45;&gt;Node10</title>
<path fill="none" stroke="midnightblue" d="M1069.38,-322.329C1162.18,-314.726 1335.14,-299.011 1481.5,-277 1489.24,-275.836 1497.4,-274.426 1505.36,-272.947"/>
<polygon fill="midnightblue" stroke="midnightblue" points="1506.12,-276.364 1515.29,-271.051 1504.81,-269.489 1506.12,-276.364"/>
</g>
<!-- Node11 -->
<g id="node11" class="node"><title>Node11</title>
<g id="a_node11"><a xlink:href="CheckRunner_8h.html" target="_top" xlink:title="QualityControl/CheckRunner.h">
<polygon fill="none" stroke="black" points="1289.5,-252 1289.5,-271 1439.5,-271 1439.5,-252 1289.5,-252"/>
<text text-anchor="middle" x="1364.5" y="-259" font-family="Helvetica,sans-Serif" font-size="10.00">QualityControl/CheckRunner.h</text>
</a>
</g>
</g>
<!-- Node1&#45;&gt;Node11 -->
<g id="edge10" class="edge"><title>Node1&#45;&gt;Node11</title>
<path fill="none" stroke="midnightblue" d="M1069.32,-315.502C1137.58,-303.246 1242.46,-284.414 1307.09,-272.809"/>
<polygon fill="midnightblue" stroke="midnightblue" points="1307.88,-276.222 1317.11,-271.01 1306.64,-269.333 1307.88,-276.222"/>
</g>
<!-- Node29 -->
<g id="node29" class="node"><title>Node29</title>
<g id="a_node29"><a xlink:href="QualityObject_8h_source.html" target="_top" xlink:title="QualityControl/QualityObject.h">
<polygon fill="none" stroke="black" points="1848,-123.5 1848,-142.5 1997,-142.5 1997,-123.5 1848,-123.5"/>
<text text-anchor="middle" x="1922.5" y="-130.5" font-family="Helvetica,sans-Serif" font-size="10.00">QualityControl/QualityObject.h</text>
</a>
</g>
</g>
<!-- Node1&#45;&gt;Node29 -->
<g id="edge67" class="edge"><title>Node1&#45;&gt;Node29</title>
<path fill="none" stroke="midnightblue" d="M1069.32,-324.546C1176.53,-319.038 1381.71,-305.123 1448.5,-277 1468.59,-268.542 1466.21,-253.954 1486.5,-246 1545.79,-222.76 2014.91,-256.422 2058.5,-210 2088.03,-178.549 2027.96,-156.785 1978.48,-144.847"/>
<polygon fill="midnightblue" stroke="midnightblue" points="1978.97,-141.368 1968.44,-142.52 1977.39,-148.187 1978.97,-141.368"/>
</g>
<!-- Node35 -->
<g id="node35" class="node"><title>Node35</title>
<g id="a_node35"><a xlink:href="runnerUtils_8h.html" target="_top" xlink:title="QualityControl/runnerUtils.h">
<polygon fill="none" stroke="black" points="378,-67.5 378,-86.5 515,-86.5 515,-67.5 378,-67.5"/>
<text text-anchor="middle" x="446.5" y="-74.5" font-family="Helvetica,sans-Serif" font-size="10.00">QualityControl/runnerUtils.h</text>
</a>
</g>
</g>
<!-- Node1&#45;&gt;Node35 -->
<g id="edge68" class="edge"><title>Node1&#45;&gt;Node35</title>
<path fill="none" stroke="midnightblue" d="M935.639,-327.523C851.266,-325.745 702.66,-316.558 582.5,-277 525.216,-258.142 498.302,-259.946 464.5,-210 441.134,-175.474 441.748,-124.127 444.158,-96.7636"/>
<polygon fill="midnightblue" stroke="midnightblue" points="447.659,-96.9376 445.236,-86.6236 440.698,-96.1976 447.659,-96.9376"/>
</g>
<!-- Node37 -->
<g id="node37" class="node"><title>Node37</title>
<polygon fill="none" stroke="#bfbfbf" points="1633.5,-252 1633.5,-271 1793.5,-271 1793.5,-252 1633.5,-252"/>
<text text-anchor="middle" x="1713.5" y="-259" font-family="Helvetica,sans-Serif" font-size="10.00">Framework/runDataProcessing.h</text>
</g>
<!-- Node1&#45;&gt;Node37 -->
<g id="edge72" class="edge"><title>Node1&#45;&gt;Node37</title>
<path fill="none" stroke="midnightblue" d="M1069.3,-323.795C1183.26,-317.089 1422.42,-301.336 1623.5,-277 1633.74,-275.761 1644.6,-274.213 1655.1,-272.593"/>
<polygon fill="midnightblue" stroke="midnightblue" points="1655.69,-276.043 1665.02,-271.027 1654.6,-269.129 1655.69,-276.043"/>
</g>
<!-- Node38 -->
<g id="node38" class="node"><title>Node38</title>
<polygon fill="none" stroke="#bfbfbf" points="1812,-252 1812,-271 1953,-271 1953,-252 1812,-252"/>
<text text-anchor="middle" x="1882.5" y="-259" font-family="Helvetica,sans-Serif" font-size="10.00">Framework/ControlService.h</text>
</g>
<!-- Node1&#45;&gt;Node38 -->
<g id="edge73" class="edge"><title>Node1&#45;&gt;Node38</title>
<path fill="none" stroke="midnightblue" d="M1069.12,-325.912C1206.63,-322.057 1531.74,-309.971 1802.5,-277 1811.66,-275.885 1821.35,-274.394 1830.72,-272.792"/>
<polygon fill="midnightblue" stroke="midnightblue" points="1831.47,-276.213 1840.7,-271.022 1830.25,-269.321 1831.47,-276.213"/>
</g>
<!-- Node39 -->
<g id="node39" class="node"><title>Node39</title>
<polygon fill="none" stroke="#bfbfbf" points="1971.5,-252 1971.5,-271 2001.5,-271 2001.5,-252 1971.5,-252"/>
<text text-anchor="middle" x="1986.5" y="-259" font-family="Helvetica,sans-Serif" font-size="10.00">set</text>
</g>
<!-- Node1&#45;&gt;Node39 -->
<g id="edge74" class="edge"><title>Node1&#45;&gt;Node39</title>
<path fill="none" stroke="midnightblue" d="M1069.13,-328.185C1258.23,-329.47 1795.28,-328.364 1962.5,-277 1963.57,-276.671 1964.64,-276.285 1965.71,-275.853"/>
<polygon fill="midnightblue" stroke="midnightblue" points="1967.58,-278.824 1974.84,-271.109 1964.35,-272.611 1967.58,-278.824"/>
</g>
<!-- Node5&#45;&gt;Node6 -->
<g id="edge5" class="edge"><title>Node5&#45;&gt;Node6</title>
<path fill="none" stroke="midnightblue" d="M593.109,-179.412C626.384,-169.948 671.447,-157.102 719.78,-143.198"/>
<polygon fill="midnightblue" stroke="midnightblue" points="720.846,-146.534 729.488,-140.404 718.91,-139.807 720.846,-146.534"/>
</g>
<!-- Node7 -->
<g id="node7" class="node"><title>Node7</title>
<polygon fill="none" stroke="#bfbfbf" points="1144,-6 1144,-25 1185,-25 1185,-6 1144,-6"/>
<text text-anchor="middle" x="1164.5" y="-13" font-family="Helvetica,sans-Serif" font-size="10.00">string</text>
</g>
<!-- Node5&#45;&gt;Node7 -->
<g id="edge6" class="edge"><title>Node5&#45;&gt;Node7</title>
<path fill="none" stroke="midnightblue" d="M543.124,-179.333C543.518,-163.248 546.792,-137.381 562.5,-123 647.637,-45.0559 1022.68,-22.6796 1133.54,-17.7128"/>
<polygon fill="midnightblue" stroke="midnightblue" points="1133.87,-21.2016 1143.71,-17.2731 1133.57,-14.2081 1133.87,-21.2016"/>
</g>
<!-- Node8 -->
<g id="node8" class="node"><title>Node8</title>
<polygon fill="none" stroke="#bfbfbf" points="571.5,-123.5 571.5,-142.5 711.5,-142.5 711.5,-123.5 571.5,-123.5"/>
<text text-anchor="middle" x="641.5" y="-130.5" font-family="Helvetica,sans-Serif" font-size="10.00">Framework/WorkflowSpec.h</text>
</g>
<!-- Node5&#45;&gt;Node8 -->
<g id="edge7" class="edge"><title>Node5&#45;&gt;Node8</title>
<path fill="none" stroke="midnightblue" d="M566.725,-179.399C582.286,-169.951 602.697,-157.559 618.262,-148.109"/>
<polygon fill="midnightblue" stroke="midnightblue" points="620.509,-150.839 627.24,-142.658 616.876,-144.856 620.509,-150.839"/>
</g>
<!-- Node9 -->
<g id="node9" class="node"><title>Node9</title>
<polygon fill="none" stroke="#bfbfbf" points="872.5,-123.5 872.5,-142.5 1036.5,-142.5 1036.5,-123.5 872.5,-123.5"/>
<text text-anchor="middle" x="954.5" y="-130.5" font-family="Helvetica,sans-Serif" font-size="10.00">Framework/DataProcessorSpec.h</text>
</g>
<!-- Node5&#45;&gt;Node9 -->
<g id="edge8" class="edge"><title>Node5&#45;&gt;Node9</title>
<path fill="none" stroke="midnightblue" d="M613.686,-183.339C689.56,-172.355 809.735,-154.957 885.244,-144.026"/>
<polygon fill="midnightblue" stroke="midnightblue" points="886.197,-147.425 895.593,-142.528 885.194,-140.497 886.197,-147.425"/>
</g>
<!-- Node11&#45;&gt;Node6 -->
<g id="edge15" class="edge"><title>Node11&#45;&gt;Node6</title>
<path fill="none" stroke="midnightblue" d="M1289.43,-260.417C1123.68,-259.45 737.991,-252.598 698.5,-210 680.35,-190.421 708.01,-164.285 729.711,-148.323"/>
<polygon fill="midnightblue" stroke="midnightblue" points="731.756,-151.164 737.916,-142.544 727.725,-145.441 731.756,-151.164"/>
</g>
<!-- Node11&#45;&gt;Node7 -->
<g id="edge13" class="edge"><title>Node11&#45;&gt;Node7</title>
<path fill="none" stroke="midnightblue" d="M1331.48,-251.946C1302.78,-243.684 1260.7,-229.546 1227.5,-210 1209.3,-199.289 1209.39,-190.217 1191.5,-179 1157.43,-157.639 1130.56,-176.617 1108.5,-143 1100.94,-131.484 1099.71,-96.3138 1113.5,-67 1120.18,-52.8037 1132.62,-40.3562 1143.55,-31.3711"/>
<polygon fill="midnightblue" stroke="midnightblue" points="1145.74,-34.1032 1151.48,-25.2035 1141.44,-28.5758 1145.74,-34.1032"/>
</g>
<!-- Node11&#45;&gt;Node9 -->
<g id="edge22" class="edge"><title>Node11&#45;&gt;Node9</title>
<path fill="none" stroke="midnightblue" d="M1324.16,-251.942C1289.9,-243.797 1239.99,-229.829 1199.5,-210 1178.02,-199.479 1177.37,-188.689 1155.5,-179 1116.93,-161.915 1071.23,-151.021 1033.16,-144.239"/>
<polygon fill="midnightblue" stroke="midnightblue" points="1033.6,-140.763 1023.15,-142.518 1032.41,-147.662 1033.6,-140.763"/>
</g>
<!-- Node12 -->
<g id="node12" class="node"><title>Node12</title>
<polygon fill="none" stroke="#bfbfbf" points="1643.5,-185 1643.5,-204 1689.5,-204 1689.5,-185 1643.5,-185"/>
<text text-anchor="middle" x="1666.5" y="-192" font-family="Helvetica,sans-Serif" font-size="10.00">chrono</text>
</g>
<!-- Node11&#45;&gt;Node12 -->
<g id="edge11" class="edge"><title>Node11&#45;&gt;Node12</title>
<path fill="none" stroke="midnightblue" d="M1413.17,-251.985C1484.9,-239.341 1612.79,-216.402 1633.5,-210 1635.43,-209.404 1637.39,-208.728 1639.36,-208.002"/>
<polygon fill="midnightblue" stroke="midnightblue" points="1641.03,-211.1 1648.97,-204.088 1638.39,-204.617 1641.03,-211.1"/>
</g>
<!-- Node13 -->
<g id="node13" class="node"><title>Node13</title>
<polygon fill="none" stroke="#bfbfbf" points="1130.5,-123.5 1130.5,-142.5 1182.5,-142.5 1182.5,-123.5 1130.5,-123.5"/>
<text text-anchor="middle" x="1156.5" y="-130.5" font-family="Helvetica,sans-Serif" font-size="10.00">memory</text>
</g>
<!-- Node11&#45;&gt;Node13 -->
<g id="edge12" class="edge"><title>Node11&#45;&gt;Node13</title>
<path fill="none" stroke="midnightblue" d="M1346.79,-251.862C1327.59,-242.303 1296.26,-226.108 1270.5,-210 1250.52,-197.509 1247.01,-192.201 1227.5,-179 1211.54,-168.2 1193.15,-156.567 1179.08,-147.834"/>
<polygon fill="midnightblue" stroke="midnightblue" points="1180.88,-144.832 1170.54,-142.553 1177.2,-150.787 1180.88,-144.832"/>
</g>
<!-- Node14 -->
<g id="node14" class="node"><title>Node14</title>
<polygon fill="none" stroke="#bfbfbf" points="1942,-6 1942,-25 1977,-25 1977,-6 1942,-6"/>
<text text-anchor="middle" x="1959.5" y="-13" font-family="Helvetica,sans-Serif" font-size="10.00">map</text>
</g>
<!-- Node11&#45;&gt;Node14 -->
<g id="edge14" class="edge"><title>Node11&#45;&gt;Node14</title>
<path fill="none" stroke="midnightblue" d="M1430.6,-251.967C1448.7,-249.815 1468.34,-247.65 1486.5,-246 1549.92,-240.24 2014.91,-256.422 2058.5,-210 2087.53,-179.087 2074.02,-146.167 2019.5,-67 2009.62,-52.6534 1994.63,-40.0331 1982.1,-30.9971"/>
<polygon fill="midnightblue" stroke="midnightblue" points="1983.74,-27.8775 1973.53,-25.0775 1979.77,-33.6385 1983.74,-27.8775"/>
</g>
<!-- Node15 -->
<g id="node15" class="node"><title>Node15</title>
<polygon fill="none" stroke="#bfbfbf" points="1745.5,-185 1745.5,-204 1823.5,-204 1823.5,-185 1745.5,-185"/>
<text text-anchor="middle" x="1784.5" y="-192" font-family="Helvetica,sans-Serif" font-size="10.00">unordered_set</text>
</g>
<!-- Node11&#45;&gt;Node15 -->
<g id="edge16" class="edge"><title>Node11&#45;&gt;Node15</title>
<path fill="none" stroke="midnightblue" d="M1415.29,-251.932C1427.77,-249.907 1441.11,-247.811 1453.5,-246 1576.78,-227.981 1609.34,-234.497 1731.5,-210 1736.28,-209.042 1741.26,-207.89 1746.17,-206.658"/>
<polygon fill="midnightblue" stroke="midnightblue" points="1747.28,-209.983 1756.07,-204.056 1745.51,-203.213 1747.28,-209.983"/>
</g>
<!-- Node16 -->
<g id="node16" class="node"><title>Node16</title>
<polygon fill="none" stroke="#bfbfbf" points="1841.5,-185 1841.5,-204 1933.5,-204 1933.5,-185 1841.5,-185"/>
<text text-anchor="middle" x="1887.5" y="-192" font-family="Helvetica,sans-Serif" font-size="10.00">Common/Timer.h</text>
</g>
<!-- Node11&#45;&gt;Node16 -->
<g id="edge17" class="edge"><title>Node11&#45;&gt;Node16</title>
<path fill="none" stroke="midnightblue" d="M1413.38,-251.934C1426.39,-249.819 1440.46,-247.68 1453.5,-246 1621.32,-224.384 1665.92,-239.666 1832.5,-210 1837.71,-209.072 1843.16,-207.896 1848.5,-206.617"/>
<polygon fill="midnightblue" stroke="midnightblue" points="1849.75,-209.913 1858.58,-204.069 1848.03,-203.127 1849.75,-209.913"/>
</g>
<!-- Node17 -->
<g id="node17" class="node"><title>Node17</title>
<polygon fill="none" stroke="#bfbfbf" points="1951.5,-185 1951.5,-204 2049.5,-204 2049.5,-185 1951.5,-185"/>
<text text-anchor="middle" x="2000.5" y="-192" font-family="Helvetica,sans-Serif" font-size="10.00">Framework/Task.h</text>
</g>
<!-- Node11&#45;&gt;Node17 -->
<g id="edge18" class="edge"><title>Node11&#45;&gt;Node17</title>
<path fill="none" stroke="midnightblue" d="M1411.97,-251.973C1425.36,-249.783 1439.97,-247.597 1453.5,-246 1669.92,-220.454 1727.34,-244.554 1942.5,-210 1948.41,-209.051 1954.6,-207.794 1960.64,-206.416"/>
<polygon fill="midnightblue" stroke="midnightblue" points="1961.7,-209.762 1970.6,-204.015 1960.06,-202.956 1961.7,-209.762"/>
</g>
<!-- Node18 -->
<g id="node18" class="node"><title>Node18</title>
<polygon fill="none" stroke="#bfbfbf" points="708,-185 708,-204 825,-204 825,-185 708,-185"/>
<text text-anchor="middle" x="766.5" y="-192" font-family="Helvetica,sans-Serif" font-size="10.00">Headers/DataHeader.h</text>
</g>
<!-- Node11&#45;&gt;Node18 -->
<g id="edge19" class="edge"><title>Node11&#45;&gt;Node18</title>
<path fill="none" stroke="midnightblue" d="M1289.41,-256.167C1186.22,-249.574 995.011,-235.067 833.5,-210 826.626,-208.933 819.397,-207.597 812.335,-206.171"/>
<polygon fill="midnightblue" stroke="midnightblue" points="812.674,-202.666 802.168,-204.038 811.236,-209.517 812.674,-202.666"/>
</g>
<!-- Node19 -->
<g id="node19" class="node"><title>Node19</title>
<polygon fill="none" stroke="#bfbfbf" points="843,-185 843,-204 994,-204 994,-185 843,-185"/>
<text text-anchor="middle" x="918.5" y="-192" font-family="Helvetica,sans-Serif" font-size="10.00">Monitoring/MonitoringFactory.h</text>
</g>
<!-- Node11&#45;&gt;Node19 -->
<g id="edge20" class="edge"><title>Node11&#45;&gt;Node19</title>
<path fill="none" stroke="midnightblue" d="M1298.68,-251.968C1226.06,-242.404 1105.79,-226.116 1002.5,-210 994.092,-208.688 985.224,-207.234 976.526,-205.768"/>
<polygon fill="midnightblue" stroke="midnightblue" points="976.876,-202.277 966.431,-204.049 975.701,-209.178 976.876,-202.277"/>
</g>
<!-- Node20 -->
<g id="node20" class="node"><title>Node20</title>
<polygon fill="none" stroke="#bfbfbf" points="1012,-179.5 1012,-209.5 1147,-209.5 1147,-179.5 1012,-179.5"/>
<text text-anchor="start" x="1020" y="-197.5" font-family="Helvetica,sans-Serif" font-size="10.00">Configuration/Configuration</text>
<text text-anchor="middle" x="1079.5" y="-186.5" font-family="Helvetica,sans-Serif" font-size="10.00">Interface.h</text>
</g>
<!-- Node11&#45;&gt;Node20 -->
<g id="edge21" class="edge"><title>Node11&#45;&gt;Node20</title>
<path fill="none" stroke="midnightblue" d="M1326.95,-251.936C1282.32,-241.757 1206.87,-224.548 1150.99,-211.804"/>
<polygon fill="midnightblue" stroke="midnightblue" points="1151.67,-208.37 1141.14,-209.559 1150.12,-215.195 1151.67,-208.37"/>
</g>
<!-- Node21 -->
<g id="node21" class="node"><title>Node21</title>
<g id="a_node21"><a xlink:href="CheckInterface_8h.html" target="_top" xlink:title="QualityControl/CheckInterface.h">
<polygon fill="none" stroke="black" points="1443,-123.5 1443,-142.5 1600,-142.5 1600,-123.5 1443,-123.5"/>
<text text-anchor="middle" x="1521.5" y="-130.5" font-family="Helvetica,sans-Serif" font-size="10.00">QualityControl/CheckInterface.h</text>
</a>
</g>
</g>
<!-- Node11&#45;&gt;Node21 -->
<g id="edge23" class="edge"><title>Node11&#45;&gt;Node21</title>
<path fill="none" stroke="midnightblue" d="M1385.7,-251.948C1405.74,-243.24 1435.99,-228.42 1458.5,-210 1479.34,-192.943 1498.34,-168.186 1509.9,-151.612"/>
<polygon fill="midnightblue" stroke="midnightblue" points="1513.08,-153.158 1515.8,-142.919 1507.29,-149.224 1513.08,-153.158"/>
</g>
<!-- Node24 -->
<g id="node24" class="node"><title>Node24</title>
<g id="a_node24"><a xlink:href="MonitorObject_8h.html" target="_top" xlink:title="QualityControl/MonitorObject.h">
<polygon fill="none" stroke="black" points="1689,-67.5 1689,-86.5 1840,-86.5 1840,-67.5 1689,-67.5"/>
<text text-anchor="middle" x="1764.5" y="-74.5" font-family="Helvetica,sans-Serif" font-size="10.00">QualityControl/MonitorObject.h</text>
</a>
</g>
</g>
<!-- Node11&#45;&gt;Node24 -->
<g id="edge49" class="edge"><title>Node11&#45;&gt;Node24</title>
<path fill="none" stroke="midnightblue" d="M1416.25,-251.929C1428.46,-249.946 1441.43,-247.869 1453.5,-246 1562.26,-229.151 1597.81,-254.423 1698.5,-210 1698.67,-209.926 1780.42,-143.166 1780.5,-143 1787.64,-127.938 1781.76,-109.349 1775.2,-95.9133"/>
<polygon fill="midnightblue" stroke="midnightblue" points="1778.1,-93.9157 1770.26,-86.7874 1771.95,-97.2478 1778.1,-93.9157"/>
</g>
<!-- Node28 -->
<g id="node28" class="node"><title>Node28</title>
<g id="a_node28"><a xlink:href="DatabaseInterface_8h.html" target="_top" xlink:title="QualityControl/DatabaseInterface.h">
<polygon fill="none" stroke="black" points="1279.5,-185 1279.5,-204 1449.5,-204 1449.5,-185 1279.5,-185"/>
<text text-anchor="middle" x="1364.5" y="-192" font-family="Helvetica,sans-Serif" font-size="10.00">QualityControl/DatabaseInterface.h</text>
</a>
</g>
</g>
<!-- Node11&#45;&gt;Node28 -->
<g id="edge38" class="edge"><title>Node11&#45;&gt;Node28</title>
<path fill="none" stroke="midnightblue" d="M1364.5,-251.734C1364.5,-242.183 1364.5,-226.618 1364.5,-214.283"/>
<polygon fill="midnightblue" stroke="midnightblue" points="1368,-214.127 1364.5,-204.127 1361,-214.127 1368,-214.127"/>
</g>
<!-- Node30 -->
<g id="node30" class="node"><title>Node30</title>
<g id="a_node30"><a xlink:href="QcInfoLogger_8h.html" target="_top" xlink:title="QualityControl/QcInfoLogger.h">
<polygon fill="none" stroke="black" points="2143,-123.5 2143,-142.5 2292,-142.5 2292,-123.5 2143,-123.5"/>
<text text-anchor="middle" x="2217.5" y="-130.5" font-family="Helvetica,sans-Serif" font-size="10.00">QualityControl/QcInfoLogger.h</text>
</a>
</g>
</g>
<!-- Node11&#45;&gt;Node30 -->
<g id="edge50" class="edge"><title>Node11&#45;&gt;Node30</title>
<path fill="none" stroke="midnightblue" d="M1429.64,-251.997C1448,-249.806 1468.01,-247.614 1486.5,-246 1629.07,-233.549 1996.82,-263.634 2129.5,-210 2160.7,-197.387 2188.59,-168.969 2204.24,-150.682"/>
<polygon fill="midnightblue" stroke="midnightblue" points="2207.22,-152.567 2210.9,-142.631 2201.83,-148.103 2207.22,-152.567"/>
</g>
<!-- Node32 -->
<g id="node32" class="node"><title>Node32</title>
<g id="a_node32"><a xlink:href="Check_8h_source.html" target="_top" xlink:title="QualityControl/Check.h">
<polygon fill="none" stroke="black" points="1506,-185 1506,-204 1625,-204 1625,-185 1506,-185"/>
<text text-anchor="middle" x="1565.5" y="-192" font-family="Helvetica,sans-Serif" font-size="10.00">QualityControl/Check.h</text>
</a>
</g>
</g>
<!-- Node11&#45;&gt;Node32 -->
<g id="edge52" class="edge"><title>Node11&#45;&gt;Node32</title>
<path fill="none" stroke="midnightblue" d="M1391.19,-251.869C1426.73,-240.376 1489.71,-220.008 1529.45,-207.159"/>
<polygon fill="midnightblue" stroke="midnightblue" points="1530.58,-210.471 1539.02,-204.064 1528.43,-203.81 1530.58,-210.471"/>
</g>
<!-- Node21&#45;&gt;Node7 -->
<g id="edge24" class="edge"><title>Node21&#45;&gt;Node7</title>
<path fill="none" stroke="midnightblue" d="M1509.24,-123.459C1488.72,-109.555 1445.71,-82.0719 1405.5,-67 1332.71,-39.7147 1241.74,-25.7124 1195.13,-19.8894"/>
<polygon fill="midnightblue" stroke="midnightblue" points="1195.43,-16.3996 1185.08,-18.6751 1194.59,-23.349 1195.43,-16.3996"/>
</g>
<!-- Node21&#45;&gt;Node14 -->
<g id="edge25" class="edge"><title>Node21&#45;&gt;Node14</title>
<path fill="none" stroke="midnightblue" d="M1600.25,-125.13C1682.36,-117.269 1805.14,-103.351 1849.5,-87 1884.88,-73.9577 1920.7,-48.1225 1941.47,-31.6107"/>
<polygon fill="midnightblue" stroke="midnightblue" points="1943.84,-34.1901 1949.4,-25.1695 1939.43,-28.7559 1943.84,-34.1901"/>
</g>
<!-- Node22 -->
<g id="node22" class="node"><title>Node22</title>
<polygon fill="none" stroke="#bfbfbf" points="1314,-67.5 1314,-86.5 1397,-86.5 1397,-67.5 1314,-67.5"/>
<text text-anchor="middle" x="1355.5" y="-74.5" font-family="Helvetica,sans-Serif" font-size="10.00">unordered_map</text>
</g>
<!-- Node21&#45;&gt;Node22 -->
<g id="edge26" class="edge"><title>Node21&#45;&gt;Node22</title>
<path fill="none" stroke="midnightblue" d="M1495.2,-123.444C1467.15,-114.32 1422.56,-99.8133 1391.32,-89.6509"/>
<polygon fill="midnightblue" stroke="midnightblue" points="1392.27,-86.2816 1381.68,-86.5164 1390.11,-92.9383 1392.27,-86.2816"/>
</g>
<!-- Node23 -->
<g id="node23" class="node"><title>Node23</title>
<polygon fill="none" stroke="#bfbfbf" points="1582.5,-6 1582.5,-25 1638.5,-25 1638.5,-6 1582.5,-6"/>
<text text-anchor="middle" x="1610.5" y="-13" font-family="Helvetica,sans-Serif" font-size="10.00">Rtypes.h</text>
</g>
<!-- Node21&#45;&gt;Node23 -->
<g id="edge27" class="edge"><title>Node21&#45;&gt;Node23</title>
<path fill="none" stroke="midnightblue" d="M1522.25,-123.227C1523.76,-109.956 1528.15,-84.4757 1540.5,-67 1551.6,-51.2906 1569.17,-38.6387 1583.93,-29.9277"/>
<polygon fill="midnightblue" stroke="midnightblue" points="1585.66,-32.9672 1592.67,-25.021 1582.24,-26.8627 1585.66,-32.9672"/>
</g>
<!-- Node21&#45;&gt;Node24 -->
<g id="edge28" class="edge"><title>Node21&#45;&gt;Node24</title>
<path fill="none" stroke="midnightblue" d="M1560,-123.444C1602.31,-114.043 1670.32,-98.9291 1716.17,-88.7393"/>
<polygon fill="midnightblue" stroke="midnightblue" points="1717.17,-92.1025 1726.18,-86.5164 1715.65,-85.2692 1717.17,-92.1025"/>
</g>
<!-- Node27 -->
<g id="node27" class="node"><title>Node27</title>
<g id="a_node27"><a xlink:href="Quality_8h.html" target="_top" xlink:title="QualityControl/Quality.h">
<polygon fill="none" stroke="black" points="1550,-67.5 1550,-86.5 1671,-86.5 1671,-67.5 1550,-67.5"/>
<text text-anchor="middle" x="1610.5" y="-74.5" font-family="Helvetica,sans-Serif" font-size="10.00">QualityControl/Quality.h</text>
</a>
</g>
</g>
<!-- Node21&#45;&gt;Node27 -->
<g id="edge34" class="edge"><title>Node21&#45;&gt;Node27</title>
<path fill="none" stroke="midnightblue" d="M1535.8,-123.324C1549.68,-114.9 1570.99,-101.971 1587.3,-92.0741"/>
<polygon fill="midnightblue" stroke="midnightblue" points="1589.5,-94.8341 1596.24,-86.6545 1585.87,-88.8495 1589.5,-94.8341"/>
</g>
<!-- Node24&#45;&gt;Node7 -->
<g id="edge29" class="edge"><title>Node24&#45;&gt;Node7</title>
<path fill="none" stroke="midnightblue" d="M1688.96,-67.9709C1685.76,-67.6409 1682.6,-67.3161 1679.5,-67 1495.98,-48.2862 1275.52,-27.1025 1195.46,-19.4514"/>
<polygon fill="midnightblue" stroke="midnightblue" points="1195.4,-15.9299 1185.11,-18.4633 1194.73,-22.8982 1195.4,-15.9299"/>
</g>
<!-- Node24&#45;&gt;Node14 -->
<g id="edge30" class="edge"><title>Node24&#45;&gt;Node14</title>
<path fill="none" stroke="midnightblue" d="M1803.81,-67.433C1837.65,-59.5518 1887.51,-46.7203 1929.5,-31 1930.92,-30.4676 1932.37,-29.8919 1933.82,-29.2874"/>
<polygon fill="midnightblue" stroke="midnightblue" points="1935.56,-32.3405 1943.23,-25.0337 1932.68,-25.9613 1935.56,-32.3405"/>
</g>
<!-- Node24&#45;&gt;Node23 -->
<g id="edge31" class="edge"><title>Node24&#45;&gt;Node23</title>
<path fill="none" stroke="midnightblue" d="M1742.44,-67.4751C1716.13,-57.3129 1671.99,-40.2564 1642.08,-28.6996"/>
<polygon fill="midnightblue" stroke="midnightblue" points="1643.11,-25.3483 1632.52,-25.0091 1640.59,-31.8779 1643.11,-25.3483"/>
</g>
<!-- Node25 -->
<g id="node25" class="node"><title>Node25</title>
<polygon fill="none" stroke="#bfbfbf" points="1861,-6 1861,-25 1920,-25 1920,-6 1861,-6"/>
<text text-anchor="middle" x="1890.5" y="-13" font-family="Helvetica,sans-Serif" font-size="10.00">TObject.h</text>
</g>
<!-- Node24&#45;&gt;Node25 -->
<g id="edge32" class="edge"><title>Node24&#45;&gt;Node25</title>
<path fill="none" stroke="midnightblue" d="M1782.55,-67.4751C1803.7,-57.4897 1838.94,-40.8476 1863.38,-29.3075"/>
<polygon fill="midnightblue" stroke="midnightblue" points="1864.93,-32.4441 1872.48,-25.0091 1861.94,-26.1143 1864.93,-32.4441"/>
</g>
<!-- Node26 -->
<g id="node26" class="node"><title>Node26</title>
<polygon fill="none" stroke="#bfbfbf" points="1706.5,-6 1706.5,-25 1822.5,-25 1822.5,-6 1706.5,-6"/>
<text text-anchor="middle" x="1764.5" y="-13" font-family="Helvetica,sans-Serif" font-size="10.00">Common/Exceptions.h</text>
</g>
<!-- Node24&#45;&gt;Node26 -->
<g id="edge33" class="edge"><title>Node24&#45;&gt;Node26</title>
<path fill="none" stroke="midnightblue" d="M1764.5,-67.4751C1764.5,-59.0803 1764.5,-45.9806 1764.5,-35.1631"/>
<polygon fill="midnightblue" stroke="midnightblue" points="1768,-35.0091 1764.5,-25.0091 1761,-35.0091 1768,-35.0091"/>
</g>
<!-- Node27&#45;&gt;Node7 -->
<g id="edge36" class="edge"><title>Node27&#45;&gt;Node7</title>
<path fill="none" stroke="midnightblue" d="M1549.89,-67.9136C1453.41,-55.0426 1268.36,-30.3557 1195.28,-20.6061"/>
<polygon fill="midnightblue" stroke="midnightblue" points="1195.71,-17.1324 1185.33,-19.2792 1194.78,-24.071 1195.71,-17.1324"/>
</g>
<!-- Node27&#45;&gt;Node14 -->
<g id="edge37" class="edge"><title>Node27&#45;&gt;Node14</title>
<path fill="none" stroke="midnightblue" d="M1671.27,-67.9196C1760.37,-56.001 1917.29,-34.7118 1929.5,-31 1931.17,-30.4909 1932.87,-29.8997 1934.56,-29.2528"/>
<polygon fill="midnightblue" stroke="midnightblue" points="1936.23,-32.3421 1943.99,-25.1244 1933.43,-25.9301 1936.23,-32.3421"/>
</g>
<!-- Node27&#45;&gt;Node23 -->
<g id="edge35" class="edge"><title>Node27&#45;&gt;Node23</title>
<path fill="none" stroke="midnightblue" d="M1610.5,-67.4751C1610.5,-59.0803 1610.5,-45.9806 1610.5,-35.1631"/>
<polygon fill="midnightblue" stroke="midnightblue" points="1614,-35.0091 1610.5,-25.0091 1607,-35.0091 1614,-35.0091"/>
</g>
<!-- Node28&#45;&gt;Node6 -->
<g id="edge41" class="edge"><title>Node28&#45;&gt;Node6</title>
<path fill="none" stroke="midnightblue" d="M1279.26,-185.227C1141.45,-171.85 875.849,-146.07 783.826,-137.138"/>
<polygon fill="midnightblue" stroke="midnightblue" points="784.022,-133.64 773.73,-136.158 783.345,-140.608 784.022,-133.64"/>
</g>
<!-- Node28&#45;&gt;Node7 -->
<g id="edge39" class="edge"><title>Node28&#45;&gt;Node7</title>
<path fill="none" stroke="midnightblue" d="M1304.27,-184.996C1236.12,-174.762 1133.04,-157.185 1121.5,-143 1094.54,-109.86 1128.63,-58.9273 1149.88,-32.9577"/>
<polygon fill="midnightblue" stroke="midnightblue" points="1152.69,-35.0591 1156.49,-25.1694 1147.35,-30.5305 1152.69,-35.0591"/>
</g>
<!-- Node28&#45;&gt;Node13 -->
<g id="edge40" class="edge"><title>Node28&#45;&gt;Node13</title>
<path fill="none" stroke="midnightblue" d="M1334.7,-184.975C1297.11,-174.222 1232.53,-155.749 1192.3,-144.242"/>
<polygon fill="midnightblue" stroke="midnightblue" points="1193.21,-140.86 1182.63,-141.475 1191.28,-147.59 1193.21,-140.86"/>
</g>
<!-- Node28&#45;&gt;Node22 -->
<g id="edge42" class="edge"><title>Node28&#45;&gt;Node22</title>
<path fill="none" stroke="midnightblue" d="M1297.81,-184.934C1272.07,-178.009 1245.12,-165.515 1229.5,-143 1207.44,-111.195 1260.02,-93.9379 1303.87,-85.3564"/>
<polygon fill="midnightblue" stroke="midnightblue" points="1304.72,-88.7593 1313.92,-83.5062 1303.45,-81.875 1304.72,-88.7593"/>
</g>
<!-- Node28&#45;&gt;Node24 -->
<g id="edge48" class="edge"><title>Node28&#45;&gt;Node24</title>
<path fill="none" stroke="midnightblue" d="M1420.99,-184.954C1470.94,-176.656 1545.47,-162.46 1608.5,-143 1655.3,-128.552 1707.4,-105.308 1737.98,-90.8825"/>
<polygon fill="midnightblue" stroke="midnightblue" points="1739.6,-93.9896 1747.13,-86.5312 1736.59,-87.6691 1739.6,-93.9896"/>
</g>
<!-- Node28&#45;&gt;Node29 -->
<g id="edge43" class="edge"><title>Node28&#45;&gt;Node29</title>
<path fill="none" stroke="midnightblue" d="M1441.62,-184.974C1459.63,-182.998 1478.74,-180.914 1496.5,-179 1614.92,-166.241 1751.91,-151.833 1837.88,-142.834"/>
<polygon fill="midnightblue" stroke="midnightblue" points="1838.26,-146.313 1847.84,-141.791 1837.53,-139.351 1838.26,-146.313"/>
</g>
<!-- Node29&#45;&gt;Node14 -->
<g id="edge44" class="edge"><title>Node29&#45;&gt;Node14</title>
<path fill="none" stroke="midnightblue" d="M1932.28,-123.49C1941.01,-115.187 1953.23,-101.691 1958.5,-87 1964.5,-70.2719 1964.02,-49.842 1962.47,-35.2898"/>
<polygon fill="midnightblue" stroke="midnightblue" points="1965.9,-34.5129 1961.11,-25.0622 1958.96,-35.4367 1965.9,-34.5129"/>
</g>
<!-- Node29&#45;&gt;Node25 -->
<g id="edge45" class="edge"><title>Node29&#45;&gt;Node25</title>
<path fill="none" stroke="midnightblue" d="M1920.09,-123.319C1914.93,-104.673 1902.67,-60.443 1895.66,-35.1317"/>
<polygon fill="midnightblue" stroke="midnightblue" points="1898.98,-33.9845 1892.93,-25.282 1892.23,-35.8535 1898.98,-33.9845"/>
</g>
<!-- Node29&#45;&gt;Node26 -->
<g id="edge46" class="edge"><title>Node29&#45;&gt;Node26</title>
<path fill="none" stroke="midnightblue" d="M1913.97,-123.419C1900.81,-110.398 1874.42,-85.2401 1849.5,-67 1830.45,-53.0579 1807.34,-39.5209 1790.02,-29.9776"/>
<polygon fill="midnightblue" stroke="midnightblue" points="1791.52,-26.8087 1781.06,-25.1095 1788.18,-32.9594 1791.52,-26.8087"/>
</g>
<!-- Node29&#45;&gt;Node27 -->
<g id="edge47" class="edge"><title>Node29&#45;&gt;Node27</title>
<path fill="none" stroke="midnightblue" d="M1873.06,-123.444C1817.84,-113.885 1728.48,-98.4195 1669.61,-88.2298"/>
<polygon fill="midnightblue" stroke="midnightblue" points="1670.16,-84.7732 1659.71,-86.5164 1668.96,-91.6707 1670.16,-84.7732"/>
</g>
<!-- Node31 -->
<g id="node31" class="node"><title>Node31</title>
<polygon fill="none" stroke="#bfbfbf" points="2152.5,-67.5 2152.5,-86.5 2282.5,-86.5 2282.5,-67.5 2152.5,-67.5"/>
<text text-anchor="middle" x="2217.5" y="-74.5" font-family="Helvetica,sans-Serif" font-size="10.00">InfoLogger/InfoLogger.hxx</text>
</g>
<!-- Node30&#45;&gt;Node31 -->
<g id="edge51" class="edge"><title>Node30&#45;&gt;Node31</title>
<path fill="none" stroke="midnightblue" d="M2217.5,-123.083C2217.5,-116.006 2217.5,-105.861 2217.5,-96.9865"/>
<polygon fill="midnightblue" stroke="midnightblue" points="2221,-96.751 2217.5,-86.7511 2214,-96.7511 2221,-96.751"/>
</g>
<!-- Node32&#45;&gt;Node6 -->
<g id="edge55" class="edge"><title>Node32&#45;&gt;Node6</title>
<path fill="none" stroke="midnightblue" d="M1508.4,-184.963C1492.29,-182.772 1474.73,-180.589 1458.5,-179 1194.83,-153.194 1127.77,-161.611 863.5,-143 836.622,-141.107 806.144,-138.637 783.774,-136.763"/>
<polygon fill="midnightblue" stroke="midnightblue" points="784.061,-133.275 773.803,-135.923 783.473,-140.25 784.061,-133.275"/>
</g>
<!-- Node32&#45;&gt;Node9 -->
<g id="edge58" class="edge"><title>Node32&#45;&gt;Node9</title>
<path fill="none" stroke="midnightblue" d="M1506.13,-184.964C1490.65,-182.872 1473.96,-180.737 1458.5,-179 1315.02,-162.881 1148.03,-148.911 1046.86,-140.975"/>
<polygon fill="midnightblue" stroke="midnightblue" points="1046.92,-137.469 1036.67,-140.179 1046.37,-144.447 1046.92,-137.469"/>
</g>
<!-- Node32&#45;&gt;Node13 -->
<g id="edge56" class="edge"><title>Node32&#45;&gt;Node13</title>
<path fill="none" stroke="midnightblue" d="M1506.9,-184.975C1421.18,-172.505 1264.1,-149.653 1193.08,-139.321"/>
<polygon fill="midnightblue" stroke="midnightblue" points="1193.24,-135.809 1182.84,-137.832 1192.24,-142.736 1193.24,-135.809"/>
</g>
<!-- Node32&#45;&gt;Node14 -->
<g id="edge54" class="edge"><title>Node32&#45;&gt;Node14</title>
<path fill="none" stroke="midnightblue" d="M1602.25,-184.991C1612.63,-182.801 1623.97,-180.61 1634.5,-179 1675.55,-172.72 1978.59,-173.745 2006.5,-143 2035.77,-110.757 1997.76,-58.643 1974.73,-32.5145"/>
<polygon fill="midnightblue" stroke="midnightblue" points="1977.21,-30.0379 1967.89,-25.0025 1972.04,-34.752 1977.21,-30.0379"/>
</g>
<!-- Node32&#45;&gt;Node21 -->
<g id="edge62" class="edge"><title>Node32&#45;&gt;Node21</title>
<path fill="none" stroke="midnightblue" d="M1559.2,-184.975C1552.6,-176.05 1542.06,-161.807 1533.81,-150.643"/>
<polygon fill="midnightblue" stroke="midnightblue" points="1536.55,-148.468 1527.79,-142.509 1530.92,-152.631 1536.55,-148.468"/>
</g>
<!-- Node32&#45;&gt;Node22 -->
<g id="edge57" class="edge"><title>Node32&#45;&gt;Node22</title>
<path fill="none" stroke="midnightblue" d="M1534.86,-184.936C1507.25,-176.499 1466.1,-162.104 1433.5,-143 1409.89,-129.164 1386.23,-108.204 1371.26,-93.8493"/>
<polygon fill="midnightblue" stroke="midnightblue" points="1373.49,-91.1347 1363.9,-86.6412 1368.6,-96.1373 1373.49,-91.1347"/>
</g>
<!-- Node32&#45;&gt;Node24 -->
<g id="edge61" class="edge"><title>Node32&#45;&gt;Node24</title>
<path fill="none" stroke="midnightblue" d="M1603.85,-184.973C1659.99,-172.312 1758.49,-149.352 1763.5,-143 1773.65,-130.138 1772.61,-110.958 1769.81,-96.7637"/>
<polygon fill="midnightblue" stroke="midnightblue" points="1773.12,-95.5595 1767.36,-86.6646 1766.31,-97.2076 1773.12,-95.5595"/>
</g>
<!-- Node32&#45;&gt;Node27 -->
<g id="edge59" class="edge"><title>Node32&#45;&gt;Node27</title>
<path fill="none" stroke="midnightblue" d="M1576.31,-184.774C1586.73,-175.619 1601.87,-160.19 1608.5,-143 1614.16,-128.335 1614.25,-110.397 1613.16,-97.0828"/>
<polygon fill="midnightblue" stroke="midnightblue" points="1616.6,-96.3207 1612.01,-86.7714 1609.64,-97.0984 1616.6,-96.3207"/>
</g>
<!-- Node32&#45;&gt;Node29 -->
<g id="edge60" class="edge"><title>Node32&#45;&gt;Node29</title>
<path fill="none" stroke="midnightblue" d="M1604.48,-184.939C1614.26,-182.893 1624.75,-180.785 1634.5,-179 1708.34,-165.481 1793.31,-152.52 1851.72,-144.009"/>
<polygon fill="midnightblue" stroke="midnightblue" points="1852.55,-147.425 1861.94,-142.525 1851.54,-140.498 1852.55,-147.425"/>
</g>
<!-- Node32&#45;&gt;Node30 -->
<g id="edge63" class="edge"><title>Node32&#45;&gt;Node30</title>
<path fill="none" stroke="midnightblue" d="M1601.87,-184.933C1612.35,-182.715 1623.84,-180.525 1634.5,-179 1728.25,-165.589 1995.03,-147.823 2132.82,-139.174"/>
<polygon fill="midnightblue" stroke="midnightblue" points="2133.16,-142.66 2142.92,-138.542 2132.72,-135.674 2133.16,-142.66"/>
</g>
<!-- Node33 -->
<g id="node33" class="node"><title>Node33</title>
<polygon fill="none" stroke="#bfbfbf" points="1695,-123.5 1695,-142.5 1754,-142.5 1754,-123.5 1695,-123.5"/>
<text text-anchor="middle" x="1724.5" y="-130.5" font-family="Helvetica,sans-Serif" font-size="10.00">functional</text>
</g>
<!-- Node32&#45;&gt;Node33 -->
<g id="edge53" class="edge"><title>Node32&#45;&gt;Node33</title>
<path fill="none" stroke="midnightblue" d="M1588.28,-184.975C1615.55,-174.769 1661.41,-157.608 1692.3,-146.049"/>
<polygon fill="midnightblue" stroke="midnightblue" points="1693.62,-149.292 1701.76,-142.509 1691.17,-142.736 1693.62,-149.292"/>
</g>
<!-- Node34 -->
<g id="node34" class="node"><title>Node34</title>
<g id="a_node34"><a xlink:href="CheckConfig_8h.html" target="_top" xlink:title="QualityControl/CheckConfig.h">
<polygon fill="none" stroke="black" points="1239,-123.5 1239,-142.5 1386,-142.5 1386,-123.5 1239,-123.5"/>
<text text-anchor="middle" x="1312.5" y="-130.5" font-family="Helvetica,sans-Serif" font-size="10.00">QualityControl/CheckConfig.h</text>
</a>
</g>
</g>
<!-- Node32&#45;&gt;Node34 -->
<g id="edge64" class="edge"><title>Node32&#45;&gt;Node34</title>
<path fill="none" stroke="midnightblue" d="M1529.25,-184.975C1484.35,-174.415 1407.79,-156.411 1358.72,-144.869"/>
<polygon fill="midnightblue" stroke="midnightblue" points="1359.22,-141.391 1348.68,-142.509 1357.61,-148.206 1359.22,-141.391"/>
</g>
<!-- Node34&#45;&gt;Node7 -->
<g id="edge65" class="edge"><title>Node34&#45;&gt;Node7</title>
<path fill="none" stroke="midnightblue" d="M1301.38,-123.319C1276.31,-103.753 1215.14,-56.0172 1183.76,-31.5295"/>
<polygon fill="midnightblue" stroke="midnightblue" points="1185.79,-28.6751 1175.75,-25.282 1181.48,-34.1936 1185.79,-28.6751"/>
</g>
<!-- Node34&#45;&gt;Node22 -->
<g id="edge66" class="edge"><title>Node34&#45;&gt;Node22</title>
<path fill="none" stroke="midnightblue" d="M1319.6,-123.083C1325.74,-115.377 1334.77,-104.033 1342.24,-94.6531"/>
<polygon fill="midnightblue" stroke="midnightblue" points="1345.04,-96.7542 1348.53,-86.7511 1339.56,-92.3936 1345.04,-96.7542"/>
</g>
<!-- Node35&#45;&gt;Node7 -->
<g id="edge69" class="edge"><title>Node35&#45;&gt;Node7</title>
<path fill="none" stroke="midnightblue" d="M515.327,-68.3833C520.122,-67.8999 524.882,-67.4339 529.5,-67 761.713,-45.1809 1042.29,-25.0383 1133.94,-18.6183"/>
<polygon fill="midnightblue" stroke="midnightblue" points="1134.19,-22.1093 1143.92,-17.921 1133.7,-15.1263 1134.19,-22.1093"/>
</g>
<!-- Node35&#45;&gt;Node26 -->
<g id="edge71" class="edge"><title>Node35&#45;&gt;Node26</title>
<path fill="none" stroke="midnightblue" d="M515.004,-75.4901C698.705,-73.678 1217.5,-65.6366 1647.5,-31 1663.23,-29.7328 1680.1,-27.9134 1696,-25.9895"/>
<polygon fill="midnightblue" stroke="midnightblue" points="1696.79,-29.4186 1706.28,-24.7149 1695.92,-22.4718 1696.79,-29.4186"/>
</g>
<!-- Node36 -->
<g id="node36" class="node"><title>Node36</title>
<polygon fill="none" stroke="#bfbfbf" points="379,-0.5 379,-30.5 514,-30.5 514,-0.5 379,-0.5"/>
<text text-anchor="start" x="387" y="-18.5" font-family="Helvetica,sans-Serif" font-size="10.00">Configuration/Configuration</text>
<text text-anchor="middle" x="446.5" y="-7.5" font-family="Helvetica,sans-Serif" font-size="10.00">Factory.h</text>
</g>
<!-- Node35&#45;&gt;Node36 -->
<g id="edge70" class="edge"><title>Node35&#45;&gt;Node36</title>
<path fill="none" stroke="midnightblue" d="M446.5,-67.4751C446.5,-60.471 446.5,-50.1919 446.5,-40.6956"/>
<polygon fill="midnightblue" stroke="midnightblue" points="450,-40.5229 446.5,-30.523 443,-40.523 450,-40.5229"/>
</g>
</g>
</svg>
