<?xml version="1.0" encoding="UTF-8" standalone="no"?>
<!DOCTYPE svg PUBLIC "-//W3C//DTD SVG 1.1//EN"
 "http://www.w3.org/Graphics/SVG/1.1/DTD/svg11.dtd">
<!-- Generated by graphviz version 2.38.0 (20140413.2041)
 -->
<!-- Title: Framework/test/testCcdbDatabaseExtra.cxx Pages: 1 -->
<svg width="1045pt" height="330pt"
 viewBox="0.00 0.00 1045.00 330.00" xmlns="http://www.w3.org/2000/svg" xmlns:xlink="http://www.w3.org/1999/xlink">
<g id="graph0" class="graph" transform="scale(1 1) rotate(0) translate(4 326)">
<title>Framework/test/testCcdbDatabaseExtra.cxx</title>
<!-- Node1 -->
<g id="node1" class="node"><title>Node1</title>
<polygon fill="#bfbfbf" stroke="black" points="509.5,-291.5 509.5,-321.5 679.5,-321.5 679.5,-291.5 509.5,-291.5"/>
<text text-anchor="start" x="517.5" y="-309.5" font-family="Helvetica,sans-Serif" font-size="10.00">Framework/test/testCcdbDatabase</text>
<text text-anchor="middle" x="594.5" y="-298.5" font-family="Helvetica,sans-Serif" font-size="10.00">Extra.cxx</text>
</g>
<!-- Node2 -->
<g id="node2" class="node"><title>Node2</title>
<g id="a_node2"><a xlink:href="DatabaseFactory_8h.html" target="_top" xlink:title="QualityControl/DatabaseFactory.h">
<polygon fill="none" stroke="black" points="88,-230 88,-249 253,-249 253,-230 88,-230"/>
<text text-anchor="middle" x="170.5" y="-237" font-family="Helvetica,sans-Serif" font-size="10.00">QualityControl/DatabaseFactory.h</text>
</a>
</g>
</g>
<!-- Node1&#45;&gt;Node2 -->
<g id="edge1" class="edge"><title>Node1&#45;&gt;Node2</title>
<path fill="none" stroke="midnightblue" d="M509.269,-292.755C441.975,-282.648 345.713,-268.095 261.5,-255 252.445,-253.592 242.886,-252.088 233.502,-250.602"/>
<polygon fill="midnightblue" stroke="midnightblue" points="233.846,-247.113 223.421,-249.001 232.748,-254.026 233.846,-247.113"/>
</g>
<!-- Node7 -->
<g id="node7" class="node"><title>Node7</title>
<polygon fill="none" stroke="#bfbfbf" points="0,-112.5 0,-131.5 83,-131.5 83,-112.5 0,-112.5"/>
<text text-anchor="middle" x="41.5" y="-119.5" font-family="Helvetica,sans-Serif" font-size="10.00">unordered_map</text>
</g>
<!-- Node1&#45;&gt;Node7 -->
<g id="edge22" class="edge"><title>Node1&#45;&gt;Node7</title>
<path fill="none" stroke="midnightblue" d="M509.278,-302.362C371.215,-296.517 110.752,-282.029 78.5,-255 45.005,-226.929 40.5245,-171.214 40.6683,-141.955"/>
<polygon fill="midnightblue" stroke="midnightblue" points="44.1703,-141.91 40.9129,-131.828 37.1723,-141.74 44.1703,-141.91"/>
</g>
<!-- Node15 -->
<g id="node15" class="node"><title>Node15</title>
<g id="a_node15"><a xlink:href="CcdbDatabase_8h.html" target="_top" xlink:title="QualityControl/CcdbDatabase.h">
<polygon fill="none" stroke="black" points="271,-230 271,-249 426,-249 426,-230 271,-230"/>
<text text-anchor="middle" x="348.5" y="-237" font-family="Helvetica,sans-Serif" font-size="10.00">QualityControl/CcdbDatabase.h</text>
</a>
</g>
</g>
<!-- Node1&#45;&gt;Node15 -->
<g id="edge23" class="edge"><title>Node1&#45;&gt;Node15</title>
<path fill="none" stroke="midnightblue" d="M541.425,-291.476C496.276,-279.547 432.307,-262.644 390.614,-251.628"/>
<polygon fill="midnightblue" stroke="midnightblue" points="391.34,-248.199 380.778,-249.029 389.552,-254.967 391.34,-248.199"/>
</g>
<!-- Node17 -->
<g id="node17" class="node"><title>Node17</title>
<g id="a_node17"><a xlink:href="QcInfoLogger_8h.html" target="_top" xlink:title="QualityControl/QcInfoLogger.h">
<polygon fill="none" stroke="black" points="444,-230 444,-249 593,-249 593,-230 444,-230"/>
<text text-anchor="middle" x="518.5" y="-237" font-family="Helvetica,sans-Serif" font-size="10.00">QualityControl/QcInfoLogger.h</text>
</a>
</g>
</g>
<!-- Node1&#45;&gt;Node17 -->
<g id="edge26" class="edge"><title>Node1&#45;&gt;Node17</title>
<path fill="none" stroke="midnightblue" d="M578.009,-291.396C565.807,-280.96 549.193,-266.751 536.621,-255.998"/>
<polygon fill="midnightblue" stroke="midnightblue" points="538.54,-253.034 528.666,-249.195 533.991,-258.354 538.54,-253.034"/>
</g>
<!-- Node19 -->
<g id="node19" class="node"><title>Node19</title>
<polygon fill="none" stroke="#bfbfbf" points="611,-230 611,-249 730,-249 730,-230 611,-230"/>
<text text-anchor="middle" x="670.5" y="-237" font-family="Helvetica,sans-Serif" font-size="10.00">boost/test/unit_test.hpp</text>
</g>
<!-- Node1&#45;&gt;Node19 -->
<g id="edge28" class="edge"><title>Node1&#45;&gt;Node19</title>
<path fill="none" stroke="midnightblue" d="M610.991,-291.396C623.193,-280.96 639.807,-266.751 652.379,-255.998"/>
<polygon fill="midnightblue" stroke="midnightblue" points="655.009,-258.354 660.334,-249.195 650.46,-253.034 655.009,-258.354"/>
</g>
<!-- Node20 -->
<g id="node20" class="node"><title>Node20</title>
<polygon fill="none" stroke="#bfbfbf" points="748.5,-230 748.5,-249 798.5,-249 798.5,-230 748.5,-230"/>
<text text-anchor="middle" x="773.5" y="-237" font-family="Helvetica,sans-Serif" font-size="10.00">TH1F.h</text>
</g>
<!-- Node1&#45;&gt;Node20 -->
<g id="edge29" class="edge"><title>Node1&#45;&gt;Node20</title>
<path fill="none" stroke="midnightblue" d="M637.287,-291.45C666.308,-281.713 705.44,-268.176 739.5,-255 741.146,-254.363 742.83,-253.696 744.526,-253.012"/>
<polygon fill="midnightblue" stroke="midnightblue" points="746.279,-256.075 754.175,-249.011 743.597,-249.609 746.279,-256.075"/>
</g>
<!-- Node21 -->
<g id="node21" class="node"><title>Node21</title>
<polygon fill="none" stroke="#bfbfbf" points="817,-224.5 817,-254.5 918,-254.5 918,-224.5 817,-224.5"/>
<text text-anchor="start" x="825" y="-242.5" font-family="Helvetica,sans-Serif" font-size="10.00">boost/property_tree</text>
<text text-anchor="middle" x="867.5" y="-231.5" font-family="Helvetica,sans-Serif" font-size="10.00">/ptree.hpp</text>
</g>
<!-- Node1&#45;&gt;Node21 -->
<g id="edge30" class="edge"><title>Node1&#45;&gt;Node21</title>
<path fill="none" stroke="midnightblue" d="M654.195,-291.42C694.569,-281.88 749.367,-268.9 806.777,-255.168"/>
<polygon fill="midnightblue" stroke="midnightblue" points="807.854,-258.509 816.765,-252.777 806.225,-251.701 807.854,-258.509"/>
</g>
<!-- Node22 -->
<g id="node22" class="node"><title>Node22</title>
<polygon fill="none" stroke="#bfbfbf" points="936,-224.5 936,-254.5 1037,-254.5 1037,-224.5 936,-224.5"/>
<text text-anchor="start" x="944" y="-242.5" font-family="Helvetica,sans-Serif" font-size="10.00">boost/property_tree</text>
<text text-anchor="middle" x="986.5" y="-231.5" font-family="Helvetica,sans-Serif" font-size="10.00">/json_parser.hpp</text>
</g>
<!-- Node1&#45;&gt;Node22 -->
<g id="edge31" class="edge"><title>Node1&#45;&gt;Node22</title>
<path fill="none" stroke="midnightblue" d="M679.727,-294.738C744.786,-286.022 836.821,-272.616 925.732,-255.259"/>
<polygon fill="midnightblue" stroke="midnightblue" points="926.582,-258.658 935.716,-253.29 925.228,-251.791 926.582,-258.658"/>
</g>
<!-- Node3 -->
<g id="node3" class="node"><title>Node3</title>
<polygon fill="none" stroke="#bfbfbf" points="101.5,-112.5 101.5,-131.5 153.5,-131.5 153.5,-112.5 101.5,-112.5"/>
<text text-anchor="middle" x="127.5" y="-119.5" font-family="Helvetica,sans-Serif" font-size="10.00">memory</text>
</g>
<!-- Node2&#45;&gt;Node3 -->
<g id="edge2" class="edge"><title>Node2&#45;&gt;Node3</title>
<path fill="none" stroke="midnightblue" d="M166.755,-229.993C162.41,-220.012 155.123,-202.928 149.5,-188 143.66,-172.496 137.673,-154.656 133.422,-141.592"/>
<polygon fill="midnightblue" stroke="midnightblue" points="136.697,-140.345 130.301,-131.899 130.034,-142.49 136.697,-140.345"/>
</g>
<!-- Node4 -->
<g id="node4" class="node"><title>Node4</title>
<g id="a_node4"><a xlink:href="DatabaseInterface_8h.html" target="_top" xlink:title="QualityControl/DatabaseInterface.h">
<polygon fill="none" stroke="black" points="158.5,-168.5 158.5,-187.5 328.5,-187.5 328.5,-168.5 158.5,-168.5"/>
<text text-anchor="middle" x="243.5" y="-175.5" font-family="Helvetica,sans-Serif" font-size="10.00">QualityControl/DatabaseInterface.h</text>
</a>
</g>
</g>
<!-- Node2&#45;&gt;Node4 -->
<g id="edge3" class="edge"><title>Node2&#45;&gt;Node4</title>
<path fill="none" stroke="midnightblue" d="M180.959,-229.975C192.451,-220.608 211.13,-205.384 225.087,-194.008"/>
<polygon fill="midnightblue" stroke="midnightblue" points="227.52,-196.54 233.06,-187.509 223.098,-191.114 227.52,-196.54"/>
</g>
<!-- Node4&#45;&gt;Node3 -->
<g id="edge5" class="edge"><title>Node4&#45;&gt;Node3</title>
<path fill="none" stroke="midnightblue" d="M225.119,-168.444C206.284,-159.675 176.769,-145.935 155.121,-135.858"/>
<polygon fill="midnightblue" stroke="midnightblue" points="156.338,-132.564 145.795,-131.516 153.383,-138.91 156.338,-132.564"/>
</g>
<!-- Node5 -->
<g id="node5" class="node"><title>Node5</title>
<polygon fill="none" stroke="#bfbfbf" points="465,-0.5 465,-19.5 506,-19.5 506,-0.5 465,-0.5"/>
<text text-anchor="middle" x="485.5" y="-7.5" font-family="Helvetica,sans-Serif" font-size="10.00">string</text>
</g>
<!-- Node4&#45;&gt;Node5 -->
<g id="edge4" class="edge"><title>Node4&#45;&gt;Node5</title>
<path fill="none" stroke="midnightblue" d="M319.675,-168.471C390.251,-159.785 486.027,-145.684 497.5,-132 521.937,-102.853 506.031,-54.7968 494.466,-28.8861"/>
<polygon fill="midnightblue" stroke="midnightblue" points="497.488,-27.0894 490.049,-19.5449 491.16,-30.0815 497.488,-27.0894"/>
</g>
<!-- Node6 -->
<g id="node6" class="node"><title>Node6</title>
<polygon fill="none" stroke="#bfbfbf" points="551.5,-112.5 551.5,-131.5 595.5,-131.5 595.5,-112.5 551.5,-112.5"/>
<text text-anchor="middle" x="573.5" y="-119.5" font-family="Helvetica,sans-Serif" font-size="10.00">vector</text>
</g>
<!-- Node4&#45;&gt;Node6 -->
<g id="edge6" class="edge"><title>Node4&#45;&gt;Node6</title>
<path fill="none" stroke="midnightblue" d="M310.954,-168.493C370.747,-160.521 460.3,-147.523 537.5,-132 538.779,-131.743 540.081,-131.47 541.394,-131.186"/>
<polygon fill="midnightblue" stroke="midnightblue" points="542.537,-134.514 551.489,-128.848 540.957,-127.694 542.537,-134.514"/>
</g>
<!-- Node4&#45;&gt;Node7 -->
<g id="edge7" class="edge"><title>Node4&#45;&gt;Node7</title>
<path fill="none" stroke="midnightblue" d="M211.492,-168.444C176.771,-159.162 121.212,-144.309 83.1231,-134.127"/>
<polygon fill="midnightblue" stroke="midnightblue" points="83.9224,-130.718 73.3578,-131.516 82.1146,-137.48 83.9224,-130.718"/>
</g>
<!-- Node8 -->
<g id="node8" class="node"><title>Node8</title>
<g id="a_node8"><a xlink:href="QualityObject_8h_source.html" target="_top" xlink:title="QualityControl/QualityObject.h">
<polygon fill="none" stroke="black" points="171,-112.5 171,-131.5 320,-131.5 320,-112.5 171,-112.5"/>
<text text-anchor="middle" x="245.5" y="-119.5" font-family="Helvetica,sans-Serif" font-size="10.00">QualityControl/QualityObject.h</text>
</a>
</g>
</g>
<!-- Node4&#45;&gt;Node8 -->
<g id="edge8" class="edge"><title>Node4&#45;&gt;Node8</title>
<path fill="none" stroke="midnightblue" d="M243.83,-168.083C244.092,-161.006 244.468,-150.861 244.797,-141.986"/>
<polygon fill="midnightblue" stroke="midnightblue" points="248.303,-141.874 245.176,-131.751 241.308,-141.615 248.303,-141.874"/>
</g>
<!-- Node14 -->
<g id="node14" class="node"><title>Node14</title>
<g id="a_node14"><a xlink:href="MonitorObject_8h.html" target="_top" xlink:title="QualityControl/MonitorObject.h">
<polygon fill="none" stroke="black" points="338,-112.5 338,-131.5 489,-131.5 489,-112.5 338,-112.5"/>
<text text-anchor="middle" x="413.5" y="-119.5" font-family="Helvetica,sans-Serif" font-size="10.00">QualityControl/MonitorObject.h</text>
</a>
</g>
</g>
<!-- Node4&#45;&gt;Node14 -->
<g id="edge16" class="edge"><title>Node4&#45;&gt;Node14</title>
<path fill="none" stroke="midnightblue" d="M270.437,-168.444C299.16,-159.32 344.829,-144.813 376.821,-134.651"/>
<polygon fill="midnightblue" stroke="midnightblue" points="378.218,-137.88 386.689,-131.516 376.099,-131.208 378.218,-137.88"/>
</g>
<!-- Node9 -->
<g id="node9" class="node"><title>Node9</title>
<polygon fill="none" stroke="#bfbfbf" points="91,-0.5 91,-19.5 126,-19.5 126,-0.5 91,-0.5"/>
<text text-anchor="middle" x="108.5" y="-7.5" font-family="Helvetica,sans-Serif" font-size="10.00">map</text>
</g>
<!-- Node8&#45;&gt;Node9 -->
<g id="edge9" class="edge"><title>Node8&#45;&gt;Node9</title>
<path fill="none" stroke="midnightblue" d="M189.236,-112.462C131.26,-103.091 48.0198,-87.8117 38.5,-76 21.3529,-54.7248 55.275,-33.91 81.6314,-21.7761"/>
<polygon fill="midnightblue" stroke="midnightblue" points="83.1396,-24.9365 90.8908,-17.7137 80.3271,-18.5263 83.1396,-24.9365"/>
</g>
<!-- Node10 -->
<g id="node10" class="node"><title>Node10</title>
<polygon fill="none" stroke="#bfbfbf" points="322,-56.5 322,-75.5 381,-75.5 381,-56.5 322,-56.5"/>
<text text-anchor="middle" x="351.5" y="-63.5" font-family="Helvetica,sans-Serif" font-size="10.00">TObject.h</text>
</g>
<!-- Node8&#45;&gt;Node10 -->
<g id="edge10" class="edge"><title>Node8&#45;&gt;Node10</title>
<path fill="none" stroke="midnightblue" d="M262.531,-112.324C279.53,-103.664 305.876,-90.2424 325.493,-80.249"/>
<polygon fill="midnightblue" stroke="midnightblue" points="327.19,-83.3125 334.512,-75.6545 324.012,-77.0752 327.19,-83.3125"/>
</g>
<!-- Node11 -->
<g id="node11" class="node"><title>Node11</title>
<polygon fill="none" stroke="#bfbfbf" points="187.5,-56.5 187.5,-75.5 303.5,-75.5 303.5,-56.5 187.5,-56.5"/>
<text text-anchor="middle" x="245.5" y="-63.5" font-family="Helvetica,sans-Serif" font-size="10.00">Common/Exceptions.h</text>
</g>
<!-- Node8&#45;&gt;Node11 -->
<g id="edge11" class="edge"><title>Node8&#45;&gt;Node11</title>
<path fill="none" stroke="midnightblue" d="M245.5,-112.083C245.5,-105.006 245.5,-94.8611 245.5,-85.9865"/>
<polygon fill="midnightblue" stroke="midnightblue" points="249,-85.751 245.5,-75.7511 242,-85.7511 249,-85.751"/>
</g>
<!-- Node12 -->
<g id="node12" class="node"><title>Node12</title>
<g id="a_node12"><a xlink:href="Quality_8h.html" target="_top" xlink:title="QualityControl/Quality.h">
<polygon fill="none" stroke="black" points="48,-56.5 48,-75.5 169,-75.5 169,-56.5 48,-56.5"/>
<text text-anchor="middle" x="108.5" y="-63.5" font-family="Helvetica,sans-Serif" font-size="10.00">QualityControl/Quality.h</text>
</a>
</g>
</g>
<!-- Node8&#45;&gt;Node12 -->
<g id="edge12" class="edge"><title>Node8&#45;&gt;Node12</title>
<path fill="none" stroke="midnightblue" d="M223.792,-112.444C201.145,-103.517 165.428,-89.4387 139.748,-79.3168"/>
<polygon fill="midnightblue" stroke="midnightblue" points="140.693,-75.9273 130.106,-75.5164 138.126,-82.4397 140.693,-75.9273"/>
</g>
<!-- Node12&#45;&gt;Node5 -->
<g id="edge14" class="edge"><title>Node12&#45;&gt;Node5</title>
<path fill="none" stroke="midnightblue" d="M168.237,-56.4435C249.689,-44.7767 392.584,-24.309 454.944,-15.3767"/>
<polygon fill="midnightblue" stroke="midnightblue" points="455.528,-18.8289 464.931,-13.9463 454.535,-11.8996 455.528,-18.8289"/>
</g>
<!-- Node12&#45;&gt;Node9 -->
<g id="edge15" class="edge"><title>Node12&#45;&gt;Node9</title>
<path fill="none" stroke="midnightblue" d="M108.5,-56.083C108.5,-49.0059 108.5,-38.8611 108.5,-29.9865"/>
<polygon fill="midnightblue" stroke="midnightblue" points="112,-29.751 108.5,-19.7511 105,-29.7511 112,-29.751"/>
</g>
<!-- Node13 -->
<g id="node13" class="node"><title>Node13</title>
<polygon fill="none" stroke="#bfbfbf" points="267.5,-0.5 267.5,-19.5 323.5,-19.5 323.5,-0.5 267.5,-0.5"/>
<text text-anchor="middle" x="295.5" y="-7.5" font-family="Helvetica,sans-Serif" font-size="10.00">Rtypes.h</text>
</g>
<!-- Node12&#45;&gt;Node13 -->
<g id="edge13" class="edge"><title>Node12&#45;&gt;Node13</title>
<path fill="none" stroke="midnightblue" d="M138.131,-56.4435C170.375,-47.1323 222.031,-32.2155 257.301,-22.0308"/>
<polygon fill="midnightblue" stroke="midnightblue" points="258.596,-25.3 267.232,-19.1629 256.654,-18.5748 258.596,-25.3"/>
</g>
<!-- Node14&#45;&gt;Node5 -->
<g id="edge17" class="edge"><title>Node14&#45;&gt;Node5</title>
<path fill="none" stroke="midnightblue" d="M425.657,-112.243C436.381,-103.966 451.776,-90.6593 461.5,-76 470.955,-61.7463 477.31,-43.2743 481.093,-29.6669"/>
<polygon fill="midnightblue" stroke="midnightblue" points="484.586,-30.1361 483.677,-19.5803 477.805,-28.399 484.586,-30.1361"/>
</g>
<!-- Node14&#45;&gt;Node9 -->
<g id="edge18" class="edge"><title>Node14&#45;&gt;Node9</title>
<path fill="none" stroke="midnightblue" d="M412.975,-112.265C411.623,-98.0824 406.786,-70.2068 389.5,-56 351.073,-24.4175 199.259,-14.6778 136.195,-11.9588"/>
<polygon fill="midnightblue" stroke="midnightblue" points="136.313,-8.4608 126.18,-11.5545 136.031,-15.4551 136.313,-8.4608"/>
</g>
<!-- Node14&#45;&gt;Node10 -->
<g id="edge20" class="edge"><title>Node14&#45;&gt;Node10</title>
<path fill="none" stroke="midnightblue" d="M403.539,-112.324C394.373,-104.341 380.563,-92.3128 369.472,-82.6529"/>
<polygon fill="midnightblue" stroke="midnightblue" points="371.482,-79.7624 361.643,-75.8339 366.885,-85.041 371.482,-79.7624"/>
</g>
<!-- Node14&#45;&gt;Node11 -->
<g id="edge21" class="edge"><title>Node14&#45;&gt;Node11</title>
<path fill="none" stroke="midnightblue" d="M386.88,-112.444C358.494,-103.32 313.363,-88.8133 281.747,-78.6509"/>
<polygon fill="midnightblue" stroke="midnightblue" points="282.587,-75.2445 271.996,-75.5164 280.445,-81.9087 282.587,-75.2445"/>
</g>
<!-- Node14&#45;&gt;Node13 -->
<g id="edge19" class="edge"><title>Node14&#45;&gt;Node13</title>
<path fill="none" stroke="midnightblue" d="M418.535,-112.097C425.39,-98.6558 435.512,-72.956 423.5,-56 403.341,-27.5444 363.691,-16.9511 333.835,-13.0771"/>
<polygon fill="midnightblue" stroke="midnightblue" points="334.053,-9.58009 323.731,-11.9687 333.289,-16.5384 334.053,-9.58009"/>
</g>
<!-- Node15&#45;&gt;Node4 -->
<g id="edge25" class="edge"><title>Node15&#45;&gt;Node4</title>
<path fill="none" stroke="midnightblue" d="M333.456,-229.975C316.225,-220.211 287.76,-204.081 267.466,-192.581"/>
<polygon fill="midnightblue" stroke="midnightblue" points="268.942,-189.394 258.516,-187.509 265.491,-195.484 268.942,-189.394"/>
</g>
<!-- Node16 -->
<g id="node16" class="node"><title>Node16</title>
<polygon fill="none" stroke="#bfbfbf" points="347,-168.5 347,-187.5 442,-187.5 442,-168.5 347,-168.5"/>
<text text-anchor="middle" x="394.5" y="-175.5" font-family="Helvetica,sans-Serif" font-size="10.00">CCDB/CcdbApi.h</text>
</g>
<!-- Node15&#45;&gt;Node16 -->
<g id="edge24" class="edge"><title>Node15&#45;&gt;Node16</title>
<path fill="none" stroke="midnightblue" d="M355.091,-229.975C361.991,-221.05 373.002,-206.807 381.634,-195.643"/>
<polygon fill="midnightblue" stroke="midnightblue" points="384.574,-197.561 387.922,-187.509 379.036,-193.28 384.574,-197.561"/>
</g>
<!-- Node18 -->
<g id="node18" class="node"><title>Node18</title>
<polygon fill="none" stroke="#bfbfbf" points="460.5,-168.5 460.5,-187.5 590.5,-187.5 590.5,-168.5 460.5,-168.5"/>
<text text-anchor="middle" x="525.5" y="-175.5" font-family="Helvetica,sans-Serif" font-size="10.00">InfoLogger/InfoLogger.hxx</text>
</g>
<!-- Node17&#45;&gt;Node18 -->
<g id="edge27" class="edge"><title>Node17&#45;&gt;Node18</title>
<path fill="none" stroke="midnightblue" d="M519.503,-229.975C520.491,-221.58 522.032,-208.481 523.304,-197.663"/>
<polygon fill="midnightblue" stroke="midnightblue" points="526.806,-197.85 524.499,-187.509 519.854,-197.032 526.806,-197.85"/>
</g>
</g>
</svg>
