<?xml version="1.0" encoding="UTF-8" standalone="no"?>
<!DOCTYPE svg PUBLIC "-//W3C//DTD SVG 1.1//EN"
 "http://www.w3.org/Graphics/SVG/1.1/DTD/svg11.dtd">
<!-- Generated by graphviz version 2.38.0 (20140413.2041)
 -->
<!-- Title: Framework/test/testTaskRunner.cxx Pages: 1 -->
<!--zoomable 341 -->
<svg id="main" version="1.1" xmlns="http://www.w3.org/2000/svg" xmlns:xlink="http://www.w3.org/1999/xlink" xml:space="preserve" onload="init(evt)">
<style type="text/css"><![CDATA[
.edge:hover path { stroke: red; }
.edge:hover polygon { stroke: red; fill: red; }
]]></style>
<script type="text/javascript"><![CDATA[
var edges = document.getElementsByTagName('g');
if (edges && edges.length) {
  for (var i=0;i<edges.length;i++) {
    if (edges[i].id.substr(0,4)=='edge') {
      edges[i].setAttribute('class','edge');
    }
  }
}
]]></script>
        <defs>
                <circle id="rim" cx="0" cy="0" r="7"/>
                <circle id="rim2" cx="0" cy="0" r="3.5"/>
                <g id="zoomPlus">
                        <use xlink:href="#rim" fill="#404040">
                                <set attributeName="fill" to="#808080" begin="zoomplus.mouseover" end="zoomplus.mouseout"/>
                        </use>
                        <path d="M-4,0h8M0,-4v8" fill="none" stroke="white" stroke-width="1.5" pointer-events="none"/>
                </g>
                <g id="zoomMin">
                        <use xlink:href="#rim" fill="#404040">
                                <set attributeName="fill" to="#808080" begin="zoomminus.mouseover" end="zoomminus.mouseout"/>
                        </use>
                        <path d="M-4,0h8" fill="none" stroke="white" stroke-width="1.5" pointer-events="none"/>
                </g>
                <g id="dirArrow">
                        <path fill="none" stroke="white" stroke-width="1.5" d="M0,-3.0v7 M-2.5,-0.5L0,-3.0L2.5,-0.5"/>
                </g>
               <g id="resetDef">
                       <use xlink:href="#rim2" fill="#404040">
                               <set attributeName="fill" to="#808080" begin="reset.mouseover" end="reset.mouseout"/>
                       </use>
               </g>
        </defs>

<script type="text/javascript">
var viewWidth = 1380;
var viewHeight = 341;
var sectionId = 'dynsection-0';
</script>
<script xlink:href="svgpan.js"/>
<svg id="graph" class="graph">
<g id="viewport">
<title>Framework/test/testTaskRunner.cxx</title>
<!-- Node1 -->
<g id="node1" class="node"><title>Node1</title>
<polygon fill="#bfbfbf" stroke="black" points="521.5,-313.5 521.5,-332.5 697.5,-332.5 697.5,-313.5 521.5,-313.5"/>
<text text-anchor="middle" x="609.5" y="-320.5" font-family="Helvetica,sans-Serif" font-size="10.00">Framework/test/testTaskRunner.cxx</text>
</g>
<!-- Node2 -->
<g id="node2" class="node"><title>Node2</title>
<polygon fill="none" stroke="#bfbfbf" points="0,-252 0,-271 119,-271 119,-252 0,-252"/>
<text text-anchor="middle" x="59.5" y="-259" font-family="Helvetica,sans-Serif" font-size="10.00">getTestDataDirectory.h</text>
</g>
<!-- Node1&#45;&gt;Node2 -->
<g id="edge1" class="edge"><title>Node1&#45;&gt;Node2</title>
<path fill="none" stroke="midnightblue" d="M521.168,-316.865C424.217,-310.505 264.168,-297.878 127.5,-277 120.363,-275.91 112.849,-274.537 105.523,-273.074"/>
<polygon fill="midnightblue" stroke="midnightblue" points="106.207,-269.642 95.7045,-271.041 104.787,-276.496 106.207,-269.642"/>
</g>
<!-- Node3 -->
<g id="node3" class="node"><title>Node3</title>
<g id="a_node3"><a xlink:href="TaskRunnerFactory_8h.html" target="_top" xlink:title="QualityControl/TaskRunner\lFactory.h">
<polygon fill="none" stroke="black" points="137,-246.5 137,-276.5 272,-276.5 272,-246.5 137,-246.5"/>
<text text-anchor="start" x="145" y="-264.5" font-family="Helvetica,sans-Serif" font-size="10.00">QualityControl/TaskRunner</text>
<text text-anchor="middle" x="204.5" y="-253.5" font-family="Helvetica,sans-Serif" font-size="10.00">Factory.h</text>
</a>
</g>
</g>
<!-- Node1&#45;&gt;Node3 -->
<g id="edge2" class="edge"><title>Node1&#45;&gt;Node3</title>
<path fill="none" stroke="midnightblue" d="M551.473,-313.475C480.826,-303.096 361.227,-285.525 282.556,-273.967"/>
<polygon fill="midnightblue" stroke="midnightblue" points="282.617,-270.439 272.215,-272.448 281.6,-277.365 282.617,-270.439"/>
</g>
<!-- Node7 -->
<g id="node7" class="node"><title>Node7</title>
<g id="a_node7"><a xlink:href="TaskRunner_8h.html" target="_top" xlink:title="QualityControl/TaskRunner.h">
<polygon fill="none" stroke="black" points="456,-252 456,-271 599,-271 599,-252 456,-252"/>
<text text-anchor="middle" x="527.5" y="-259" font-family="Helvetica,sans-Serif" font-size="10.00">QualityControl/TaskRunner.h</text>
</a>
</g>
</g>
<!-- Node1&#45;&gt;Node7 -->
<g id="edge6" class="edge"><title>Node1&#45;&gt;Node7</title>
<path fill="none" stroke="midnightblue" d="M597.751,-313.475C584.721,-304.02 563.464,-288.596 547.741,-277.187"/>
<polygon fill="midnightblue" stroke="midnightblue" points="549.376,-274.049 539.227,-271.009 545.265,-279.715 549.376,-274.049"/>
</g>
<!-- Node30 -->
<g id="node30" class="node"><title>Node30</title>
<polygon fill="none" stroke="#bfbfbf" points="617,-252 617,-271 768,-271 768,-252 617,-252"/>
<text text-anchor="middle" x="692.5" y="-259" font-family="Helvetica,sans-Serif" font-size="10.00">DataSampling/DataSampling.h</text>
</g>
<!-- Node1&#45;&gt;Node30 -->
<g id="edge39" class="edge"><title>Node1&#45;&gt;Node30</title>
<path fill="none" stroke="midnightblue" d="M621.392,-313.475C634.705,-303.931 656.5,-288.307 672.457,-276.868"/>
<polygon fill="midnightblue" stroke="midnightblue" points="674.542,-279.68 680.63,-271.009 670.464,-273.991 674.542,-279.68"/>
</g>
<!-- Node31 -->
<g id="node31" class="node"><title>Node31</title>
<polygon fill="none" stroke="#bfbfbf" points="786.5,-252 786.5,-271 926.5,-271 926.5,-252 786.5,-252"/>
<text text-anchor="middle" x="856.5" y="-259" font-family="Helvetica,sans-Serif" font-size="10.00">Framework/DataSpecUtils.h</text>
</g>
<!-- Node1&#45;&gt;Node31 -->
<g id="edge40" class="edge"><title>Node1&#45;&gt;Node31</title>
<path fill="none" stroke="midnightblue" d="M644.889,-313.475C688.726,-302.915 763.466,-284.911 811.38,-273.369"/>
<polygon fill="midnightblue" stroke="midnightblue" points="812.274,-276.754 821.177,-271.009 810.635,-269.948 812.274,-276.754"/>
</g>
<!-- Node32 -->
<g id="node32" class="node"><title>Node32</title>
<polygon fill="none" stroke="#bfbfbf" points="945,-252 945,-271 1064,-271 1064,-252 945,-252"/>
<text text-anchor="middle" x="1004.5" y="-259" font-family="Helvetica,sans-Serif" font-size="10.00">boost/test/unit_test.hpp</text>
</g>
<!-- Node1&#45;&gt;Node32 -->
<g id="edge41" class="edge"><title>Node1&#45;&gt;Node32</title>
<path fill="none" stroke="midnightblue" d="M681.912,-313.479C748.124,-305.338 848.674,-292.097 935.5,-277 942.225,-275.831 949.295,-274.483 956.239,-273.089"/>
<polygon fill="midnightblue" stroke="midnightblue" points="957.178,-276.47 966.27,-271.031 955.77,-269.613 957.178,-276.47"/>
</g>
<!-- Node4 -->
<g id="node4" class="node"><title>Node4</title>
<polygon fill="none" stroke="#bfbfbf" points="302,-0.5 302,-19.5 343,-19.5 343,-0.5 302,-0.5"/>
<text text-anchor="middle" x="322.5" y="-7.5" font-family="Helvetica,sans-Serif" font-size="10.00">string</text>
</g>
<!-- Node3&#45;&gt;Node4 -->
<g id="edge3" class="edge"><title>Node3&#45;&gt;Node4</title>
<path fill="none" stroke="midnightblue" d="M137.118,-246.445C101.139,-237.428 62.1118,-224.678 51.5,-210 43.4275,-198.835 44.8741,-191.08 51.5,-179 103.234,-84.6826 232.587,-36.7501 291.905,-19.1303"/>
<polygon fill="midnightblue" stroke="midnightblue" points="293.16,-22.4114 301.801,-16.2808 291.223,-15.6847 293.16,-22.4114"/>
</g>
<!-- Node5 -->
<g id="node5" class="node"><title>Node5</title>
<polygon fill="none" stroke="#bfbfbf" points="60.5,-185 60.5,-204 104.5,-204 104.5,-185 60.5,-185"/>
<text text-anchor="middle" x="82.5" y="-192" font-family="Helvetica,sans-Serif" font-size="10.00">vector</text>
</g>
<!-- Node3&#45;&gt;Node5 -->
<g id="edge4" class="edge"><title>Node3&#45;&gt;Node5</title>
<path fill="none" stroke="midnightblue" d="M178.028,-246.396C157.095,-235.243 128.074,-219.781 107.526,-208.834"/>
<polygon fill="midnightblue" stroke="midnightblue" points="108.938,-205.62 98.467,-204.007 105.647,-211.798 108.938,-205.62"/>
</g>
<!-- Node6 -->
<g id="node6" class="node"><title>Node6</title>
<polygon fill="none" stroke="#bfbfbf" points="122.5,-185 122.5,-204 286.5,-204 286.5,-185 122.5,-185"/>
<text text-anchor="middle" x="204.5" y="-192" font-family="Helvetica,sans-Serif" font-size="10.00">Framework/DataProcessorSpec.h</text>
</g>
<!-- Node3&#45;&gt;Node6 -->
<g id="edge5" class="edge"><title>Node3&#45;&gt;Node6</title>
<path fill="none" stroke="midnightblue" d="M204.5,-246.396C204.5,-237.064 204.5,-224.714 204.5,-214.517"/>
<polygon fill="midnightblue" stroke="midnightblue" points="208,-214.195 204.5,-204.195 201,-214.195 208,-214.195"/>
</g>
<!-- Node7&#45;&gt;Node6 -->
<g id="edge10" class="edge"><title>Node7&#45;&gt;Node6</title>
<path fill="none" stroke="midnightblue" d="M484.941,-251.936C426.159,-240.106 320.203,-218.784 256.708,-206.006"/>
<polygon fill="midnightblue" stroke="midnightblue" points="257.39,-202.573 246.896,-204.032 256.009,-209.436 257.39,-202.573"/>
</g>
<!-- Node8 -->
<g id="node8" class="node"><title>Node8</title>
<polygon fill="none" stroke="#bfbfbf" points="549,-179.5 549,-209.5 650,-209.5 650,-179.5 549,-179.5"/>
<text text-anchor="start" x="557" y="-197.5" font-family="Helvetica,sans-Serif" font-size="10.00">boost/property_tree</text>
<text text-anchor="middle" x="599.5" y="-186.5" font-family="Helvetica,sans-Serif" font-size="10.00">/ptree.hpp</text>
</g>
<!-- Node7&#45;&gt;Node8 -->
<g id="edge7" class="edge"><title>Node7&#45;&gt;Node8</title>
<path fill="none" stroke="midnightblue" d="M537.21,-251.734C547.221,-242.696 563.197,-228.274 576.462,-216.298"/>
<polygon fill="midnightblue" stroke="midnightblue" points="578.816,-218.888 583.894,-209.589 574.126,-213.692 578.816,-218.888"/>
</g>
<!-- Node9 -->
<g id="node9" class="node"><title>Node9</title>
<polygon fill="none" stroke="#bfbfbf" points="668.5,-185 668.5,-204 760.5,-204 760.5,-185 668.5,-185"/>
<text text-anchor="middle" x="714.5" y="-192" font-family="Helvetica,sans-Serif" font-size="10.00">Common/Timer.h</text>
</g>
<!-- Node7&#45;&gt;Node9 -->
<g id="edge8" class="edge"><title>Node7&#45;&gt;Node9</title>
<path fill="none" stroke="midnightblue" d="M552.332,-251.869C585.116,-240.473 643,-220.353 680.015,-207.487"/>
<polygon fill="midnightblue" stroke="midnightblue" points="681.566,-210.653 689.863,-204.064 679.268,-204.041 681.566,-210.653"/>
</g>
<!-- Node10 -->
<g id="node10" class="node"><title>Node10</title>
<polygon fill="none" stroke="#bfbfbf" points="778.5,-185 778.5,-204 876.5,-204 876.5,-185 778.5,-185"/>
<text text-anchor="middle" x="827.5" y="-192" font-family="Helvetica,sans-Serif" font-size="10.00">Framework/Task.h</text>
</g>
<!-- Node7&#45;&gt;Node10 -->
<g id="edge9" class="edge"><title>Node7&#45;&gt;Node10</title>
<path fill="none" stroke="midnightblue" d="M570.89,-251.979C619.407,-242.328 700.265,-225.872 769.5,-210 774.432,-208.869 779.589,-207.644 784.706,-206.4"/>
<polygon fill="midnightblue" stroke="midnightblue" points="785.555,-209.795 794.429,-204.006 783.882,-202.998 785.555,-209.795"/>
</g>
<!-- Node11 -->
<g id="node11" class="node"><title>Node11</title>
<polygon fill="none" stroke="#bfbfbf" points="895,-185 895,-204 1048,-204 1048,-185 895,-185"/>
<text text-anchor="middle" x="971.5" y="-192" font-family="Helvetica,sans-Serif" font-size="10.00">Framework/CompletionPolicy.h</text>
</g>
<!-- Node7&#45;&gt;Node11 -->
<g id="edge11" class="edge"><title>Node7&#45;&gt;Node11</title>
<path fill="none" stroke="midnightblue" d="M572.283,-251.971C583.744,-249.902 596.063,-247.776 607.5,-246 730.612,-226.884 762.273,-228.36 885.5,-210 894.408,-208.673 903.82,-207.179 913.02,-205.669"/>
<polygon fill="midnightblue" stroke="midnightblue" points="913.595,-209.121 922.887,-204.03 912.448,-202.216 913.595,-209.121"/>
</g>
<!-- Node12 -->
<g id="node12" class="node"><title>Node12</title>
<polygon fill="none" stroke="#bfbfbf" points="1066.5,-185 1066.5,-204 1236.5,-204 1236.5,-185 1066.5,-185"/>
<text text-anchor="middle" x="1151.5" y="-192" font-family="Helvetica,sans-Serif" font-size="10.00">Framework/EndOfStreamContext.h</text>
</g>
<!-- Node7&#45;&gt;Node12 -->
<g id="edge12" class="edge"><title>Node7&#45;&gt;Node12</title>
<path fill="none" stroke="midnightblue" d="M570.141,-251.962C582.183,-249.771 595.323,-247.588 607.5,-246 806.016,-220.116 857.643,-233.118 1056.5,-210 1067.29,-208.746 1078.73,-207.193 1089.79,-205.573"/>
<polygon fill="midnightblue" stroke="midnightblue" points="1090.45,-209.014 1099.82,-204.074 1089.41,-202.091 1090.45,-209.014"/>
</g>
<!-- Node13 -->
<g id="node13" class="node"><title>Node13</title>
<polygon fill="none" stroke="#bfbfbf" points="1255,-185 1255,-204 1372,-204 1372,-185 1255,-185"/>
<text text-anchor="middle" x="1313.5" y="-192" font-family="Helvetica,sans-Serif" font-size="10.00">Headers/DataHeader.h</text>
</g>
<!-- Node7&#45;&gt;Node13 -->
<g id="edge13" class="edge"><title>Node7&#45;&gt;Node13</title>
<path fill="none" stroke="midnightblue" d="M569.289,-251.925C581.554,-249.679 595.025,-247.477 607.5,-246 889.537,-212.611 964.01,-247.726 1245.5,-210 1252.99,-208.997 1260.88,-207.617 1268.53,-206.106"/>
<polygon fill="midnightblue" stroke="midnightblue" points="1269.3,-209.519 1278.39,-204.063 1267.88,-202.664 1269.3,-209.519"/>
</g>
<!-- Node14 -->
<g id="node14" class="node"><title>Node14</title>
<polygon fill="none" stroke="#bfbfbf" points="277,-123.5 277,-142.5 402,-142.5 402,-123.5 277,-123.5"/>
<text text-anchor="middle" x="339.5" y="-130.5" font-family="Helvetica,sans-Serif" font-size="10.00">Framework/InitContext.h</text>
</g>
<!-- Node7&#45;&gt;Node14 -->
<g id="edge14" class="edge"><title>Node7&#45;&gt;Node14</title>
<path fill="none" stroke="midnightblue" d="M461.171,-251.924C430.729,-245.008 396.036,-232.524 371.5,-210 354.976,-194.831 346.692,-169.762 342.751,-152.593"/>
<polygon fill="midnightblue" stroke="midnightblue" points="346.151,-151.746 340.746,-142.634 339.289,-153.129 346.151,-151.746"/>
</g>
<!-- Node15 -->
<g id="node15" class="node"><title>Node15</title>
<g id="a_node15"><a xlink:href="TaskConfig_8h.html" target="_top" xlink:title="QualityControl/TaskConfig.h">
<polygon fill="none" stroke="black" points="262.5,-62 262.5,-81 402.5,-81 402.5,-62 262.5,-62"/>
<text text-anchor="middle" x="332.5" y="-69" font-family="Helvetica,sans-Serif" font-size="10.00">QualityControl/TaskConfig.h</text>
</a>
</g>
</g>
<!-- Node7&#45;&gt;Node15 -->
<g id="edge15" class="edge"><title>Node7&#45;&gt;Node15</title>
<path fill="none" stroke="midnightblue" d="M476.39,-251.965C439.382,-244.412 388.962,-231.221 348.5,-210 327.813,-199.15 277.447,-164.136 267.5,-143 256.534,-119.699 282.553,-98.8166 304.865,-85.9374"/>
<polygon fill="midnightblue" stroke="midnightblue" points="306.663,-88.9431 313.769,-81.0843 303.314,-82.7967 306.663,-88.9431"/>
</g>
<!-- Node17 -->
<g id="node17" class="node"><title>Node17</title>
<g id="a_node17"><a xlink:href="TaskInterface_8h.html" target="_top" xlink:title="QualityControl/TaskInterface.h">
<polygon fill="none" stroke="black" points="380.5,-185 380.5,-204 530.5,-204 530.5,-185 380.5,-185"/>
<text text-anchor="middle" x="455.5" y="-192" font-family="Helvetica,sans-Serif" font-size="10.00">QualityControl/TaskInterface.h</text>
</a>
</g>
</g>
<!-- Node7&#45;&gt;Node17 -->
<g id="edge18" class="edge"><title>Node7&#45;&gt;Node17</title>
<path fill="none" stroke="midnightblue" d="M517.79,-251.734C506.238,-241.305 486.747,-223.709 472.64,-210.973"/>
<polygon fill="midnightblue" stroke="midnightblue" points="474.824,-208.23 465.056,-204.127 470.134,-213.426 474.824,-208.23"/>
</g>
<!-- Node15&#45;&gt;Node4 -->
<g id="edge16" class="edge"><title>Node15&#45;&gt;Node4</title>
<path fill="none" stroke="midnightblue" d="M331.067,-61.9751C329.656,-53.5803 327.455,-40.4806 325.637,-29.6631"/>
<polygon fill="midnightblue" stroke="midnightblue" points="329.039,-28.7906 323.93,-19.5091 322.136,-29.9509 329.039,-28.7906"/>
</g>
<!-- Node16 -->
<g id="node16" class="node"><title>Node16</title>
<polygon fill="none" stroke="#bfbfbf" points="361,-0.5 361,-19.5 444,-19.5 444,-0.5 361,-0.5"/>
<text text-anchor="middle" x="402.5" y="-7.5" font-family="Helvetica,sans-Serif" font-size="10.00">unordered_map</text>
</g>
<!-- Node15&#45;&gt;Node16 -->
<g id="edge17" class="edge"><title>Node15&#45;&gt;Node16</title>
<path fill="none" stroke="midnightblue" d="M342.529,-61.9751C353.549,-52.6082 371.46,-37.3839 384.843,-26.0081"/>
<polygon fill="midnightblue" stroke="midnightblue" points="387.137,-28.6524 392.489,-19.5091 382.603,-23.3188 387.137,-28.6524"/>
</g>
<!-- Node17&#45;&gt;Node4 -->
<g id="edge21" class="edge"><title>Node17&#45;&gt;Node4</title>
<path fill="none" stroke="midnightblue" d="M452.384,-184.549C446.622,-169.377 432.812,-138.729 410.5,-123 351.989,-81.752 298.107,-142.993 253.5,-87 244.915,-76.2238 246.938,-68.1145 253.5,-56 261.826,-40.6299 277.93,-29.6786 292.488,-22.4303"/>
<polygon fill="midnightblue" stroke="midnightblue" points="294.101,-25.5411 301.733,-18.1927 291.185,-19.1776 294.101,-25.5411"/>
</g>
<!-- Node17&#45;&gt;Node14 -->
<g id="edge23" class="edge"><title>Node17&#45;&gt;Node14</title>
<path fill="none" stroke="midnightblue" d="M438.88,-184.975C419.585,-175.078 387.541,-158.642 365.069,-147.115"/>
<polygon fill="midnightblue" stroke="midnightblue" points="366.584,-143.959 356.089,-142.509 363.39,-150.187 366.584,-143.959"/>
</g>
<!-- Node17&#45;&gt;Node16 -->
<g id="edge22" class="edge"><title>Node17&#45;&gt;Node16</title>
<path fill="none" stroke="midnightblue" d="M454.709,-184.7C453.37,-171.24 450.226,-144.806 444.5,-123 435.526,-88.8227 419.926,-50.5984 410.473,-28.8061"/>
<polygon fill="midnightblue" stroke="midnightblue" points="413.617,-27.2588 406.383,-19.5178 407.21,-30.0803 413.617,-27.2588"/>
</g>
<!-- Node18 -->
<g id="node18" class="node"><title>Node18</title>
<polygon fill="none" stroke="#bfbfbf" points="462,-0.5 462,-19.5 497,-19.5 497,-0.5 462,-0.5"/>
<text text-anchor="middle" x="479.5" y="-7.5" font-family="Helvetica,sans-Serif" font-size="10.00">map</text>
</g>
<!-- Node17&#45;&gt;Node18 -->
<g id="edge19" class="edge"><title>Node17&#45;&gt;Node18</title>
<path fill="none" stroke="midnightblue" d="M461.92,-184.749C468.571,-175.093 478.537,-158.816 482.5,-143 492.4,-103.487 487.11,-55.2263 482.948,-29.4015"/>
<polygon fill="midnightblue" stroke="midnightblue" points="486.39,-28.7638 481.228,-19.5117 479.494,-29.9636 486.39,-28.7638"/>
</g>
<!-- Node19 -->
<g id="node19" class="node"><title>Node19</title>
<polygon fill="none" stroke="#bfbfbf" points="865.5,-62 865.5,-81 917.5,-81 917.5,-62 865.5,-62"/>
<text text-anchor="middle" x="891.5" y="-69" font-family="Helvetica,sans-Serif" font-size="10.00">memory</text>
</g>
<!-- Node17&#45;&gt;Node19 -->
<g id="edge20" class="edge"><title>Node17&#45;&gt;Node19</title>
<path fill="none" stroke="midnightblue" d="M505.695,-184.995C567.437,-174.242 668.491,-155.615 704.5,-143 722.884,-136.559 725.501,-130.45 743.5,-123 791.811,-103.004 806.329,-104.779 855.5,-87 857.401,-86.3127 859.351,-85.5873 861.312,-84.8423"/>
<polygon fill="midnightblue" stroke="midnightblue" points="863,-87.9404 871.038,-81.038 860.45,-81.4213 863,-87.9404"/>
</g>
<!-- Node20 -->
<g id="node20" class="node"><title>Node20</title>
<polygon fill="none" stroke="#bfbfbf" points="752.5,-123.5 752.5,-142.5 912.5,-142.5 912.5,-123.5 752.5,-123.5"/>
<text text-anchor="middle" x="832.5" y="-130.5" font-family="Helvetica,sans-Serif" font-size="10.00">Framework/ProcessingContext.h</text>
</g>
<!-- Node17&#45;&gt;Node20 -->
<g id="edge24" class="edge"><title>Node17&#45;&gt;Node20</title>
<path fill="none" stroke="midnightblue" d="M503.891,-184.989C515.545,-182.983 527.961,-180.882 539.5,-179 616.685,-166.412 705.476,-152.913 764.898,-144.019"/>
<polygon fill="midnightblue" stroke="midnightblue" points="765.536,-147.463 774.908,-142.523 764.501,-140.54 765.536,-147.463"/>
</g>
<!-- Node21 -->
<g id="node21" class="node"><title>Node21</title>
<g id="a_node21"><a xlink:href="Activity_8h.html" target="_top" xlink:title="QualityControl/Activity.h">
<polygon fill="none" stroke="black" points="931,-123.5 931,-142.5 1054,-142.5 1054,-123.5 931,-123.5"/>
<text text-anchor="middle" x="992.5" y="-130.5" font-family="Helvetica,sans-Serif" font-size="10.00">QualityControl/Activity.h</text>
</a>
</g>
</g>
<!-- Node17&#45;&gt;Node21 -->
<g id="edge25" class="edge"><title>Node17&#45;&gt;Node21</title>
<path fill="none" stroke="midnightblue" d="M501.178,-184.958C513.582,-182.818 527.031,-180.661 539.5,-179 705.317,-156.908 750.3,-161.535 920.864,-143.03"/>
<polygon fill="midnightblue" stroke="midnightblue" points="921.382,-146.495 930.941,-141.926 920.619,-139.536 921.382,-146.495"/>
</g>
<!-- Node22 -->
<g id="node22" class="node"><title>Node22</title>
<g id="a_node22"><a xlink:href="ObjectsManager_8h.html" target="_top" xlink:title="QualityControl/ObjectsManager.h">
<polygon fill="none" stroke="black" points="535,-123.5 535,-142.5 696,-142.5 696,-123.5 535,-123.5"/>
<text text-anchor="middle" x="615.5" y="-130.5" font-family="Helvetica,sans-Serif" font-size="10.00">QualityControl/ObjectsManager.h</text>
</a>
</g>
</g>
<!-- Node17&#45;&gt;Node22 -->
<g id="edge26" class="edge"><title>Node17&#45;&gt;Node22</title>
<path fill="none" stroke="midnightblue" d="M478.424,-184.975C505.87,-174.769 552.016,-157.608 583.099,-146.049"/>
<polygon fill="midnightblue" stroke="midnightblue" points="584.465,-149.275 592.618,-142.509 582.026,-142.714 584.465,-149.275"/>
</g>
<!-- Node22&#45;&gt;Node4 -->
<g id="edge37" class="edge"><title>Node22&#45;&gt;Node4</title>
<path fill="none" stroke="midnightblue" d="M594.897,-123.492C544.042,-102.49 412.359,-48.1089 352.685,-23.4653"/>
<polygon fill="midnightblue" stroke="midnightblue" points="353.659,-20.0812 343.08,-19.4991 350.987,-26.5512 353.659,-20.0812"/>
</g>
<!-- Node22&#45;&gt;Node15 -->
<g id="edge36" class="edge"><title>Node22&#45;&gt;Node15</title>
<path fill="none" stroke="midnightblue" d="M574.953,-123.475C524.307,-112.827 437.658,-94.6092 382.824,-83.0806"/>
<polygon fill="midnightblue" stroke="midnightblue" points="383.478,-79.6415 372.972,-81.0091 382.038,-86.4918 383.478,-79.6415"/>
</g>
<!-- Node22&#45;&gt;Node19 -->
<g id="edge38" class="edge"><title>Node22&#45;&gt;Node19</title>
<path fill="none" stroke="midnightblue" d="M679.723,-123.485C728.527,-116.169 797.004,-104.082 855.5,-87 857.934,-86.2894 860.429,-85.4744 862.917,-84.6011"/>
<polygon fill="midnightblue" stroke="midnightblue" points="864.205,-87.856 872.317,-81.0414 861.726,-81.3096 864.205,-87.856"/>
</g>
<!-- Node23 -->
<g id="node23" class="node"><title>Node23</title>
<g id="a_node23"><a xlink:href="MonitorObject_8h.html" target="_top" xlink:title="QualityControl/MonitorObject.h">
<polygon fill="none" stroke="black" points="535,-62 535,-81 686,-81 686,-62 535,-62"/>
<text text-anchor="middle" x="610.5" y="-69" font-family="Helvetica,sans-Serif" font-size="10.00">QualityControl/MonitorObject.h</text>
</a>
</g>
</g>
<!-- Node22&#45;&gt;Node23 -->
<g id="edge27" class="edge"><title>Node22&#45;&gt;Node23</title>
<path fill="none" stroke="midnightblue" d="M614.784,-123.475C614.078,-115.08 612.977,-101.981 612.068,-91.1631"/>
<polygon fill="midnightblue" stroke="midnightblue" points="615.54,-90.6808 611.215,-81.0091 608.565,-91.2671 615.54,-90.6808"/>
</g>
<!-- Node27 -->
<g id="node27" class="node"><title>Node27</title>
<g id="a_node27"><a xlink:href="MonitorObjectCollection_8h.html" target="_top" xlink:title="QualityControl/MonitorObject\lCollection.h">
<polygon fill="none" stroke="black" points="704,-56.5 704,-86.5 847,-86.5 847,-56.5 704,-56.5"/>
<text text-anchor="start" x="712" y="-74.5" font-family="Helvetica,sans-Serif" font-size="10.00">QualityControl/MonitorObject</text>
<text text-anchor="middle" x="775.5" y="-63.5" font-family="Helvetica,sans-Serif" font-size="10.00">Collection.h</text>
</a>
</g>
</g>
<!-- Node22&#45;&gt;Node27 -->
<g id="edge33" class="edge"><title>Node22&#45;&gt;Node27</title>
<path fill="none" stroke="midnightblue" d="M638.424,-123.475C661.714,-114.814 698.47,-101.145 728.061,-90.1415"/>
<polygon fill="midnightblue" stroke="midnightblue" points="729.638,-93.2891 737.791,-86.523 727.198,-86.7281 729.638,-93.2891"/>
</g>
<!-- Node23&#45;&gt;Node4 -->
<g id="edge28" class="edge"><title>Node23&#45;&gt;Node4</title>
<path fill="none" stroke="midnightblue" d="M558.044,-61.9905C507.617,-53.4249 429.123,-39.0844 352.796,-20.1266"/>
<polygon fill="midnightblue" stroke="midnightblue" points="353.569,-16.7119 343.017,-17.6689 351.862,-23.5008 353.569,-16.7119"/>
</g>
<!-- Node23&#45;&gt;Node18 -->
<g id="edge29" class="edge"><title>Node23&#45;&gt;Node18</title>
<path fill="none" stroke="midnightblue" d="M591.731,-61.9751C569.398,-51.8315 531.941,-34.8188 506.499,-23.263"/>
<polygon fill="midnightblue" stroke="midnightblue" points="507.946,-20.0759 497.393,-19.1271 505.051,-26.4493 507.946,-20.0759"/>
</g>
<!-- Node24 -->
<g id="node24" class="node"><title>Node24</title>
<polygon fill="none" stroke="#bfbfbf" points="515.5,-0.5 515.5,-19.5 571.5,-19.5 571.5,-0.5 515.5,-0.5"/>
<text text-anchor="middle" x="543.5" y="-7.5" font-family="Helvetica,sans-Serif" font-size="10.00">Rtypes.h</text>
</g>
<!-- Node23&#45;&gt;Node24 -->
<g id="edge30" class="edge"><title>Node23&#45;&gt;Node24</title>
<path fill="none" stroke="midnightblue" d="M600.901,-61.9751C590.452,-52.6966 573.532,-37.6706 560.764,-26.331"/>
<polygon fill="midnightblue" stroke="midnightblue" points="562.883,-23.5323 553.082,-19.5091 558.235,-28.7663 562.883,-23.5323"/>
</g>
<!-- Node25 -->
<g id="node25" class="node"><title>Node25</title>
<polygon fill="none" stroke="#bfbfbf" points="590,-0.5 590,-19.5 649,-19.5 649,-0.5 590,-0.5"/>
<text text-anchor="middle" x="619.5" y="-7.5" font-family="Helvetica,sans-Serif" font-size="10.00">TObject.h</text>
</g>
<!-- Node23&#45;&gt;Node25 -->
<g id="edge31" class="edge"><title>Node23&#45;&gt;Node25</title>
<path fill="none" stroke="midnightblue" d="M611.789,-61.9751C613.059,-53.5803 615.041,-40.4806 616.677,-29.6631"/>
<polygon fill="midnightblue" stroke="midnightblue" points="620.178,-29.9201 618.213,-19.5091 613.257,-28.8731 620.178,-29.9201"/>
</g>
<!-- Node26 -->
<g id="node26" class="node"><title>Node26</title>
<polygon fill="none" stroke="#bfbfbf" points="667.5,-0.5 667.5,-19.5 783.5,-19.5 783.5,-0.5 667.5,-0.5"/>
<text text-anchor="middle" x="725.5" y="-7.5" font-family="Helvetica,sans-Serif" font-size="10.00">Common/Exceptions.h</text>
</g>
<!-- Node23&#45;&gt;Node26 -->
<g id="edge32" class="edge"><title>Node23&#45;&gt;Node26</title>
<path fill="none" stroke="midnightblue" d="M626.977,-61.9751C646.105,-52.078 677.873,-35.6416 700.152,-24.1151"/>
<polygon fill="midnightblue" stroke="midnightblue" points="701.781,-27.213 709.054,-19.5091 698.564,-20.9958 701.781,-27.213"/>
</g>
<!-- Node28 -->
<g id="node28" class="node"><title>Node28</title>
<polygon fill="none" stroke="#bfbfbf" points="802,-0.5 802,-19.5 871,-19.5 871,-0.5 802,-0.5"/>
<text text-anchor="middle" x="836.5" y="-7.5" font-family="Helvetica,sans-Serif" font-size="10.00">TObjArray.h</text>
</g>
<!-- Node27&#45;&gt;Node28 -->
<g id="edge34" class="edge"><title>Node27&#45;&gt;Node28</title>
<path fill="none" stroke="midnightblue" d="M789.956,-56.3993C799.094,-47.4859 810.919,-35.9523 820.362,-26.7408"/>
<polygon fill="midnightblue" stroke="midnightblue" points="822.909,-29.1458 827.624,-19.6578 818.022,-24.1348 822.909,-29.1458"/>
</g>
<!-- Node29 -->
<g id="node29" class="node"><title>Node29</title>
<polygon fill="none" stroke="#bfbfbf" points="889.5,-0.5 889.5,-19.5 1017.5,-19.5 1017.5,-0.5 889.5,-0.5"/>
<text text-anchor="middle" x="953.5" y="-7.5" font-family="Helvetica,sans-Serif" font-size="10.00">Mergers/MergeInterface.h</text>
</g>
<!-- Node27&#45;&gt;Node29 -->
<g id="edge35" class="edge"><title>Node27&#45;&gt;Node29</title>
<path fill="none" stroke="midnightblue" d="M817.684,-56.3993C848.307,-46.1627 889.27,-32.4703 918.175,-22.8082"/>
<polygon fill="midnightblue" stroke="midnightblue" points="919.485,-26.0607 927.859,-19.5709 917.265,-19.4218 919.485,-26.0607"/>
</g>
</g>
</svg>
        <g id="navigator" transform="translate(0 0)" fill="#404254">
                <rect fill="#f2f5e9" fill-opacity="0.5" stroke="#606060" stroke-width=".5" x="0" y="0" width="60" height="60"/>
                <use id="zoomplus" xlink:href="#zoomPlus" x="17" y="9" onmousedown="handleZoom(evt,'in')"/>
                <use id="zoomminus" xlink:href="#zoomMin" x="42" y="9" onmousedown="handleZoom(evt,'out')"/>
                <use id="reset" xlink:href="#resetDef" x="30" y="36" onmousedown="handleReset()"/>
                <g id="arrowUp" xlink:href="#dirArrow" transform="translate(30 24)" onmousedown="handlePan(0,-1)">
                  <use xlink:href="#rim" fill="#404040">
                        <set attributeName="fill" to="#808080" begin="arrowUp.mouseover" end="arrowUp.mouseout"/>
                  </use>
                  <path fill="none" stroke="white" stroke-width="1.5" d="M0,-3.0v7 M-2.5,-0.5L0,-3.0L2.5,-0.5"/>
                </g>
                <g id="arrowRight" xlink:href="#dirArrow" transform="rotate(90) translate(36 -43)" onmousedown="handlePan(1,0)">
                  <use xlink:href="#rim" fill="#404040">
                        <set attributeName="fill" to="#808080" begin="arrowRight.mouseover" end="arrowRight.mouseout"/>
                  </use>
                  <path fill="none" stroke="white" stroke-width="1.5" d="M0,-3.0v7 M-2.5,-0.5L0,-3.0L2.5,-0.5"/>
                </g>
                <g id="arrowDown" xlink:href="#dirArrow" transform="rotate(180) translate(-30 -48)" onmousedown="handlePan(0,1)">
                  <use xlink:href="#rim" fill="#404040">
                        <set attributeName="fill" to="#808080" begin="arrowDown.mouseover" end="arrowDown.mouseout"/>
                  </use>
                  <path fill="none" stroke="white" stroke-width="1.5" d="M0,-3.0v7 M-2.5,-0.5L0,-3.0L2.5,-0.5"/>
                </g>
                <g id="arrowLeft" xlink:href="#dirArrow" transform="rotate(270) translate(-36 17)" onmousedown="handlePan(-1,0)">
                  <use xlink:href="#rim" fill="#404040">
                        <set attributeName="fill" to="#808080" begin="arrowLeft.mouseover" end="arrowLeft.mouseout"/>
                  </use>
                  <path fill="none" stroke="white" stroke-width="1.5" d="M0,-3.0v7 M-2.5,-0.5L0,-3.0L2.5,-0.5"/>
                </g>
        </g>
        <svg viewBox="0 0 15 15" width="100%" height="30px" preserveAspectRatio="xMaxYMin meet">
         <g id="arrow_out" transform="scale(0.3 0.3)">
          <a xlink:href="testTaskRunner_8cxx__incl_org.svg" target="_base">
           <rect id="button" ry="5" rx="5" y="6" x="6" height="38" width="38"
                fill="#f2f5e9" fill-opacity="0.5" stroke="#606060" stroke-width="1.0"/>
           <path id="arrow"
             d="M 11.500037,31.436501 C 11.940474,20.09759 22.043105,11.32322 32.158766,21.979434 L 37.068811,17.246167 C 37.068811,17.246167 37.088388,32 37.088388,32 L 22.160133,31.978069 C 22.160133,31.978069 26.997745,27.140456 26.997745,27.140456 C 18.528582,18.264221 13.291696,25.230495 11.500037,31.436501 z"
             style="fill:#404040;"/>
          </a>
         </g>
        </svg>
</svg>
