<?xml version="1.0" encoding="UTF-8" standalone="no"?>
<!DOCTYPE svg PUBLIC "-//W3C//DTD SVG 1.1//EN"
 "http://www.w3.org/Graphics/SVG/1.1/DTD/svg11.dtd">
<!-- Generated by graphviz version 2.38.0 (20140413.2041)
 -->
<!-- Title: Framework/test/testTrendingTask.cxx Pages: 1 -->
<!--zoomable 363 -->
<svg id="main" version="1.1" xmlns="http://www.w3.org/2000/svg" xmlns:xlink="http://www.w3.org/1999/xlink" xml:space="preserve" onload="init(evt)">
<style type="text/css"><![CDATA[
.edge:hover path { stroke: red; }
.edge:hover polygon { stroke: red; fill: red; }
]]></style>
<script type="text/javascript"><![CDATA[
var edges = document.getElementsByTagName('g');
if (edges && edges.length) {
  for (var i=0;i<edges.length;i++) {
    if (edges[i].id.substr(0,4)=='edge') {
      edges[i].setAttribute('class','edge');
    }
  }
}
]]></script>
        <defs>
                <circle id="rim" cx="0" cy="0" r="7"/>
                <circle id="rim2" cx="0" cy="0" r="3.5"/>
                <g id="zoomPlus">
                        <use xlink:href="#rim" fill="#404040">
                                <set attributeName="fill" to="#808080" begin="zoomplus.mouseover" end="zoomplus.mouseout"/>
                        </use>
                        <path d="M-4,0h8M0,-4v8" fill="none" stroke="white" stroke-width="1.5" pointer-events="none"/>
                </g>
                <g id="zoomMin">
                        <use xlink:href="#rim" fill="#404040">
                                <set attributeName="fill" to="#808080" begin="zoomminus.mouseover" end="zoomminus.mouseout"/>
                        </use>
                        <path d="M-4,0h8" fill="none" stroke="white" stroke-width="1.5" pointer-events="none"/>
                </g>
                <g id="dirArrow">
                        <path fill="none" stroke="white" stroke-width="1.5" d="M0,-3.0v7 M-2.5,-0.5L0,-3.0L2.5,-0.5"/>
                </g>
               <g id="resetDef">
                       <use xlink:href="#rim2" fill="#404040">
                               <set attributeName="fill" to="#808080" begin="reset.mouseover" end="reset.mouseout"/>
                       </use>
               </g>
        </defs>

<script type="text/javascript">
var viewWidth = 1436;
var viewHeight = 363;
var sectionId = 'dynsection-0';
</script>
<script xlink:href="svgpan.js"/>
<svg id="graph" class="graph">
<g id="viewport">
<title>Framework/test/testTrendingTask.cxx</title>
<!-- Node1 -->
<g id="node1" class="node"><title>Node1</title>
<polygon fill="#bfbfbf" stroke="black" points="757.5,-324.5 757.5,-354.5 899.5,-354.5 899.5,-324.5 757.5,-324.5"/>
<text text-anchor="start" x="765.5" y="-342.5" font-family="Helvetica,sans-Serif" font-size="10.00">Framework/test/testTrending</text>
<text text-anchor="middle" x="828.5" y="-331.5" font-family="Helvetica,sans-Serif" font-size="10.00">Task.cxx</text>
</g>
<!-- Node2 -->
<g id="node2" class="node"><title>Node2</title>
<polygon fill="none" stroke="#bfbfbf" points="0,-263 0,-282 119,-282 119,-263 0,-263"/>
<text text-anchor="middle" x="59.5" y="-270" font-family="Helvetica,sans-Serif" font-size="10.00">getTestDataDirectory.h</text>
</g>
<!-- Node1&#45;&gt;Node2 -->
<g id="edge1" class="edge"><title>Node1&#45;&gt;Node2</title>
<path fill="none" stroke="midnightblue" d="M757.173,-336.165C630.942,-331.398 360.128,-318.324 133.5,-288 125.382,-286.914 116.812,-285.492 108.496,-283.965"/>
<polygon fill="midnightblue" stroke="midnightblue" points="109.005,-280.499 98.5262,-282.064 107.694,-287.375 109.005,-280.499"/>
</g>
<!-- Node3 -->
<g id="node3" class="node"><title>Node3</title>
<g id="a_node3"><a xlink:href="TrendingTask_8h.html" target="_top" xlink:title="QualityControl/TrendingTask.h">
<polygon fill="none" stroke="black" points="602,-201.5 602,-220.5 751,-220.5 751,-201.5 602,-201.5"/>
<text text-anchor="middle" x="676.5" y="-208.5" font-family="Helvetica,sans-Serif" font-size="10.00">QualityControl/TrendingTask.h</text>
</a>
</g>
</g>
<!-- Node1&#45;&gt;Node3 -->
<g id="edge2" class="edge"><title>Node1&#45;&gt;Node3</title>
<path fill="none" stroke="midnightblue" d="M796.261,-324.432C777.931,-315.534 755.181,-302.909 737.5,-288 717.173,-270.86 698.814,-246.123 687.668,-229.575"/>
<polygon fill="midnightblue" stroke="midnightblue" points="690.389,-227.341 681.978,-220.898 684.535,-231.18 690.389,-227.341"/>
</g>
<!-- Node6 -->
<g id="node6" class="node"><title>Node6</title>
<polygon fill="none" stroke="#bfbfbf" points="228.5,-73 228.5,-92 374.5,-92 374.5,-73 228.5,-73"/>
<text text-anchor="middle" x="301.5" y="-80" font-family="Helvetica,sans-Serif" font-size="10.00">Framework/ServiceRegistry.h</text>
</g>
<!-- Node1&#45;&gt;Node6 -->
<g id="edge46" class="edge"><title>Node1&#45;&gt;Node6</title>
<path fill="none" stroke="midnightblue" d="M757.294,-329.467C608.299,-308.95 271.851,-253.632 204.5,-165 196.164,-154.03 197.353,-145.779 204.5,-134 215.79,-115.393 236.419,-103.325 255.759,-95.6692"/>
<polygon fill="midnightblue" stroke="midnightblue" points="257.202,-98.8686 265.4,-92.1568 254.806,-92.2915 257.202,-98.8686"/>
</g>
<!-- Node8 -->
<g id="node8" class="node"><title>Node8</title>
<g id="a_node8"><a xlink:href="Triggers_8h.html" target="_top" xlink:title="QualityControl/Triggers.h">
<polygon fill="none" stroke="black" points="85,-73 85,-92 210,-92 210,-73 85,-73"/>
<text text-anchor="middle" x="147.5" y="-80" font-family="Helvetica,sans-Serif" font-size="10.00">QualityControl/Triggers.h</text>
</a>
</g>
</g>
<!-- Node1&#45;&gt;Node8 -->
<g id="edge45" class="edge"><title>Node1&#45;&gt;Node8</title>
<path fill="none" stroke="midnightblue" d="M757.19,-337.058C669.587,-333.746 517.135,-322.953 391.5,-288 322.328,-268.755 302.098,-263.867 244.5,-221 200.877,-188.534 169.408,-130.586 155.482,-101.377"/>
<polygon fill="midnightblue" stroke="midnightblue" points="158.528,-99.6245 151.155,-92.016 152.174,-102.562 158.528,-99.6245"/>
</g>
<!-- Node19 -->
<g id="node19" class="node"><title>Node19</title>
<g id="a_node19"><a xlink:href="DatabaseFactory_8h.html" target="_top" xlink:title="QualityControl/DatabaseFactory.h">
<polygon fill="none" stroke="black" points="746,-263 746,-282 911,-282 911,-263 746,-263"/>
<text text-anchor="middle" x="828.5" y="-270" font-family="Helvetica,sans-Serif" font-size="10.00">QualityControl/DatabaseFactory.h</text>
</a>
</g>
</g>
<!-- Node1&#45;&gt;Node19 -->
<g id="edge23" class="edge"><title>Node1&#45;&gt;Node19</title>
<path fill="none" stroke="midnightblue" d="M828.5,-324.396C828.5,-315.064 828.5,-302.714 828.5,-292.517"/>
<polygon fill="midnightblue" stroke="midnightblue" points="832,-292.195 828.5,-282.195 825,-292.195 832,-292.195"/>
</g>
<!-- Node26 -->
<g id="node26" class="node"><title>Node26</title>
<g id="a_node26"><a xlink:href="MonitorObject_8h.html" target="_top" xlink:title="QualityControl/MonitorObject.h">
<polygon fill="none" stroke="black" points="1221,-140 1221,-159 1372,-159 1372,-140 1221,-140"/>
<text text-anchor="middle" x="1296.5" y="-147" font-family="Helvetica,sans-Serif" font-size="10.00">QualityControl/MonitorObject.h</text>
</a>
</g>
</g>
<!-- Node1&#45;&gt;Node26 -->
<g id="edge44" class="edge"><title>Node1&#45;&gt;Node26</title>
<path fill="none" stroke="midnightblue" d="M859.049,-324.424C895.55,-307.75 958.583,-279.41 1013.5,-257 1102.77,-220.572 1209.61,-181.597 1262.87,-162.479"/>
<polygon fill="midnightblue" stroke="midnightblue" points="1264.24,-165.704 1272.47,-159.036 1261.88,-159.114 1264.24,-165.704"/>
</g>
<!-- Node27 -->
<g id="node27" class="node"><title>Node27</title>
<polygon fill="none" stroke="#bfbfbf" points="1022,-257.5 1022,-287.5 1157,-287.5 1157,-257.5 1022,-257.5"/>
<text text-anchor="start" x="1030" y="-275.5" font-family="Helvetica,sans-Serif" font-size="10.00">Configuration/Configuration</text>
<text text-anchor="middle" x="1089.5" y="-264.5" font-family="Helvetica,sans-Serif" font-size="10.00">Factory.h</text>
</g>
<!-- Node1&#45;&gt;Node27 -->
<g id="edge47" class="edge"><title>Node1&#45;&gt;Node27</title>
<path fill="none" stroke="midnightblue" d="M884.812,-324.476C925.408,-314.366 980.347,-300.684 1023.09,-290.04"/>
<polygon fill="midnightblue" stroke="midnightblue" points="1023.98,-293.424 1032.84,-287.611 1022.29,-286.631 1023.98,-293.424"/>
</g>
<!-- Node28 -->
<g id="node28" class="node"><title>Node28</title>
<polygon fill="none" stroke="#bfbfbf" points="1175,-263 1175,-282 1222,-282 1222,-263 1175,-263"/>
<text text-anchor="middle" x="1198.5" y="-270" font-family="Helvetica,sans-Serif" font-size="10.00">TH1I.h</text>
</g>
<!-- Node1&#45;&gt;Node28 -->
<g id="edge48" class="edge"><title>Node1&#45;&gt;Node28</title>
<path fill="none" stroke="midnightblue" d="M899.645,-333.626C968.909,-327.545 1076.59,-314.526 1166.5,-288 1168.43,-287.43 1170.4,-286.767 1172.35,-286.043"/>
<polygon fill="midnightblue" stroke="midnightblue" points="1174.01,-289.146 1181.9,-282.076 1171.32,-282.683 1174.01,-289.146"/>
</g>
<!-- Node29 -->
<g id="node29" class="node"><title>Node29</title>
<polygon fill="none" stroke="#bfbfbf" points="1240,-263 1240,-282 1359,-282 1359,-263 1240,-263"/>
<text text-anchor="middle" x="1299.5" y="-270" font-family="Helvetica,sans-Serif" font-size="10.00">boost/test/unit_test.hpp</text>
</g>
<!-- Node1&#45;&gt;Node29 -->
<g id="edge49" class="edge"><title>Node1&#45;&gt;Node29</title>
<path fill="none" stroke="midnightblue" d="M899.746,-331.432C980.492,-322.991 1115.91,-307.529 1231.5,-288 1238.22,-286.865 1245.28,-285.526 1252.2,-284.127"/>
<polygon fill="midnightblue" stroke="midnightblue" points="1253.12,-287.512 1262.2,-282.053 1251.7,-280.658 1253.12,-287.512"/>
</g>
<!-- Node4 -->
<g id="node4" class="node"><title>Node4</title>
<g id="a_node4"><a xlink:href="PostProcessingInterface_8h.html" target="_top" xlink:title="QualityControl/PostProcessing\lInterface.h">
<polygon fill="none" stroke="black" points="214,-134.5 214,-164.5 365,-164.5 365,-134.5 214,-134.5"/>
<text text-anchor="start" x="222" y="-152.5" font-family="Helvetica,sans-Serif" font-size="10.00">QualityControl/PostProcessing</text>
<text text-anchor="middle" x="289.5" y="-141.5" font-family="Helvetica,sans-Serif" font-size="10.00">Interface.h</text>
</a>
</g>
</g>
<!-- Node3&#45;&gt;Node4 -->
<g id="edge3" class="edge"><title>Node3&#45;&gt;Node4</title>
<path fill="none" stroke="midnightblue" d="M616.849,-201.49C558.092,-193.021 465.504,-179.449 375.177,-165.088"/>
<polygon fill="midnightblue" stroke="midnightblue" points="375.457,-161.588 365.03,-163.469 374.354,-168.501 375.457,-161.588"/>
</g>
<!-- Node11 -->
<g id="node11" class="node"><title>Node11</title>
<g id="a_node11"><a xlink:href="TrendingTaskConfig_8h.html" target="_top" xlink:title="QualityControl/TrendingTask\lConfig.h">
<polygon fill="none" stroke="black" points="452,-134.5 452,-164.5 593,-164.5 593,-134.5 452,-134.5"/>
<text text-anchor="start" x="460" y="-152.5" font-family="Helvetica,sans-Serif" font-size="10.00">QualityControl/TrendingTask</text>
<text text-anchor="middle" x="522.5" y="-141.5" font-family="Helvetica,sans-Serif" font-size="10.00">Config.h</text>
</a>
</g>
</g>
<!-- Node3&#45;&gt;Node11 -->
<g id="edge11" class="edge"><title>Node3&#45;&gt;Node11</title>
<path fill="none" stroke="midnightblue" d="M654.436,-201.475C632.019,-192.814 596.641,-179.145 568.16,-168.141"/>
<polygon fill="midnightblue" stroke="midnightblue" points="569.384,-164.862 558.795,-164.523 566.861,-171.392 569.384,-164.862"/>
</g>
<!-- Node14 -->
<g id="node14" class="node"><title>Node14</title>
<g id="a_node14"><a xlink:href="Reductor_8h.html" target="_top" xlink:title="QualityControl/Reductor.h">
<polygon fill="none" stroke="black" points="611.5,-140 611.5,-159 741.5,-159 741.5,-140 611.5,-140"/>
<text text-anchor="middle" x="676.5" y="-147" font-family="Helvetica,sans-Serif" font-size="10.00">QualityControl/Reductor.h</text>
</a>
</g>
</g>
<!-- Node3&#45;&gt;Node14 -->
<g id="edge18" class="edge"><title>Node3&#45;&gt;Node14</title>
<path fill="none" stroke="midnightblue" d="M676.5,-201.475C676.5,-193.08 676.5,-179.981 676.5,-169.163"/>
<polygon fill="midnightblue" stroke="midnightblue" points="680,-169.009 676.5,-159.009 673,-169.009 680,-169.009"/>
</g>
<!-- Node16 -->
<g id="node16" class="node"><title>Node16</title>
<polygon fill="none" stroke="#bfbfbf" points="759.5,-140 759.5,-159 811.5,-159 811.5,-140 759.5,-140"/>
<text text-anchor="middle" x="785.5" y="-147" font-family="Helvetica,sans-Serif" font-size="10.00">memory</text>
</g>
<!-- Node3&#45;&gt;Node16 -->
<g id="edge20" class="edge"><title>Node3&#45;&gt;Node16</title>
<path fill="none" stroke="midnightblue" d="M692.117,-201.475C710.086,-191.666 739.821,-175.435 760.906,-163.925"/>
<polygon fill="midnightblue" stroke="midnightblue" points="762.811,-166.873 769.912,-159.009 759.458,-160.728 762.811,-166.873"/>
</g>
<!-- Node17 -->
<g id="node17" class="node"><title>Node17</title>
<polygon fill="none" stroke="#bfbfbf" points="830,-140 830,-159 913,-159 913,-140 830,-140"/>
<text text-anchor="middle" x="871.5" y="-147" font-family="Helvetica,sans-Serif" font-size="10.00">unordered_map</text>
</g>
<!-- Node3&#45;&gt;Node17 -->
<g id="edge21" class="edge"><title>Node3&#45;&gt;Node17</title>
<path fill="none" stroke="midnightblue" d="M704.439,-201.475C738.467,-191.092 796.084,-173.512 833.962,-161.954"/>
<polygon fill="midnightblue" stroke="midnightblue" points="835.07,-165.275 843.613,-159.009 833.027,-158.58 835.07,-165.275"/>
</g>
<!-- Node18 -->
<g id="node18" class="node"><title>Node18</title>
<polygon fill="none" stroke="#bfbfbf" points="383.5,-140 383.5,-159 433.5,-159 433.5,-140 383.5,-140"/>
<text text-anchor="middle" x="408.5" y="-147" font-family="Helvetica,sans-Serif" font-size="10.00">TTree.h</text>
</g>
<!-- Node3&#45;&gt;Node18 -->
<g id="edge22" class="edge"><title>Node3&#45;&gt;Node18</title>
<path fill="none" stroke="midnightblue" d="M614.357,-201.496C566.939,-194.17 500.319,-182.065 443.5,-165 441.215,-164.314 438.874,-163.53 436.54,-162.692"/>
<polygon fill="midnightblue" stroke="midnightblue" points="437.726,-159.398 427.137,-159.038 435.19,-165.923 437.726,-159.398"/>
</g>
<!-- Node5 -->
<g id="node5" class="node"><title>Node5</title>
<polygon fill="none" stroke="#bfbfbf" points="686,-6 686,-25 727,-25 727,-6 686,-6"/>
<text text-anchor="middle" x="706.5" y="-13" font-family="Helvetica,sans-Serif" font-size="10.00">string</text>
</g>
<!-- Node4&#45;&gt;Node5 -->
<g id="edge4" class="edge"><title>Node4&#45;&gt;Node5</title>
<path fill="none" stroke="midnightblue" d="M365.037,-135.573C368.234,-135.039 371.398,-134.513 374.5,-134 474.416,-117.485 508.594,-142.633 599.5,-98 617.563,-89.1312 616.809,-79.5984 632.5,-67 649.072,-53.6944 669.035,-40.2056 684.049,-30.5198"/>
<polygon fill="midnightblue" stroke="midnightblue" points="686.131,-33.3429 692.682,-25.0161 682.368,-27.4402 686.131,-33.3429"/>
</g>
<!-- Node4&#45;&gt;Node6 -->
<g id="edge5" class="edge"><title>Node4&#45;&gt;Node6</title>
<path fill="none" stroke="midnightblue" d="M292.104,-134.396C293.845,-124.963 296.156,-112.448 298.05,-102.189"/>
<polygon fill="midnightblue" stroke="midnightblue" points="301.521,-102.664 299.895,-92.1945 294.637,-101.393 301.521,-102.664"/>
</g>
<!-- Node7 -->
<g id="node7" class="node"><title>Node7</title>
<polygon fill="none" stroke="#bfbfbf" points="410,-0.5 410,-30.5 511,-30.5 511,-0.5 410,-0.5"/>
<text text-anchor="start" x="418" y="-18.5" font-family="Helvetica,sans-Serif" font-size="10.00">boost/property_tree</text>
<text text-anchor="middle" x="460.5" y="-7.5" font-family="Helvetica,sans-Serif" font-size="10.00">/ptree_fwd.hpp</text>
</g>
<!-- Node4&#45;&gt;Node7 -->
<g id="edge6" class="edge"><title>Node4&#45;&gt;Node7</title>
<path fill="none" stroke="midnightblue" d="M321.501,-134.481C340.436,-125.433 364.377,-112.64 383.5,-98 406.213,-80.6115 428.223,-56.3306 442.852,-38.8001"/>
<polygon fill="midnightblue" stroke="midnightblue" points="445.78,-40.7492 449.412,-30.7962 440.366,-36.3121 445.78,-40.7492"/>
</g>
<!-- Node4&#45;&gt;Node8 -->
<g id="edge7" class="edge"><title>Node4&#45;&gt;Node8</title>
<path fill="none" stroke="midnightblue" d="M258.688,-134.396C233.883,-123.041 199.319,-107.22 175.34,-96.2437"/>
<polygon fill="midnightblue" stroke="midnightblue" points="176.634,-92.9868 166.085,-92.007 173.72,-99.3516 176.634,-92.9868"/>
</g>
<!-- Node8&#45;&gt;Node5 -->
<g id="edge8" class="edge"><title>Node8&#45;&gt;Node5</title>
<path fill="none" stroke="midnightblue" d="M185.468,-72.9661C196.406,-70.7491 208.387,-68.551 219.5,-67 421.285,-38.8375 479.841,-84.2472 676.5,-31 678.426,-30.4784 680.378,-29.8341 682.314,-29.1095"/>
<polygon fill="midnightblue" stroke="midnightblue" points="683.907,-32.2329 691.663,-25.0155 681.099,-25.8207 683.907,-32.2329"/>
</g>
<!-- Node9 -->
<g id="node9" class="node"><title>Node9</title>
<polygon fill="none" stroke="#bfbfbf" points="83,-6 83,-25 142,-25 142,-6 83,-6"/>
<text text-anchor="middle" x="112.5" y="-13" font-family="Helvetica,sans-Serif" font-size="10.00">functional</text>
</g>
<!-- Node8&#45;&gt;Node9 -->
<g id="edge9" class="edge"><title>Node8&#45;&gt;Node9</title>
<path fill="none" stroke="midnightblue" d="M142.78,-72.7338C137.479,-62.8903 128.74,-46.6598 122.009,-34.1594"/>
<polygon fill="midnightblue" stroke="midnightblue" points="124.968,-32.2727 117.145,-25.1273 118.805,-35.5914 124.968,-32.2727"/>
</g>
<!-- Node10 -->
<g id="node10" class="node"><title>Node10</title>
<polygon fill="none" stroke="#bfbfbf" points="160,-6 160,-25 205,-25 205,-6 160,-6"/>
<text text-anchor="middle" x="182.5" y="-13" font-family="Helvetica,sans-Serif" font-size="10.00">iosfwd</text>
</g>
<!-- Node8&#45;&gt;Node10 -->
<g id="edge10" class="edge"><title>Node8&#45;&gt;Node10</title>
<path fill="none" stroke="midnightblue" d="M152.22,-72.7338C157.521,-62.8903 166.26,-46.6598 172.991,-34.1594"/>
<polygon fill="midnightblue" stroke="midnightblue" points="176.195,-35.5914 177.855,-25.1273 170.032,-32.2727 176.195,-35.5914"/>
</g>
<!-- Node11&#45;&gt;Node5 -->
<g id="edge13" class="edge"><title>Node11&#45;&gt;Node5</title>
<path fill="none" stroke="midnightblue" d="M557.596,-134.497C578.031,-125.539 603.769,-112.832 624.5,-98 651.434,-78.7295 677.713,-50.4431 692.992,-32.7682"/>
<polygon fill="midnightblue" stroke="midnightblue" points="695.759,-34.9177 699.564,-25.0299 690.423,-30.3865 695.759,-34.9177"/>
</g>
<!-- Node12 -->
<g id="node12" class="node"><title>Node12</title>
<polygon fill="none" stroke="#bfbfbf" points="623.5,-6 623.5,-25 667.5,-25 667.5,-6 623.5,-6"/>
<text text-anchor="middle" x="645.5" y="-13" font-family="Helvetica,sans-Serif" font-size="10.00">vector</text>
</g>
<!-- Node11&#45;&gt;Node12 -->
<g id="edge12" class="edge"><title>Node11&#45;&gt;Node12</title>
<path fill="none" stroke="midnightblue" d="M550.515,-134.458C566.271,-125.568 585.521,-112.943 599.5,-98 617.057,-79.2329 630.479,-52.5441 638.173,-34.8868"/>
<polygon fill="midnightblue" stroke="midnightblue" points="641.589,-35.7881 642.21,-25.2114 635.129,-33.0929 641.589,-35.7881"/>
</g>
<!-- Node13 -->
<g id="node13" class="node"><title>Node13</title>
<g id="a_node13"><a xlink:href="PostProcessingConfig_8h.html" target="_top" xlink:title="QualityControl/PostProcessing\lConfig.h">
<polygon fill="none" stroke="black" points="439,-67.5 439,-97.5 590,-97.5 590,-67.5 439,-67.5"/>
<text text-anchor="start" x="447" y="-85.5" font-family="Helvetica,sans-Serif" font-size="10.00">QualityControl/PostProcessing</text>
<text text-anchor="middle" x="514.5" y="-74.5" font-family="Helvetica,sans-Serif" font-size="10.00">Config.h</text>
</a>
</g>
</g>
<!-- Node11&#45;&gt;Node13 -->
<g id="edge14" class="edge"><title>Node11&#45;&gt;Node13</title>
<path fill="none" stroke="midnightblue" d="M520.764,-134.396C519.8,-126.56 518.573,-116.596 517.462,-107.565"/>
<polygon fill="midnightblue" stroke="midnightblue" points="520.928,-107.074 516.232,-97.5765 513.98,-107.929 520.928,-107.074"/>
</g>
<!-- Node13&#45;&gt;Node5 -->
<g id="edge16" class="edge"><title>Node13&#45;&gt;Node5</title>
<path fill="none" stroke="midnightblue" d="M566.248,-67.4891C598.392,-58.2667 640.333,-45.2868 676.5,-31 677.879,-30.4554 679.282,-29.8745 680.691,-29.2701"/>
<polygon fill="midnightblue" stroke="midnightblue" points="682.235,-32.413 689.877,-25.0747 679.326,-26.0457 682.235,-32.413"/>
</g>
<!-- Node13&#45;&gt;Node7 -->
<g id="edge17" class="edge"><title>Node13&#45;&gt;Node7</title>
<path fill="none" stroke="midnightblue" d="M502.783,-67.396C495.777,-58.9634 486.725,-48.0673 478.795,-38.5216"/>
<polygon fill="midnightblue" stroke="midnightblue" points="481.277,-36.0319 472.194,-30.5765 475.892,-40.505 481.277,-36.0319"/>
</g>
<!-- Node13&#45;&gt;Node12 -->
<g id="edge15" class="edge"><title>Node13&#45;&gt;Node12</title>
<path fill="none" stroke="midnightblue" d="M542.925,-67.396C565.605,-56.1424 597.129,-40.501 619.224,-29.5375"/>
<polygon fill="midnightblue" stroke="midnightblue" points="620.953,-32.5871 628.355,-25.007 617.842,-26.3165 620.953,-32.5871"/>
</g>
<!-- Node15 -->
<g id="node15" class="node"><title>Node15</title>
<polygon fill="none" stroke="#bfbfbf" points="1111,-73 1111,-92 1170,-92 1170,-73 1111,-73"/>
<text text-anchor="middle" x="1140.5" y="-80" font-family="Helvetica,sans-Serif" font-size="10.00">TObject.h</text>
</g>
<!-- Node14&#45;&gt;Node15 -->
<g id="edge19" class="edge"><title>Node14&#45;&gt;Node15</title>
<path fill="none" stroke="midnightblue" d="M716.71,-139.926C727.638,-137.786 739.493,-135.638 750.5,-134 906.048,-110.856 949.497,-134.345 1102.5,-98 1105.49,-97.2886 1108.57,-96.399 1111.62,-95.4125"/>
<polygon fill="midnightblue" stroke="midnightblue" points="1112.85,-98.6897 1121.09,-92.031 1110.49,-92.0973 1112.85,-98.6897"/>
</g>
<!-- Node19&#45;&gt;Node16 -->
<g id="edge24" class="edge"><title>Node19&#45;&gt;Node16</title>
<path fill="none" stroke="midnightblue" d="M822.713,-262.943C816.373,-253.193 806.33,-236.586 800.5,-221 794.204,-204.168 790.251,-184.035 787.994,-169.601"/>
<polygon fill="midnightblue" stroke="midnightblue" points="791.418,-168.822 786.535,-159.42 784.489,-169.815 791.418,-168.822"/>
</g>
<!-- Node20 -->
<g id="node20" class="node"><title>Node20</title>
<g id="a_node20"><a xlink:href="DatabaseInterface_8h.html" target="_top" xlink:title="QualityControl/DatabaseInterface.h">
<polygon fill="none" stroke="black" points="809.5,-201.5 809.5,-220.5 979.5,-220.5 979.5,-201.5 809.5,-201.5"/>
<text text-anchor="middle" x="894.5" y="-208.5" font-family="Helvetica,sans-Serif" font-size="10.00">QualityControl/DatabaseInterface.h</text>
</a>
</g>
</g>
<!-- Node19&#45;&gt;Node20 -->
<g id="edge25" class="edge"><title>Node19&#45;&gt;Node20</title>
<path fill="none" stroke="midnightblue" d="M837.956,-262.975C848.248,-253.697 864.916,-238.671 877.494,-227.331"/>
<polygon fill="midnightblue" stroke="midnightblue" points="879.978,-229.805 885.061,-220.509 875.29,-224.605 879.978,-229.805"/>
</g>
<!-- Node20&#45;&gt;Node5 -->
<g id="edge26" class="edge"><title>Node20&#45;&gt;Node5</title>
<path fill="none" stroke="midnightblue" d="M914.406,-201.41C928.725,-194.04 946.958,-181.916 955.5,-165 976.415,-123.58 956.291,-95.2757 919.5,-67 865.216,-25.2803 781.856,-17.2696 737.222,-16.1852"/>
<polygon fill="midnightblue" stroke="midnightblue" points="737.057,-12.6827 727.009,-16.0432 736.959,-19.682 737.057,-12.6827"/>
</g>
<!-- Node20&#45;&gt;Node12 -->
<g id="edge28" class="edge"><title>Node20&#45;&gt;Node12</title>
<path fill="none" stroke="midnightblue" d="M902.474,-201.423C915.171,-186.685 937.129,-156.019 922.5,-134 857.135,-35.6138 785.75,-78.2693 677.5,-31 676.138,-30.4051 674.744,-29.7919 673.339,-29.1695"/>
<polygon fill="midnightblue" stroke="midnightblue" points="674.632,-25.9137 664.075,-25.0207 671.771,-32.3023 674.632,-25.9137"/>
</g>
<!-- Node20&#45;&gt;Node16 -->
<g id="edge27" class="edge"><title>Node20&#45;&gt;Node16</title>
<path fill="none" stroke="midnightblue" d="M878.883,-201.475C860.914,-191.666 831.179,-175.435 810.094,-163.925"/>
<polygon fill="midnightblue" stroke="midnightblue" points="811.542,-160.728 801.088,-159.009 808.189,-166.873 811.542,-160.728"/>
</g>
<!-- Node20&#45;&gt;Node17 -->
<g id="edge29" class="edge"><title>Node20&#45;&gt;Node17</title>
<path fill="none" stroke="midnightblue" d="M891.205,-201.475C887.891,-192.904 882.682,-179.427 878.451,-168.483"/>
<polygon fill="midnightblue" stroke="midnightblue" points="881.659,-167.075 874.789,-159.009 875.13,-169.598 881.659,-167.075"/>
</g>
<!-- Node21 -->
<g id="node21" class="node"><title>Node21</title>
<g id="a_node21"><a xlink:href="QualityObject_8h_source.html" target="_top" xlink:title="QualityControl/QualityObject.h">
<polygon fill="none" stroke="black" points="1054,-140 1054,-159 1203,-159 1203,-140 1054,-140"/>
<text text-anchor="middle" x="1128.5" y="-147" font-family="Helvetica,sans-Serif" font-size="10.00">QualityControl/QualityObject.h</text>
</a>
</g>
</g>
<!-- Node20&#45;&gt;Node21 -->
<g id="edge30" class="edge"><title>Node20&#45;&gt;Node21</title>
<path fill="none" stroke="midnightblue" d="M928.026,-201.475C969.382,-190.959 1039.77,-173.062 1085.18,-161.514"/>
<polygon fill="midnightblue" stroke="midnightblue" points="1086.21,-164.866 1095.04,-159.009 1084.48,-158.081 1086.21,-164.866"/>
</g>
<!-- Node20&#45;&gt;Node26 -->
<g id="edge38" class="edge"><title>Node20&#45;&gt;Node26</title>
<path fill="none" stroke="midnightblue" d="M958.842,-201.478C1023.14,-192.825 1124.78,-178.774 1212.5,-165 1220.91,-163.68 1229.77,-162.221 1238.47,-160.753"/>
<polygon fill="midnightblue" stroke="midnightblue" points="1239.3,-164.163 1248.57,-159.033 1238.12,-157.263 1239.3,-164.163"/>
</g>
<!-- Node21&#45;&gt;Node15 -->
<g id="edge32" class="edge"><title>Node21&#45;&gt;Node15</title>
<path fill="none" stroke="midnightblue" d="M1130.12,-139.734C1131.88,-130.183 1134.76,-114.618 1137.03,-102.283"/>
<polygon fill="midnightblue" stroke="midnightblue" points="1140.53,-102.597 1138.91,-92.1273 1133.65,-101.326 1140.53,-102.597"/>
</g>
<!-- Node22 -->
<g id="node22" class="node"><title>Node22</title>
<polygon fill="none" stroke="#bfbfbf" points="1181,-6 1181,-25 1216,-25 1216,-6 1181,-6"/>
<text text-anchor="middle" x="1198.5" y="-13" font-family="Helvetica,sans-Serif" font-size="10.00">map</text>
</g>
<!-- Node21&#45;&gt;Node22 -->
<g id="edge31" class="edge"><title>Node21&#45;&gt;Node22</title>
<path fill="none" stroke="midnightblue" d="M1140.53,-139.863C1152.28,-130.779 1169.77,-115.403 1179.5,-98 1190.44,-78.422 1195.1,-52.8193 1197.07,-35.5774"/>
<polygon fill="midnightblue" stroke="midnightblue" points="1200.6,-35.437 1198.05,-25.1533 1193.63,-34.7817 1200.6,-35.437"/>
</g>
<!-- Node23 -->
<g id="node23" class="node"><title>Node23</title>
<polygon fill="none" stroke="#bfbfbf" points="1226.5,-73 1226.5,-92 1342.5,-92 1342.5,-73 1226.5,-73"/>
<text text-anchor="middle" x="1284.5" y="-80" font-family="Helvetica,sans-Serif" font-size="10.00">Common/Exceptions.h</text>
</g>
<!-- Node21&#45;&gt;Node23 -->
<g id="edge33" class="edge"><title>Node21&#45;&gt;Node23</title>
<path fill="none" stroke="midnightblue" d="M1149.22,-139.869C1176.14,-128.65 1223.36,-108.977 1254.28,-96.0925"/>
<polygon fill="midnightblue" stroke="midnightblue" points="1255.81,-99.2442 1263.7,-92.1672 1253.12,-92.7826 1255.81,-99.2442"/>
</g>
<!-- Node24 -->
<g id="node24" class="node"><title>Node24</title>
<g id="a_node24"><a xlink:href="Quality_8h.html" target="_top" xlink:title="QualityControl/Quality.h">
<polygon fill="none" stroke="black" points="972,-73 972,-92 1093,-92 1093,-73 972,-73"/>
<text text-anchor="middle" x="1032.5" y="-80" font-family="Helvetica,sans-Serif" font-size="10.00">QualityControl/Quality.h</text>
</a>
</g>
</g>
<!-- Node21&#45;&gt;Node24 -->
<g id="edge34" class="edge"><title>Node21&#45;&gt;Node24</title>
<path fill="none" stroke="midnightblue" d="M1115.55,-139.734C1099.65,-128.964 1072.45,-110.55 1053.53,-97.7395"/>
<polygon fill="midnightblue" stroke="midnightblue" points="1055.48,-94.8357 1045.24,-92.1273 1051.56,-100.632 1055.48,-94.8357"/>
</g>
<!-- Node24&#45;&gt;Node5 -->
<g id="edge36" class="edge"><title>Node24&#45;&gt;Node5</title>
<path fill="none" stroke="midnightblue" d="M989.546,-72.9355C922.812,-59.6297 795.838,-34.3127 737.374,-22.6558"/>
<polygon fill="midnightblue" stroke="midnightblue" points="737.776,-19.1672 727.285,-20.6442 736.407,-26.0321 737.776,-19.1672"/>
</g>
<!-- Node24&#45;&gt;Node22 -->
<g id="edge37" class="edge"><title>Node24&#45;&gt;Node22</title>
<path fill="none" stroke="midnightblue" d="M1054.54,-72.8685C1084.76,-61.0385 1138.98,-39.8052 1171.56,-27.0472"/>
<polygon fill="midnightblue" stroke="midnightblue" points="1172.89,-30.285 1180.93,-23.3797 1170.34,-23.7668 1172.89,-30.285"/>
</g>
<!-- Node25 -->
<g id="node25" class="node"><title>Node25</title>
<polygon fill="none" stroke="#bfbfbf" points="1326.5,-6 1326.5,-25 1382.5,-25 1382.5,-6 1326.5,-6"/>
<text text-anchor="middle" x="1354.5" y="-13" font-family="Helvetica,sans-Serif" font-size="10.00">Rtypes.h</text>
</g>
<!-- Node24&#45;&gt;Node25 -->
<g id="edge35" class="edge"><title>Node24&#45;&gt;Node25</title>
<path fill="none" stroke="midnightblue" d="M1073.58,-72.9449C1083.07,-70.9801 1093.14,-68.9081 1102.5,-67 1178.22,-51.5712 1266.82,-33.9065 1316.22,-24.0918"/>
<polygon fill="midnightblue" stroke="midnightblue" points="1317.02,-27.5012 1326.14,-22.1203 1315.65,-20.6353 1317.02,-27.5012"/>
</g>
<!-- Node26&#45;&gt;Node5 -->
<g id="edge39" class="edge"><title>Node26&#45;&gt;Node5</title>
<path fill="none" stroke="midnightblue" d="M1309.97,-139.79C1332.56,-124.171 1373.52,-90.8116 1351.5,-67 1309.4,-21.4721 859.962,-16.9131 737.284,-16.5197"/>
<polygon fill="midnightblue" stroke="midnightblue" points="737.098,-13.0193 727.09,-16.4944 737.081,-20.0193 737.098,-13.0193"/>
</g>
<!-- Node26&#45;&gt;Node15 -->
<g id="edge42" class="edge"><title>Node26&#45;&gt;Node15</title>
<path fill="none" stroke="midnightblue" d="M1275.78,-139.869C1248.86,-128.65 1201.64,-108.977 1170.72,-96.0925"/>
<polygon fill="midnightblue" stroke="midnightblue" points="1171.88,-92.7826 1161.3,-92.1672 1169.19,-99.2442 1171.88,-92.7826"/>
</g>
<!-- Node26&#45;&gt;Node22 -->
<g id="edge40" class="edge"><title>Node26&#45;&gt;Node22</title>
<path fill="none" stroke="midnightblue" d="M1326.72,-139.935C1346.98,-132.443 1372.14,-119.341 1384.5,-98 1391.4,-86.0771 1392.87,-77.9445 1384.5,-67 1365.31,-41.9094 1273.27,-26.3607 1226.26,-19.9262"/>
<polygon fill="midnightblue" stroke="midnightblue" points="1226.52,-16.4306 1216.15,-18.5882 1225.6,-23.3701 1226.52,-16.4306"/>
</g>
<!-- Node26&#45;&gt;Node23 -->
<g id="edge43" class="edge"><title>Node26&#45;&gt;Node23</title>
<path fill="none" stroke="midnightblue" d="M1294.88,-139.734C1293.12,-130.183 1290.24,-114.618 1287.97,-102.283"/>
<polygon fill="midnightblue" stroke="midnightblue" points="1291.35,-101.326 1286.09,-92.1273 1284.47,-102.597 1291.35,-101.326"/>
</g>
<!-- Node26&#45;&gt;Node25 -->
<g id="edge41" class="edge"><title>Node26&#45;&gt;Node25</title>
<path fill="none" stroke="midnightblue" d="M1354.92,-139.935C1380.11,-133.026 1407.25,-120.545 1422.5,-98 1430.22,-86.5884 1428.69,-79.3086 1422.5,-67 1414.32,-50.7276 1398.13,-38.3793 1383.61,-29.9673"/>
<polygon fill="midnightblue" stroke="midnightblue" points="1384.86,-26.6693 1374.4,-25.0062 1381.54,-32.8314 1384.86,-26.6693"/>
</g>
</g>
</svg>
        <g id="navigator" transform="translate(0 0)" fill="#404254">
                <rect fill="#f2f5e9" fill-opacity="0.5" stroke="#606060" stroke-width=".5" x="0" y="0" width="60" height="60"/>
                <use id="zoomplus" xlink:href="#zoomPlus" x="17" y="9" onmousedown="handleZoom(evt,'in')"/>
                <use id="zoomminus" xlink:href="#zoomMin" x="42" y="9" onmousedown="handleZoom(evt,'out')"/>
                <use id="reset" xlink:href="#resetDef" x="30" y="36" onmousedown="handleReset()"/>
                <g id="arrowUp" xlink:href="#dirArrow" transform="translate(30 24)" onmousedown="handlePan(0,-1)">
                  <use xlink:href="#rim" fill="#404040">
                        <set attributeName="fill" to="#808080" begin="arrowUp.mouseover" end="arrowUp.mouseout"/>
                  </use>
                  <path fill="none" stroke="white" stroke-width="1.5" d="M0,-3.0v7 M-2.5,-0.5L0,-3.0L2.5,-0.5"/>
                </g>
                <g id="arrowRight" xlink:href="#dirArrow" transform="rotate(90) translate(36 -43)" onmousedown="handlePan(1,0)">
                  <use xlink:href="#rim" fill="#404040">
                        <set attributeName="fill" to="#808080" begin="arrowRight.mouseover" end="arrowRight.mouseout"/>
                  </use>
                  <path fill="none" stroke="white" stroke-width="1.5" d="M0,-3.0v7 M-2.5,-0.5L0,-3.0L2.5,-0.5"/>
                </g>
                <g id="arrowDown" xlink:href="#dirArrow" transform="rotate(180) translate(-30 -48)" onmousedown="handlePan(0,1)">
                  <use xlink:href="#rim" fill="#404040">
                        <set attributeName="fill" to="#808080" begin="arrowDown.mouseover" end="arrowDown.mouseout"/>
                  </use>
                  <path fill="none" stroke="white" stroke-width="1.5" d="M0,-3.0v7 M-2.5,-0.5L0,-3.0L2.5,-0.5"/>
                </g>
                <g id="arrowLeft" xlink:href="#dirArrow" transform="rotate(270) translate(-36 17)" onmousedown="handlePan(-1,0)">
                  <use xlink:href="#rim" fill="#404040">
                        <set attributeName="fill" to="#808080" begin="arrowLeft.mouseover" end="arrowLeft.mouseout"/>
                  </use>
                  <path fill="none" stroke="white" stroke-width="1.5" d="M0,-3.0v7 M-2.5,-0.5L0,-3.0L2.5,-0.5"/>
                </g>
        </g>
        <svg viewBox="0 0 15 15" width="100%" height="30px" preserveAspectRatio="xMaxYMin meet">
         <g id="arrow_out" transform="scale(0.3 0.3)">
          <a xlink:href="testTrendingTask_8cxx__incl_org.svg" target="_base">
           <rect id="button" ry="5" rx="5" y="6" x="6" height="38" width="38"
                fill="#f2f5e9" fill-opacity="0.5" stroke="#606060" stroke-width="1.0"/>
           <path id="arrow"
             d="M 11.500037,31.436501 C 11.940474,20.09759 22.043105,11.32322 32.158766,21.979434 L 37.068811,17.246167 C 37.068811,17.246167 37.088388,32 37.088388,32 L 22.160133,31.978069 C 22.160133,31.978069 26.997745,27.140456 26.997745,27.140456 C 18.528582,18.264221 13.291696,25.230495 11.500037,31.436501 z"
             style="fill:#404040;"/>
          </a>
         </g>
        </svg>
</svg>
