<?xml version="1.0" encoding="UTF-8" standalone="no"?>
<!DOCTYPE svg PUBLIC "-//W3C//DTD SVG 1.1//EN"
 "http://www.w3.org/Graphics/SVG/1.1/DTD/svg11.dtd">
<!-- Generated by graphviz version 2.38.0 (20140413.2041)
 -->
<!-- Title: Framework/test/testDbFactory.cxx Pages: 1 -->
<!--zoomable 308 -->
<svg id="main" version="1.1" xmlns="http://www.w3.org/2000/svg" xmlns:xlink="http://www.w3.org/1999/xlink" xml:space="preserve" onload="init(evt)">
<style type="text/css"><![CDATA[
.edge:hover path { stroke: red; }
.edge:hover polygon { stroke: red; fill: red; }
]]></style>
<script type="text/javascript"><![CDATA[
var edges = document.getElementsByTagName('g');
if (edges && edges.length) {
  for (var i=0;i<edges.length;i++) {
    if (edges[i].id.substr(0,4)=='edge') {
      edges[i].setAttribute('class','edge');
    }
  }
}
]]></script>
        <defs>
                <circle id="rim" cx="0" cy="0" r="7"/>
                <circle id="rim2" cx="0" cy="0" r="3.5"/>
                <g id="zoomPlus">
                        <use xlink:href="#rim" fill="#404040">
                                <set attributeName="fill" to="#808080" begin="zoomplus.mouseover" end="zoomplus.mouseout"/>
                        </use>
                        <path d="M-4,0h8M0,-4v8" fill="none" stroke="white" stroke-width="1.5" pointer-events="none"/>
                </g>
                <g id="zoomMin">
                        <use xlink:href="#rim" fill="#404040">
                                <set attributeName="fill" to="#808080" begin="zoomminus.mouseover" end="zoomminus.mouseout"/>
                        </use>
                        <path d="M-4,0h8" fill="none" stroke="white" stroke-width="1.5" pointer-events="none"/>
                </g>
                <g id="dirArrow">
                        <path fill="none" stroke="white" stroke-width="1.5" d="M0,-3.0v7 M-2.5,-0.5L0,-3.0L2.5,-0.5"/>
                </g>
               <g id="resetDef">
                       <use xlink:href="#rim2" fill="#404040">
                               <set attributeName="fill" to="#808080" begin="reset.mouseover" end="reset.mouseout"/>
                       </use>
               </g>
        </defs>

<script type="text/javascript">
var viewWidth = 1125;
var viewHeight = 308;
var sectionId = 'dynsection-0';
</script>
<script xlink:href="svgpan.js"/>
<svg id="graph" class="graph">
<g id="viewport">
<title>Framework/test/testDbFactory.cxx</title>
<!-- Node1 -->
<g id="node1" class="node"><title>Node1</title>
<polygon fill="#bfbfbf" stroke="black" points="668,-280.5 668,-299.5 837,-299.5 837,-280.5 668,-280.5"/>
<text text-anchor="middle" x="752.5" y="-287.5" font-family="Helvetica,sans-Serif" font-size="10.00">Framework/test/testDbFactory.cxx</text>
</g>
<!-- Node2 -->
<g id="node2" class="node"><title>Node2</title>
<g id="a_node2"><a xlink:href="DatabaseFactory_8h.html" target="_top" xlink:title="QualityControl/DatabaseFactory.h">
<polygon fill="none" stroke="black" points="0,-224.5 0,-243.5 165,-243.5 165,-224.5 0,-224.5"/>
<text text-anchor="middle" x="82.5" y="-231.5" font-family="Helvetica,sans-Serif" font-size="10.00">QualityControl/DatabaseFactory.h</text>
</a>
</g>
</g>
<!-- Node1&#45;&gt;Node2 -->
<g id="edge1" class="edge"><title>Node1&#45;&gt;Node2</title>
<path fill="none" stroke="midnightblue" d="M667.588,-282.962C556.74,-274.953 356.409,-260.048 175.296,-244.144"/>
<polygon fill="midnightblue" stroke="midnightblue" points="175.588,-240.657 165.32,-243.265 174.974,-247.63 175.588,-240.657"/>
</g>
<!-- Node14 -->
<g id="node14" class="node"><title>Node14</title>
<g id="a_node14"><a xlink:href="MonitorObject_8h.html" target="_top" xlink:title="QualityControl/MonitorObject.h">
<polygon fill="none" stroke="black" points="712,-112.5 712,-131.5 863,-131.5 863,-112.5 712,-112.5"/>
<text text-anchor="middle" x="787.5" y="-119.5" font-family="Helvetica,sans-Serif" font-size="10.00">QualityControl/MonitorObject.h</text>
</a>
</g>
</g>
<!-- Node1&#45;&gt;Node14 -->
<g id="edge30" class="edge"><title>Node1&#45;&gt;Node14</title>
<path fill="none" stroke="midnightblue" d="M787.13,-280.432C808.169,-273.648 834.215,-262.214 851.5,-244 869.908,-224.604 868.524,-214.274 873.5,-188 875.154,-179.266 878.103,-175.604 873.5,-168 864.09,-152.455 847.347,-142.022 831.12,-135.151"/>
<polygon fill="midnightblue" stroke="midnightblue" points="832.274,-131.845 821.684,-131.507 829.751,-138.375 832.274,-131.845"/>
</g>
<!-- Node15 -->
<g id="node15" class="node"><title>Node15</title>
<g id="a_node15"><a xlink:href="QcInfoLogger_8h.html" target="_top" xlink:title="QualityControl/QcInfoLogger.h">
<polygon fill="none" stroke="black" points="678,-224.5 678,-243.5 827,-243.5 827,-224.5 678,-224.5"/>
<text text-anchor="middle" x="752.5" y="-231.5" font-family="Helvetica,sans-Serif" font-size="10.00">QualityControl/QcInfoLogger.h</text>
</a>
</g>
</g>
<!-- Node1&#45;&gt;Node15 -->
<g id="edge22" class="edge"><title>Node1&#45;&gt;Node15</title>
<path fill="none" stroke="midnightblue" d="M752.5,-280.083C752.5,-273.006 752.5,-262.861 752.5,-253.986"/>
<polygon fill="midnightblue" stroke="midnightblue" points="756,-253.751 752.5,-243.751 749,-253.751 756,-253.751"/>
</g>
<!-- Node17 -->
<g id="node17" class="node"><title>Node17</title>
<polygon fill="none" stroke="#bfbfbf" points="541,-224.5 541,-243.5 660,-243.5 660,-224.5 541,-224.5"/>
<text text-anchor="middle" x="600.5" y="-231.5" font-family="Helvetica,sans-Serif" font-size="10.00">boost/test/unit_test.hpp</text>
</g>
<!-- Node1&#45;&gt;Node17 -->
<g id="edge24" class="edge"><title>Node1&#45;&gt;Node17</title>
<path fill="none" stroke="midnightblue" d="M728.415,-280.444C702.955,-271.399 662.606,-257.064 634.041,-246.916"/>
<polygon fill="midnightblue" stroke="midnightblue" points="635.067,-243.566 624.472,-243.516 632.723,-250.162 635.067,-243.566"/>
</g>
<!-- Node18 -->
<g id="node18" class="node"><title>Node18</title>
<g id="a_node18"><a xlink:href="DummyDatabase_8h.html" target="_top" xlink:title="QualityControl/DummyDatabase.h">
<polygon fill="none" stroke="black" points="183,-224.5 183,-243.5 350,-243.5 350,-224.5 183,-224.5"/>
<text text-anchor="middle" x="266.5" y="-231.5" font-family="Helvetica,sans-Serif" font-size="10.00">QualityControl/DummyDatabase.h</text>
</a>
</g>
</g>
<!-- Node1&#45;&gt;Node18 -->
<g id="edge25" class="edge"><title>Node1&#45;&gt;Node18</title>
<path fill="none" stroke="midnightblue" d="M675.76,-280.473C588.102,-270.734 444.989,-254.832 353.324,-244.647"/>
<polygon fill="midnightblue" stroke="midnightblue" points="353.563,-241.152 343.238,-243.526 352.79,-248.109 353.563,-241.152"/>
</g>
<!-- Node19 -->
<g id="node19" class="node"><title>Node19</title>
<g id="a_node19"><a xlink:href="CcdbDatabase_8h.html" target="_top" xlink:title="QualityControl/CcdbDatabase.h">
<polygon fill="none" stroke="black" points="368,-224.5 368,-243.5 523,-243.5 523,-224.5 368,-224.5"/>
<text text-anchor="middle" x="445.5" y="-231.5" font-family="Helvetica,sans-Serif" font-size="10.00">QualityControl/CcdbDatabase.h</text>
</a>
</g>
</g>
<!-- Node1&#45;&gt;Node19 -->
<g id="edge27" class="edge"><title>Node1&#45;&gt;Node19</title>
<path fill="none" stroke="midnightblue" d="M703.855,-280.444C649.626,-270.905 561.952,-255.483 504.018,-245.293"/>
<polygon fill="midnightblue" stroke="midnightblue" points="504.373,-241.802 493.917,-243.516 503.16,-248.696 504.373,-241.802"/>
</g>
<!-- Node21 -->
<g id="node21" class="node"><title>Node21</title>
<g id="a_node21"><a xlink:href="RepoPathUtils_8h.html" target="_top" xlink:title="QualityControl/RepoPathUtils.h">
<polygon fill="none" stroke="black" points="710.5,-168.5 710.5,-187.5 864.5,-187.5 864.5,-168.5 710.5,-168.5"/>
<text text-anchor="middle" x="787.5" y="-175.5" font-family="Helvetica,sans-Serif" font-size="10.00">QualityControl/RepoPathUtils.h</text>
</a>
</g>
</g>
<!-- Node1&#45;&gt;Node21 -->
<g id="edge31" class="edge"><title>Node1&#45;&gt;Node21</title>
<path fill="none" stroke="midnightblue" d="M784.685,-280.488C803.039,-273.801 824.516,-262.45 835.5,-244 846.316,-225.832 827.756,-206.525 810.663,-193.718"/>
<polygon fill="midnightblue" stroke="midnightblue" points="812.217,-190.533 802.021,-187.654 808.196,-196.263 812.217,-190.533"/>
</g>
<!-- Node22 -->
<g id="node22" class="node"><title>Node22</title>
<g id="a_node22"><a xlink:href="testUtils_8h.html" target="_top" xlink:title="QualityControl/testUtils.h">
<polygon fill="none" stroke="black" points="921,-224.5 921,-243.5 1048,-243.5 1048,-224.5 921,-224.5"/>
<text text-anchor="middle" x="984.5" y="-231.5" font-family="Helvetica,sans-Serif" font-size="10.00">QualityControl/testUtils.h</text>
</a>
</g>
</g>
<!-- Node1&#45;&gt;Node22 -->
<g id="edge37" class="edge"><title>Node1&#45;&gt;Node22</title>
<path fill="none" stroke="midnightblue" d="M789.261,-280.444C829.563,-271.063 894.309,-255.993 938.085,-245.804"/>
<polygon fill="midnightblue" stroke="midnightblue" points="938.965,-249.192 947.911,-243.516 937.378,-242.375 938.965,-249.192"/>
</g>
<!-- Node24 -->
<g id="node24" class="node"><title>Node24</title>
<polygon fill="none" stroke="#bfbfbf" points="1066.5,-224.5 1066.5,-243.5 1116.5,-243.5 1116.5,-224.5 1066.5,-224.5"/>
<text text-anchor="middle" x="1091.5" y="-231.5" font-family="Helvetica,sans-Serif" font-size="10.00">TH1F.h</text>
</g>
<!-- Node1&#45;&gt;Node24 -->
<g id="edge40" class="edge"><title>Node1&#45;&gt;Node24</title>
<path fill="none" stroke="midnightblue" d="M826.242,-280.477C885.905,-273.04 972.239,-261.059 1056.35,-244.046"/>
<polygon fill="midnightblue" stroke="midnightblue" points="1057.23,-247.438 1066.32,-242.001 1055.82,-240.58 1057.23,-247.438"/>
</g>
<!-- Node3 -->
<g id="node3" class="node"><title>Node3</title>
<polygon fill="none" stroke="#bfbfbf" points="144.5,-112.5 144.5,-131.5 196.5,-131.5 196.5,-112.5 144.5,-112.5"/>
<text text-anchor="middle" x="170.5" y="-119.5" font-family="Helvetica,sans-Serif" font-size="10.00">memory</text>
</g>
<!-- Node2&#45;&gt;Node3 -->
<g id="edge2" class="edge"><title>Node2&#45;&gt;Node3</title>
<path fill="none" stroke="midnightblue" d="M89.4052,-224.368C103.992,-206.135 138.159,-163.426 157.16,-139.675"/>
<polygon fill="midnightblue" stroke="midnightblue" points="160.113,-141.587 163.627,-131.591 154.647,-137.214 160.113,-141.587"/>
</g>
<!-- Node4 -->
<g id="node4" class="node"><title>Node4</title>
<g id="a_node4"><a xlink:href="DatabaseInterface_8h.html" target="_top" xlink:title="QualityControl/DatabaseInterface.h">
<polygon fill="none" stroke="black" points="228.5,-168.5 228.5,-187.5 398.5,-187.5 398.5,-168.5 228.5,-168.5"/>
<text text-anchor="middle" x="313.5" y="-175.5" font-family="Helvetica,sans-Serif" font-size="10.00">QualityControl/DatabaseInterface.h</text>
</a>
</g>
</g>
<!-- Node2&#45;&gt;Node4 -->
<g id="edge3" class="edge"><title>Node2&#45;&gt;Node4</title>
<path fill="none" stroke="midnightblue" d="M119.103,-224.444C159.231,-215.063 223.698,-199.993 267.285,-189.804"/>
<polygon fill="midnightblue" stroke="midnightblue" points="268.128,-193.201 277.069,-187.516 266.534,-186.385 268.128,-193.201"/>
</g>
<!-- Node4&#45;&gt;Node3 -->
<g id="edge5" class="edge"><title>Node4&#45;&gt;Node3</title>
<path fill="none" stroke="midnightblue" d="M290.841,-168.444C267.098,-159.478 229.591,-145.314 202.762,-135.183"/>
<polygon fill="midnightblue" stroke="midnightblue" points="203.644,-131.775 193.053,-131.516 201.171,-138.324 203.644,-131.775"/>
</g>
<!-- Node5 -->
<g id="node5" class="node"><title>Node5</title>
<polygon fill="none" stroke="#bfbfbf" points="516,-0.5 516,-19.5 557,-19.5 557,-0.5 516,-0.5"/>
<text text-anchor="middle" x="536.5" y="-7.5" font-family="Helvetica,sans-Serif" font-size="10.00">string</text>
</g>
<!-- Node4&#45;&gt;Node5 -->
<g id="edge4" class="edge"><title>Node4&#45;&gt;Node5</title>
<path fill="none" stroke="midnightblue" d="M321.05,-168.338C340.096,-146.906 392.373,-90.6346 445.5,-56 464.898,-43.3538 488.355,-31.8352 506.595,-23.6178"/>
<polygon fill="midnightblue" stroke="midnightblue" points="508.137,-26.7628 515.869,-19.5198 505.308,-20.3599 508.137,-26.7628"/>
</g>
<!-- Node6 -->
<g id="node6" class="node"><title>Node6</title>
<polygon fill="none" stroke="#bfbfbf" points="387.5,-112.5 387.5,-131.5 431.5,-131.5 431.5,-112.5 387.5,-112.5"/>
<text text-anchor="middle" x="409.5" y="-119.5" font-family="Helvetica,sans-Serif" font-size="10.00">vector</text>
</g>
<!-- Node4&#45;&gt;Node6 -->
<g id="edge6" class="edge"><title>Node4&#45;&gt;Node6</title>
<path fill="none" stroke="midnightblue" d="M328.924,-168.324C344.04,-159.822 367.315,-146.729 384.971,-136.797"/>
<polygon fill="midnightblue" stroke="midnightblue" points="387.114,-139.608 394.114,-131.655 383.683,-133.507 387.114,-139.608"/>
</g>
<!-- Node7 -->
<g id="node7" class="node"><title>Node7</title>
<polygon fill="none" stroke="#bfbfbf" points="248,-112.5 248,-131.5 331,-131.5 331,-112.5 248,-112.5"/>
<text text-anchor="middle" x="289.5" y="-119.5" font-family="Helvetica,sans-Serif" font-size="10.00">unordered_map</text>
</g>
<!-- Node4&#45;&gt;Node7 -->
<g id="edge7" class="edge"><title>Node4&#45;&gt;Node7</title>
<path fill="none" stroke="midnightblue" d="M309.537,-168.083C306.287,-160.77 301.581,-150.181 297.546,-141.103"/>
<polygon fill="midnightblue" stroke="midnightblue" points="300.649,-139.468 293.389,-131.751 294.252,-142.311 300.649,-139.468"/>
</g>
<!-- Node8 -->
<g id="node8" class="node"><title>Node8</title>
<g id="a_node8"><a xlink:href="QualityObject_8h_source.html" target="_top" xlink:title="QualityControl/QualityObject.h">
<polygon fill="none" stroke="black" points="514,-112.5 514,-131.5 663,-131.5 663,-112.5 514,-112.5"/>
<text text-anchor="middle" x="588.5" y="-119.5" font-family="Helvetica,sans-Serif" font-size="10.00">QualityControl/QualityObject.h</text>
</a>
</g>
</g>
<!-- Node4&#45;&gt;Node8 -->
<g id="edge8" class="edge"><title>Node4&#45;&gt;Node8</title>
<path fill="none" stroke="midnightblue" d="M357.075,-168.444C405.349,-158.964 483.212,-143.675 535.112,-133.483"/>
<polygon fill="midnightblue" stroke="midnightblue" points="535.991,-136.878 545.129,-131.516 534.642,-130.009 535.991,-136.878"/>
</g>
<!-- Node4&#45;&gt;Node14 -->
<g id="edge16" class="edge"><title>Node4&#45;&gt;Node14</title>
<path fill="none" stroke="midnightblue" d="M388.345,-168.473C473.753,-158.743 613.135,-142.864 702.548,-132.678"/>
<polygon fill="midnightblue" stroke="midnightblue" points="703.117,-136.136 712.657,-131.526 702.325,-129.181 703.117,-136.136"/>
</g>
<!-- Node9 -->
<g id="node9" class="node"><title>Node9</title>
<polygon fill="none" stroke="#bfbfbf" points="685,-0.5 685,-19.5 720,-19.5 720,-0.5 685,-0.5"/>
<text text-anchor="middle" x="702.5" y="-7.5" font-family="Helvetica,sans-Serif" font-size="10.00">map</text>
</g>
<!-- Node8&#45;&gt;Node9 -->
<g id="edge9" class="edge"><title>Node8&#45;&gt;Node9</title>
<path fill="none" stroke="midnightblue" d="M565.493,-112.353C538.154,-100.78 498.379,-79.0273 516.5,-56 535.894,-31.354 627.843,-18.5855 674.784,-13.58"/>
<polygon fill="midnightblue" stroke="midnightblue" points="675.285,-17.047 684.878,-12.5496 674.575,-10.0832 675.285,-17.047"/>
</g>
<!-- Node10 -->
<g id="node10" class="node"><title>Node10</title>
<polygon fill="none" stroke="#bfbfbf" points="526,-56.5 526,-75.5 585,-75.5 585,-56.5 526,-56.5"/>
<text text-anchor="middle" x="555.5" y="-63.5" font-family="Helvetica,sans-Serif" font-size="10.00">TObject.h</text>
</g>
<!-- Node8&#45;&gt;Node10 -->
<g id="edge10" class="edge"><title>Node8&#45;&gt;Node10</title>
<path fill="none" stroke="midnightblue" d="M583.051,-112.083C578.486,-104.613 571.832,-93.7244 566.207,-84.5199"/>
<polygon fill="midnightblue" stroke="midnightblue" points="569.049,-82.4588 560.848,-75.7511 563.076,-86.109 569.049,-82.4588"/>
</g>
<!-- Node11 -->
<g id="node11" class="node"><title>Node11</title>
<polygon fill="none" stroke="#bfbfbf" points="857.5,-56.5 857.5,-75.5 973.5,-75.5 973.5,-56.5 857.5,-56.5"/>
<text text-anchor="middle" x="915.5" y="-63.5" font-family="Helvetica,sans-Serif" font-size="10.00">Common/Exceptions.h</text>
</g>
<!-- Node8&#45;&gt;Node11 -->
<g id="edge11" class="edge"><title>Node8&#45;&gt;Node11</title>
<path fill="none" stroke="midnightblue" d="M640.314,-112.444C698.315,-102.865 792.236,-87.3556 853.935,-77.1667"/>
<polygon fill="midnightblue" stroke="midnightblue" points="854.632,-80.5991 863.928,-75.5164 853.492,-73.6926 854.632,-80.5991"/>
</g>
<!-- Node12 -->
<g id="node12" class="node"><title>Node12</title>
<g id="a_node12"><a xlink:href="Quality_8h.html" target="_top" xlink:title="QualityControl/Quality.h">
<polygon fill="none" stroke="black" points="642,-56.5 642,-75.5 763,-75.5 763,-56.5 642,-56.5"/>
<text text-anchor="middle" x="702.5" y="-63.5" font-family="Helvetica,sans-Serif" font-size="10.00">QualityControl/Quality.h</text>
</a>
</g>
</g>
<!-- Node8&#45;&gt;Node12 -->
<g id="edge12" class="edge"><title>Node8&#45;&gt;Node12</title>
<path fill="none" stroke="midnightblue" d="M606.564,-112.444C625.075,-103.675 654.081,-89.9355 675.355,-79.8579"/>
<polygon fill="midnightblue" stroke="midnightblue" points="676.982,-82.9604 684.521,-75.5164 673.985,-76.6343 676.982,-82.9604"/>
</g>
<!-- Node12&#45;&gt;Node5 -->
<g id="edge14" class="edge"><title>Node12&#45;&gt;Node5</title>
<path fill="none" stroke="midnightblue" d="M676.197,-56.4435C646.499,-46.7829 598.252,-31.088 566.948,-20.9046"/>
<polygon fill="midnightblue" stroke="midnightblue" points="568.016,-17.5718 557.424,-17.8067 565.851,-24.2285 568.016,-17.5718"/>
</g>
<!-- Node12&#45;&gt;Node9 -->
<g id="edge15" class="edge"><title>Node12&#45;&gt;Node9</title>
<path fill="none" stroke="midnightblue" d="M702.5,-56.083C702.5,-49.0059 702.5,-38.8611 702.5,-29.9865"/>
<polygon fill="midnightblue" stroke="midnightblue" points="706,-29.751 702.5,-19.7511 699,-29.7511 706,-29.751"/>
</g>
<!-- Node13 -->
<g id="node13" class="node"><title>Node13</title>
<polygon fill="none" stroke="#bfbfbf" points="769.5,-0.5 769.5,-19.5 825.5,-19.5 825.5,-0.5 769.5,-0.5"/>
<text text-anchor="middle" x="797.5" y="-7.5" font-family="Helvetica,sans-Serif" font-size="10.00">Rtypes.h</text>
</g>
<!-- Node12&#45;&gt;Node13 -->
<g id="edge13" class="edge"><title>Node12&#45;&gt;Node13</title>
<path fill="none" stroke="midnightblue" d="M717.763,-56.324C732.721,-47.8215 755.755,-34.7288 773.227,-24.7975"/>
<polygon fill="midnightblue" stroke="midnightblue" points="775.31,-27.639 782.274,-19.6545 771.851,-21.5534 775.31,-27.639"/>
</g>
<!-- Node14&#45;&gt;Node5 -->
<g id="edge17" class="edge"><title>Node14&#45;&gt;Node5</title>
<path fill="none" stroke="midnightblue" d="M745.097,-112.466C713.195,-105.156 668.899,-93.0858 632.5,-76 603.401,-62.341 573.246,-40.4268 554.678,-25.8735"/>
<polygon fill="midnightblue" stroke="midnightblue" points="556.78,-23.0724 546.779,-19.5749 552.416,-28.5457 556.78,-23.0724"/>
</g>
<!-- Node14&#45;&gt;Node9 -->
<g id="edge18" class="edge"><title>Node14&#45;&gt;Node9</title>
<path fill="none" stroke="midnightblue" d="M787.33,-112.17C786.663,-98.8256 783.74,-73.2498 771.5,-56 760.977,-41.1699 743.886,-29.9704 729.347,-22.4535"/>
<polygon fill="midnightblue" stroke="midnightblue" points="730.781,-19.2591 720.256,-18.0444 727.726,-25.5574 730.781,-19.2591"/>
</g>
<!-- Node14&#45;&gt;Node10 -->
<g id="edge20" class="edge"><title>Node14&#45;&gt;Node10</title>
<path fill="none" stroke="midnightblue" d="M750.739,-112.444C708.274,-102.56 638.672,-86.3589 595.057,-76.2072"/>
<polygon fill="midnightblue" stroke="midnightblue" points="595.629,-72.7468 585.096,-73.8886 594.042,-79.5646 595.629,-72.7468"/>
</g>
<!-- Node14&#45;&gt;Node11 -->
<g id="edge21" class="edge"><title>Node14&#45;&gt;Node11</title>
<path fill="none" stroke="midnightblue" d="M807.782,-112.444C828.847,-103.557 862.017,-89.5632 885.986,-79.4514"/>
<polygon fill="midnightblue" stroke="midnightblue" points="887.46,-82.6283 895.313,-75.5164 884.739,-76.1787 887.46,-82.6283"/>
</g>
<!-- Node14&#45;&gt;Node13 -->
<g id="edge19" class="edge"><title>Node14&#45;&gt;Node13</title>
<path fill="none" stroke="midnightblue" d="M792.121,-112.339C796.559,-103.493 802.954,-89.22 805.5,-76 808.49,-60.4741 805.871,-42.6357 802.854,-29.5786"/>
<polygon fill="midnightblue" stroke="midnightblue" points="806.24,-28.6916 800.341,-19.8909 799.464,-30.4493 806.24,-28.6916"/>
</g>
<!-- Node16 -->
<g id="node16" class="node"><title>Node16</title>
<polygon fill="none" stroke="#bfbfbf" points="562.5,-168.5 562.5,-187.5 692.5,-187.5 692.5,-168.5 562.5,-168.5"/>
<text text-anchor="middle" x="627.5" y="-175.5" font-family="Helvetica,sans-Serif" font-size="10.00">InfoLogger/InfoLogger.hxx</text>
</g>
<!-- Node15&#45;&gt;Node16 -->
<g id="edge23" class="edge"><title>Node15&#45;&gt;Node16</title>
<path fill="none" stroke="midnightblue" d="M732.693,-224.444C712.213,-215.596 680.017,-201.687 656.635,-191.586"/>
<polygon fill="midnightblue" stroke="midnightblue" points="657.782,-188.269 647.214,-187.516 655.006,-194.695 657.782,-188.269"/>
</g>
<!-- Node18&#45;&gt;Node4 -->
<g id="edge26" class="edge"><title>Node18&#45;&gt;Node4</title>
<path fill="none" stroke="midnightblue" d="M274.261,-224.083C281.037,-216.298 291.043,-204.801 299.255,-195.367"/>
<polygon fill="midnightblue" stroke="midnightblue" points="301.958,-197.592 305.883,-187.751 296.678,-192.996 301.958,-197.592"/>
</g>
<!-- Node19&#45;&gt;Node4 -->
<g id="edge29" class="edge"><title>Node19&#45;&gt;Node4</title>
<path fill="none" stroke="midnightblue" d="M424.584,-224.444C402.764,-215.517 368.35,-201.439 343.608,-191.317"/>
<polygon fill="midnightblue" stroke="midnightblue" points="344.899,-188.063 334.318,-187.516 342.248,-194.542 344.899,-188.063"/>
</g>
<!-- Node20 -->
<g id="node20" class="node"><title>Node20</title>
<polygon fill="none" stroke="#bfbfbf" points="417,-168.5 417,-187.5 512,-187.5 512,-168.5 417,-168.5"/>
<text text-anchor="middle" x="464.5" y="-175.5" font-family="Helvetica,sans-Serif" font-size="10.00">CCDB/CcdbApi.h</text>
</g>
<!-- Node19&#45;&gt;Node20 -->
<g id="edge28" class="edge"><title>Node19&#45;&gt;Node20</title>
<path fill="none" stroke="midnightblue" d="M448.637,-224.083C451.183,-216.849 454.856,-206.409 458.027,-197.397"/>
<polygon fill="midnightblue" stroke="midnightblue" points="461.403,-198.346 461.421,-187.751 454.8,-196.023 461.403,-198.346"/>
</g>
<!-- Node21&#45;&gt;Node5 -->
<g id="edge32" class="edge"><title>Node21&#45;&gt;Node5</title>
<path fill="none" stroke="midnightblue" d="M719.747,-168.457C638.269,-157.857 511.484,-140.183 504.5,-132 478.87,-101.972 505.738,-53.6193 523.497,-28.0776"/>
<polygon fill="midnightblue" stroke="midnightblue" points="526.479,-29.9269 529.513,-19.7758 520.811,-25.8192 526.479,-29.9269"/>
</g>
<!-- Node21&#45;&gt;Node6 -->
<g id="edge33" class="edge"><title>Node21&#45;&gt;Node6</title>
<path fill="none" stroke="midnightblue" d="M715.32,-168.486C630.705,-158.331 495.655,-141.537 445.5,-132 444.254,-131.763 442.987,-131.509 441.709,-131.243"/>
<polygon fill="midnightblue" stroke="midnightblue" points="442.407,-127.812 431.881,-129.015 440.86,-134.639 442.407,-127.812"/>
</g>
<!-- Node21&#45;&gt;Node8 -->
<g id="edge36" class="edge"><title>Node21&#45;&gt;Node8</title>
<path fill="none" stroke="midnightblue" d="M755.968,-168.444C721.908,-159.201 667.494,-144.436 629.985,-134.257"/>
<polygon fill="midnightblue" stroke="midnightblue" points="630.452,-130.758 619.885,-131.516 628.619,-137.513 630.452,-130.758"/>
</g>
<!-- Node21&#45;&gt;Node11 -->
<g id="edge34" class="edge"><title>Node21&#45;&gt;Node11</title>
<path fill="none" stroke="midnightblue" d="M810.027,-168.486C828.082,-160.875 853.316,-148.397 871.5,-132 886.484,-118.488 898.854,-98.8629 906.621,-84.7155"/>
<polygon fill="midnightblue" stroke="midnightblue" points="909.885,-86.0288 911.435,-75.548 903.687,-82.7745 909.885,-86.0288"/>
</g>
<!-- Node21&#45;&gt;Node14 -->
<g id="edge35" class="edge"><title>Node21&#45;&gt;Node14</title>
<path fill="none" stroke="midnightblue" d="M787.5,-168.083C787.5,-161.006 787.5,-150.861 787.5,-141.986"/>
<polygon fill="midnightblue" stroke="midnightblue" points="791,-141.751 787.5,-131.751 784,-141.751 791,-141.751"/>
</g>
<!-- Node22&#45;&gt;Node11 -->
<g id="edge39" class="edge"><title>Node22&#45;&gt;Node11</title>
<path fill="none" stroke="midnightblue" d="M976.138,-224.403C968.228,-215.83 956.547,-201.96 949.5,-188 932.352,-154.032 922.79,-110.195 918.435,-85.6965"/>
<polygon fill="midnightblue" stroke="midnightblue" points="921.853,-84.9123 916.749,-75.6279 914.949,-86.0687 921.853,-84.9123"/>
</g>
<!-- Node23 -->
<g id="node23" class="node"><title>Node23</title>
<polygon fill="none" stroke="#bfbfbf" points="958.5,-168.5 958.5,-187.5 1012.5,-187.5 1012.5,-168.5 958.5,-168.5"/>
<text text-anchor="middle" x="985.5" y="-175.5" font-family="Helvetica,sans-Serif" font-size="10.00">iostream</text>
</g>
<!-- Node22&#45;&gt;Node23 -->
<g id="edge38" class="edge"><title>Node22&#45;&gt;Node23</title>
<path fill="none" stroke="midnightblue" d="M984.665,-224.083C984.796,-217.006 984.984,-206.861 985.148,-197.986"/>
<polygon fill="midnightblue" stroke="midnightblue" points="988.652,-197.814 985.338,-187.751 981.653,-197.685 988.652,-197.814"/>
</g>
</g>
</svg>
        <g id="navigator" transform="translate(0 0)" fill="#404254">
                <rect fill="#f2f5e9" fill-opacity="0.5" stroke="#606060" stroke-width=".5" x="0" y="0" width="60" height="60"/>
                <use id="zoomplus" xlink:href="#zoomPlus" x="17" y="9" onmousedown="handleZoom(evt,'in')"/>
                <use id="zoomminus" xlink:href="#zoomMin" x="42" y="9" onmousedown="handleZoom(evt,'out')"/>
                <use id="reset" xlink:href="#resetDef" x="30" y="36" onmousedown="handleReset()"/>
                <g id="arrowUp" xlink:href="#dirArrow" transform="translate(30 24)" onmousedown="handlePan(0,-1)">
                  <use xlink:href="#rim" fill="#404040">
                        <set attributeName="fill" to="#808080" begin="arrowUp.mouseover" end="arrowUp.mouseout"/>
                  </use>
                  <path fill="none" stroke="white" stroke-width="1.5" d="M0,-3.0v7 M-2.5,-0.5L0,-3.0L2.5,-0.5"/>
                </g>
                <g id="arrowRight" xlink:href="#dirArrow" transform="rotate(90) translate(36 -43)" onmousedown="handlePan(1,0)">
                  <use xlink:href="#rim" fill="#404040">
                        <set attributeName="fill" to="#808080" begin="arrowRight.mouseover" end="arrowRight.mouseout"/>
                  </use>
                  <path fill="none" stroke="white" stroke-width="1.5" d="M0,-3.0v7 M-2.5,-0.5L0,-3.0L2.5,-0.5"/>
                </g>
                <g id="arrowDown" xlink:href="#dirArrow" transform="rotate(180) translate(-30 -48)" onmousedown="handlePan(0,1)">
                  <use xlink:href="#rim" fill="#404040">
                        <set attributeName="fill" to="#808080" begin="arrowDown.mouseover" end="arrowDown.mouseout"/>
                  </use>
                  <path fill="none" stroke="white" stroke-width="1.5" d="M0,-3.0v7 M-2.5,-0.5L0,-3.0L2.5,-0.5"/>
                </g>
                <g id="arrowLeft" xlink:href="#dirArrow" transform="rotate(270) translate(-36 17)" onmousedown="handlePan(-1,0)">
                  <use xlink:href="#rim" fill="#404040">
                        <set attributeName="fill" to="#808080" begin="arrowLeft.mouseover" end="arrowLeft.mouseout"/>
                  </use>
                  <path fill="none" stroke="white" stroke-width="1.5" d="M0,-3.0v7 M-2.5,-0.5L0,-3.0L2.5,-0.5"/>
                </g>
        </g>
        <svg viewBox="0 0 15 15" width="100%" height="30px" preserveAspectRatio="xMaxYMin meet">
         <g id="arrow_out" transform="scale(0.3 0.3)">
          <a xlink:href="testDbFactory_8cxx__incl_org.svg" target="_base">
           <rect id="button" ry="5" rx="5" y="6" x="6" height="38" width="38"
                fill="#f2f5e9" fill-opacity="0.5" stroke="#606060" stroke-width="1.0"/>
           <path id="arrow"
             d="M 11.500037,31.436501 C 11.940474,20.09759 22.043105,11.32322 32.158766,21.979434 L 37.068811,17.246167 C 37.068811,17.246167 37.088388,32 37.088388,32 L 22.160133,31.978069 C 22.160133,31.978069 26.997745,27.140456 26.997745,27.140456 C 18.528582,18.264221 13.291696,25.230495 11.500037,31.436501 z"
             style="fill:#404040;"/>
          </a>
         </g>
        </svg>
</svg>
