<?xml version="1.0" encoding="UTF-8" standalone="no"?>
<!DOCTYPE svg PUBLIC "-//W3C//DTD SVG 1.1//EN"
 "http://www.w3.org/Graphics/SVG/1.1/DTD/svg11.dtd">
<!-- Generated by graphviz version 2.38.0 (20140413.2041)
 -->
<!-- Title: Framework/test/testPostProcessingRunner.cxx Pages: 1 -->
<!--zoomable 352 -->
<svg id="main" version="1.1" xmlns="http://www.w3.org/2000/svg" xmlns:xlink="http://www.w3.org/1999/xlink" xml:space="preserve" onload="init(evt)">
<style type="text/css"><![CDATA[
.edge:hover path { stroke: red; }
.edge:hover polygon { stroke: red; fill: red; }
]]></style>
<script type="text/javascript"><![CDATA[
var edges = document.getElementsByTagName('g');
if (edges && edges.length) {
  for (var i=0;i<edges.length;i++) {
    if (edges[i].id.substr(0,4)=='edge') {
      edges[i].setAttribute('class','edge');
    }
  }
}
]]></script>
        <defs>
                <circle id="rim" cx="0" cy="0" r="7"/>
                <circle id="rim2" cx="0" cy="0" r="3.5"/>
                <g id="zoomPlus">
                        <use xlink:href="#rim" fill="#404040">
                                <set attributeName="fill" to="#808080" begin="zoomplus.mouseover" end="zoomplus.mouseout"/>
                        </use>
                        <path d="M-4,0h8M0,-4v8" fill="none" stroke="white" stroke-width="1.5" pointer-events="none"/>
                </g>
                <g id="zoomMin">
                        <use xlink:href="#rim" fill="#404040">
                                <set attributeName="fill" to="#808080" begin="zoomminus.mouseover" end="zoomminus.mouseout"/>
                        </use>
                        <path d="M-4,0h8" fill="none" stroke="white" stroke-width="1.5" pointer-events="none"/>
                </g>
                <g id="dirArrow">
                        <path fill="none" stroke="white" stroke-width="1.5" d="M0,-3.0v7 M-2.5,-0.5L0,-3.0L2.5,-0.5"/>
                </g>
               <g id="resetDef">
                       <use xlink:href="#rim2" fill="#404040">
                               <set attributeName="fill" to="#808080" begin="reset.mouseover" end="reset.mouseout"/>
                       </use>
               </g>
        </defs>

<script type="text/javascript">
var viewWidth = 1136;
var viewHeight = 352;
var sectionId = 'dynsection-0';
</script>
<script xlink:href="svgpan.js"/>
<svg id="graph" class="graph">
<g id="viewport">
<title>Framework/test/testPostProcessingRunner.cxx</title>
<!-- Node1 -->
<g id="node1" class="node"><title>Node1</title>
<polygon fill="#bfbfbf" stroke="black" points="377.5,-313.5 377.5,-343.5 550.5,-343.5 550.5,-313.5 377.5,-313.5"/>
<text text-anchor="start" x="385.5" y="-331.5" font-family="Helvetica,sans-Serif" font-size="10.00">Framework/test/testPostProcessing</text>
<text text-anchor="middle" x="464" y="-320.5" font-family="Helvetica,sans-Serif" font-size="10.00">Runner.cxx</text>
</g>
<!-- Node2 -->
<g id="node2" class="node"><title>Node2</title>
<polygon fill="none" stroke="#bfbfbf" points="171.5,-252 171.5,-271 290.5,-271 290.5,-252 171.5,-252"/>
<text text-anchor="middle" x="231" y="-259" font-family="Helvetica,sans-Serif" font-size="10.00">getTestDataDirectory.h</text>
</g>
<!-- Node1&#45;&gt;Node2 -->
<g id="edge1" class="edge"><title>Node1&#45;&gt;Node2</title>
<path fill="none" stroke="midnightblue" d="M413.729,-313.476C371.148,-301.597 310.89,-284.787 271.39,-273.768"/>
<polygon fill="midnightblue" stroke="midnightblue" points="272.145,-270.345 261.572,-271.029 270.264,-277.087 272.145,-270.345"/>
</g>
<!-- Node3 -->
<g id="node3" class="node"><title>Node3</title>
<g id="a_node3"><a xlink:href="PostProcessingRunner_8h.html" target="_top" xlink:title="QualityControl/PostProcessing\lRunner.h">
<polygon fill="none" stroke="black" points="308.5,-246.5 308.5,-276.5 459.5,-276.5 459.5,-246.5 308.5,-246.5"/>
<text text-anchor="start" x="316.5" y="-264.5" font-family="Helvetica,sans-Serif" font-size="10.00">QualityControl/PostProcessing</text>
<text text-anchor="middle" x="384" y="-253.5" font-family="Helvetica,sans-Serif" font-size="10.00">Runner.h</text>
</a>
</g>
</g>
<!-- Node1&#45;&gt;Node3 -->
<g id="edge2" class="edge"><title>Node1&#45;&gt;Node3</title>
<path fill="none" stroke="midnightblue" d="M446.641,-313.396C435.739,-304.538 421.49,-292.96 409.337,-283.086"/>
<polygon fill="midnightblue" stroke="midnightblue" points="411.293,-280.166 401.325,-276.577 406.879,-285.599 411.293,-280.166"/>
</g>
<!-- Node23 -->
<g id="node23" class="node"><title>Node23</title>
<polygon fill="none" stroke="#bfbfbf" points="477.5,-246.5 477.5,-276.5 612.5,-276.5 612.5,-246.5 477.5,-246.5"/>
<text text-anchor="start" x="485.5" y="-264.5" font-family="Helvetica,sans-Serif" font-size="10.00">Configuration/Configuration</text>
<text text-anchor="middle" x="545" y="-253.5" font-family="Helvetica,sans-Serif" font-size="10.00">Factory.h</text>
</g>
<!-- Node1&#45;&gt;Node23 -->
<g id="edge38" class="edge"><title>Node1&#45;&gt;Node23</title>
<path fill="none" stroke="midnightblue" d="M481.576,-313.396C492.615,-304.538 507.042,-292.96 519.347,-283.086"/>
<polygon fill="midnightblue" stroke="midnightblue" points="521.85,-285.565 527.459,-276.577 517.469,-280.105 521.85,-285.565"/>
</g>
<!-- Node24 -->
<g id="node24" class="node"><title>Node24</title>
<polygon fill="none" stroke="#bfbfbf" points="630.5,-252 630.5,-271 749.5,-271 749.5,-252 630.5,-252"/>
<text text-anchor="middle" x="690" y="-259" font-family="Helvetica,sans-Serif" font-size="10.00">boost/test/unit_test.hpp</text>
</g>
<!-- Node1&#45;&gt;Node24 -->
<g id="edge39" class="edge"><title>Node1&#45;&gt;Node24</title>
<path fill="none" stroke="midnightblue" d="M512.76,-313.476C553.975,-301.622 612.262,-284.858 650.579,-273.838"/>
<polygon fill="midnightblue" stroke="midnightblue" points="651.704,-277.156 660.347,-271.029 649.769,-270.429 651.704,-277.156"/>
</g>
<!-- Node4 -->
<g id="node4" class="node"><title>Node4</title>
<polygon fill="none" stroke="#bfbfbf" points="566,-118 566,-137 618,-137 618,-118 566,-118"/>
<text text-anchor="middle" x="592" y="-125" font-family="Helvetica,sans-Serif" font-size="10.00">memory</text>
</g>
<!-- Node3&#45;&gt;Node4 -->
<g id="edge3" class="edge"><title>Node3&#45;&gt;Node4</title>
<path fill="none" stroke="midnightblue" d="M448.939,-246.47C499.695,-234.945 563.107,-219.089 572,-210 588.285,-193.356 592.031,-165.727 592.548,-147.317"/>
<polygon fill="midnightblue" stroke="midnightblue" points="596.048,-147.222 592.535,-137.227 589.048,-147.231 596.048,-147.222"/>
</g>
<!-- Node5 -->
<g id="node5" class="node"><title>Node5</title>
<polygon fill="none" stroke="#bfbfbf" points="0,-118 0,-137 146,-137 146,-118 0,-118"/>
<text text-anchor="middle" x="73" y="-125" font-family="Helvetica,sans-Serif" font-size="10.00">Framework/ServiceRegistry.h</text>
</g>
<!-- Node3&#45;&gt;Node5 -->
<g id="edge4" class="edge"><title>Node3&#45;&gt;Node5</title>
<path fill="none" stroke="midnightblue" d="M317.748,-246.394C269.727,-235.646 209.3,-220.892 186,-210 148.638,-192.535 110.917,-162.18 89.8894,-143.854"/>
<polygon fill="midnightblue" stroke="midnightblue" points="91.9975,-141.045 82.1933,-137.029 87.3531,-146.282 91.9975,-141.045"/>
</g>
<!-- Node6 -->
<g id="node6" class="node"><title>Node6</title>
<polygon fill="none" stroke="#bfbfbf" points="346.5,-112.5 346.5,-142.5 447.5,-142.5 447.5,-112.5 346.5,-112.5"/>
<text text-anchor="start" x="354.5" y="-130.5" font-family="Helvetica,sans-Serif" font-size="10.00">boost/property_tree</text>
<text text-anchor="middle" x="397" y="-119.5" font-family="Helvetica,sans-Serif" font-size="10.00">/ptree_fwd.hpp</text>
</g>
<!-- Node3&#45;&gt;Node6 -->
<g id="edge5" class="edge"><title>Node3&#45;&gt;Node6</title>
<path fill="none" stroke="midnightblue" d="M385.391,-246.374C387.6,-223.945 391.935,-179.924 394.638,-152.486"/>
<polygon fill="midnightblue" stroke="midnightblue" points="398.122,-152.82 395.619,-142.525 391.155,-152.134 398.122,-152.82"/>
</g>
<!-- Node7 -->
<g id="node7" class="node"><title>Node7</title>
<g id="a_node7"><a xlink:href="PostProcessingInterface_8h.html" target="_top" xlink:title="QualityControl/PostProcessing\lInterface.h">
<polygon fill="none" stroke="black" points="204.5,-179.5 204.5,-209.5 355.5,-209.5 355.5,-179.5 204.5,-179.5"/>
<text text-anchor="start" x="212.5" y="-197.5" font-family="Helvetica,sans-Serif" font-size="10.00">QualityControl/PostProcessing</text>
<text text-anchor="middle" x="280" y="-186.5" font-family="Helvetica,sans-Serif" font-size="10.00">Interface.h</text>
</a>
</g>
</g>
<!-- Node3&#45;&gt;Node7 -->
<g id="edge6" class="edge"><title>Node3&#45;&gt;Node7</title>
<path fill="none" stroke="midnightblue" d="M361.434,-246.396C346.715,-237.197 327.305,-225.066 311.127,-214.955"/>
<polygon fill="midnightblue" stroke="midnightblue" points="312.857,-211.909 302.522,-209.577 309.147,-217.845 312.857,-211.909"/>
</g>
<!-- Node9 -->
<g id="node9" class="node"><title>Node9</title>
<g id="a_node9"><a xlink:href="Triggers_8h.html" target="_top" xlink:title="QualityControl/Triggers.h">
<polygon fill="none" stroke="black" points="164.5,-118 164.5,-137 289.5,-137 289.5,-118 164.5,-118"/>
<text text-anchor="middle" x="227" y="-125" font-family="Helvetica,sans-Serif" font-size="10.00">QualityControl/Triggers.h</text>
</a>
</g>
</g>
<!-- Node3&#45;&gt;Node9 -->
<g id="edge18" class="edge"><title>Node3&#45;&gt;Node9</title>
<path fill="none" stroke="midnightblue" d="M315.813,-246.498C264.836,-235.34 202.666,-219.984 195,-210 179.804,-190.211 197.25,-162.293 211.727,-144.806"/>
<polygon fill="midnightblue" stroke="midnightblue" points="214.484,-146.97 218.439,-137.141 209.218,-142.358 214.484,-146.97"/>
</g>
<!-- Node12 -->
<g id="node12" class="node"><title>Node12</title>
<g id="a_node12"><a xlink:href="PostProcessingConfig_8h.html" target="_top" xlink:title="QualityControl/PostProcessing\lConfig.h">
<polygon fill="none" stroke="black" points="412.5,-179.5 412.5,-209.5 563.5,-209.5 563.5,-179.5 412.5,-179.5"/>
<text text-anchor="start" x="420.5" y="-197.5" font-family="Helvetica,sans-Serif" font-size="10.00">QualityControl/PostProcessing</text>
<text text-anchor="middle" x="488" y="-186.5" font-family="Helvetica,sans-Serif" font-size="10.00">Config.h</text>
</a>
</g>
</g>
<!-- Node3&#45;&gt;Node12 -->
<g id="edge14" class="edge"><title>Node3&#45;&gt;Node12</title>
<path fill="none" stroke="midnightblue" d="M406.566,-246.396C421.285,-237.197 440.695,-225.066 456.873,-214.955"/>
<polygon fill="midnightblue" stroke="midnightblue" points="458.853,-217.845 465.478,-209.577 455.143,-211.909 458.853,-217.845"/>
</g>
<!-- Node14 -->
<g id="node14" class="node"><title>Node14</title>
<g id="a_node14"><a xlink:href="DatabaseInterface_8h.html" target="_top" xlink:title="QualityControl/DatabaseInterface.h">
<polygon fill="none" stroke="black" points="620,-185 620,-204 790,-204 790,-185 620,-185"/>
<text text-anchor="middle" x="705" y="-192" font-family="Helvetica,sans-Serif" font-size="10.00">QualityControl/DatabaseInterface.h</text>
</a>
</g>
</g>
<!-- Node3&#45;&gt;Node14 -->
<g id="edge19" class="edge"><title>Node3&#45;&gt;Node14</title>
<path fill="none" stroke="midnightblue" d="M453.257,-246.476C513.166,-234.345 598.473,-217.071 652.782,-206.074"/>
<polygon fill="midnightblue" stroke="midnightblue" points="653.775,-209.444 662.882,-204.029 652.386,-202.583 653.775,-209.444"/>
</g>
<!-- Node7&#45;&gt;Node5 -->
<g id="edge8" class="edge"><title>Node7&#45;&gt;Node5</title>
<path fill="none" stroke="midnightblue" d="M235.339,-179.476C197.911,-167.723 145.11,-151.143 110.007,-140.12"/>
<polygon fill="midnightblue" stroke="midnightblue" points="110.75,-136.685 100.161,-137.029 108.653,-143.364 110.75,-136.685"/>
</g>
<!-- Node7&#45;&gt;Node6 -->
<g id="edge9" class="edge"><title>Node7&#45;&gt;Node6</title>
<path fill="none" stroke="midnightblue" d="M305.387,-179.396C322.176,-170.069 344.389,-157.728 362.738,-147.534"/>
<polygon fill="midnightblue" stroke="midnightblue" points="364.62,-150.493 371.662,-142.577 361.221,-144.373 364.62,-150.493"/>
</g>
<!-- Node8 -->
<g id="node8" class="node"><title>Node8</title>
<polygon fill="none" stroke="#bfbfbf" points="538.5,-0.5 538.5,-19.5 579.5,-19.5 579.5,-0.5 538.5,-0.5"/>
<text text-anchor="middle" x="559" y="-7.5" font-family="Helvetica,sans-Serif" font-size="10.00">string</text>
</g>
<!-- Node7&#45;&gt;Node8 -->
<g id="edge7" class="edge"><title>Node7&#45;&gt;Node8</title>
<path fill="none" stroke="midnightblue" d="M286.847,-179.377C296.077,-161.604 314.033,-131.1 337,-112 396.048,-62.8948 482.86,-32.6731 528.456,-19.226"/>
<polygon fill="midnightblue" stroke="midnightblue" points="529.684,-22.5147 538.328,-16.388 527.75,-15.7872 529.684,-22.5147"/>
</g>
<!-- Node7&#45;&gt;Node9 -->
<g id="edge10" class="edge"><title>Node7&#45;&gt;Node9</title>
<path fill="none" stroke="midnightblue" d="M268.5,-179.396C260.318,-169.361 249.291,-155.838 240.661,-145.253"/>
<polygon fill="midnightblue" stroke="midnightblue" points="243.121,-142.733 234.089,-137.195 237.696,-147.157 243.121,-142.733"/>
</g>
<!-- Node9&#45;&gt;Node8 -->
<g id="edge11" class="edge"><title>Node9&#45;&gt;Node8</title>
<path fill="none" stroke="midnightblue" d="M233.556,-117.895C245.659,-102.686 273.112,-71.2271 304,-56 378.567,-19.2401 478.471,-12.107 528.194,-10.9796"/>
<polygon fill="midnightblue" stroke="midnightblue" points="528.356,-14.4775 538.299,-10.8191 528.245,-7.47843 528.356,-14.4775"/>
</g>
<!-- Node10 -->
<g id="node10" class="node"><title>Node10</title>
<polygon fill="none" stroke="#bfbfbf" points="127.5,-56.5 127.5,-75.5 186.5,-75.5 186.5,-56.5 127.5,-56.5"/>
<text text-anchor="middle" x="157" y="-63.5" font-family="Helvetica,sans-Serif" font-size="10.00">functional</text>
</g>
<!-- Node9&#45;&gt;Node10 -->
<g id="edge12" class="edge"><title>Node9&#45;&gt;Node10</title>
<path fill="none" stroke="midnightblue" d="M216.971,-117.975C205.951,-108.608 188.04,-93.3839 174.657,-82.0081"/>
<polygon fill="midnightblue" stroke="midnightblue" points="176.897,-79.3188 167.011,-75.5091 172.363,-84.6524 176.897,-79.3188"/>
</g>
<!-- Node11 -->
<g id="node11" class="node"><title>Node11</title>
<polygon fill="none" stroke="#bfbfbf" points="204.5,-56.5 204.5,-75.5 249.5,-75.5 249.5,-56.5 204.5,-56.5"/>
<text text-anchor="middle" x="227" y="-63.5" font-family="Helvetica,sans-Serif" font-size="10.00">iosfwd</text>
</g>
<!-- Node9&#45;&gt;Node11 -->
<g id="edge13" class="edge"><title>Node9&#45;&gt;Node11</title>
<path fill="none" stroke="midnightblue" d="M227,-117.975C227,-109.58 227,-96.4806 227,-85.6631"/>
<polygon fill="midnightblue" stroke="midnightblue" points="230.5,-85.5091 227,-75.5091 223.5,-85.5091 230.5,-85.5091"/>
</g>
<!-- Node12&#45;&gt;Node6 -->
<g id="edge17" class="edge"><title>Node12&#45;&gt;Node6</title>
<path fill="none" stroke="midnightblue" d="M468.254,-179.396C455.614,-170.367 439.02,-158.514 425.026,-148.518"/>
<polygon fill="midnightblue" stroke="midnightblue" points="426.879,-145.541 416.707,-142.577 422.81,-151.237 426.879,-145.541"/>
</g>
<!-- Node12&#45;&gt;Node8 -->
<g id="edge16" class="edge"><title>Node12&#45;&gt;Node8</title>
<path fill="none" stroke="midnightblue" d="M487.21,-179.244C486.744,-162.642 487.376,-134.608 495,-112 505.995,-79.3963 529.581,-46.6721 544.845,-27.6511"/>
<polygon fill="midnightblue" stroke="midnightblue" points="547.736,-29.6456 551.388,-19.6999 542.331,-25.1978 547.736,-29.6456"/>
</g>
<!-- Node13 -->
<g id="node13" class="node"><title>Node13</title>
<polygon fill="none" stroke="#bfbfbf" points="504,-118 504,-137 548,-137 548,-118 504,-118"/>
<text text-anchor="middle" x="526" y="-125" font-family="Helvetica,sans-Serif" font-size="10.00">vector</text>
</g>
<!-- Node12&#45;&gt;Node13 -->
<g id="edge15" class="edge"><title>Node12&#45;&gt;Node13</title>
<path fill="none" stroke="midnightblue" d="M496.245,-179.396C501.994,-169.562 509.702,-156.378 515.832,-145.892"/>
<polygon fill="midnightblue" stroke="midnightblue" points="518.892,-147.594 520.917,-137.195 512.848,-144.061 518.892,-147.594"/>
</g>
<!-- Node14&#45;&gt;Node4 -->
<g id="edge21" class="edge"><title>Node14&#45;&gt;Node4</title>
<path fill="none" stroke="midnightblue" d="M689.76,-184.734C670.784,-173.818 638.154,-155.049 615.853,-142.221"/>
<polygon fill="midnightblue" stroke="midnightblue" points="617.412,-139.08 606.998,-137.127 613.921,-145.147 617.412,-139.08"/>
</g>
<!-- Node14&#45;&gt;Node8 -->
<g id="edge20" class="edge"><title>Node14&#45;&gt;Node8</title>
<path fill="none" stroke="midnightblue" d="M697.958,-184.698C675.072,-156.09 602.532,-65.4145 572.363,-27.7033"/>
<polygon fill="midnightblue" stroke="midnightblue" points="574.951,-25.3363 565.971,-19.714 569.485,-29.7092 574.951,-25.3363"/>
</g>
<!-- Node14&#45;&gt;Node13 -->
<g id="edge22" class="edge"><title>Node14&#45;&gt;Node13</title>
<path fill="none" stroke="midnightblue" d="M677.121,-184.985C647.121,-175.592 598.17,-159.595 557,-143 555.622,-142.445 554.218,-141.86 552.806,-141.256"/>
<polygon fill="midnightblue" stroke="midnightblue" points="554.116,-138.008 543.559,-137.117 551.257,-144.397 554.116,-138.008"/>
</g>
<!-- Node15 -->
<g id="node15" class="node"><title>Node15</title>
<polygon fill="none" stroke="#bfbfbf" points="843.5,-118 843.5,-137 926.5,-137 926.5,-118 843.5,-118"/>
<text text-anchor="middle" x="885" y="-125" font-family="Helvetica,sans-Serif" font-size="10.00">unordered_map</text>
</g>
<!-- Node14&#45;&gt;Node15 -->
<g id="edge23" class="edge"><title>Node14&#45;&gt;Node15</title>
<path fill="none" stroke="midnightblue" d="M728.903,-184.869C760.459,-173.473 816.177,-153.353 851.806,-140.487"/>
<polygon fill="midnightblue" stroke="midnightblue" points="853.068,-143.752 861.285,-137.064 850.691,-137.168 853.068,-143.752"/>
</g>
<!-- Node16 -->
<g id="node16" class="node"><title>Node16</title>
<g id="a_node16"><a xlink:href="QualityObject_8h_source.html" target="_top" xlink:title="QualityControl/QualityObject.h">
<polygon fill="none" stroke="black" points="944.5,-118 944.5,-137 1093.5,-137 1093.5,-118 944.5,-118"/>
<text text-anchor="middle" x="1019" y="-125" font-family="Helvetica,sans-Serif" font-size="10.00">QualityControl/QualityObject.h</text>
</a>
</g>
</g>
<!-- Node14&#45;&gt;Node16 -->
<g id="edge24" class="edge"><title>Node14&#45;&gt;Node16</title>
<path fill="none" stroke="midnightblue" d="M746.373,-184.936C803.321,-173.147 905.813,-151.93 967.608,-139.138"/>
<polygon fill="midnightblue" stroke="midnightblue" points="968.453,-142.538 977.535,-137.083 967.034,-135.683 968.453,-142.538"/>
</g>
<!-- Node22 -->
<g id="node22" class="node"><title>Node22</title>
<g id="a_node22"><a xlink:href="MonitorObject_8h.html" target="_top" xlink:title="QualityControl/MonitorObject.h">
<polygon fill="none" stroke="black" points="674.5,-118 674.5,-137 825.5,-137 825.5,-118 674.5,-118"/>
<text text-anchor="middle" x="750" y="-125" font-family="Helvetica,sans-Serif" font-size="10.00">QualityControl/MonitorObject.h</text>
</a>
</g>
</g>
<!-- Node14&#45;&gt;Node22 -->
<g id="edge32" class="edge"><title>Node14&#45;&gt;Node22</title>
<path fill="none" stroke="midnightblue" d="M711.069,-184.734C718.019,-174.695 729.567,-158.014 738.285,-145.421"/>
<polygon fill="midnightblue" stroke="midnightblue" points="741.213,-147.341 744.027,-137.127 735.457,-143.357 741.213,-147.341"/>
</g>
<!-- Node17 -->
<g id="node17" class="node"><title>Node17</title>
<polygon fill="none" stroke="#bfbfbf" points="1091.5,-0.5 1091.5,-19.5 1126.5,-19.5 1126.5,-0.5 1091.5,-0.5"/>
<text text-anchor="middle" x="1109" y="-7.5" font-family="Helvetica,sans-Serif" font-size="10.00">map</text>
</g>
<!-- Node16&#45;&gt;Node17 -->
<g id="edge25" class="edge"><title>Node16&#45;&gt;Node17</title>
<path fill="none" stroke="midnightblue" d="M1059.46,-117.996C1082.35,-110.891 1109.1,-98.2012 1123,-76 1131.97,-61.6709 1126.1,-42.4635 1119.43,-28.6491"/>
<polygon fill="midnightblue" stroke="midnightblue" points="1122.43,-26.8535 1114.63,-19.69 1116.26,-30.1579 1122.43,-26.8535"/>
</g>
<!-- Node18 -->
<g id="node18" class="node"><title>Node18</title>
<polygon fill="none" stroke="#bfbfbf" points="882.5,-56.5 882.5,-75.5 941.5,-75.5 941.5,-56.5 882.5,-56.5"/>
<text text-anchor="middle" x="912" y="-63.5" font-family="Helvetica,sans-Serif" font-size="10.00">TObject.h</text>
</g>
<!-- Node16&#45;&gt;Node18 -->
<g id="edge26" class="edge"><title>Node16&#45;&gt;Node18</title>
<path fill="none" stroke="midnightblue" d="M1003.67,-117.975C986.03,-108.166 956.84,-91.9346 936.142,-80.425"/>
<polygon fill="midnightblue" stroke="midnightblue" points="937.743,-77.3102 927.302,-75.5091 934.341,-83.4279 937.743,-77.3102"/>
</g>
<!-- Node19 -->
<g id="node19" class="node"><title>Node19</title>
<polygon fill="none" stroke="#bfbfbf" points="748,-56.5 748,-75.5 864,-75.5 864,-56.5 748,-56.5"/>
<text text-anchor="middle" x="806" y="-63.5" font-family="Helvetica,sans-Serif" font-size="10.00">Common/Exceptions.h</text>
</g>
<!-- Node16&#45;&gt;Node19 -->
<g id="edge27" class="edge"><title>Node16&#45;&gt;Node19</title>
<path fill="none" stroke="midnightblue" d="M988.482,-117.975C951.075,-107.526 887.573,-89.7868 846.213,-78.2332"/>
<polygon fill="midnightblue" stroke="midnightblue" points="847.034,-74.8286 836.461,-75.5091 845.151,-81.5705 847.034,-74.8286"/>
</g>
<!-- Node20 -->
<g id="node20" class="node"><title>Node20</title>
<g id="a_node20"><a xlink:href="Quality_8h.html" target="_top" xlink:title="QualityControl/Quality.h">
<polygon fill="none" stroke="black" points="959.5,-56.5 959.5,-75.5 1080.5,-75.5 1080.5,-56.5 959.5,-56.5"/>
<text text-anchor="middle" x="1020" y="-63.5" font-family="Helvetica,sans-Serif" font-size="10.00">QualityControl/Quality.h</text>
</a>
</g>
</g>
<!-- Node16&#45;&gt;Node20 -->
<g id="edge28" class="edge"><title>Node16&#45;&gt;Node20</title>
<path fill="none" stroke="midnightblue" d="M1019.14,-117.975C1019.28,-109.58 1019.5,-96.4806 1019.69,-85.6631"/>
<polygon fill="midnightblue" stroke="midnightblue" points="1023.19,-85.5665 1019.86,-75.5091 1016.19,-85.4488 1023.19,-85.5665"/>
</g>
<!-- Node20&#45;&gt;Node8 -->
<g id="edge30" class="edge"><title>Node20&#45;&gt;Node8</title>
<path fill="none" stroke="midnightblue" d="M959.3,-57.1456C956.155,-56.7544 953.041,-56.3704 950,-56 816.035,-39.6797 656.049,-21.757 589.931,-14.4185"/>
<polygon fill="midnightblue" stroke="midnightblue" points="590.107,-10.9166 579.782,-13.2934 589.335,-17.874 590.107,-10.9166"/>
</g>
<!-- Node20&#45;&gt;Node17 -->
<g id="edge31" class="edge"><title>Node20&#45;&gt;Node17</title>
<path fill="none" stroke="midnightblue" d="M1034.3,-56.324C1048.18,-47.9002 1069.49,-34.9709 1085.8,-25.0741"/>
<polygon fill="midnightblue" stroke="midnightblue" points="1088,-27.8341 1094.74,-19.6545 1084.37,-21.8495 1088,-27.8341"/>
</g>
<!-- Node21 -->
<g id="node21" class="node"><title>Node21</title>
<polygon fill="none" stroke="#bfbfbf" points="842,-0.5 842,-19.5 898,-19.5 898,-0.5 842,-0.5"/>
<text text-anchor="middle" x="870" y="-7.5" font-family="Helvetica,sans-Serif" font-size="10.00">Rtypes.h</text>
</g>
<!-- Node20&#45;&gt;Node21 -->
<g id="edge29" class="edge"><title>Node20&#45;&gt;Node21</title>
<path fill="none" stroke="midnightblue" d="M996.232,-56.4435C971.107,-47.3986 931.289,-33.064 903.1,-22.9158"/>
<polygon fill="midnightblue" stroke="midnightblue" points="904.251,-19.6106 893.657,-19.5164 901.88,-26.1968 904.251,-19.6106"/>
</g>
<!-- Node22&#45;&gt;Node8 -->
<g id="edge33" class="edge"><title>Node22&#45;&gt;Node8</title>
<path fill="none" stroke="midnightblue" d="M740.325,-117.887C724.12,-103.744 690.098,-75.2508 658,-56 635.877,-42.7313 609.166,-30.8069 589.067,-22.5718"/>
<polygon fill="midnightblue" stroke="midnightblue" points="590.365,-19.3213 579.781,-18.8358 587.752,-25.8154 590.365,-19.3213"/>
</g>
<!-- Node22&#45;&gt;Node17 -->
<g id="edge34" class="edge"><title>Node22&#45;&gt;Node17</title>
<path fill="none" stroke="midnightblue" d="M797.932,-117.96C809.714,-115.934 822.303,-113.832 834,-112 890.757,-103.113 1046.55,-113.58 1090,-76 1103.18,-64.6008 1107.47,-44.6122 1108.74,-29.8017"/>
<polygon fill="midnightblue" stroke="midnightblue" points="1112.24,-29.8696 1109.23,-19.7133 1105.25,-29.5341 1112.24,-29.8696"/>
</g>
<!-- Node22&#45;&gt;Node18 -->
<g id="edge36" class="edge"><title>Node22&#45;&gt;Node18</title>
<path fill="none" stroke="midnightblue" d="M773.211,-117.975C800.999,-107.769 847.723,-90.608 879.194,-79.0492"/>
<polygon fill="midnightblue" stroke="midnightblue" points="880.652,-82.2422 888.832,-75.5091 878.239,-75.6714 880.652,-82.2422"/>
</g>
<!-- Node22&#45;&gt;Node19 -->
<g id="edge37" class="edge"><title>Node22&#45;&gt;Node19</title>
<path fill="none" stroke="midnightblue" d="M758.023,-117.975C766.59,-108.873 780.361,-94.241 790.957,-82.983"/>
<polygon fill="midnightblue" stroke="midnightblue" points="793.686,-85.1899 797.991,-75.5091 788.589,-80.3923 793.686,-85.1899"/>
</g>
<!-- Node22&#45;&gt;Node21 -->
<g id="edge35" class="edge"><title>Node22&#45;&gt;Node21</title>
<path fill="none" stroke="midnightblue" d="M744.98,-117.776C737.486,-103.472 725.613,-74.7532 739,-56 759.872,-26.7615 800.993,-16.3234 831.623,-12.7003"/>
<polygon fill="midnightblue" stroke="midnightblue" points="832.36,-16.1448 841.969,-11.6833 831.675,-9.17837 832.36,-16.1448"/>
</g>
</g>
</svg>
        <g id="navigator" transform="translate(0 0)" fill="#404254">
                <rect fill="#f2f5e9" fill-opacity="0.5" stroke="#606060" stroke-width=".5" x="0" y="0" width="60" height="60"/>
                <use id="zoomplus" xlink:href="#zoomPlus" x="17" y="9" onmousedown="handleZoom(evt,'in')"/>
                <use id="zoomminus" xlink:href="#zoomMin" x="42" y="9" onmousedown="handleZoom(evt,'out')"/>
                <use id="reset" xlink:href="#resetDef" x="30" y="36" onmousedown="handleReset()"/>
                <g id="arrowUp" xlink:href="#dirArrow" transform="translate(30 24)" onmousedown="handlePan(0,-1)">
                  <use xlink:href="#rim" fill="#404040">
                        <set attributeName="fill" to="#808080" begin="arrowUp.mouseover" end="arrowUp.mouseout"/>
                  </use>
                  <path fill="none" stroke="white" stroke-width="1.5" d="M0,-3.0v7 M-2.5,-0.5L0,-3.0L2.5,-0.5"/>
                </g>
                <g id="arrowRight" xlink:href="#dirArrow" transform="rotate(90) translate(36 -43)" onmousedown="handlePan(1,0)">
                  <use xlink:href="#rim" fill="#404040">
                        <set attributeName="fill" to="#808080" begin="arrowRight.mouseover" end="arrowRight.mouseout"/>
                  </use>
                  <path fill="none" stroke="white" stroke-width="1.5" d="M0,-3.0v7 M-2.5,-0.5L0,-3.0L2.5,-0.5"/>
                </g>
                <g id="arrowDown" xlink:href="#dirArrow" transform="rotate(180) translate(-30 -48)" onmousedown="handlePan(0,1)">
                  <use xlink:href="#rim" fill="#404040">
                        <set attributeName="fill" to="#808080" begin="arrowDown.mouseover" end="arrowDown.mouseout"/>
                  </use>
                  <path fill="none" stroke="white" stroke-width="1.5" d="M0,-3.0v7 M-2.5,-0.5L0,-3.0L2.5,-0.5"/>
                </g>
                <g id="arrowLeft" xlink:href="#dirArrow" transform="rotate(270) translate(-36 17)" onmousedown="handlePan(-1,0)">
                  <use xlink:href="#rim" fill="#404040">
                        <set attributeName="fill" to="#808080" begin="arrowLeft.mouseover" end="arrowLeft.mouseout"/>
                  </use>
                  <path fill="none" stroke="white" stroke-width="1.5" d="M0,-3.0v7 M-2.5,-0.5L0,-3.0L2.5,-0.5"/>
                </g>
        </g>
        <svg viewBox="0 0 15 15" width="100%" height="30px" preserveAspectRatio="xMaxYMin meet">
         <g id="arrow_out" transform="scale(0.3 0.3)">
          <a xlink:href="testPostProcessingRunner_8cxx__incl_org.svg" target="_base">
           <rect id="button" ry="5" rx="5" y="6" x="6" height="38" width="38"
                fill="#f2f5e9" fill-opacity="0.5" stroke="#606060" stroke-width="1.0"/>
           <path id="arrow"
             d="M 11.500037,31.436501 C 11.940474,20.09759 22.043105,11.32322 32.158766,21.979434 L 37.068811,17.246167 C 37.068811,17.246167 37.088388,32 37.088388,32 L 22.160133,31.978069 C 22.160133,31.978069 26.997745,27.140456 26.997745,27.140456 C 18.528582,18.264221 13.291696,25.230495 11.500037,31.436501 z"
             style="fill:#404040;"/>
          </a>
         </g>
        </svg>
</svg>
