<?xml version="1.0" encoding="UTF-8" standalone="no"?>
<!DOCTYPE svg PUBLIC "-//W3C//DTD SVG 1.1//EN"
 "http://www.w3.org/Graphics/SVG/1.1/DTD/svg11.dtd">
<!-- Generated by graphviz version 2.38.0 (20140413.2041)
 -->
<!-- Title: Framework/test/testCheck.cxx Pages: 1 -->
<svg width="1823pt" height="319pt"
 viewBox="0.00 0.00 1822.81 319.00" xmlns="http://www.w3.org/2000/svg" xmlns:xlink="http://www.w3.org/1999/xlink">
<g id="graph0" class="graph" transform="scale(1 1) rotate(0) translate(4 315)">
<title>Framework/test/testCheck.cxx</title>
<!-- Node1 -->
<g id="node1" class="node"><title>Node1</title>
<polygon fill="#bfbfbf" stroke="black" points="1304.31,-291.5 1304.31,-310.5 1456.31,-310.5 1456.31,-291.5 1304.31,-291.5"/>
<text text-anchor="middle" x="1380.31" y="-298.5" font-family="Helvetica,sans-Serif" font-size="10.00">Framework/test/testCheck.cxx</text>
</g>
<!-- Node2 -->
<g id="node2" class="node"><title>Node2</title>
<g id="a_node2"><a xlink:href="CheckRunnerFactory_8h.html" target="_top" xlink:title="QualityControl/CheckRunner\lFactory.h">
<polygon fill="none" stroke="black" points="344.31,-224.5 344.31,-254.5 486.31,-254.5 486.31,-224.5 344.31,-224.5"/>
<text text-anchor="start" x="352.31" y="-242.5" font-family="Helvetica,sans-Serif" font-size="10.00">QualityControl/CheckRunner</text>
<text text-anchor="middle" x="415.31" y="-231.5" font-family="Helvetica,sans-Serif" font-size="10.00">Factory.h</text>
</a>
</g>
</g>
<!-- Node1&#45;&gt;Node2 -->
<g id="edge1" class="edge"><title>Node1&#45;&gt;Node2</title>
<path fill="none" stroke="midnightblue" d="M1304.18,-295.306C1125.43,-284.284 680.106,-256.827 496.462,-245.504"/>
<polygon fill="midnightblue" stroke="midnightblue" points="496.527,-242.001 486.33,-244.879 496.096,-248.988 496.527,-242.001"/>
</g>
<!-- Node16 -->
<g id="node16" class="node"><title>Node16</title>
<polygon fill="none" stroke="#bfbfbf" points="1144.31,-0.5 1144.31,-19.5 1260.31,-19.5 1260.31,-0.5 1144.31,-0.5"/>
<text text-anchor="middle" x="1202.31" y="-7.5" font-family="Helvetica,sans-Serif" font-size="10.00">Common/Exceptions.h</text>
</g>
<!-- Node1&#45;&gt;Node16 -->
<g id="edge42" class="edge"><title>Node1&#45;&gt;Node16</title>
<path fill="none" stroke="midnightblue" d="M1359.79,-291.367C1344.49,-283.906 1324.27,-271.685 1312.31,-255 1291.97,-226.609 1292.31,-213.928 1292.31,-179 1292.31,-179 1292.31,-179 1292.31,-121 1292.31,-78.6577 1251.87,-43.6551 1225.21,-25.1778"/>
<polygon fill="midnightblue" stroke="midnightblue" points="1227.03,-22.1893 1216.77,-19.5584 1223.15,-28.0152 1227.03,-22.1893"/>
</g>
<!-- Node17 -->
<g id="node17" class="node"><title>Node17</title>
<g id="a_node17"><a xlink:href="MonitorObject_8h.html" target="_top" xlink:title="QualityControl/MonitorObject.h">
<polygon fill="none" stroke="black" points="714.81,-56.5 714.81,-75.5 865.81,-75.5 865.81,-56.5 714.81,-56.5"/>
<text text-anchor="middle" x="790.31" y="-63.5" font-family="Helvetica,sans-Serif" font-size="10.00">QualityControl/MonitorObject.h</text>
</a>
</g>
</g>
<!-- Node1&#45;&gt;Node17 -->
<g id="edge39" class="edge"><title>Node1&#45;&gt;Node17</title>
<path fill="none" stroke="midnightblue" d="M1358.9,-291.356C1338.04,-282.748 1305.57,-268.854 1278.31,-255 1165.22,-197.536 1150.26,-156.055 1031.31,-112 1000.32,-100.524 918.27,-86.4149 858.494,-77.0884"/>
<polygon fill="midnightblue" stroke="midnightblue" points="858.775,-73.5904 848.358,-75.5192 857.704,-80.508 858.775,-73.5904"/>
</g>
<!-- Node22 -->
<g id="node22" class="node"><title>Node22</title>
<polygon fill="none" stroke="#bfbfbf" points="1320.81,-230 1320.81,-249 1439.81,-249 1439.81,-230 1320.81,-230"/>
<text text-anchor="middle" x="1380.31" y="-237" font-family="Helvetica,sans-Serif" font-size="10.00">getTestDataDirectory.h</text>
</g>
<!-- Node1&#45;&gt;Node22 -->
<g id="edge40" class="edge"><title>Node1&#45;&gt;Node22</title>
<path fill="none" stroke="midnightblue" d="M1380.31,-291.475C1380.31,-283.08 1380.31,-269.981 1380.31,-259.163"/>
<polygon fill="midnightblue" stroke="midnightblue" points="1383.81,-259.009 1380.31,-249.009 1376.81,-259.009 1383.81,-259.009"/>
</g>
<!-- Node23 -->
<g id="node23" class="node"><title>Node23</title>
<polygon fill="none" stroke="#bfbfbf" points="1457.81,-230 1457.81,-249 1608.81,-249 1608.81,-230 1457.81,-230"/>
<text text-anchor="middle" x="1533.31" y="-237" font-family="Helvetica,sans-Serif" font-size="10.00">DataSampling/DataSampling.h</text>
</g>
<!-- Node1&#45;&gt;Node23 -->
<g id="edge41" class="edge"><title>Node1&#45;&gt;Node23</title>
<path fill="none" stroke="midnightblue" d="M1402.23,-291.475C1428.36,-281.313 1472.22,-264.256 1501.94,-252.7"/>
<polygon fill="midnightblue" stroke="midnightblue" points="1503.38,-255.896 1511.43,-249.009 1500.84,-249.372 1503.38,-255.896"/>
</g>
<!-- Node24 -->
<g id="node24" class="node"><title>Node24</title>
<polygon fill="none" stroke="#bfbfbf" points="1627.31,-230 1627.31,-249 1677.31,-249 1677.31,-230 1627.31,-230"/>
<text text-anchor="middle" x="1652.31" y="-237" font-family="Helvetica,sans-Serif" font-size="10.00">TH1F.h</text>
</g>
<!-- Node1&#45;&gt;Node24 -->
<g id="edge43" class="edge"><title>Node1&#45;&gt;Node24</title>
<path fill="none" stroke="midnightblue" d="M1446.13,-291.467C1494.43,-284.265 1561.28,-272.33 1618.31,-255 1620.45,-254.348 1622.65,-253.604 1624.84,-252.805"/>
<polygon fill="midnightblue" stroke="midnightblue" points="1626.23,-256.017 1634.23,-249.068 1623.64,-249.513 1626.23,-256.017"/>
</g>
<!-- Node25 -->
<g id="node25" class="node"><title>Node25</title>
<polygon fill="none" stroke="#bfbfbf" points="1695.81,-230 1695.81,-249 1814.81,-249 1814.81,-230 1695.81,-230"/>
<text text-anchor="middle" x="1755.31" y="-237" font-family="Helvetica,sans-Serif" font-size="10.00">boost/test/unit_test.hpp</text>
</g>
<!-- Node1&#45;&gt;Node25 -->
<g id="edge44" class="edge"><title>Node1&#45;&gt;Node25</title>
<path fill="none" stroke="midnightblue" d="M1446.46,-291.461C1508.56,-283.162 1603.98,-269.69 1686.31,-255 1692.95,-253.815 1699.93,-252.469 1706.79,-251.086"/>
<polygon fill="midnightblue" stroke="midnightblue" points="1707.62,-254.488 1716.71,-249.046 1706.21,-247.632 1707.62,-254.488"/>
</g>
<!-- Node3 -->
<g id="node3" class="node"><title>Node3</title>
<polygon fill="none" stroke="#bfbfbf" points="449.81,-0.5 449.81,-19.5 490.81,-19.5 490.81,-0.5 449.81,-0.5"/>
<text text-anchor="middle" x="470.31" y="-7.5" font-family="Helvetica,sans-Serif" font-size="10.00">string</text>
</g>
<!-- Node2&#45;&gt;Node3 -->
<g id="edge2" class="edge"><title>Node2&#45;&gt;Node3</title>
<path fill="none" stroke="midnightblue" d="M344.276,-239.175C207.518,-238.049 -71.3449,-222.597 17.3095,-112 70.7562,-45.3247 346.602,-19.8019 439.632,-13.0094"/>
<polygon fill="midnightblue" stroke="midnightblue" points="440.07,-16.4872 449.797,-12.2892 439.575,-9.50471 440.07,-16.4872"/>
</g>
<!-- Node4 -->
<g id="node4" class="node"><title>Node4</title>
<polygon fill="none" stroke="#bfbfbf" points="26.3095,-112.5 26.3095,-131.5 190.31,-131.5 190.31,-112.5 26.3095,-112.5"/>
<text text-anchor="middle" x="108.31" y="-119.5" font-family="Helvetica,sans-Serif" font-size="10.00">Framework/DataProcessorSpec.h</text>
</g>
<!-- Node2&#45;&gt;Node4 -->
<g id="edge3" class="edge"><title>Node2&#45;&gt;Node4</title>
<path fill="none" stroke="midnightblue" d="M377.972,-224.453C317.222,-201.597 198.011,-156.748 140.652,-135.168"/>
<polygon fill="midnightblue" stroke="midnightblue" points="141.607,-131.788 131.015,-131.542 139.142,-138.339 141.607,-131.788"/>
</g>
<!-- Node5 -->
<g id="node5" class="node"><title>Node5</title>
<polygon fill="none" stroke="#bfbfbf" points="338.81,-168.5 338.81,-187.5 491.81,-187.5 491.81,-168.5 338.81,-168.5"/>
<text text-anchor="middle" x="415.31" y="-175.5" font-family="Helvetica,sans-Serif" font-size="10.00">Framework/CompletionPolicy.h</text>
</g>
<!-- Node2&#45;&gt;Node5 -->
<g id="edge4" class="edge"><title>Node2&#45;&gt;Node5</title>
<path fill="none" stroke="midnightblue" d="M415.31,-224.399C415.31,-216.466 415.31,-206.458 415.31,-197.858"/>
<polygon fill="midnightblue" stroke="midnightblue" points="418.81,-197.658 415.31,-187.658 411.81,-197.658 418.81,-197.658"/>
</g>
<!-- Node6 -->
<g id="node6" class="node"><title>Node6</title>
<g id="a_node6"><a xlink:href="Check_8h_source.html" target="_top" xlink:title="QualityControl/Check.h">
<polygon fill="none" stroke="black" points="576.81,-168.5 576.81,-187.5 695.81,-187.5 695.81,-168.5 576.81,-168.5"/>
<text text-anchor="middle" x="636.31" y="-175.5" font-family="Helvetica,sans-Serif" font-size="10.00">QualityControl/Check.h</text>
</a>
</g>
</g>
<!-- Node2&#45;&gt;Node6 -->
<g id="edge5" class="edge"><title>Node2&#45;&gt;Node6</title>
<path fill="none" stroke="midnightblue" d="M467.404,-224.475C506.363,-213.986 558.916,-199.837 594.999,-190.122"/>
<polygon fill="midnightblue" stroke="midnightblue" points="595.968,-193.486 604.714,-187.506 594.148,-186.727 595.968,-193.486"/>
</g>
<!-- Node6&#45;&gt;Node4 -->
<g id="edge11" class="edge"><title>Node6&#45;&gt;Node4</title>
<path fill="none" stroke="midnightblue" d="M576.768,-170.91C485.192,-161.545 309.049,-143.53 200.779,-132.457"/>
<polygon fill="midnightblue" stroke="midnightblue" points="200.823,-128.943 190.519,-131.408 200.111,-135.907 200.823,-128.943"/>
</g>
<!-- Node7 -->
<g id="node7" class="node"><title>Node7</title>
<polygon fill="none" stroke="#bfbfbf" points="664.81,-112.5 664.81,-131.5 723.81,-131.5 723.81,-112.5 664.81,-112.5"/>
<text text-anchor="middle" x="694.31" y="-119.5" font-family="Helvetica,sans-Serif" font-size="10.00">functional</text>
</g>
<!-- Node6&#45;&gt;Node7 -->
<g id="edge6" class="edge"><title>Node6&#45;&gt;Node7</title>
<path fill="none" stroke="midnightblue" d="M645.628,-168.324C654.202,-160.341 667.122,-148.313 677.497,-138.653"/>
<polygon fill="midnightblue" stroke="midnightblue" points="679.887,-141.21 684.821,-131.834 675.117,-136.086 679.887,-141.21"/>
</g>
<!-- Node8 -->
<g id="node8" class="node"><title>Node8</title>
<polygon fill="none" stroke="#bfbfbf" points="772.81,-0.5 772.81,-19.5 807.81,-19.5 807.81,-0.5 772.81,-0.5"/>
<text text-anchor="middle" x="790.31" y="-7.5" font-family="Helvetica,sans-Serif" font-size="10.00">map</text>
</g>
<!-- Node6&#45;&gt;Node8 -->
<g id="edge7" class="edge"><title>Node6&#45;&gt;Node8</title>
<path fill="none" stroke="midnightblue" d="M695.941,-174.506C800.833,-169.502 1009.39,-156.556 1031.31,-132 1043.62,-118.205 1046.21,-80.0505 1023.31,-56 995.475,-26.7707 873.755,-15.9231 818.172,-12.442"/>
<polygon fill="midnightblue" stroke="midnightblue" points="818.173,-8.93609 807.984,-11.8407 817.761,-15.9239 818.173,-8.93609"/>
</g>
<!-- Node9 -->
<g id="node9" class="node"><title>Node9</title>
<polygon fill="none" stroke="#bfbfbf" points="742.31,-112.5 742.31,-131.5 786.31,-131.5 786.31,-112.5 742.31,-112.5"/>
<text text-anchor="middle" x="764.31" y="-119.5" font-family="Helvetica,sans-Serif" font-size="10.00">vector</text>
</g>
<!-- Node6&#45;&gt;Node9 -->
<g id="edge8" class="edge"><title>Node6&#45;&gt;Node9</title>
<path fill="none" stroke="midnightblue" d="M656.592,-168.444C677.657,-159.557 710.826,-145.563 734.795,-135.451"/>
<polygon fill="midnightblue" stroke="midnightblue" points="736.269,-138.628 744.122,-131.516 733.548,-132.179 736.269,-138.628"/>
</g>
<!-- Node10 -->
<g id="node10" class="node"><title>Node10</title>
<polygon fill="none" stroke="#bfbfbf" points="804.31,-112.5 804.31,-131.5 856.31,-131.5 856.31,-112.5 804.31,-112.5"/>
<text text-anchor="middle" x="830.31" y="-119.5" font-family="Helvetica,sans-Serif" font-size="10.00">memory</text>
</g>
<!-- Node6&#45;&gt;Node10 -->
<g id="edge9" class="edge"><title>Node6&#45;&gt;Node10</title>
<path fill="none" stroke="midnightblue" d="M667.049,-168.444C701.621,-158.821 757.702,-143.21 794.298,-133.024"/>
<polygon fill="midnightblue" stroke="midnightblue" points="795.373,-136.358 804.069,-130.304 793.496,-129.614 795.373,-136.358"/>
</g>
<!-- Node11 -->
<g id="node11" class="node"><title>Node11</title>
<polygon fill="none" stroke="#bfbfbf" points="342.81,-56.5 342.81,-75.5 425.81,-75.5 425.81,-56.5 342.81,-56.5"/>
<text text-anchor="middle" x="384.31" y="-63.5" font-family="Helvetica,sans-Serif" font-size="10.00">unordered_map</text>
</g>
<!-- Node6&#45;&gt;Node11 -->
<g id="edge10" class="edge"><title>Node6&#45;&gt;Node11</title>
<path fill="none" stroke="midnightblue" d="M576.787,-172.502C516.347,-166.742 428.213,-154.675 403.31,-132 390.425,-120.268 386.091,-100.332 384.725,-85.6247"/>
<polygon fill="midnightblue" stroke="midnightblue" points="388.219,-85.4093 384.168,-75.6197 381.23,-85.799 388.219,-85.4093"/>
</g>
<!-- Node12 -->
<g id="node12" class="node"><title>Node12</title>
<g id="a_node12"><a xlink:href="Quality_8h.html" target="_top" xlink:title="QualityControl/Quality.h">
<polygon fill="none" stroke="black" points="536.81,-56.5 536.81,-75.5 657.81,-75.5 657.81,-56.5 536.81,-56.5"/>
<text text-anchor="middle" x="597.31" y="-63.5" font-family="Helvetica,sans-Serif" font-size="10.00">QualityControl/Quality.h</text>
</a>
</g>
</g>
<!-- Node6&#45;&gt;Node12 -->
<g id="edge12" class="edge"><title>Node6&#45;&gt;Node12</title>
<path fill="none" stroke="midnightblue" d="M633.249,-168.368C626.927,-150.537 612.305,-109.295 603.788,-85.2717"/>
<polygon fill="midnightblue" stroke="midnightblue" points="606.996,-83.847 600.356,-75.5914 600.398,-86.1862 606.996,-83.847"/>
</g>
<!-- Node14 -->
<g id="node14" class="node"><title>Node14</title>
<g id="a_node14"><a xlink:href="QualityObject_8h_source.html" target="_top" xlink:title="QualityControl/QualityObject.h">
<polygon fill="none" stroke="black" points="1115.81,-112.5 1115.81,-131.5 1264.81,-131.5 1264.81,-112.5 1115.81,-112.5"/>
<text text-anchor="middle" x="1190.31" y="-119.5" font-family="Helvetica,sans-Serif" font-size="10.00">QualityControl/QualityObject.h</text>
</a>
</g>
</g>
<!-- Node6&#45;&gt;Node14 -->
<g id="edge16" class="edge"><title>Node6&#45;&gt;Node14</title>
<path fill="none" stroke="midnightblue" d="M695.904,-171.354C784.534,-162.932 956.32,-146.514 1102.31,-132 1103.25,-131.907 1104.19,-131.813 1105.13,-131.719"/>
<polygon fill="midnightblue" stroke="midnightblue" points="1105.82,-135.168 1115.42,-130.688 1105.12,-128.203 1105.82,-135.168"/>
</g>
<!-- Node6&#45;&gt;Node17 -->
<g id="edge21" class="edge"><title>Node6&#45;&gt;Node17</title>
<path fill="none" stroke="midnightblue" d="M636.411,-168.165C637.052,-154.343 640.301,-127.58 655.31,-112 671.36,-95.3386 693.731,-84.8452 715.652,-78.2368"/>
<polygon fill="midnightblue" stroke="midnightblue" points="716.632,-81.5972 725.332,-75.5509 714.76,-74.852 716.632,-81.5972"/>
</g>
<!-- Node18 -->
<g id="node18" class="node"><title>Node18</title>
<g id="a_node18"><a xlink:href="CheckInterface_8h.html" target="_top" xlink:title="QualityControl/CheckInterface.h">
<polygon fill="none" stroke="black" points="412.81,-112.5 412.81,-131.5 569.81,-131.5 569.81,-112.5 412.81,-112.5"/>
<text text-anchor="middle" x="491.31" y="-119.5" font-family="Helvetica,sans-Serif" font-size="10.00">QualityControl/CheckInterface.h</text>
</a>
</g>
</g>
<!-- Node6&#45;&gt;Node18 -->
<g id="edge27" class="edge"><title>Node6&#45;&gt;Node18</title>
<path fill="none" stroke="midnightblue" d="M613.334,-168.444C589.153,-159.438 550.891,-145.189 523.663,-135.049"/>
<polygon fill="midnightblue" stroke="midnightblue" points="524.77,-131.727 514.178,-131.516 522.327,-138.286 524.77,-131.727"/>
</g>
<!-- Node19 -->
<g id="node19" class="node"><title>Node19</title>
<g id="a_node19"><a xlink:href="QcInfoLogger_8h.html" target="_top" xlink:title="QualityControl/QcInfoLogger.h">
<polygon fill="none" stroke="black" points="873.81,-112.5 873.81,-131.5 1022.81,-131.5 1022.81,-112.5 873.81,-112.5"/>
<text text-anchor="middle" x="948.31" y="-119.5" font-family="Helvetica,sans-Serif" font-size="10.00">QualityControl/QcInfoLogger.h</text>
</a>
</g>
</g>
<!-- Node6&#45;&gt;Node19 -->
<g id="edge34" class="edge"><title>Node6&#45;&gt;Node19</title>
<path fill="none" stroke="midnightblue" d="M685.747,-168.444C740.973,-158.885 830.33,-143.419 889.204,-133.23"/>
<polygon fill="midnightblue" stroke="midnightblue" points="889.847,-136.671 899.103,-131.516 888.653,-129.773 889.847,-136.671"/>
</g>
<!-- Node21 -->
<g id="node21" class="node"><title>Node21</title>
<g id="a_node21"><a xlink:href="CheckConfig_8h.html" target="_top" xlink:title="QualityControl/CheckConfig.h">
<polygon fill="none" stroke="black" points="208.81,-112.5 208.81,-131.5 355.81,-131.5 355.81,-112.5 208.81,-112.5"/>
<text text-anchor="middle" x="282.31" y="-119.5" font-family="Helvetica,sans-Serif" font-size="10.00">QualityControl/CheckConfig.h</text>
</a>
</g>
</g>
<!-- Node6&#45;&gt;Node21 -->
<g id="edge36" class="edge"><title>Node6&#45;&gt;Node21</title>
<path fill="none" stroke="midnightblue" d="M580.217,-168.444C517.168,-158.826 414.912,-143.228 348.133,-133.041"/>
<polygon fill="midnightblue" stroke="midnightblue" points="348.553,-129.565 338.139,-131.516 347.497,-136.484 348.553,-129.565"/>
</g>
<!-- Node12&#45;&gt;Node3 -->
<g id="edge14" class="edge"><title>Node12&#45;&gt;Node3</title>
<path fill="none" stroke="midnightblue" d="M577.186,-56.4435C556.285,-47.5566 523.375,-33.5632 499.593,-23.4514"/>
<polygon fill="midnightblue" stroke="midnightblue" points="500.911,-20.2085 490.339,-19.5164 498.172,-26.6504 500.911,-20.2085"/>
</g>
<!-- Node12&#45;&gt;Node8 -->
<g id="edge15" class="edge"><title>Node12&#45;&gt;Node8</title>
<path fill="none" stroke="midnightblue" d="M627.891,-56.4435C665.04,-46.0496 727.153,-28.6707 762.839,-18.6861"/>
<polygon fill="midnightblue" stroke="midnightblue" points="763.897,-22.0244 772.585,-15.9593 762.011,-15.2833 763.897,-22.0244"/>
</g>
<!-- Node13 -->
<g id="node13" class="node"><title>Node13</title>
<polygon fill="none" stroke="#bfbfbf" points="569.31,-0.5 569.31,-19.5 625.31,-19.5 625.31,-0.5 569.31,-0.5"/>
<text text-anchor="middle" x="597.31" y="-7.5" font-family="Helvetica,sans-Serif" font-size="10.00">Rtypes.h</text>
</g>
<!-- Node12&#45;&gt;Node13 -->
<g id="edge13" class="edge"><title>Node12&#45;&gt;Node13</title>
<path fill="none" stroke="midnightblue" d="M597.31,-56.083C597.31,-49.0059 597.31,-38.8611 597.31,-29.9865"/>
<polygon fill="midnightblue" stroke="midnightblue" points="600.81,-29.751 597.31,-19.7511 593.81,-29.7511 600.81,-29.751"/>
</g>
<!-- Node14&#45;&gt;Node8 -->
<g id="edge17" class="edge"><title>Node14&#45;&gt;Node8</title>
<path fill="none" stroke="midnightblue" d="M1181.5,-112.089C1166.64,-97.6532 1134.99,-69.422 1102.31,-56 1050.88,-34.8763 884.54,-18.936 818.099,-13.2582"/>
<polygon fill="midnightblue" stroke="midnightblue" points="818.226,-9.75667 807.968,-12.4062 817.64,-16.7321 818.226,-9.75667"/>
</g>
<!-- Node14&#45;&gt;Node12 -->
<g id="edge20" class="edge"><title>Node14&#45;&gt;Node12</title>
<path fill="none" stroke="midnightblue" d="M1115.81,-114.216C1000.73,-103.736 781.247,-83.7498 668.321,-73.4664"/>
<polygon fill="midnightblue" stroke="midnightblue" points="668.339,-69.9537 658.062,-72.5323 667.704,-76.9248 668.339,-69.9537"/>
</g>
<!-- Node15 -->
<g id="node15" class="node"><title>Node15</title>
<polygon fill="none" stroke="#bfbfbf" points="946.81,-0.5 946.81,-19.5 1005.81,-19.5 1005.81,-0.5 946.81,-0.5"/>
<text text-anchor="middle" x="976.31" y="-7.5" font-family="Helvetica,sans-Serif" font-size="10.00">TObject.h</text>
</g>
<!-- Node14&#45;&gt;Node15 -->
<g id="edge18" class="edge"><title>Node14&#45;&gt;Node15</title>
<path fill="none" stroke="midnightblue" d="M1186.07,-112.39C1178.73,-98.3876 1162.29,-70.765 1140.31,-56 1102.77,-30.7876 1051.45,-19.6361 1016.27,-14.7453"/>
<polygon fill="midnightblue" stroke="midnightblue" points="1016.27,-11.2166 1005.91,-13.4199 1015.38,-18.1601 1016.27,-11.2166"/>
</g>
<!-- Node14&#45;&gt;Node16 -->
<g id="edge19" class="edge"><title>Node14&#45;&gt;Node16</title>
<path fill="none" stroke="midnightblue" d="M1191.25,-112.368C1193.19,-94.617 1197.66,-53.6664 1200.28,-29.5974"/>
<polygon fill="midnightblue" stroke="midnightblue" points="1203.77,-29.912 1201.37,-19.5914 1196.81,-29.1528 1203.77,-29.912"/>
</g>
<!-- Node17&#45;&gt;Node3 -->
<g id="edge22" class="edge"><title>Node17&#45;&gt;Node3</title>
<path fill="none" stroke="midnightblue" d="M739.605,-56.4435C672.526,-45.124 556.353,-25.5199 501.152,-16.2047"/>
<polygon fill="midnightblue" stroke="midnightblue" points="501.4,-12.6972 490.957,-14.4843 500.236,-19.5996 501.4,-12.6972"/>
</g>
<!-- Node17&#45;&gt;Node8 -->
<g id="edge23" class="edge"><title>Node17&#45;&gt;Node8</title>
<path fill="none" stroke="midnightblue" d="M790.31,-56.083C790.31,-49.0059 790.31,-38.8611 790.31,-29.9865"/>
<polygon fill="midnightblue" stroke="midnightblue" points="793.81,-29.751 790.31,-19.7511 786.81,-29.7511 793.81,-29.751"/>
</g>
<!-- Node17&#45;&gt;Node13 -->
<g id="edge24" class="edge"><title>Node17&#45;&gt;Node13</title>
<path fill="none" stroke="midnightblue" d="M759.728,-56.4435C726.015,-47.0108 671.74,-31.8252 635.318,-21.6345"/>
<polygon fill="midnightblue" stroke="midnightblue" points="636.123,-18.2255 625.55,-18.9015 634.237,-24.9666 636.123,-18.2255"/>
</g>
<!-- Node17&#45;&gt;Node15 -->
<g id="edge25" class="edge"><title>Node17&#45;&gt;Node15</title>
<path fill="none" stroke="midnightblue" d="M819.782,-56.4435C851.481,-47.2406 902.042,-32.5617 937.084,-22.3879"/>
<polygon fill="midnightblue" stroke="midnightblue" points="938.348,-25.6658 946.975,-19.5164 936.396,-18.9434 938.348,-25.6658"/>
</g>
<!-- Node17&#45;&gt;Node16 -->
<g id="edge26" class="edge"><title>Node17&#45;&gt;Node16</title>
<path fill="none" stroke="midnightblue" d="M855.592,-56.4435C931.595,-46.482 1056.55,-30.1045 1133.88,-19.9696"/>
<polygon fill="midnightblue" stroke="midnightblue" points="1134.53,-23.4133 1143.99,-18.6433 1133.62,-16.4727 1134.53,-23.4133"/>
</g>
<!-- Node18&#45;&gt;Node3 -->
<g id="edge28" class="edge"><title>Node18&#45;&gt;Node3</title>
<path fill="none" stroke="midnightblue" d="M489.662,-112.368C486.273,-94.617 478.455,-53.6664 473.86,-29.5974"/>
<polygon fill="midnightblue" stroke="midnightblue" points="477.263,-28.7577 471.95,-19.5914 470.387,-30.0704 477.263,-28.7577"/>
</g>
<!-- Node18&#45;&gt;Node8 -->
<g id="edge29" class="edge"><title>Node18&#45;&gt;Node8</title>
<path fill="none" stroke="midnightblue" d="M536.062,-112.478C571.957,-104.937 623.27,-92.5575 666.31,-76 671.39,-74.0456 730.09,-42.9922 764.872,-24.5257"/>
<polygon fill="midnightblue" stroke="midnightblue" points="766.794,-27.4678 773.984,-19.6856 763.51,-21.2859 766.794,-27.4678"/>
</g>
<!-- Node18&#45;&gt;Node11 -->
<g id="edge30" class="edge"><title>Node18&#45;&gt;Node11</title>
<path fill="none" stroke="midnightblue" d="M474.118,-112.324C456.959,-103.664 430.364,-90.2424 410.562,-80.249"/>
<polygon fill="midnightblue" stroke="midnightblue" points="411.963,-77.0354 401.458,-75.6545 408.809,-83.2847 411.963,-77.0354"/>
</g>
<!-- Node18&#45;&gt;Node12 -->
<g id="edge33" class="edge"><title>Node18&#45;&gt;Node12</title>
<path fill="none" stroke="midnightblue" d="M508.34,-112.324C525.339,-103.664 551.686,-90.2424 571.302,-80.249"/>
<polygon fill="midnightblue" stroke="midnightblue" points="572.999,-83.3125 580.321,-75.6545 569.822,-77.0752 572.999,-83.3125"/>
</g>
<!-- Node18&#45;&gt;Node13 -->
<g id="edge31" class="edge"><title>Node18&#45;&gt;Node13</title>
<path fill="none" stroke="midnightblue" d="M494.572,-112.142C499.836,-98.7601 511.261,-73.1364 527.31,-56 539.345,-43.1482 555.787,-32.3341 569.711,-24.5304"/>
<polygon fill="midnightblue" stroke="midnightblue" points="571.706,-27.4321 578.863,-19.6207 568.397,-21.2636 571.706,-27.4321"/>
</g>
<!-- Node18&#45;&gt;Node17 -->
<g id="edge32" class="edge"><title>Node18&#45;&gt;Node17</title>
<path fill="none" stroke="midnightblue" d="M538.687,-112.444C591.394,-102.925 676.539,-87.5472 732.966,-77.3563"/>
<polygon fill="midnightblue" stroke="midnightblue" points="733.935,-80.7381 743.154,-75.5164 732.691,-73.8495 733.935,-80.7381"/>
</g>
<!-- Node20 -->
<g id="node20" class="node"><title>Node20</title>
<polygon fill="none" stroke="#bfbfbf" points="884.31,-56.5 884.31,-75.5 1014.31,-75.5 1014.31,-56.5 884.31,-56.5"/>
<text text-anchor="middle" x="949.31" y="-63.5" font-family="Helvetica,sans-Serif" font-size="10.00">InfoLogger/InfoLogger.hxx</text>
</g>
<!-- Node19&#45;&gt;Node20 -->
<g id="edge35" class="edge"><title>Node19&#45;&gt;Node20</title>
<path fill="none" stroke="midnightblue" d="M948.475,-112.083C948.606,-105.006 948.794,-94.8611 948.958,-85.9865"/>
<polygon fill="midnightblue" stroke="midnightblue" points="952.462,-85.8142 949.147,-75.7511 945.463,-85.6845 952.462,-85.8142"/>
</g>
<!-- Node21&#45;&gt;Node3 -->
<g id="edge37" class="edge"><title>Node21&#45;&gt;Node3</title>
<path fill="none" stroke="midnightblue" d="M287.015,-112.063C294.807,-98.1012 311.699,-71.1504 333.31,-56 365.625,-33.3452 410.09,-21.5278 439.489,-15.7913"/>
<polygon fill="midnightblue" stroke="midnightblue" points="440.381,-19.1863 449.588,-13.9441 439.121,-12.3005 440.381,-19.1863"/>
</g>
<!-- Node21&#45;&gt;Node11 -->
<g id="edge38" class="edge"><title>Node21&#45;&gt;Node11</title>
<path fill="none" stroke="midnightblue" d="M298.698,-112.324C314.981,-103.703 340.177,-90.3643 359.026,-80.3855"/>
<polygon fill="midnightblue" stroke="midnightblue" points="360.762,-83.4267 367.962,-75.6545 357.487,-77.2402 360.762,-83.4267"/>
</g>
</g>
</svg>
