<?xml version="1.0" encoding="UTF-8" standalone="no"?>
<!DOCTYPE svg PUBLIC "-//W3C//DTD SVG 1.1//EN"
 "http://www.w3.org/Graphics/SVG/1.1/DTD/svg11.dtd">
<!-- Generated by graphviz version 2.38.0 (20140413.2041)
 -->
<!-- Title: Framework/test/testPostProcessingInterface.cxx Pages: 1 -->
<svg width="834pt" height="240pt"
 viewBox="0.00 0.00 833.50 240.00" xmlns="http://www.w3.org/2000/svg" xmlns:xlink="http://www.w3.org/1999/xlink">
<g id="graph0" class="graph" transform="scale(1 1) rotate(0) translate(4 236)">
<title>Framework/test/testPostProcessingInterface.cxx</title>
<!-- Node1 -->
<g id="node1" class="node"><title>Node1</title>
<polygon fill="#bfbfbf" stroke="black" points="373.5,-201.5 373.5,-231.5 546.5,-231.5 546.5,-201.5 373.5,-201.5"/>
<text text-anchor="start" x="381.5" y="-219.5" font-family="Helvetica,sans-Serif" font-size="10.00">Framework/test/testPostProcessing</text>
<text text-anchor="middle" x="460" y="-208.5" font-family="Helvetica,sans-Serif" font-size="10.00">Interface.cxx</text>
</g>
<!-- Node2 -->
<g id="node2" class="node"><title>Node2</title>
<polygon fill="none" stroke="#bfbfbf" points="78.5,-140 78.5,-159 197.5,-159 197.5,-140 78.5,-140"/>
<text text-anchor="middle" x="138" y="-147" font-family="Helvetica,sans-Serif" font-size="10.00">getTestDataDirectory.h</text>
</g>
<!-- Node1&#45;&gt;Node2 -->
<g id="edge1" class="edge"><title>Node1&#45;&gt;Node2</title>
<path fill="none" stroke="midnightblue" d="M387.961,-201.453C337.083,-191.464 267.319,-177.633 206,-165 200.092,-163.783 193.9,-162.489 187.76,-161.193"/>
<polygon fill="midnightblue" stroke="midnightblue" points="188.042,-157.676 177.534,-159.027 186.591,-164.524 188.042,-157.676"/>
</g>
<!-- Node3 -->
<g id="node3" class="node"><title>Node3</title>
<g id="a_node3"><a xlink:href="PostProcessingInterface_8h.html" target="_top" xlink:title="QualityControl/PostProcessing\lInterface.h">
<polygon fill="none" stroke="black" points="215.5,-134.5 215.5,-164.5 366.5,-164.5 366.5,-134.5 215.5,-134.5"/>
<text text-anchor="start" x="223.5" y="-152.5" font-family="Helvetica,sans-Serif" font-size="10.00">QualityControl/PostProcessing</text>
<text text-anchor="middle" x="291" y="-141.5" font-family="Helvetica,sans-Serif" font-size="10.00">Interface.h</text>
</a>
</g>
</g>
<!-- Node1&#45;&gt;Node3 -->
<g id="edge2" class="edge"><title>Node1&#45;&gt;Node3</title>
<path fill="none" stroke="midnightblue" d="M423.33,-201.396C398.083,-191.686 364.343,-178.709 337.251,-168.289"/>
<polygon fill="midnightblue" stroke="midnightblue" points="338.189,-164.9 327.599,-164.577 335.676,-171.433 338.189,-164.9"/>
</g>
<!-- Node10 -->
<g id="node10" class="node"><title>Node10</title>
<g id="a_node10"><a xlink:href="PostProcessingFactory_8h.html" target="_top" xlink:title="QualityControl/PostProcessing\lFactory.h">
<polygon fill="none" stroke="black" points="384.5,-134.5 384.5,-164.5 535.5,-164.5 535.5,-134.5 384.5,-134.5"/>
<text text-anchor="start" x="392.5" y="-152.5" font-family="Helvetica,sans-Serif" font-size="10.00">QualityControl/PostProcessing</text>
<text text-anchor="middle" x="460" y="-141.5" font-family="Helvetica,sans-Serif" font-size="10.00">Factory.h</text>
</a>
</g>
</g>
<!-- Node1&#45;&gt;Node10 -->
<g id="edge10" class="edge"><title>Node1&#45;&gt;Node10</title>
<path fill="none" stroke="midnightblue" d="M460,-201.396C460,-193.645 460,-183.812 460,-174.86"/>
<polygon fill="midnightblue" stroke="midnightblue" points="463.5,-174.576 460,-164.577 456.5,-174.577 463.5,-174.576"/>
</g>
<!-- Node13 -->
<g id="node13" class="node"><title>Node13</title>
<polygon fill="none" stroke="#bfbfbf" points="553.5,-134.5 553.5,-164.5 688.5,-164.5 688.5,-134.5 553.5,-134.5"/>
<text text-anchor="start" x="561.5" y="-152.5" font-family="Helvetica,sans-Serif" font-size="10.00">Configuration/Configuration</text>
<text text-anchor="middle" x="621" y="-141.5" font-family="Helvetica,sans-Serif" font-size="10.00">Factory.h</text>
</g>
<!-- Node1&#45;&gt;Node13 -->
<g id="edge15" class="edge"><title>Node1&#45;&gt;Node13</title>
<path fill="none" stroke="midnightblue" d="M494.935,-201.396C518.881,-191.728 550.847,-178.823 576.598,-168.426"/>
<polygon fill="midnightblue" stroke="midnightblue" points="578.171,-171.566 586.134,-164.577 575.55,-165.075 578.171,-171.566"/>
</g>
<!-- Node14 -->
<g id="node14" class="node"><title>Node14</title>
<polygon fill="none" stroke="#bfbfbf" points="706.5,-140 706.5,-159 825.5,-159 825.5,-140 706.5,-140"/>
<text text-anchor="middle" x="766" y="-147" font-family="Helvetica,sans-Serif" font-size="10.00">boost/test/unit_test.hpp</text>
</g>
<!-- Node1&#45;&gt;Node14 -->
<g id="edge16" class="edge"><title>Node1&#45;&gt;Node14</title>
<path fill="none" stroke="midnightblue" d="M526.176,-201.477C573.933,-191.353 639.952,-177.347 698,-165 703.824,-163.761 709.928,-162.461 715.989,-161.17"/>
<polygon fill="midnightblue" stroke="midnightblue" points="717.039,-164.525 726.089,-159.017 715.579,-157.679 717.039,-164.525"/>
</g>
<!-- Node4 -->
<g id="node4" class="node"><title>Node4</title>
<polygon fill="none" stroke="#bfbfbf" points="289.5,-6 289.5,-25 330.5,-25 330.5,-6 289.5,-6"/>
<text text-anchor="middle" x="310" y="-13" font-family="Helvetica,sans-Serif" font-size="10.00">string</text>
</g>
<!-- Node3&#45;&gt;Node4 -->
<g id="edge3" class="edge"><title>Node3&#45;&gt;Node4</title>
<path fill="none" stroke="midnightblue" d="M293.033,-134.374C296.484,-110.397 303.487,-61.7476 307.329,-35.0561"/>
<polygon fill="midnightblue" stroke="midnightblue" points="310.802,-35.4939 308.763,-25.0973 303.873,-34.4966 310.802,-35.4939"/>
</g>
<!-- Node5 -->
<g id="node5" class="node"><title>Node5</title>
<polygon fill="none" stroke="#bfbfbf" points="0,-73 0,-92 146,-92 146,-73 0,-73"/>
<text text-anchor="middle" x="73" y="-80" font-family="Helvetica,sans-Serif" font-size="10.00">Framework/ServiceRegistry.h</text>
</g>
<!-- Node3&#45;&gt;Node5 -->
<g id="edge4" class="edge"><title>Node3&#45;&gt;Node5</title>
<path fill="none" stroke="midnightblue" d="M243.966,-134.476C204.379,-122.673 148.465,-106.001 111.498,-94.9789"/>
<polygon fill="midnightblue" stroke="midnightblue" points="112.187,-91.532 101.604,-92.0287 110.187,-98.2402 112.187,-91.532"/>
</g>
<!-- Node6 -->
<g id="node6" class="node"><title>Node6</title>
<polygon fill="none" stroke="#bfbfbf" points="348.5,-0.5 348.5,-30.5 449.5,-30.5 449.5,-0.5 348.5,-0.5"/>
<text text-anchor="start" x="356.5" y="-18.5" font-family="Helvetica,sans-Serif" font-size="10.00">boost/property_tree</text>
<text text-anchor="middle" x="399" y="-7.5" font-family="Helvetica,sans-Serif" font-size="10.00">/ptree_fwd.hpp</text>
</g>
<!-- Node3&#45;&gt;Node6 -->
<g id="edge5" class="edge"><title>Node3&#45;&gt;Node6</title>
<path fill="none" stroke="midnightblue" d="M302.558,-134.374C321.396,-111.349 358.85,-65.5717 381.134,-38.3361"/>
<polygon fill="midnightblue" stroke="midnightblue" points="383.902,-40.4807 387.525,-30.5247 378.484,-36.048 383.902,-40.4807"/>
</g>
<!-- Node7 -->
<g id="node7" class="node"><title>Node7</title>
<g id="a_node7"><a xlink:href="Triggers_8h.html" target="_top" xlink:title="QualityControl/Triggers.h">
<polygon fill="none" stroke="black" points="164.5,-73 164.5,-92 289.5,-92 289.5,-73 164.5,-73"/>
<text text-anchor="middle" x="227" y="-80" font-family="Helvetica,sans-Serif" font-size="10.00">QualityControl/Triggers.h</text>
</a>
</g>
</g>
<!-- Node3&#45;&gt;Node7 -->
<g id="edge6" class="edge"><title>Node3&#45;&gt;Node7</title>
<path fill="none" stroke="midnightblue" d="M277.113,-134.396C267.035,-124.161 253.384,-110.296 242.874,-99.622"/>
<polygon fill="midnightblue" stroke="midnightblue" points="245.071,-96.8646 235.561,-92.1945 240.083,-101.776 245.071,-96.8646"/>
</g>
<!-- Node7&#45;&gt;Node4 -->
<g id="edge7" class="edge"><title>Node7&#45;&gt;Node4</title>
<path fill="none" stroke="midnightblue" d="M238.194,-72.7338C251.634,-62.208 274.4,-44.3793 290.696,-31.6174"/>
<polygon fill="midnightblue" stroke="midnightblue" points="293.269,-34.0486 298.984,-25.1273 288.953,-28.5374 293.269,-34.0486"/>
</g>
<!-- Node8 -->
<g id="node8" class="node"><title>Node8</title>
<polygon fill="none" stroke="#bfbfbf" points="134.5,-6 134.5,-25 193.5,-25 193.5,-6 134.5,-6"/>
<text text-anchor="middle" x="164" y="-13" font-family="Helvetica,sans-Serif" font-size="10.00">functional</text>
</g>
<!-- Node7&#45;&gt;Node8 -->
<g id="edge8" class="edge"><title>Node7&#45;&gt;Node8</title>
<path fill="none" stroke="midnightblue" d="M218.504,-72.7338C208.491,-62.403 191.659,-45.0371 179.344,-32.3315"/>
<polygon fill="midnightblue" stroke="midnightblue" points="181.835,-29.8721 172.362,-25.1273 176.808,-34.7439 181.835,-29.8721"/>
</g>
<!-- Node9 -->
<g id="node9" class="node"><title>Node9</title>
<polygon fill="none" stroke="#bfbfbf" points="211.5,-6 211.5,-25 256.5,-25 256.5,-6 211.5,-6"/>
<text text-anchor="middle" x="234" y="-13" font-family="Helvetica,sans-Serif" font-size="10.00">iosfwd</text>
</g>
<!-- Node7&#45;&gt;Node9 -->
<g id="edge9" class="edge"><title>Node7&#45;&gt;Node9</title>
<path fill="none" stroke="midnightblue" d="M227.944,-72.7338C228.973,-63.1826 230.649,-47.6183 231.977,-35.2829"/>
<polygon fill="midnightblue" stroke="midnightblue" points="235.48,-35.4446 233.071,-25.1273 228.52,-34.695 235.48,-35.4446"/>
</g>
<!-- Node11 -->
<g id="node11" class="node"><title>Node11</title>
<g id="a_node11"><a xlink:href="PostProcessingConfig_8h.html" target="_top" xlink:title="QualityControl/PostProcessing\lConfig.h">
<polygon fill="none" stroke="black" points="384.5,-67.5 384.5,-97.5 535.5,-97.5 535.5,-67.5 384.5,-67.5"/>
<text text-anchor="start" x="392.5" y="-85.5" font-family="Helvetica,sans-Serif" font-size="10.00">QualityControl/PostProcessing</text>
<text text-anchor="middle" x="460" y="-74.5" font-family="Helvetica,sans-Serif" font-size="10.00">Config.h</text>
</a>
</g>
</g>
<!-- Node10&#45;&gt;Node11 -->
<g id="edge11" class="edge"><title>Node10&#45;&gt;Node11</title>
<path fill="none" stroke="midnightblue" d="M460,-134.396C460,-126.645 460,-116.812 460,-107.86"/>
<polygon fill="midnightblue" stroke="midnightblue" points="463.5,-107.576 460,-97.5765 456.5,-107.577 463.5,-107.576"/>
</g>
<!-- Node11&#45;&gt;Node4 -->
<g id="edge13" class="edge"><title>Node11&#45;&gt;Node4</title>
<path fill="none" stroke="midnightblue" d="M424.515,-67.4341C400.251,-57.6351 367.456,-44.0339 339,-31 338.002,-30.5429 336.988,-30.0713 335.966,-29.5901"/>
<polygon fill="midnightblue" stroke="midnightblue" points="337.299,-26.3468 326.774,-25.1301 334.243,-32.6446 337.299,-26.3468"/>
</g>
<!-- Node11&#45;&gt;Node6 -->
<g id="edge14" class="edge"><title>Node11&#45;&gt;Node6</title>
<path fill="none" stroke="midnightblue" d="M446.764,-67.396C438.69,-58.7931 428.211,-47.626 419.125,-37.9448"/>
<polygon fill="midnightblue" stroke="midnightblue" points="421.606,-35.4733 412.21,-30.5765 416.501,-40.2635 421.606,-35.4733"/>
</g>
<!-- Node12 -->
<g id="node12" class="node"><title>Node12</title>
<polygon fill="none" stroke="#bfbfbf" points="468,-6 468,-25 512,-25 512,-6 468,-6"/>
<text text-anchor="middle" x="490" y="-13" font-family="Helvetica,sans-Serif" font-size="10.00">vector</text>
</g>
<!-- Node11&#45;&gt;Node12 -->
<g id="edge12" class="edge"><title>Node11&#45;&gt;Node12</title>
<path fill="none" stroke="midnightblue" d="M466.51,-67.396C470.956,-57.7628 476.886,-44.9145 481.675,-34.5373"/>
<polygon fill="midnightblue" stroke="midnightblue" points="484.974,-35.7409 485.987,-25.1945 478.619,-32.8074 484.974,-35.7409"/>
</g>
</g>
</svg>
