<?xml version="1.0" encoding="UTF-8" standalone="no"?>
<!DOCTYPE svg PUBLIC "-//W3C//DTD SVG 1.1//EN"
 "http://www.w3.org/Graphics/SVG/1.1/DTD/svg11.dtd">
<!-- Generated by graphviz version 2.38.0 (20140413.2041)
 -->
<!-- Title: Framework/src/TrendingTask.cxx Pages: 1 -->
<svg width="1942pt" height="296pt"
 viewBox="0.00 0.00 1942.00 296.00" xmlns="http://www.w3.org/2000/svg" xmlns:xlink="http://www.w3.org/1999/xlink">
<g id="graph0" class="graph" transform="scale(1 1) rotate(0) translate(4 292)">
<title>Framework/src/TrendingTask.cxx</title>
<!-- Node1 -->
<g id="node1" class="node"><title>Node1</title>
<polygon fill="#bfbfbf" stroke="black" points="1343,-268.5 1343,-287.5 1506,-287.5 1506,-268.5 1343,-268.5"/>
<text text-anchor="middle" x="1424.5" y="-275.5" font-family="Helvetica,sans-Serif" font-size="10.00">Framework/src/TrendingTask.cxx</text>
</g>
<!-- Node2 -->
<g id="node2" class="node"><title>Node2</title>
<g id="a_node2"><a xlink:href="TrendingTask_8h.html" target="_top" xlink:title="QualityControl/TrendingTask.h">
<polygon fill="none" stroke="black" points="417,-207 417,-226 566,-226 566,-207 417,-207"/>
<text text-anchor="middle" x="491.5" y="-214" font-family="Helvetica,sans-Serif" font-size="10.00">QualityControl/TrendingTask.h</text>
</a>
</g>
</g>
<!-- Node1&#45;&gt;Node2 -->
<g id="edge1" class="edge"><title>Node1&#45;&gt;Node2</title>
<path fill="none" stroke="midnightblue" d="M1342.73,-275.024C1193.26,-270.87 866.049,-259.265 591.5,-232 579.43,-230.801 566.586,-229.193 554.265,-227.482"/>
<polygon fill="midnightblue" stroke="midnightblue" points="554.462,-223.975 544.068,-226.029 553.474,-230.905 554.462,-223.975"/>
</g>
<!-- Node13 -->
<g id="node13" class="node"><title>Node13</title>
<g id="a_node13"><a xlink:href="Reductor_8h.html" target="_top" xlink:title="QualityControl/Reductor.h">
<polygon fill="none" stroke="black" points="713.5,-140 713.5,-159 843.5,-159 843.5,-140 713.5,-140"/>
<text text-anchor="middle" x="778.5" y="-147" font-family="Helvetica,sans-Serif" font-size="10.00">QualityControl/Reductor.h</text>
</a>
</g>
</g>
<!-- Node1&#45;&gt;Node13 -->
<g id="edge44" class="edge"><title>Node1&#45;&gt;Node13</title>
<path fill="none" stroke="midnightblue" d="M1376.37,-268.49C1326.74,-259.646 1247.13,-245.268 1178.5,-232 1052.73,-207.686 905.157,-177.078 829.267,-161.184"/>
<polygon fill="midnightblue" stroke="midnightblue" points="829.549,-157.667 819.044,-159.041 828.113,-164.518 829.549,-157.667"/>
</g>
<!-- Node18 -->
<g id="node18" class="node"><title>Node18</title>
<g id="a_node18"><a xlink:href="QcInfoLogger_8h.html" target="_top" xlink:title="QualityControl/QcInfoLogger.h">
<polygon fill="none" stroke="black" points="1655,-140 1655,-159 1804,-159 1804,-140 1655,-140"/>
<text text-anchor="middle" x="1729.5" y="-147" font-family="Helvetica,sans-Serif" font-size="10.00">QualityControl/QcInfoLogger.h</text>
</a>
</g>
</g>
<!-- Node1&#45;&gt;Node18 -->
<g id="edge22" class="edge"><title>Node1&#45;&gt;Node18</title>
<path fill="none" stroke="midnightblue" d="M1417.82,-268.365C1406.79,-252.987 1387.57,-220.633 1404.5,-201 1440,-159.824 1592.83,-173.679 1646.5,-165 1654.7,-163.674 1663.34,-162.223 1671.83,-160.768"/>
<polygon fill="midnightblue" stroke="midnightblue" points="1672.44,-164.216 1681.69,-159.064 1671.24,-157.318 1672.44,-164.216"/>
</g>
<!-- Node20 -->
<g id="node20" class="node"><title>Node20</title>
<g id="a_node20"><a xlink:href="DatabaseInterface_8h.html" target="_top" xlink:title="QualityControl/DatabaseInterface.h">
<polygon fill="none" stroke="black" points="600.5,-207 600.5,-226 770.5,-226 770.5,-207 600.5,-207"/>
<text text-anchor="middle" x="685.5" y="-214" font-family="Helvetica,sans-Serif" font-size="10.00">QualityControl/DatabaseInterface.h</text>
</a>
</g>
</g>
<!-- Node1&#45;&gt;Node20 -->
<g id="edge24" class="edge"><title>Node1&#45;&gt;Node20</title>
<path fill="none" stroke="midnightblue" d="M1342.95,-270.434C1205.3,-259.351 927.578,-236.991 781.036,-225.192"/>
<polygon fill="midnightblue" stroke="midnightblue" points="780.964,-221.675 770.716,-224.361 780.402,-228.652 780.964,-221.675"/>
</g>
<!-- Node26 -->
<g id="node26" class="node"><title>Node26</title>
<g id="a_node26"><a xlink:href="MonitorObject_8h.html" target="_top" xlink:title="QualityControl/MonitorObject.h">
<polygon fill="none" stroke="black" points="1066,-140 1066,-159 1217,-159 1217,-140 1066,-140"/>
<text text-anchor="middle" x="1141.5" y="-147" font-family="Helvetica,sans-Serif" font-size="10.00">QualityControl/MonitorObject.h</text>
</a>
</g>
</g>
<!-- Node1&#45;&gt;Node26 -->
<g id="edge43" class="edge"><title>Node1&#45;&gt;Node26</title>
<path fill="none" stroke="midnightblue" d="M1342.65,-269.974C1303.74,-263.952 1257.71,-252.768 1220.5,-232 1191.81,-215.989 1166.98,-186.267 1153.16,-167.482"/>
<polygon fill="midnightblue" stroke="midnightblue" points="1155.94,-165.356 1147.28,-159.247 1150.24,-169.421 1155.94,-165.356"/>
</g>
<!-- Node27 -->
<g id="node27" class="node"><title>Node27</title>
<g id="a_node27"><a xlink:href="RootClassFactory_8h.html" target="_top" xlink:title="QualityControl/RootClass\lFactory.h">
<polygon fill="none" stroke="black" points="1229.5,-201.5 1229.5,-231.5 1357.5,-231.5 1357.5,-201.5 1229.5,-201.5"/>
<text text-anchor="start" x="1237.5" y="-219.5" font-family="Helvetica,sans-Serif" font-size="10.00">QualityControl/RootClass</text>
<text text-anchor="middle" x="1293.5" y="-208.5" font-family="Helvetica,sans-Serif" font-size="10.00">Factory.h</text>
</a>
</g>
</g>
<!-- Node1&#45;&gt;Node27 -->
<g id="edge45" class="edge"><title>Node1&#45;&gt;Node27</title>
<path fill="none" stroke="midnightblue" d="M1405.73,-268.475C1386.99,-259.965 1357.61,-246.619 1333.61,-235.718"/>
<polygon fill="midnightblue" stroke="midnightblue" points="1334.93,-232.472 1324.37,-231.523 1332.03,-238.845 1334.93,-232.472"/>
</g>
<!-- Node32 -->
<g id="node32" class="node"><title>Node32</title>
<polygon fill="none" stroke="#bfbfbf" points="1414,-201.5 1414,-231.5 1515,-231.5 1515,-201.5 1414,-201.5"/>
<text text-anchor="start" x="1422" y="-219.5" font-family="Helvetica,sans-Serif" font-size="10.00">boost/property_tree</text>
<text text-anchor="middle" x="1464.5" y="-208.5" font-family="Helvetica,sans-Serif" font-size="10.00">/ptree.hpp</text>
</g>
<!-- Node1&#45;&gt;Node32 -->
<g id="edge53" class="edge"><title>Node1&#45;&gt;Node32</title>
<path fill="none" stroke="midnightblue" d="M1430.23,-268.475C1435.24,-261.019 1442.75,-249.852 1449.46,-239.869"/>
<polygon fill="midnightblue" stroke="midnightblue" points="1452.4,-241.775 1455.07,-231.523 1446.59,-237.869 1452.4,-241.775"/>
</g>
<!-- Node33 -->
<g id="node33" class="node"><title>Node33</title>
<polygon fill="none" stroke="#bfbfbf" points="1533.5,-207 1533.5,-226 1577.5,-226 1577.5,-207 1533.5,-207"/>
<text text-anchor="middle" x="1555.5" y="-214" font-family="Helvetica,sans-Serif" font-size="10.00">TH1.h</text>
</g>
<!-- Node1&#45;&gt;Node33 -->
<g id="edge54" class="edge"><title>Node1&#45;&gt;Node33</title>
<path fill="none" stroke="midnightblue" d="M1443.27,-268.475C1465.35,-258.445 1502.22,-241.7 1527.64,-230.155"/>
<polygon fill="midnightblue" stroke="midnightblue" points="1529.11,-233.331 1536.77,-226.009 1526.21,-226.958 1529.11,-233.331"/>
</g>
<!-- Node34 -->
<g id="node34" class="node"><title>Node34</title>
<polygon fill="none" stroke="#bfbfbf" points="1596,-207 1596,-226 1661,-226 1661,-207 1596,-207"/>
<text text-anchor="middle" x="1628.5" y="-214" font-family="Helvetica,sans-Serif" font-size="10.00">TCanvas.h</text>
</g>
<!-- Node1&#45;&gt;Node34 -->
<g id="edge55" class="edge"><title>Node1&#45;&gt;Node34</title>
<path fill="none" stroke="midnightblue" d="M1457.56,-268.454C1490.42,-259.81 1542.18,-245.79 1586.5,-232 1589.26,-231.14 1592.12,-230.222 1594.98,-229.279"/>
<polygon fill="midnightblue" stroke="midnightblue" points="1596.24,-232.547 1604.6,-226.037 1594,-225.914 1596.24,-232.547"/>
</g>
<!-- Node35 -->
<g id="node35" class="node"><title>Node35</title>
<polygon fill="none" stroke="#bfbfbf" points="1679,-207 1679,-226 1752,-226 1752,-207 1679,-207"/>
<text text-anchor="middle" x="1715.5" y="-214" font-family="Helvetica,sans-Serif" font-size="10.00">TPaveText.h</text>
</g>
<!-- Node1&#45;&gt;Node35 -->
<g id="edge56" class="edge"><title>Node1&#45;&gt;Node35</title>
<path fill="none" stroke="midnightblue" d="M1482.35,-268.445C1532.27,-260.572 1606.12,-247.745 1669.5,-232 1673.13,-231.099 1676.89,-230.072 1680.62,-228.989"/>
<polygon fill="midnightblue" stroke="midnightblue" points="1681.79,-232.291 1690.35,-226.044 1679.77,-225.592 1681.79,-232.291"/>
</g>
<!-- Node36 -->
<g id="node36" class="node"><title>Node36</title>
<polygon fill="none" stroke="#bfbfbf" points="1770.5,-207 1770.5,-226 1832.5,-226 1832.5,-207 1770.5,-207"/>
<text text-anchor="middle" x="1801.5" y="-214" font-family="Helvetica,sans-Serif" font-size="10.00">TDatime.h</text>
</g>
<!-- Node1&#45;&gt;Node36 -->
<g id="edge57" class="edge"><title>Node1&#45;&gt;Node36</title>
<path fill="none" stroke="midnightblue" d="M1506.16,-270.821C1574.74,-264.502 1674.96,-252.618 1760.5,-232 1763.73,-231.222 1767.06,-230.282 1770.36,-229.261"/>
<polygon fill="midnightblue" stroke="midnightblue" points="1771.67,-232.513 1780.05,-226.026 1769.45,-225.873 1771.67,-232.513"/>
</g>
<!-- Node37 -->
<g id="node37" class="node"><title>Node37</title>
<polygon fill="none" stroke="#bfbfbf" points="1851,-207 1851,-226 1934,-226 1934,-207 1851,-207"/>
<text text-anchor="middle" x="1892.5" y="-214" font-family="Helvetica,sans-Serif" font-size="10.00">TGraphErrors.h</text>
</g>
<!-- Node1&#45;&gt;Node37 -->
<g id="edge58" class="edge"><title>Node1&#45;&gt;Node37</title>
<path fill="none" stroke="midnightblue" d="M1506.22,-272.29C1590.74,-266.461 1726.25,-254.435 1841.5,-232 1846.22,-231.081 1851.14,-229.933 1855.98,-228.688"/>
<polygon fill="midnightblue" stroke="midnightblue" points="1856.98,-232.043 1865.71,-226.038 1855.14,-225.289 1856.98,-232.043"/>
</g>
<!-- Node3 -->
<g id="node3" class="node"><title>Node3</title>
<g id="a_node3"><a xlink:href="PostProcessingInterface_8h.html" target="_top" xlink:title="QualityControl/PostProcessing\lInterface.h">
<polygon fill="none" stroke="black" points="69,-134.5 69,-164.5 220,-164.5 220,-134.5 69,-134.5"/>
<text text-anchor="start" x="77" y="-152.5" font-family="Helvetica,sans-Serif" font-size="10.00">QualityControl/PostProcessing</text>
<text text-anchor="middle" x="144.5" y="-141.5" font-family="Helvetica,sans-Serif" font-size="10.00">Interface.h</text>
</a>
</g>
</g>
<!-- Node2&#45;&gt;Node3 -->
<g id="edge2" class="edge"><title>Node2&#45;&gt;Node3</title>
<path fill="none" stroke="midnightblue" d="M445.779,-206.936C390.876,-196.651 297.668,-179.191 229.433,-166.41"/>
<polygon fill="midnightblue" stroke="midnightblue" points="230.028,-162.96 219.554,-164.559 228.739,-169.841 230.028,-162.96"/>
</g>
<!-- Node10 -->
<g id="node10" class="node"><title>Node10</title>
<g id="a_node10"><a xlink:href="TrendingTaskConfig_8h.html" target="_top" xlink:title="QualityControl/TrendingTask\lConfig.h">
<polygon fill="none" stroke="black" points="238,-134.5 238,-164.5 379,-164.5 379,-134.5 238,-134.5"/>
<text text-anchor="start" x="246" y="-152.5" font-family="Helvetica,sans-Serif" font-size="10.00">QualityControl/TrendingTask</text>
<text text-anchor="middle" x="308.5" y="-141.5" font-family="Helvetica,sans-Serif" font-size="10.00">Config.h</text>
</a>
</g>
</g>
<!-- Node2&#45;&gt;Node10 -->
<g id="edge10" class="edge"><title>Node2&#45;&gt;Node10</title>
<path fill="none" stroke="midnightblue" d="M467.199,-206.869C439.383,-196.988 393.1,-180.549 357.674,-167.966"/>
<polygon fill="midnightblue" stroke="midnightblue" points="358.589,-164.577 347.994,-164.528 356.246,-171.173 358.589,-164.577"/>
</g>
<!-- Node2&#45;&gt;Node13 -->
<g id="edge17" class="edge"><title>Node2&#45;&gt;Node13</title>
<path fill="none" stroke="midnightblue" d="M529.315,-206.936C581.152,-195.196 674.274,-174.105 730.827,-161.297"/>
<polygon fill="midnightblue" stroke="midnightblue" points="731.621,-164.706 740.601,-159.083 730.075,-157.879 731.621,-164.706"/>
</g>
<!-- Node15 -->
<g id="node15" class="node"><title>Node15</title>
<polygon fill="none" stroke="#bfbfbf" points="465.5,-140 465.5,-159 517.5,-159 517.5,-140 465.5,-140"/>
<text text-anchor="middle" x="491.5" y="-147" font-family="Helvetica,sans-Serif" font-size="10.00">memory</text>
</g>
<!-- Node2&#45;&gt;Node15 -->
<g id="edge19" class="edge"><title>Node2&#45;&gt;Node15</title>
<path fill="none" stroke="midnightblue" d="M491.5,-206.734C491.5,-197.183 491.5,-181.618 491.5,-169.283"/>
<polygon fill="midnightblue" stroke="midnightblue" points="495,-169.127 491.5,-159.127 488,-169.127 495,-169.127"/>
</g>
<!-- Node16 -->
<g id="node16" class="node"><title>Node16</title>
<polygon fill="none" stroke="#bfbfbf" points="536,-140 536,-159 619,-159 619,-140 536,-140"/>
<text text-anchor="middle" x="577.5" y="-147" font-family="Helvetica,sans-Serif" font-size="10.00">unordered_map</text>
</g>
<!-- Node2&#45;&gt;Node16 -->
<g id="edge20" class="edge"><title>Node2&#45;&gt;Node16</title>
<path fill="none" stroke="midnightblue" d="M503.098,-206.734C517.154,-196.111 541.051,-178.049 557.966,-165.264"/>
<polygon fill="midnightblue" stroke="midnightblue" points="560.218,-167.949 566.085,-159.127 555.997,-162.365 560.218,-167.949"/>
</g>
<!-- Node17 -->
<g id="node17" class="node"><title>Node17</title>
<polygon fill="none" stroke="#bfbfbf" points="397.5,-140 397.5,-159 447.5,-159 447.5,-140 397.5,-140"/>
<text text-anchor="middle" x="422.5" y="-147" font-family="Helvetica,sans-Serif" font-size="10.00">TTree.h</text>
</g>
<!-- Node2&#45;&gt;Node17 -->
<g id="edge21" class="edge"><title>Node2&#45;&gt;Node17</title>
<path fill="none" stroke="midnightblue" d="M482.194,-206.734C471.228,-196.403 452.793,-179.037 439.306,-166.332"/>
<polygon fill="midnightblue" stroke="midnightblue" points="441.337,-163.437 431.658,-159.127 436.537,-168.532 441.337,-163.437"/>
</g>
<!-- Node4 -->
<g id="node4" class="node"><title>Node4</title>
<polygon fill="none" stroke="#bfbfbf" points="646,-6 646,-25 687,-25 687,-6 646,-6"/>
<text text-anchor="middle" x="666.5" y="-13" font-family="Helvetica,sans-Serif" font-size="10.00">string</text>
</g>
<!-- Node3&#45;&gt;Node4 -->
<g id="edge3" class="edge"><title>Node3&#45;&gt;Node4</title>
<path fill="none" stroke="midnightblue" d="M220.032,-135.309C222.89,-134.858 225.72,-134.42 228.5,-134 351.251,-115.437 392.877,-150.233 505.5,-98 524.051,-89.3962 522.162,-77.8428 539.5,-67 570.183,-47.8117 609.383,-33.5626 636.061,-25.1781"/>
<polygon fill="midnightblue" stroke="midnightblue" points="637.089,-28.5239 645.629,-22.2537 635.043,-21.8296 637.089,-28.5239"/>
</g>
<!-- Node5 -->
<g id="node5" class="node"><title>Node5</title>
<polygon fill="none" stroke="#bfbfbf" points="181.5,-73 181.5,-92 327.5,-92 327.5,-73 181.5,-73"/>
<text text-anchor="middle" x="254.5" y="-80" font-family="Helvetica,sans-Serif" font-size="10.00">Framework/ServiceRegistry.h</text>
</g>
<!-- Node3&#45;&gt;Node5 -->
<g id="edge4" class="edge"><title>Node3&#45;&gt;Node5</title>
<path fill="none" stroke="midnightblue" d="M168.368,-134.396C187.071,-123.344 212.936,-108.061 231.431,-97.1319"/>
<polygon fill="midnightblue" stroke="midnightblue" points="233.275,-100.108 240.104,-92.007 229.714,-94.0811 233.275,-100.108"/>
</g>
<!-- Node6 -->
<g id="node6" class="node"><title>Node6</title>
<polygon fill="none" stroke="#bfbfbf" points="258,-0.5 258,-30.5 359,-30.5 359,-0.5 258,-0.5"/>
<text text-anchor="start" x="266" y="-18.5" font-family="Helvetica,sans-Serif" font-size="10.00">boost/property_tree</text>
<text text-anchor="middle" x="308.5" y="-7.5" font-family="Helvetica,sans-Serif" font-size="10.00">/ptree_fwd.hpp</text>
</g>
<!-- Node3&#45;&gt;Node6 -->
<g id="edge5" class="edge"><title>Node3&#45;&gt;Node6</title>
<path fill="none" stroke="midnightblue" d="M145.721,-134.196C147.992,-116.232 154.425,-85.5257 172.5,-67 192.541,-46.4591 221.685,-34.199 247.857,-26.9175"/>
<polygon fill="midnightblue" stroke="midnightblue" points="248.915,-30.2593 257.718,-24.3637 247.159,-23.4829 248.915,-30.2593"/>
</g>
<!-- Node7 -->
<g id="node7" class="node"><title>Node7</title>
<g id="a_node7"><a xlink:href="Triggers_8h.html" target="_top" xlink:title="QualityControl/Triggers.h">
<polygon fill="none" stroke="black" points="0,-73 0,-92 125,-92 125,-73 0,-73"/>
<text text-anchor="middle" x="62.5" y="-80" font-family="Helvetica,sans-Serif" font-size="10.00">QualityControl/Triggers.h</text>
</a>
</g>
</g>
<!-- Node3&#45;&gt;Node7 -->
<g id="edge6" class="edge"><title>Node3&#45;&gt;Node7</title>
<path fill="none" stroke="midnightblue" d="M126.707,-134.396C113.415,-123.86 95.2712,-109.477 81.661,-98.6886"/>
<polygon fill="midnightblue" stroke="midnightblue" points="83.4793,-95.6637 73.4685,-92.1945 79.1309,-101.149 83.4793,-95.6637"/>
</g>
<!-- Node7&#45;&gt;Node4 -->
<g id="edge7" class="edge"><title>Node7&#45;&gt;Node4</title>
<path fill="none" stroke="midnightblue" d="M123.245,-72.9849C139.248,-70.8808 156.51,-68.735 172.5,-67 359.638,-46.6945 408.156,-57.6243 594.5,-31 608.109,-29.0556 623.025,-26.1772 635.734,-23.4964"/>
<polygon fill="midnightblue" stroke="midnightblue" points="636.779,-26.8513 645.813,-21.3158 635.299,-20.0096 636.779,-26.8513"/>
</g>
<!-- Node8 -->
<g id="node8" class="node"><title>Node8</title>
<polygon fill="none" stroke="#bfbfbf" points="68,-6 68,-25 127,-25 127,-6 68,-6"/>
<text text-anchor="middle" x="97.5" y="-13" font-family="Helvetica,sans-Serif" font-size="10.00">functional</text>
</g>
<!-- Node7&#45;&gt;Node8 -->
<g id="edge8" class="edge"><title>Node7&#45;&gt;Node8</title>
<path fill="none" stroke="midnightblue" d="M67.2203,-72.7338C72.5206,-62.8903 81.2601,-46.6598 87.9911,-34.1594"/>
<polygon fill="midnightblue" stroke="midnightblue" points="91.1951,-35.5914 92.8545,-25.1273 85.0318,-32.2727 91.1951,-35.5914"/>
</g>
<!-- Node9 -->
<g id="node9" class="node"><title>Node9</title>
<polygon fill="none" stroke="#bfbfbf" points="5,-6 5,-25 50,-25 50,-6 5,-6"/>
<text text-anchor="middle" x="27.5" y="-13" font-family="Helvetica,sans-Serif" font-size="10.00">iosfwd</text>
</g>
<!-- Node7&#45;&gt;Node9 -->
<g id="edge9" class="edge"><title>Node7&#45;&gt;Node9</title>
<path fill="none" stroke="midnightblue" d="M57.7797,-72.7338C52.4794,-62.8903 43.7399,-46.6598 37.0089,-34.1594"/>
<polygon fill="midnightblue" stroke="midnightblue" points="39.9682,-32.2727 32.1455,-25.1273 33.8049,-35.5914 39.9682,-32.2727"/>
</g>
<!-- Node10&#45;&gt;Node4 -->
<g id="edge12" class="edge"><title>Node10&#45;&gt;Node4</title>
<path fill="none" stroke="midnightblue" d="M379.166,-135.476C434.838,-124.716 507.561,-109.41 535.5,-98 578.345,-80.5026 623.029,-49.4987 647.553,-31.1907"/>
<polygon fill="midnightblue" stroke="midnightblue" points="649.778,-33.8966 655.635,-25.0686 645.551,-28.3167 649.778,-33.8966"/>
</g>
<!-- Node11 -->
<g id="node11" class="node"><title>Node11</title>
<polygon fill="none" stroke="#bfbfbf" points="541.5,-6 541.5,-25 585.5,-25 585.5,-6 541.5,-6"/>
<text text-anchor="middle" x="563.5" y="-13" font-family="Helvetica,sans-Serif" font-size="10.00">vector</text>
</g>
<!-- Node10&#45;&gt;Node11 -->
<g id="edge11" class="edge"><title>Node10&#45;&gt;Node11</title>
<path fill="none" stroke="midnightblue" d="M379.116,-135.715C426.892,-126.075 484.906,-112.138 505.5,-98 528.936,-81.9111 546.114,-53.0765 555.456,-34.3733"/>
<polygon fill="midnightblue" stroke="midnightblue" points="558.698,-35.7046 559.829,-25.1703 552.376,-32.7 558.698,-35.7046"/>
</g>
<!-- Node12 -->
<g id="node12" class="node"><title>Node12</title>
<g id="a_node12"><a xlink:href="PostProcessingConfig_8h.html" target="_top" xlink:title="QualityControl/PostProcessing\lConfig.h">
<polygon fill="none" stroke="black" points="346,-67.5 346,-97.5 497,-97.5 497,-67.5 346,-67.5"/>
<text text-anchor="start" x="354" y="-85.5" font-family="Helvetica,sans-Serif" font-size="10.00">QualityControl/PostProcessing</text>
<text text-anchor="middle" x="421.5" y="-74.5" font-family="Helvetica,sans-Serif" font-size="10.00">Config.h</text>
</a>
</g>
</g>
<!-- Node10&#45;&gt;Node12 -->
<g id="edge13" class="edge"><title>Node10&#45;&gt;Node12</title>
<path fill="none" stroke="midnightblue" d="M333.019,-134.396C349.16,-125.112 370.492,-112.841 388.166,-102.674"/>
<polygon fill="midnightblue" stroke="midnightblue" points="390.105,-105.597 397.029,-97.5765 386.615,-99.5288 390.105,-105.597"/>
</g>
<!-- Node12&#45;&gt;Node4 -->
<g id="edge15" class="edge"><title>Node12&#45;&gt;Node4</title>
<path fill="none" stroke="midnightblue" d="M474.36,-67.476C523.663,-54.3954 595.504,-35.3356 635.922,-24.6125"/>
<polygon fill="midnightblue" stroke="midnightblue" points="636.959,-27.9585 645.727,-22.0111 635.164,-21.1925 636.959,-27.9585"/>
</g>
<!-- Node12&#45;&gt;Node6 -->
<g id="edge16" class="edge"><title>Node12&#45;&gt;Node6</title>
<path fill="none" stroke="midnightblue" d="M396.981,-67.396C380.84,-58.1117 359.508,-45.8409 341.834,-35.6742"/>
<polygon fill="midnightblue" stroke="midnightblue" points="343.385,-32.5288 332.971,-30.5765 339.895,-38.5966 343.385,-32.5288"/>
</g>
<!-- Node12&#45;&gt;Node11 -->
<g id="edge14" class="edge"><title>Node12&#45;&gt;Node11</title>
<path fill="none" stroke="midnightblue" d="M452.312,-67.396C477.117,-56.0414 511.681,-40.2201 535.66,-29.2437"/>
<polygon fill="midnightblue" stroke="midnightblue" points="537.28,-32.3516 544.915,-25.007 534.366,-25.9868 537.28,-32.3516"/>
</g>
<!-- Node14 -->
<g id="node14" class="node"><title>Node14</title>
<polygon fill="none" stroke="#bfbfbf" points="843,-73 843,-92 902,-92 902,-73 843,-73"/>
<text text-anchor="middle" x="872.5" y="-80" font-family="Helvetica,sans-Serif" font-size="10.00">TObject.h</text>
</g>
<!-- Node13&#45;&gt;Node14 -->
<g id="edge18" class="edge"><title>Node13&#45;&gt;Node14</title>
<path fill="none" stroke="midnightblue" d="M791.177,-139.734C806.681,-129.013 833.141,-110.716 851.656,-97.9137"/>
<polygon fill="midnightblue" stroke="midnightblue" points="853.789,-100.694 860.024,-92.1273 849.808,-94.9361 853.789,-100.694"/>
</g>
<!-- Node19 -->
<g id="node19" class="node"><title>Node19</title>
<polygon fill="none" stroke="#bfbfbf" points="1664.5,-73 1664.5,-92 1794.5,-92 1794.5,-73 1664.5,-73"/>
<text text-anchor="middle" x="1729.5" y="-80" font-family="Helvetica,sans-Serif" font-size="10.00">InfoLogger/InfoLogger.hxx</text>
</g>
<!-- Node18&#45;&gt;Node19 -->
<g id="edge23" class="edge"><title>Node18&#45;&gt;Node19</title>
<path fill="none" stroke="midnightblue" d="M1729.5,-139.734C1729.5,-130.183 1729.5,-114.618 1729.5,-102.283"/>
<polygon fill="midnightblue" stroke="midnightblue" points="1733,-102.127 1729.5,-92.1273 1726,-102.127 1733,-102.127"/>
</g>
<!-- Node20&#45;&gt;Node4 -->
<g id="edge25" class="edge"><title>Node20&#45;&gt;Node4</title>
<path fill="none" stroke="midnightblue" d="M684.684,-206.949C681.834,-177.101 672.284,-77.0842 668.285,-35.1989"/>
<polygon fill="midnightblue" stroke="midnightblue" points="671.769,-34.8651 667.335,-25.243 664.801,-35.5305 671.769,-34.8651"/>
</g>
<!-- Node20&#45;&gt;Node11 -->
<g id="edge27" class="edge"><title>Node20&#45;&gt;Node11</title>
<path fill="none" stroke="midnightblue" d="M680.258,-206.949C661.764,-176.783 599.33,-74.9437 574.155,-33.8792"/>
<polygon fill="midnightblue" stroke="midnightblue" points="577.071,-31.9391 568.86,-25.243 571.103,-35.5978 577.071,-31.9391"/>
</g>
<!-- Node20&#45;&gt;Node15 -->
<g id="edge26" class="edge"><title>Node20&#45;&gt;Node15</title>
<path fill="none" stroke="midnightblue" d="M655.942,-206.935C623.822,-197.437 571.117,-181.294 526.5,-165 524.647,-164.323 522.747,-163.606 520.837,-162.867"/>
<polygon fill="midnightblue" stroke="midnightblue" points="521.959,-159.546 511.374,-159.078 519.356,-166.044 521.959,-159.546"/>
</g>
<!-- Node20&#45;&gt;Node16 -->
<g id="edge28" class="edge"><title>Node20&#45;&gt;Node16</title>
<path fill="none" stroke="midnightblue" d="M670.935,-206.734C652.879,-195.867 621.89,-177.216 600.584,-164.393"/>
<polygon fill="midnightblue" stroke="midnightblue" points="602.207,-161.285 591.835,-159.127 598.598,-167.283 602.207,-161.285"/>
</g>
<!-- Node21 -->
<g id="node21" class="node"><title>Node21</title>
<g id="a_node21"><a xlink:href="QualityObject_8h_source.html" target="_top" xlink:title="QualityControl/QualityObject.h">
<polygon fill="none" stroke="black" points="899,-140 899,-159 1048,-159 1048,-140 899,-140"/>
<text text-anchor="middle" x="973.5" y="-147" font-family="Helvetica,sans-Serif" font-size="10.00">QualityControl/QualityObject.h</text>
</a>
</g>
</g>
<!-- Node20&#45;&gt;Node21 -->
<g id="edge29" class="edge"><title>Node20&#45;&gt;Node21</title>
<path fill="none" stroke="midnightblue" d="M723.447,-206.936C775.464,-195.196 868.911,-174.105 925.661,-161.297"/>
<polygon fill="midnightblue" stroke="midnightblue" points="926.485,-164.699 935.469,-159.083 924.944,-157.871 926.485,-164.699"/>
</g>
<!-- Node20&#45;&gt;Node26 -->
<g id="edge37" class="edge"><title>Node20&#45;&gt;Node26</title>
<path fill="none" stroke="midnightblue" d="M753.298,-206.968C827.755,-197.435 950.804,-181.204 1056.5,-165 1065.1,-163.681 1074.18,-162.214 1083.07,-160.734"/>
<polygon fill="midnightblue" stroke="midnightblue" points="1083.72,-164.174 1093,-159.064 1082.56,-157.271 1083.72,-164.174"/>
</g>
<!-- Node21&#45;&gt;Node14 -->
<g id="edge31" class="edge"><title>Node21&#45;&gt;Node14</title>
<path fill="none" stroke="midnightblue" d="M959.879,-139.734C943.069,-128.916 914.272,-110.383 894.356,-97.5659"/>
<polygon fill="midnightblue" stroke="midnightblue" points="896.209,-94.5959 885.906,-92.1273 892.42,-100.482 896.209,-94.5959"/>
</g>
<!-- Node22 -->
<g id="node22" class="node"><title>Node22</title>
<polygon fill="none" stroke="#bfbfbf" points="1040,-6 1040,-25 1075,-25 1075,-6 1040,-6"/>
<text text-anchor="middle" x="1057.5" y="-13" font-family="Helvetica,sans-Serif" font-size="10.00">map</text>
</g>
<!-- Node21&#45;&gt;Node22 -->
<g id="edge30" class="edge"><title>Node21&#45;&gt;Node22</title>
<path fill="none" stroke="midnightblue" d="M972.941,-139.905C972.334,-124.18 972.981,-90.262 987.5,-67 997.816,-50.4719 1015.71,-37.7064 1030.82,-29.1449"/>
<polygon fill="midnightblue" stroke="midnightblue" points="1032.61,-32.1592 1039.78,-24.3613 1029.31,-25.9844 1032.61,-32.1592"/>
</g>
<!-- Node23 -->
<g id="node23" class="node"><title>Node23</title>
<polygon fill="none" stroke="#bfbfbf" points="1174.5,-73 1174.5,-92 1290.5,-92 1290.5,-73 1174.5,-73"/>
<text text-anchor="middle" x="1232.5" y="-80" font-family="Helvetica,sans-Serif" font-size="10.00">Common/Exceptions.h</text>
</g>
<!-- Node21&#45;&gt;Node23 -->
<g id="edge32" class="edge"><title>Node21&#45;&gt;Node23</title>
<path fill="none" stroke="midnightblue" d="M1007.63,-139.936C1054.11,-128.268 1137.4,-107.367 1188.52,-94.5367"/>
<polygon fill="midnightblue" stroke="midnightblue" points="1189.45,-97.9124 1198.3,-92.0834 1187.75,-91.1229 1189.45,-97.9124"/>
</g>
<!-- Node24 -->
<g id="node24" class="node"><title>Node24</title>
<g id="a_node24"><a xlink:href="Quality_8h.html" target="_top" xlink:title="QualityControl/Quality.h">
<polygon fill="none" stroke="black" points="997,-73 997,-92 1118,-92 1118,-73 997,-73"/>
<text text-anchor="middle" x="1057.5" y="-80" font-family="Helvetica,sans-Serif" font-size="10.00">QualityControl/Quality.h</text>
</a>
</g>
</g>
<!-- Node21&#45;&gt;Node24 -->
<g id="edge33" class="edge"><title>Node21&#45;&gt;Node24</title>
<path fill="none" stroke="midnightblue" d="M984.829,-139.734C998.557,-129.111 1021.9,-111.049 1038.42,-98.2642"/>
<polygon fill="midnightblue" stroke="midnightblue" points="1040.58,-101.015 1046.35,-92.1273 1036.3,-95.4791 1040.58,-101.015"/>
</g>
<!-- Node24&#45;&gt;Node4 -->
<g id="edge35" class="edge"><title>Node24&#45;&gt;Node4</title>
<path fill="none" stroke="midnightblue" d="M1005.98,-72.9355C923.309,-59.192 763.554,-32.6343 696.883,-21.5508"/>
<polygon fill="midnightblue" stroke="midnightblue" points="697.446,-18.0966 687.008,-19.9092 696.298,-25.0018 697.446,-18.0966"/>
</g>
<!-- Node24&#45;&gt;Node22 -->
<g id="edge36" class="edge"><title>Node24&#45;&gt;Node22</title>
<path fill="none" stroke="midnightblue" d="M1057.5,-72.7338C1057.5,-63.1826 1057.5,-47.6183 1057.5,-35.2829"/>
<polygon fill="midnightblue" stroke="midnightblue" points="1061,-35.1273 1057.5,-25.1273 1054,-35.1273 1061,-35.1273"/>
</g>
<!-- Node25 -->
<g id="node25" class="node"><title>Node25</title>
<polygon fill="none" stroke="#bfbfbf" points="1191.5,-6 1191.5,-25 1247.5,-25 1247.5,-6 1191.5,-6"/>
<text text-anchor="middle" x="1219.5" y="-13" font-family="Helvetica,sans-Serif" font-size="10.00">Rtypes.h</text>
</g>
<!-- Node24&#45;&gt;Node25 -->
<g id="edge34" class="edge"><title>Node24&#45;&gt;Node25</title>
<path fill="none" stroke="midnightblue" d="M1079.01,-72.8685C1107.17,-61.5706 1156.7,-41.6961 1188.8,-28.8183"/>
<polygon fill="midnightblue" stroke="midnightblue" points="1190.18,-32.0358 1198.16,-25.0637 1187.57,-25.5392 1190.18,-32.0358"/>
</g>
<!-- Node26&#45;&gt;Node4 -->
<g id="edge38" class="edge"><title>Node26&#45;&gt;Node4</title>
<path fill="none" stroke="midnightblue" d="M1113.49,-139.925C1082.48,-130.29 1031.11,-113.911 987.5,-98 952.843,-85.3566 945.815,-77.6699 910.5,-67 835.202,-44.2497 743.768,-28.34 697.111,-21.0312"/>
<polygon fill="midnightblue" stroke="midnightblue" points="697.468,-17.545 687.052,-19.4806 696.402,-24.4633 697.468,-17.545"/>
</g>
<!-- Node26&#45;&gt;Node14 -->
<g id="edge41" class="edge"><title>Node26&#45;&gt;Node14</title>
<path fill="none" stroke="midnightblue" d="M1097.63,-139.975C1052.06,-130.81 978.821,-115.218 916.5,-98 913.321,-97.1218 910.032,-96.153 906.75,-95.1451"/>
<polygon fill="midnightblue" stroke="midnightblue" points="907.629,-91.752 897.038,-92.0558 905.507,-98.4226 907.629,-91.752"/>
</g>
<!-- Node26&#45;&gt;Node22 -->
<g id="edge39" class="edge"><title>Node26&#45;&gt;Node22</title>
<path fill="none" stroke="midnightblue" d="M1141.92,-139.907C1142.27,-124.187 1141.11,-90.2745 1126.5,-67 1116.3,-50.7568 1098.83,-38.0472 1084.01,-29.4412"/>
<polygon fill="midnightblue" stroke="midnightblue" points="1085.68,-26.3601 1075.22,-24.6182 1082.31,-32.4971 1085.68,-26.3601"/>
</g>
<!-- Node26&#45;&gt;Node23 -->
<g id="edge42" class="edge"><title>Node26&#45;&gt;Node23</title>
<path fill="none" stroke="midnightblue" d="M1153.77,-139.734C1168.65,-129.111 1193.93,-111.049 1211.83,-98.2642"/>
<polygon fill="midnightblue" stroke="midnightblue" points="1214.32,-100.788 1220.42,-92.1273 1210.25,-95.0917 1214.32,-100.788"/>
</g>
<!-- Node26&#45;&gt;Node25 -->
<g id="edge40" class="edge"><title>Node26&#45;&gt;Node25</title>
<path fill="none" stroke="midnightblue" d="M1187.73,-139.959C1229.4,-131.209 1286.13,-116.315 1299.5,-98 1307.63,-86.873 1306.15,-79.0656 1299.5,-67 1289.95,-49.6859 1271.7,-37.4888 1255.03,-29.4248"/>
<polygon fill="midnightblue" stroke="midnightblue" points="1256.04,-26.0407 1245.48,-25.147 1253.18,-32.4291 1256.04,-26.0407"/>
</g>
<!-- Node27&#45;&gt;Node4 -->
<g id="edge46" class="edge"><title>Node27&#45;&gt;Node4</title>
<path fill="none" stroke="midnightblue" d="M1229.15,-209.471C1123.02,-199.228 919.916,-178.251 889.5,-165 869.832,-156.431 869.83,-146.646 852.5,-134 796.704,-93.2838 726.922,-51.4584 690.756,-30.4086"/>
<polygon fill="midnightblue" stroke="midnightblue" points="692.307,-27.2624 681.899,-25.2788 688.798,-33.3196 692.307,-27.2624"/>
</g>
<!-- Node27&#45;&gt;Node18 -->
<g id="edge52" class="edge"><title>Node27&#45;&gt;Node18</title>
<path fill="none" stroke="midnightblue" d="M1357.73,-203.278C1362.38,-202.479 1367.01,-201.711 1371.5,-201 1493.25,-181.729 1524.65,-183.611 1646.5,-165 1654.92,-163.714 1663.8,-162.263 1672.5,-160.789"/>
<polygon fill="midnightblue" stroke="midnightblue" points="1673.33,-164.198 1682.59,-159.056 1672.14,-157.299 1673.33,-164.198"/>
</g>
<!-- Node27&#45;&gt;Node23 -->
<g id="edge47" class="edge"><title>Node27&#45;&gt;Node23</title>
<path fill="none" stroke="midnightblue" d="M1299.6,-201.381C1305.94,-184.415 1313.52,-155.544 1302.5,-134 1294.02,-117.429 1277.29,-105.049 1262.31,-96.6948"/>
<polygon fill="midnightblue" stroke="midnightblue" points="1263.79,-93.5178 1253.3,-92.0119 1260.56,-99.7291 1263.79,-93.5178"/>
</g>
<!-- Node28 -->
<g id="node28" class="node"><title>Node28</title>
<polygon fill="none" stroke="#bfbfbf" points="1581.5,-140 1581.5,-159 1637.5,-159 1637.5,-140 1581.5,-140"/>
<text text-anchor="middle" x="1609.5" y="-147" font-family="Helvetica,sans-Serif" font-size="10.00">TClass.h</text>
</g>
<!-- Node27&#45;&gt;Node28 -->
<g id="edge48" class="edge"><title>Node27&#45;&gt;Node28</title>
<path fill="none" stroke="midnightblue" d="M1357.77,-203.523C1362.41,-202.666 1367.03,-201.818 1371.5,-201 1460.34,-184.746 1484.49,-189.204 1571.5,-165 1574.15,-164.263 1576.88,-163.414 1579.59,-162.504"/>
<polygon fill="midnightblue" stroke="midnightblue" points="1581,-165.717 1589.22,-159.037 1578.63,-159.13 1581,-165.717"/>
</g>
<!-- Node29 -->
<g id="node29" class="node"><title>Node29</title>
<polygon fill="none" stroke="#bfbfbf" points="1235,-140 1235,-159 1294,-159 1294,-140 1235,-140"/>
<text text-anchor="middle" x="1264.5" y="-147" font-family="Helvetica,sans-Serif" font-size="10.00">TROOT.h</text>
</g>
<!-- Node27&#45;&gt;Node29 -->
<g id="edge49" class="edge"><title>Node27&#45;&gt;Node29</title>
<path fill="none" stroke="midnightblue" d="M1287.21,-201.396C1282.91,-191.763 1277.18,-178.914 1272.55,-168.537"/>
<polygon fill="midnightblue" stroke="midnightblue" points="1275.65,-166.901 1268.38,-159.195 1269.26,-169.753 1275.65,-166.901"/>
</g>
<!-- Node30 -->
<g id="node30" class="node"><title>Node30</title>
<polygon fill="none" stroke="#bfbfbf" points="1351,-140 1351,-159 1416,-159 1416,-140 1351,-140"/>
<text text-anchor="middle" x="1383.5" y="-147" font-family="Helvetica,sans-Serif" font-size="10.00">TSystem.h</text>
</g>
<!-- Node27&#45;&gt;Node30 -->
<g id="edge50" class="edge"><title>Node27&#45;&gt;Node30</title>
<path fill="none" stroke="midnightblue" d="M1313.03,-201.396C1327.98,-190.597 1348.53,-175.756 1363.58,-164.887"/>
<polygon fill="midnightblue" stroke="midnightblue" points="1365.66,-167.699 1371.72,-159.007 1361.57,-162.025 1365.66,-167.699"/>
</g>
<!-- Node31 -->
<g id="node31" class="node"><title>Node31</title>
<polygon fill="none" stroke="#bfbfbf" points="1434,-140 1434,-159 1563,-159 1563,-140 1434,-140"/>
<text text-anchor="middle" x="1498.5" y="-147" font-family="Helvetica,sans-Serif" font-size="10.00">boost/filesystem/path.hpp</text>
</g>
<!-- Node27&#45;&gt;Node31 -->
<g id="edge51" class="edge"><title>Node27&#45;&gt;Node31</title>
<path fill="none" stroke="midnightblue" d="M1337.73,-201.476C1374.8,-189.723 1427.09,-173.143 1461.85,-162.12"/>
<polygon fill="midnightblue" stroke="midnightblue" points="1463.13,-165.387 1471.6,-159.029 1461.01,-158.715 1463.13,-165.387"/>
</g>
</g>
</svg>
