<?xml version="1.0" encoding="UTF-8" standalone="no"?>
<!DOCTYPE svg PUBLIC "-//W3C//DTD SVG 1.1//EN"
 "http://www.w3.org/Graphics/SVG/1.1/DTD/svg11.dtd">
<!-- Generated by graphviz version 2.38.0 (20140413.2041)
 -->
<!-- Title: Framework/include/QualityControl/TrendingTask.h Pages: 1 -->
<svg width="791pt" height="240pt"
 viewBox="0.00 0.00 791.00 240.00" xmlns="http://www.w3.org/2000/svg" xmlns:xlink="http://www.w3.org/1999/xlink">
<g id="graph0" class="graph" transform="scale(1 1) rotate(0) translate(4 236)">
<title>Framework/include/QualityControl/TrendingTask.h</title>
<!-- Node1 -->
<g id="node1" class="node"><title>Node1</title>
<polygon fill="#bfbfbf" stroke="black" points="465.5,-201.5 465.5,-231.5 598.5,-231.5 598.5,-201.5 465.5,-201.5"/>
<text text-anchor="start" x="473.5" y="-219.5" font-family="Helvetica,sans-Serif" font-size="10.00">Framework/include/Quality</text>
<text text-anchor="middle" x="532" y="-208.5" font-family="Helvetica,sans-Serif" font-size="10.00">Control/TrendingTask.h</text>
</g>
<!-- Node2 -->
<g id="node2" class="node"><title>Node2</title>
<g id="a_node2"><a xlink:href="PostProcessingInterface_8h.html" target="_top" xlink:title="QualityControl/PostProcessing\lInterface.h">
<polygon fill="none" stroke="black" points="243.5,-134.5 243.5,-164.5 394.5,-164.5 394.5,-134.5 243.5,-134.5"/>
<text text-anchor="start" x="251.5" y="-152.5" font-family="Helvetica,sans-Serif" font-size="10.00">QualityControl/PostProcessing</text>
<text text-anchor="middle" x="319" y="-141.5" font-family="Helvetica,sans-Serif" font-size="10.00">Interface.h</text>
</a>
</g>
</g>
<!-- Node1&#45;&gt;Node2 -->
<g id="edge1" class="edge"><title>Node1&#45;&gt;Node2</title>
<path fill="none" stroke="midnightblue" d="M486.044,-201.476C453.542,-191.557 409.774,-178.201 375.193,-167.648"/>
<polygon fill="midnightblue" stroke="midnightblue" points="375.827,-164.182 365.24,-164.611 373.783,-170.877 375.827,-164.182"/>
</g>
<!-- Node9 -->
<g id="node9" class="node"><title>Node9</title>
<g id="a_node9"><a xlink:href="TrendingTaskConfig_8h.html" target="_top" xlink:title="QualityControl/TrendingTask\lConfig.h">
<polygon fill="none" stroke="black" points="31.5,-134.5 31.5,-164.5 172.5,-164.5 172.5,-134.5 31.5,-134.5"/>
<text text-anchor="start" x="39.5" y="-152.5" font-family="Helvetica,sans-Serif" font-size="10.00">QualityControl/TrendingTask</text>
<text text-anchor="middle" x="102" y="-141.5" font-family="Helvetica,sans-Serif" font-size="10.00">Config.h</text>
</a>
</g>
</g>
<!-- Node1&#45;&gt;Node9 -->
<g id="edge9" class="edge"><title>Node1&#45;&gt;Node9</title>
<path fill="none" stroke="midnightblue" d="M465.284,-205.415C389.161,-193.908 264.683,-175.092 183.043,-162.751"/>
<polygon fill="midnightblue" stroke="midnightblue" points="183.22,-159.238 172.81,-161.204 182.174,-166.159 183.22,-159.238"/>
</g>
<!-- Node12 -->
<g id="node12" class="node"><title>Node12</title>
<g id="a_node12"><a xlink:href="Reductor_8h.html" target="_top" xlink:title="QualityControl/Reductor.h">
<polygon fill="none" stroke="black" points="413,-140 413,-159 543,-159 543,-140 413,-140"/>
<text text-anchor="middle" x="478" y="-147" font-family="Helvetica,sans-Serif" font-size="10.00">QualityControl/Reductor.h</text>
</a>
</g>
</g>
<!-- Node1&#45;&gt;Node12 -->
<g id="edge16" class="edge"><title>Node1&#45;&gt;Node12</title>
<path fill="none" stroke="midnightblue" d="M520.283,-201.396C511.863,-191.261 500.487,-177.567 491.655,-166.937"/>
<polygon fill="midnightblue" stroke="midnightblue" points="494.306,-164.65 485.223,-159.195 488.921,-169.123 494.306,-164.65"/>
</g>
<!-- Node14 -->
<g id="node14" class="node"><title>Node14</title>
<polygon fill="none" stroke="#bfbfbf" points="561,-140 561,-159 613,-159 613,-140 561,-140"/>
<text text-anchor="middle" x="587" y="-147" font-family="Helvetica,sans-Serif" font-size="10.00">memory</text>
</g>
<!-- Node1&#45;&gt;Node14 -->
<g id="edge18" class="edge"><title>Node1&#45;&gt;Node14</title>
<path fill="none" stroke="midnightblue" d="M543.934,-201.396C552.51,-191.261 564.097,-177.567 573.092,-166.937"/>
<polygon fill="midnightblue" stroke="midnightblue" points="575.855,-169.089 579.643,-159.195 570.512,-164.568 575.855,-169.089"/>
</g>
<!-- Node15 -->
<g id="node15" class="node"><title>Node15</title>
<polygon fill="none" stroke="#bfbfbf" points="631.5,-140 631.5,-159 714.5,-159 714.5,-140 631.5,-140"/>
<text text-anchor="middle" x="673" y="-147" font-family="Helvetica,sans-Serif" font-size="10.00">unordered_map</text>
</g>
<!-- Node1&#45;&gt;Node15 -->
<g id="edge19" class="edge"><title>Node1&#45;&gt;Node15</title>
<path fill="none" stroke="midnightblue" d="M562.595,-201.396C587.225,-190.041 621.546,-174.22 645.356,-163.244"/>
<polygon fill="midnightblue" stroke="midnightblue" points="646.93,-166.372 654.546,-159.007 644,-160.015 646.93,-166.372"/>
</g>
<!-- Node16 -->
<g id="node16" class="node"><title>Node16</title>
<polygon fill="none" stroke="#bfbfbf" points="733,-140 733,-159 783,-159 783,-140 733,-140"/>
<text text-anchor="middle" x="758" y="-147" font-family="Helvetica,sans-Serif" font-size="10.00">TTree.h</text>
</g>
<!-- Node1&#45;&gt;Node16 -->
<g id="edge20" class="edge"><title>Node1&#45;&gt;Node16</title>
<path fill="none" stroke="midnightblue" d="M594.945,-201.398C632.763,-192.322 681.613,-179.526 724,-165 725.867,-164.36 727.776,-163.665 729.689,-162.937"/>
<polygon fill="midnightblue" stroke="midnightblue" points="731.167,-166.115 739.129,-159.126 728.546,-159.624 731.167,-166.115"/>
</g>
<!-- Node3 -->
<g id="node3" class="node"><title>Node3</title>
<polygon fill="none" stroke="#bfbfbf" points="212.5,-6 212.5,-25 253.5,-25 253.5,-6 212.5,-6"/>
<text text-anchor="middle" x="233" y="-13" font-family="Helvetica,sans-Serif" font-size="10.00">string</text>
</g>
<!-- Node2&#45;&gt;Node3 -->
<g id="edge2" class="edge"><title>Node2&#45;&gt;Node3</title>
<path fill="none" stroke="midnightblue" d="M309.796,-134.374C293.897,-109.969 261.342,-60.0023 244.172,-33.6475"/>
<polygon fill="midnightblue" stroke="midnightblue" points="246.993,-31.5653 238.601,-25.0973 241.128,-35.3865 246.993,-31.5653"/>
</g>
<!-- Node4 -->
<g id="node4" class="node"><title>Node4</title>
<polygon fill="none" stroke="#bfbfbf" points="446,-73 446,-92 592,-92 592,-73 446,-73"/>
<text text-anchor="middle" x="519" y="-80" font-family="Helvetica,sans-Serif" font-size="10.00">Framework/ServiceRegistry.h</text>
</g>
<!-- Node2&#45;&gt;Node4 -->
<g id="edge3" class="edge"><title>Node2&#45;&gt;Node4</title>
<path fill="none" stroke="midnightblue" d="M362.397,-134.396C398.421,-122.688 449.057,-106.231 482.897,-95.2336"/>
<polygon fill="midnightblue" stroke="midnightblue" points="484.396,-98.4265 492.825,-92.007 482.232,-91.7693 484.396,-98.4265"/>
</g>
<!-- Node5 -->
<g id="node5" class="node"><title>Node5</title>
<polygon fill="none" stroke="#bfbfbf" points="68.5,-0.5 68.5,-30.5 169.5,-30.5 169.5,-0.5 68.5,-0.5"/>
<text text-anchor="start" x="76.5" y="-18.5" font-family="Helvetica,sans-Serif" font-size="10.00">boost/property_tree</text>
<text text-anchor="middle" x="119" y="-7.5" font-family="Helvetica,sans-Serif" font-size="10.00">/ptree_fwd.hpp</text>
</g>
<!-- Node2&#45;&gt;Node5 -->
<g id="edge4" class="edge"><title>Node2&#45;&gt;Node5</title>
<path fill="none" stroke="midnightblue" d="M297.596,-134.374C261.734,-110.704 189.437,-62.9887 148.684,-36.0915"/>
<polygon fill="midnightblue" stroke="midnightblue" points="150.524,-33.1121 140.25,-30.5247 146.668,-38.9543 150.524,-33.1121"/>
</g>
<!-- Node6 -->
<g id="node6" class="node"><title>Node6</title>
<g id="a_node6"><a xlink:href="Triggers_8h.html" target="_top" xlink:title="QualityControl/Triggers.h">
<polygon fill="none" stroke="black" points="302.5,-73 302.5,-92 427.5,-92 427.5,-73 302.5,-73"/>
<text text-anchor="middle" x="365" y="-80" font-family="Helvetica,sans-Serif" font-size="10.00">QualityControl/Triggers.h</text>
</a>
</g>
</g>
<!-- Node2&#45;&gt;Node6 -->
<g id="edge5" class="edge"><title>Node2&#45;&gt;Node6</title>
<path fill="none" stroke="midnightblue" d="M328.981,-134.396C336.012,-124.462 345.462,-111.108 352.918,-100.572"/>
<polygon fill="midnightblue" stroke="midnightblue" points="355.927,-102.379 358.847,-92.1945 350.213,-98.3354 355.927,-102.379"/>
</g>
<!-- Node6&#45;&gt;Node3 -->
<g id="edge6" class="edge"><title>Node6&#45;&gt;Node3</title>
<path fill="none" stroke="midnightblue" d="M347.471,-72.8685C324.986,-61.7961 285.772,-42.4862 259.599,-29.5978"/>
<polygon fill="midnightblue" stroke="midnightblue" points="261.119,-26.445 250.601,-25.1672 258.026,-32.7249 261.119,-26.445"/>
</g>
<!-- Node7 -->
<g id="node7" class="node"><title>Node7</title>
<polygon fill="none" stroke="#bfbfbf" points="370.5,-6 370.5,-25 429.5,-25 429.5,-6 370.5,-6"/>
<text text-anchor="middle" x="400" y="-13" font-family="Helvetica,sans-Serif" font-size="10.00">functional</text>
</g>
<!-- Node6&#45;&gt;Node7 -->
<g id="edge7" class="edge"><title>Node6&#45;&gt;Node7</title>
<path fill="none" stroke="midnightblue" d="M369.72,-72.7338C375.021,-62.8903 383.76,-46.6598 390.491,-34.1594"/>
<polygon fill="midnightblue" stroke="midnightblue" points="393.695,-35.5914 395.355,-25.1273 387.532,-32.2727 393.695,-35.5914"/>
</g>
<!-- Node8 -->
<g id="node8" class="node"><title>Node8</title>
<polygon fill="none" stroke="#bfbfbf" points="307.5,-6 307.5,-25 352.5,-25 352.5,-6 307.5,-6"/>
<text text-anchor="middle" x="330" y="-13" font-family="Helvetica,sans-Serif" font-size="10.00">iosfwd</text>
</g>
<!-- Node6&#45;&gt;Node8 -->
<g id="edge8" class="edge"><title>Node6&#45;&gt;Node8</title>
<path fill="none" stroke="midnightblue" d="M360.28,-72.7338C354.979,-62.8903 346.24,-46.6598 339.509,-34.1594"/>
<polygon fill="midnightblue" stroke="midnightblue" points="342.468,-32.2727 334.645,-25.1273 336.305,-35.5914 342.468,-32.2727"/>
</g>
<!-- Node9&#45;&gt;Node3 -->
<g id="edge11" class="edge"><title>Node9&#45;&gt;Node3</title>
<path fill="none" stroke="midnightblue" d="M128.489,-134.387C144.016,-125.306 163.386,-112.51 178,-98 197.341,-78.7974 213.95,-51.8452 223.713,-34.2797"/>
<polygon fill="midnightblue" stroke="midnightblue" points="226.97,-35.6142 228.638,-25.1516 220.809,-32.2902 226.97,-35.6142"/>
</g>
<!-- Node10 -->
<g id="node10" class="node"><title>Node10</title>
<polygon fill="none" stroke="#bfbfbf" points="0,-6 0,-25 44,-25 44,-6 0,-6"/>
<text text-anchor="middle" x="22" y="-13" font-family="Helvetica,sans-Serif" font-size="10.00">vector</text>
</g>
<!-- Node9&#45;&gt;Node10 -->
<g id="edge10" class="edge"><title>Node9&#45;&gt;Node10</title>
<path fill="none" stroke="midnightblue" d="M54.8625,-134.479C37.2821,-126.705 19.145,-115.053 9,-98 -2.69641,-78.3392 5.25382,-51.5004 12.8937,-34.085"/>
<polygon fill="midnightblue" stroke="midnightblue" points="16.0592,-35.5783 17.2052,-25.0456 9.74105,-32.5647 16.0592,-35.5783"/>
</g>
<!-- Node11 -->
<g id="node11" class="node"><title>Node11</title>
<g id="a_node11"><a xlink:href="PostProcessingConfig_8h.html" target="_top" xlink:title="QualityControl/PostProcessing\lConfig.h">
<polygon fill="none" stroke="black" points="18.5,-67.5 18.5,-97.5 169.5,-97.5 169.5,-67.5 18.5,-67.5"/>
<text text-anchor="start" x="26.5" y="-85.5" font-family="Helvetica,sans-Serif" font-size="10.00">QualityControl/PostProcessing</text>
<text text-anchor="middle" x="94" y="-74.5" font-family="Helvetica,sans-Serif" font-size="10.00">Config.h</text>
</a>
</g>
</g>
<!-- Node9&#45;&gt;Node11 -->
<g id="edge12" class="edge"><title>Node9&#45;&gt;Node11</title>
<path fill="none" stroke="midnightblue" d="M100.264,-134.396C99.2997,-126.56 98.0733,-116.596 96.9619,-107.565"/>
<polygon fill="midnightblue" stroke="midnightblue" points="100.428,-107.074 95.7325,-97.5765 93.4803,-107.929 100.428,-107.074"/>
</g>
<!-- Node11&#45;&gt;Node3 -->
<g id="edge14" class="edge"><title>Node11&#45;&gt;Node3</title>
<path fill="none" stroke="midnightblue" d="M124.161,-67.396C148.442,-56.0414 182.275,-40.2201 205.748,-29.2437"/>
<polygon fill="midnightblue" stroke="midnightblue" points="207.232,-32.4135 214.808,-25.007 204.267,-26.0726 207.232,-32.4135"/>
</g>
<!-- Node11&#45;&gt;Node5 -->
<g id="edge15" class="edge"><title>Node11&#45;&gt;Node5</title>
<path fill="none" stroke="midnightblue" d="M99.4246,-67.396C102.504,-59.3893 106.438,-49.1616 109.97,-39.9778"/>
<polygon fill="midnightblue" stroke="midnightblue" points="113.263,-41.1664 113.586,-30.5765 106.729,-38.6535 113.263,-41.1664"/>
</g>
<!-- Node11&#45;&gt;Node10 -->
<g id="edge13" class="edge"><title>Node11&#45;&gt;Node10</title>
<path fill="none" stroke="midnightblue" d="M78.3771,-67.396C66.8172,-56.96 51.0777,-42.7507 39.1668,-31.9978"/>
<polygon fill="midnightblue" stroke="midnightblue" points="41.3989,-29.2977 31.6309,-25.1945 36.7082,-34.4935 41.3989,-29.2977"/>
</g>
<!-- Node13 -->
<g id="node13" class="node"><title>Node13</title>
<polygon fill="none" stroke="#bfbfbf" points="610.5,-73 610.5,-92 669.5,-92 669.5,-73 610.5,-73"/>
<text text-anchor="middle" x="640" y="-80" font-family="Helvetica,sans-Serif" font-size="10.00">TObject.h</text>
</g>
<!-- Node12&#45;&gt;Node13 -->
<g id="edge17" class="edge"><title>Node12&#45;&gt;Node13</title>
<path fill="none" stroke="midnightblue" d="M499.512,-139.869C527.67,-128.571 577.204,-108.696 609.299,-95.8183"/>
<polygon fill="midnightblue" stroke="midnightblue" points="610.679,-99.0358 618.657,-92.0637 608.073,-92.5392 610.679,-99.0358"/>
</g>
</g>
</svg>
