<?xml version="1.0" encoding="UTF-8" standalone="no"?>
<!DOCTYPE svg PUBLIC "-//W3C//DTD SVG 1.1//EN"
 "http://www.w3.org/Graphics/SVG/1.1/DTD/svg11.dtd">
<!-- Generated by graphviz version 2.38.0 (20140413.2041)
 -->
<!-- Title: Modules/ITS/src/TrendingTaskITSFhr.cxx Pages: 1 -->
<svg width="2550pt" height="307pt"
 viewBox="0.00 0.00 2549.50 307.00" xmlns="http://www.w3.org/2000/svg" xmlns:xlink="http://www.w3.org/1999/xlink">
<g id="graph0" class="graph" transform="scale(1 1) rotate(0) translate(4 303)">
<title>Modules/ITS/src/TrendingTaskITSFhr.cxx</title>
<!-- Node1 -->
<g id="node1" class="node"><title>Node1</title>
<polygon fill="#bfbfbf" stroke="black" points="1699,-268.5 1699,-298.5 1828,-298.5 1828,-268.5 1699,-268.5"/>
<text text-anchor="start" x="1707" y="-286.5" font-family="Helvetica,sans-Serif" font-size="10.00">Modules/ITS/src/Trending</text>
<text text-anchor="middle" x="1763.5" y="-275.5" font-family="Helvetica,sans-Serif" font-size="10.00">TaskITSFhr.cxx</text>
</g>
<!-- Node2 -->
<g id="node2" class="node"><title>Node2</title>
<g id="a_node2"><a xlink:href="TrendingTaskITSFhr_8h.html" target="_top" xlink:title="ITS/TrendingTaskITSFhr.h">
<polygon fill="none" stroke="black" points="589,-207 589,-226 722,-226 722,-207 589,-207"/>
<text text-anchor="middle" x="655.5" y="-214" font-family="Helvetica,sans-Serif" font-size="10.00">ITS/TrendingTaskITSFhr.h</text>
</a>
</g>
</g>
<!-- Node1&#45;&gt;Node2 -->
<g id="edge1" class="edge"><title>Node1&#45;&gt;Node2</title>
<path fill="none" stroke="midnightblue" d="M1698.73,-278.701C1506.42,-267.418 939.233,-234.145 732.233,-222.001"/>
<polygon fill="midnightblue" stroke="midnightblue" points="732.249,-218.496 722.061,-221.405 731.839,-225.484 732.249,-218.496"/>
</g>
<!-- Node6 -->
<g id="node6" class="node"><title>Node6</title>
<polygon fill="none" stroke="#bfbfbf" points="961,-6 961,-25 1002,-25 1002,-6 961,-6"/>
<text text-anchor="middle" x="981.5" y="-13" font-family="Helvetica,sans-Serif" font-size="10.00">string</text>
</g>
<!-- Node1&#45;&gt;Node6 -->
<g id="edge66" class="edge"><title>Node1&#45;&gt;Node6</title>
<path fill="none" stroke="midnightblue" d="M1698.72,-283.206C1518.8,-284.505 1022.88,-283.352 972.5,-232 945.55,-204.533 967.673,-82.2724 977.445,-35.1269"/>
<polygon fill="midnightblue" stroke="midnightblue" points="980.873,-35.8328 979.525,-25.324 974.026,-34.3795 980.873,-35.8328"/>
</g>
<!-- Node13 -->
<g id="node13" class="node"><title>Node13</title>
<g id="a_node13"><a xlink:href="Reductor_8h.html" target="_top" xlink:title="QualityControl/Reductor.h">
<polygon fill="none" stroke="black" points="978.5,-140 978.5,-159 1108.5,-159 1108.5,-140 978.5,-140"/>
<text text-anchor="middle" x="1043.5" y="-147" font-family="Helvetica,sans-Serif" font-size="10.00">QualityControl/Reductor.h</text>
</a>
</g>
</g>
<!-- Node1&#45;&gt;Node13 -->
<g id="edge58" class="edge"><title>Node1&#45;&gt;Node13</title>
<path fill="none" stroke="midnightblue" d="M1698.84,-281.737C1600.94,-279.327 1409.85,-269.7 1252.5,-232 1184.24,-215.646 1108.51,-181.925 1069.65,-163.395"/>
<polygon fill="midnightblue" stroke="midnightblue" points="1071.12,-160.219 1060.6,-159.032 1068.08,-166.526 1071.12,-160.219"/>
</g>
<!-- Node22 -->
<g id="node22" class="node"><title>Node22</title>
<g id="a_node22"><a xlink:href="RootClassFactory_8h.html" target="_top" xlink:title="QualityControl/RootClass\lFactory.h">
<polygon fill="none" stroke="black" points="1872.5,-201.5 1872.5,-231.5 2000.5,-231.5 2000.5,-201.5 1872.5,-201.5"/>
<text text-anchor="start" x="1880.5" y="-219.5" font-family="Helvetica,sans-Serif" font-size="10.00">QualityControl/RootClass</text>
<text text-anchor="middle" x="1936.5" y="-208.5" font-family="Helvetica,sans-Serif" font-size="10.00">Factory.h</text>
</a>
</g>
</g>
<!-- Node1&#45;&gt;Node22 -->
<g id="edge28" class="edge"><title>Node1&#45;&gt;Node22</title>
<path fill="none" stroke="midnightblue" d="M1801.04,-268.396C1827,-258.643 1861.72,-245.595 1889.52,-235.152"/>
<polygon fill="midnightblue" stroke="midnightblue" points="1890.9,-238.37 1899.03,-231.577 1888.44,-231.817 1890.9,-238.37"/>
</g>
<!-- Node28 -->
<g id="node28" class="node"><title>Node28</title>
<g id="a_node28"><a xlink:href="QcInfoLogger_8h.html" target="_top" xlink:title="QualityControl/QcInfoLogger.h">
<polygon fill="none" stroke="black" points="2169,-140 2169,-159 2318,-159 2318,-140 2169,-140"/>
<text text-anchor="middle" x="2243.5" y="-147" font-family="Helvetica,sans-Serif" font-size="10.00">QualityControl/QcInfoLogger.h</text>
</a>
</g>
</g>
<!-- Node1&#45;&gt;Node28 -->
<g id="edge57" class="edge"><title>Node1&#45;&gt;Node28</title>
<path fill="none" stroke="midnightblue" d="M1828.02,-271.674C1877.97,-262.713 1948.66,-248.761 2009.5,-232 2083.53,-211.606 2168.09,-180.029 2212.5,-162.778"/>
<polygon fill="midnightblue" stroke="midnightblue" points="2213.83,-166.019 2221.87,-159.121 2211.28,-159.498 2213.83,-166.019"/>
</g>
<!-- Node30 -->
<g id="node30" class="node"><title>Node30</title>
<g id="a_node30"><a xlink:href="DatabaseInterface_8h.html" target="_top" xlink:title="QualityControl/DatabaseInterface.h">
<polygon fill="none" stroke="black" points="1261.5,-207 1261.5,-226 1431.5,-226 1431.5,-207 1261.5,-207"/>
<text text-anchor="middle" x="1346.5" y="-214" font-family="Helvetica,sans-Serif" font-size="10.00">QualityControl/DatabaseInterface.h</text>
</a>
</g>
</g>
<!-- Node1&#45;&gt;Node30 -->
<g id="edge37" class="edge"><title>Node1&#45;&gt;Node30</title>
<path fill="none" stroke="midnightblue" d="M1698.8,-272.415C1620.53,-260.215 1489.55,-239.798 1411.26,-227.594"/>
<polygon fill="midnightblue" stroke="midnightblue" points="1411.46,-224.083 1401.04,-226.001 1410.38,-231 1411.46,-224.083"/>
</g>
<!-- Node32 -->
<g id="node32" class="node"><title>Node32</title>
<polygon fill="none" stroke="#bfbfbf" points="1799,-6 1799,-25 1834,-25 1834,-6 1799,-6"/>
<text text-anchor="middle" x="1816.5" y="-13" font-family="Helvetica,sans-Serif" font-size="10.00">map</text>
</g>
<!-- Node1&#45;&gt;Node32 -->
<g id="edge65" class="edge"><title>Node1&#45;&gt;Node32</title>
<path fill="none" stroke="midnightblue" d="M1828.07,-279.181C1962.76,-270.737 2266.21,-243.257 2326.5,-165 2339.87,-147.646 2332.82,-81.8231 2317.5,-67 2283.28,-33.8976 1944.55,-20.565 1844.3,-17.3254"/>
<polygon fill="midnightblue" stroke="midnightblue" points="1844.17,-13.8195 1834.07,-17.0031 1843.95,-20.8161 1844.17,-13.8195"/>
</g>
<!-- Node35 -->
<g id="node35" class="node"><title>Node35</title>
<g id="a_node35"><a xlink:href="MonitorObject_8h.html" target="_top" xlink:title="QualityControl/MonitorObject.h">
<polygon fill="none" stroke="black" points="1375,-140 1375,-159 1526,-159 1526,-140 1375,-140"/>
<text text-anchor="middle" x="1450.5" y="-147" font-family="Helvetica,sans-Serif" font-size="10.00">QualityControl/MonitorObject.h</text>
</a>
</g>
</g>
<!-- Node1&#45;&gt;Node35 -->
<g id="edge56" class="edge"><title>Node1&#45;&gt;Node35</title>
<path fill="none" stroke="midnightblue" d="M1730.3,-268.499C1669.02,-242.657 1539.07,-187.852 1480.38,-163.1"/>
<polygon fill="midnightblue" stroke="midnightblue" points="1481.51,-159.778 1470.93,-159.117 1478.79,-166.228 1481.51,-159.778"/>
</g>
<!-- Node36 -->
<g id="node36" class="node"><title>Node36</title>
<g id="a_node36"><a xlink:href="TH2XlineReductor_8h.html" target="_top" xlink:title="ITS/TH2XlineReductor.h">
<polygon fill="none" stroke="black" points="981.5,-207 981.5,-226 1105.5,-226 1105.5,-207 981.5,-207"/>
<text text-anchor="middle" x="1043.5" y="-214" font-family="Helvetica,sans-Serif" font-size="10.00">ITS/TH2XlineReductor.h</text>
</a>
</g>
</g>
<!-- Node1&#45;&gt;Node36 -->
<g id="edge59" class="edge"><title>Node1&#45;&gt;Node36</title>
<path fill="none" stroke="midnightblue" d="M1698.84,-277.636C1589.65,-269.282 1361.82,-251.237 1169.5,-232 1152.1,-230.26 1133.37,-228.204 1115.81,-226.195"/>
<polygon fill="midnightblue" stroke="midnightblue" points="1115.96,-222.69 1105.63,-225.021 1115.16,-229.643 1115.96,-222.69"/>
</g>
<!-- Node37 -->
<g id="node37" class="node"><title>Node37</title>
<polygon fill="none" stroke="#bfbfbf" points="2334,-207 2334,-226 2399,-226 2399,-207 2334,-207"/>
<text text-anchor="middle" x="2366.5" y="-214" font-family="Helvetica,sans-Serif" font-size="10.00">TCanvas.h</text>
</g>
<!-- Node1&#45;&gt;Node37 -->
<g id="edge62" class="edge"><title>Node1&#45;&gt;Node37</title>
<path fill="none" stroke="midnightblue" d="M1828.33,-280.988C1932.71,-277.577 2144.06,-266.635 2319.5,-232 2323.74,-231.163 2328.14,-230.09 2332.48,-228.907"/>
<polygon fill="midnightblue" stroke="midnightblue" points="2333.74,-232.182 2342.35,-226.006 2331.77,-225.465 2333.74,-232.182"/>
</g>
<!-- Node38 -->
<g id="node38" class="node"><title>Node38</title>
<polygon fill="none" stroke="#bfbfbf" points="2417.5,-207 2417.5,-226 2461.5,-226 2461.5,-207 2417.5,-207"/>
<text text-anchor="middle" x="2439.5" y="-214" font-family="Helvetica,sans-Serif" font-size="10.00">TH1.h</text>
</g>
<!-- Node1&#45;&gt;Node38 -->
<g id="edge63" class="edge"><title>Node1&#45;&gt;Node38</title>
<path fill="none" stroke="midnightblue" d="M1828.19,-280.27C1968.99,-274.955 2299.23,-259.86 2407.5,-232 2409.71,-231.432 2411.95,-230.721 2414.18,-229.92"/>
<polygon fill="midnightblue" stroke="midnightblue" points="2415.72,-233.069 2423.62,-226.006 2413.04,-226.603 2415.72,-233.069"/>
</g>
<!-- Node39 -->
<g id="node39" class="node"><title>Node39</title>
<polygon fill="none" stroke="#bfbfbf" points="2479.5,-207 2479.5,-226 2541.5,-226 2541.5,-207 2479.5,-207"/>
<text text-anchor="middle" x="2510.5" y="-214" font-family="Helvetica,sans-Serif" font-size="10.00">TDatime.h</text>
</g>
<!-- Node1&#45;&gt;Node39 -->
<g id="edge64" class="edge"><title>Node1&#45;&gt;Node39</title>
<path fill="none" stroke="midnightblue" d="M1828.1,-280.169C1978.56,-274.369 2348.86,-257.868 2470.5,-232 2473.75,-231.309 2477.1,-230.412 2480.4,-229.404"/>
<polygon fill="midnightblue" stroke="midnightblue" points="2481.71,-232.658 2490.06,-226.139 2479.46,-226.026 2481.71,-232.658"/>
</g>
<!-- Node3 -->
<g id="node3" class="node"><title>Node3</title>
<g id="a_node3"><a xlink:href="TrendingTaskConfigITS_8h_source.html" target="_top" xlink:title="ITS/TrendingTaskConfigITS.h">
<polygon fill="none" stroke="black" points="699,-140 699,-159 846,-159 846,-140 699,-140"/>
<text text-anchor="middle" x="772.5" y="-147" font-family="Helvetica,sans-Serif" font-size="10.00">ITS/TrendingTaskConfigITS.h</text>
</a>
</g>
</g>
<!-- Node2&#45;&gt;Node3 -->
<g id="edge2" class="edge"><title>Node2&#45;&gt;Node3</title>
<path fill="none" stroke="midnightblue" d="M671.279,-206.734C691.015,-195.769 725.014,-176.881 748.111,-164.049"/>
<polygon fill="midnightblue" stroke="midnightblue" points="749.929,-167.043 756.971,-159.127 746.53,-160.924 749.929,-167.043"/>
</g>
<!-- Node5 -->
<g id="node5" class="node"><title>Node5</title>
<polygon fill="none" stroke="#bfbfbf" points="750.5,-6 750.5,-25 794.5,-25 794.5,-6 750.5,-6"/>
<text text-anchor="middle" x="772.5" y="-13" font-family="Helvetica,sans-Serif" font-size="10.00">vector</text>
</g>
<!-- Node2&#45;&gt;Node5 -->
<g id="edge26" class="edge"><title>Node2&#45;&gt;Node5</title>
<path fill="none" stroke="midnightblue" d="M588.696,-215.124C502.242,-213.055 358.725,-203.697 325.5,-165 316.525,-154.547 317.087,-144.911 325.5,-134 377.103,-67.0791 646.396,-30.7368 740.222,-19.9575"/>
<polygon fill="midnightblue" stroke="midnightblue" points="740.721,-23.4235 750.266,-18.8249 739.937,-16.4676 740.721,-23.4235"/>
</g>
<!-- Node2&#45;&gt;Node6 -->
<g id="edge25" class="edge"><title>Node2&#45;&gt;Node6</title>
<path fill="none" stroke="midnightblue" d="M722.208,-208.909C762.876,-202.479 814.535,-189.829 854.5,-165 909.363,-130.916 952.868,-65.3903 971.562,-34.0441"/>
<polygon fill="midnightblue" stroke="midnightblue" points="974.734,-35.5535 976.743,-25.1509 968.685,-32.0298 974.734,-35.5535"/>
</g>
<!-- Node8 -->
<g id="node8" class="node"><title>Node8</title>
<g id="a_node8"><a xlink:href="PostProcessingInterface_8h.html" target="_top" xlink:title="QualityControl/PostProcessing\lInterface.h">
<polygon fill="none" stroke="black" points="127,-134.5 127,-164.5 278,-164.5 278,-134.5 127,-134.5"/>
<text text-anchor="start" x="135" y="-152.5" font-family="Helvetica,sans-Serif" font-size="10.00">QualityControl/PostProcessing</text>
<text text-anchor="middle" x="202.5" y="-141.5" font-family="Helvetica,sans-Serif" font-size="10.00">Interface.h</text>
</a>
</g>
</g>
<!-- Node2&#45;&gt;Node8 -->
<g id="edge9" class="edge"><title>Node2&#45;&gt;Node8</title>
<path fill="none" stroke="midnightblue" d="M591.179,-206.977C518.574,-197.257 396.952,-180.678 292.5,-165 291.033,-164.78 289.552,-164.556 288.061,-164.33"/>
<polygon fill="midnightblue" stroke="midnightblue" points="288.519,-160.859 278.104,-162.802 287.457,-167.778 288.519,-160.859"/>
</g>
<!-- Node2&#45;&gt;Node13 -->
<g id="edge17" class="edge"><title>Node2&#45;&gt;Node13</title>
<path fill="none" stroke="midnightblue" d="M706.623,-206.936C777.816,-195.009 906.612,-173.432 982.658,-160.693"/>
<polygon fill="midnightblue" stroke="midnightblue" points="983.288,-164.136 992.572,-159.032 982.131,-157.232 983.288,-164.136"/>
</g>
<!-- Node15 -->
<g id="node15" class="node"><title>Node15</title>
<polygon fill="none" stroke="#bfbfbf" points="334.5,-140 334.5,-159 384.5,-159 384.5,-140 334.5,-140"/>
<text text-anchor="middle" x="359.5" y="-147" font-family="Helvetica,sans-Serif" font-size="10.00">TAxis.h</text>
</g>
<!-- Node2&#45;&gt;Node15 -->
<g id="edge19" class="edge"><title>Node2&#45;&gt;Node15</title>
<path fill="none" stroke="midnightblue" d="M591.042,-206.986C537.431,-198.98 459.505,-185.184 393.5,-165 391.356,-164.344 389.164,-163.598 386.977,-162.797"/>
<polygon fill="midnightblue" stroke="midnightblue" points="388.17,-159.505 377.585,-159.055 385.58,-166.008 388.17,-159.505"/>
</g>
<!-- Node16 -->
<g id="node16" class="node"><title>Node16</title>
<polygon fill="none" stroke="#bfbfbf" points="402.5,-140 402.5,-159 456.5,-159 456.5,-140 402.5,-140"/>
<text text-anchor="middle" x="429.5" y="-147" font-family="Helvetica,sans-Serif" font-size="10.00">TColor.h</text>
</g>
<!-- Node2&#45;&gt;Node16 -->
<g id="edge20" class="edge"><title>Node2&#45;&gt;Node16</title>
<path fill="none" stroke="midnightblue" d="M617.964,-206.969C579.346,-197.855 517.639,-182.356 465.5,-165 463.37,-164.291 461.185,-163.521 458.995,-162.718"/>
<polygon fill="midnightblue" stroke="midnightblue" points="460.11,-159.397 449.52,-159.071 457.596,-165.93 460.11,-159.397"/>
</g>
<!-- Node17 -->
<g id="node17" class="node"><title>Node17</title>
<polygon fill="none" stroke="#bfbfbf" points="475,-140 475,-159 532,-159 532,-140 475,-140"/>
<text text-anchor="middle" x="503.5" y="-147" font-family="Helvetica,sans-Serif" font-size="10.00">TGraph.h</text>
</g>
<!-- Node2&#45;&gt;Node17 -->
<g id="edge21" class="edge"><title>Node2&#45;&gt;Node17</title>
<path fill="none" stroke="midnightblue" d="M635.316,-206.869C609.196,-195.699 563.474,-176.147 533.339,-163.26"/>
<polygon fill="midnightblue" stroke="midnightblue" points="534.339,-159.881 523.768,-159.167 531.586,-166.317 534.339,-159.881"/>
</g>
<!-- Node18 -->
<g id="node18" class="node"><title>Node18</title>
<polygon fill="none" stroke="#bfbfbf" points="550.5,-140 550.5,-159 612.5,-159 612.5,-140 550.5,-140"/>
<text text-anchor="middle" x="581.5" y="-147" font-family="Helvetica,sans-Serif" font-size="10.00">TLegend.h</text>
</g>
<!-- Node2&#45;&gt;Node18 -->
<g id="edge22" class="edge"><title>Node2&#45;&gt;Node18</title>
<path fill="none" stroke="midnightblue" d="M645.52,-206.734C633.648,-196.305 613.615,-178.709 599.116,-165.973"/>
<polygon fill="midnightblue" stroke="midnightblue" points="601.145,-163.097 591.322,-159.127 596.525,-168.356 601.145,-163.097"/>
</g>
<!-- Node19 -->
<g id="node19" class="node"><title>Node19</title>
<polygon fill="none" stroke="#bfbfbf" points="630.5,-140 630.5,-159 680.5,-159 680.5,-140 630.5,-140"/>
<text text-anchor="middle" x="655.5" y="-147" font-family="Helvetica,sans-Serif" font-size="10.00">TTree.h</text>
</g>
<!-- Node2&#45;&gt;Node19 -->
<g id="edge23" class="edge"><title>Node2&#45;&gt;Node19</title>
<path fill="none" stroke="midnightblue" d="M655.5,-206.734C655.5,-197.183 655.5,-181.618 655.5,-169.283"/>
<polygon fill="midnightblue" stroke="midnightblue" points="659,-169.127 655.5,-159.127 652,-169.127 659,-169.127"/>
</g>
<!-- Node20 -->
<g id="node20" class="node"><title>Node20</title>
<polygon fill="none" stroke="#bfbfbf" points="1228.5,-140 1228.5,-159 1280.5,-159 1280.5,-140 1228.5,-140"/>
<text text-anchor="middle" x="1254.5" y="-147" font-family="Helvetica,sans-Serif" font-size="10.00">memory</text>
</g>
<!-- Node2&#45;&gt;Node20 -->
<g id="edge24" class="edge"><title>Node2&#45;&gt;Node20</title>
<path fill="none" stroke="midnightblue" d="M722.287,-211.968C850.352,-204.79 1125.95,-187.274 1218.5,-165 1221.17,-164.357 1223.91,-163.551 1226.61,-162.65"/>
<polygon fill="midnightblue" stroke="midnightblue" points="1228.01,-165.866 1236.16,-159.094 1225.56,-159.306 1228.01,-165.866"/>
</g>
<!-- Node21 -->
<g id="node21" class="node"><title>Node21</title>
<polygon fill="none" stroke="#bfbfbf" points="1127,-140 1127,-159 1210,-159 1210,-140 1127,-140"/>
<text text-anchor="middle" x="1168.5" y="-147" font-family="Helvetica,sans-Serif" font-size="10.00">unordered_map</text>
</g>
<!-- Node2&#45;&gt;Node21 -->
<g id="edge27" class="edge"><title>Node2&#45;&gt;Node21</title>
<path fill="none" stroke="midnightblue" d="M722.206,-211.74C812.497,-205.849 978.325,-192.191 1117.5,-165 1122.22,-164.078 1127.14,-162.928 1131.98,-161.682"/>
<polygon fill="midnightblue" stroke="midnightblue" points="1132.98,-165.036 1141.71,-159.031 1131.14,-158.283 1132.98,-165.036"/>
</g>
<!-- Node4 -->
<g id="node4" class="node"><title>Node4</title>
<g id="a_node4"><a xlink:href="PostProcessingConfig_8h.html" target="_top" xlink:title="QualityControl/PostProcessing\lConfig.h">
<polygon fill="none" stroke="black" points="593,-67.5 593,-97.5 744,-97.5 744,-67.5 593,-67.5"/>
<text text-anchor="start" x="601" y="-85.5" font-family="Helvetica,sans-Serif" font-size="10.00">QualityControl/PostProcessing</text>
<text text-anchor="middle" x="668.5" y="-74.5" font-family="Helvetica,sans-Serif" font-size="10.00">Config.h</text>
</a>
</g>
</g>
<!-- Node3&#45;&gt;Node4 -->
<g id="edge3" class="edge"><title>Node3&#45;&gt;Node4</title>
<path fill="none" stroke="midnightblue" d="M758.474,-139.734C743.473,-130.358 719.201,-115.188 699.645,-102.966"/>
<polygon fill="midnightblue" stroke="midnightblue" points="701.377,-99.9211 691.042,-97.589 697.667,-105.857 701.377,-99.9211"/>
</g>
<!-- Node3&#45;&gt;Node5 -->
<g id="edge8" class="edge"><title>Node3&#45;&gt;Node5</title>
<path fill="none" stroke="midnightblue" d="M772.5,-139.839C772.5,-118.674 772.5,-63.9482 772.5,-35.0329"/>
<polygon fill="midnightblue" stroke="midnightblue" points="776,-35.0211 772.5,-25.0212 769,-35.0212 776,-35.0211"/>
</g>
<!-- Node3&#45;&gt;Node6 -->
<g id="edge7" class="edge"><title>Node3&#45;&gt;Node6</title>
<path fill="none" stroke="midnightblue" d="M786.213,-139.839C821.578,-117.503 916.121,-57.7918 959.362,-30.4819"/>
<polygon fill="midnightblue" stroke="midnightblue" points="961.422,-33.3204 968.008,-25.0212 957.684,-27.4019 961.422,-33.3204"/>
</g>
<!-- Node4&#45;&gt;Node5 -->
<g id="edge4" class="edge"><title>Node4&#45;&gt;Node5</title>
<path fill="none" stroke="midnightblue" d="M691.066,-67.396C708.507,-56.4956 732.534,-41.4787 749.966,-30.5835"/>
<polygon fill="midnightblue" stroke="midnightblue" points="752.264,-33.275 758.889,-25.007 748.554,-27.339 752.264,-33.275"/>
</g>
<!-- Node4&#45;&gt;Node6 -->
<g id="edge5" class="edge"><title>Node4&#45;&gt;Node6</title>
<path fill="none" stroke="midnightblue" d="M736.031,-67.476C802.5,-53.6725 901.032,-33.2105 950.617,-22.9133"/>
<polygon fill="midnightblue" stroke="midnightblue" points="951.63,-26.2777 960.71,-20.8174 950.207,-19.4239 951.63,-26.2777"/>
</g>
<!-- Node7 -->
<g id="node7" class="node"><title>Node7</title>
<polygon fill="none" stroke="#bfbfbf" points="399,-0.5 399,-30.5 500,-30.5 500,-0.5 399,-0.5"/>
<text text-anchor="start" x="407" y="-18.5" font-family="Helvetica,sans-Serif" font-size="10.00">boost/property_tree</text>
<text text-anchor="middle" x="449.5" y="-7.5" font-family="Helvetica,sans-Serif" font-size="10.00">/ptree_fwd.hpp</text>
</g>
<!-- Node4&#45;&gt;Node7 -->
<g id="edge6" class="edge"><title>Node4&#45;&gt;Node7</title>
<path fill="none" stroke="midnightblue" d="M621.25,-67.476C587.689,-57.5149 542.444,-44.0862 506.819,-33.5123"/>
<polygon fill="midnightblue" stroke="midnightblue" points="507.625,-30.101 497.043,-30.6109 505.634,-36.8117 507.625,-30.101"/>
</g>
<!-- Node8&#45;&gt;Node6 -->
<g id="edge10" class="edge"><title>Node8&#45;&gt;Node6</title>
<path fill="none" stroke="midnightblue" d="M278.24,-139.17C293.857,-137.359 310.204,-135.546 325.5,-134 514.986,-114.849 566.353,-138.263 752.5,-98 791.636,-89.5351 898.587,-48.8352 951.307,-28.3427"/>
<polygon fill="midnightblue" stroke="midnightblue" points="952.745,-31.5386 960.792,-24.6463 950.203,-25.0164 952.745,-31.5386"/>
</g>
<!-- Node8&#45;&gt;Node7 -->
<g id="edge12" class="edge"><title>Node8&#45;&gt;Node7</title>
<path fill="none" stroke="midnightblue" d="M189.564,-134.366C175.141,-116.859 155.888,-86.9142 172.5,-67 199.49,-34.6443 315.742,-22.9651 388.798,-18.7876"/>
<polygon fill="midnightblue" stroke="midnightblue" points="389.009,-22.2814 398.806,-18.2466 388.631,-15.2916 389.009,-22.2814"/>
</g>
<!-- Node9 -->
<g id="node9" class="node"><title>Node9</title>
<polygon fill="none" stroke="#bfbfbf" points="181.5,-73 181.5,-92 327.5,-92 327.5,-73 181.5,-73"/>
<text text-anchor="middle" x="254.5" y="-80" font-family="Helvetica,sans-Serif" font-size="10.00">Framework/ServiceRegistry.h</text>
</g>
<!-- Node8&#45;&gt;Node9 -->
<g id="edge11" class="edge"><title>Node8&#45;&gt;Node9</title>
<path fill="none" stroke="midnightblue" d="M213.783,-134.396C221.811,-124.361 232.629,-110.838 241.097,-100.253"/>
<polygon fill="midnightblue" stroke="midnightblue" points="244.03,-102.19 247.544,-92.1945 238.564,-97.8168 244.03,-102.19"/>
</g>
<!-- Node10 -->
<g id="node10" class="node"><title>Node10</title>
<g id="a_node10"><a xlink:href="Triggers_8h.html" target="_top" xlink:title="QualityControl/Triggers.h">
<polygon fill="none" stroke="black" points="0,-73 0,-92 125,-92 125,-73 0,-73"/>
<text text-anchor="middle" x="62.5" y="-80" font-family="Helvetica,sans-Serif" font-size="10.00">QualityControl/Triggers.h</text>
</a>
</g>
</g>
<!-- Node8&#45;&gt;Node10 -->
<g id="edge13" class="edge"><title>Node8&#45;&gt;Node10</title>
<path fill="none" stroke="midnightblue" d="M172.122,-134.396C147.666,-123.041 113.589,-107.22 89.9479,-96.2437"/>
<polygon fill="midnightblue" stroke="midnightblue" points="91.3668,-93.0436 80.8228,-92.007 88.419,-99.3927 91.3668,-93.0436"/>
</g>
<!-- Node10&#45;&gt;Node6 -->
<g id="edge14" class="edge"><title>Node10&#45;&gt;Node6</title>
<path fill="none" stroke="midnightblue" d="M120.923,-72.9806C137.56,-70.7771 155.72,-68.5824 172.5,-67 452.16,-40.6268 523.271,-50.4048 803.5,-31 855.218,-27.4187 915.311,-22.3301 950.776,-19.2308"/>
<polygon fill="midnightblue" stroke="midnightblue" points="951.3,-22.6983 960.956,-18.3367 950.688,-15.7252 951.3,-22.6983"/>
</g>
<!-- Node11 -->
<g id="node11" class="node"><title>Node11</title>
<polygon fill="none" stroke="#bfbfbf" points="68,-6 68,-25 127,-25 127,-6 68,-6"/>
<text text-anchor="middle" x="97.5" y="-13" font-family="Helvetica,sans-Serif" font-size="10.00">functional</text>
</g>
<!-- Node10&#45;&gt;Node11 -->
<g id="edge15" class="edge"><title>Node10&#45;&gt;Node11</title>
<path fill="none" stroke="midnightblue" d="M67.2203,-72.7338C72.5206,-62.8903 81.2601,-46.6598 87.9911,-34.1594"/>
<polygon fill="midnightblue" stroke="midnightblue" points="91.1951,-35.5914 92.8545,-25.1273 85.0318,-32.2727 91.1951,-35.5914"/>
</g>
<!-- Node12 -->
<g id="node12" class="node"><title>Node12</title>
<polygon fill="none" stroke="#bfbfbf" points="5,-6 5,-25 50,-25 50,-6 5,-6"/>
<text text-anchor="middle" x="27.5" y="-13" font-family="Helvetica,sans-Serif" font-size="10.00">iosfwd</text>
</g>
<!-- Node10&#45;&gt;Node12 -->
<g id="edge16" class="edge"><title>Node10&#45;&gt;Node12</title>
<path fill="none" stroke="midnightblue" d="M57.7797,-72.7338C52.4794,-62.8903 43.7399,-46.6598 37.0089,-34.1594"/>
<polygon fill="midnightblue" stroke="midnightblue" points="39.9682,-32.2727 32.1455,-25.1273 33.8049,-35.5914 39.9682,-32.2727"/>
</g>
<!-- Node14 -->
<g id="node14" class="node"><title>Node14</title>
<polygon fill="none" stroke="#bfbfbf" points="1375,-73 1375,-92 1434,-92 1434,-73 1375,-73"/>
<text text-anchor="middle" x="1404.5" y="-80" font-family="Helvetica,sans-Serif" font-size="10.00">TObject.h</text>
</g>
<!-- Node13&#45;&gt;Node14 -->
<g id="edge18" class="edge"><title>Node13&#45;&gt;Node14</title>
<path fill="none" stroke="midnightblue" d="M1086.52,-139.925C1096.67,-137.942 1107.46,-135.867 1117.5,-134 1205.58,-117.623 1309.14,-99.7383 1364.61,-90.2687"/>
<polygon fill="midnightblue" stroke="midnightblue" points="1365.45,-93.6761 1374.72,-88.5453 1364.27,-86.7757 1365.45,-93.6761"/>
</g>
<!-- Node22&#45;&gt;Node6 -->
<g id="edge29" class="edge"><title>Node22&#45;&gt;Node6</title>
<path fill="none" stroke="midnightblue" d="M1872.32,-211.132C1782.49,-204.252 1624.43,-189.134 1572.5,-165 1542.96,-151.271 1493.26,-80.2328 1463.5,-67 1382.06,-30.7912 1105.3,-19.9268 1012.28,-17.2568"/>
<polygon fill="midnightblue" stroke="midnightblue" points="1012.21,-13.7537 1002.12,-16.9772 1012.02,-20.7511 1012.21,-13.7537"/>
</g>
<!-- Node23 -->
<g id="node23" class="node"><title>Node23</title>
<polygon fill="none" stroke="#bfbfbf" points="1758.5,-73 1758.5,-92 1874.5,-92 1874.5,-73 1758.5,-73"/>
<text text-anchor="middle" x="1816.5" y="-80" font-family="Helvetica,sans-Serif" font-size="10.00">Common/Exceptions.h</text>
</g>
<!-- Node22&#45;&gt;Node23 -->
<g id="edge30" class="edge"><title>Node22&#45;&gt;Node23</title>
<path fill="none" stroke="midnightblue" d="M2000.57,-209.171C2068.05,-200.015 2159.64,-178.969 2121.5,-134 2091.75,-98.9153 1965.09,-88.1736 1884.64,-84.9055"/>
<polygon fill="midnightblue" stroke="midnightblue" points="1884.71,-81.4057 1874.58,-84.5259 1884.44,-88.4007 1884.71,-81.4057"/>
</g>
<!-- Node24 -->
<g id="node24" class="node"><title>Node24</title>
<polygon fill="none" stroke="#bfbfbf" points="1979.5,-140 1979.5,-159 2035.5,-159 2035.5,-140 1979.5,-140"/>
<text text-anchor="middle" x="2007.5" y="-147" font-family="Helvetica,sans-Serif" font-size="10.00">TClass.h</text>
</g>
<!-- Node22&#45;&gt;Node24 -->
<g id="edge31" class="edge"><title>Node22&#45;&gt;Node24</title>
<path fill="none" stroke="midnightblue" d="M1951.91,-201.396C1963.31,-190.96 1978.83,-176.751 1990.57,-165.998"/>
<polygon fill="midnightblue" stroke="midnightblue" points="1992.99,-168.529 1998,-159.195 1988.26,-163.366 1992.99,-168.529"/>
</g>
<!-- Node25 -->
<g id="node25" class="node"><title>Node25</title>
<polygon fill="none" stroke="#bfbfbf" points="2054,-140 2054,-159 2113,-159 2113,-140 2054,-140"/>
<text text-anchor="middle" x="2083.5" y="-147" font-family="Helvetica,sans-Serif" font-size="10.00">TROOT.h</text>
</g>
<!-- Node22&#45;&gt;Node25 -->
<g id="edge32" class="edge"><title>Node22&#45;&gt;Node25</title>
<path fill="none" stroke="midnightblue" d="M1968.4,-201.396C1994.19,-189.991 2030.17,-174.079 2055.01,-163.098"/>
<polygon fill="midnightblue" stroke="midnightblue" points="2056.53,-166.252 2064.26,-159.007 2053.7,-159.85 2056.53,-166.252"/>
</g>
<!-- Node26 -->
<g id="node26" class="node"><title>Node26</title>
<polygon fill="none" stroke="#bfbfbf" points="1749,-140 1749,-159 1814,-159 1814,-140 1749,-140"/>
<text text-anchor="middle" x="1781.5" y="-147" font-family="Helvetica,sans-Serif" font-size="10.00">TSystem.h</text>
</g>
<!-- Node22&#45;&gt;Node26 -->
<g id="edge33" class="edge"><title>Node22&#45;&gt;Node26</title>
<path fill="none" stroke="midnightblue" d="M1902.87,-201.396C1875.55,-189.941 1837.39,-173.938 1811.19,-162.952"/>
<polygon fill="midnightblue" stroke="midnightblue" points="1812.36,-159.647 1801.79,-159.007 1809.65,-166.102 1812.36,-159.647"/>
</g>
<!-- Node27 -->
<g id="node27" class="node"><title>Node27</title>
<polygon fill="none" stroke="#bfbfbf" points="1832,-140 1832,-159 1961,-159 1961,-140 1832,-140"/>
<text text-anchor="middle" x="1896.5" y="-147" font-family="Helvetica,sans-Serif" font-size="10.00">boost/filesystem/path.hpp</text>
</g>
<!-- Node22&#45;&gt;Node27 -->
<g id="edge34" class="edge"><title>Node22&#45;&gt;Node27</title>
<path fill="none" stroke="midnightblue" d="M1927.82,-201.396C1921.77,-191.562 1913.66,-178.378 1907.2,-167.892"/>
<polygon fill="midnightblue" stroke="midnightblue" points="1910.07,-165.877 1901.85,-159.195 1904.11,-169.545 1910.07,-165.877"/>
</g>
<!-- Node22&#45;&gt;Node28 -->
<g id="edge35" class="edge"><title>Node22&#45;&gt;Node28</title>
<path fill="none" stroke="midnightblue" d="M2000.86,-201.874C2058.06,-189.764 2140.52,-172.303 2193.06,-161.179"/>
<polygon fill="midnightblue" stroke="midnightblue" points="2194.09,-164.538 2203.15,-159.043 2192.64,-157.69 2194.09,-164.538"/>
</g>
<!-- Node29 -->
<g id="node29" class="node"><title>Node29</title>
<polygon fill="none" stroke="#bfbfbf" points="2178.5,-73 2178.5,-92 2308.5,-92 2308.5,-73 2178.5,-73"/>
<text text-anchor="middle" x="2243.5" y="-80" font-family="Helvetica,sans-Serif" font-size="10.00">InfoLogger/InfoLogger.hxx</text>
</g>
<!-- Node28&#45;&gt;Node29 -->
<g id="edge36" class="edge"><title>Node28&#45;&gt;Node29</title>
<path fill="none" stroke="midnightblue" d="M2243.5,-139.734C2243.5,-130.183 2243.5,-114.618 2243.5,-102.283"/>
<polygon fill="midnightblue" stroke="midnightblue" points="2247,-102.127 2243.5,-92.1273 2240,-102.127 2247,-102.127"/>
</g>
<!-- Node30&#45;&gt;Node5 -->
<g id="edge40" class="edge"><title>Node30&#45;&gt;Node5</title>
<path fill="none" stroke="midnightblue" d="M1342.98,-206.763C1335.7,-189.857 1317.3,-152.691 1289.5,-134 1208.25,-79.3641 904.984,-34.3881 804.829,-20.75"/>
<polygon fill="midnightblue" stroke="midnightblue" points="805.088,-17.2534 794.71,-19.3851 804.152,-24.1906 805.088,-17.2534"/>
</g>
<!-- Node30&#45;&gt;Node6 -->
<g id="edge38" class="edge"><title>Node30&#45;&gt;Node6</title>
<path fill="none" stroke="midnightblue" d="M1346.42,-206.605C1345.78,-190.081 1342.07,-154.475 1322.5,-134 1236.65,-44.157 1078.98,-22.9967 1012.43,-18.0233"/>
<polygon fill="midnightblue" stroke="midnightblue" points="1012.41,-14.5137 1002.19,-17.3341 1011.94,-21.4979 1012.41,-14.5137"/>
</g>
<!-- Node30&#45;&gt;Node20 -->
<g id="edge39" class="edge"><title>Node30&#45;&gt;Node20</title>
<path fill="none" stroke="midnightblue" d="M1334.09,-206.734C1318.92,-196.013 1293.02,-177.716 1274.9,-164.914"/>
<polygon fill="midnightblue" stroke="midnightblue" points="1276.9,-162.039 1266.71,-159.127 1272.86,-167.756 1276.9,-162.039"/>
</g>
<!-- Node30&#45;&gt;Node21 -->
<g id="edge41" class="edge"><title>Node30&#45;&gt;Node21</title>
<path fill="none" stroke="midnightblue" d="M1322.86,-206.869C1291.79,-195.522 1237.03,-175.525 1201.78,-162.652"/>
<polygon fill="midnightblue" stroke="midnightblue" points="1202.55,-159.206 1191.95,-159.064 1200.14,-165.782 1202.55,-159.206"/>
</g>
<!-- Node31 -->
<g id="node31" class="node"><title>Node31</title>
<g id="a_node31"><a xlink:href="QualityObject_8h_source.html" target="_top" xlink:title="QualityControl/QualityObject.h">
<polygon fill="none" stroke="black" points="1582,-140 1582,-159 1731,-159 1731,-140 1582,-140"/>
<text text-anchor="middle" x="1656.5" y="-147" font-family="Helvetica,sans-Serif" font-size="10.00">QualityControl/QualityObject.h</text>
</a>
</g>
</g>
<!-- Node30&#45;&gt;Node31 -->
<g id="edge42" class="edge"><title>Node30&#45;&gt;Node31</title>
<path fill="none" stroke="midnightblue" d="M1387.35,-206.936C1443.57,-195.147 1544.75,-173.93 1605.76,-161.138"/>
<polygon fill="midnightblue" stroke="midnightblue" points="1606.49,-164.561 1615.56,-159.083 1605.06,-157.71 1606.49,-164.561"/>
</g>
<!-- Node30&#45;&gt;Node35 -->
<g id="edge50" class="edge"><title>Node30&#45;&gt;Node35</title>
<path fill="none" stroke="midnightblue" d="M1360.53,-206.734C1377.83,-195.916 1407.49,-177.383 1427.99,-164.566"/>
<polygon fill="midnightblue" stroke="midnightblue" points="1430.07,-167.395 1436.7,-159.127 1426.36,-161.459 1430.07,-167.395"/>
</g>
<!-- Node31&#45;&gt;Node14 -->
<g id="edge44" class="edge"><title>Node31&#45;&gt;Node14</title>
<path fill="none" stroke="midnightblue" d="M1623.3,-139.936C1577.03,-128.003 1493.32,-106.409 1443.94,-93.6721"/>
<polygon fill="midnightblue" stroke="midnightblue" points="1444.8,-90.2804 1434.24,-91.1717 1443.05,-97.0585 1444.8,-90.2804"/>
</g>
<!-- Node31&#45;&gt;Node23 -->
<g id="edge45" class="edge"><title>Node31&#45;&gt;Node23</title>
<path fill="none" stroke="midnightblue" d="M1677.75,-139.869C1705.44,-128.619 1754.06,-108.867 1785.77,-95.9853"/>
<polygon fill="midnightblue" stroke="midnightblue" points="1787.47,-99.0701 1795.42,-92.0637 1784.84,-92.5849 1787.47,-99.0701"/>
</g>
<!-- Node31&#45;&gt;Node32 -->
<g id="edge43" class="edge"><title>Node31&#45;&gt;Node32</title>
<path fill="none" stroke="midnightblue" d="M1701.53,-139.974C1766.06,-127.543 1877.77,-105.146 1883.5,-98 1902.77,-73.9696 1867.81,-46.3404 1841.55,-30.2109"/>
<polygon fill="midnightblue" stroke="midnightblue" points="1843.12,-27.0737 1832.73,-25.01 1839.57,-33.1038 1843.12,-27.0737"/>
</g>
<!-- Node33 -->
<g id="node33" class="node"><title>Node33</title>
<g id="a_node33"><a xlink:href="Quality_8h.html" target="_top" xlink:title="QualityControl/Quality.h">
<polygon fill="none" stroke="black" points="1581,-73 1581,-92 1702,-92 1702,-73 1581,-73"/>
<text text-anchor="middle" x="1641.5" y="-80" font-family="Helvetica,sans-Serif" font-size="10.00">QualityControl/Quality.h</text>
</a>
</g>
</g>
<!-- Node31&#45;&gt;Node33 -->
<g id="edge46" class="edge"><title>Node31&#45;&gt;Node33</title>
<path fill="none" stroke="midnightblue" d="M1654.48,-139.734C1652.25,-130.085 1648.61,-114.3 1645.75,-101.906"/>
<polygon fill="midnightblue" stroke="midnightblue" points="1649.15,-101.084 1643.49,-92.1273 1642.33,-102.658 1649.15,-101.084"/>
</g>
<!-- Node33&#45;&gt;Node6 -->
<g id="edge48" class="edge"><title>Node33&#45;&gt;Node6</title>
<path fill="none" stroke="midnightblue" d="M1580.85,-73.3142C1563.92,-71.139 1545.51,-68.8755 1528.5,-67 1332.34,-45.3668 1095.9,-25.711 1012.47,-18.9705"/>
<polygon fill="midnightblue" stroke="midnightblue" points="1012.64,-15.4734 1002.39,-18.1595 1012.08,-22.4508 1012.64,-15.4734"/>
</g>
<!-- Node33&#45;&gt;Node32 -->
<g id="edge49" class="edge"><title>Node33&#45;&gt;Node32</title>
<path fill="none" stroke="midnightblue" d="M1664.74,-72.8685C1696.93,-60.9134 1754.97,-39.3548 1789.19,-26.6451"/>
<polygon fill="midnightblue" stroke="midnightblue" points="1790.83,-29.7681 1798.99,-23.0052 1788.39,-23.2061 1790.83,-29.7681"/>
</g>
<!-- Node34 -->
<g id="node34" class="node"><title>Node34</title>
<polygon fill="none" stroke="#bfbfbf" points="1568.5,-6 1568.5,-25 1624.5,-25 1624.5,-6 1568.5,-6"/>
<text text-anchor="middle" x="1596.5" y="-13" font-family="Helvetica,sans-Serif" font-size="10.00">Rtypes.h</text>
</g>
<!-- Node33&#45;&gt;Node34 -->
<g id="edge47" class="edge"><title>Node33&#45;&gt;Node34</title>
<path fill="none" stroke="midnightblue" d="M1635.43,-72.7338C1628.48,-62.6953 1616.93,-46.0145 1608.21,-33.4213"/>
<polygon fill="midnightblue" stroke="midnightblue" points="1611.04,-31.357 1602.47,-25.1273 1605.29,-35.3415 1611.04,-31.357"/>
</g>
<!-- Node35&#45;&gt;Node6 -->
<g id="edge51" class="edge"><title>Node35&#45;&gt;Node6</title>
<path fill="none" stroke="midnightblue" d="M1452.73,-139.926C1456.49,-123.304 1461.89,-86.6126 1442.5,-67 1412.22,-36.3736 1110.48,-21.6637 1012.24,-17.6597"/>
<polygon fill="midnightblue" stroke="midnightblue" points="1012.2,-14.1557 1002.07,-17.2543 1011.92,-21.1501 1012.2,-14.1557"/>
</g>
<!-- Node35&#45;&gt;Node14 -->
<g id="edge54" class="edge"><title>Node35&#45;&gt;Node14</title>
<path fill="none" stroke="midnightblue" d="M1444.3,-139.734C1437.19,-129.695 1425.39,-113.014 1416.48,-100.421"/>
<polygon fill="midnightblue" stroke="midnightblue" points="1419.24,-98.2682 1410.61,-92.1273 1413.53,-102.312 1419.24,-98.2682"/>
</g>
<!-- Node35&#45;&gt;Node23 -->
<g id="edge55" class="edge"><title>Node35&#45;&gt;Node23</title>
<path fill="none" stroke="midnightblue" d="M1502.89,-139.965C1561.76,-130.269 1660.12,-113.741 1744.5,-98 1751.15,-96.7589 1758.14,-95.4091 1765.04,-94.0491"/>
<polygon fill="midnightblue" stroke="midnightblue" points="1765.91,-97.4444 1775.04,-92.0606 1764.55,-90.5789 1765.91,-97.4444"/>
</g>
<!-- Node35&#45;&gt;Node32 -->
<g id="edge52" class="edge"><title>Node35&#45;&gt;Node32</title>
<path fill="none" stroke="midnightblue" d="M1512.05,-139.998C1577.4,-130.363 1675.94,-113.922 1710.5,-98 1730.61,-88.7349 1731.99,-80.5537 1749.5,-67 1765.18,-54.8586 1783.14,-41.3453 1796.51,-31.3548"/>
<polygon fill="midnightblue" stroke="midnightblue" points="1798.64,-34.1315 1804.57,-25.3482 1794.46,-28.5196 1798.64,-34.1315"/>
</g>
<!-- Node35&#45;&gt;Node34 -->
<g id="edge53" class="edge"><title>Node35&#45;&gt;Node34</title>
<path fill="none" stroke="midnightblue" d="M1460.08,-139.839C1484.32,-117.925 1548.35,-60.0318 1579.29,-32.0619"/>
<polygon fill="midnightblue" stroke="midnightblue" points="1582,-34.3239 1587.08,-25.0212 1577.31,-29.1315 1582,-34.3239"/>
</g>
<!-- Node36&#45;&gt;Node5 -->
<g id="edge61" class="edge"><title>Node36&#45;&gt;Node5</title>
<path fill="none" stroke="midnightblue" d="M1030.92,-206.944C1016.18,-196.917 991.042,-179.79 969.5,-165 926.305,-135.344 914.396,-129.464 872.5,-98 843.016,-75.8571 810.096,-48.4871 790.353,-31.7713"/>
<polygon fill="midnightblue" stroke="midnightblue" points="792.394,-28.9125 782.508,-25.1019 787.86,-34.2457 792.394,-28.9125"/>
</g>
<!-- Node36&#45;&gt;Node13 -->
<g id="edge60" class="edge"><title>Node36&#45;&gt;Node13</title>
<path fill="none" stroke="midnightblue" d="M1043.5,-206.734C1043.5,-197.183 1043.5,-181.618 1043.5,-169.283"/>
<polygon fill="midnightblue" stroke="midnightblue" points="1047,-169.127 1043.5,-159.127 1040,-169.127 1047,-169.127"/>
</g>
</g>
</svg>
