<?xml version="1.0" encoding="UTF-8" standalone="no"?>
<!DOCTYPE svg PUBLIC "-//W3C//DTD SVG 1.1//EN"
 "http://www.w3.org/Graphics/SVG/1.1/DTD/svg11.dtd">
<!-- Generated by graphviz version 2.38.0 (20140413.2041)
 -->
<!-- Title: Modules/ITS/include/ITS/TrendingTaskITSFhr.h Pages: 1 -->
<svg width="1140pt" height="240pt"
 viewBox="0.00 0.00 1139.50 240.00" xmlns="http://www.w3.org/2000/svg" xmlns:xlink="http://www.w3.org/1999/xlink">
<g id="graph0" class="graph" transform="scale(1 1) rotate(0) translate(4 236)">
<title>Modules/ITS/include/ITS/TrendingTaskITSFhr.h</title>
<!-- Node1 -->
<g id="node1" class="node"><title>Node1</title>
<polygon fill="#bfbfbf" stroke="black" points="606,-201.5 606,-231.5 742,-231.5 742,-201.5 606,-201.5"/>
<text text-anchor="start" x="614" y="-219.5" font-family="Helvetica,sans-Serif" font-size="10.00">Modules/ITS/include</text>
<text text-anchor="middle" x="674" y="-208.5" font-family="Helvetica,sans-Serif" font-size="10.00">/ITS/TrendingTaskITSFhr.h</text>
</g>
<!-- Node2 -->
<g id="node2" class="node"><title>Node2</title>
<g id="a_node2"><a xlink:href="TrendingTaskConfigITS_8h_source.html" target="_top" xlink:title="ITS/TrendingTaskConfigITS.h">
<polygon fill="none" stroke="black" points="72.5,-140 72.5,-159 219.5,-159 219.5,-140 72.5,-140"/>
<text text-anchor="middle" x="146" y="-147" font-family="Helvetica,sans-Serif" font-size="10.00">ITS/TrendingTaskConfigITS.h</text>
</a>
</g>
</g>
<!-- Node1&#45;&gt;Node2 -->
<g id="edge1" class="edge"><title>Node1&#45;&gt;Node2</title>
<path fill="none" stroke="midnightblue" d="M605.948,-207.61C522.85,-197.908 378.035,-180.782 254,-165 242.417,-163.526 230.142,-161.92 218.182,-160.331"/>
<polygon fill="midnightblue" stroke="midnightblue" points="218.606,-156.857 208.231,-159.004 217.68,-163.796 218.606,-156.857"/>
</g>
<!-- Node4 -->
<g id="node4" class="node"><title>Node4</title>
<polygon fill="none" stroke="#bfbfbf" points="0,-6 0,-25 44,-25 44,-6 0,-6"/>
<text text-anchor="middle" x="22" y="-13" font-family="Helvetica,sans-Serif" font-size="10.00">vector</text>
</g>
<!-- Node1&#45;&gt;Node4 -->
<g id="edge25" class="edge"><title>Node1&#45;&gt;Node4</title>
<path fill="none" stroke="midnightblue" d="M605.843,-213.36C456.117,-208.16 108.188,-193.175 63,-165 33.5708,-146.651 32.4257,-131.375 23,-98 17.1255,-77.1989 17.9054,-52.2048 19.49,-35.4272"/>
<polygon fill="midnightblue" stroke="midnightblue" points="22.9919,-35.6085 20.6438,-25.2772 16.0367,-34.8179 22.9919,-35.6085"/>
</g>
<!-- Node5 -->
<g id="node5" class="node"><title>Node5</title>
<polygon fill="none" stroke="#bfbfbf" points="247.5,-6 247.5,-25 288.5,-25 288.5,-6 247.5,-6"/>
<text text-anchor="middle" x="268" y="-13" font-family="Helvetica,sans-Serif" font-size="10.00">string</text>
</g>
<!-- Node1&#45;&gt;Node5 -->
<g id="edge24" class="edge"><title>Node1&#45;&gt;Node5</title>
<path fill="none" stroke="midnightblue" d="M605.784,-216.219C506.804,-215.722 330.425,-208.534 287,-165 252.506,-130.419 258.416,-66.5874 263.998,-35.0832"/>
<polygon fill="midnightblue" stroke="midnightblue" points="267.475,-35.5398 265.965,-25.0532 260.606,-34.1929 267.475,-35.5398"/>
</g>
<!-- Node7 -->
<g id="node7" class="node"><title>Node7</title>
<g id="a_node7"><a xlink:href="PostProcessingInterface_8h.html" target="_top" xlink:title="QualityControl/PostProcessing\lInterface.h">
<polygon fill="none" stroke="black" points="296.5,-134.5 296.5,-164.5 447.5,-164.5 447.5,-134.5 296.5,-134.5"/>
<text text-anchor="start" x="304.5" y="-152.5" font-family="Helvetica,sans-Serif" font-size="10.00">QualityControl/PostProcessing</text>
<text text-anchor="middle" x="372" y="-141.5" font-family="Helvetica,sans-Serif" font-size="10.00">Interface.h</text>
</a>
</g>
</g>
<!-- Node1&#45;&gt;Node7 -->
<g id="edge8" class="edge"><title>Node1&#45;&gt;Node7</title>
<path fill="none" stroke="midnightblue" d="M608.842,-201.476C561.392,-191.263 497.008,-177.406 447.345,-166.717"/>
<polygon fill="midnightblue" stroke="midnightblue" points="447.814,-163.237 437.301,-164.555 446.341,-170.081 447.814,-163.237"/>
</g>
<!-- Node12 -->
<g id="node12" class="node"><title>Node12</title>
<g id="a_node12"><a xlink:href="Reductor_8h.html" target="_top" xlink:title="QualityControl/Reductor.h">
<polygon fill="none" stroke="black" points="466,-140 466,-159 596,-159 596,-140 466,-140"/>
<text text-anchor="middle" x="531" y="-147" font-family="Helvetica,sans-Serif" font-size="10.00">QualityControl/Reductor.h</text>
</a>
</g>
</g>
<!-- Node1&#45;&gt;Node12 -->
<g id="edge16" class="edge"><title>Node1&#45;&gt;Node12</title>
<path fill="none" stroke="midnightblue" d="M642.971,-201.396C617.991,-190.041 583.184,-174.22 559.036,-163.244"/>
<polygon fill="midnightblue" stroke="midnightblue" points="560.267,-159.959 549.715,-159.007 557.371,-166.331 560.267,-159.959"/>
</g>
<!-- Node14 -->
<g id="node14" class="node"><title>Node14</title>
<polygon fill="none" stroke="#bfbfbf" points="614,-140 614,-159 664,-159 664,-140 614,-140"/>
<text text-anchor="middle" x="639" y="-147" font-family="Helvetica,sans-Serif" font-size="10.00">TAxis.h</text>
</g>
<!-- Node1&#45;&gt;Node14 -->
<g id="edge18" class="edge"><title>Node1&#45;&gt;Node14</title>
<path fill="none" stroke="midnightblue" d="M666.406,-201.396C661.164,-191.662 654.156,-178.646 648.538,-168.214"/>
<polygon fill="midnightblue" stroke="midnightblue" points="651.504,-166.34 643.682,-159.195 645.341,-169.659 651.504,-166.34"/>
</g>
<!-- Node15 -->
<g id="node15" class="node"><title>Node15</title>
<polygon fill="none" stroke="#bfbfbf" points="682,-140 682,-159 736,-159 736,-140 682,-140"/>
<text text-anchor="middle" x="709" y="-147" font-family="Helvetica,sans-Serif" font-size="10.00">TColor.h</text>
</g>
<!-- Node1&#45;&gt;Node15 -->
<g id="edge19" class="edge"><title>Node1&#45;&gt;Node15</title>
<path fill="none" stroke="midnightblue" d="M681.594,-201.396C686.836,-191.662 693.844,-178.646 699.462,-168.214"/>
<polygon fill="midnightblue" stroke="midnightblue" points="702.659,-169.659 704.318,-159.195 696.496,-166.34 702.659,-169.659"/>
</g>
<!-- Node16 -->
<g id="node16" class="node"><title>Node16</title>
<polygon fill="none" stroke="#bfbfbf" points="754.5,-140 754.5,-159 811.5,-159 811.5,-140 754.5,-140"/>
<text text-anchor="middle" x="783" y="-147" font-family="Helvetica,sans-Serif" font-size="10.00">TGraph.h</text>
</g>
<!-- Node1&#45;&gt;Node16 -->
<g id="edge20" class="edge"><title>Node1&#45;&gt;Node16</title>
<path fill="none" stroke="midnightblue" d="M697.651,-201.396C716.184,-190.344 741.814,-175.061 760.14,-164.132"/>
<polygon fill="midnightblue" stroke="midnightblue" points="761.938,-167.135 768.734,-159.007 758.353,-161.123 761.938,-167.135"/>
</g>
<!-- Node17 -->
<g id="node17" class="node"><title>Node17</title>
<polygon fill="none" stroke="#bfbfbf" points="830,-140 830,-159 892,-159 892,-140 830,-140"/>
<text text-anchor="middle" x="861" y="-147" font-family="Helvetica,sans-Serif" font-size="10.00">TLegend.h</text>
</g>
<!-- Node1&#45;&gt;Node17 -->
<g id="edge21" class="edge"><title>Node1&#45;&gt;Node17</title>
<path fill="none" stroke="midnightblue" d="M715.567,-201.429C745.042,-191.4 785.503,-177.53 821,-165 823.377,-164.161 825.831,-163.288 828.299,-162.405"/>
<polygon fill="midnightblue" stroke="midnightblue" points="829.534,-165.681 837.757,-159 827.163,-159.094 829.534,-165.681"/>
</g>
<!-- Node18 -->
<g id="node18" class="node"><title>Node18</title>
<polygon fill="none" stroke="#bfbfbf" points="910,-140 910,-159 960,-159 960,-140 910,-140"/>
<text text-anchor="middle" x="935" y="-147" font-family="Helvetica,sans-Serif" font-size="10.00">TTree.h</text>
</g>
<!-- Node1&#45;&gt;Node18 -->
<g id="edge22" class="edge"><title>Node1&#45;&gt;Node18</title>
<path fill="none" stroke="midnightblue" d="M742.165,-203.738C787.705,-195.054 848.631,-181.834 901,-165 902.924,-164.381 904.89,-163.696 906.858,-162.968"/>
<polygon fill="midnightblue" stroke="midnightblue" points="908.54,-166.065 916.529,-159.107 905.944,-159.564 908.54,-166.065"/>
</g>
<!-- Node19 -->
<g id="node19" class="node"><title>Node19</title>
<polygon fill="none" stroke="#bfbfbf" points="978,-140 978,-159 1030,-159 1030,-140 978,-140"/>
<text text-anchor="middle" x="1004" y="-147" font-family="Helvetica,sans-Serif" font-size="10.00">memory</text>
</g>
<!-- Node1&#45;&gt;Node19 -->
<g id="edge23" class="edge"><title>Node1&#45;&gt;Node19</title>
<path fill="none" stroke="midnightblue" d="M742.041,-208.229C802.463,-200.743 892.747,-187.022 969,-165 971.293,-164.338 973.638,-163.572 975.976,-162.746"/>
<polygon fill="midnightblue" stroke="midnightblue" points="977.316,-165.98 985.385,-159.114 974.796,-159.45 977.316,-165.98"/>
</g>
<!-- Node20 -->
<g id="node20" class="node"><title>Node20</title>
<polygon fill="none" stroke="#bfbfbf" points="1048.5,-140 1048.5,-159 1131.5,-159 1131.5,-140 1048.5,-140"/>
<text text-anchor="middle" x="1090" y="-147" font-family="Helvetica,sans-Serif" font-size="10.00">unordered_map</text>
</g>
<!-- Node1&#45;&gt;Node20 -->
<g id="edge26" class="edge"><title>Node1&#45;&gt;Node20</title>
<path fill="none" stroke="midnightblue" d="M742.096,-208.95C815.779,-201.196 936.488,-186.554 1039,-165 1043.48,-164.058 1048.14,-162.935 1052.75,-161.737"/>
<polygon fill="midnightblue" stroke="midnightblue" points="1053.92,-165.045 1062.65,-159.035 1052.08,-158.292 1053.92,-165.045"/>
</g>
<!-- Node3 -->
<g id="node3" class="node"><title>Node3</title>
<g id="a_node3"><a xlink:href="PostProcessingConfig_8h.html" target="_top" xlink:title="QualityControl/PostProcessing\lConfig.h">
<polygon fill="none" stroke="black" points="50.5,-67.5 50.5,-97.5 201.5,-97.5 201.5,-67.5 50.5,-67.5"/>
<text text-anchor="start" x="58.5" y="-85.5" font-family="Helvetica,sans-Serif" font-size="10.00">QualityControl/PostProcessing</text>
<text text-anchor="middle" x="126" y="-74.5" font-family="Helvetica,sans-Serif" font-size="10.00">Config.h</text>
</a>
</g>
</g>
<!-- Node2&#45;&gt;Node3 -->
<g id="edge2" class="edge"><title>Node2&#45;&gt;Node3</title>
<path fill="none" stroke="midnightblue" d="M143.303,-139.734C140.756,-131.456 136.819,-118.662 133.344,-107.367"/>
<polygon fill="midnightblue" stroke="midnightblue" points="136.621,-106.117 130.335,-97.589 129.931,-108.176 136.621,-106.117"/>
</g>
<!-- Node2&#45;&gt;Node4 -->
<g id="edge7" class="edge"><title>Node2&#45;&gt;Node4</title>
<path fill="none" stroke="midnightblue" d="M110.265,-139.925C87.1864,-132.564 58.334,-119.622 41,-98 26.6187,-80.0613 22.757,-53.1574 21.9047,-35.2271"/>
<polygon fill="midnightblue" stroke="midnightblue" points="25.4025,-35.0793 21.6972,-25.1535 18.404,-35.2235 25.4025,-35.0793"/>
</g>
<!-- Node2&#45;&gt;Node5 -->
<g id="edge6" class="edge"><title>Node2&#45;&gt;Node5</title>
<path fill="none" stroke="midnightblue" d="M158.905,-139.965C172.498,-130.616 194.096,-114.712 210,-98 229.015,-78.0189 246.761,-51.46 257.493,-34.1764"/>
<polygon fill="midnightblue" stroke="midnightblue" points="260.752,-35.5544 262.958,-25.1918 254.771,-31.9166 260.752,-35.5544"/>
</g>
<!-- Node3&#45;&gt;Node4 -->
<g id="edge3" class="edge"><title>Node3&#45;&gt;Node4</title>
<path fill="none" stroke="midnightblue" d="M103.434,-67.396C85.993,-56.4956 61.9659,-41.4787 44.5336,-30.5835"/>
<polygon fill="midnightblue" stroke="midnightblue" points="45.9462,-27.339 35.6112,-25.007 42.2362,-33.275 45.9462,-27.339"/>
</g>
<!-- Node3&#45;&gt;Node5 -->
<g id="edge4" class="edge"><title>Node3&#45;&gt;Node5</title>
<path fill="none" stroke="midnightblue" d="M156.812,-67.396C181.617,-56.0414 216.181,-40.2201 240.16,-29.2437"/>
<polygon fill="midnightblue" stroke="midnightblue" points="241.78,-32.3516 249.415,-25.007 238.866,-25.9868 241.78,-32.3516"/>
</g>
<!-- Node6 -->
<g id="node6" class="node"><title>Node6</title>
<polygon fill="none" stroke="#bfbfbf" points="101.5,-0.5 101.5,-30.5 202.5,-30.5 202.5,-0.5 101.5,-0.5"/>
<text text-anchor="start" x="109.5" y="-18.5" font-family="Helvetica,sans-Serif" font-size="10.00">boost/property_tree</text>
<text text-anchor="middle" x="152" y="-7.5" font-family="Helvetica,sans-Serif" font-size="10.00">/ptree_fwd.hpp</text>
</g>
<!-- Node3&#45;&gt;Node6 -->
<g id="edge5" class="edge"><title>Node3&#45;&gt;Node6</title>
<path fill="none" stroke="midnightblue" d="M131.642,-67.396C134.844,-59.3893 138.935,-49.1616 142.609,-39.9778"/>
<polygon fill="midnightblue" stroke="midnightblue" points="145.905,-41.1612 146.369,-30.5765 139.406,-38.5614 145.905,-41.1612"/>
</g>
<!-- Node7&#45;&gt;Node5 -->
<g id="edge9" class="edge"><title>Node7&#45;&gt;Node5</title>
<path fill="none" stroke="midnightblue" d="M364.275,-134.277C354.844,-117.461 337.923,-88.9848 320,-67 309.71,-54.378 296.536,-41.6128 286.023,-32.0743"/>
<polygon fill="midnightblue" stroke="midnightblue" points="288.067,-29.2087 278.268,-25.1808 283.416,-34.4405 288.067,-29.2087"/>
</g>
<!-- Node7&#45;&gt;Node6 -->
<g id="edge11" class="edge"><title>Node7&#45;&gt;Node6</title>
<path fill="none" stroke="midnightblue" d="M348.456,-134.374C308.842,-110.605 228.814,-62.5882 184.091,-35.7543"/>
<polygon fill="midnightblue" stroke="midnightblue" points="185.75,-32.6685 175.375,-30.5247 182.149,-38.671 185.75,-32.6685"/>
</g>
<!-- Node8 -->
<g id="node8" class="node"><title>Node8</title>
<polygon fill="none" stroke="#bfbfbf" points="516,-73 516,-92 662,-92 662,-73 516,-73"/>
<text text-anchor="middle" x="589" y="-80" font-family="Helvetica,sans-Serif" font-size="10.00">Framework/ServiceRegistry.h</text>
</g>
<!-- Node7&#45;&gt;Node8 -->
<g id="edge10" class="edge"><title>Node7&#45;&gt;Node8</title>
<path fill="none" stroke="midnightblue" d="M418.819,-134.476C458.223,-122.673 513.882,-106.001 550.678,-94.9789"/>
<polygon fill="midnightblue" stroke="midnightblue" points="551.952,-98.251 560.527,-92.0287 549.944,-91.5453 551.952,-98.251"/>
</g>
<!-- Node9 -->
<g id="node9" class="node"><title>Node9</title>
<g id="a_node9"><a xlink:href="Triggers_8h.html" target="_top" xlink:title="QualityControl/Triggers.h">
<polygon fill="none" stroke="black" points="372.5,-73 372.5,-92 497.5,-92 497.5,-73 372.5,-73"/>
<text text-anchor="middle" x="435" y="-80" font-family="Helvetica,sans-Serif" font-size="10.00">QualityControl/Triggers.h</text>
</a>
</g>
</g>
<!-- Node7&#45;&gt;Node9 -->
<g id="edge12" class="edge"><title>Node7&#45;&gt;Node9</title>
<path fill="none" stroke="midnightblue" d="M385.67,-134.396C395.59,-124.161 409.029,-110.296 419.374,-99.622"/>
<polygon fill="midnightblue" stroke="midnightblue" points="422.126,-101.811 426.573,-92.1945 417.1,-96.9393 422.126,-101.811"/>
</g>
<!-- Node9&#45;&gt;Node5 -->
<g id="edge13" class="edge"><title>Node9&#45;&gt;Node5</title>
<path fill="none" stroke="midnightblue" d="M412.824,-72.8685C383.395,-61.4141 331.316,-41.1439 298.284,-28.2873"/>
<polygon fill="midnightblue" stroke="midnightblue" points="299.279,-24.9189 288.691,-24.5533 296.74,-31.4422 299.279,-24.9189"/>
</g>
<!-- Node10 -->
<g id="node10" class="node"><title>Node10</title>
<polygon fill="none" stroke="#bfbfbf" points="370.5,-6 370.5,-25 429.5,-25 429.5,-6 370.5,-6"/>
<text text-anchor="middle" x="400" y="-13" font-family="Helvetica,sans-Serif" font-size="10.00">functional</text>
</g>
<!-- Node9&#45;&gt;Node10 -->
<g id="edge14" class="edge"><title>Node9&#45;&gt;Node10</title>
<path fill="none" stroke="midnightblue" d="M430.28,-72.7338C424.979,-62.8903 416.24,-46.6598 409.509,-34.1594"/>
<polygon fill="midnightblue" stroke="midnightblue" points="412.468,-32.2727 404.645,-25.1273 406.305,-35.5914 412.468,-32.2727"/>
</g>
<!-- Node11 -->
<g id="node11" class="node"><title>Node11</title>
<polygon fill="none" stroke="#bfbfbf" points="447.5,-6 447.5,-25 492.5,-25 492.5,-6 447.5,-6"/>
<text text-anchor="middle" x="470" y="-13" font-family="Helvetica,sans-Serif" font-size="10.00">iosfwd</text>
</g>
<!-- Node9&#45;&gt;Node11 -->
<g id="edge15" class="edge"><title>Node9&#45;&gt;Node11</title>
<path fill="none" stroke="midnightblue" d="M439.72,-72.7338C445.021,-62.8903 453.76,-46.6598 460.491,-34.1594"/>
<polygon fill="midnightblue" stroke="midnightblue" points="463.695,-35.5914 465.355,-25.1273 457.532,-32.2727 463.695,-35.5914"/>
</g>
<!-- Node13 -->
<g id="node13" class="node"><title>Node13</title>
<polygon fill="none" stroke="#bfbfbf" points="680.5,-73 680.5,-92 739.5,-92 739.5,-73 680.5,-73"/>
<text text-anchor="middle" x="710" y="-80" font-family="Helvetica,sans-Serif" font-size="10.00">TObject.h</text>
</g>
<!-- Node12&#45;&gt;Node13 -->
<g id="edge17" class="edge"><title>Node12&#45;&gt;Node13</title>
<path fill="none" stroke="midnightblue" d="M554.806,-139.993C582.684,-130.012 630.239,-112.928 671,-98 673.094,-97.233 675.251,-96.4401 677.424,-95.6387"/>
<polygon fill="midnightblue" stroke="midnightblue" points="678.754,-98.8785 686.917,-92.1247 676.324,-92.3139 678.754,-98.8785"/>
</g>
</g>
</svg>
