<?xml version="1.0" encoding="UTF-8" standalone="no"?>
<!DOCTYPE svg PUBLIC "-//W3C//DTD SVG 1.1//EN"
 "http://www.w3.org/Graphics/SVG/1.1/DTD/svg11.dtd">
<!-- Generated by graphviz version 2.38.0 (20140413.2041)
 -->
<!-- Title: Modules/ITS/include/ITS/TrendingTaskITSThr.h Pages: 1 -->
<!--zoomable 240 -->
<svg id="main" version="1.1" xmlns="http://www.w3.org/2000/svg" xmlns:xlink="http://www.w3.org/1999/xlink" xml:space="preserve" onload="init(evt)">
<style type="text/css"><![CDATA[
.edge:hover path { stroke: red; }
.edge:hover polygon { stroke: red; fill: red; }
]]></style>
<script type="text/javascript"><![CDATA[
var edges = document.getElementsByTagName('g');
if (edges && edges.length) {
  for (var i=0;i<edges.length;i++) {
    if (edges[i].id.substr(0,4)=='edge') {
      edges[i].setAttribute('class','edge');
    }
  }
}
]]></script>
        <defs>
                <circle id="rim" cx="0" cy="0" r="7"/>
                <circle id="rim2" cx="0" cy="0" r="3.5"/>
                <g id="zoomPlus">
                        <use xlink:href="#rim" fill="#404040">
                                <set attributeName="fill" to="#808080" begin="zoomplus.mouseover" end="zoomplus.mouseout"/>
                        </use>
                        <path d="M-4,0h8M0,-4v8" fill="none" stroke="white" stroke-width="1.5" pointer-events="none"/>
                </g>
                <g id="zoomMin">
                        <use xlink:href="#rim" fill="#404040">
                                <set attributeName="fill" to="#808080" begin="zoomminus.mouseover" end="zoomminus.mouseout"/>
                        </use>
                        <path d="M-4,0h8" fill="none" stroke="white" stroke-width="1.5" pointer-events="none"/>
                </g>
                <g id="dirArrow">
                        <path fill="none" stroke="white" stroke-width="1.5" d="M0,-3.0v7 M-2.5,-0.5L0,-3.0L2.5,-0.5"/>
                </g>
               <g id="resetDef">
                       <use xlink:href="#rim2" fill="#404040">
                               <set attributeName="fill" to="#808080" begin="reset.mouseover" end="reset.mouseout"/>
                       </use>
               </g>
        </defs>

<script type="text/javascript">
var viewWidth = 1142;
var viewHeight = 240;
var sectionId = 'dynsection-0';
</script>
<script xlink:href="svgpan.js"/>
<svg id="graph" class="graph">
<g id="viewport">
<title>Modules/ITS/include/ITS/TrendingTaskITSThr.h</title>
<!-- Node1 -->
<g id="node1" class="node"><title>Node1</title>
<polygon fill="#bfbfbf" stroke="black" points="643,-201.5 643,-231.5 779,-231.5 779,-201.5 643,-201.5"/>
<text text-anchor="start" x="651" y="-219.5" font-family="Helvetica,sans-Serif" font-size="10.00">Modules/ITS/include</text>
<text text-anchor="middle" x="711" y="-208.5" font-family="Helvetica,sans-Serif" font-size="10.00">/ITS/TrendingTaskITSThr.h</text>
</g>
<!-- Node2 -->
<g id="node2" class="node"><title>Node2</title>
<g id="a_node2"><a xlink:href="TrendingTaskConfigITS_8h_source.html" target="_top" xlink:title="ITS/TrendingTaskConfigITS.h">
<polygon fill="none" stroke="black" points="39.5,-140 39.5,-159 186.5,-159 186.5,-140 39.5,-140"/>
<text text-anchor="middle" x="113" y="-147" font-family="Helvetica,sans-Serif" font-size="10.00">ITS/TrendingTaskConfigITS.h</text>
</a>
</g>
</g>
<!-- Node1&#45;&gt;Node2 -->
<g id="edge1" class="edge"><title>Node1&#45;&gt;Node2</title>
<path fill="none" stroke="midnightblue" d="M642.755,-209.135C548.014,-200.147 371.316,-182.832 221,-165 209.112,-163.59 196.502,-161.991 184.253,-160.382"/>
<polygon fill="midnightblue" stroke="midnightblue" points="184.446,-156.877 174.073,-159.033 183.526,-163.817 184.446,-156.877"/>
</g>
<!-- Node5 -->
<g id="node5" class="node"><title>Node5</title>
<polygon fill="none" stroke="#bfbfbf" points="214.5,-6 214.5,-25 255.5,-25 255.5,-6 214.5,-6"/>
<text text-anchor="middle" x="235" y="-13" font-family="Helvetica,sans-Serif" font-size="10.00">string</text>
</g>
<!-- Node1&#45;&gt;Node5 -->
<g id="edge24" class="edge"><title>Node1&#45;&gt;Node5</title>
<path fill="none" stroke="midnightblue" d="M642.684,-215.778C537.452,-214.838 342.257,-207.242 289,-165 248.61,-132.964 238.42,-67.9408 235.856,-35.6231"/>
<polygon fill="midnightblue" stroke="midnightblue" points="239.33,-35.0814 235.215,-25.318 232.343,-35.5161 239.33,-35.0814"/>
</g>
<!-- Node7 -->
<g id="node7" class="node"><title>Node7</title>
<g id="a_node7"><a xlink:href="PostProcessingInterface_8h.html" target="_top" xlink:title="QualityControl/PostProcessing\lInterface.h">
<polygon fill="none" stroke="black" points="298.5,-134.5 298.5,-164.5 449.5,-164.5 449.5,-134.5 298.5,-134.5"/>
<text text-anchor="start" x="306.5" y="-152.5" font-family="Helvetica,sans-Serif" font-size="10.00">QualityControl/PostProcessing</text>
<text text-anchor="middle" x="374" y="-141.5" font-family="Helvetica,sans-Serif" font-size="10.00">Interface.h</text>
</a>
</g>
</g>
<!-- Node1&#45;&gt;Node7 -->
<g id="edge8" class="edge"><title>Node1&#45;&gt;Node7</title>
<path fill="none" stroke="midnightblue" d="M642.803,-202.346C589.098,-191.988 514.02,-177.507 456.855,-166.481"/>
<polygon fill="midnightblue" stroke="midnightblue" points="457.243,-162.991 446.761,-164.534 455.917,-169.865 457.243,-162.991"/>
</g>
<!-- Node12 -->
<g id="node12" class="node"><title>Node12</title>
<g id="a_node12"><a xlink:href="Reductor_8h.html" target="_top" xlink:title="QualityControl/Reductor.h">
<polygon fill="none" stroke="black" points="468,-140 468,-159 598,-159 598,-140 468,-140"/>
<text text-anchor="middle" x="533" y="-147" font-family="Helvetica,sans-Serif" font-size="10.00">QualityControl/Reductor.h</text>
</a>
</g>
</g>
<!-- Node1&#45;&gt;Node12 -->
<g id="edge16" class="edge"><title>Node1&#45;&gt;Node12</title>
<path fill="none" stroke="midnightblue" d="M672.377,-201.396C640.592,-189.789 596.025,-173.515 565.914,-162.519"/>
<polygon fill="midnightblue" stroke="midnightblue" points="566.89,-159.15 556.296,-159.007 564.489,-165.725 566.89,-159.15"/>
</g>
<!-- Node14 -->
<g id="node14" class="node"><title>Node14</title>
<polygon fill="none" stroke="#bfbfbf" points="616,-140 616,-159 666,-159 666,-140 616,-140"/>
<text text-anchor="middle" x="641" y="-147" font-family="Helvetica,sans-Serif" font-size="10.00">TAxis.h</text>
</g>
<!-- Node1&#45;&gt;Node14 -->
<g id="edge18" class="edge"><title>Node1&#45;&gt;Node14</title>
<path fill="none" stroke="midnightblue" d="M695.811,-201.396C684.68,-191.06 669.564,-177.024 658.025,-166.309"/>
<polygon fill="midnightblue" stroke="midnightblue" points="660.073,-163.434 650.363,-159.195 655.31,-168.564 660.073,-163.434"/>
</g>
<!-- Node15 -->
<g id="node15" class="node"><title>Node15</title>
<polygon fill="none" stroke="#bfbfbf" points="684,-140 684,-159 738,-159 738,-140 684,-140"/>
<text text-anchor="middle" x="711" y="-147" font-family="Helvetica,sans-Serif" font-size="10.00">TColor.h</text>
</g>
<!-- Node1&#45;&gt;Node15 -->
<g id="edge19" class="edge"><title>Node1&#45;&gt;Node15</title>
<path fill="none" stroke="midnightblue" d="M711,-201.396C711,-192.064 711,-179.714 711,-169.517"/>
<polygon fill="midnightblue" stroke="midnightblue" points="714.5,-169.195 711,-159.195 707.5,-169.195 714.5,-169.195"/>
</g>
<!-- Node16 -->
<g id="node16" class="node"><title>Node16</title>
<polygon fill="none" stroke="#bfbfbf" points="756.5,-140 756.5,-159 813.5,-159 813.5,-140 756.5,-140"/>
<text text-anchor="middle" x="785" y="-147" font-family="Helvetica,sans-Serif" font-size="10.00">TGraph.h</text>
</g>
<!-- Node1&#45;&gt;Node16 -->
<g id="edge20" class="edge"><title>Node1&#45;&gt;Node16</title>
<path fill="none" stroke="midnightblue" d="M727.057,-201.396C738.938,-190.96 755.115,-176.751 767.356,-165.998"/>
<polygon fill="midnightblue" stroke="midnightblue" points="769.898,-168.424 775.102,-159.195 765.279,-163.164 769.898,-168.424"/>
</g>
<!-- Node17 -->
<g id="node17" class="node"><title>Node17</title>
<polygon fill="none" stroke="#bfbfbf" points="832,-140 832,-159 894,-159 894,-140 832,-140"/>
<text text-anchor="middle" x="863" y="-147" font-family="Helvetica,sans-Serif" font-size="10.00">TLegend.h</text>
</g>
<!-- Node1&#45;&gt;Node17 -->
<g id="edge21" class="edge"><title>Node1&#45;&gt;Node17</title>
<path fill="none" stroke="midnightblue" d="M743.982,-201.396C770.77,-189.941 808.19,-173.938 833.881,-162.952"/>
<polygon fill="midnightblue" stroke="midnightblue" points="835.288,-166.157 843.107,-159.007 832.536,-159.721 835.288,-166.157"/>
</g>
<!-- Node18 -->
<g id="node18" class="node"><title>Node18</title>
<polygon fill="none" stroke="#bfbfbf" points="912,-140 912,-159 962,-159 962,-140 912,-140"/>
<text text-anchor="middle" x="937" y="-147" font-family="Helvetica,sans-Serif" font-size="10.00">TTree.h</text>
</g>
<!-- Node1&#45;&gt;Node18 -->
<g id="edge22" class="edge"><title>Node1&#45;&gt;Node18</title>
<path fill="none" stroke="midnightblue" d="M773.945,-201.398C811.763,-192.322 860.613,-179.526 903,-165 904.867,-164.36 906.776,-163.665 908.689,-162.937"/>
<polygon fill="midnightblue" stroke="midnightblue" points="910.167,-166.115 918.129,-159.126 907.546,-159.624 910.167,-166.115"/>
</g>
<!-- Node19 -->
<g id="node19" class="node"><title>Node19</title>
<polygon fill="none" stroke="#bfbfbf" points="980,-140 980,-159 1032,-159 1032,-140 980,-140"/>
<text text-anchor="middle" x="1006" y="-147" font-family="Helvetica,sans-Serif" font-size="10.00">memory</text>
</g>
<!-- Node1&#45;&gt;Node19 -->
<g id="edge23" class="edge"><title>Node1&#45;&gt;Node19</title>
<path fill="none" stroke="midnightblue" d="M779.244,-206.087C832.221,-197.862 907.154,-184.213 971,-165 973.285,-164.312 975.625,-163.528 977.96,-162.689"/>
<polygon fill="midnightblue" stroke="midnightblue" points="979.309,-165.92 987.361,-159.034 976.773,-159.395 979.309,-165.92"/>
</g>
<!-- Node20 -->
<g id="node20" class="node"><title>Node20</title>
<polygon fill="none" stroke="#bfbfbf" points="1050.5,-140 1050.5,-159 1133.5,-159 1133.5,-140 1050.5,-140"/>
<text text-anchor="middle" x="1092" y="-147" font-family="Helvetica,sans-Serif" font-size="10.00">unordered_map</text>
</g>
<!-- Node1&#45;&gt;Node20 -->
<g id="edge25" class="edge"><title>Node1&#45;&gt;Node20</title>
<path fill="none" stroke="midnightblue" d="M779.081,-207.611C846.127,-199.248 951.239,-184.548 1041,-165 1045.42,-164.037 1050.02,-162.91 1054.57,-161.717"/>
<polygon fill="midnightblue" stroke="midnightblue" points="1055.65,-165.052 1064.37,-159.037 1053.8,-158.301 1055.65,-165.052"/>
</g>
<!-- Node3 -->
<g id="node3" class="node"><title>Node3</title>
<g id="a_node3"><a xlink:href="PostProcessingConfig_8h.html" target="_top" xlink:title="QualityControl/PostProcessing\lConfig.h">
<polygon fill="none" stroke="black" points="17.5,-67.5 17.5,-97.5 168.5,-97.5 168.5,-67.5 17.5,-67.5"/>
<text text-anchor="start" x="25.5" y="-85.5" font-family="Helvetica,sans-Serif" font-size="10.00">QualityControl/PostProcessing</text>
<text text-anchor="middle" x="93" y="-74.5" font-family="Helvetica,sans-Serif" font-size="10.00">Config.h</text>
</a>
</g>
</g>
<!-- Node2&#45;&gt;Node3 -->
<g id="edge2" class="edge"><title>Node2&#45;&gt;Node3</title>
<path fill="none" stroke="midnightblue" d="M110.303,-139.734C107.756,-131.456 103.819,-118.662 100.344,-107.367"/>
<polygon fill="midnightblue" stroke="midnightblue" points="103.621,-106.117 97.3351,-97.589 96.9308,-108.176 103.621,-106.117"/>
</g>
<!-- Node4 -->
<g id="node4" class="node"><title>Node4</title>
<polygon fill="none" stroke="#bfbfbf" points="0,-6 0,-25 44,-25 44,-6 0,-6"/>
<text text-anchor="middle" x="22" y="-13" font-family="Helvetica,sans-Serif" font-size="10.00">vector</text>
</g>
<!-- Node2&#45;&gt;Node4 -->
<g id="edge7" class="edge"><title>Node2&#45;&gt;Node4</title>
<path fill="none" stroke="midnightblue" d="M71.6359,-139.939C48.6477,-132.839 21.9423,-120.177 8,-98 -4.20027,-78.5943 4.26359,-51.6924 12.3614,-34.1934"/>
<polygon fill="midnightblue" stroke="midnightblue" points="15.5658,-35.6115 16.928,-25.1046 9.3109,-32.4688 15.5658,-35.6115"/>
</g>
<!-- Node2&#45;&gt;Node5 -->
<g id="edge6" class="edge"><title>Node2&#45;&gt;Node5</title>
<path fill="none" stroke="midnightblue" d="M125.905,-139.965C139.498,-130.616 161.096,-114.712 177,-98 196.015,-78.0189 213.761,-51.46 224.493,-34.1764"/>
<polygon fill="midnightblue" stroke="midnightblue" points="227.752,-35.5544 229.958,-25.1918 221.771,-31.9166 227.752,-35.5544"/>
</g>
<!-- Node3&#45;&gt;Node4 -->
<g id="edge3" class="edge"><title>Node3&#45;&gt;Node4</title>
<path fill="none" stroke="midnightblue" d="M77.5941,-67.396C66.1948,-56.96 50.6739,-42.7507 38.9284,-31.9978"/>
<polygon fill="midnightblue" stroke="midnightblue" points="41.2364,-29.3655 31.4971,-25.1945 36.5096,-34.5287 41.2364,-29.3655"/>
</g>
<!-- Node3&#45;&gt;Node5 -->
<g id="edge4" class="edge"><title>Node3&#45;&gt;Node5</title>
<path fill="none" stroke="midnightblue" d="M123.812,-67.396C148.617,-56.0414 183.181,-40.2201 207.16,-29.2437"/>
<polygon fill="midnightblue" stroke="midnightblue" points="208.78,-32.3516 216.415,-25.007 205.866,-25.9868 208.78,-32.3516"/>
</g>
<!-- Node6 -->
<g id="node6" class="node"><title>Node6</title>
<polygon fill="none" stroke="#bfbfbf" points="68.5,-0.5 68.5,-30.5 169.5,-30.5 169.5,-0.5 68.5,-0.5"/>
<text text-anchor="start" x="76.5" y="-18.5" font-family="Helvetica,sans-Serif" font-size="10.00">boost/property_tree</text>
<text text-anchor="middle" x="119" y="-7.5" font-family="Helvetica,sans-Serif" font-size="10.00">/ptree_fwd.hpp</text>
</g>
<!-- Node3&#45;&gt;Node6 -->
<g id="edge5" class="edge"><title>Node3&#45;&gt;Node6</title>
<path fill="none" stroke="midnightblue" d="M98.6416,-67.396C101.844,-59.3893 105.935,-49.1616 109.609,-39.9778"/>
<polygon fill="midnightblue" stroke="midnightblue" points="112.905,-41.1612 113.369,-30.5765 106.406,-38.5614 112.905,-41.1612"/>
</g>
<!-- Node7&#45;&gt;Node5 -->
<g id="edge9" class="edge"><title>Node7&#45;&gt;Node5</title>
<path fill="none" stroke="midnightblue" d="M413.12,-134.483C429.428,-126.474 446.705,-114.64 456,-98 462.719,-85.9715 464.589,-77.773 456,-67 432.539,-37.5727 320.789,-23.9292 265.76,-18.91"/>
<polygon fill="midnightblue" stroke="midnightblue" points="265.82,-15.402 255.553,-18.0191 265.211,-22.3755 265.82,-15.402"/>
</g>
<!-- Node7&#45;&gt;Node6 -->
<g id="edge11" class="edge"><title>Node7&#45;&gt;Node6</title>
<path fill="none" stroke="midnightblue" d="M346.711,-134.374C300.506,-110.456 206.87,-61.9857 155.227,-35.2526"/>
<polygon fill="midnightblue" stroke="midnightblue" points="156.583,-32.0136 146.093,-30.5247 153.365,-38.2301 156.583,-32.0136"/>
</g>
<!-- Node8 -->
<g id="node8" class="node"><title>Node8</title>
<polygon fill="none" stroke="#bfbfbf" points="301,-73 301,-92 447,-92 447,-73 301,-73"/>
<text text-anchor="middle" x="374" y="-80" font-family="Helvetica,sans-Serif" font-size="10.00">Framework/ServiceRegistry.h</text>
</g>
<!-- Node7&#45;&gt;Node8 -->
<g id="edge10" class="edge"><title>Node7&#45;&gt;Node8</title>
<path fill="none" stroke="midnightblue" d="M374,-134.396C374,-125.064 374,-112.714 374,-102.517"/>
<polygon fill="midnightblue" stroke="midnightblue" points="377.5,-102.195 374,-92.1945 370.5,-102.195 377.5,-102.195"/>
</g>
<!-- Node9 -->
<g id="node9" class="node"><title>Node9</title>
<g id="a_node9"><a xlink:href="Triggers_8h.html" target="_top" xlink:title="QualityControl/Triggers.h">
<polygon fill="none" stroke="black" points="503.5,-73 503.5,-92 628.5,-92 628.5,-73 503.5,-73"/>
<text text-anchor="middle" x="566" y="-80" font-family="Helvetica,sans-Serif" font-size="10.00">QualityControl/Triggers.h</text>
</a>
</g>
</g>
<!-- Node7&#45;&gt;Node9 -->
<g id="edge12" class="edge"><title>Node7&#45;&gt;Node9</title>
<path fill="none" stroke="midnightblue" d="M415.661,-134.396C450.244,-122.688 498.855,-106.231 531.341,-95.2336"/>
<polygon fill="midnightblue" stroke="midnightblue" points="532.522,-98.5289 540.872,-92.007 530.277,-91.8985 532.522,-98.5289"/>
</g>
<!-- Node9&#45;&gt;Node5 -->
<g id="edge13" class="edge"><title>Node9&#45;&gt;Node5</title>
<path fill="none" stroke="midnightblue" d="M522.387,-72.9355C454.323,-59.5695 324.541,-34.0837 265.547,-22.4986"/>
<polygon fill="midnightblue" stroke="midnightblue" points="266.202,-19.0605 255.715,-20.5679 264.853,-25.9293 266.202,-19.0605"/>
</g>
<!-- Node10 -->
<g id="node10" class="node"><title>Node10</title>
<polygon fill="none" stroke="#bfbfbf" points="571.5,-6 571.5,-25 630.5,-25 630.5,-6 571.5,-6"/>
<text text-anchor="middle" x="601" y="-13" font-family="Helvetica,sans-Serif" font-size="10.00">functional</text>
</g>
<!-- Node9&#45;&gt;Node10 -->
<g id="edge14" class="edge"><title>Node9&#45;&gt;Node10</title>
<path fill="none" stroke="midnightblue" d="M570.72,-72.7338C576.021,-62.8903 584.76,-46.6598 591.491,-34.1594"/>
<polygon fill="midnightblue" stroke="midnightblue" points="594.695,-35.5914 596.355,-25.1273 588.532,-32.2727 594.695,-35.5914"/>
</g>
<!-- Node11 -->
<g id="node11" class="node"><title>Node11</title>
<polygon fill="none" stroke="#bfbfbf" points="508.5,-6 508.5,-25 553.5,-25 553.5,-6 508.5,-6"/>
<text text-anchor="middle" x="531" y="-13" font-family="Helvetica,sans-Serif" font-size="10.00">iosfwd</text>
</g>
<!-- Node9&#45;&gt;Node11 -->
<g id="edge15" class="edge"><title>Node9&#45;&gt;Node11</title>
<path fill="none" stroke="midnightblue" d="M561.28,-72.7338C555.979,-62.8903 547.24,-46.6598 540.509,-34.1594"/>
<polygon fill="midnightblue" stroke="midnightblue" points="543.468,-32.2727 535.645,-25.1273 537.305,-35.5914 543.468,-32.2727"/>
</g>
<!-- Node13 -->
<g id="node13" class="node"><title>Node13</title>
<polygon fill="none" stroke="#bfbfbf" points="646.5,-73 646.5,-92 705.5,-92 705.5,-73 646.5,-73"/>
<text text-anchor="middle" x="676" y="-80" font-family="Helvetica,sans-Serif" font-size="10.00">TObject.h</text>
</g>
<!-- Node12&#45;&gt;Node13 -->
<g id="edge17" class="edge"><title>Node12&#45;&gt;Node13</title>
<path fill="none" stroke="midnightblue" d="M551.989,-139.869C576.455,-128.748 619.203,-109.317 647.557,-96.4286"/>
<polygon fill="midnightblue" stroke="midnightblue" points="649.277,-99.4916 656.932,-92.1672 646.38,-93.119 649.277,-99.4916"/>
</g>
</g>
</svg>
        <g id="navigator" transform="translate(0 0)" fill="#404254">
                <rect fill="#f2f5e9" fill-opacity="0.5" stroke="#606060" stroke-width=".5" x="0" y="0" width="60" height="60"/>
                <use id="zoomplus" xlink:href="#zoomPlus" x="17" y="9" onmousedown="handleZoom(evt,'in')"/>
                <use id="zoomminus" xlink:href="#zoomMin" x="42" y="9" onmousedown="handleZoom(evt,'out')"/>
                <use id="reset" xlink:href="#resetDef" x="30" y="36" onmousedown="handleReset()"/>
                <g id="arrowUp" xlink:href="#dirArrow" transform="translate(30 24)" onmousedown="handlePan(0,-1)">
                  <use xlink:href="#rim" fill="#404040">
                        <set attributeName="fill" to="#808080" begin="arrowUp.mouseover" end="arrowUp.mouseout"/>
                  </use>
                  <path fill="none" stroke="white" stroke-width="1.5" d="M0,-3.0v7 M-2.5,-0.5L0,-3.0L2.5,-0.5"/>
                </g>
                <g id="arrowRight" xlink:href="#dirArrow" transform="rotate(90) translate(36 -43)" onmousedown="handlePan(1,0)">
                  <use xlink:href="#rim" fill="#404040">
                        <set attributeName="fill" to="#808080" begin="arrowRight.mouseover" end="arrowRight.mouseout"/>
                  </use>
                  <path fill="none" stroke="white" stroke-width="1.5" d="M0,-3.0v7 M-2.5,-0.5L0,-3.0L2.5,-0.5"/>
                </g>
                <g id="arrowDown" xlink:href="#dirArrow" transform="rotate(180) translate(-30 -48)" onmousedown="handlePan(0,1)">
                  <use xlink:href="#rim" fill="#404040">
                        <set attributeName="fill" to="#808080" begin="arrowDown.mouseover" end="arrowDown.mouseout"/>
                  </use>
                  <path fill="none" stroke="white" stroke-width="1.5" d="M0,-3.0v7 M-2.5,-0.5L0,-3.0L2.5,-0.5"/>
                </g>
                <g id="arrowLeft" xlink:href="#dirArrow" transform="rotate(270) translate(-36 17)" onmousedown="handlePan(-1,0)">
                  <use xlink:href="#rim" fill="#404040">
                        <set attributeName="fill" to="#808080" begin="arrowLeft.mouseover" end="arrowLeft.mouseout"/>
                  </use>
                  <path fill="none" stroke="white" stroke-width="1.5" d="M0,-3.0v7 M-2.5,-0.5L0,-3.0L2.5,-0.5"/>
                </g>
        </g>
        <svg viewBox="0 0 15 15" width="100%" height="30px" preserveAspectRatio="xMaxYMin meet">
         <g id="arrow_out" transform="scale(0.3 0.3)">
          <a xlink:href="TrendingTaskITSThr_8h__incl_org.svg" target="_base">
           <rect id="button" ry="5" rx="5" y="6" x="6" height="38" width="38"
                fill="#f2f5e9" fill-opacity="0.5" stroke="#606060" stroke-width="1.0"/>
           <path id="arrow"
             d="M 11.500037,31.436501 C 11.940474,20.09759 22.043105,11.32322 32.158766,21.979434 L 37.068811,17.246167 C 37.068811,17.246167 37.088388,32 37.088388,32 L 22.160133,31.978069 C 22.160133,31.978069 26.997745,27.140456 26.997745,27.140456 C 18.528582,18.264221 13.291696,25.230495 11.500037,31.436501 z"
             style="fill:#404040;"/>
          </a>
         </g>
        </svg>
</svg>
