<?xml version="1.0" encoding="UTF-8" standalone="no"?>
<!DOCTYPE svg PUBLIC "-//W3C//DTD SVG 1.1//EN"
 "http://www.w3.org/Graphics/SVG/1.1/DTD/svg11.dtd">
<!-- Generated by graphviz version 2.38.0 (20140413.2041)
 -->
<!-- Title: Framework/include/QualityControl/TriggerHelpers.h Pages: 1 -->
<svg width="189pt" height="151pt"
 viewBox="0.00 0.00 189.00 151.00" xmlns="http://www.w3.org/2000/svg" xmlns:xlink="http://www.w3.org/1999/xlink">
<g id="graph0" class="graph" transform="scale(1 1) rotate(0) translate(4 147)">
<title>Framework/include/QualityControl/TriggerHelpers.h</title>
<!-- Node1 -->
<g id="node1" class="node"><title>Node1</title>
<polygon fill="#bfbfbf" stroke="black" points="22,-112.5 22,-142.5 155,-142.5 155,-112.5 22,-112.5"/>
<text text-anchor="start" x="30" y="-130.5" font-family="Helvetica,sans-Serif" font-size="10.00">Framework/include/Quality</text>
<text text-anchor="middle" x="88.5" y="-119.5" font-family="Helvetica,sans-Serif" font-size="10.00">Control/TriggerHelpers.h</text>
</g>
<!-- Node2 -->
<g id="node2" class="node"><title>Node2</title>
<g id="a_node2"><a xlink:href="Triggers_8h.html" target="_top" xlink:title="QualityControl/Triggers.h">
<polygon fill="none" stroke="black" points="26,-56.5 26,-75.5 151,-75.5 151,-56.5 26,-56.5"/>
<text text-anchor="middle" x="88.5" y="-63.5" font-family="Helvetica,sans-Serif" font-size="10.00">QualityControl/Triggers.h</text>
</a>
</g>
</g>
<!-- Node1&#45;&gt;Node2 -->
<g id="edge1" class="edge"><title>Node1&#45;&gt;Node2</title>
<path fill="none" stroke="midnightblue" d="M88.5,-112.399C88.5,-104.466 88.5,-94.458 88.5,-85.8583"/>
<polygon fill="midnightblue" stroke="midnightblue" points="92.0001,-85.6577 88.5,-75.6578 85.0001,-85.6578 92.0001,-85.6577"/>
</g>
<!-- Node3 -->
<g id="node3" class="node"><title>Node3</title>
<polygon fill="none" stroke="#bfbfbf" points="0,-0.5 0,-19.5 41,-19.5 41,-0.5 0,-0.5"/>
<text text-anchor="middle" x="20.5" y="-7.5" font-family="Helvetica,sans-Serif" font-size="10.00">string</text>
</g>
<!-- Node2&#45;&gt;Node3 -->
<g id="edge2" class="edge"><title>Node2&#45;&gt;Node3</title>
<path fill="none" stroke="midnightblue" d="M77.5746,-56.324C67.3254,-48.1849 51.7794,-35.8395 39.499,-26.0874"/>
<polygon fill="midnightblue" stroke="midnightblue" points="41.6319,-23.3119 31.6242,-19.8339 37.2787,-28.7937 41.6319,-23.3119"/>
</g>
<!-- Node4 -->
<g id="node4" class="node"><title>Node4</title>
<polygon fill="none" stroke="#bfbfbf" points="59,-0.5 59,-19.5 118,-19.5 118,-0.5 59,-0.5"/>
<text text-anchor="middle" x="88.5" y="-7.5" font-family="Helvetica,sans-Serif" font-size="10.00">functional</text>
</g>
<!-- Node2&#45;&gt;Node4 -->
<g id="edge3" class="edge"><title>Node2&#45;&gt;Node4</title>
<path fill="none" stroke="midnightblue" d="M88.5,-56.083C88.5,-49.0059 88.5,-38.8611 88.5,-29.9865"/>
<polygon fill="midnightblue" stroke="midnightblue" points="92.0001,-29.751 88.5,-19.7511 85.0001,-29.7511 92.0001,-29.751"/>
</g>
<!-- Node5 -->
<g id="node5" class="node"><title>Node5</title>
<polygon fill="none" stroke="#bfbfbf" points="136,-0.5 136,-19.5 181,-19.5 181,-0.5 136,-0.5"/>
<text text-anchor="middle" x="158.5" y="-7.5" font-family="Helvetica,sans-Serif" font-size="10.00">iosfwd</text>
</g>
<!-- Node2&#45;&gt;Node5 -->
<g id="edge4" class="edge"><title>Node2&#45;&gt;Node5</title>
<path fill="none" stroke="midnightblue" d="M99.7467,-56.324C110.297,-48.1849 126.301,-35.8395 138.942,-26.0874"/>
<polygon fill="midnightblue" stroke="midnightblue" points="141.269,-28.7132 147.049,-19.8339 136.993,-23.1707 141.269,-28.7132"/>
</g>
</g>
</svg>
