<?xml version="1.0" encoding="UTF-8" standalone="no"?>
<!DOCTYPE svg PUBLIC "-//W3C//DTD SVG 1.1//EN"
 "http://www.w3.org/Graphics/SVG/1.1/DTD/svg11.dtd">
<!-- Generated by graphviz version 2.38.0 (20140413.2041)
 -->
<!-- Title: Framework/src/Triggers.cxx Pages: 1 -->
<svg width="586pt" height="140pt"
 viewBox="0.00 0.00 585.50 140.00" xmlns="http://www.w3.org/2000/svg" xmlns:xlink="http://www.w3.org/1999/xlink">
<g id="graph0" class="graph" transform="scale(1 1) rotate(0) translate(4 136)">
<title>Framework/src/Triggers.cxx</title>
<!-- Node1 -->
<g id="node1" class="node"><title>Node1</title>
<polygon fill="#bfbfbf" stroke="black" points="328,-112.5 328,-131.5 467,-131.5 467,-112.5 328,-112.5"/>
<text text-anchor="middle" x="397.5" y="-119.5" font-family="Helvetica,sans-Serif" font-size="10.00">Framework/src/Triggers.cxx</text>
</g>
<!-- Node2 -->
<g id="node2" class="node"><title>Node2</title>
<g id="a_node2"><a xlink:href="Triggers_8h.html" target="_top" xlink:title="QualityControl/Triggers.h">
<polygon fill="none" stroke="black" points="31,-56.5 31,-75.5 156,-75.5 156,-56.5 31,-56.5"/>
<text text-anchor="middle" x="93.5" y="-63.5" font-family="Helvetica,sans-Serif" font-size="10.00">QualityControl/Triggers.h</text>
</a>
</g>
</g>
<!-- Node1&#45;&gt;Node2 -->
<g id="edge1" class="edge"><title>Node1&#45;&gt;Node2</title>
<path fill="none" stroke="midnightblue" d="M349.33,-112.444C295.631,-102.905 208.814,-87.4834 151.446,-77.293"/>
<polygon fill="midnightblue" stroke="midnightblue" points="151.902,-73.8194 141.444,-75.5164 150.678,-80.7115 151.902,-73.8194"/>
</g>
<!-- Node6 -->
<g id="node6" class="node"><title>Node6</title>
<g id="a_node6"><a xlink:href="QcInfoLogger_8h.html" target="_top" xlink:title="QualityControl/QcInfoLogger.h">
<polygon fill="none" stroke="black" points="184,-56.5 184,-75.5 333,-75.5 333,-56.5 184,-56.5"/>
<text text-anchor="middle" x="258.5" y="-63.5" font-family="Helvetica,sans-Serif" font-size="10.00">QualityControl/QcInfoLogger.h</text>
</a>
</g>
</g>
<!-- Node1&#45;&gt;Node6 -->
<g id="edge5" class="edge"><title>Node1&#45;&gt;Node6</title>
<path fill="none" stroke="midnightblue" d="M375.475,-112.444C352.396,-103.478 315.938,-89.314 289.859,-79.1827"/>
<polygon fill="midnightblue" stroke="midnightblue" points="291.011,-75.8753 280.422,-75.5164 288.476,-82.4002 291.011,-75.8753"/>
</g>
<!-- Node8 -->
<g id="node8" class="node"><title>Node8</title>
<polygon fill="none" stroke="#bfbfbf" points="351.5,-56.5 351.5,-75.5 443.5,-75.5 443.5,-56.5 351.5,-56.5"/>
<text text-anchor="middle" x="397.5" y="-63.5" font-family="Helvetica,sans-Serif" font-size="10.00">Common/Timer.h</text>
</g>
<!-- Node1&#45;&gt;Node8 -->
<g id="edge7" class="edge"><title>Node1&#45;&gt;Node8</title>
<path fill="none" stroke="midnightblue" d="M397.5,-112.083C397.5,-105.006 397.5,-94.8611 397.5,-85.9865"/>
<polygon fill="midnightblue" stroke="midnightblue" points="401,-85.751 397.5,-75.7511 394,-85.7511 401,-85.751"/>
</g>
<!-- Node9 -->
<g id="node9" class="node"><title>Node9</title>
<polygon fill="none" stroke="#bfbfbf" points="461.5,-56.5 461.5,-75.5 507.5,-75.5 507.5,-56.5 461.5,-56.5"/>
<text text-anchor="middle" x="484.5" y="-63.5" font-family="Helvetica,sans-Serif" font-size="10.00">chrono</text>
</g>
<!-- Node1&#45;&gt;Node9 -->
<g id="edge8" class="edge"><title>Node1&#45;&gt;Node9</title>
<path fill="none" stroke="midnightblue" d="M411.478,-112.324C425.05,-103.9 445.88,-90.9709 461.825,-81.0741"/>
<polygon fill="midnightblue" stroke="midnightblue" points="463.906,-83.9019 470.557,-75.6545 460.214,-77.9544 463.906,-83.9019"/>
</g>
<!-- Node10 -->
<g id="node10" class="node"><title>Node10</title>
<polygon fill="none" stroke="#bfbfbf" points="525.5,-56.5 525.5,-75.5 577.5,-75.5 577.5,-56.5 525.5,-56.5"/>
<text text-anchor="middle" x="551.5" y="-63.5" font-family="Helvetica,sans-Serif" font-size="10.00">ostream</text>
</g>
<!-- Node1&#45;&gt;Node10 -->
<g id="edge9" class="edge"><title>Node1&#45;&gt;Node10</title>
<path fill="none" stroke="midnightblue" d="M421.902,-112.444C447.697,-103.399 488.577,-89.064 517.518,-78.9158"/>
<polygon fill="midnightblue" stroke="midnightblue" points="518.934,-82.1283 527.212,-75.5164 516.618,-75.5226 518.934,-82.1283"/>
</g>
<!-- Node3 -->
<g id="node3" class="node"><title>Node3</title>
<polygon fill="none" stroke="#bfbfbf" points="0,-0.5 0,-19.5 41,-19.5 41,-0.5 0,-0.5"/>
<text text-anchor="middle" x="20.5" y="-7.5" font-family="Helvetica,sans-Serif" font-size="10.00">string</text>
</g>
<!-- Node2&#45;&gt;Node3 -->
<g id="edge2" class="edge"><title>Node2&#45;&gt;Node3</title>
<path fill="none" stroke="midnightblue" d="M81.7713,-56.324C70.6626,-48.1066 53.7578,-35.6017 40.5167,-25.8069"/>
<polygon fill="midnightblue" stroke="midnightblue" points="42.5631,-22.9671 32.4421,-19.8339 38.4001,-28.5948 42.5631,-22.9671"/>
</g>
<!-- Node4 -->
<g id="node4" class="node"><title>Node4</title>
<polygon fill="none" stroke="#bfbfbf" points="59,-0.5 59,-19.5 118,-19.5 118,-0.5 59,-0.5"/>
<text text-anchor="middle" x="88.5" y="-7.5" font-family="Helvetica,sans-Serif" font-size="10.00">functional</text>
</g>
<!-- Node2&#45;&gt;Node4 -->
<g id="edge3" class="edge"><title>Node2&#45;&gt;Node4</title>
<path fill="none" stroke="midnightblue" d="M92.6744,-56.083C92.0191,-49.0059 91.0797,-38.8611 90.258,-29.9865"/>
<polygon fill="midnightblue" stroke="midnightblue" points="93.7174,-29.3858 89.3103,-19.7511 86.7473,-30.0312 93.7174,-29.3858"/>
</g>
<!-- Node5 -->
<g id="node5" class="node"><title>Node5</title>
<polygon fill="none" stroke="#bfbfbf" points="136,-0.5 136,-19.5 181,-19.5 181,-0.5 136,-0.5"/>
<text text-anchor="middle" x="158.5" y="-7.5" font-family="Helvetica,sans-Serif" font-size="10.00">iosfwd</text>
</g>
<!-- Node2&#45;&gt;Node5 -->
<g id="edge4" class="edge"><title>Node2&#45;&gt;Node5</title>
<path fill="none" stroke="midnightblue" d="M103.943,-56.324C113.646,-48.2631 128.315,-36.0765 140,-26.3695"/>
<polygon fill="midnightblue" stroke="midnightblue" points="142.411,-28.9163 147.867,-19.8339 137.938,-23.532 142.411,-28.9163"/>
</g>
<!-- Node7 -->
<g id="node7" class="node"><title>Node7</title>
<polygon fill="none" stroke="#bfbfbf" points="199.5,-0.5 199.5,-19.5 329.5,-19.5 329.5,-0.5 199.5,-0.5"/>
<text text-anchor="middle" x="264.5" y="-7.5" font-family="Helvetica,sans-Serif" font-size="10.00">InfoLogger/InfoLogger.hxx</text>
</g>
<!-- Node6&#45;&gt;Node7 -->
<g id="edge6" class="edge"><title>Node6&#45;&gt;Node7</title>
<path fill="none" stroke="midnightblue" d="M259.491,-56.083C260.286,-48.9272 261.429,-38.6353 262.423,-29.6911"/>
<polygon fill="midnightblue" stroke="midnightblue" points="265.902,-30.0765 263.528,-19.7511 258.945,-29.3034 265.902,-30.0765"/>
</g>
</g>
</svg>
